<?xml version="1.0" encoding="utf-8"?>
<!-- Generator: Adobe Illustrator 25.4.1, SVG Export Plug-In . SVG Version: 6.00 Build 0)  -->
<svg version="1.1" id="Layer_1" xmlns="http://www.w3.org/2000/svg" xmlns:xlink="http://www.w3.org/1999/xlink" x="0px" y="0px"
	 viewBox="0 0 320 50" style="enable-background:new 0 0 320 50;" xml:space="preserve">
<style type="text/css">
	.st0{fill:#490A09;}
</style>
<g>
	<path class="st0" d="M8.2,39.4l1.8-2.2c1.2,0.9,2.5,1.4,3.8,1.4c0.9,0,1.3-0.3,1.3-0.8v0c0-0.5-0.4-0.8-2-1.1
		c-2.5-0.6-4.4-1.3-4.4-3.7v0c0-2.2,1.7-3.8,4.6-3.8c2,0,3.6,0.5,4.8,1.6l-1.6,2.3c-1.1-0.8-2.3-1.2-3.3-1.2c-0.8,0-1.2,0.3-1.2,0.8
		v0c0,0.5,0.4,0.8,2,1.1c2.7,0.6,4.4,1.5,4.4,3.7v0c0,2.4-1.9,3.8-4.8,3.8C11.6,41.4,9.6,40.7,8.2,39.4z"/>
	<path class="st0" d="M19.5,36.7L19.5,36.7c0-2.7,1.9-4.8,4.6-4.8c3.1,0,4.6,2.3,4.6,5c0,0.2,0,0.4,0,0.7h-6.1c0.3,1,1,1.5,2,1.5
		c0.8,0,1.4-0.3,2-0.9l1.8,1.5c-0.9,1.1-2.1,1.9-4,1.9C21.5,41.4,19.5,39.5,19.5,36.7z M25.7,35.9c-0.1-1-0.7-1.6-1.6-1.6
		c-0.8,0-1.4,0.7-1.6,1.6H25.7z"/>
	<path class="st0" d="M29.6,38.6L29.6,38.6c0-1.9,1.4-2.9,3.6-2.9c0.8,0,1.7,0.2,2.2,0.4v-0.2c0-0.9-0.6-1.5-1.8-1.5
		c-1,0-1.7,0.2-2.5,0.5l-0.7-2.3c1-0.4,2.1-0.7,3.7-0.7c1.6,0,2.7,0.4,3.5,1.1c0.7,0.7,1,1.6,1,2.9v5.2h-3.2v-0.9
		c-0.6,0.7-1.5,1.1-2.7,1.1C30.9,41.4,29.6,40.4,29.6,38.6z M35.3,37.9v-0.4c-0.3-0.1-0.8-0.2-1.2-0.2c-0.9,0-1.5,0.5-1.5,1.1v0
		c0,0.6,0.5,1,1.1,1C34.7,39.4,35.3,38.8,35.3,37.9z"/>
	<path class="st0" d="M39.4,40l1.2-1.9c1,0.7,2.2,1,3.1,1c0.6,0,0.8-0.2,0.8-0.5v0c0-0.4-0.5-0.5-1.5-0.8c-1.8-0.5-3.2-1.1-3.2-2.9
		v0c0-1.9,1.5-3,3.7-3c1.3,0,2.7,0.4,3.8,1.1l-1.1,2c-0.9-0.5-2-0.8-2.7-0.8c-0.5,0-0.7,0.2-0.7,0.4v0c0,0.4,0.5,0.5,1.5,0.8
		c1.8,0.5,3.2,1.1,3.2,2.9v0c0,2-1.5,3-3.7,3C42.2,41.4,40.7,41,39.4,40z"/>
	<path class="st0" d="M48.4,36.7L48.4,36.7c0-2.6,2.1-4.8,5-4.8c2.9,0,5,2.1,5,4.7v0c0,2.6-2.1,4.8-5,4.8
		C50.5,41.4,48.4,39.3,48.4,36.7z M55.3,36.7L55.3,36.7c0-1.1-0.8-2.1-1.9-2.1c-1.2,0-1.9,0.9-1.9,2v0c0,1.1,0.8,2.1,1.9,2.1
		C54.6,38.7,55.3,37.8,55.3,36.7z"/>
	<path class="st0" d="M59.8,32.1H63v1.3c0.6-0.8,1.4-1.5,2.7-1.5c1.9,0,3.1,1.3,3.1,3.3v6h-3.2v-4.9c0-1-0.5-1.5-1.3-1.5
		c-0.8,0-1.3,0.5-1.3,1.5v4.9h-3.2V32.1z"/>
	<path class="st0" d="M77,32.4l-2,0.5l-0.6-2.5l3.5-1h2.4v11.9H77V32.4z"/>
	<path class="st0" d="M87.4,34.6h-1.1v-2.5h1.1v-0.2c0-1,0.2-1.8,0.8-2.4c0.6-0.6,1.3-0.8,2.4-0.8c1,0,1.6,0.1,2.1,0.3v2.3
		c-0.4-0.1-0.7-0.2-1.2-0.2c-0.6,0-0.9,0.3-0.9,0.9v0.2h2.1v2.5h-2v6.5h-3.2V34.6z"/>
	<path class="st0" d="M93.7,32.1h3.2v1.8c0.5-1.2,1.4-2.1,2.9-2v3.4h-0.3c-1.7,0-2.6,1-2.6,3.1v2.8h-3.2V32.1z"/>
	<path class="st0" d="M100.3,36.7L100.3,36.7c0-2.7,1.9-4.8,4.6-4.8c3.1,0,4.6,2.3,4.6,5c0,0.2,0,0.4,0,0.7h-6.1c0.3,1,1,1.5,2,1.5
		c0.8,0,1.4-0.3,2-0.9l1.8,1.5c-0.9,1.1-2.1,1.9-4,1.9C102.4,41.4,100.3,39.5,100.3,36.7z M106.5,35.9c-0.1-1-0.7-1.6-1.6-1.6
		c-0.8,0-1.4,0.7-1.6,1.6H106.5z"/>
	<path class="st0" d="M110.5,36.7L110.5,36.7c0-2.7,1.9-4.8,4.6-4.8c3.1,0,4.6,2.3,4.6,5c0,0.2,0,0.4,0,0.7h-6.1c0.3,1,1,1.5,2,1.5
		c0.8,0,1.4-0.3,2-0.9l1.8,1.5c-0.9,1.1-2.1,1.9-4,1.9C112.5,41.4,110.5,39.5,110.5,36.7z M116.7,35.9c-0.1-1-0.7-1.6-1.6-1.6
		c-0.8,0-1.4,0.7-1.6,1.6H116.7z"/>
	<path class="st0" d="M125.4,36.7L125.4,36.7c0-2.6,2.1-4.8,5-4.8c2.9,0,5,2.1,5,4.7v0c0,2.6-2.1,4.8-5,4.8
		C127.5,41.4,125.4,39.3,125.4,36.7z M132.3,36.7L132.3,36.7c0-1.1-0.8-2.1-1.9-2.1c-1.2,0-1.9,0.9-1.9,2v0c0,1.1,0.8,2.1,1.9,2.1
		C131.6,38.7,132.3,37.8,132.3,36.7z"/>
	<path class="st0" d="M136.8,32.1h3.2v1.3c0.6-0.8,1.4-1.5,2.7-1.5c1.9,0,3.1,1.3,3.1,3.3v6h-3.2v-4.9c0-1-0.5-1.5-1.3-1.5
		c-0.8,0-1.3,0.5-1.3,1.5v4.9h-3.2V32.1z"/>
	<path class="st0" d="M152.3,29.4h3.5l2.8,4.6l2.8-4.6h3.5v11.8h-3.2v-6.8l-3,4.6h-0.1l-3-4.6v6.7h-3.2V29.4z"/>
	<path class="st0" d="M166.9,29.4h3.3v4.4h4.2v-4.4h3.3v11.8h-3.3v-4.5h-4.2v4.5h-3.3V29.4z"/>
	<path class="st0" d="M179.2,39.1l4.2-4.5h-4.1v-2.5h8.3v2.1l-4.2,4.5h4.2v2.5h-8.4V39.1z"/>
	<path class="st0" d="M193.4,35.3L193.4,35.3c0-3.5,2.6-6.2,6.2-6.2c2.4,0,4,1,5,2.5l-2.5,1.9c-0.7-0.8-1.4-1.4-2.6-1.4
		c-1.6,0-2.8,1.4-2.8,3.1v0c0,1.8,1.2,3.1,2.8,3.1c1.2,0,2-0.6,2.7-1.4l2.5,1.8c-1.1,1.5-2.6,2.7-5.2,2.7
		C196.1,41.4,193.4,38.8,193.4,35.3z"/>
	<path class="st0" d="M205.9,28.9h3.2v4.4c0.6-0.8,1.4-1.4,2.7-1.4c1.9,0,3.1,1.3,3.1,3.3v6h-3.2v-4.9c0-1-0.5-1.5-1.3-1.5
		c-0.8,0-1.3,0.5-1.3,1.5v4.9h-3.2V28.9z"/>
	<path class="st0" d="M216.2,36.7L216.2,36.7c0-2.6,2.1-4.8,5-4.8c2.9,0,5,2.1,5,4.7v0c0,2.6-2.1,4.8-5,4.8
		C218.3,41.4,216.2,39.3,216.2,36.7z M223.2,36.7L223.2,36.7c0-1.1-0.8-2.1-1.9-2.1c-1.2,0-1.9,0.9-1.9,2v0c0,1.1,0.8,2.1,1.9,2.1
		C222.4,38.7,223.2,37.8,223.2,36.7z"/>
	<path class="st0" d="M227.6,28.9h3.3v2.4h-3.3V28.9z M227.7,32.1h3.2v9.1h-3.2V32.1z"/>
	<path class="st0" d="M232.3,36.7L232.3,36.7c0-2.6,2-4.8,4.9-4.8c1.9,0,3.1,0.8,3.9,2l-2.2,1.6c-0.4-0.6-0.9-1-1.7-1
		c-1,0-1.8,0.9-1.8,2v0c0,1.2,0.7,2.1,1.8,2.1c0.8,0,1.2-0.4,1.8-0.9l2.1,1.5c-0.8,1.2-2.1,2.1-4.1,2.1
		C234.3,41.4,232.3,39.3,232.3,36.7z"/>
	<path class="st0" d="M241.7,36.7L241.7,36.7c0-2.7,1.9-4.8,4.6-4.8c3.1,0,4.6,2.3,4.6,5c0,0.2,0,0.4,0,0.7h-6.1c0.3,1,1,1.5,2,1.5
		c0.8,0,1.4-0.3,2-0.9l1.8,1.5c-0.9,1.1-2.1,1.9-4,1.9C243.7,41.4,241.7,39.5,241.7,36.7z M247.9,35.9c-0.1-1-0.7-1.6-1.6-1.6
		c-0.8,0-1.4,0.7-1.6,1.6H247.9z"/>
	<path class="st0" d="M252,37.9h3.3v3.3H252V37.9z"/>
</g>
</svg>
