<?xml version="1.0" encoding="utf-8"?>
<!-- Generator: Adobe Illustrator 25.4.1, SVG Export Plug-In . SVG Version: 6.00 Build 0)  -->
<svg version="1.1" id="Layer_1" xmlns="http://www.w3.org/2000/svg" xmlns:xlink="http://www.w3.org/1999/xlink" x="0px" y="0px"
	 viewBox="0 0 320 50" style="enable-background:new 0 0 320 50;" xml:space="preserve">
<style type="text/css">
	.st0{fill:#490A09;}
</style>
<g>
	<path class="st0" d="M11,12.5h3.3l-3.2,11.8H7.9L11,12.5z"/>
	<path class="st0" d="M15.6,15.2h3.2l-0.3,1c0.6-0.6,1.5-1.2,2.5-1.2c1.2,0,2,0.6,2.4,1.6c0.9-1,2-1.6,3.3-1.6c1.7,0,2.7,1,2.7,2.7
		c0,0.5-0.1,1.1-0.3,1.6l-1.3,4.9h-3.2l1.3-4.8c0.1-0.2,0.1-0.5,0.1-0.7c0-0.6-0.3-1-1-1c-0.9,0-1.4,0.6-1.7,1.6l-1.3,4.8h-3.2
		l1.3-4.8c0.1-0.2,0.1-0.5,0.1-0.7c0-0.6-0.3-1-1-1c-0.9,0-1.4,0.6-1.7,1.6l-1.3,4.8h-3.2L15.6,15.2z"/>
	<path class="st0" d="M31.8,15.2H35l-0.3,1c0.6-0.6,1.5-1.2,2.5-1.2c1.2,0,2,0.6,2.4,1.6c0.9-1,2-1.6,3.3-1.6c1.7,0,2.7,1,2.7,2.7
		c0,0.5-0.1,1.1-0.3,1.6l-1.3,4.9h-3.2l1.3-4.8c0.1-0.2,0.1-0.5,0.1-0.7c0-0.6-0.3-1-1-1c-0.9,0-1.4,0.6-1.7,1.6l-1.3,4.8h-3.2
		l1.3-4.8c0.1-0.2,0.1-0.5,0.1-0.7c0-0.6-0.3-1-1-1c-0.9,0-1.4,0.6-1.7,1.6l-1.3,4.8h-3.2L31.8,15.2z"/>
	<path class="st0" d="M46.1,22c0-2,1.6-3.2,4-3.2c0.8,0,1.6,0.1,2.3,0.4l0-0.1c0-0.2,0.1-0.3,0.1-0.6c0-0.6-0.5-1-1.6-1
		c-0.9,0-1.8,0.2-2.5,0.5L48,15.6c1-0.3,2.3-0.6,3.6-0.6c2.7,0,4.1,1.1,4.1,2.9c0,0.4-0.1,0.9-0.2,1.3l-1.3,5H51l0.3-1
		c-0.8,0.7-1.6,1.2-2.6,1.2C47.1,24.5,46.1,23.5,46.1,22z M52,20.9l0.1-0.3c-0.4-0.1-0.8-0.2-1.2-0.2c-1,0-1.7,0.5-1.7,1.3
		c0,0.5,0.4,0.8,0.9,0.8C50.9,22.5,51.7,21.8,52,20.9z"/>
	<path class="st0" d="M65.7,15.4h-3.5l0.8-2.9h10.3l-0.8,2.9H69l-2.4,8.9h-3.3L65.7,15.4z"/>
	<path class="st0" d="M70.7,22c0-2,1.6-3.2,4-3.2c0.8,0,1.6,0.1,2.3,0.4l0-0.1c0-0.2,0.1-0.3,0.1-0.6c0-0.6-0.5-1-1.6-1
		c-0.9,0-1.8,0.2-2.5,0.5l-0.5-2.3c1-0.3,2.3-0.6,3.6-0.6c2.7,0,4.1,1.1,4.1,2.9c0,0.4-0.1,0.9-0.2,1.3l-1.3,5h-3.1l0.3-1
		c-0.8,0.7-1.6,1.2-2.6,1.2C71.8,24.5,70.7,23.5,70.7,22z M76.6,20.9l0.1-0.3c-0.4-0.1-0.8-0.2-1.2-0.2c-1,0-1.7,0.5-1.7,1.3
		c0,0.5,0.4,0.8,0.9,0.8C75.6,22.5,76.4,21.8,76.6,20.9z"/>
	<path class="st0" d="M81.5,22.3c0-0.4,0.1-0.8,0.2-1.2l0.9-3.4h-1.1l0.7-2.6h1.1l0.6-2.3h3.2l-0.6,2.3h2.1l-0.7,2.6h-2.1L85,20.6
		c-0.1,0.2-0.1,0.4-0.1,0.6c0,0.4,0.2,0.6,0.7,0.6c0.4,0,0.7-0.1,1.2-0.3l-0.7,2.7c-0.6,0.2-1.2,0.3-1.9,0.3
		C82.4,24.5,81.5,23.7,81.5,22.3z"/>
	<path class="st0" d="M88.7,22.3c0-0.4,0.1-0.8,0.2-1.2l0.9-3.4h-1.1l0.7-2.6h1.1l0.6-2.3h3.2l-0.6,2.3h2.1l-0.7,2.6H93l-0.8,2.9
		c-0.1,0.2-0.1,0.4-0.1,0.6c0,0.4,0.2,0.6,0.7,0.6c0.4,0,0.7-0.1,1.2-0.3l-0.7,2.7c-0.6,0.2-1.2,0.3-1.9,0.3
		C89.6,24.5,88.7,23.7,88.7,22.3z"/>
	<path class="st0" d="M95.1,22c0-2,1.6-3.2,4-3.2c0.8,0,1.6,0.1,2.3,0.4l0-0.1c0-0.2,0.1-0.3,0.1-0.6c0-0.6-0.5-1-1.6-1
		c-0.9,0-1.8,0.2-2.5,0.5l-0.5-2.3c1-0.3,2.3-0.6,3.6-0.6c2.7,0,4.1,1.1,4.1,2.9c0,0.4-0.1,0.9-0.2,1.3l-1.3,5H100l0.3-1
		c-0.8,0.7-1.6,1.2-2.6,1.2C96.2,24.5,95.1,23.5,95.1,22z M101,20.9l0.1-0.3c-0.4-0.1-0.8-0.2-1.2-0.2c-1,0-1.7,0.5-1.7,1.3
		c0,0.5,0.4,0.8,0.9,0.8C100,22.5,100.8,21.8,101,20.9z"/>
	<path class="st0" d="M107.2,15.2h3.2l-0.5,1.8c0.9-1.3,1.9-2.1,3.4-2l-0.9,3.4h-0.3c-1.8,0-2.9,1-3.5,3.1l-0.7,2.7h-3.2L107.2,15.2
		z"/>
	<path class="st0" d="M112.1,22c0-2,1.6-3.2,4-3.2c0.8,0,1.6,0.1,2.3,0.4l0-0.1c0-0.2,0.1-0.3,0.1-0.6c0-0.6-0.5-1-1.6-1
		c-0.9,0-1.8,0.2-2.5,0.5l-0.5-2.3c1-0.3,2.3-0.6,3.6-0.6c2.7,0,4.1,1.1,4.1,2.9c0,0.4-0.1,0.9-0.2,1.3l-1.3,5H117l0.3-1
		c-0.8,0.7-1.6,1.2-2.6,1.2C113.2,24.5,112.1,23.5,112.1,22z M118,20.9l0.1-0.3c-0.4-0.1-0.8-0.2-1.2-0.2c-1,0-1.7,0.5-1.7,1.3
		c0,0.5,0.4,0.8,0.9,0.8C117,22.5,117.8,21.8,118,20.9z"/>
	<path class="st0" d="M124.2,15.2h3.2l-0.3,1c0.6-0.7,1.5-1.2,2.6-1.2c1.6,0,2.6,1,2.6,2.7c0,0.5-0.1,1.1-0.3,1.6l-1.3,4.9h-3.2
		l1.3-4.8c0.1-0.2,0.1-0.5,0.1-0.7c0-0.6-0.4-1-1-1c-0.9,0-1.4,0.6-1.7,1.6l-1.3,4.8h-3.2L124.2,15.2z"/>
	<path class="st0" d="M134.9,15.2h3.2l-2.4,9.1h-3.2L134.9,15.2z M135.7,12h3.3l-0.6,2.4h-3.3L135.7,12z"/>
	<path class="st0" d="M138.4,21h3.3l-0.9,3.3h-3.3L138.4,21z"/>
</g>
</svg>
