<?xml version="1.0" encoding="utf-8"?>
<!-- Generator: Adobe Illustrator 25.4.1, SVG Export Plug-In . SVG Version: 6.00 Build 0)  -->
<svg version="1.1" id="Layer_1" xmlns="http://www.w3.org/2000/svg" xmlns:xlink="http://www.w3.org/1999/xlink" x="0px" y="0px"
	 viewBox="0 0 320 50" style="enable-background:new 0 0 320 50;" xml:space="preserve">
<style type="text/css">
	.st0{fill:#490A09;}
</style>
<g>
	<path class="st0" d="M13.7,18h3.5l5.5,13.1h-3.9l-0.9-2.3h-5l-0.9,2.3H8.1L13.7,18z M16.8,26l-1.5-3.7L13.9,26H16.8z"/>
	<path class="st0" d="M32.4,29.9v1.2h-3.5V17.5h3.5v4.9c0.7-0.8,1.5-1.6,3.1-1.6c2.4,0,4.5,2,4.5,5.2v0c0,3.3-2.1,5.3-4.4,5.3
		C34,31.4,33.1,30.7,32.4,29.9z M36.5,26.1L36.5,26.1c0-1.4-0.9-2.3-2.1-2.3c-1.1,0-2,0.9-2,2.3v0c0,1.3,0.9,2.3,2,2.3
		C35.6,28.4,36.5,27.5,36.5,26.1z"/>
	<path class="st0" d="M41.5,21.1H45v2c0.6-1.4,1.5-2.3,3.2-2.2v3.7h-0.3c-1.8,0-2.9,1.1-2.9,3.4v3.1h-3.5V21.1z"/>
	<path class="st0" d="M49.5,17.5h3.7v2.6h-3.7V17.5z M49.5,21.1h3.5v10.1h-3.5V21.1z"/>
	<path class="st0" d="M55.1,17.5h3.5v13.6h-3.5V17.5z"/>
	<path class="st0" d="M60.7,17.5h3.5v13.6h-3.5V17.5z"/>
	<path class="st0" d="M66.2,17.5h3.7v2.6h-3.7V17.5z M66.3,21.1h3.5v10.1h-3.5V21.1z"/>
	<path class="st0" d="M71.3,28.3L71.3,28.3c0-2.1,1.6-3.2,3.9-3.2c0.9,0,1.8,0.2,2.4,0.4v-0.2c0-1-0.7-1.6-2-1.6
		c-1.1,0-1.9,0.2-2.8,0.6l-0.7-2.5c1.1-0.5,2.3-0.8,4.1-0.8c1.8,0,3,0.4,3.8,1.2c0.8,0.7,1.1,1.8,1.1,3.2v5.8h-3.5v-1
		c-0.7,0.8-1.6,1.3-3,1.3C72.8,31.4,71.3,30.3,71.3,28.3z M77.7,27.5V27c-0.4-0.1-0.9-0.3-1.4-0.3c-1,0-1.6,0.5-1.6,1.2v0
		c0,0.7,0.5,1.1,1.2,1.1C77,29.1,77.7,28.5,77.7,27.5z"/>
	<path class="st0" d="M83,21.1h3.5v1.4c0.7-0.8,1.6-1.6,3-1.6c2.1,0,3.4,1.4,3.4,3.7v6.6h-3.5v-5.5c0-1.1-0.6-1.7-1.4-1.7
		c-0.9,0-1.5,0.6-1.5,1.7v5.5H83V21.1z"/>
	<path class="st0" d="M95.4,28v-4.1h-1.2v-2.8h1.2v-2.6h3.5v2.6h2.3v2.8h-2.3v3.4c0,0.7,0.3,1,1,1c0.5,0,0.9-0.1,1.3-0.3v2.8
		c-0.6,0.4-1.5,0.6-2.5,0.6C96.6,31.3,95.4,30.4,95.4,28z"/>
	<path class="st0" d="M102.9,17.5h3.5v13.6h-3.5V17.5z"/>
	<path class="st0" d="M108.1,33.3l1.1-2.5c0.6,0.3,1.2,0.5,1.5,0.5c0.4,0,0.6-0.1,0.8-0.4l-3.9-9.9h3.7l2,6.1l1.9-6.1h3.6l-3.7,9.8
		c-0.9,2.3-1.8,3.3-3.8,3.3C110.1,34.2,109,33.8,108.1,33.3z"/>
	<path class="st0" d="M125.8,23.9h-1.2v-2.8h1.2v-0.2c0-1.2,0.3-2,0.9-2.6c0.6-0.6,1.4-0.9,2.6-0.9c1.1,0,1.8,0.1,2.3,0.3v2.5
		c-0.4-0.1-0.8-0.2-1.3-0.2c-0.7,0-1,0.3-1,0.9v0.2h2.3v2.7h-2.3v7.2h-3.5V23.9z"/>
	<path class="st0" d="M132.6,27.7v-6.6h3.5v5.5c0,1.1,0.6,1.7,1.4,1.7c0.8,0,1.5-0.6,1.5-1.7v-5.5h3.5v10.1h-3.5v-1.4
		c-0.7,0.8-1.6,1.6-3,1.6C133.9,31.4,132.6,29.9,132.6,27.7z"/>
	<path class="st0" d="M144.5,21.1h3.5v1.4c0.7-0.8,1.6-1.6,3-1.6c2.1,0,3.4,1.4,3.4,3.7v6.6h-3.5v-5.5c0-1.1-0.6-1.7-1.4-1.7
		c-0.9,0-1.5,0.6-1.5,1.7v5.5h-3.5V21.1z"/>
	<path class="st0" d="M156.3,21.1h3.5v1.4c0.7-0.8,1.6-1.6,3-1.6c2.1,0,3.4,1.4,3.4,3.7v6.6h-3.5v-5.5c0-1.1-0.6-1.7-1.4-1.7
		c-0.9,0-1.5,0.6-1.5,1.7v5.5h-3.5V21.1z"/>
	<path class="st0" d="M167.6,33.3l1.1-2.5c0.6,0.3,1.2,0.5,1.5,0.5c0.4,0,0.6-0.1,0.8-0.4l-3.9-9.9h3.7l2,6.1l1.9-6.1h3.6l-3.7,9.8
		c-0.9,2.3-1.8,3.3-3.8,3.3C169.6,34.2,168.5,33.8,167.6,33.3z"/>
	<path class="st0" d="M184.7,21.1h3.5v1.3c0.7-0.8,1.5-1.6,3.1-1.6c2.4,0,4.5,2,4.5,5.2v0c0,3.3-2.1,5.3-4.4,5.3
		c-1.5,0-2.4-0.7-3.1-1.5v4.2h-3.5V21.1z M192.2,26.1L192.2,26.1c0-1.4-0.9-2.3-2.1-2.3c-1.1,0-2,0.9-2,2.3v0c0,1.3,0.9,2.3,2,2.3
		C191.3,28.4,192.2,27.5,192.2,26.1z"/>
	<path class="st0" d="M197.2,21.1h3.5v2c0.6-1.4,1.5-2.3,3.2-2.2v3.7h-0.3c-1.8,0-2.9,1.1-2.9,3.4v3.1h-3.5V21.1z"/>
	<path class="st0" d="M204.6,26.1L204.6,26.1c0-2.9,2.3-5.3,5.6-5.3c3.2,0,5.5,2.4,5.5,5.2v0c0,2.9-2.3,5.3-5.6,5.3
		C206.9,31.4,204.6,29,204.6,26.1z M212.3,26.1L212.3,26.1c0-1.3-0.9-2.3-2.1-2.3c-1.3,0-2.1,1-2.1,2.2v0c0,1.2,0.9,2.3,2.1,2.3
		C211.5,28.4,212.3,27.4,212.3,26.1z"/>
	<path class="st0" d="M216.5,29.9l1.3-2.1c1.2,0.8,2.4,1.2,3.5,1.2c0.6,0,0.9-0.2,0.9-0.5v0c0-0.4-0.6-0.6-1.6-0.9
		c-2-0.5-3.6-1.2-3.6-3.2v0c0-2.1,1.7-3.3,4-3.3c1.5,0,3,0.4,4.2,1.2l-1.2,2.2c-1-0.6-2.2-0.9-3-0.9c-0.5,0-0.8,0.2-0.8,0.5v0
		c0,0.4,0.6,0.6,1.6,0.9c2,0.6,3.6,1.2,3.6,3.2v0c0,2.2-1.7,3.4-4.1,3.4C219.5,31.4,217.9,30.9,216.5,29.9z"/>
	<path class="st0" d="M226.4,26.1L226.4,26.1c0-3,2.1-5.3,5.1-5.3c3.5,0,5.1,2.6,5.1,5.5c0,0.2,0,0.5,0,0.7h-6.7
		c0.3,1.1,1.1,1.7,2.2,1.7c0.8,0,1.5-0.3,2.2-1l2,1.6c-1,1.2-2.4,2-4.4,2C228.6,31.4,226.4,29.3,226.4,26.1z M233.2,25.3
		c-0.1-1.1-0.8-1.8-1.8-1.8c-0.9,0-1.6,0.7-1.8,1.8H233.2z"/>
	<path class="st0" d="M237.6,26.1L237.6,26.1c0-2.9,2.2-5.3,5.4-5.3c2.1,0,3.4,0.9,4.3,2.3l-2.4,1.8c-0.5-0.7-1-1.1-1.9-1.1
		c-1.1,0-2,1-2,2.2v0c0,1.3,0.8,2.3,2,2.3c0.8,0,1.4-0.4,1.9-1l2.4,1.7c-0.9,1.4-2.3,2.3-4.5,2.3C239.9,31.4,237.6,29,237.6,26.1z"
		/>
	<path class="st0" d="M248.6,27.7v-6.6h3.5v5.5c0,1.1,0.6,1.7,1.4,1.7c0.8,0,1.5-0.6,1.5-1.7v-5.5h3.5v10.1H255v-1.4
		c-0.7,0.8-1.6,1.6-3,1.6C249.9,31.4,248.6,29.9,248.6,27.7z"/>
	<path class="st0" d="M261.1,28v-4.1h-1.2v-2.8h1.2v-2.6h3.5v2.6h2.3v2.8h-2.3v3.4c0,0.7,0.3,1,1,1c0.5,0,0.9-0.1,1.3-0.3v2.8
		c-0.6,0.4-1.5,0.6-2.5,0.6C262.3,31.3,261.1,30.4,261.1,28z"/>
	<path class="st0" d="M267.8,26.1L267.8,26.1c0-2.9,2.3-5.3,5.6-5.3c3.2,0,5.5,2.4,5.5,5.2v0c0,2.9-2.3,5.3-5.6,5.3
		C270.1,31.4,267.8,29,267.8,26.1z M275.5,26.1L275.5,26.1c0-1.3-0.9-2.3-2.1-2.3c-1.3,0-2.1,1-2.1,2.2v0c0,1.2,0.9,2.3,2.1,2.3
		C274.7,28.4,275.5,27.4,275.5,26.1z"/>
	<path class="st0" d="M280.4,21.1h3.5v2c0.6-1.4,1.5-2.3,3.2-2.2v3.7h-0.3c-1.8,0-2.9,1.1-2.9,3.4v3.1h-3.5V21.1z"/>
	<path class="st0" d="M287.1,27.5h3.7v3.6h-3.7V27.5z"/>
</g>
</svg>
