<?xml version="1.0" encoding="utf-8"?>
<!-- Generator: Adobe Illustrator 25.4.1, SVG Export Plug-In . SVG Version: 6.00 Build 0)  -->
<svg version="1.1" id="Layer_1" xmlns="http://www.w3.org/2000/svg" xmlns:xlink="http://www.w3.org/1999/xlink" x="0px" y="0px"
	 viewBox="0 0 320 50" style="enable-background:new 0 0 320 50;" xml:space="preserve">
<style type="text/css">
	.st0{fill:#AB1F2D;}
	.st1{fill:#FFFFFF;}
</style>
<path class="st0" d="M270.5,32.5c-3,0-5.5,2.5-5.5,5.5v1.6c0,3,2.5,5.5,5.5,5.5h38c3,0,5.5-2.5,5.5-5.5v-1.6c0-3-2.5-5.5-5.5-5.5
	H270.5z"/>
<g>
	<path class="st1" d="M268.3,36.9h1l0.9,3l1-3h0.8l1,3l0.9-3h1l-1.5,4.4h-0.8l-1-2.9l-1,2.9h-0.8L268.3,36.9z"/>
	<path class="st1" d="M276.5,36.9h0.9l1.9,4.4h-1l-0.4-1h-1.8l-0.4,1h-1L276.5,36.9z M277.6,39.4L277,38l-0.6,1.4H277.6z"/>
	<path class="st1" d="M280.4,37.8h-1.3v-0.9h3.6v0.9h-1.3v3.5h-1V37.8z"/>
	<path class="st1" d="M283.1,39.1L283.1,39.1c0-1.3,0.9-2.3,2.3-2.3c0.8,0,1.3,0.3,1.7,0.7l-0.6,0.7c-0.3-0.3-0.7-0.5-1.1-0.5
		c-0.7,0-1.3,0.6-1.3,1.4v0c0,0.7,0.5,1.4,1.3,1.4c0.5,0,0.8-0.2,1.1-0.5l0.6,0.6c-0.4,0.5-0.9,0.8-1.8,0.8
		C284,41.3,283.1,40.4,283.1,39.1z"/>
	<path class="st1" d="M287.9,36.9h1v1.7h1.8v-1.7h1v4.4h-1v-1.8h-1.8v1.8h-1V36.9z"/>
	<path class="st1" d="M294.5,36.9h0.9l2,2.7v-2.7h0.9v4.4h-0.8l-2.1-2.8v2.8h-0.9V36.9z"/>
	<path class="st1" d="M299.2,39.1L299.2,39.1c0-1.3,1-2.3,2.3-2.3c1.3,0,2.3,1,2.3,2.2v0c0,1.2-1,2.3-2.3,2.3
		C300.2,41.3,299.2,40.3,299.2,39.1z M302.9,39.1L302.9,39.1c0-0.8-0.5-1.4-1.3-1.4c-0.8,0-1.3,0.6-1.3,1.4v0c0,0.7,0.5,1.4,1.3,1.4
		C302.3,40.5,302.9,39.9,302.9,39.1z"/>
	<path class="st1" d="M304.2,36.9h1l0.9,3l1-3h0.8l1,3l0.9-3h1l-1.5,4.4h-0.8l-1-2.9l-1,2.9h-0.8L304.2,36.9z"/>
</g>
</svg>
