<?xml version="1.0" encoding="utf-8"?>
<!-- Generator: Adobe Illustrator 25.4.1, SVG Export Plug-In . SVG Version: 6.00 Build 0)  -->
<svg version="1.1" id="Layer_1" xmlns="http://www.w3.org/2000/svg" xmlns:xlink="http://www.w3.org/1999/xlink" x="0px" y="0px"
	 viewBox="0 0 320 50" style="enable-background:new 0 0 320 50;" xml:space="preserve">
<style type="text/css">
	.st0{clip-path:url(#SVGID_00000057134834114996639670000006540589848965592459_);fill:#AC1F2D;}
	.st1{clip-path:url(#SVGID_00000057134834114996639670000006540589848965592459_);fill:#FFFFFF;}
</style>
<g>
	<defs>
		<rect id="SVGID_1_" x="291" y="2.5" width="23.9" height="22.7"/>
	</defs>
	<clipPath id="SVGID_00000070830663392854710600000017061373956104289448_">
		<use xlink:href="#SVGID_1_"  style="overflow:visible;"/>
	</clipPath>
	<path style="clip-path:url(#SVGID_00000070830663392854710600000017061373956104289448_);fill:#AC1F2D;" d="M313.4,14
		c0,5.8-4.7,10.4-10.4,10.4c-5.8,0-10.4-4.7-10.4-10.4S297.2,3.6,303,3.6C308.8,3.6,313.4,8.3,313.4,14"/>
	<path style="clip-path:url(#SVGID_00000070830663392854710600000017061373956104289448_);fill:#FFFFFF;" d="M307.2,12.1v1.2h1.4
		l-1.6,2.5h3.9v-1.2h-1.7l1.5-2.5H307.2z M299.4,10.6l-1.3,2.8l-1.2-2.8h-1.8v5.2h1.4v-2.8l1.3,2.8h0.6l1.2-2.9v2.9h1.5v-5.2H299.4z
		 M305.1,10.6v1.8h-1.8v-1.8h-1.6v5.2h1.6v-2.1h1.8v2.1h1.6v-5.2H305.1z"/>
	<path style="clip-path:url(#SVGID_00000070830663392854710600000017061373956104289448_);fill:#FFFFFF;" d="M307.1,17.9h1.4v-0.4
		h-0.9v-0.3h0.8v-0.4h-0.8v-0.3h0.9v-0.4h-1.4V17.9z M305.9,18c0.4,0,0.6-0.2,0.8-0.4l-0.4-0.3c-0.1,0.1-0.2,0.2-0.4,0.2
		c-0.2,0-0.4-0.2-0.4-0.5v0c0-0.2,0.2-0.5,0.4-0.5c0.2,0,0.3,0.1,0.4,0.2l0.4-0.3c-0.2-0.2-0.4-0.4-0.7-0.4c-0.5,0-0.9,0.4-0.9,0.9
		v0C305.1,17.6,305.5,18,305.9,18 M304.2,17.9h0.5v-1.7h-0.5V17.9z M302.9,17.5c-0.3,0-0.4-0.2-0.4-0.5v0c0-0.2,0.2-0.5,0.4-0.5
		c0.3,0,0.4,0.2,0.4,0.5v0C303.3,17.3,303.1,17.5,302.9,17.5 M302.9,18c0.5,0,0.9-0.4,0.9-0.9v0c0-0.5-0.4-0.9-0.9-0.9
		c-0.5,0-0.9,0.4-0.9,0.9v0C301.9,17.6,302.3,18,302.9,18 M300,17.9h0.5v-0.7h0.6v0.7h0.5v-1.7h-0.5v0.6h-0.6v-0.6H300V17.9z
		 M298.9,18c0.4,0,0.6-0.2,0.8-0.4l-0.4-0.3c-0.1,0.1-0.2,0.2-0.4,0.2c-0.2,0-0.4-0.2-0.4-0.5v0c0-0.2,0.2-0.5,0.4-0.5
		c0.2,0,0.3,0.1,0.4,0.2l0.4-0.3c-0.2-0.2-0.4-0.4-0.7-0.4c-0.5,0-0.9,0.4-0.9,0.9v0C298,17.6,298.4,18,298.9,18"/>
</g>
</svg>
