<?xml version="1.0" encoding="utf-8"?>
<!-- Generator: Adobe Illustrator 25.4.1, SVG Export Plug-In . SVG Version: 6.00 Build 0)  -->
<svg version="1.1" id="Layer_1" xmlns="http://www.w3.org/2000/svg" xmlns:xlink="http://www.w3.org/1999/xlink" x="0px" y="0px"
	 viewBox="0 0 320 50" style="enable-background:new 0 0 320 50;" xml:space="preserve">
<style type="text/css">
	.st0{fill:#490A09;}
</style>
<path class="st0" d="M208.1,19.5h9.2v2.7h-6.1V24h5.5v2.5h-5.5v1.8h6.2V31h-9.3V19.5z"/>
<path class="st0" d="M218.8,27.9v-5.8h3.1v4.8c0,1,0.5,1.5,1.3,1.5c0.7,0,1.3-0.5,1.3-1.5v-4.8h3.1V31h-3.1v-1.2
	c-0.6,0.7-1.4,1.4-2.7,1.4C219.9,31.2,218.8,30,218.8,27.9z"/>
<path class="st0" d="M229.3,22.1h3.1v1.8c0.5-1.2,1.3-2,2.8-1.9v3.3h-0.3c-1.6,0-2.5,0.9-2.5,3V31h-3.1V22.1z"/>
<path class="st0" d="M235.8,26.6L235.8,26.6c0-2.6,2.1-4.7,4.9-4.7c2.8,0,4.9,2.1,4.9,4.6v0c0,2.5-2.1,4.6-4.9,4.6
	C237.8,31.2,235.8,29.1,235.8,26.6z M242.5,26.6L242.5,26.6c0-1.1-0.8-2-1.9-2c-1.1,0-1.9,0.9-1.9,2v0c0,1.1,0.8,2,1.9,2
	C241.8,28.6,242.5,27.7,242.5,26.6z"/>
<path class="st0" d="M246.9,22.1h3.1v1.2c0.6-0.7,1.4-1.4,2.7-1.4c2.1,0,3.9,1.8,3.9,4.6v0c0,2.9-1.8,4.6-3.9,4.6
	c-1.3,0-2.1-0.6-2.7-1.3v3.7h-3.1V22.1z M253.6,26.6L253.6,26.6c0-1.2-0.8-2-1.8-2c-1,0-1.8,0.8-1.8,2v0c0,1.2,0.8,2,1.8,2
	C252.8,28.6,253.6,27.8,253.6,26.6z"/>
<path class="st0" d="M258,19h3.1v4.3c0.6-0.7,1.4-1.4,2.7-1.4c1.9,0,3,1.2,3,3.3V31h-3.1v-4.8c0-1-0.5-1.5-1.2-1.5
	c-0.8,0-1.3,0.5-1.3,1.5V31H258V19z"/>
<path class="st0" d="M268.4,19h3.2v2.3h-3.2V19z M268.4,22.1h3.1V31h-3.1V22.1z"/>
<path class="st0" d="M273.3,19h3.1v12h-3.1V19z"/>
<path class="st0" d="M277.8,26.6L277.8,26.6c0-2.6,1.9-4.7,4.5-4.7c3.1,0,4.5,2.2,4.5,4.9c0,0.2,0,0.4,0,0.6h-5.9
	c0.2,1,1,1.5,1.9,1.5c0.7,0,1.3-0.3,2-0.9l1.7,1.4c-0.9,1.1-2.1,1.8-3.9,1.8C279.8,31.2,277.8,29.4,277.8,26.6z M283.9,25.8
	c-0.1-1-0.7-1.6-1.5-1.6c-0.8,0-1.4,0.6-1.5,1.6H283.9z"/>
<path class="st0" d="M287.9,27.8h3.2V31h-3.2V27.8z"/>
</svg>
