<?xml version="1.0" encoding="utf-8"?>
<!-- Generator: Adobe Illustrator 25.4.1, SVG Export Plug-In . SVG Version: 6.00 Build 0)  -->
<svg version="1.1" id="Layer_1" xmlns="http://www.w3.org/2000/svg" xmlns:xlink="http://www.w3.org/1999/xlink" x="0px" y="0px"
	 viewBox="0 0 320 50" style="enable-background:new 0 0 320 50;" xml:space="preserve">
<style type="text/css">
	.st0{fill:#490A09;}
</style>
<path class="st0" d="M100.5,19.5h9.2v2.8h-6v2h5.4v2.6h-5.4V31h-3.2V19.5z"/>
<path class="st0" d="M111,22.1h3.1v1.8c0.5-1.2,1.3-2,2.8-1.9v3.3h-0.3c-1.6,0-2.5,0.9-2.5,3V31H111V22.1z"/>
<path class="st0" d="M117.1,28.5L117.1,28.5c0-1.9,1.4-2.8,3.5-2.8c0.8,0,1.6,0.2,2.1,0.3v-0.1c0-0.9-0.6-1.4-1.8-1.4
	c-0.9,0-1.7,0.2-2.4,0.5l-0.6-2.2c1-0.4,2.1-0.7,3.6-0.7c1.6,0,2.7,0.4,3.4,1.1c0.7,0.7,1,1.6,1,2.8V31h-3.1v-0.9
	c-0.6,0.7-1.4,1.1-2.6,1.1C118.4,31.2,117.1,30.2,117.1,28.5z M122.8,27.8v-0.4c-0.3-0.1-0.8-0.2-1.2-0.2c-0.9,0-1.4,0.4-1.4,1.1v0
	c0,0.6,0.5,1,1.1,1C122.1,29.3,122.8,28.7,122.8,27.8z"/>
<path class="st0" d="M127.4,22.1h3.1v1.2c0.6-0.7,1.4-1.4,2.7-1.4c1.9,0,3,1.2,3,3.3V31h-3.1v-4.8c0-1-0.5-1.5-1.2-1.5
	c-0.8,0-1.3,0.5-1.3,1.5V31h-3.1V22.1z"/>
<path class="st0" d="M137.4,26.6L137.4,26.6c0-2.5,2-4.7,4.8-4.7c1.8,0,3,0.8,3.8,2l-2.1,1.6c-0.4-0.6-0.9-0.9-1.7-0.9
	c-1,0-1.7,0.9-1.7,2v0c0,1.1,0.7,2,1.8,2c0.7,0,1.2-0.3,1.7-0.9l2.1,1.5c-0.8,1.2-2,2-3.9,2C139.4,31.2,137.4,29.1,137.4,26.6z"/>
<path class="st0" d="M146.5,26.6L146.5,26.6c0-2.6,2.1-4.7,4.9-4.7c2.8,0,4.9,2.1,4.9,4.6v0c0,2.5-2.1,4.6-4.9,4.6
	C148.6,31.2,146.5,29.1,146.5,26.6z M153.3,26.6L153.3,26.6c0-1.1-0.8-2-1.9-2c-1.1,0-1.9,0.9-1.9,2v0c0,1.1,0.8,2,1.9,2
	C152.6,28.6,153.3,27.7,153.3,26.6z"/>
<path class="st0" d="M157.6,22.1h3.1v1.2c0.6-0.7,1.4-1.4,2.7-1.4c2.1,0,3.9,1.8,3.9,4.6v0c0,2.9-1.8,4.6-3.9,4.6
	c-1.3,0-2.1-0.6-2.7-1.3v3.7h-3.1V22.1z M164.3,26.6L164.3,26.6c0-1.2-0.8-2-1.8-2c-1,0-1.8,0.8-1.8,2v0c0,1.2,0.8,2,1.8,2
	C163.5,28.6,164.3,27.8,164.3,26.6z"/>
<path class="st0" d="M168.7,19h3.1v4.3c0.6-0.7,1.4-1.4,2.7-1.4c1.9,0,3,1.2,3,3.3V31h-3.1v-4.8c0-1-0.5-1.5-1.2-1.5
	c-0.8,0-1.3,0.5-1.3,1.5V31h-3.1V19z"/>
<path class="st0" d="M179.1,19h3.2v2.3h-3.2V19z M179.2,22.1h3.1V31h-3.1V22.1z"/>
<path class="st0" d="M184.1,19h3.1v12h-3.1V19z"/>
<path class="st0" d="M188.6,26.6L188.6,26.6c0-2.6,1.9-4.7,4.5-4.7c3.1,0,4.5,2.2,4.5,4.9c0,0.2,0,0.4,0,0.6h-5.9
	c0.2,1,1,1.5,1.9,1.5c0.7,0,1.3-0.3,2-0.9l1.7,1.4c-0.9,1.1-2.1,1.8-3.9,1.8C190.5,31.2,188.6,29.4,188.6,26.6z M194.6,25.8
	c-0.1-1-0.7-1.6-1.5-1.6c-0.8,0-1.4,0.6-1.5,1.6H194.6z"/>
<path class="st0" d="M198.6,27.8h3.2V31h-3.2V27.8z"/>
</svg>
