<?xml version="1.0" encoding="utf-8"?>
<!-- Generator: Adobe Illustrator 25.4.1, SVG Export Plug-In . SVG Version: 6.00 Build 0)  -->
<svg version="1.1" id="Layer_1" xmlns="http://www.w3.org/2000/svg" xmlns:xlink="http://www.w3.org/1999/xlink" x="0px" y="0px"
	 viewBox="0 0 320 50" style="enable-background:new 0 0 320 50;" xml:space="preserve">
<style type="text/css">
	.st0{fill:#490A09;}
</style>
<g>
	<path class="st0" d="M12.3,19.1h3.4l2,6.6l2.2-6.7h2.7l2.2,6.7l2-6.6h3.3l-3.8,11.6h-2.8l-2.3-6.6l-2.3,6.6h-2.8L12.3,19.1z"/>
	<path class="st0" d="M29.7,26.2L29.7,26.2c0-2.6,1.9-4.7,4.5-4.7c3.1,0,4.5,2.2,4.5,4.9c0,0.2,0,0.4,0,0.6h-5.9
		c0.2,1,1,1.5,1.9,1.5c0.7,0,1.3-0.3,2-0.9l1.7,1.4c-0.9,1.1-2.1,1.8-3.9,1.8C31.7,30.8,29.7,29,29.7,26.2z M35.7,25.4
		c-0.1-1-0.7-1.6-1.5-1.6c-0.8,0-1.4,0.6-1.5,1.6H35.7z"/>
	<path class="st0" d="M44.5,18.6h3.1V23c0.6-0.7,1.4-1.4,2.7-1.4c1.9,0,3,1.2,3,3.3v5.8h-3.1v-4.8c0-1-0.5-1.5-1.2-1.5
		c-0.8,0-1.3,0.5-1.3,1.5v4.8h-3.1V18.6z"/>
	<path class="st0" d="M54.5,28.1L54.5,28.1c0-1.9,1.4-2.8,3.5-2.8c0.8,0,1.6,0.2,2.1,0.3v-0.1c0-0.9-0.6-1.4-1.8-1.4
		c-0.9,0-1.7,0.2-2.4,0.5l-0.6-2.2c1-0.4,2.1-0.7,3.6-0.7c1.6,0,2.7,0.4,3.4,1.1c0.7,0.7,1,1.6,1,2.8v5.1h-3.1v-0.9
		c-0.6,0.7-1.4,1.1-2.6,1.1C55.8,30.8,54.5,29.8,54.5,28.1z M60.1,27.4V27c-0.3-0.1-0.8-0.2-1.2-0.2c-0.9,0-1.4,0.4-1.4,1.1v0
		c0,0.6,0.5,1,1.1,1C59.5,28.9,60.1,28.3,60.1,27.4z"/>
	<path class="st0" d="M63.6,21.7h3.3l1.7,5.2l1.7-5.2h3.2L70,30.7h-2.8L63.6,21.7z"/>
	<path class="st0" d="M73.6,26.2L73.6,26.2c0-2.6,1.9-4.7,4.5-4.7c3.1,0,4.5,2.2,4.5,4.9c0,0.2,0,0.4,0,0.6h-5.9
		c0.2,1,1,1.5,1.9,1.5c0.7,0,1.3-0.3,2-0.9l1.7,1.4c-0.9,1.1-2.1,1.8-3.9,1.8C75.6,30.8,73.6,29,73.6,26.2z M79.7,25.4
		c-0.1-1-0.7-1.6-1.5-1.6c-0.8,0-1.4,0.6-1.5,1.6H79.7z"/>
	<path class="st0" d="M88.2,32.5l1-2.2c0.5,0.3,1,0.5,1.4,0.5c0.3,0,0.5-0.1,0.7-0.4l-3.5-8.7h3.3l1.8,5.3l1.7-5.3h3.2l-3.2,8.7
		c-0.8,2.1-1.6,2.9-3.4,2.9C90,33.3,89,33,88.2,32.5z"/>
	<path class="st0" d="M97.9,26.2L97.9,26.2c0-2.6,2.1-4.7,4.9-4.7c2.8,0,4.9,2.1,4.9,4.6v0c0,2.5-2.1,4.6-4.9,4.6
		C99.9,30.8,97.9,28.7,97.9,26.2z M104.6,26.2L104.6,26.2c0-1.1-0.8-2-1.9-2c-1.1,0-1.9,0.9-1.9,2v0c0,1.1,0.8,2,1.9,2
		C103.9,28.2,104.6,27.3,104.6,26.2z"/>
	<path class="st0" d="M108.9,27.5v-5.8h3.1v4.8c0,1,0.5,1.5,1.3,1.5c0.7,0,1.3-0.5,1.3-1.5v-4.8h3.1v8.9h-3.1v-1.2
		c-0.6,0.7-1.4,1.4-2.7,1.4C110,30.8,108.9,29.6,108.9,27.5z"/>
	<path class="st0" d="M119.4,21.7h3.1v1.8c0.5-1.2,1.3-2,2.8-1.9v3.3H125c-1.6,0-2.5,0.9-2.5,3v2.8h-3.1V21.7z"/>
	<path class="st0" d="M133.9,21.9h-3.4v-2.8h10.1v2.8h-3.4v8.7h-3.2V21.9z"/>
	<path class="st0" d="M141,19.1h3.6l2.6,7.3l2.6-7.3h3.5l-4.7,11.6h-2.9L141,19.1z"/>
	<path class="st0" d="M152.1,27.4h3.2v3.2h-3.2V27.4z"/>
</g>
</svg>
