<?xml version="1.0" encoding="utf-8"?>
<!-- Generator: Adobe Illustrator 25.4.1, SVG Export Plug-In . SVG Version: 6.00 Build 0)  -->
<svg version="1.1" id="Layer_1" xmlns="http://www.w3.org/2000/svg" xmlns:xlink="http://www.w3.org/1999/xlink" x="0px" y="0px"
	 viewBox="0 0 320 50" style="enable-background:new 0 0 320 50;" xml:space="preserve">
<style type="text/css">
	.st0{fill:#FFFFFF;}
</style>
<g>
	<path class="st0" d="M15.8,17.9h-3.4v-2.8h10.1v2.8H19v8.7h-3.2V17.9z"/>
	<path class="st0" d="M23.6,14.6h3.1v4.3c0.6-0.7,1.4-1.4,2.7-1.4c1.9,0,3,1.2,3,3.3v5.8h-3.1v-4.8c0-1-0.5-1.5-1.2-1.5
		c-0.8,0-1.3,0.5-1.3,1.5v4.8h-3.1V14.6z"/>
	<path class="st0" d="M33.7,22.2L33.7,22.2c0-2.6,1.9-4.7,4.5-4.7c3.1,0,4.5,2.2,4.5,4.9c0,0.2,0,0.4,0,0.6h-5.9
		c0.2,1,1,1.5,1.9,1.5c0.7,0,1.3-0.3,2-0.9l1.7,1.4c-0.9,1.1-2.1,1.8-3.9,1.8C35.6,26.8,33.7,24.9,33.7,22.2z M39.7,21.4
		c-0.1-1-0.7-1.6-1.5-1.6c-0.8,0-1.4,0.6-1.5,1.6H39.7z"/>
	<path class="st0" d="M47.9,15.1h3.4l2,6.6l2.2-6.7h2.7l2.2,6.7l2-6.6h3.3l-3.8,11.6h-2.8L56.8,20l-2.3,6.6h-2.8L47.9,15.1z"/>
	<path class="st0" d="M65.3,22.2L65.3,22.2c0-2.6,2.1-4.7,4.9-4.7c2.8,0,4.9,2.1,4.9,4.6v0c0,2.5-2.1,4.6-4.9,4.6
		C67.4,26.8,65.3,24.7,65.3,22.2z M72.1,22.2L72.1,22.2c0-1.1-0.8-2-1.9-2c-1.1,0-1.9,0.9-1.9,2v0c0,1.1,0.8,2,1.9,2
		C71.4,24.1,72.1,23.2,72.1,22.2z"/>
	<path class="st0" d="M76.5,17.7h3.1v1.8c0.5-1.2,1.3-2,2.8-1.9v3.3h-0.3c-1.6,0-2.5,0.9-2.5,3v2.8h-3.1V17.7z"/>
	<path class="st0" d="M83.5,14.6h3.1v12h-3.1V14.6z"/>
	<path class="st0" d="M88.1,22.2L88.1,22.2c0-2.9,1.8-4.7,3.9-4.7c1.3,0,2.1,0.6,2.7,1.3v-4.2h3.1v12h-3.1v-1.2
		c-0.6,0.7-1.4,1.4-2.7,1.4C89.9,26.7,88.1,25,88.1,22.2z M94.7,22.1L94.7,22.1c0-1.2-0.8-2-1.8-2c-1,0-1.8,0.8-1.8,2v0
		c0,1.2,0.8,2,1.8,2C93.9,24.1,94.7,23.3,94.7,22.1z"/>
	<path class="st0" d="M99,19.8c1.1-0.1,1.7-0.7,1.6-1.5h-1.2v-3.2h3.2v2.6c0,2.4-1.3,3.3-3.4,3.3L99,19.8z"/>
	<path class="st0" d="M103.3,25.4l1.2-1.9c1,0.7,2.1,1,3,1c0.5,0,0.8-0.2,0.8-0.5v0c0-0.3-0.5-0.5-1.4-0.8c-1.8-0.5-3.1-1-3.1-2.8v0
		c0-1.9,1.5-2.9,3.6-2.9c1.3,0,2.6,0.4,3.7,1l-1.1,2c-0.9-0.5-1.9-0.8-2.6-0.8c-0.5,0-0.7,0.2-0.7,0.4v0c0,0.3,0.5,0.5,1.4,0.8
		c1.8,0.5,3.1,1.1,3.1,2.8v0c0,2-1.5,3-3.6,3C106,26.7,104.6,26.3,103.3,25.4z"/>
	<path class="st0" d="M117.1,15.1h5.9c1.4,0,2.5,0.4,3.1,1c0.5,0.5,0.7,1.1,0.7,1.9v0c0,1.3-0.8,2.1-1.8,2.6
		c1.4,0.5,2.3,1.2,2.3,2.8v0c0,2-1.6,3.2-4.3,3.2h-5.9V15.1z M122.2,19.7c1,0,1.5-0.3,1.5-1v0c0-0.6-0.5-1-1.4-1h-2.1v2H122.2z
		 M122.7,24c1,0,1.5-0.4,1.5-1v0c0-0.6-0.5-1-1.6-1h-2.4V24H122.7z"/>
	<path class="st0" d="M128.3,22.2L128.3,22.2c0-2.6,1.9-4.7,4.5-4.7c3.1,0,4.5,2.2,4.5,4.9c0,0.2,0,0.4,0,0.6h-5.9
		c0.2,1,1,1.5,1.9,1.5c0.7,0,1.3-0.3,2-0.9l1.7,1.4c-0.9,1.1-2.1,1.8-3.9,1.8C130.3,26.8,128.3,24.9,128.3,22.2z M134.3,21.4
		c-0.1-1-0.7-1.6-1.5-1.6c-0.8,0-1.4,0.6-1.5,1.6H134.3z"/>
	<path class="st0" d="M137.9,25.4l1.2-1.9c1,0.7,2.1,1,3,1c0.5,0,0.8-0.2,0.8-0.5v0c0-0.3-0.5-0.5-1.4-0.8c-1.8-0.5-3.1-1-3.1-2.8v0
		c0-1.9,1.5-2.9,3.6-2.9c1.3,0,2.6,0.4,3.7,1l-1.1,2c-0.9-0.5-1.9-0.8-2.6-0.8c-0.5,0-0.7,0.2-0.7,0.4v0c0,0.3,0.5,0.5,1.4,0.8
		c1.8,0.5,3.1,1.1,3.1,2.8v0c0,2-1.5,3-3.6,3C140.6,26.7,139.1,26.3,137.9,25.4z"/>
	<path class="st0" d="M147.4,23.8v-3.6h-1v-2.5h1v-2.2h3.1v2.2h2.1v2.5h-2.1v3c0,0.6,0.3,0.9,0.9,0.9c0.4,0,0.8-0.1,1.2-0.3v2.4
		c-0.6,0.3-1.3,0.5-2.2,0.5C148.5,26.7,147.4,25.9,147.4,23.8z"/>
	<path class="st0" d="M161.4,17.9H158v-2.8h10.1v2.8h-3.4v8.7h-3.2V17.9z"/>
	<path class="st0" d="M168.5,15.1h3.6l2.6,7.3l2.6-7.3h3.5l-4.7,11.6h-2.9L168.5,15.1z"/>
	<path class="st0" d="M186.3,14.6h3.1v12h-3.1V14.6z"/>
	<path class="st0" d="M191.2,14.6h3.2v2.3h-3.2V14.6z M191.2,17.7h3.1v8.9h-3.1V17.7z"/>
	<path class="st0" d="M195.4,17.7h3.3l1.7,5.2l1.7-5.2h3.2l-3.5,8.9H199L195.4,17.7z"/>
	<path class="st0" d="M205.5,22.2L205.5,22.2c0-2.6,1.9-4.7,4.5-4.7c3.1,0,4.5,2.2,4.5,4.9c0,0.2,0,0.4,0,0.6h-5.9
		c0.2,1,1,1.5,1.9,1.5c0.7,0,1.3-0.3,2-0.9l1.7,1.4c-0.9,1.1-2.1,1.8-3.9,1.8C207.4,26.8,205.5,24.9,205.5,22.2z M211.5,21.4
		c-0.1-1-0.7-1.6-1.5-1.6c-0.8,0-1.4,0.6-1.5,1.6H211.5z"/>
	<path class="st0" d="M215.1,25.4l1.2-1.9c1,0.7,2.1,1,3,1c0.5,0,0.8-0.2,0.8-0.5v0c0-0.3-0.5-0.5-1.4-0.8c-1.8-0.5-3.1-1-3.1-2.8v0
		c0-1.9,1.5-2.9,3.6-2.9c1.3,0,2.6,0.4,3.7,1l-1.1,2c-0.9-0.5-1.9-0.8-2.6-0.8c-0.5,0-0.7,0.2-0.7,0.4v0c0,0.3,0.5,0.5,1.4,0.8
		c1.8,0.5,3.1,1.1,3.1,2.8v0c0,2-1.5,3-3.6,3C217.8,26.7,216.3,26.3,215.1,25.4z"/>
	<path class="st0" d="M228.7,14.6h3.1v4.3c0.6-0.7,1.4-1.4,2.7-1.4c1.9,0,3,1.2,3,3.3v5.8h-3.1v-4.8c0-1-0.5-1.5-1.2-1.5
		c-0.8,0-1.3,0.5-1.3,1.5v4.8h-3.1V14.6z"/>
	<path class="st0" d="M238.7,22.2L238.7,22.2c0-2.6,1.9-4.7,4.5-4.7c3.1,0,4.5,2.2,4.5,4.9c0,0.2,0,0.4,0,0.6h-5.9
		c0.2,1,1,1.5,1.9,1.5c0.7,0,1.3-0.3,2-0.9l1.7,1.4c-0.9,1.1-2.1,1.8-3.9,1.8C240.7,26.8,238.7,24.9,238.7,22.2z M244.8,21.4
		c-0.1-1-0.7-1.6-1.5-1.6c-0.8,0-1.4,0.6-1.5,1.6H244.8z"/>
	<path class="st0" d="M249,17.7h3.1v1.8c0.5-1.2,1.3-2,2.8-1.9v3.3h-0.3c-1.6,0-2.5,0.9-2.5,3v2.8H249V17.7z"/>
	<path class="st0" d="M255.5,22.2L255.5,22.2c0-2.6,1.9-4.7,4.5-4.7c3.1,0,4.5,2.2,4.5,4.9c0,0.2,0,0.4,0,0.6h-5.9
		c0.2,1,1,1.5,1.9,1.5c0.7,0,1.3-0.3,2-0.9l1.7,1.4c-0.9,1.1-2.1,1.8-3.9,1.8C257.5,26.8,255.5,24.9,255.5,22.2z M261.5,21.4
		c-0.1-1-0.7-1.6-1.5-1.6c-0.8,0-1.4,0.6-1.5,1.6H261.5z"/>
	<path class="st0" d="M265.6,23.4h3.2v3.2h-3.2V23.4z"/>
</g>
</svg>
