<?xml version="1.0" encoding="utf-8"?>
<!-- Generator: Adobe Illustrator 25.4.1, SVG Export Plug-In . SVG Version: 6.00 Build 0)  -->
<svg version="1.1" id="Layer_1" xmlns="http://www.w3.org/2000/svg" xmlns:xlink="http://www.w3.org/1999/xlink" x="0px" y="0px"
	 viewBox="0 0 320 50" style="enable-background:new 0 0 320 50;" xml:space="preserve">
<style type="text/css">
	.st0{fill:#490A09;}
</style>
<path class="st0" d="M12.3,19.5h3.2V31h-3.2V19.5z"/>
<path class="st0" d="M18,28.3v-3.6h-1v-2.5h1v-2.2h3.1v2.2h2.1v2.5h-2.1v3c0,0.6,0.3,0.9,0.9,0.9c0.4,0,0.8-0.1,1.2-0.3v2.4
	c-0.6,0.3-1.3,0.5-2.2,0.5C19.1,31.2,18,30.4,18,28.3z"/>
<path class="st0" d="M24.1,28.5L24.1,28.5c0-1.9,1.4-2.8,3.5-2.8c0.8,0,1.6,0.2,2.1,0.3v-0.1c0-0.9-0.6-1.4-1.8-1.4
	c-0.9,0-1.7,0.2-2.4,0.5l-0.6-2.2c1-0.4,2.1-0.7,3.6-0.7c1.6,0,2.7,0.4,3.4,1.1c0.7,0.7,1,1.6,1,2.8V31h-3.1v-0.9
	c-0.6,0.7-1.4,1.1-2.6,1.1C25.4,31.2,24.1,30.2,24.1,28.5z M29.7,27.8v-0.4c-0.3-0.1-0.8-0.2-1.2-0.2c-0.9,0-1.4,0.4-1.4,1.1v0
	c0,0.6,0.5,1,1.1,1C29.1,29.3,29.7,28.7,29.7,27.8z"/>
<path class="st0" d="M34.4,19h3.1v12h-3.1V19z"/>
<path class="st0" d="M38.9,26.6L38.9,26.6c0-2.6,2.1-4.7,4.9-4.7c2.8,0,4.9,2.1,4.9,4.6v0c0,2.5-2.1,4.6-4.9,4.6
	C40.9,31.2,38.9,29.1,38.9,26.6z M45.7,26.6L45.7,26.6c0-1.1-0.8-2-1.9-2c-1.1,0-1.9,0.9-1.9,2v0c0,1.1,0.8,2,1.9,2
	C44.9,28.6,45.7,27.7,45.7,26.6z"/>
<path class="st0" d="M50,22.1h3.1v1.2c0.6-0.7,1.4-1.4,2.7-1.4c2.1,0,3.9,1.8,3.9,4.6v0c0,2.9-1.8,4.6-3.9,4.6
	c-1.3,0-2.1-0.6-2.7-1.3v3.7H50V22.1z M56.7,26.6L56.7,26.6c0-1.2-0.8-2-1.8-2c-1,0-1.8,0.8-1.8,2v0c0,1.2,0.8,2,1.8,2
	C55.9,28.6,56.7,27.8,56.7,26.6z"/>
<path class="st0" d="M61.1,19h3.1v4.3c0.6-0.7,1.4-1.4,2.7-1.4c1.9,0,3,1.2,3,3.3V31h-3.1v-4.8c0-1-0.5-1.5-1.2-1.5
	c-0.8,0-1.3,0.5-1.3,1.5V31h-3.1V19z"/>
<path class="st0" d="M71.5,19h3.2v2.3h-3.2V19z M71.5,22.1h3.1V31h-3.1V22.1z"/>
<path class="st0" d="M76.4,19h3.1v12h-3.1V19z"/>
<path class="st0" d="M80.9,26.6L80.9,26.6c0-2.6,1.9-4.7,4.5-4.7c3.1,0,4.5,2.2,4.5,4.9c0,0.2,0,0.4,0,0.6h-5.9c0.2,1,1,1.5,1.9,1.5
	c0.7,0,1.3-0.3,2-0.9l1.7,1.4c-0.9,1.1-2.1,1.8-3.9,1.8C82.9,31.2,80.9,29.4,80.9,26.6z M87,25.8c-0.1-1-0.7-1.6-1.5-1.6
	c-0.8,0-1.4,0.6-1.5,1.6H87z"/>
<path class="st0" d="M91,27.8h3.2V31H91V27.8z"/>
</svg>
