<?xml version="1.0" encoding="utf-8"?>
<!-- Generator: Adobe Illustrator 25.4.1, SVG Export Plug-In . SVG Version: 6.00 Build 0)  -->
<svg version="1.1" id="Layer_1" xmlns="http://www.w3.org/2000/svg" xmlns:xlink="http://www.w3.org/1999/xlink" x="0px" y="0px"
	 viewBox="0 0 320 50" style="enable-background:new 0 0 320 50;" xml:space="preserve">
<style type="text/css">
	.st0{clip-path:url(#SVGID_00000139985418758640563730000010584668053055016894_);fill:#AC1F2D;}
	.st1{clip-path:url(#SVGID_00000139985418758640563730000010584668053055016894_);fill:#FFFFFF;}
</style>
<g>
	<defs>
		<rect id="SVGID_1_" x="291.6" y="3.5" width="23.9" height="22.7"/>
	</defs>
	<clipPath id="SVGID_00000124134122779082418380000005394167610277234831_">
		<use xlink:href="#SVGID_1_"  style="overflow:visible;"/>
	</clipPath>
	<path style="clip-path:url(#SVGID_00000124134122779082418380000005394167610277234831_);fill:#AC1F2D;" d="M314,15
		c0,5.8-4.7,10.4-10.4,10.4c-5.8,0-10.4-4.7-10.4-10.4s4.7-10.4,10.4-10.4C309.3,4.6,314,9.3,314,15"/>
	<path style="clip-path:url(#SVGID_00000124134122779082418380000005394167610277234831_);fill:#FFFFFF;" d="M307.7,13.1v1.2h1.4
		l-1.6,2.5h3.9v-1.2h-1.7l1.5-2.5H307.7z M299.9,11.6l-1.3,2.8l-1.2-2.8h-1.8v5.2h1.4v-2.8l1.3,2.8h0.6l1.2-2.9v2.9h1.5v-5.2H299.9z
		 M305.7,11.6v1.8h-1.8v-1.8h-1.6v5.2h1.6v-2.1h1.8v2.1h1.6v-5.2H305.7z"/>
	<path style="clip-path:url(#SVGID_00000124134122779082418380000005394167610277234831_);fill:#FFFFFF;" d="M307.6,18.9h1.4v-0.4
		h-0.9v-0.3h0.8v-0.4h-0.8v-0.3h0.9v-0.4h-1.4V18.9z M306.5,19c0.4,0,0.6-0.2,0.8-0.4l-0.4-0.3c-0.1,0.1-0.2,0.2-0.4,0.2
		c-0.2,0-0.4-0.2-0.4-0.5v0c0-0.2,0.2-0.5,0.4-0.5c0.2,0,0.3,0.1,0.4,0.2l0.4-0.3c-0.2-0.2-0.4-0.4-0.7-0.4c-0.5,0-0.9,0.4-0.9,0.9
		v0C305.6,18.6,306,19,306.5,19 M304.7,18.9h0.5v-1.7h-0.5V18.9z M303.4,18.5c-0.3,0-0.4-0.2-0.4-0.5v0c0-0.2,0.2-0.5,0.4-0.5
		c0.3,0,0.4,0.2,0.4,0.5v0C303.8,18.3,303.6,18.5,303.4,18.5 M303.4,19c0.5,0,0.9-0.4,0.9-0.9v0c0-0.5-0.4-0.9-0.9-0.9
		c-0.5,0-0.9,0.4-0.9,0.9v0C302.5,18.6,302.9,19,303.4,19 M300.5,18.9h0.5v-0.7h0.6v0.7h0.5v-1.7h-0.5v0.6H301v-0.6h-0.5V18.9z
		 M299.4,19c0.4,0,0.6-0.2,0.8-0.4l-0.4-0.3c-0.1,0.1-0.2,0.2-0.4,0.2c-0.2,0-0.4-0.2-0.4-0.5v0c0-0.2,0.2-0.5,0.4-0.5
		c0.2,0,0.3,0.1,0.4,0.2l0.4-0.3c-0.2-0.2-0.4-0.4-0.7-0.4c-0.5,0-0.9,0.4-0.9,0.9v0C298.5,18.6,298.9,19,299.4,19"/>
</g>
</svg>
