<?xml version="1.0" encoding="utf-8"?>
<!-- Generator: Adobe Illustrator 26.3.1, SVG Export Plug-In . SVG Version: 6.00 Build 0)  -->
<svg version="1.1" id="Layer_1" xmlns="http://www.w3.org/2000/svg" xmlns:xlink="http://www.w3.org/1999/xlink" x="0px" y="0px"
	 viewBox="0 0 160 600" style="enable-background:new 0 0 160 600;" xml:space="preserve">
<style type="text/css">
	.st0{fill:#490A09;}
</style>
<g>
	<path class="st0" d="M13.2,151.6h12.9c3.2,0,5.4,0.8,6.9,2.3c1,1,1.6,2.3,1.6,4.1v0.1c0,2.9-1.7,4.6-3.9,5.6c3.1,1,5,2.7,5,6.2v0.1
		c0,4.3-3.5,6.9-9.5,6.9h-13V151.6z M24.4,161.6c2.1,0,3.3-0.7,3.3-2.2v-0.1c0-1.4-1.1-2.2-3.2-2.2H20v4.4H24.4z M25.4,171.2
		c2.1,0,3.3-0.8,3.3-2.3v-0.1c0-1.4-1.1-2.3-3.4-2.3H20v4.6H25.4z"/>
	<path class="st0" d="M37.8,167.1L37.8,167.1c0-5.8,4.1-10.3,9.8-10.3c6.7,0,9.8,4.9,9.8,10.7c0,0.4,0,0.9,0,1.4h-13
		c0.5,2.1,2.1,3.2,4.2,3.2c1.6,0,2.9-0.6,4.3-2l3.8,3.1c-1.9,2.4-4.6,4-8.5,4C42.1,177.2,37.8,173.2,37.8,167.1z M51,165.4
		c-0.3-2.2-1.5-3.5-3.4-3.5c-1.8,0-3,1.4-3.4,3.5H51z"/>
	<path class="st0" d="M60.4,150.5h6.8v9.5c1.3-1.6,3.1-3.1,5.8-3.1c4.1,0,6.6,2.7,6.6,7.2v12.7h-6.8v-10.5c0-2.1-1.1-3.3-2.7-3.3
		c-1.7,0-2.9,1.2-2.9,3.3v10.5h-6.8V150.5z"/>
	<path class="st0" d="M83.2,150.5h7.1v5h-7.1V150.5z M83.3,157.3h6.8v19.5h-6.8V157.3z"/>
	<path class="st0" d="M94,157.3h6.8v2.7c1.3-1.6,3.1-3.2,5.8-3.2c4.1,0,6.6,2.7,6.6,7.2v12.7h-6.8v-10.5c0-2.1-1.1-3.3-2.7-3.3
		c-1.7,0-2.9,1.2-2.9,3.3v10.5H94V157.3z"/>
	<path class="st0" d="M116.1,167.1L116.1,167.1c0-6.4,4-10.3,8.6-10.3c3,0,4.7,1.3,6,2.8v-9.2h6.8v26.3h-6.8v-2.6
		c-1.3,1.6-3,3-5.9,3C120.1,177.2,116.1,173.4,116.1,167.1z M130.7,167.1L130.7,167.1c0-2.6-1.8-4.5-4-4.5c-2.2,0-4,1.8-4,4.4v0.1
		c0,2.6,1.8,4.4,4,4.4C129,171.5,130.7,169.6,130.7,167.1z"/>
</g>
<g>
	<path class="st0" d="M12,202.1L12,202.1c0-5.8,4.1-10.3,9.8-10.3c6.7,0,9.8,4.9,9.8,10.7c0,0.4,0,0.9,0,1.4h-13
		c0.5,2.1,2.1,3.2,4.2,3.2c1.6,0,2.9-0.6,4.3-2l3.8,3.1c-1.9,2.4-4.6,4-8.5,4C16.4,212.2,12,208.2,12,202.1z M25.3,200.4
		c-0.3-2.2-1.5-3.5-3.4-3.5c-1.8,0-3,1.4-3.4,3.5H25.3z"/>
	<path class="st0" d="M32.3,192.3h7.2l3.7,11.4l3.7-11.4h7.1l-7.8,19.6h-6.2L32.3,192.3z"/>
	<path class="st0" d="M54.3,202.1L54.3,202.1c0-5.8,4.1-10.3,9.8-10.3c6.7,0,9.8,4.9,9.8,10.7c0,0.4,0,0.9,0,1.4h-13
		c0.5,2.1,2.1,3.2,4.2,3.2c1.6,0,2.9-0.6,4.3-2l3.8,3.1c-1.9,2.4-4.6,4-8.5,4C58.6,212.2,54.3,208.2,54.3,202.1z M67.6,200.4
		c-0.3-2.2-1.5-3.5-3.4-3.5c-1.8,0-3,1.4-3.4,3.5H67.6z"/>
	<path class="st0" d="M76.9,192.3h6.8v3.9c1.1-2.7,2.9-4.4,6.2-4.2v7.2h-0.6c-3.6,0-5.6,2.1-5.6,6.6v6h-6.8V192.3z"/>
	<path class="st0" d="M91.8,215.9l2.1-4.8c1.1,0.6,2.2,1,3,1c0.7,0,1.2-0.2,1.6-0.8l-7.6-19.1H98l3.9,11.7l3.7-11.7h7l-7.1,19
		c-1.7,4.5-3.5,6.3-7.4,6.3C95.6,217.6,93.6,216.9,91.8,215.9z"/>
</g>
<g>
	<path class="st0" d="M12.8,227.3h6.8v2.6c1.3-1.6,3-3,5.9-3c4.6,0,8.6,3.9,8.6,10.1v0.1c0,6.3-4,10.2-8.6,10.2
		c-3,0-4.7-1.3-5.9-2.8v8.1h-6.8V227.3z M27.5,237L27.5,237c0-2.6-1.8-4.5-4-4.5c-2.2,0-4,1.8-4,4.4v0.1c0,2.6,1.8,4.4,4,4.4
		C25.7,241.5,27.5,239.7,27.5,237z"/>
	<path class="st0" d="M36.4,237.1L36.4,237.1c0-5.8,4.1-10.3,9.8-10.3c6.7,0,9.8,4.9,9.8,10.7c0,0.4,0,0.9,0,1.4H43
		c0.5,2.1,2.1,3.2,4.2,3.2c1.6,0,2.9-0.6,4.3-2l3.8,3.1c-1.9,2.4-4.6,4-8.5,4C40.7,247.2,36.4,243.2,36.4,237.1z M49.6,235.4
		c-0.3-2.2-1.5-3.5-3.4-3.5c-1.8,0-3,1.4-3.4,3.5H49.6z"/>
	<path class="st0" d="M59,227.3h6.8v3.9c1.1-2.7,2.9-4.4,6.2-4.2v7.2h-0.6c-3.6,0-5.6,2.1-5.6,6.6v6H59V227.3z"/>
	<path class="st0" d="M77,232.8h-2.3v-5.4H77V227c0-2.2,0.5-3.9,1.7-5c1.2-1.2,2.8-1.7,5.1-1.7c2.1,0,3.4,0.2,4.5,0.5v4.8
		c-0.8-0.3-1.6-0.4-2.6-0.4c-1.3,0-1.9,0.6-1.9,1.8v0.5h4.5v5.3h-4.4v14H77V232.8z"/>
	<path class="st0" d="M89.2,237.1L89.2,237.1c0-5.8,4.1-10.3,9.8-10.3c6.7,0,9.8,4.9,9.8,10.7c0,0.4,0,0.9,0,1.4h-13
		c0.5,2.1,2.1,3.2,4.2,3.2c1.6,0,2.9-0.6,4.3-2l3.8,3.1c-1.9,2.4-4.6,4-8.5,4C93.5,247.2,89.2,243.2,89.2,237.1z M102.5,235.4
		c-0.3-2.2-1.5-3.5-3.4-3.5c-1.8,0-3,1.4-3.4,3.5H102.5z"/>
	<path class="st0" d="M111,237.1L111,237.1c0-5.6,4.3-10.2,10.4-10.2c4,0,6.7,1.7,8.3,4.4l-4.6,3.5c-0.9-1.3-2-2.1-3.6-2.1
		c-2.2,0-3.8,1.9-3.8,4.3v0.1c0,2.5,1.6,4.4,3.9,4.4c1.6,0,2.7-0.8,3.7-2l4.6,3.3c-1.8,2.7-4.4,4.5-8.7,4.5
		C115.3,247.2,111,242.6,111,237.1z"/>
	<path class="st0" d="M133.5,240.7v-7.9h-2.3v-5.5h2.3v-4.9h6.8v4.9h4.5v5.5h-4.5v6.6c0,1.4,0.6,1.9,1.9,1.9c0.9,0,1.8-0.3,2.6-0.6
		v5.4c-1.2,0.7-2.8,1.1-4.8,1.1C135.9,247.2,133.5,245.4,133.5,240.7z"/>
</g>
<g>
	<path class="st0" d="M13,263.5h6.8v26.3H13V263.5z"/>
	<path class="st0" d="M23.6,263.5h7.1v5h-7.1V263.5z M23.8,270.3h6.8v19.5h-6.8V270.3z"/>
	<path class="st0" d="M35.7,275.7h-2.3v-5.4h2.3v-0.4c0-2.2,0.5-3.9,1.7-5c1.2-1.2,2.8-1.7,5.1-1.7c2.1,0,3.4,0.2,4.5,0.5v4.8
		c-0.8-0.3-1.6-0.4-2.6-0.4c-1.3,0-1.9,0.6-1.9,1.8v0.5h4.5v5.3h-4.4v14h-6.8V275.7z"/>
	<path class="st0" d="M47.9,280.1L47.9,280.1c0-5.8,4.1-10.3,9.8-10.3c6.7,0,9.8,4.9,9.8,10.7c0,0.4,0,0.9,0,1.4h-13
		c0.5,2.1,2.1,3.2,4.2,3.2c1.6,0,2.9-0.6,4.3-2l3.8,3.1c-1.9,2.4-4.6,4-8.5,4C52.2,290.2,47.9,286.1,47.9,280.1z M61.1,278.4
		c-0.3-2.2-1.5-3.5-3.4-3.5c-1.8,0-3,1.4-3.4,3.5H61.1z"/>
</g>
</svg>
