<?xml version="1.0" encoding="utf-8"?>
<!-- Generator: Adobe Illustrator 26.3.1, SVG Export Plug-In . SVG Version: 6.00 Build 0)  -->
<svg version="1.1" id="Layer_1" xmlns="http://www.w3.org/2000/svg" xmlns:xlink="http://www.w3.org/1999/xlink" x="0px" y="0px"
	 viewBox="0 0 160 600" style="enable-background:new 0 0 160 600;" xml:space="preserve">
<style type="text/css">
	.st0{fill:#AB1F2D;}
	.st1{fill:#FFFFFF;}
</style>
<path class="st0" d="M32.3,533.1c-7.5,0-13.7,6.1-13.7,13.7v4c0,7.5,6.1,13.7,13.7,13.7h94.8c7.5,0,13.7-6.1,13.7-13.7v-4
	c0-7.5-6.1-13.7-13.7-13.7H32.3z"/>
<g>
	<path class="st1" d="M29.5,543.9h2.4l2.1,7l2.3-7h2l2.3,7l2.1-7h2.4l-3.5,10.4h-2l-2.3-6.8l-2.3,6.8h-2L29.5,543.9z"/>
	<path class="st1" d="M49.1,543.8h2.1l4.4,10.4h-2.4l-0.9-2.3h-4.4l-0.9,2.3h-2.3L49.1,543.8z M51.5,549.9l-1.4-3.4l-1.4,3.4H51.5z"
		/>
	<path class="st1" d="M58.3,546h-3.1v-2.1h8.6v2.1h-3.1v8.2h-2.3V546z"/>
	<path class="st1" d="M64.6,549.1L64.6,549.1c0-3,2.2-5.4,5.4-5.4c2,0,3.1,0.7,4.1,1.6l-1.4,1.7c-0.8-0.7-1.6-1.2-2.6-1.2
		c-1.7,0-3,1.4-3,3.2v0c0,1.8,1.2,3.3,3,3.3c1.2,0,1.9-0.5,2.7-1.2l1.4,1.5c-1.1,1.1-2.2,1.8-4.2,1.8
		C66.8,554.4,64.6,552,64.6,549.1z"/>
	<path class="st1" d="M76,543.9h2.3v4.1h4.2v-4.1h2.3v10.3h-2.3v-4.2h-4.2v4.2H76V543.9z"/>
	<path class="st1" d="M91.6,543.9h2.1l4.8,6.4v-6.4h2.2v10.3h-1.9l-5-6.6v6.6h-2.2V543.9z"/>
	<path class="st1" d="M102.9,549.1L102.9,549.1c0-3,2.3-5.4,5.5-5.4s5.5,2.4,5.5,5.3v0c0,2.9-2.3,5.4-5.5,5.4
		C105.2,554.4,102.9,552,102.9,549.1z M111.5,549.1L111.5,549.1c0-1.8-1.3-3.3-3.1-3.3c-1.8,0-3.1,1.4-3.1,3.2v0
		c0,1.8,1.3,3.3,3.1,3.3C110.2,552.3,111.5,550.8,111.5,549.1z"/>
	<path class="st1" d="M114.5,543.9h2.4l2.1,7l2.3-7h2l2.3,7l2.1-7h2.4l-3.5,10.4h-2l-2.3-6.8l-2.3,6.8h-2L114.5,543.9z"/>
</g>
</svg>
