<?xml version="1.0" encoding="utf-8"?>
<!-- Generator: Adobe Illustrator 26.3.1, SVG Export Plug-In . SVG Version: 6.00 Build 0)  -->
<svg version="1.1" id="Layer_1" xmlns="http://www.w3.org/2000/svg" xmlns:xlink="http://www.w3.org/1999/xlink" x="0px" y="0px"
	 viewBox="0 0 160 600" style="enable-background:new 0 0 160 600;" xml:space="preserve">
<style type="text/css">
	.st0{clip-path:url(#SVGID_00000183243718302958633260000015255043670339219379_);fill:#AC1F2D;}
	.st1{clip-path:url(#SVGID_00000183243718302958633260000015255043670339219379_);fill:#FFFFFF;}
</style>
<g>
	<defs>
		<rect id="SVGID_1_" x="11.9" y="5.4" width="63.6" height="70.1"/>
	</defs>
	<clipPath id="SVGID_00000105428126714294025560000006727079176989339028_">
		<use xlink:href="#SVGID_1_"  style="overflow:visible;"/>
	</clipPath>
	<path style="clip-path:url(#SVGID_00000105428126714294025560000006727079176989339028_);fill:#AC1F2D;" d="M71.1,39.8
		c0,16.3-13.2,29.4-29.4,29.4S12.2,56,12.2,39.8c0-16.3,13.2-29.4,29.4-29.4S71.1,23.5,71.1,39.8"/>
	<path style="clip-path:url(#SVGID_00000105428126714294025560000006727079176989339028_);fill:#FFFFFF;" d="M53.4,34.4v3.4h3.8
		l-4.5,7.1h11.1v-3.4h-4.8l4.3-7H53.4z M31.5,30.2l-3.5,8l-3.5-8h-5v14.6h4.1V37l3.5,7.8h1.8l3.5-8v8h4.1V30.2H31.5z M47.6,30.2v5.2
		h-5.2v-5.2h-4.5v14.6h4.5V39h5.2v5.8h4.5V30.2H47.6z"/>
	<path style="clip-path:url(#SVGID_00000105428126714294025560000006727079176989339028_);fill:#FFFFFF;" d="M53.1,50.8H57v-1.1
		h-2.6v-0.8h2.3v-1.1h-2.3v-0.7H57V46h-3.9V50.8z M49.9,50.9c1.1,0,1.7-0.5,2.1-1.1l-1-0.7c-0.3,0.4-0.6,0.6-1.1,0.6
		c-0.7,0-1.2-0.6-1.2-1.3v0c0-0.7,0.5-1.3,1.2-1.3c0.5,0,0.8,0.2,1.1,0.6l1-0.8c-0.4-0.6-1.1-1-2.1-1c-1.5,0-2.6,1.1-2.6,2.5v0
		C47.5,49.8,48.6,50.9,49.9,50.9 M45,50.8h1.3V46H45V50.8z M41.2,49.7c-0.7,0-1.2-0.6-1.2-1.3v0c0-0.7,0.5-1.3,1.2-1.3
		c0.7,0,1.2,0.6,1.2,1.3v0C42.5,49.1,42,49.7,41.2,49.7 M41.2,50.9c1.5,0,2.6-1.1,2.6-2.5v0c0-1.4-1.1-2.5-2.6-2.5
		c-1.5,0-2.6,1.1-2.6,2.5v0C38.6,49.8,39.7,50.9,41.2,50.9 M33.1,50.8h1.3V49h1.7v1.8h1.3V46h-1.3v1.8h-1.7V46h-1.3V50.8z M30,50.9
		c1.1,0,1.7-0.5,2.1-1.1l-1-0.7c-0.3,0.4-0.6,0.6-1.1,0.6c-0.7,0-1.2-0.6-1.2-1.3v0c0-0.7,0.5-1.3,1.2-1.3c0.5,0,0.8,0.2,1.1,0.6
		l1-0.8c-0.4-0.6-1.1-1-2.1-1c-1.5,0-2.6,1.1-2.6,2.5v0C27.5,49.8,28.6,50.9,30,50.9"/>
</g>
</svg>
