<?xml version="1.0" encoding="utf-8"?>
<!-- Generator: Adobe Illustrator 25.4.1, SVG Export Plug-In . SVG Version: 6.00 Build 0)  -->
<svg version="1.1" id="Layer_1" xmlns="http://www.w3.org/2000/svg" xmlns:xlink="http://www.w3.org/1999/xlink" x="0px" y="0px"
	 viewBox="0 0 300 250" style="enable-background:new 0 0 300 250;" xml:space="preserve">
<style type="text/css">
	.st0{fill:#461211;}
</style>
<g>
	<path class="st0" d="M30.3,127.4h5.9l3.4,21.9h-6.3l-0.5-3.9h-8.4l-2.6,3.9h-6.5L30.3,127.4z M32.2,140.7l-0.8-6.2l-4.1,6.2H32.2z"
		/>
	<path class="st0" d="M55.5,127.6h17.4l-1.4,5.3H60.2l-1,3.7h10.2l-1.3,5H57.8l-2.1,7.8h-6L55.5,127.6z"/>
	<path class="st0" d="M74.1,132.5H80l-0.9,3.4c1.6-2.4,3.6-3.8,6.3-3.7l-1.7,6.2h-0.5c-3.2,0-5.3,1.8-6.4,5.8l-1.4,5.1h-5.9
		L74.1,132.5z"/>
	<path class="st0" d="M93.1,145.3c1.2,0,2.3-0.4,3.6-1.3l2.7,3.2c-1.7,1.5-3.9,2.5-6.9,2.5c-5,0-8-2.9-8-7.4c0-5,3.9-10.1,10.1-10.1
		c5,0,7.1,3.3,7.1,6.9c0,1.1-0.2,2.4-0.7,3.4H89.9C90,144.2,91,145.3,93.1,145.3z M96.3,139.5c0.1-0.3,0.2-0.6,0.2-0.9
		c0-1.1-0.7-2.1-2.3-2.1c-1.6,0-3.1,1-3.8,3H96.3z"/>
	<path class="st0" d="M106.1,132.5h5.9l-0.5,1.9c1.1-1.2,2.8-2.3,4.8-2.3c3,0,4.9,1.9,4.9,5c0,0.9-0.2,2-0.5,3l-2.4,9.1h-5.9
		l2.4-8.8c0.1-0.4,0.2-1,0.2-1.4c0-1.1-0.7-1.8-1.9-1.8c-1.6,0-2.6,1.1-3.1,3l-2.4,8.9h-5.9L106.1,132.5z"/>
	<path class="st0" d="M122.7,142.3c0-5.6,4.5-10.2,10.1-10.2c3.9,0,6.2,2,7.1,4.6l-4.6,2.4c-0.6-1.3-1.4-2.1-2.9-2.1
		c-2.2,0-4,2.4-4,5c0,1.7,1.1,2.8,2.6,2.8c1.2,0,2.1-0.5,3.2-1.5l3.6,3.1c-1.7,2-3.8,3.3-7.2,3.3C126,149.7,122.7,146.8,122.7,142.3
		z"/>
	<path class="st0" d="M144.6,126.6h5.9l-2.1,7.8c1.1-1.2,2.8-2.3,4.8-2.3c3,0,4.9,1.9,4.9,5c0,0.9-0.2,2-0.5,3l-2.4,9.1h-5.9
		l2.4-8.8c0.1-0.4,0.2-1,0.2-1.4c0-1.1-0.7-1.8-1.9-1.8c-1.6,0-2.6,1.1-3.1,3l-2.4,8.9h-5.9L144.6,126.6z"/>
	<path class="st0" d="M170.8,127.6h6.6l1.2,13.6l8.5-13.6h6.8l-14.6,21.9h-5.6L170.8,127.6z"/>
	<path class="st0" d="M194,132.5h5.9l-4.5,16.8h-5.9L194,132.5z M195.5,126.6h6.1l-1.2,4.3h-6.1L195.5,126.6z"/>
	<path class="st0" d="M204.9,126.6h5.9l-6.1,22.6h-5.9L204.9,126.6z"/>
	<path class="st0" d="M214.2,126.6h5.9l-6.1,22.6h-5.9L214.2,126.6z"/>
	<path class="st0" d="M218.1,145.1c0-3.7,2.9-5.9,7.4-5.9c1.5,0,2.9,0.2,4.2,0.7l0.1-0.2c0.1-0.3,0.2-0.6,0.2-1
		c0-1.1-0.8-1.8-2.9-1.8c-1.6,0-3.3,0.4-4.5,0.8l-0.8-4.3c1.8-0.6,4.2-1,6.6-1c5,0,7.5,2,7.5,5.3c0,0.8-0.1,1.6-0.3,2.4l-2.5,9.2
		h-5.8l0.5-1.8c-1.4,1.3-2.9,2.1-4.8,2.1C220,149.6,218.1,147.8,218.1,145.1z M228.9,142.9l0.2-0.6c-0.7-0.2-1.4-0.4-2.2-0.4
		c-1.9,0-3.1,0.9-3.1,2.4c0,1,0.7,1.6,1.7,1.6C227,146,228.4,144.6,228.9,142.9z"/>
	<path class="st0" d="M235.1,152l2.6-3.7c1.9,1.1,4.1,1.7,6,1.7c1.6,0,2.6-0.4,3.5-1.2c0.6-0.6,1.1-1.5,1.4-2.7l0.1-0.4
		c-1.5,1.3-3,2-5.1,2c-3,0-6-2-6-5.8c0-5.2,3.8-9.8,8.8-9.8c2.5,0,4.2,1.2,5.1,2.7l0.6-2.4h5.9l-3.6,13.3c-0.8,3-1.6,4.6-3,6
		c-1.7,1.6-4,2.4-7.5,2.4C240.7,154.3,237.2,153.4,235.1,152z M250.1,139.5c0-1.6-1.1-2.7-2.8-2.7c-2.3,0-3.9,2-3.9,4.2
		c0,1.6,1.1,2.6,2.7,2.6C248.4,143.5,250.1,141.6,250.1,139.5z"/>
	<path class="st0" d="M266.7,145.3c1.2,0,2.3-0.4,3.6-1.3l2.7,3.2c-1.7,1.5-3.9,2.5-6.9,2.5c-5,0-8-2.9-8-7.4
		c0-5,3.9-10.1,10.1-10.1c5,0,7.1,3.3,7.1,6.9c0,1.1-0.2,2.4-0.7,3.4h-11.1C263.7,144.2,264.7,145.3,266.7,145.3z M269.9,139.5
		c0.1-0.3,0.2-0.6,0.2-0.9c0-1.1-0.7-2.1-2.3-2.1c-1.6,0-3.1,1-3.8,3H269.9z"/>
</g>
<g>
	<path class="st0" d="M276.5,152.1c2.1-0.2,3.2-1.2,3.1-2.9h-2.4v-6h6.1v4.9c0,4.6-2.5,6.2-6.4,6.3L276.5,152.1z"/>
</g>
<g>
	<path class="st0" d="M17.8,172.7L17.8,172.7c0-4.8,3.9-8.8,9.3-8.8c5.4,0,9.2,3.9,9.2,8.7v0.1c0,4.8-3.9,8.8-9.3,8.8
		C21.7,181.4,17.8,177.4,17.8,172.7z M30.6,172.7L30.6,172.7c0-2.1-1.5-3.8-3.6-3.8c-2.1,0-3.5,1.7-3.5,3.7v0.1c0,2,1.5,3.8,3.6,3.8
		C29.3,176.4,30.6,174.7,30.6,172.7z"/>
	<path class="st0" d="M38.9,164.2h5.9v2.4c1.1-1.4,2.6-2.7,5-2.7c3.6,0,5.7,2.4,5.7,6.2v11h-5.9v-9.1c0-1.8-1-2.8-2.4-2.8
		c-1.4,0-2.5,1-2.5,2.8v9.1h-5.9V164.2z"/>
	<path class="st0" d="M67.4,159.3h6.4l5.2,8.4l5.2-8.4h6.4V181h-6v-12.5L79,177h-0.1l-5.5-8.4V181h-5.9V159.3z"/>
	<path class="st0" d="M94.4,159.3h6v8.1h7.7v-8.1h6V181h-6v-8.2h-7.7v8.2h-6V159.3z"/>
	<path class="st0" d="M117,177.1l7.8-8.2h-7.5v-4.7h15.3v3.9l-7.8,8.2h7.8v4.7H117V177.1z"/>
	<path class="st0" d="M143.2,170.2L143.2,170.2c0-6.4,4.9-11.3,11.4-11.3c4.4,0,7.3,1.9,9.2,4.5l-4.5,3.5c-1.2-1.6-2.7-2.5-4.7-2.5
		c-3,0-5.2,2.6-5.2,5.7v0.1c0,3.3,2.1,5.8,5.2,5.8c2.3,0,3.6-1.1,4.9-2.6l4.5,3.2c-2,2.8-4.8,4.9-9.6,4.9
		C148.2,181.4,143.2,176.7,143.2,170.2z"/>
	<path class="st0" d="M166.3,158.3h5.9v8.2c1.1-1.4,2.6-2.7,5-2.7c3.6,0,5.7,2.4,5.7,6.2v11H177v-9.1c0-1.8-1-2.8-2.4-2.8
		c-1.4,0-2.5,1-2.5,2.8v9.1h-5.9V158.3z"/>
	<path class="st0" d="M185.3,172.7L185.3,172.7c0-4.8,3.9-8.8,9.3-8.8c5.4,0,9.2,3.9,9.2,8.7v0.1c0,4.8-3.9,8.8-9.3,8.8
		C189.1,181.4,185.3,177.4,185.3,172.7z M198.1,172.7L198.1,172.7c0-2.1-1.5-3.8-3.6-3.8c-2.1,0-3.5,1.7-3.5,3.7v0.1
		c0,2,1.5,3.8,3.6,3.8C196.7,176.4,198.1,174.7,198.1,172.7z"/>
	<path class="st0" d="M206.3,158.3h6.1v4.3h-6.1V158.3z M206.4,164.2h5.9V181h-5.9V164.2z"/>
	<path class="st0" d="M214.9,172.7L214.9,172.7c0-4.8,3.7-8.8,9-8.8c3.4,0,5.7,1.5,7.2,3.8l-4,3c-0.8-1.1-1.7-1.8-3.1-1.8
		c-1.9,0-3.3,1.7-3.3,3.7v0.1c0,2.2,1.4,3.8,3.3,3.8c1.4,0,2.3-0.7,3.2-1.7l3.9,2.9c-1.6,2.3-3.8,3.8-7.5,3.8
		C218.6,181.4,214.9,177.4,214.9,172.7z"/>
	<path class="st0" d="M232.1,172.7L232.1,172.7c0-5,3.5-8.8,8.5-8.8c5.8,0,8.5,4.2,8.5,9.2c0,0.4,0,0.8,0,1.2h-11.2
		c0.5,1.8,1.8,2.8,3.6,2.8c1.4,0,2.5-0.5,3.7-1.7l3.3,2.7c-1.6,2-3.9,3.4-7.3,3.4C235.8,181.4,232.1,177.9,232.1,172.7z
		 M243.5,171.2c-0.2-1.9-1.3-3-2.9-3c-1.5,0-2.6,1.2-2.9,3H243.5z"/>
	<path class="st0" d="M251.2,174.9h6.1v6h-6.1V174.9z"/>
</g>
</svg>
