<?xml version="1.0" encoding="utf-8"?>
<!-- Generator: Adobe Illustrator 25.4.1, SVG Export Plug-In . SVG Version: 6.00 Build 0)  -->
<svg version="1.1" id="Layer_1" xmlns="http://www.w3.org/2000/svg" xmlns:xlink="http://www.w3.org/1999/xlink" x="0px" y="0px"
	 viewBox="0 0 300 250" style="enable-background:new 0 0 300 250;" xml:space="preserve">
<style type="text/css">
	.st0{fill:#461211;}
</style>
<g>
	<path class="st0" d="M20.4,143.2H10.1v-8.3h30.1v8.3H29.9v26h-9.5V143.2z"/>
	<path class="st0" d="M41.7,134.9h10.6l7.8,21.7l7.8-21.7h10.4l-13.9,34.6h-8.8L41.7,134.9z"/>
	<path class="st0" d="M93.7,156.1L93.7,156.1c0-7.6,5.8-13.9,14.2-13.9c5.4,0,9.1,2.4,11.3,5.9l-6.3,4.7c-1.3-1.8-2.7-2.8-5-2.8
		c-3,0-5.2,2.6-5.2,5.9v0.1c0,3.4,2.2,6,5.3,6c2.2,0,3.6-1,5.1-2.7l6.2,4.5c-2.5,3.6-6,6.1-11.8,6.1
		C99.6,169.9,93.7,163.6,93.7,156.1z"/>
	<path class="st0" d="M122.7,142.7h9.3v5.3c1.5-3.6,4-6,8.4-5.8v9.8h-0.8c-4.9,0-7.6,2.8-7.6,8.9v8.2h-9.3V142.7z"/>
	<path class="st0" d="M143.7,133.4h9.7v6.9h-9.7V133.4z M143.9,142.7h9.3v26.5h-9.3V142.7z"/>
	<path class="st0" d="M160,161v-10.8h-3.1v-7.5h3.1V136h9.3v6.7h6.2v7.5h-6.2v9c0,1.9,0.8,2.6,2.6,2.6c1.2,0,2.4-0.3,3.5-0.9v7.3
		c-1.7,0.9-3.9,1.5-6.5,1.5C163.3,169.8,160,167.3,160,161z"/>
	<path class="st0" d="M179.5,133.4h9.7v6.9h-9.7V133.4z M179.7,142.7h9.3v26.5h-9.3V142.7z"/>
	<path class="st0" d="M193.2,156.1L193.2,156.1c0-7.6,5.8-13.9,14.2-13.9c5.4,0,9.1,2.4,11.3,5.9l-6.3,4.7c-1.3-1.8-2.7-2.8-5-2.8
		c-3,0-5.2,2.6-5.2,5.9v0.1c0,3.4,2.2,6,5.3,6c2.2,0,3.6-1,5.1-2.7l6.2,4.5c-2.5,3.6-6,6.1-11.8,6.1
		C199.1,169.9,193.2,163.6,193.2,156.1z"/>
	<path class="st0" d="M220.1,165.9l3.5-5.6c3,2,6.4,3,9.1,3c1.6,0,2.4-0.5,2.4-1.4v-0.1c0-1-1.5-1.5-4.3-2.3
		c-5.2-1.4-9.4-3.1-9.4-8.5v-0.1c0-5.6,4.5-8.8,10.6-8.8c3.9,0,7.9,1.1,10.9,3.1l-3.2,5.9c-2.7-1.5-5.7-2.5-7.8-2.5
		c-1.4,0-2.2,0.5-2.2,1.3v0.1c0,1,1.5,1.5,4.3,2.4c5.2,1.5,9.4,3.3,9.4,8.4v0.1c0,5.8-4.4,8.9-10.8,8.9
		C228.2,169.8,223.8,168.5,220.1,165.9z"/>
</g>
<g>
	<path class="st0" d="M10.4,201.1L10.4,201.1c0-7.6,5.8-13.9,14.2-13.9c5.4,0,9.1,2.4,11.3,5.9l-6.3,4.7c-1.3-1.8-2.7-2.8-5-2.8
		c-3,0-5.2,2.6-5.2,5.9v0.1c0,3.4,2.2,6,5.3,6c2.2,0,3.6-1,5.1-2.7l6.2,4.5c-2.5,3.6-6,6.1-11.8,6.1
		C16.3,214.9,10.4,208.6,10.4,201.1z"/>
	<path class="st0" d="M39.4,178.4h9.3v12.9c1.7-2.2,4.2-4.2,7.9-4.2c5.6,0,9,3.7,9,9.8v17.4h-9.3v-14.4c0-2.9-1.5-4.5-3.7-4.5
		c-2.3,0-3.9,1.6-3.9,4.5v14.4h-9.3V178.4z"/>
	<path class="st0" d="M69.4,201.1L69.4,201.1c0-7.8,5.5-14,13.4-14c9.2,0,13.4,6.7,13.4,14.5c0,0.6,0,1.3,0,1.9H78.4
		c0.7,2.9,2.8,4.4,5.7,4.4c2.2,0,4-0.8,5.9-2.7l5.2,4.3c-2.6,3.2-6.2,5.4-11.5,5.4C75.3,214.9,69.4,209.3,69.4,201.1z M87.5,198.8
		c-0.3-2.9-2.1-4.8-4.6-4.8c-2.5,0-4.1,1.9-4.6,4.8H87.5z"/>
	<path class="st0" d="M99.1,201.1L99.1,201.1c0-7.8,5.5-14,13.4-14c9.2,0,13.4,6.7,13.4,14.5c0,0.6,0,1.3,0,1.9h-17.8
		c0.7,2.9,2.8,4.4,5.7,4.4c2.2,0,4-0.8,5.9-2.7l5.2,4.3c-2.6,3.2-6.2,5.4-11.5,5.4C105,214.9,99.1,209.3,99.1,201.1z M117.2,198.8
		c-0.3-2.9-2.1-4.8-4.6-4.8c-2.5,0-4.1,1.9-4.6,4.8H117.2z"/>
	<path class="st0" d="M129.9,187.7h9.3v5.3c1.5-3.6,4-6,8.4-5.8v9.8h-0.8c-4.9,0-7.6,2.8-7.6,8.9v8.2h-9.3V187.7z"/>
	<path class="st0" d="M149.3,201.1L149.3,201.1c0-7.8,5.5-14,13.4-14c9.2,0,13.4,6.7,13.4,14.5c0,0.6,0,1.3,0,1.9h-17.8
		c0.7,2.9,2.8,4.4,5.7,4.4c2.2,0,4-0.8,5.9-2.7l5.2,4.3c-2.6,3.2-6.2,5.4-11.5,5.4C155.2,214.9,149.3,209.3,149.3,201.1z
		 M167.4,198.8c-0.3-2.9-2.1-4.8-4.6-4.8c-2.5,0-4.1,1.9-4.6,4.8H167.4z"/>
	<path class="st0" d="M179.1,201.1L179.1,201.1c0-8.7,5.4-14,11.7-14c4,0,6.4,1.8,8.1,3.8v-12.5h9.3v35.8h-9.3v-3.5
		c-1.8,2.2-4.1,4.1-8.1,4.1C184.5,214.8,179.1,209.6,179.1,201.1z M199.1,201L199.1,201c0-3.6-2.4-6.1-5.4-6.1s-5.4,2.5-5.4,6v0.1
		c0,3.5,2.5,6,5.4,6S199.1,204.5,199.1,201z"/>
	<path class="st0" d="M212.8,204.6h9.7v9.6h-9.7V204.6z"/>
</g>
</svg>
