<?xml version="1.0" encoding="utf-8"?>
<!-- Generator: Adobe Illustrator 25.4.1, SVG Export Plug-In . SVG Version: 6.00 Build 0)  -->
<svg version="1.1" id="Layer_1" xmlns="http://www.w3.org/2000/svg" xmlns:xlink="http://www.w3.org/1999/xlink" x="0px" y="0px"
	 viewBox="0 0 300 250" style="enable-background:new 0 0 300 250;" xml:space="preserve">
<style type="text/css">
	.st0{fill:#461211;}
</style>
<g>
	<path class="st0" d="M18.1,97.4L18.1,97.4C18.1,91,23,86,29.6,86c4.4,0,7.3,1.9,9.2,4.5L34.2,94c-1.2-1.5-2.7-2.5-4.7-2.5
		c-3,0-5.2,2.6-5.2,5.7v0.1c0,3.3,2.1,5.8,5.2,5.8c2.3,0,3.6-1.1,4.9-2.6l4.5,3.2c-2,2.8-4.8,4.9-9.6,4.9
		C23.1,108.6,18.1,103.8,18.1,97.4z"/>
	<path class="st0" d="M40.3,103.3L40.3,103.3c0-3.5,2.6-5.3,6.6-5.3c1.6,0,3.1,0.3,4,0.7v-0.3c0-1.7-1.1-2.7-3.3-2.7
		c-1.8,0-3.1,0.3-4.6,0.9l-1.2-4.2c1.9-0.8,3.9-1.3,6.8-1.3c3,0,5.1,0.7,6.4,2c1.3,1.2,1.8,3,1.8,5.3v9.6h-5.8v-1.7
		c-1.1,1.3-2.7,2.1-4.9,2.1C42.8,108.5,40.3,106.7,40.3,103.3z M51,102.1v-0.8c-0.6-0.2-1.4-0.4-2.3-0.4c-1.7,0-2.7,0.8-2.7,2.1v0.1
		c0,1.1,0.9,1.8,2.1,1.8C49.8,104.8,51,103.7,51,102.1z"/>
	<path class="st0" d="M60.6,102.9v-6.8h-2v-4.7h2v-4.2h5.9v4.2h3.9v4.7h-3.9v5.7c0,1.2,0.5,1.7,1.6,1.7c0.8,0,1.5-0.2,2.2-0.6v4.6
		c-1.1,0.6-2.4,1-4.1,1C62.7,108.5,60.6,106.9,60.6,102.9z"/>
	<path class="st0" d="M71.8,99.8L71.8,99.8c0-4.8,3.7-8.8,9-8.8c3.4,0,5.7,1.5,7.2,3.8l-4,3c-0.8-1.1-1.7-1.8-3.1-1.8
		c-1.9,0-3.3,1.7-3.3,3.7v0.1c0,2.2,1.4,3.8,3.3,3.8c1.4,0,2.3-0.7,3.2-1.7l3.9,2.9c-1.5,2.3-3.8,3.8-7.5,3.8
		C75.6,108.6,71.8,104.6,71.8,99.8z"/>
	<path class="st0" d="M90.2,85.5h5.9v8.2c1.1-1.4,2.6-2.7,5-2.7c3.6,0,5.7,2.4,5.7,6.2v11h-5.9v-9.1c0-1.8-1-2.8-2.4-2.8
		c-1.4,0-2.5,1-2.5,2.8v9.1h-5.9V85.5z"/>
	<path class="st0" d="M119.4,102.9v-6.8h-2v-4.7h2v-4.2h5.9v4.2h3.9v4.7h-3.9v5.7c0,1.2,0.5,1.7,1.6,1.7c0.8,0,1.5-0.2,2.2-0.6v4.6
		c-1.1,0.6-2.4,1-4.1,1C121.5,108.5,119.4,106.9,119.4,102.9z"/>
	<path class="st0" d="M131.8,85.5h5.9v8.2c1.1-1.4,2.6-2.7,5-2.7c3.6,0,5.7,2.4,5.7,6.2v11h-5.9v-9.1c0-1.8-1-2.8-2.4-2.8
		c-1.4,0-2.5,1-2.5,2.8v9.1h-5.9V85.5z"/>
	<path class="st0" d="M150.8,99.8L150.8,99.8c0-5,3.5-8.8,8.5-8.8c5.8,0,8.5,4.2,8.5,9.2c0,0.4,0,0.8,0,1.2h-11.2
		c0.5,1.8,1.8,2.8,3.6,2.8c1.4,0,2.5-0.5,3.7-1.7l3.3,2.7c-1.6,2-3.9,3.4-7.3,3.4C154.5,108.6,150.8,105.1,150.8,99.8z M162.2,98.4
		c-0.2-1.9-1.3-3-2.9-3c-1.5,0-2.6,1.2-2.9,3H162.2z"/>
	<path class="st0" d="M178.2,99.8L178.2,99.8c0-5.5,3.4-8.8,7.4-8.8c2.5,0,4,1.1,5.1,2.4v-7.9h5.9v22.6h-5.9v-2.2
		c-1.1,1.4-2.6,2.6-5.1,2.6C181.6,108.5,178.2,105.2,178.2,99.8z M190.8,99.8L190.8,99.8c0-2.3-1.5-3.8-3.4-3.8s-3.4,1.6-3.4,3.8
		v0.1c0,2.2,1.5,3.8,3.4,3.8S190.8,102,190.8,99.8z"/>
	<path class="st0" d="M199.7,91.4h5.9v3.4c1-2.3,2.5-3.8,5.3-3.7v6.2h-0.5c-3.1,0-4.8,1.8-4.8,5.6v5.2h-5.9V91.4z"/>
	<path class="st0" d="M211.4,103.3L211.4,103.3c0-3.5,2.6-5.3,6.6-5.3c1.6,0,3.1,0.3,4,0.7v-0.3c0-1.7-1.1-2.7-3.3-2.7
		c-1.8,0-3.1,0.3-4.6,0.9l-1.2-4.2c1.9-0.8,3.9-1.3,6.8-1.3c3,0,5.1,0.7,6.4,2c1.3,1.2,1.8,3,1.8,5.3v9.6H222v-1.7
		c-1.1,1.3-2.7,2.1-4.9,2.1C213.9,108.5,211.4,106.7,211.4,103.3z M222.1,102.1v-0.8c-0.6-0.2-1.4-0.4-2.3-0.4
		c-1.7,0-2.7,0.8-2.7,2.1v0.1c0,1.1,0.9,1.8,2.1,1.8C220.9,104.8,222.1,103.7,222.1,102.1z"/>
	<path class="st0" d="M230.8,91.4h5.9v2.3c1.1-1.4,2.6-2.7,5-2.7c2.2,0,3.9,1,4.8,2.7c1.5-1.7,3.2-2.7,5.6-2.7
		c3.6,0,5.7,2.2,5.7,6.1v11H252V99c0-1.8-0.9-2.8-2.3-2.8s-2.4,1-2.4,2.8v9.1h-5.9V99c0-1.8-0.9-2.8-2.3-2.8c-1.4,0-2.4,1-2.4,2.8
		v9.1h-5.9V91.4z"/>
	<path class="st0" d="M260.1,103.3L260.1,103.3c0-3.5,2.6-5.3,6.6-5.3c1.6,0,3.1,0.3,4,0.7v-0.3c0-1.7-1.1-2.7-3.3-2.7
		c-1.8,0-3.1,0.3-4.6,0.9l-1.2-4.2c1.9-0.8,3.9-1.3,6.8-1.3c3,0,5.1,0.7,6.4,2c1.3,1.2,1.8,3,1.8,5.3v9.6h-5.8v-1.7
		c-1.1,1.3-2.7,2.1-4.9,2.1C262.5,108.5,260.1,106.7,260.1,103.3z M270.8,102.1v-0.8c-0.6-0.2-1.4-0.4-2.3-0.4
		c-1.7,0-2.7,0.8-2.7,2.1v0.1c0,1.1,0.9,1.8,2.1,1.8C269.6,104.8,270.8,103.7,270.8,102.1z"/>
	<path class="st0" d="M279.3,102.1h6.1v6h-6.1V102.1z"/>
</g>
</svg>
