<?xml version="1.0" encoding="utf-8"?>
<!-- Generator: Adobe Illustrator 25.4.1, SVG Export Plug-In . SVG Version: 6.00 Build 0)  -->
<svg version="1.1" id="Layer_1" xmlns="http://www.w3.org/2000/svg" xmlns:xlink="http://www.w3.org/1999/xlink" x="0px" y="0px"
	 viewBox="0 0 300 250" style="enable-background:new 0 0 300 250;" xml:space="preserve">
<style type="text/css">
	.st0{fill:#461211;}
</style>
<path class="st0" d="M29.1,148l2.7-0.3l-0.8-6h-6.8l-3.1,5.9l2.7,0.4l-0.2,1.2h-6.9l0.2-1.2l2.6-0.4l10.7-19.2h1.8l2.7,19.2l2.8,0.3
	l-0.2,1.2h-8.2L29.1,148z M25,140.3h5.8l-1.2-8.8L25,140.3z M58.1,139.4h-4.9l-0.1,0.3c-0.5,2.7-1,5.3-1.4,8l3,0.4l-0.2,1.2h-8.3
	l0.2-1.2l2.7-0.3l1.8-9.6c0.5-2.7,1-5.3,1.4-8l-2.8-0.4l0.2-1.2h14.7l-0.9,5.5H62v-4h-7l-1.5,7.9h4.8l1-3h1.3l-1.4,7.7H58
	L58.1,139.4z M67.1,136.8l-3.1-0.2l0.1-0.9l5.1-1.6l0.4,0.3l-0.7,4.1c1.3-2.3,3-4.4,4.7-4.4c0.9,0,1.6,0.2,2,0.9
	c0,1-0.6,1.7-1.6,1.7c-0.5,0-1.2-0.3-1.8-0.8c-1.5,1.2-2.7,2.9-3.8,5.1l-0.4,1.7c-0.5,2.2-0.8,4.3-1.2,6.5l-2,0.2l-0.3-0.2
	L67.1,136.8z M75.3,143.9c0-5,3.8-9.7,8.1-9.7c2,0,3.1,1,3.1,2.9c0,2-1.9,4.8-9,6.8c0.1,2.7,1.3,3.7,3.2,3.7c2,0,3.3-1.2,4.2-2.3
	l0.7,0.6c-1.3,2.1-3.3,3.8-5.6,3.8C77.3,149.7,75.3,147.9,75.3,143.9z M84.5,137.3c0-1.1-0.7-1.8-1.7-1.8c-1.9,0-5,3.3-5.3,7.1
	C82.6,141.1,84.5,139,84.5,137.3z M88.9,149.5l-0.3-0.2l2.6-12.4l-3.1-0.2l0.1-0.9l5.2-1.6l0.4,0.3l-0.6,3.2c2-1.9,4.6-3.5,6.5-3.5
	c1.3,0,2,0.7,2,2.1c0,1-0.3,2-0.5,3l-1.4,5.7c-0.2,0.9-0.4,1.5-0.4,1.8c0,0.4,0.2,0.7,0.6,0.7c0.8,0,2-0.9,3.1-2.3l0.7,0.6
	c-1.2,1.8-3.2,3.8-5.3,3.8c-1,0-1.6-0.5-1.6-1.3c0-0.7,0.2-1.2,0.5-2.5l1.3-5.5c0.2-1.1,0.5-2.1,0.5-2.7c0-1.1-0.4-1.5-1.1-1.5
	c-1.1,0-2.9,0.9-5.2,2.8l-0.8,3.8c-0.5,2.2-0.8,4.3-1.2,6.5L88.9,149.5z M105.3,143.9c0-5.2,4.1-9.7,7.9-9.7c1.9,0,3,0.9,3.3,2.3
	c-0.1,0.7-0.7,1.1-1.3,1.1c-0.7,0-1.3-0.5-1.8-1.1l-0.9-1c-2.7,0.9-5,4.4-5,8.2c0,2.7,1.4,4,3.4,4c1.7,0,2.9-1.2,3.8-2.3l0.7,0.6
	c-1.2,2.2-3.5,3.8-5.6,3.8C107.3,149.7,105.3,147.7,105.3,143.9z M125.7,148.4c0-0.7,0.2-1.2,0.5-2.5l1.3-5.5
	c0.2-1.1,0.5-2.1,0.5-2.7c0-1.1-0.4-1.5-1.1-1.5c-1.1,0-2.8,0.9-5.1,2.7l-0.8,3.8c-0.4,2.2-0.8,4.3-1.2,6.5l-2,0.2l-0.3-0.2l3-14.8
	c0.4-1.8,0.7-3.7,1-5.5l-3-0.2l0.1-0.9l5.3-1.6l0.3,0.2l-2.3,11.1c2-1.9,4.5-3.4,6.4-3.4c1.3,0,2,0.7,2,2.1c0,1-0.3,2-0.5,3
	l-1.4,5.7c-0.2,0.9-0.4,1.5-0.4,1.8c0,0.4,0.2,0.7,0.6,0.7c0.8,0,2-0.9,3.1-2.3l0.7,0.6c-1.2,1.8-3.2,3.8-5.3,3.8
	C126.3,149.7,125.7,149.1,125.7,148.4z M154.9,128.5h6.9l-0.2,1.2l-2.7,0.4l-10.4,19.5h-1.3l-3.1-19.5l-2.4-0.3l0.2-1.2h8.2
	l-0.2,1.2l-3,0.4l2.2,15.4l8.2-15.4l-2.6-0.4L154.9,128.5z M161.6,145.9l1.9-9l-3.1-0.2l0.1-0.9l5.2-1.6l0.4,0.3l-2.2,10.6
	c-0.2,0.8-0.3,1.4-0.3,1.8c0,0.4,0.3,0.7,0.7,0.7c0.7,0,1.7-0.8,3-2.3l0.7,0.6c-1.4,1.9-3,3.8-5.2,3.8c-0.8,0-1.6-0.5-1.6-1.6
	C161.3,147.7,161.3,147.1,161.6,145.9z M164.1,128.1c0-1,0.9-1.9,1.8-1.9c1,0,1.7,0.7,1.7,1.8c0,1-0.9,1.9-1.8,1.9
	C164.8,129.9,164.1,129.2,164.1,128.1z M170.2,147.9c0-0.4,0.1-1,0.3-2l2.3-11.4c0.4-1.8,0.7-3.7,1-5.5l-2.9-0.2l0.1-0.9l5.3-1.6
	l0.3,0.2l-3.7,18.5c-0.2,0.8-0.3,1.5-0.3,1.8c0,0.5,0.4,0.7,0.8,0.7c0.7,0,1.7-0.8,2.9-2.3l0.7,0.6c-1.3,1.8-2.9,3.8-5.1,3.8
	C171,149.7,170.2,149.1,170.2,147.9z M178.8,147.9c0-0.4,0.1-1,0.3-2l2.3-11.4c0.4-1.8,0.7-3.7,1-5.5l-2.9-0.2l0.1-0.9l5.3-1.6
	l0.3,0.2l-3.7,18.5c-0.2,0.8-0.3,1.5-0.3,1.8c0,0.5,0.4,0.7,0.8,0.7c0.7,0,1.7-0.8,2.9-2.3l0.7,0.6c-1.3,1.8-2.9,3.8-5.1,3.8
	C179.6,149.7,178.8,149.1,178.8,147.9z M194.8,147.9c0-0.6,0-1.1,0.1-1.7c-1.8,2.1-3.8,3.5-5.4,3.5c-1.5,0-2.9-1.1-2.9-3.6
	c0-5.4,5.6-11.9,9.5-11.9c0.7,0,1.3,0.3,1.8,0.9l1.4-1.2l0.6,0.3l-2.5,10.9c-0.2,0.8-0.3,1.4-0.3,1.8c0,0.4,0.3,0.7,0.7,0.7
	c0.8,0,2-0.9,3.1-2.3l0.7,0.6c-1.2,1.8-3.2,3.8-5.2,3.8C195.5,149.7,194.8,149.1,194.8,147.9z M196.9,136.8
	c-0.6-0.3-1.3-0.6-1.9-0.6c-1,0-2.3,0.7-3.4,1.8c-1.5,1.6-2.7,4-2.7,6.7c0,1.9,0.7,2.8,1.9,2.8c1.1,0,2.4-0.8,4.5-3.1L196.9,136.8z
	 M209.7,134.2c2,0,3.4,1.1,3.8,2.9c0.6-2.4,1.7-3.2,2.9-3.2c0.4,0,0.7,0.1,0.9,0.2c0.2,0.2,0.3,0.4,0.3,0.6c0,1.2-1.1,1.6-3,2.2
	c-0.2,0.5-0.3,1.1-0.5,1.8c-0.9,4-3.2,5.8-5.6,5.8c-0.9,0-1.7-0.2-2.4-0.5c-0.7,0.8-0.8,1.2-0.8,1.7c0,0.5,0.4,1.2,1.6,1.4l3,0.4
	c3.3,0.4,4.6,1.6,4.6,3.3c0,3.3-3.8,5.9-8.9,5.9c-2.9,0-5-1.1-5-3.3c0-1.9,1.8-3.7,3.9-4.7c-1.1-0.5-1.4-1.4-1.4-2.1
	c0-1.1,0.9-2.1,2.3-3.1c-1-0.7-1.5-1.9-1.5-3.3C203.9,136.9,206.5,134.2,209.7,134.2z M202.9,152.4c0,1.8,1.5,2.9,4,2.9
	c3.3,0,5.5-1.3,5.5-3.3c0-1.1-0.7-2.2-4-2.5l-2.4-0.3l-0.5-0.1C203.7,150.2,202.9,151.1,202.9,152.4z M211.9,138.3
	c0-2-1.1-3.2-2.4-3.2c-2.2,0.1-3.3,2.1-3.3,5c0,2.2,0.8,3.4,2.4,3.3C210.6,143.4,211.9,141.6,211.9,138.3z M217.5,143.9
	c0-5,3.8-9.7,8.1-9.7c2,0,3.1,1,3.1,2.9c0,2-1.9,4.8-9,6.8c0.1,2.7,1.3,3.7,3.2,3.7c2,0,3.3-1.2,4.2-2.3l0.7,0.6
	c-1.3,2.1-3.3,3.8-5.6,3.8C219.5,149.7,217.5,147.9,217.5,143.9z M226.6,137.3c0-1.1-0.7-1.8-1.7-1.8c-1.9,0-5,3.3-5.3,7.1
	C224.8,141.1,226.6,139,226.6,137.3z"/>
<g>
	<path class="st0" d="M229,152.1c2.1-0.2,3.2-1.2,3.1-2.9h-2.4v-6h6.1v4.9c0,4.6-2.5,6.2-6.4,6.3L229,152.1z"/>
</g>
<g>
	<path class="st0" d="M17.8,172.7L17.8,172.7c0-4.8,3.9-8.8,9.3-8.8c5.4,0,9.2,3.9,9.2,8.7v0.1c0,4.8-3.9,8.8-9.3,8.8
		C21.7,181.4,17.8,177.4,17.8,172.7z M30.6,172.7L30.6,172.7c0-2.1-1.5-3.8-3.6-3.8c-2.1,0-3.5,1.7-3.5,3.7v0.1c0,2,1.5,3.8,3.6,3.8
		C29.3,176.4,30.6,174.7,30.6,172.7z"/>
	<path class="st0" d="M38.9,164.2h5.9v2.4c1.1-1.4,2.6-2.7,5-2.7c3.6,0,5.7,2.4,5.7,6.2v11h-5.9v-9.1c0-1.8-1-2.8-2.4-2.8
		c-1.4,0-2.5,1-2.5,2.8v9.1h-5.9V164.2z"/>
	<path class="st0" d="M67.4,159.3h6.4l5.2,8.4l5.2-8.4h6.4V181h-6v-12.5L79,177h-0.1l-5.5-8.4V181h-5.9V159.3z"/>
	<path class="st0" d="M94.4,159.3h6v8.1h7.7v-8.1h6V181h-6v-8.2h-7.7v8.2h-6V159.3z"/>
	<path class="st0" d="M117,177.1l7.8-8.2h-7.5v-4.7h15.3v3.9l-7.8,8.2h7.8v4.7H117V177.1z"/>
	<path class="st0" d="M143.2,170.2L143.2,170.2c0-6.4,4.9-11.3,11.4-11.3c4.4,0,7.3,1.9,9.2,4.5l-4.5,3.5c-1.2-1.6-2.7-2.5-4.7-2.5
		c-3,0-5.2,2.6-5.2,5.7v0.1c0,3.3,2.1,5.8,5.2,5.8c2.3,0,3.6-1.1,4.9-2.6l4.5,3.2c-2,2.8-4.8,4.9-9.6,4.9
		C148.2,181.4,143.2,176.7,143.2,170.2z"/>
	<path class="st0" d="M166.3,158.3h5.9v8.2c1.1-1.4,2.6-2.7,5-2.7c3.6,0,5.7,2.4,5.7,6.2v11H177v-9.1c0-1.8-1-2.8-2.4-2.8
		c-1.4,0-2.5,1-2.5,2.8v9.1h-5.9V158.3z"/>
	<path class="st0" d="M185.3,172.7L185.3,172.7c0-4.8,3.9-8.8,9.3-8.8c5.4,0,9.2,3.9,9.2,8.7v0.1c0,4.8-3.9,8.8-9.3,8.8
		C189.1,181.4,185.3,177.4,185.3,172.7z M198.1,172.7L198.1,172.7c0-2.1-1.5-3.8-3.6-3.8c-2.1,0-3.5,1.7-3.5,3.7v0.1
		c0,2,1.5,3.8,3.6,3.8C196.7,176.4,198.1,174.7,198.1,172.7z"/>
	<path class="st0" d="M206.3,158.3h6.1v4.3h-6.1V158.3z M206.4,164.2h5.9V181h-5.9V164.2z"/>
	<path class="st0" d="M214.9,172.7L214.9,172.7c0-4.8,3.7-8.8,9-8.8c3.4,0,5.7,1.5,7.2,3.8l-4,3c-0.8-1.1-1.7-1.8-3.1-1.8
		c-1.9,0-3.3,1.7-3.3,3.7v0.1c0,2.2,1.4,3.8,3.3,3.8c1.4,0,2.3-0.7,3.2-1.7l3.9,2.9c-1.6,2.3-3.8,3.8-7.5,3.8
		C218.6,181.4,214.9,177.4,214.9,172.7z"/>
	<path class="st0" d="M232.1,172.7L232.1,172.7c0-5,3.5-8.8,8.5-8.8c5.8,0,8.5,4.2,8.5,9.2c0,0.4,0,0.8,0,1.2h-11.2
		c0.5,1.8,1.8,2.8,3.6,2.8c1.4,0,2.5-0.5,3.7-1.7l3.3,2.7c-1.6,2-3.9,3.4-7.3,3.4C235.8,181.4,232.1,177.9,232.1,172.7z
		 M243.5,171.2c-0.2-1.9-1.3-3-2.9-3c-1.5,0-2.6,1.2-2.9,3H243.5z"/>
	<path class="st0" d="M251.2,174.9h6.1v6h-6.1V174.9z"/>
</g>
</svg>
