<?xml version="1.0" encoding="utf-8"?>
<!-- Generator: Adobe Illustrator 25.4.1, SVG Export Plug-In . SVG Version: 6.00 Build 0)  -->
<svg version="1.1" id="Layer_1" xmlns="http://www.w3.org/2000/svg" xmlns:xlink="http://www.w3.org/1999/xlink" x="0px" y="0px"
	 viewBox="0 0 300 250" style="enable-background:new 0 0 300 250;" xml:space="preserve">
<style type="text/css">
	.st0{clip-path:url(#SVGID_00000065036094002476154310000002306200576589555613_);fill:#AC1F2D;}
	.st1{clip-path:url(#SVGID_00000065036094002476154310000002306200576589555613_);fill:#FFFFFF;}
</style>
<g>
	<defs>
		<rect id="SVGID_1_" x="16.7" y="10.2" width="47.3" height="52.2"/>
	</defs>
	<clipPath id="SVGID_00000088131529764317600610000007833961251206012298_">
		<use xlink:href="#SVGID_1_"  style="overflow:visible;"/>
	</clipPath>
	<path style="clip-path:url(#SVGID_00000088131529764317600610000007833961251206012298_);fill:#AC1F2D;" d="M60.7,35.8
		c0,12.1-9.8,21.9-21.9,21.9c-12.1,0-21.9-9.8-21.9-21.9c0-12.1,9.8-21.9,21.9-21.9C50.9,13.9,60.7,23.7,60.7,35.8"/>
	<path style="clip-path:url(#SVGID_00000088131529764317600610000007833961251206012298_);fill:#FFFFFF;" d="M47.6,31.8v2.5h2.9
		l-3.4,5.2h8.3V37h-3.5l3.2-5.2H47.6z M31.3,28.6l-2.6,5.9L26,28.6h-3.7v10.9h3v-5.8l2.6,5.8h1.3l2.6-6v6H35V28.6H31.3z M43.3,28.6
		v3.8h-3.8v-3.8h-3.4v10.9h3.4v-4.3h3.8v4.3h3.4V28.6H43.3z"/>
	<path style="clip-path:url(#SVGID_00000088131529764317600610000007833961251206012298_);fill:#FFFFFF;" d="M47.3,44h2.9v-0.8h-1.9
		v-0.6h1.7v-0.8h-1.7v-0.5h1.9v-0.8h-2.9V44z M45,44.1c0.8,0,1.3-0.3,1.6-0.8l-0.8-0.5c-0.2,0.3-0.4,0.4-0.8,0.4
		c-0.5,0-0.9-0.4-0.9-1v0c0-0.5,0.4-1,0.9-1c0.3,0,0.6,0.2,0.8,0.4l0.8-0.6c-0.3-0.4-0.8-0.8-1.5-0.8c-1.1,0-1.9,0.8-1.9,1.9v0
		C43.2,43.3,44,44.1,45,44.1 M41.3,44h1v-3.6h-1V44z M38.5,43.2c-0.5,0-0.9-0.5-0.9-1v0c0-0.5,0.4-1,0.9-1c0.6,0,0.9,0.5,0.9,1v0
		C39.4,42.7,39.1,43.2,38.5,43.2 M38.5,44.1c1.1,0,1.9-0.8,1.9-1.9v0c0-1-0.8-1.9-1.9-1.9s-1.9,0.8-1.9,1.9v0
		C36.6,43.2,37.4,44.1,38.5,44.1 M32.5,44h1v-1.4h1.3V44h1v-3.6h-1v1.3h-1.3v-1.3h-1V44z M30.1,44.1c0.8,0,1.3-0.3,1.6-0.8L31,42.7
		c-0.2,0.3-0.4,0.4-0.8,0.4c-0.5,0-0.9-0.4-0.9-1v0c0-0.5,0.4-1,0.9-1c0.3,0,0.6,0.2,0.8,0.4l0.8-0.6c-0.3-0.4-0.8-0.8-1.5-0.8
		c-1.1,0-1.9,0.8-1.9,1.9v0C28.3,43.3,29.1,44.1,30.1,44.1"/>
</g>
</svg>
