<?xml version="1.0" encoding="utf-8"?>
<!-- Generator: Adobe Illustrator 25.4.1, SVG Export Plug-In . SVG Version: 6.00 Build 0)  -->
<svg version="1.1" id="Layer_1" xmlns="http://www.w3.org/2000/svg" xmlns:xlink="http://www.w3.org/1999/xlink" x="0px" y="0px"
	 viewBox="0 0 970 250" style="enable-background:new 0 0 970 250;" xml:space="preserve">
<style type="text/css">
	.st0{fill:#490A09;}
</style>
<g>
	<path class="st0" d="M36.9,98.4h40.4v12.3H50.9v8.6h23.9v11.6H50.9v18h-14V98.4z"/>
	<path class="st0" d="M82.8,109.9h13.7v7.9c2.2-5.3,5.8-8.8,12.3-8.5v14.4h-1.2c-7.1,0-11.2,4.1-11.2,13.1v12.1H82.8V109.9z"/>
	<path class="st0" d="M110,137.7v-0.1c0-8.1,6.1-12.3,15.3-12.3c3.6,0,7.1,0.7,9.4,1.5v-0.6c0-4-2.5-6.3-7.8-6.3
		c-4.1,0-7.3,0.8-10.7,2.2l-2.8-9.7c4.4-1.8,9.1-3,15.8-3c7,0,11.8,1.7,14.9,4.8c3,2.9,4.2,6.9,4.2,12.4v22.4h-13.6v-4
		c-2.7,3-6.3,4.9-11.5,4.9C115.7,149.7,110,145.5,110,137.7z M134.8,134.7v-1.8c-1.4-0.6-3.3-1-5.3-1c-4,0-6.3,1.9-6.3,4.8v0.1
		c0,2.7,2,4.3,4.8,4.3C132,141.2,134.8,138.6,134.8,134.7z"/>
	<path class="st0" d="M155.2,109.9h13.7v5.5c2.5-3.2,6.1-6.3,11.7-6.3c8.3,0,13.3,5.5,13.3,14.4v25.5h-13.7v-21.1
		c0-4.3-2.2-6.6-5.5-6.6c-3.3,0-5.8,2.3-5.8,6.6v21.1h-13.7V109.9z"/>
	<path class="st0" d="M199.3,129.5v-0.1c0-11,8.6-20.3,20.9-20.3c8,0,13.3,3.5,16.7,8.7l-9.3,6.9c-1.9-2.6-4-4.1-7.3-4.1
		c-4.4,0-7.6,3.9-7.6,8.7v0.1c0,5,3.2,8.9,7.8,8.9c3.2,0,5.3-1.5,7.5-4l9.2,6.6c-3.6,5.3-8.8,8.9-17.4,8.9
		C208,149.8,199.3,140.6,199.3,129.5z"/>
	<path class="st0" d="M239.3,129.5v-0.1c0-11.1,9.1-20.4,21.6-20.4c12.5,0,21.5,9.2,21.5,20.3v0.1c0,11.1-9.1,20.4-21.6,20.4
		C248.4,149.8,239.3,140.7,239.3,129.5z M269.1,129.5v-0.1c0-4.8-3.5-8.8-8.3-8.8c-5,0-8.1,4-8.1,8.7v0.1c0,4.8,3.5,8.8,8.3,8.8
		C265.9,138.2,269.1,134.2,269.1,129.5z"/>
	<path class="st0" d="M288.2,109.9h13.7v5.2c2.7-3.2,6-6.1,11.8-6.1c9.3,0,17.3,7.7,17.3,20.2v0.1c0,12.7-8,20.4-17.2,20.4
		c-5.9,0-9.4-2.7-11.9-5.6v16.3h-13.7V109.9z M317.6,129.4v-0.1c0-5.1-3.5-8.8-8-8.8c-4.4,0-7.9,3.7-7.9,8.8v0.1
		c0,5.2,3.5,8.9,7.9,8.9C314.1,138.3,317.6,134.7,317.6,129.4z"/>
	<path class="st0" d="M337,96.2h13.7v19c2.5-3.2,6.1-6.2,11.7-6.2c8.3,0,13.3,5.5,13.3,14.4v25.5h-13.7v-21.1c0-4.3-2.2-6.6-5.5-6.6
		c-3.3,0-5.8,2.3-5.8,6.6v21.1H337V96.2z"/>
	<path class="st0" d="M382.7,96.2H397v10.1h-14.3V96.2z M383,109.9h13.7v39H383V109.9z"/>
	<path class="st0" d="M404.6,96.2h13.7v52.6h-13.7V96.2z"/>
	<path class="st0" d="M424.4,129.5v-0.1c0-11.4,8.1-20.4,19.7-20.4c13.5,0,19.7,9.9,19.7,21.3c0,0.9,0,1.9-0.1,2.8h-26.1
		c1.1,4.3,4.2,6.4,8.4,6.4c3.2,0,5.8-1.2,8.7-4l7.6,6.3c-3.8,4.8-9.2,7.9-16.9,7.9C433,149.8,424.4,141.7,424.4,129.5z M450.9,126.2
		c-0.5-4.3-3-7.1-6.8-7.1c-3.6,0-6.1,2.8-6.8,7.1H450.9z"/>
	<path class="st0" d="M468.7,134.8H483v14.1h-14.3V134.8z"/>
</g>
</svg>
