<?xml version="1.0" encoding="utf-8"?>
<!-- Generator: Adobe Illustrator 25.4.1, SVG Export Plug-In . SVG Version: 6.00 Build 0)  -->
<svg version="1.1" id="Layer_1" xmlns="http://www.w3.org/2000/svg" xmlns:xlink="http://www.w3.org/1999/xlink" x="0px" y="0px"
	 viewBox="0 0 970 250" style="enable-background:new 0 0 970 250;" xml:space="preserve">
<style type="text/css">
	.st0{fill:#FFFFFF;}
</style>
<g>
	<path class="st0" d="M52.8,75.4H37.7V63.2h44.3v12.3H66.8v38.2h-14V75.4z"/>
	<path class="st0" d="M87.3,61H101v19c2.5-3.2,6.1-6.2,11.7-6.2c8.3,0,13.3,5.5,13.3,14.4v25.5h-13.7V92.5c0-4.3-2.2-6.6-5.5-6.6
		c-3.3,0-5.8,2.3-5.8,6.6v21.1H87.3V61z"/>
	<path class="st0" d="M131.4,94.3v-0.1c0-11.4,8.1-20.4,19.7-20.4c13.5,0,19.7,9.9,19.7,21.3c0,0.9,0,1.9-0.1,2.8h-26.1
		c1.1,4.3,4.2,6.4,8.4,6.4c3.2,0,5.8-1.2,8.7-4l7.6,6.3c-3.8,4.8-9.2,7.9-16.9,7.9C140.1,114.6,131.4,106.4,131.4,94.3z M157.9,90.9
		c-0.5-4.3-3-7.1-6.8-7.1c-3.6,0-6.1,2.8-6.8,7.1H157.9z"/>
	<path class="st0" d="M194,63.2h14.8l8.8,29.2l9.7-29.4h12l9.7,29.4l8.8-29.2h14.5L255.5,114h-12.2l-10.2-29.1L223.1,114h-12.2
		L194,63.2z"/>
	<path class="st0" d="M270.8,94.3v-0.1c0-11.1,9.1-20.4,21.6-20.4c12.5,0,21.5,9.2,21.5,20.3v0.1c0,11.1-9.1,20.4-21.6,20.4
		C279.8,114.6,270.8,105.4,270.8,94.3z M300.6,94.3v-0.1c0-4.8-3.5-8.8-8.3-8.8c-5,0-8.1,4-8.1,8.7v0.1c0,4.8,3.5,8.8,8.3,8.8
		C297.4,103,300.6,99,300.6,94.3z"/>
	<path class="st0" d="M319.7,74.6h13.7v7.9c2.2-5.3,5.8-8.8,12.3-8.5v14.4h-1.2c-7.1,0-11.2,4.1-11.2,13.1v12.1h-13.7V74.6z"/>
	<path class="st0" d="M350.9,61h13.7v52.6h-13.7V61z"/>
	<path class="st0" d="M370.8,94.3v-0.1c0-12.7,7.9-20.4,17.2-20.4c5.9,0,9.4,2.7,12,5.6V61h13.7v52.6h-13.7v-5.2
		c-2.7,3.2-6.1,6.1-11.9,6.1C378.8,114.5,370.8,106.8,370.8,94.3z M400.1,94.2V94c0-5.1-3.5-8.8-7.9-8.8c-4.4,0-8,3.6-8,8.8v0.1
		c0,5.2,3.6,8.9,8,8.9C396.6,103,400.1,99.4,400.1,94.2z"/>
	<path class="st0" d="M418.9,84c4.8-0.5,7.4-2.9,7.2-6.8h-5.5V63.2h14.2v11.5c0,10.7-5.8,14.4-14.8,14.6L418.9,84z"/>
	<path class="st0" d="M438,108.7l5.1-8.3c4.5,3,9.4,4.5,13.4,4.5c2.4,0,3.5-0.7,3.5-2.1v-0.1c0-1.5-2.2-2.2-6.3-3.3
		c-7.7-2-13.8-4.6-13.8-12.5v-0.1c0-8.3,6.6-12.9,15.6-12.9c5.7,0,11.6,1.7,16.1,4.5l-4.7,8.7c-4-2.2-8.4-3.6-11.5-3.6
		c-2.1,0-3.2,0.8-3.2,1.9v0.1c0,1.5,2.2,2.2,6.3,3.5c7.7,2.2,13.8,4.8,13.8,12.4v0.1c0,8.6-6.4,13.1-15.9,13.1
		C449.9,114.5,443.4,112.6,438,108.7z"/>
	<path class="st0" d="M498.8,63.2h25.9c6.3,0,10.8,1.6,13.8,4.5c2,2,3.2,4.7,3.2,8.1V76c0,5.8-3.3,9.3-7.8,11.2
		c6.1,2,10,5.5,10,12.3v0.1c0,8.7-7.1,13.9-19.1,13.9h-26V63.2z M521.2,83.3c4.3,0,6.6-1.4,6.6-4.4v-0.1c0-2.7-2.2-4.3-6.3-4.3h-9.1
		v8.9H521.2z M523.2,102.4c4.3,0,6.7-1.7,6.7-4.6v-0.1c0-2.7-2.2-4.5-6.9-4.5h-10.7v9.3H523.2z"/>
	<path class="st0" d="M548,94.3v-0.1c0-11.4,8.1-20.4,19.7-20.4c13.5,0,19.7,9.9,19.7,21.3c0,0.9,0,1.9-0.1,2.8h-26.1
		c1.1,4.3,4.2,6.4,8.4,6.4c3.2,0,5.8-1.2,8.7-4l7.6,6.3c-3.7,4.8-9.2,7.9-16.9,7.9C556.6,114.6,548,106.4,548,94.3z M574.5,90.9
		c-0.5-4.3-3-7.1-6.8-7.1c-3.6,0-6.1,2.8-6.8,7.1H574.5z"/>
	<path class="st0" d="M590.2,108.7l5.1-8.3c4.5,3,9.4,4.5,13.4,4.5c2.4,0,3.5-0.7,3.5-2.1v-0.1c0-1.5-2.2-2.2-6.3-3.3
		c-7.7-2-13.8-4.6-13.8-12.5v-0.1c0-8.3,6.6-12.9,15.6-12.9c5.7,0,11.6,1.7,16.1,4.5l-4.7,8.7c-4-2.2-8.4-3.6-11.5-3.6
		c-2.1,0-3.2,0.8-3.2,1.9v0.1c0,1.5,2.2,2.2,6.3,3.5c7.7,2.2,13.8,4.8,13.8,12.4v0.1c0,8.6-6.4,13.1-15.9,13.1
		C602.1,114.5,595.6,112.6,590.2,108.7z"/>
	<path class="st0" d="M632,101.5V85.7h-4.6v-11h4.6v-9.9h13.7v9.9h9.1v11h-9.1v13.2c0,2.7,1.2,3.9,3.8,3.9c1.8,0,3.5-0.5,5.2-1.3
		v10.7c-2.5,1.4-5.7,2.2-9.5,2.2C636.9,114.4,632,110.8,632,101.5z"/>
</g>
<g>
	<path class="st0" d="M52.8,142.4H37.7v-12.3h44.3v12.3H66.8v38.2h-14V142.4z"/>
	<path class="st0" d="M84,130.2h15.6l11.5,31.9l11.5-31.9H138L117.5,181h-13L84,130.2z"/>
	<path class="st0" d="M162.4,128h13.7v52.6h-13.7V128z"/>
	<path class="st0" d="M183.7,128H198v10.1h-14.3V128z M184,141.6h13.7v39H184V141.6z"/>
	<path class="st0" d="M202.4,141.6h14.4l7.5,22.8l7.5-22.8H246l-15.6,39.3H218L202.4,141.6z"/>
	<path class="st0" d="M246.6,161.3v-0.1c0-11.4,8.1-20.4,19.7-20.4c13.5,0,19.7,9.9,19.7,21.3c0,0.9,0,1.9-0.1,2.8h-26.1
		c1.1,4.3,4.2,6.4,8.4,6.4c3.2,0,5.8-1.2,8.7-4l7.6,6.3c-3.8,4.8-9.2,7.9-16.9,7.9C255.2,181.6,246.6,173.4,246.6,161.3z
		 M273.1,157.9c-0.5-4.3-3-7.1-6.8-7.1c-3.6,0-6.1,2.8-6.8,7.1H273.1z"/>
	<path class="st0" d="M288.8,175.7l5.1-8.3c4.5,3,9.4,4.5,13.4,4.5c2.4,0,3.5-0.7,3.5-2.1v-0.1c0-1.5-2.2-2.2-6.3-3.3
		c-7.7-2-13.8-4.6-13.8-12.5v-0.1c0-8.3,6.6-12.9,15.6-12.9c5.7,0,11.6,1.7,16.1,4.5l-4.7,8.7c-4-2.2-8.4-3.6-11.5-3.6
		c-2.1,0-3.2,0.8-3.2,1.9v0.1c0,1.5,2.2,2.2,6.3,3.5c7.7,2.2,13.8,4.8,13.8,12.4v0.1c0,8.6-6.4,13.1-15.9,13.1
		C300.7,181.5,294.3,179.6,288.8,175.7z"/>
	<path class="st0" d="M348.8,128h13.7v19c2.5-3.2,6.1-6.2,11.7-6.2c8.3,0,13.3,5.5,13.3,14.4v25.5h-13.7v-21.1
		c0-4.3-2.2-6.6-5.5-6.6c-3.3,0-5.8,2.3-5.8,6.6v21.1h-13.7V128z"/>
	<path class="st0" d="M393,161.3v-0.1c0-11.4,8.1-20.4,19.7-20.4c13.5,0,19.7,9.9,19.7,21.3c0,0.9,0,1.9-0.1,2.8h-26.1
		c1.1,4.3,4.2,6.4,8.4,6.4c3.2,0,5.8-1.2,8.7-4l7.6,6.3c-3.8,4.8-9.2,7.9-16.9,7.9C401.6,181.6,393,173.4,393,161.3z M419.5,157.9
		c-0.5-4.3-3-7.1-6.8-7.1c-3.6,0-6.1,2.8-6.8,7.1H419.5z"/>
	<path class="st0" d="M438.2,141.6h13.7v7.9c2.2-5.3,5.8-8.8,12.3-8.5v14.4h-1.2c-7.1,0-11.2,4.1-11.2,13.1v12.1h-13.7V141.6z"/>
	<path class="st0" d="M466.8,161.3v-0.1c0-11.4,8.1-20.4,19.7-20.4c13.5,0,19.7,9.9,19.7,21.3c0,0.9,0,1.9-0.1,2.8H480
		c1.1,4.3,4.2,6.4,8.4,6.4c3.2,0,5.8-1.2,8.7-4l7.6,6.3c-3.7,4.8-9.2,7.9-16.9,7.9C475.4,181.6,466.8,173.4,466.8,161.3z
		 M493.3,157.9c-0.5-4.3-3-7.1-6.8-7.1c-3.6,0-6.1,2.8-6.8,7.1H493.3z"/>
	<path class="st0" d="M511.1,166.6h14.3v14.1h-14.3V166.6z"/>
</g>
</svg>
