<?xml version="1.0" encoding="utf-8"?>
<!-- Generator: Adobe Illustrator 25.4.1, SVG Export Plug-In . SVG Version: 6.00 Build 0)  -->
<svg version="1.1" id="Layer_1" xmlns="http://www.w3.org/2000/svg" xmlns:xlink="http://www.w3.org/1999/xlink" x="0px" y="0px"
	 viewBox="0 0 970 250" style="enable-background:new 0 0 970 250;" xml:space="preserve">
<style type="text/css">
	.st0{fill:#490A09;}
</style>
<g>
	<path class="st0" d="M37.1,100.2h14.8l8.8,29.2l9.7-29.4h12l9.7,29.4l8.8-29.2h14.5L98.6,151H86.4l-10.2-29.1L66.1,151H54
		L37.1,100.2z"/>
	<path class="st0" d="M113.9,131.3v-0.1c0-11.4,8.1-20.4,19.7-20.4c13.5,0,19.7,9.9,19.7,21.3c0,0.9,0,1.9-0.1,2.8h-26.1
		c1.1,4.3,4.2,6.4,8.4,6.4c3.2,0,5.8-1.2,8.7-4l7.6,6.3c-3.8,4.8-9.2,7.9-16.9,7.9C122.5,151.6,113.9,143.4,113.9,131.3z
		 M140.4,127.9c-0.5-4.3-3-7.1-6.8-7.1c-3.6,0-6.1,2.8-6.8,7.1H140.4z"/>
	<path class="st0" d="M179.1,98h13.7v19c2.5-3.2,6.1-6.2,11.7-6.2c8.3,0,13.3,5.5,13.3,14.4v25.5H204v-21.1c0-4.3-2.2-6.6-5.5-6.6
		c-3.3,0-5.8,2.3-5.8,6.6v21.1h-13.7V98z"/>
	<path class="st0" d="M222.9,139.5v-0.1c0-8.1,6.1-12.3,15.3-12.3c3.6,0,7.1,0.7,9.4,1.5v-0.6c0-4-2.5-6.3-7.8-6.3
		c-4.1,0-7.3,0.8-10.7,2.2l-2.8-9.7c4.4-1.8,9.1-3,15.8-3c7,0,11.8,1.7,14.9,4.8c3,2.9,4.2,6.9,4.2,12.4v22.4h-13.6v-4
		c-2.7,3-6.3,4.9-11.5,4.9C228.6,151.5,222.9,147.3,222.9,139.5z M247.7,136.5v-1.8c-1.4-0.6-3.3-1-5.3-1c-4,0-6.3,1.9-6.3,4.8v0.1
		c0,2.7,2,4.3,4.8,4.3C244.9,142.9,247.7,140.4,247.7,136.5z"/>
	<path class="st0" d="M263.1,111.6h14.4l7.5,22.8l7.5-22.8h14.2l-15.6,39.3h-12.5L263.1,111.6z"/>
	<path class="st0" d="M307.3,131.3v-0.1c0-11.4,8.1-20.4,19.7-20.4c13.5,0,19.7,9.9,19.7,21.3c0,0.9,0,1.9-0.1,2.8h-26.1
		c1.1,4.3,4.2,6.4,8.4,6.4c3.2,0,5.8-1.2,8.7-4l7.6,6.3c-3.8,4.8-9.2,7.9-16.9,7.9C316,151.6,307.3,143.4,307.3,131.3z M333.8,127.9
		c-0.5-4.3-3-7.1-6.8-7.1c-3.6,0-6.1,2.8-6.8,7.1H333.8z"/>
	<path class="st0" d="M371.5,159l4.3-9.6c2.2,1.3,4.5,2.1,6,2.1c1.4,0,2.3-0.4,3.2-1.6l-15.3-38.3H384l7.8,23.5l7.4-23.5h14.1
		l-14.3,38.1c-3.4,9.1-7.1,12.7-14.9,12.7C379.2,162.4,375.1,161,371.5,159z"/>
	<path class="st0" d="M413.9,131.3v-0.1c0-11.1,9.1-20.4,21.6-20.4c12.5,0,21.5,9.2,21.5,20.3v0.1c0,11.1-9.1,20.4-21.6,20.4
		C422.9,151.6,413.9,142.4,413.9,131.3z M443.7,131.3v-0.1c0-4.8-3.5-8.8-8.3-8.8c-5,0-8.1,4-8.1,8.7v0.1c0,4.8,3.5,8.8,8.3,8.8
		C440.5,140,443.7,136,443.7,131.3z"/>
	<path class="st0" d="M462.5,137.2v-25.5h13.7v21.1c0,4.3,2.2,6.6,5.6,6.6c3.2,0,5.7-2.3,5.7-6.6v-21.1h13.7v39h-13.7v-5.3
		c-2.5,3.2-6.1,6.2-11.7,6.2C467.5,151.5,462.5,146,462.5,137.2z"/>
	<path class="st0" d="M508.5,111.6h13.7v7.9c2.2-5.3,5.8-8.8,12.3-8.5v14.4h-1.2c-7.1,0-11.2,4.1-11.2,13.1v12.1h-13.7V111.6z"/>
	<path class="st0" d="M572.5,112.4h-15.1v-12.3h44.3v12.3h-15.1v38.2h-14V112.4z"/>
	<path class="st0" d="M603.7,100.2h15.6l11.5,31.9l11.5-31.9h15.4L637.2,151h-13L603.7,100.2z"/>
	<path class="st0" d="M652.5,136.6h14.3v14.1h-14.3V136.6z"/>
</g>
</svg>
