<?xml version="1.0" encoding="utf-8"?>
<!-- Generator: Adobe Illustrator 25.4.1, SVG Export Plug-In . SVG Version: 6.00 Build 0)  -->
<svg version="1.1" id="Layer_1" xmlns="http://www.w3.org/2000/svg" xmlns:xlink="http://www.w3.org/1999/xlink" x="0px" y="0px"
	 viewBox="0 0 970 250" style="enable-background:new 0 0 970 250;" xml:space="preserve">
<style type="text/css">
	.st0{fill:#490A09;}
</style>
<g>
	<path class="st0" d="M37.2,28.8h14.1v50.5H37.2V28.8z"/>
	<path class="st0" d="M62.1,67.2V51.3h-4.6v-11h4.6v-9.9h13.7v9.9h9.1v11h-9.1v13.2c0,2.7,1.2,3.9,3.8,3.9c1.8,0,3.5-0.5,5.2-1.3
		v10.7c-2.5,1.4-5.7,2.2-9.5,2.2C67,80.1,62.1,76.5,62.1,67.2z"/>
	<path class="st0" d="M88.8,68.1V68c0-8.1,6.1-12.3,15.3-12.3c3.6,0,7.1,0.7,9.4,1.5v-0.6c0-4-2.5-6.3-7.8-6.3
		c-4.1,0-7.3,0.8-10.7,2.2l-2.8-9.7c4.4-1.8,9.1-3,15.8-3c7,0,11.8,1.7,14.9,4.8c3,2.9,4.2,6.9,4.2,12.4v22.4h-13.6v-4
		c-2.7,3-6.3,4.9-11.5,4.9C94.5,80.2,88.8,75.9,88.8,68.1z M113.6,65.2v-1.8c-1.4-0.6-3.3-1-5.3-1c-4,0-6.3,1.9-6.3,4.8v0.1
		c0,2.7,2,4.3,4.8,4.3C110.8,71.6,113.6,69.1,113.6,65.2z"/>
	<path class="st0" d="M134.3,26.7H148v52.6h-13.7V26.7z"/>
	<path class="st0" d="M154,60v-0.1c0-11.1,9.1-20.4,21.6-20.4c12.5,0,21.5,9.2,21.5,20.3v0.1c0,11.1-9.1,20.4-21.6,20.4
		C163,80.2,154,71.1,154,60z M183.8,60v-0.1c0-4.8-3.5-8.8-8.3-8.8c-5,0-8.1,4-8.1,8.7v0.1c0,4.8,3.5,8.8,8.3,8.8
		C180.6,68.6,183.8,64.7,183.8,60z"/>
	<path class="st0" d="M202.9,40.3h13.7v5.2c2.7-3.2,6-6.1,11.8-6.1c9.3,0,17.3,7.7,17.3,20.2v0.1c0,12.7-8,20.4-17.2,20.4
		c-5.9,0-9.4-2.7-11.9-5.6v16.3h-13.7V40.3z M232.3,59.8v-0.1c0-5.1-3.5-8.8-8-8.8c-4.4,0-7.9,3.7-7.9,8.8v0.1
		c0,5.2,3.5,8.9,7.9,8.9C228.7,68.7,232.3,65.1,232.3,59.8z"/>
	<path class="st0" d="M251.7,26.7h13.7v19c2.5-3.2,6.1-6.2,11.7-6.2c8.3,0,13.3,5.5,13.3,14.4v25.5h-13.7V58.2
		c0-4.3-2.2-6.6-5.5-6.6c-3.3,0-5.8,2.3-5.8,6.6v21.1h-13.7V26.7z"/>
	<path class="st0" d="M297.4,26.7h14.3v10.1h-14.3V26.7z M297.7,40.3h13.7v39h-13.7V40.3z"/>
	<path class="st0" d="M319.3,26.7H333v52.6h-13.7V26.7z"/>
	<path class="st0" d="M339.1,60v-0.1c0-11.4,8.1-20.4,19.7-20.4c13.5,0,19.7,9.9,19.7,21.3c0,0.9,0,1.9-0.1,2.8h-26.1
		c1.1,4.3,4.2,6.4,8.4,6.4c3.2,0,5.8-1.2,8.7-4l7.6,6.3c-3.8,4.8-9.2,7.9-16.9,7.9C347.7,80.2,339.1,72.1,339.1,60z M365.6,56.6
		c-0.5-4.3-3-7.1-6.8-7.1c-3.6,0-6.1,2.8-6.8,7.1H365.6z"/>
	<path class="st0" d="M383.4,65.2h14.3v14.1h-14.3V65.2z"/>
</g>
</svg>
