<?xml version="1.0" encoding="utf-8"?>
<!-- Generator: Adobe Illustrator 25.4.1, SVG Export Plug-In . SVG Version: 6.00 Build 0)  -->
<svg version="1.1" id="Layer_1" xmlns="http://www.w3.org/2000/svg" xmlns:xlink="http://www.w3.org/1999/xlink" x="0px" y="0px"
	 viewBox="0 0 970 250" style="enable-background:new 0 0 970 250;" xml:space="preserve">
<style type="text/css">
	.st0{fill:#490A09;}
</style>
<g>
	<path class="st0" d="M36.9,171h40.6v11.9H50.7v7.6H75v11H50.7v8h27.1v11.9h-41V171z"/>
	<path class="st0" d="M83.9,208v-25.5h13.7v21.1c0,4.3,2.2,6.6,5.6,6.6c3.2,0,5.7-2.3,5.7-6.6v-21.1h13.7v39h-13.7v-5.3
		c-2.5,3.2-6.1,6.2-11.7,6.2C88.9,222.4,83.9,216.9,83.9,208z"/>
	<path class="st0" d="M129.9,182.5h13.7v7.9c2.2-5.3,5.8-8.8,12.3-8.5v14.4h-1.2c-7.1,0-11.2,4.1-11.2,13.1v12.1h-13.7V182.5z"/>
	<path class="st0" d="M158.5,202.2V202c0-11.1,9.1-20.4,21.6-20.4c12.5,0,21.5,9.2,21.5,20.3v0.1c0,11.1-9.1,20.4-21.6,20.4
		C167.5,222.5,158.5,213.3,158.5,202.2z M188.3,202.2V202c0-4.8-3.5-8.8-8.3-8.8c-5,0-8.1,4-8.1,8.7v0.1c0,4.8,3.5,8.8,8.3,8.8
		C185.1,210.8,188.3,206.9,188.3,202.2z"/>
	<path class="st0" d="M207.4,182.5h13.7v5.2c2.7-3.2,6-6.1,11.8-6.1c9.3,0,17.3,7.7,17.3,20.2v0.1c0,12.7-8,20.4-17.2,20.4
		c-5.9,0-9.4-2.7-11.9-5.6v16.3h-13.7V182.5z M236.7,202v-0.1c0-5.1-3.5-8.8-8-8.8c-4.4,0-7.9,3.7-7.9,8.8v0.1
		c0,5.2,3.5,8.9,7.9,8.9C233.2,210.9,236.7,207.3,236.7,202z"/>
	<path class="st0" d="M256.1,168.9h13.7v19c2.5-3.2,6.1-6.2,11.7-6.2c8.3,0,13.3,5.5,13.3,14.4v25.5h-13.7v-21.1
		c0-4.3-2.2-6.6-5.5-6.6c-3.3,0-5.8,2.3-5.8,6.6v21.1h-13.7V168.9z"/>
	<path class="st0" d="M301.9,168.9h14.3V179h-14.3V168.9z M302.2,182.5h13.7v39h-13.7V182.5z"/>
	<path class="st0" d="M323.8,168.9h13.7v52.6h-13.7V168.9z"/>
	<path class="st0" d="M343.5,202.2V202c0-11.4,8.1-20.4,19.7-20.4c13.5,0,19.7,9.9,19.7,21.3c0,0.9,0,1.9-0.1,2.8h-26.1
		c1.1,4.3,4.2,6.4,8.4,6.4c3.2,0,5.8-1.2,8.7-4l7.6,6.3c-3.8,4.8-9.2,7.9-16.9,7.9C352.2,222.5,343.5,214.3,343.5,202.2z
		 M370.1,198.8c-0.5-4.3-3-7.1-6.8-7.1c-3.6,0-6.1,2.8-6.8,7.1H370.1z"/>
	<path class="st0" d="M387.9,207.5h14.3v14.1h-14.3V207.5z"/>
</g>
</svg>
