<?xml version="1.0" encoding="utf-8"?>
<!-- Generator: Adobe Illustrator 25.4.1, SVG Export Plug-In . SVG Version: 6.00 Build 0)  -->
<svg version="1.1" id="Layer_1" xmlns="http://www.w3.org/2000/svg" xmlns:xlink="http://www.w3.org/1999/xlink" x="0px" y="0px"
	 viewBox="0 0 970 250" style="enable-background:new 0 0 970 250;" xml:space="preserve">
<style type="text/css">
	.st0{clip-path:url(#SVGID_00000120527157616246376330000008851885001956560306_);fill:#AC1F2D;}
	.st1{clip-path:url(#SVGID_00000120527157616246376330000008851885001956560306_);fill:#FFFFFF;}
</style>
<g>
	<defs>
		<rect id="SVGID_1_" x="843.8" y="11.2" width="106" height="100.3"/>
	</defs>
	<clipPath id="SVGID_00000078760744291830782380000017386037684522821522_">
		<use xlink:href="#SVGID_1_"  style="overflow:visible;"/>
	</clipPath>
	<path style="clip-path:url(#SVGID_00000078760744291830782380000017386037684522821522_);fill:#AC1F2D;" d="M943,62.2
		c0,25.5-20.7,46.2-46.2,46.2c-25.5,0-46.2-20.7-46.2-46.2S871.3,16,896.8,16C922.4,16,943,36.7,943,62.2"/>
	<path style="clip-path:url(#SVGID_00000078760744291830782380000017386037684522821522_);fill:#FFFFFF;" d="M915.2,53.8V59h6
		l-7.1,11.1h17.5v-5.4h-7.5l6.8-10.9H915.2z M880.9,47.1l-5.6,12.5l-5.5-12.5H862v23h6.4V57.9l5.6,12.2h2.8l5.5-12.6v12.6h6.5v-23
		H880.9z M906.2,47.1v8.1h-8.1v-8.1h-7.1v23h7.1V61h8.1v9.1h7.1v-23H906.2z"/>
	<path style="clip-path:url(#SVGID_00000078760744291830782380000017386037684522821522_);fill:#FFFFFF;" d="M914.8,79.5h6.2v-1.8
		h-4.1v-1.2h3.6v-1.7h-3.6v-1.1h4v-1.8h-6.1V79.5z M909.9,79.7c1.7,0,2.6-0.7,3.4-1.7l-1.6-1.1c-0.5,0.6-0.9,0.9-1.7,0.9
		c-1.1,0-1.8-0.9-1.8-2v0c0-1.1,0.7-2,1.8-2c0.7,0,1.2,0.3,1.7,0.9l1.6-1.2c-0.7-0.9-1.7-1.6-3.2-1.6c-2.3,0-4,1.7-4,3.9v0
		C906,78,907.7,79.7,909.9,79.7 M902.1,79.5h2.1v-7.6h-2.1V79.5z M896.2,77.8c-1.1,0-1.9-1-1.9-2.1v0c0-1.1,0.8-2,1.9-2
		c1.2,0,2,1,2,2v0C898.1,76.8,897.4,77.8,896.2,77.8 M896.2,79.7c2.3,0,4.1-1.8,4.1-3.9v0c0-2.2-1.7-3.9-4.1-3.9
		c-2.3,0-4.1,1.8-4.1,3.9v0C892.1,77.9,893.8,79.7,896.2,79.7 M883.5,79.5h2.1v-2.9h2.7v2.9h2.1v-7.6h-2.1v2.8h-2.7v-2.8h-2.1V79.5z
		 M878.5,79.7c1.7,0,2.6-0.7,3.4-1.7l-1.6-1.1c-0.5,0.6-0.9,0.9-1.7,0.9c-1.1,0-1.8-0.9-1.8-2v0c0-1.1,0.7-2,1.8-2
		c0.7,0,1.2,0.3,1.7,0.9l1.6-1.2c-0.7-0.9-1.7-1.6-3.2-1.6c-2.3,0-4,1.7-4,3.9v0C874.6,78,876.4,79.7,878.5,79.7"/>
</g>
</svg>
