<svg id="Layer_1" xmlns="http://www.w3.org/2000/svg" viewBox="0 0 336 280"><style>.st0{fill:#490a09}</style><path class="st0" d="M19.4 107.7c0-7.1 5.4-12.6 12.7-12.6 4.9 0 8.1 2.1 10.2 5l-5 3.9c-1.4-1.7-3-2.8-5.2-2.8-3.4 0-5.7 2.8-5.7 6.3v.1c0 3.6 2.4 6.4 5.7 6.4 2.5 0 4-1.2 5.4-2.9l5 3.6c-2.3 3.1-5.3 5.4-10.6 5.4-7 0-12.5-5.2-12.5-12.4zM44 114.3c0-3.9 2.9-5.9 7.3-5.9 1.7 0 3.4.3 4.5.7v-.3c0-1.9-1.2-3-3.7-3-2 0-3.5.4-5.1 1l-1.3-4.6c2.1-.9 4.3-1.4 7.5-1.4 3.3 0 5.6.8 7.1 2.3 1.4 1.4 2 3.3 2 5.9v10.7h-6.4v-1.9c-1.3 1.4-3 2.3-5.5 2.3-3.7-.1-6.4-2.1-6.4-5.8zm11.8-1.4v-.9c-.7-.3-1.6-.5-2.5-.5-1.9 0-3 .9-3 2.3v.1c0 1.3 1 2 2.3 2 1.8 0 3.2-1.2 3.2-3zM66.4 113.9v-7.5h-2.2v-5.2h2.2v-4.7h6.5v4.7h4.3v5.2h-4.3v6.3c0 1.3.6 1.9 1.8 1.9.9 0 1.7-.2 2.5-.6v5.1c-1.2.7-2.7 1.1-4.5 1.1-3.9-.2-6.3-1.9-6.3-6.3zM78.8 110.4c0-5.3 4.1-9.7 9.9-9.7 3.8 0 6.3 1.6 7.9 4.2l-4.4 3.3c-.9-1.2-1.9-2-3.5-2-2.1 0-3.6 1.9-3.6 4.1v.1c0 2.4 1.5 4.2 3.7 4.2 1.5 0 2.5-.7 3.6-1.9l4.4 3.2c-1.7 2.5-4.2 4.3-8.3 4.3-5.5-.1-9.7-4.5-9.7-9.8zM99.1 94.6h6.5v9c1.2-1.5 2.9-2.9 5.6-2.9 3.9 0 6.3 2.6 6.3 6.8v12.1H111v-10.1c0-2-1.1-3.1-2.6-3.1-1.6 0-2.7 1.1-2.7 3.1v10.1h-6.5v-25zM131.5 113.9v-7.5h-2.2v-5.2h2.2v-4.7h6.5v4.7h4.3v5.2H138v6.3c0 1.3.6 1.9 1.8 1.9.9 0 1.7-.2 2.5-.6v5.1c-1.2.7-2.7 1.1-4.5 1.1-4-.2-6.3-1.9-6.3-6.3zM145.2 94.6h6.5v9c1.2-1.5 2.9-2.9 5.6-2.9 3.9 0 6.3 2.6 6.3 6.8v12.1H157v-10.1c0-2-1.1-3.1-2.6-3.1-1.6 0-2.7 1.1-2.7 3.1v10.1h-6.5v-25zM166.2 110.4c0-5.5 3.9-9.8 9.4-9.8 6.4 0 9.4 4.7 9.4 10.2v1.3h-12.4c.5 2 2 3.1 4 3.1 1.5 0 2.8-.6 4.1-1.9l3.6 3c-1.8 2.3-4.4 3.8-8.1 3.8-5.9 0-10-3.9-10-9.7zm12.6-1.6c-.2-2.1-1.4-3.4-3.2-3.4-1.7 0-2.9 1.3-3.2 3.4h6.4zM196.5 110.4c0-6.1 3.8-9.8 8.2-9.8 2.8 0 4.5 1.3 5.7 2.7v-8.7h6.5v25h-6.5v-2.5c-1.3 1.5-2.9 2.9-5.7 2.9-4.4 0-8.2-3.6-8.2-9.6zm13.9 0c0-2.5-1.7-4.3-3.8-4.3s-3.8 1.7-3.8 4.2v.1c0 2.5 1.7 4.2 3.8 4.2s3.8-1.8 3.8-4.2zM220.4 101.1h6.5v3.7c1.1-2.5 2.8-4.2 5.9-4v6.9h-.5c-3.4 0-5.3 2-5.3 6.2v5.8h-6.5v-18.6zM233.3 114.3c0-3.9 2.9-5.9 7.3-5.9 1.7 0 3.4.3 4.5.7v-.3c0-1.9-1.2-3-3.7-3-2 0-3.5.4-5.1 1l-1.3-4.6c2.1-.9 4.3-1.4 7.5-1.4 3.3 0 5.6.8 7.1 2.3 1.4 1.4 2 3.3 2 5.9v10.7H245v-1.9c-1.3 1.4-3 2.3-5.5 2.3-3.5-.1-6.2-2.1-6.2-5.8zm11.8-1.4v-.9c-.7-.3-1.6-.5-2.5-.5-1.9 0-3 .9-3 2.3v.1c0 1.3 1 2 2.3 2 1.9 0 3.2-1.2 3.2-3zM254.8 101.1h6.5v2.5c1.2-1.5 2.9-2.9 5.5-2.9 2.5 0 4.4 1.1 5.4 3 1.6-1.9 3.5-3 6.2-3 3.9 0 6.3 2.5 6.3 6.8v12.2h-6.5v-10.1c0-2-1-3.1-2.5-3.1s-2.7 1.1-2.7 3.1v10.1h-6.5v-10.1c0-2-1-3.1-2.5-3.1s-2.6 1.1-2.6 3.1v10.1h-6.5v-18.6zM287.2 114.3c0-3.9 2.9-5.9 7.3-5.9 1.7 0 3.4.3 4.5.7v-.3c0-1.9-1.2-3-3.7-3-2 0-3.5.4-5.1 1l-1.3-4.6c2.1-.9 4.3-1.4 7.5-1.4 3.3 0 5.6.8 7.1 2.3 1.4 1.4 2 3.3 2 5.9v10.7h-6.4v-1.9c-1.3 1.4-3 2.3-5.5 2.3-3.7-.1-6.4-2.1-6.4-5.8zm11.8-1.4v-.9c-.7-.3-1.6-.5-2.5-.5-1.9 0-3 .9-3 2.3v.1c0 1.3 1 2 2.3 2 1.8 0 3.2-1.2 3.2-3zM308.4 112.9h6.8v6.7h-6.8v-6.7z"/></svg>