<svg id="Layer_1" xmlns="http://www.w3.org/2000/svg" viewBox="0 0 336 280"><style>.st0{fill:#490a09}</style><path class="st0" d="M32.3 138.2h6.5l3.7 24.2h-7l-.6-4.3h-9.3l-2.9 4.3h-7.2l16.8-24.2zm2.1 14.7l-.9-6.9-4.5 6.9h5.4zM60.2 138.4h19.2l-1.6 5.8H65.3l-1.1 4.1h11.3l-1.5 5.5H62.8l-2.3 8.6h-6.7l6.4-24zM80.8 143.8h6.5l-1 3.7c1.8-2.6 3.9-4.3 7-4l-1.9 6.9h-.5c-3.6 0-5.9 2-7 6.4l-1.5 5.6h-6.5l4.9-18.6zM101.7 158c1.3 0 2.5-.4 3.9-1.5l3 3.6c-1.9 1.6-4.4 2.8-7.6 2.8-5.5 0-8.9-3.2-8.9-8.2 0-5.5 4.3-11.2 11.1-11.2 5.5 0 7.9 3.7 7.9 7.7 0 1.3-.3 2.6-.7 3.8H98.3c.1 1.8 1.2 3 3.4 3zm3.6-6.4c.1-.3.2-.7.2-1 0-1.3-.8-2.4-2.5-2.4s-3.5 1.1-4.3 3.4h6.6zM116.2 143.8h6.5l-.6 2.1c1.3-1.3 3.1-2.5 5.3-2.5 3.4 0 5.4 2.1 5.4 5.6 0 1-.2 2.2-.5 3.3l-2.7 10.1h-6.5l2.6-9.7c.1-.5.2-1.1.2-1.5 0-1.2-.7-2-2.1-2-1.8 0-2.9 1.2-3.5 3.4l-2.6 9.8h-6.5l5-18.6zM134.5 154.7c0-6.2 5-11.3 11.1-11.3 4.3 0 6.9 2.2 7.9 5.1l-5.1 2.6c-.6-1.4-1.5-2.3-3.2-2.3-2.5 0-4.5 2.7-4.5 5.5 0 1.9 1.2 3.1 2.8 3.1 1.4 0 2.4-.6 3.5-1.7l4 3.5c-1.9 2.2-4.2 3.6-7.9 3.6-4.9 0-8.6-3.1-8.6-8.1zM158.8 137.4h6.5L163 146c1.3-1.3 3.1-2.5 5.3-2.5 3.4 0 5.4 2.1 5.4 5.6 0 1-.2 2.2-.5 3.3l-2.7 10.1H164l2.6-9.7c.1-.5.2-1.1.2-1.5 0-1.2-.7-2-2.1-2-1.8 0-2.9 1.2-3.5 3.4l-2.6 9.8h-6.5l6.7-25.1zM187.8 138.4h7.3l1.3 15.1 9.4-15.1h7.5l-16.2 24.2H191l-3.2-24.2zM213.4 143.8h6.5l-5 18.6h-6.5l5-18.6zm1.7-6.4h6.8l-1.3 4.8h-6.8l1.3-4.8zM225.5 137.4h6.5l-6.7 25h-6.5l6.7-25zM235.8 137.4h6.5l-6.7 25h-6.5l6.7-25zM240.1 157.7c0-4.1 3.3-6.6 8.2-6.6 1.7 0 3.2.3 4.7.7l.1-.2c.1-.3.2-.7.2-1.1 0-1.2-.9-2-3.2-2-1.7 0-3.7.4-5 .9l-.9-4.7c2-.7 4.6-1.1 7.3-1.1 5.6 0 8.3 2.2 8.3 5.9 0 .9-.1 1.7-.4 2.7l-2.7 10.2h-6.4l.5-2c-1.6 1.5-3.2 2.4-5.4 2.4-3.2 0-5.3-2-5.3-5.1zm12-2.3l.2-.6c-.7-.2-1.5-.4-2.4-.4-2.1 0-3.4 1-3.4 2.7 0 1.1.8 1.7 1.9 1.7 1.5 0 3.1-1.5 3.7-3.4zM258.9 165.4l2.9-4.1c2.1 1.3 4.5 1.9 6.6 1.9 1.7 0 2.9-.4 3.8-1.4.7-.7 1.2-1.6 1.5-3l.1-.4c-1.6 1.5-3.4 2.3-5.6 2.3-3.4 0-6.6-2.3-6.6-6.4 0-5.8 4.2-10.9 9.7-10.9 2.8 0 4.6 1.4 5.6 3l.7-2.6h6.5l-3.9 14.8c-.9 3.3-1.8 5.1-3.3 6.7-1.9 1.8-4.4 2.7-8.3 2.7-3.5 0-7.3-1.1-9.7-2.6zm16.6-13.8c0-1.7-1.2-2.9-3.1-2.9-2.5 0-4.3 2.2-4.3 4.6 0 1.8 1.2 2.8 3 2.8 2.5-.1 4.4-2.2 4.4-4.5zM293.8 158c1.3 0 2.5-.4 3.9-1.5l3 3.6c-1.9 1.6-4.4 2.8-7.6 2.8-5.5 0-8.9-3.2-8.9-8.2 0-5.5 4.3-11.2 11.1-11.2 5.5 0 7.9 3.7 7.9 7.7 0 1.3-.3 2.6-.7 3.8h-12.3c.3 1.8 1.4 3 3.6 3zm3.7-6.4c.1-.3.2-.7.2-1 0-1.3-.8-2.4-2.5-2.4-1.8 0-3.5 1.1-4.3 3.4h6.6z"/><g><path class="st0" d="M301.9 165.8c2.8-.2 4.1-1.4 4.5-3.4h-2.1l1.5-5.5h5.6l-1.2 4.6c-1.2 4.5-3.7 6.3-7.8 6.4l-.5-2.1z"/></g><g><path class="st0" d="M19.1 186.8c0-5.4 4.3-9.8 10.3-9.8 5.9 0 10.2 4.4 10.2 9.6v.1c0 5.3-4.3 9.7-10.3 9.7-5.9.1-10.2-4.3-10.2-9.6zm14.1 0c0-2.3-1.6-4.3-3.9-4.3-2.4 0-3.9 1.9-3.9 4.1v.1c0 2.3 1.6 4.2 3.9 4.2 2.4.1 3.9-1.8 3.9-4.1zM42.3 177.5h6.5v2.6c1.2-1.5 2.9-3 5.6-3 3.9 0 6.3 2.6 6.3 6.8V196h-6.5v-10c0-2-1.1-3.1-2.6-3.1-1.6 0-2.7 1.1-2.7 3.1v10h-6.5v-18.5zM74 172h7l5.7 9.3 5.7-9.3h7v24h-6.6v-13.8l-6.1 9.4h-.1l-6.1-9.3V196H74v-24zM103.8 172h6.7v9h8.5v-9h6.7v24H119v-9.1h-8.5v9.1h-6.7v-24zM128.8 191.8l8.6-9.1h-8.3v-5.2H146v4.3l-8.6 9.1h8.6v5.2h-17.2v-4.3zM157.9 184.1c0-7.1 5.4-12.6 12.7-12.6 4.9 0 8.1 2.1 10.2 5l-5 3.9c-1.4-1.7-3-2.8-5.2-2.8-3.4 0-5.7 2.8-5.7 6.3v.1c0 3.6 2.4 6.4 5.7 6.4 2.5 0 4-1.2 5.4-2.9l5 3.6c-2.3 3.1-5.3 5.4-10.6 5.4-7 0-12.5-5.2-12.5-12.4zM183.3 171h6.5v9c1.2-1.5 2.9-3 5.6-3 3.9 0 6.3 2.6 6.3 6.8V196h-6.5v-10c0-2-1.1-3.1-2.6-3.1-1.6 0-2.7 1.1-2.7 3.1v10h-6.5v-25zM204.3 186.8c0-5.4 4.3-9.8 10.3-9.8 5.9 0 10.2 4.4 10.2 9.6v.1c0 5.3-4.3 9.7-10.3 9.7-5.9.1-10.2-4.3-10.2-9.6zm14.2 0c0-2.3-1.6-4.3-3.9-4.3-2.4 0-3.9 1.9-3.9 4.1v.1c0 2.3 1.6 4.2 3.9 4.2 2.4.1 3.9-1.8 3.9-4.1zM227.6 171h6.8v4.8h-6.8V171zm.1 6.5h6.5V196h-6.5v-18.5zM237.1 186.8c0-5.3 4.1-9.7 9.9-9.7 3.8 0 6.3 1.6 7.9 4.2l-4.4 3.3c-.9-1.2-1.9-2-3.5-2-2.1 0-3.6 1.9-3.6 4.1v.1c0 2.4 1.5 4.2 3.7 4.2 1.5 0 2.5-.7 3.6-1.9l4.4 3.2c-1.7 2.5-4.2 4.3-8.3 4.3-5.5-.1-9.7-4.5-9.7-9.8zM256.2 186.8c0-5.5 3.9-9.8 9.4-9.8 6.4 0 9.4 4.7 9.4 10.2v1.3h-12.4c.5 2 2 3.1 4 3.1 1.5 0 2.8-.6 4.1-1.9l3.6 3c-1.8 2.3-4.4 3.8-8.1 3.8-5.9 0-10-3.9-10-9.7zm12.6-1.6c-.2-2.1-1.4-3.4-3.2-3.4-1.7 0-2.9 1.3-3.2 3.4h6.4zM277.3 189.4h6.8v6.7h-6.8v-6.7z"/></g></svg>