<svg id="Layer_1" xmlns="http://www.w3.org/2000/svg" viewBox="0 0 336 280"><style>.st0{fill:#490a09}</style><path class="st0" d="M29.4 164.6H19.1v-8.3h30.1v8.3H38.9v26h-9.5v-26zM50.7 156.2h10.6l7.8 21.7 7.8-21.7h10.4l-13.9 34.6h-8.8l-13.9-34.6zM102.7 177.4c0-7.6 5.8-13.9 14.2-13.9 5.4 0 9.1 2.4 11.3 5.9l-6.3 4.7c-1.3-1.8-2.7-2.8-5-2.8-3 0-5.2 2.6-5.2 5.9v.1c0 3.4 2.2 6 5.3 6 2.2 0 3.6-1 5.1-2.7l6.2 4.5c-2.5 3.6-6 6.1-11.8 6.1-7.9 0-13.8-6.3-13.8-13.8zM131.7 164h9.3v5.3c1.5-3.6 4-6 8.4-5.8v9.8h-.8c-4.9 0-7.6 2.8-7.6 8.9v8.2h-9.3V164zM152.7 154.8h9.7v6.9h-9.7v-6.9zm.2 9.2h9.3v26.5h-9.3V164zM169 182.3v-10.8h-3.1V164h3.1v-6.7h9.3v6.7h6.2v7.5h-6.2v9c0 1.9.8 2.6 2.6 2.6 1.2 0 2.4-.3 3.5-.9v7.3c-1.7.9-3.9 1.5-6.5 1.5-5.6.1-8.9-2.3-8.9-8.7zM188.5 154.8h9.7v6.9h-9.7v-6.9zm.2 9.2h9.3v26.5h-9.3V164zM202.2 177.4c0-7.6 5.8-13.9 14.2-13.9 5.4 0 9.1 2.4 11.3 5.9l-6.3 4.7c-1.3-1.8-2.7-2.8-5-2.8-3 0-5.2 2.6-5.2 5.9v.1c0 3.4 2.2 6 5.3 6 2.2 0 3.6-1 5.1-2.7l6.2 4.5c-2.5 3.6-6 6.1-11.8 6.1-7.9 0-13.8-6.3-13.8-13.8zM229.1 187.2l3.5-5.6c3 2 6.4 3 9.1 3 1.6 0 2.4-.5 2.4-1.4v-.1c0-1-1.5-1.5-4.3-2.3-5.2-1.4-9.4-3.1-9.4-8.5v-.1c0-5.6 4.5-8.8 10.6-8.8 3.9 0 7.9 1.1 10.9 3.1l-3.2 5.9c-2.7-1.5-5.7-2.5-7.8-2.5-1.4 0-2.2.5-2.2 1.3v.1c0 1 1.5 1.5 4.3 2.4 5.2 1.5 9.4 3.3 9.4 8.4v.1c0 5.8-4.4 8.9-10.8 8.9-4.4.1-8.8-1.2-12.5-3.9z"/><g><path class="st0" d="M19.4 219.4c0-7.6 5.8-13.9 14.2-13.9 5.4 0 9.1 2.4 11.3 5.9l-6.3 4.7c-1.3-1.8-2.7-2.8-5-2.8-3 0-5.2 2.6-5.2 5.9v.1c0 3.4 2.2 6 5.3 6 2.2 0 3.6-1 5.1-2.7l6.2 4.5c-2.5 3.6-6 6.1-11.8 6.1-7.9 0-13.8-6.3-13.8-13.8zM48.4 196.8h9.3v12.9c1.7-2.2 4.2-4.2 7.9-4.2 5.6 0 9 3.7 9 9.8v17.4h-9.3v-14.4c0-2.9-1.5-4.5-3.7-4.5-2.3 0-3.9 1.6-3.9 4.5v14.4h-9.3v-35.9zM78.4 219.4c0-7.8 5.5-14 13.4-14 9.2 0 13.4 6.7 13.4 14.5v1.9H87.4c.7 2.9 2.8 4.4 5.7 4.4 2.2 0 4-.8 5.9-2.7l5.2 4.3c-2.6 3.2-6.2 5.4-11.5 5.4-8.4 0-14.3-5.5-14.3-13.8zm18.1-2.3c-.3-2.9-2.1-4.8-4.6-4.8-2.5 0-4.1 1.9-4.6 4.8h9.2zM108.1 219.4c0-7.8 5.5-14 13.4-14 9.2 0 13.4 6.7 13.4 14.5v1.9h-17.8c.7 2.9 2.8 4.4 5.7 4.4 2.2 0 4-.8 5.9-2.7l5.2 4.3c-2.6 3.2-6.2 5.4-11.5 5.4-8.4 0-14.3-5.5-14.3-13.8zm18.1-2.3c-.3-2.9-2.1-4.8-4.6-4.8-2.5 0-4.1 1.9-4.6 4.8h9.2zM138.9 206h9.3v5.3c1.5-3.6 4-6 8.4-5.8v9.8h-.8c-4.9 0-7.6 2.8-7.6 8.9v8.2h-9.3V206zM158.3 219.4c0-7.8 5.5-14 13.4-14 9.2 0 13.4 6.7 13.4 14.5v1.9h-17.8c.7 2.9 2.8 4.4 5.7 4.4 2.2 0 4-.8 5.9-2.7l5.2 4.3c-2.6 3.2-6.2 5.4-11.5 5.4-8.4 0-14.3-5.5-14.3-13.8zm18.1-2.3c-.3-2.9-2.1-4.8-4.6-4.8-2.5 0-4.1 1.9-4.6 4.8h9.2zM188.1 219.4c0-8.7 5.4-14 11.7-14 4 0 6.4 1.8 8.1 3.8v-12.5h9.3v35.8h-9.3V229c-1.8 2.2-4.1 4.1-8.1 4.1-6.3.1-11.7-5.2-11.7-13.7zm20-.1c0-3.6-2.4-6.1-5.4-6.1s-5.4 2.5-5.4 6v.1c0 3.5 2.5 6 5.4 6s5.4-2.4 5.4-6zM221.8 223h9.7v9.6h-9.7V223z"/></g></svg>