<svg id="Layer_1" xmlns="http://www.w3.org/2000/svg" viewBox="0 0 336 280"><style>.st0{fill:#490a09}</style><path class="st0" d="M18.7 77h9v32.2h-9V77zM34.6 101.4V91.3h-2.9v-7h2.9V78h8.7v6.3h5.8v7h-5.8v8.4c0 1.7.8 2.5 2.4 2.5 1.1 0 2.3-.3 3.3-.8v6.8c-1.6.9-3.6 1.4-6.1 1.4-5.2.1-8.3-2.2-8.3-8.2zM51.6 102c0-5.2 3.9-7.9 9.7-7.9 2.3 0 4.5.5 6 1v-.4c0-2.6-1.6-4-5-4-2.6 0-4.6.5-6.8 1.4l-1.8-6.2c2.8-1.1 5.8-1.9 10.1-1.9 4.5 0 7.5 1.1 9.5 3 1.9 1.8 2.7 4.4 2.7 7.9v14.3h-8.6v-2.6c-1.7 1.9-4 3.1-7.3 3.1-4.9 0-8.5-2.7-8.5-7.7zm15.8-1.8V99c-.9-.4-2.1-.6-3.4-.6-2.5 0-4 1.2-4 3.1v.1c0 1.7 1.3 2.7 3.1 2.7 2.5-.1 4.3-1.7 4.3-4.1zM80.6 75.6h8.7v33.5h-8.7V75.6zM93.1 96.8c0-7.2 5.8-13.1 13.8-13.1 7.9 0 13.7 5.8 13.7 12.9v.1c0 7.1-5.8 13-13.8 13-7.9.1-13.7-5.8-13.7-12.9zm19 0c0-3.1-2.2-5.7-5.3-5.7-3.2 0-5.2 2.5-5.2 5.5v.1c0 3 2.2 5.6 5.3 5.6 3.2.1 5.2-2.5 5.2-5.5zM124.3 84.3h8.7v3.3c1.7-2.1 3.8-3.9 7.5-3.9 5.9 0 11 4.9 11 12.9v.1c0 8.1-5.1 13-11 13-3.8 0-6-1.7-7.6-3.6v10.4h-8.7V84.3zM143 96.8c0-3.4-2.3-5.7-5.1-5.7s-5.1 2.3-5.1 5.6v.1c0 3.3 2.3 5.6 5.1 5.6s5.1-2.3 5.1-5.6zM155.3 75.6h8.7v12.1c1.6-2.1 3.9-4 7.4-4 5.3 0 8.5 3.5 8.5 9.1v16.3h-8.7V95.7c0-2.7-1.4-4.2-3.5-4.2S164 93 164 95.7v13.5h-8.7V75.6zM184.4 75.6h9.1V82h-9.1v-6.4zm.2 8.7h8.7v24.8h-8.7V84.3zM198.4 75.6h8.7v33.5h-8.7V75.6zM211 96.8c0-7.3 5.2-13.1 12.5-13.1 8.6 0 12.5 6.3 12.5 13.6v1.8h-16.6c.7 2.7 2.7 4.1 5.4 4.1 2.1 0 3.7-.8 5.5-2.5l4.8 4c-2.4 3-5.8 5.1-10.8 5.1-7.8 0-13.3-5.2-13.3-13zm16.9-2.1c-.3-2.8-1.9-4.5-4.3-4.5-2.3 0-3.9 1.8-4.3 4.5h8.6zM239.2 100.2h9.1v9h-9.1v-9z"/></svg>