<svg id="Layer_1" xmlns="http://www.w3.org/2000/svg" viewBox="0 0 336 280"><style>.st0{fill:#490a09}</style><path class="st0" d="M18.6 123.3h25.7v7.8H27.5v5.5h15.2v7.4H27.5v11.5h-8.9v-32.2zM47.8 130.6h8.7v5c1.4-3.4 3.7-5.6 7.9-5.4v9.2h-.7c-4.5 0-7.1 2.6-7.1 8.4v7.7h-8.7v-24.9zM65.1 148.3c0-5.2 3.9-7.9 9.7-7.9 2.3 0 4.5.5 6 1v-.4c0-2.6-1.6-4-5-4-2.6 0-4.6.5-6.8 1.4l-1.8-6.2c2.8-1.1 5.8-1.9 10.1-1.9 4.5 0 7.5 1.1 9.5 3 1.9 1.8 2.7 4.4 2.7 7.9v14.3h-8.6v-2.6c-1.7 1.9-4 3.1-7.3 3.1-4.9 0-8.5-2.8-8.5-7.7zm15.8-1.9v-1.1c-.9-.4-2.1-.6-3.4-.6-2.5 0-4 1.2-4 3.1v.1c0 1.7 1.3 2.7 3.1 2.7 2.5-.1 4.3-1.7 4.3-4.2zM93.9 130.6h8.7v3.5c1.6-2.1 3.9-4 7.4-4 5.3 0 8.5 3.5 8.5 9.1v16.3h-8.7V142c0-2.7-1.4-4.2-3.5-4.2s-3.7 1.5-3.7 4.2v13.5h-8.7v-24.9zM122 143.1c0-7.1 5.5-13 13.3-13 5.1 0 8.5 2.2 10.6 5.6L140 140c-1.2-1.7-2.5-2.6-4.6-2.6-2.8 0-4.9 2.5-4.9 5.5v.1c0 3.2 2 5.6 5 5.6 2.1 0 3.4-1 4.8-2.6l5.8 4.2c-2.3 3.4-5.6 5.7-11.1 5.7-7.5.1-13-5.8-13-12.8zM147.5 143.1c0-7.2 5.8-13.1 13.8-13.1 7.9 0 13.7 5.8 13.7 12.9v.1c0 7.1-5.8 13-13.8 13s-13.7-5.8-13.7-12.9zm18.9 0c0-3.1-2.2-5.7-5.3-5.7-3.2 0-5.2 2.5-5.2 5.5v.1c0 3 2.2 5.6 5.3 5.6 3.2 0 5.2-2.5 5.2-5.5zM178.6 130.6h8.7v3.3c1.7-2.1 3.8-3.9 7.5-3.9 5.9 0 11 4.9 11 12.9v.1c0 8.1-5.1 13-11 13-3.8 0-6-1.7-7.6-3.6v10.4h-8.7v-32.2zm18.7 12.4c0-3.4-2.2-5.7-5.1-5.7-2.8 0-5.1 2.3-5.1 5.6v.1c0 3.3 2.3 5.6 5.1 5.6 2.8.1 5.1-2.2 5.1-5.6zM209.6 121.9h8.7V134c1.6-2.1 3.9-4 7.4-4 5.3 0 8.5 3.5 8.5 9.1v16.3h-8.7v-13.5c0-2.7-1.4-4.2-3.5-4.2s-3.7 1.5-3.7 4.2v13.5h-8.7v-33.5zM238.8 121.9h9.1v6.4h-9.1v-6.4zm.1 8.7h8.7v24.8h-8.7v-24.8zM252.7 121.9h8.7v33.5h-8.7v-33.5zM265.3 143.1c0-7.3 5.2-13.1 12.5-13.1 8.6 0 12.5 6.3 12.5 13.6v1.8h-16.6c.7 2.7 2.7 4.1 5.4 4.1 2.1 0 3.7-.8 5.5-2.5l4.8 4c-2.4 3-5.8 5.1-10.8 5.1-7.8-.1-13.3-5.3-13.3-13zm16.9-2.2c-.3-2.8-1.9-4.5-4.3-4.5-2.3 0-3.9 1.8-4.3 4.5h8.6zM293.5 146.4h9.1v9h-9.1v-9z"/></svg>