<svg id="Layer_1" xmlns="http://www.w3.org/2000/svg" viewBox="0 0 336 280"><style>.st0{fill:#490a09}</style><path class="st0" d="M18.6 169.5h25.9v7.6h-17v4.9h15.4v7H27.4v5.1h17.3v7.6H18.6v-32.2zM48.5 193.1v-16.3h8.7v13.5c0 2.7 1.4 4.2 3.5 4.2s3.6-1.5 3.6-4.2v-13.5H73v24.8h-8.7v-3.4c-1.6 2.1-3.9 3.9-7.4 3.9-5.2.1-8.4-3.4-8.4-9zM77.8 176.8h8.7v5c1.4-3.4 3.7-5.6 7.9-5.4v9.2h-.7c-4.5 0-7.1 2.6-7.1 8.4v7.7h-8.7v-24.9zM96 189.3c0-7.2 5.8-13.1 13.8-13.1 7.9 0 13.7 5.8 13.7 12.9v.1c0 7.1-5.8 13-13.8 13-7.9 0-13.7-5.8-13.7-12.9zm19 0c0-3.1-2.2-5.7-5.3-5.7-3.2 0-5.2 2.5-5.2 5.5v.1c0 3 2.2 5.6 5.3 5.6 3.2.1 5.2-2.5 5.2-5.5zM127.2 176.8h8.7v3.3c1.7-2.1 3.8-3.9 7.5-3.9 5.9 0 11 4.9 11 12.9v.1c0 8.1-5.1 13-11 13-3.8 0-6-1.7-7.6-3.6V209h-8.7v-32.2zm18.7 12.4c0-3.4-2.3-5.7-5.1-5.7s-5.1 2.3-5.1 5.6v.1c0 3.3 2.3 5.6 5.1 5.6 2.8.1 5.1-2.2 5.1-5.6zM158.2 168.1h8.7v12.1c1.6-2.1 3.9-4 7.4-4 5.3 0 8.5 3.5 8.5 9.1v16.3h-8.7v-13.5c0-2.7-1.4-4.2-3.5-4.2s-3.7 1.5-3.7 4.2v13.5h-8.7v-33.5zM187.3 168.1h9.1v6.4h-9.1v-6.4zm.2 8.7h8.7v24.8h-8.7v-24.8zM201.3 168.1h8.7v33.5h-8.7v-33.5zM213.9 189.3c0-7.3 5.2-13.1 12.5-13.1 8.6 0 12.5 6.3 12.5 13.6v1.8h-16.6c.7 2.7 2.7 4.1 5.4 4.1 2.1 0 3.7-.8 5.5-2.5l4.8 4c-2.4 3-5.8 5.1-10.8 5.1-7.8-.1-13.3-5.2-13.3-13zm16.9-2.1c-.3-2.8-1.9-4.5-4.3-4.5-2.3 0-3.9 1.8-4.3 4.5h8.6zM242.1 192.7h9.1v9h-9.1v-9z"/></svg>