<svg id="Layer_1" xmlns="http://www.w3.org/2000/svg" viewBox="0 0 336 280"><style>.st0{fill:#490a09}</style><path class="st0" d="M19.2 108.3h9.4l5.6 18.6 6.2-18.7h7.7l6.2 18.7 5.6-18.6h9.2l-10.7 32.4h-7.8l-6.5-18.5-6.4 18.5h-7.8l-10.7-32.4zM68.1 128.2c0-7.3 5.2-13.1 12.5-13.1 8.6 0 12.5 6.3 12.5 13.6v1.8H76.5c.7 2.7 2.7 4.1 5.4 4.1 2.1 0 3.7-.8 5.5-2.5l4.8 4c-2.4 3-5.8 5.1-10.8 5.1-7.8-.1-13.3-5.3-13.3-13zM85 126c-.3-2.8-1.9-4.5-4.3-4.5-2.3 0-3.9 1.8-4.3 4.5H85zM109.6 107h8.7v12c1.6-2.1 3.9-4 7.4-4 5.3 0 8.5 3.5 8.5 9.1v16.3h-8.7V127c0-2.7-1.4-4.2-3.5-4.2s-3.7 1.5-3.7 4.2v13.5h-8.7V107zM137.5 133.4c0-5.2 3.9-7.9 9.7-7.9 2.3 0 4.5.5 6 1v-.5c0-2.6-1.6-4-5-4-2.6 0-4.6.5-6.8 1.4l-1.8-6.2c2.8-1.1 5.8-1.9 10.1-1.9 4.5 0 7.5 1.1 9.5 3 1.9 1.8 2.7 4.4 2.7 7.9v14.3h-8.6v-2.6c-1.7 1.9-4 3.1-7.3 3.1-4.9 0-8.5-2.7-8.5-7.6zm15.8-1.9v-1.1c-.9-.4-2.1-.6-3.4-.6-2.5 0-4 1.2-4 3.1v.1c0 1.7 1.3 2.7 3.1 2.7 2.5-.1 4.3-1.7 4.3-4.2zM163.1 115.6h9.2l4.8 14.5 4.8-14.5h9l-9.9 25h-8l-9.9-25zM191.2 128.2c0-7.3 5.2-13.1 12.5-13.1 8.6 0 12.5 6.3 12.5 13.6v1.8h-16.6c.7 2.7 2.7 4.1 5.4 4.1 2.1 0 3.7-.8 5.5-2.5l4.8 4c-2.4 3-5.8 5.1-10.8 5.1-7.8-.1-13.3-5.3-13.3-13zm16.9-2.2c-.3-2.8-1.9-4.5-4.3-4.5-2.3 0-3.9 1.8-4.3 4.5h8.6z"/><g><path class="st0" d="M20.2 183.8l2.7-6.1c1.4.8 2.8 1.3 3.8 1.3.9 0 1.5-.2 2-1L19 153.6h9.1l5 15 4.7-15h9l-9.1 24.3c-2.2 5.8-4.5 8.1-9.5 8.1-3.1 0-5.7-.9-8-2.2zM47.2 166.2c0-7.2 5.8-13.1 13.8-13.1 7.9 0 13.7 5.8 13.7 12.9v.1c0 7.1-5.8 13-13.8 13-7.9 0-13.7-5.9-13.7-12.9zm19 0c0-3.1-2.2-5.7-5.3-5.7-3.2 0-5.2 2.5-5.2 5.5v.1c0 3 2.2 5.6 5.3 5.6 3.2 0 5.2-2.5 5.2-5.5zM78.2 169.9v-16.3h8.7v13.5c0 2.7 1.4 4.2 3.5 4.2s3.6-1.5 3.6-4.2v-13.5h8.7v24.8H94V175c-1.6 2.1-3.9 3.9-7.4 3.9-5.2.1-8.4-3.4-8.4-9zM107.5 153.6h8.7v5c1.4-3.4 3.7-5.6 7.9-5.4v9.2h-.7c-4.5 0-7.1 2.6-7.1 8.4v7.7h-8.7v-24.9zM148.2 154.1h-9.6v-7.8h28.2v7.8h-9.6v24.3h-8.9v-24.3zM168.1 146.3h10l7.3 20.3 7.3-20.3h9.8l-13 32.4h-8.3l-13.1-32.4zM199.2 169.5h9.1v9h-9.1v-9z"/></g></svg>