<svg id="Layer_1" xmlns="http://www.w3.org/2000/svg" viewBox="0 0 336 280"><style>.st0{fill:#fff}</style><path class="st0" d="M28.7 94.1h-9.6v-7.8h28.2v7.8h-9.6v24.3h-8.9V94.1zM50.7 85h8.7v12c1.6-2.1 3.9-4 7.4-4 5.3 0 8.5 3.5 8.5 9.1v16.3h-8.7V105c0-2.7-1.4-4.2-3.5-4.2s-3.7 1.5-3.7 4.2v13.5h-8.7V85zM78.8 106.2c0-7.3 5.2-13.1 12.5-13.1 8.6 0 12.5 6.3 12.5 13.6v1.8H87.2c.7 2.7 2.7 4.1 5.4 4.1 2.1 0 3.7-.8 5.5-2.5l4.8 4c-2.4 3-5.8 5.1-10.8 5.1-7.8-.1-13.3-5.3-13.3-13zm16.9-2.2c-.3-2.8-1.9-4.5-4.3-4.5-2.3 0-3.9 1.8-4.3 4.5h8.6zM118.7 86.3h9.4l5.6 18.6 6.2-18.7h7.7l6.2 18.7 5.6-18.6h9.2l-10.7 32.4h-7.8l-6.5-18.5-6.4 18.5h-7.8l-10.7-32.4zM167.6 106.2c0-7.2 5.8-13.1 13.8-13.1 7.9 0 13.7 5.8 13.7 12.9v.1c0 7.1-5.8 13-13.8 13s-13.7-5.9-13.7-12.9zm18.9 0c0-3.1-2.2-5.7-5.3-5.7-3.2 0-5.2 2.5-5.2 5.5v.1c0 3 2.2 5.6 5.3 5.6 3.2 0 5.2-2.5 5.2-5.5zM198.7 93.6h8.7v5c1.4-3.4 3.7-5.6 7.9-5.4v9.2h-.7c-4.5 0-7.1 2.6-7.1 8.4v7.7h-8.7V93.6zM218.5 85h8.7v33.5h-8.7V85zM231.2 106.2c0-8.2 5.1-13.1 10.9-13.1 3.8 0 6 1.7 7.6 3.6V85h8.7v33.5h-8.7v-3.3c-1.7 2.1-3.9 3.9-7.6 3.9-5.8-.1-10.9-5-10.9-12.9zm18.7-.1c0-3.4-2.3-5.7-5.1-5.7s-5.1 2.3-5.1 5.6v.1c0 3.3 2.3 5.6 5.1 5.6s5.1-2.3 5.1-5.6zM261.9 99.6c3.1-.3 4.7-1.8 4.6-4.3H263v-9h9v7.3c0 6.8-3.7 9.1-9.4 9.3l-.7-3.3zM274 115.4l3.3-5.3c2.8 1.9 6 2.8 8.5 2.8 1.5 0 2.2-.5 2.2-1.3v-.1c0-1-1.4-1.4-4-2.1-4.9-1.3-8.8-2.9-8.8-7.9v-.1c0-5.3 4.2-8.2 10-8.2 3.6 0 7.4 1.1 10.2 2.9l-3 5.5c-2.6-1.4-5.4-2.3-7.3-2.3-1.3 0-2 .5-2 1.2v.1c0 1 1.4 1.4 4 2.2 4.9 1.4 8.8 3.1 8.8 7.9v.1c0 5.5-4.1 8.3-10.2 8.3-4.1-.1-8.2-1.3-11.7-3.7z"/><g><path class="st0" d="M20.9 129.3h16.5c4 0 6.9 1 8.8 2.9 1.3 1.3 2.1 3 2.1 5.2v.1c0 3.7-2.1 5.9-5 7.2 3.9 1.3 6.4 3.5 6.4 7.9v.1c0 5.5-4.5 8.9-12.2 8.9H20.9v-32.3zm14.3 12.8c2.7 0 4.2-.9 4.2-2.8v-.1c0-1.7-1.4-2.8-4-2.8h-5.8v5.6h5.6zm1.3 12.2c2.7 0 4.3-1.1 4.3-2.9v-.1c0-1.7-1.4-2.9-4.4-2.9h-6.8v5.9h6.9zM52.2 149.2c0-7.3 5.2-13.1 12.5-13.1 8.6 0 12.5 6.3 12.5 13.6v1.8H60.6c.7 2.7 2.7 4.1 5.4 4.1 2.1 0 3.7-.8 5.5-2.5l4.8 4c-2.4 3-5.8 5.1-10.8 5.1-7.8-.1-13.3-5.3-13.3-13zm16.9-2.2c-.3-2.8-1.9-4.5-4.3-4.5-2.3 0-3.9 1.8-4.3 4.5h8.6zM79.1 158.3l3.3-5.3c2.8 1.9 6 2.8 8.5 2.8 1.5 0 2.2-.5 2.2-1.3v-.1c0-1-1.4-1.4-4-2.1-4.9-1.3-8.8-2.9-8.8-7.9v-.1c0-5.3 4.2-8.2 10-8.2 3.6 0 7.4 1.1 10.2 2.9l-3 5.5c-2.6-1.4-5.4-2.3-7.3-2.3-1.3 0-2 .5-2 1.2v.1c0 1 1.4 1.4 4 2.2 4.9 1.4 8.8 3.1 8.8 7.9v.1c0 5.5-4.1 8.3-10.1 8.3-4.2 0-8.3-1.2-11.8-3.7zM105.7 153.8v-10.1h-2.9v-7h2.9v-6.3h8.7v6.3h5.8v7h-5.8v8.4c0 1.7.8 2.5 2.4 2.5 1.1 0 2.3-.3 3.3-.8v6.8c-1.6.9-3.6 1.4-6.1 1.4-5.2 0-8.3-2.3-8.3-8.2zM145.1 137.1h-9.6v-7.8h28.2v7.8H154v24.3h-8.9v-24.3zM165 129.3h10l7.3 20.3 7.3-20.3h9.8l-13 32.4H178l-13-32.4z"/></g><g><path class="st0" d="M20.6 171h8.7v33.5h-8.7V171zM34.2 171h9.1v6.4h-9.1V171zm.1 8.6H43v24.8h-8.7v-24.8zM46.1 179.6h9.2l4.8 14.5 4.8-14.5h9l-9.9 25h-8l-9.9-25zM74.2 192.2c0-7.3 5.2-13.1 12.5-13.1 8.6 0 12.5 6.3 12.5 13.6v1.8H82.6c.7 2.7 2.7 4.1 5.4 4.1 2.1 0 3.7-.8 5.5-2.5l4.8 4c-2.4 3-5.8 5.1-10.8 5.1-7.8-.1-13.3-5.3-13.3-13zm16.9-2.2c-.3-2.8-1.9-4.5-4.3-4.5-2.3 0-3.9 1.8-4.3 4.5h8.6zM101.1 201.4l3.3-5.3c2.8 1.9 6 2.8 8.5 2.8 1.5 0 2.2-.5 2.2-1.3v-.1c0-1-1.4-1.4-4-2.1-4.9-1.3-8.8-2.9-8.8-7.9v-.1c0-5.3 4.2-8.2 10-8.2 3.6 0 7.4 1.1 10.2 2.9l-3 5.5c-2.6-1.4-5.4-2.3-7.3-2.3-1.3 0-2 .5-2 1.2v.1c0 1 1.4 1.4 4 2.2 4.9 1.4 8.8 3.1 8.8 7.9v.1c0 5.5-4.1 8.3-10.1 8.3-4.2-.1-8.4-1.3-11.8-3.7zM139.3 171h8.7v12c1.6-2.1 3.9-3.9 7.4-3.9 5.3 0 8.5 3.5 8.5 9.1v16.3h-8.7V191c0-2.7-1.4-4.2-3.5-4.2s-3.7 1.5-3.7 4.2v13.5h-8.7V171zM167.4 192.2c0-7.3 5.2-13.1 12.5-13.1 8.6 0 12.5 6.3 12.5 13.6v1.8h-16.6c.7 2.7 2.7 4.1 5.4 4.1 2.1 0 3.7-.8 5.5-2.5l4.8 4c-2.4 3-5.8 5.1-10.8 5.1-7.8-.1-13.3-5.3-13.3-13zm16.9-2.2c-.3-2.8-1.9-4.5-4.3-4.5-2.3 0-3.9 1.8-4.3 4.5h8.6zM196.2 179.6h8.7v5c1.4-3.4 3.7-5.6 7.9-5.4v9.2h-.8c-4.5 0-7.1 2.6-7.1 8.4v7.7h-8.7v-24.9zM214.4 192.2c0-7.3 5.2-13.1 12.5-13.1 8.6 0 12.5 6.3 12.5 13.6v1.8h-16.6c.7 2.7 2.7 4.1 5.4 4.1 2.1 0 3.7-.8 5.5-2.5l4.8 4c-2.4 3-5.8 5.1-10.8 5.1-7.8-.1-13.3-5.3-13.3-13zm16.9-2.2c-.3-2.8-1.9-4.5-4.3-4.5-2.3 0-3.9 1.8-4.3 4.5h8.6zM242.6 195.5h9.1v9h-9.1v-9z"/></g></svg>