<svg id="Layer_1" xmlns="http://www.w3.org/2000/svg" viewBox="0 0 336 280"><style>.st0{fill:#ab1f2d}.st1{fill:#fff}</style><path class="st0" d="M32.1 232.7c-7.2 0-13 5.8-13 13v3.6c0 7.2 5.8 13 13 13h89c7.2 0 13-5.8 13-13v-3.6c0-7.2-5.8-13-13-13h-89z"/><path class="st1" d="M26.3 243.2h2.4l2.1 7 2.3-7.1h2l2.3 7.1 2.1-7h2.4l-3.5 10.4h-2l-2.3-6.8-2.3 6.8h-2l-3.5-10.4zM46 243.1h2.1l4.4 10.4h-2.4l-.9-2.3h-4.4l-.9 2.3h-2.3l4.4-10.4zm2.4 6.1l-1.4-3.4-1.4 3.4h2.8zM55.2 245.3H52v-2.1h8.6v2.1h-3.2v8.3h-2.3v-8.3zM61.5 248.4c0-3 2.2-5.4 5.4-5.4 2 0 3.1.7 4.1 1.6l-1.5 1.7c-.8-.7-1.6-1.2-2.7-1.2-1.7 0-3 1.5-3 3.2 0 1.8 1.2 3.3 3 3.3 1.2 0 1.9-.5 2.7-1.2l1.5 1.5c-1.1 1.1-2.3 1.9-4.3 1.9-2.9-.1-5.2-2.4-5.2-5.4zM72.9 243.2h2.3v4.1h4.2v-4.1h2.3v10.4h-2.3v-4.2h-4.2v4.2h-2.3v-10.4zM88.6 243.2h2.1l4.9 6.4v-6.4h2.3v10.4H96l-5-6.6v6.6h-2.3v-10.4zM99.8 248.4c0-3 2.3-5.4 5.5-5.4s5.5 2.4 5.5 5.3-2.3 5.4-5.5 5.4-5.5-2.4-5.5-5.3zm8.7 0c0-1.8-1.3-3.3-3.1-3.3s-3.1 1.5-3.1 3.2c0 1.8 1.3 3.3 3.1 3.3s3.1-1.4 3.1-3.2zM111.5 243.2h2.4l2.1 7 2.3-7.1h2l2.3 7.1 2.1-7h2.4l-3.5 10.4h-2l-2.3-6.8-2.3 6.8h-2l-3.5-10.4z"/></svg>