<svg id="Layer_1" xmlns="http://www.w3.org/2000/svg" xmlns:xlink="http://www.w3.org/1999/xlink" viewBox="0 0 336 280"><style>.st0,.st1{clip-path:url(#SVGID_00000119807787253194927910000001738198432275932351_);fill:#ac1f2d}.st1{fill:#fff}</style><defs><path id="SVGID_1_" d="M17.9 10.6H68v55.2H17.9z"/></defs><clipPath id="SVGID_00000019645666465922759800000007743966157738431934_"><use xlink:href="#SVGID_1_" overflow="visible"/></clipPath><path d="M64.5 37.7c0 12.8-10.4 23.2-23.2 23.2S18.2 50.5 18.2 37.7c0-12.8 10.4-23.2 23.2-23.2s23.1 10.4 23.1 23.2" clip-path="url(#SVGID_00000019645666465922759800000007743966157738431934_)" fill="#ac1f2d"/><path d="M50.6 33.4V36h3L50 41.6h8.8v-2.7H55l3.4-5.5h-7.8zm-17.3-3.3l-2.8 6.3-2.8-6.3h-3.9v11.5H27v-6.1l2.8 6.1h1.4l2.8-6.3v6.3h3.2V30.1h-3.9zm12.8 0v4.1H42v-4.1h-3.6v11.5H42V37h4.1v4.6h3.6V30.1h-3.6zM50.3 46.4h3.1v-.9h-2v-.6h1.8V44h-1.8v-.6h2v-.9h-3.1v3.9zm-2.4 0c.8 0 1.3-.4 1.7-.9l-.8-.5c-.2.3-.5.5-.9.5-.5 0-.9-.4-.9-1s.4-1 .9-1c.4 0 .6.2.8.4l.8-.6c-.3-.5-.8-.8-1.6-.8-1.2 0-2 .9-2 2s.9 1.9 2 1.9m-3.9 0h1v-3.8h-1v3.8zm-3-.9c-.6 0-1-.5-1-1 0-.6.4-1 1-1s1 .5 1 1-.4 1-1 1m0 .9c1.2 0 2.1-.9 2.1-2s-.9-2-2-2c-1.2 0-2.1.9-2.1 2 0 1.2.8 2 2 2m-6.4 0h1.1V45H37v1.4h1.1v-3.8H37V44h-1.4v-1.4h-1.1v3.8zm-2.4 0c.8 0 1.3-.4 1.7-.9L33 45c-.2.3-.5.5-.9.5-.5 0-.9-.4-.9-1s.4-1 .9-1c.4 0 .6.2.8.4l.8-.6c-.3-.5-.8-.8-1.6-.8-1.2 0-2 .9-2 2 .1 1.1 1 1.9 2.1 1.9" clip-path="url(#SVGID_00000019645666465922759800000007743966157738431934_)" fill="#fff"/></svg>