<svg id="Layer_1" xmlns="http://www.w3.org/2000/svg" xmlns:xlink="http://www.w3.org/1999/xlink" viewBox="0 0 300 250"><style>.st0,.st1{clip-path:url(#SVGID_00000127741896252549795870000017340366931415389570_);fill:#ac1f2d}.st1{fill:#fff}</style><defs><path id="SVGID_1_" d="M17 9.4h46.8V61H17z"/></defs><clipPath id="SVGID_00000054949196467333067470000016264207386068669610_"><use xlink:href="#SVGID_1_" overflow="visible"/></clipPath><path d="M60.6 34.7c0 12-9.7 21.7-21.7 21.7s-21.7-9.7-21.7-21.7S26.9 13 38.9 13s21.7 9.7 21.7 21.7" clip-path="url(#SVGID_00000054949196467333067470000016264207386068669610_)" fill="#ac1f2d"/><path d="M47.5 30.7v2.5h2.8L47 38.4h8.2v-2.5h-3.5l3.2-5.1h-7.4zm-16.1-3.1l-2.6 5.9-2.6-5.9h-3.7v10.8h3v-5.7l2.6 5.7h1.3l2.6-5.9v5.9h3V27.6h-3.6zm11.9 0v3.8h-3.8v-3.8h-3.3v10.8h3.3v-4.3h3.8v4.3h3.3V27.6h-3.3zM47.3 42.8h2.9V42h-1.9v-.6H50v-.8h-1.7v-.5h1.9v-.8h-2.9v3.5zm-2.3.1c.8 0 1.2-.3 1.6-.8l-.7-.5c-.3.2-.5.4-.9.4-.5 0-.8-.4-.8-1 0-.5.4-.9.8-.9.3 0 .6.2.8.4l.7-.6c-.3-.4-.8-.7-1.5-.7-1.1 0-1.9.8-1.9 1.9.1 1 .9 1.8 1.9 1.8m-3.6-.1h1v-3.6h-1v3.6zm-2.8-.8c-.5 0-.9-.4-.9-1 0-.5.4-1 .9-1s.9.4.9 1c0 .5-.4 1-.9 1m0 .9c1.1 0 1.9-.8 1.9-1.9 0-1-.8-1.8-1.9-1.8-1.1 0-1.9.8-1.9 1.9 0 1 .8 1.8 1.9 1.8m-6-.1h1v-1.4h1.3v1.4h1v-3.6h-1v1.3h-1.3v-1.3h-1v3.6zm-2.3.1c.8 0 1.2-.3 1.6-.8l-.7-.5c-.2.3-.4.4-.8.4-.5 0-.8-.4-.8-1 0-.5.4-.9.8-.9.3 0 .6.2.8.4l.7-.6c-.3-.4-.8-.7-1.5-.7-1.1 0-1.9.8-1.9 1.9 0 1 .8 1.8 1.8 1.8" clip-path="url(#SVGID_00000054949196467333067470000016264207386068669610_)" fill="#fff"/></svg>