<?xml version="1.0" encoding="utf-8"?>
<!-- Generator: Adobe Illustrator 25.4.1, SVG Export Plug-In . SVG Version: 6.00 Build 0)  -->
<svg version="1.1" id="Layer_1" xmlns="http://www.w3.org/2000/svg" xmlns:xlink="http://www.w3.org/1999/xlink" x="0px" y="0px"
	 viewBox="0 0 336 280" style="enable-background:new 0 0 336 280;" xml:space="preserve">
<style type="text/css">
	.st0{fill:#490A09;}
</style>
<g>
	<path class="st0" d="M20.1,148L20.1,148c0-8.8,7-15.8,16.3-15.8s16.2,7,16.2,15.6v0.1c0,8.7-7,15.7-16.3,15.7S20.1,156.7,20.1,148z
		 M44.2,148L44.2,148c0-4.4-3.2-8.3-7.8-8.3c-4.6,0-7.6,3.7-7.6,8.1v0.1c0,4.4,3.2,8.2,7.7,8.2C41.1,156.1,44.2,152.4,44.2,148z"/>
	<path class="st0" d="M56.6,139.7h8.2v3.3c1.5-1.9,3.7-3.8,7-3.8c5,0,7.9,3.3,7.9,8.6v15.3h-8.2v-12.7c0-2.5-1.3-3.9-3.3-3.9
		c-2,0-3.5,1.4-3.5,3.9v12.7h-8.2V139.7z"/>
	<path class="st0" d="M84.2,131.5h8.2v31.5h-8.2V131.5z"/>
	<path class="st0" d="M96.3,168.1l2.5-5.7c1.3,0.8,2.7,1.3,3.6,1.3c0.8,0,1.4-0.2,1.9-1l-9.2-22.9h8.6l4.7,14.1l4.4-14.1h8.4
		l-8.6,22.8c-2,5.4-4.2,7.6-8.9,7.6C101,170.1,98.5,169.3,96.3,168.1z"/>
	<path class="st0" d="M135,151.5L135,151.5c0-6.7,5.4-12.3,13-12.3c7.5,0,12.9,5.5,12.9,12.1v0.1c0,6.7-5.4,12.2-13,12.2
		C140.4,163.6,135,158.1,135,151.5z M152.8,151.5L152.8,151.5c0-2.9-2.1-5.4-5-5.4c-3,0-4.9,2.4-4.9,5.2v0.1c0,2.9,2.1,5.3,5,5.3
		C150.9,156.7,152.8,154.3,152.8,151.5z"/>
	<path class="st0" d="M164.3,139.7h8.2v3.3c1.5-1.9,3.7-3.8,7-3.8c5,0,7.9,3.3,7.9,8.6v15.3h-8.2v-12.7c0-2.5-1.3-3.9-3.3-3.9
		c-2,0-3.5,1.4-3.5,3.9v12.7h-8.2V139.7z"/>
</g>
<g>
	<path class="st0" d="M21.2,171.8H30l7.2,11.7l7.2-11.7h8.9v30.2H45v-17.4l-7.7,11.8h-0.2l-7.7-11.8v17.3h-8.2V171.8z"/>
	<path class="st0" d="M58.7,171.8h8.4v11.3h10.8v-11.3h8.4v30.2h-8.4v-11.5H67.1v11.5h-8.4V171.8z"/>
	<path class="st0" d="M90.2,196.7l10.8-11.4H90.6v-6.5h21.3v5.4l-10.8,11.4h10.8v6.5H90.2V196.7z"/>
	<path class="st0" d="M126.8,187L126.8,187c0-8.9,6.8-15.8,15.9-15.8c6.2,0,10.2,2.6,12.8,6.3l-6.3,4.9c-1.7-2.2-3.7-3.5-6.6-3.5
		c-4.2,0-7.2,3.6-7.2,8v0.1c0,4.5,3,8.1,7.2,8.1c3.2,0,5-1.5,6.8-3.7l6.3,4.5c-2.9,3.9-6.7,6.8-13.4,6.8
		C133.7,202.7,126.8,196.1,126.8,187z"/>
	<path class="st0" d="M158.9,170.5h8.2v11.4c1.5-1.9,3.7-3.7,7-3.7c5,0,7.9,3.3,7.9,8.6v15.3h-8.2v-12.7c0-2.5-1.3-3.9-3.3-3.9
		c-2,0-3.5,1.4-3.5,3.9v12.7h-8.2V170.5z"/>
	<path class="st0" d="M185.3,190.5L185.3,190.5c0-6.7,5.4-12.3,13-12.3c7.5,0,12.9,5.5,12.9,12.1v0.1c0,6.7-5.4,12.2-13,12.2
		C190.7,202.6,185.3,197.1,185.3,190.5z M203.2,190.5L203.2,190.5c0-2.9-2.1-5.4-5-5.4c-3,0-4.9,2.4-4.9,5.2v0.1
		c0,2.9,2.1,5.3,5,5.3C201.3,195.7,203.2,193.3,203.2,190.5z"/>
	<path class="st0" d="M214.6,170.5h8.6v6h-8.6V170.5z M214.8,178.7h8.2v23.4h-8.2V178.7z"/>
	<path class="st0" d="M226.6,190.5L226.6,190.5c0-6.7,5.1-12.3,12.5-12.3c4.8,0,8,2.1,10,5.2l-5.6,4.1c-1.1-1.6-2.4-2.5-4.4-2.5
		c-2.6,0-4.6,2.3-4.6,5.2v0.1c0,3,1.9,5.3,4.7,5.3c1.9,0,3.2-0.9,4.5-2.4l5.5,4c-2.2,3.2-5.3,5.4-10.4,5.4
		C231.8,202.6,226.6,197.1,226.6,190.5z"/>
	<path class="st0" d="M250.6,190.5L250.6,190.5c0-6.9,4.9-12.3,11.8-12.3c8.1,0,11.8,5.9,11.8,12.8c0,0.5,0,1.1,0,1.7h-15.6
		c0.6,2.5,2.5,3.8,5.1,3.8c1.9,0,3.5-0.7,5.2-2.4l4.5,3.8c-2.2,2.9-5.5,4.8-10.2,4.8C255.8,202.6,250.6,197.7,250.6,190.5z
		 M266.5,188.4c-0.3-2.6-1.8-4.2-4.1-4.2c-2.2,0-3.6,1.7-4.1,4.2H266.5z"/>
	<path class="st0" d="M277.2,193.6h8.6v8.4h-8.6V193.6z"/>
</g>
</svg>
