<?xml version="1.0" encoding="utf-8"?>
<!-- Generator: Adobe Illustrator 25.4.1, SVG Export Plug-In . SVG Version: 6.00 Build 0)  -->
<svg version="1.1" id="Layer_1" xmlns="http://www.w3.org/2000/svg" xmlns:xlink="http://www.w3.org/1999/xlink" x="0px" y="0px"
	 viewBox="0 0 336 280" style="enable-background:new 0 0 336 280;" xml:space="preserve">
<style type="text/css">
	.st0{fill:#490A09;}
</style>
<g>
	<path class="st0" d="M26.1,88.8h8.5l4,11.7l10.3-11.7h9.4l-8.1,30.2h-8.4l4.6-17.4l-10.8,11.8h-0.2l-4.4-11.7l-4.6,17.3H18
		L26.1,88.8z"/>
	<path class="st0" d="M57,112.6c0-1.3,0.3-2.7,0.6-4.2l3.4-12.7h8.2L66,107.9c-0.2,0.6-0.3,1.4-0.3,1.9c0,1.6,0.9,2.5,2.6,2.5
		c2.3,0,3.6-1.6,4.3-4.2L76,95.7h8.2L78,119.1h-8.2l0.7-2.7c-1.6,1.7-3.9,3.2-6.7,3.2C59.6,119.6,57,116.9,57,112.6z"/>
	<path class="st0" d="M88.6,95.7h8.2l-1.3,4.7c2.2-3.3,5-5.4,8.8-5.1l-2.3,8.6h-0.7c-4.5,0-7.4,2.5-8.9,8.1l-1.9,7h-8.2L88.6,95.7z"
		/>
	<path class="st0" d="M102.9,110c0-8.4,5.9-14.8,12.6-14.8c3.5,0,5.7,1.5,7.1,3.7l3-11.4h8.2l-8.4,31.5h-8.2l0.7-2.5
		c-1.9,1.8-4.1,3-6.7,3C106.6,119.6,102.9,116,102.9,110z M121,106.1c0-2.5-1.7-4.1-4.1-4.1c-3.1,0-5.7,3-5.7,6.7
		c0,2.5,1.6,4.1,4,4.1C118.3,112.8,121,109.7,121,106.1z"/>
	<path class="st0" d="M143.9,113.5c1.7,0,3.2-0.6,5-1.9l3.8,4.5c-2.4,2.1-5.5,3.5-9.5,3.5c-6.9,0-11.1-4.1-11.1-10.4
		c0-6.9,5.4-14.1,14-14.1c6.9,0,9.9,4.6,9.9,9.7c0,1.6-0.3,3.3-0.9,4.8h-15.5C139.7,112,141,113.5,143.9,113.5z M148.4,105.4
		c0.1-0.4,0.2-0.8,0.2-1.3c0-1.6-1-3-3.2-3c-2.2,0-4.4,1.4-5.4,4.2H148.4z"/>
	<path class="st0" d="M162,95.7h8.2l-1.3,4.7c2.2-3.3,5-5.4,8.8-5.1l-2.3,8.6h-0.7c-4.5,0-7.4,2.5-8.9,8.1l-1.9,7h-8.2L162,95.7z"/>
	<path class="st0" d="M195,88.8h8.4l-8.1,30.2h-8.4L195,88.8z"/>
	<path class="st0" d="M206.6,95.7h8.2l-0.7,2.7c1.6-1.7,3.9-3.2,6.7-3.2c4.2,0,6.8,2.7,6.8,7c0,1.3-0.3,2.7-0.7,4.2l-3.4,12.7h-8.2
		l3.3-12.2c0.2-0.6,0.3-1.4,0.3-1.9c0-1.6-0.9-2.5-2.6-2.5c-2.3,0-3.6,1.6-4.4,4.2l-3.3,12.4h-8.2L206.6,95.7z"/>
	<path class="st0" d="M229.9,110.6h8.6l-2.3,8.4h-8.5L229.9,110.6z"/>
	<path class="st0" d="M242.9,110.6h8.6l-2.3,8.4h-8.5L242.9,110.6z"/>
	<path class="st0" d="M256,110.6h8.6l-2.3,8.4h-8.5L256,110.6z"/>
</g>
</svg>
