<?xml version="1.0" encoding="utf-8"?>
<!-- Generator: Adobe Illustrator 25.4.1, SVG Export Plug-In . SVG Version: 6.00 Build 0)  -->
<svg version="1.1" id="Layer_1" xmlns="http://www.w3.org/2000/svg" xmlns:xlink="http://www.w3.org/1999/xlink" x="0px" y="0px"
	 viewBox="0 0 336 280" style="enable-background:new 0 0 336 280;" xml:space="preserve">
<style type="text/css">
	.st0{fill:#490A09;}
</style>
<g>
	<path class="st0" d="M18.7,101h8.9l7.2,11.7L42,101h8.9v30.2h-8.3v-17.4l-7.7,11.8h-0.2l-7.7-11.8v17.3h-8.2V101z"/>
	<path class="st0" d="M55.5,123.1v-15.3h8.2v12.7c0,2.5,1.3,3.9,3.3,3.9c1.9,0,3.4-1.4,3.4-3.9v-12.7h8.2v23.4h-8.2V128
		c-1.5,1.9-3.7,3.7-7,3.7C58.5,131.7,55.5,128.5,55.5,123.1z"/>
	<path class="st0" d="M83.1,107.9h8.2v4.7c1.3-3.2,3.5-5.3,7.4-5.1v8.6H98c-4.3,0-6.7,2.5-6.7,7.9v7.3h-8.2V107.9z"/>
	<path class="st0" d="M100.3,119.6L100.3,119.6c0-7.7,4.8-12.3,10.3-12.3c3.5,0,5.6,1.6,7.2,3.4v-11h8.2v31.5h-8.2v-3.1
		c-1.6,1.9-3.6,3.6-7.1,3.6C105.1,131.7,100.3,127.1,100.3,119.6z M117.9,119.6L117.9,119.6c0-3.2-2.1-5.4-4.8-5.4s-4.8,2.2-4.8,5.3
		v0.1c0,3.1,2.2,5.3,4.8,5.3S117.9,122.7,117.9,119.6z"/>
	<path class="st0" d="M129.4,119.6L129.4,119.6c0-6.9,4.9-12.3,11.8-12.3c8.1,0,11.8,5.9,11.8,12.8c0,0.5,0,1.1,0,1.7h-15.6
		c0.6,2.5,2.5,3.8,5.1,3.8c1.9,0,3.5-0.7,5.2-2.4l4.5,3.8c-2.2,2.9-5.5,4.8-10.2,4.8C134.6,131.8,129.4,126.9,129.4,119.6z
		 M145.3,117.6c-0.3-2.6-1.8-4.2-4.1-4.2c-2.2,0-3.6,1.7-4.1,4.2H145.3z"/>
	<path class="st0" d="M156.5,107.9h8.2v4.7c1.3-3.2,3.5-5.3,7.4-5.1v8.6h-0.7c-4.3,0-6.7,2.5-6.7,7.9v7.3h-8.2V107.9z"/>
	<path class="st0" d="M173.2,128.3l3.1-5c2.7,1.8,5.6,2.7,8,2.7c1.4,0,2.1-0.4,2.1-1.3v-0.1c0-0.9-1.3-1.3-3.8-2
		c-4.6-1.2-8.3-2.8-8.3-7.5v-0.1c0-5,4-7.7,9.4-7.7c3.4,0,7,1,9.6,2.7l-2.8,5.2c-2.4-1.3-5.1-2.2-6.9-2.2c-1.3,0-1.9,0.5-1.9,1.1
		v0.1c0,0.9,1.3,1.3,3.8,2.1c4.6,1.3,8.3,2.9,8.3,7.4v0.1c0,5.1-3.8,7.8-9.5,7.8C180.4,131.7,176.5,130.6,173.2,128.3z"/>
</g>
<g>
	<path class="st0" d="M19.6,163v-9.5h-2.8v-6.6h2.8v-5.9h8.2v5.9h5.4v6.6h-5.4v7.9c0,1.6,0.7,2.3,2.2,2.3c1.1,0,2.1-0.3,3.1-0.8v6.4
		c-1.5,0.8-3.4,1.3-5.7,1.3C22.6,170.7,19.6,168.5,19.6,163z"/>
	<path class="st0" d="M35.3,158.6L35.3,158.6c0-6.7,5.4-12.3,13-12.3c7.5,0,12.9,5.5,12.9,12.1v0.1c0,6.7-5.4,12.2-13,12.2
		C40.7,170.8,35.3,165.3,35.3,158.6z M53.1,158.6L53.1,158.6c0-2.9-2.1-5.4-5-5.4c-3,0-4.9,2.4-4.9,5.2v0.1c0,2.9,2.1,5.3,5,5.3
		C51.2,163.8,53.1,161.5,53.1,158.6z"/>
	<path class="st0" d="M74.7,167.3l3.1-5c2.7,1.8,5.6,2.7,8,2.7c1.4,0,2.1-0.4,2.1-1.3v-0.1c0-0.9-1.3-1.3-3.8-2
		c-4.6-1.2-8.3-2.8-8.3-7.5v-0.1c0-5,4-7.7,9.4-7.7c3.4,0,7,1,9.6,2.7l-2.8,5.2c-2.4-1.3-5.1-2.2-6.9-2.2c-1.3,0-1.9,0.5-1.9,1.1
		v0.1c0,0.9,1.3,1.3,3.8,2.1c4.6,1.3,8.3,2.9,8.3,7.4v0.1c0,5.1-3.8,7.8-9.5,7.8C81.9,170.7,78,169.6,74.7,167.3z"/>
	<path class="st0" d="M97.8,158.6L97.8,158.6c0-6.7,5.4-12.3,13-12.3c7.5,0,12.9,5.5,12.9,12.1v0.1c0,6.7-5.4,12.2-13,12.2
		C103.2,170.8,97.8,165.3,97.8,158.6z M115.6,158.6L115.6,158.6c0-2.9-2.1-5.4-5-5.4c-3,0-4.9,2.4-4.9,5.2v0.1c0,2.9,2.1,5.3,5,5.3
		C113.7,163.8,115.6,161.5,115.6,158.6z"/>
	<path class="st0" d="M127.2,138.7h8.2v31.5h-8.2V138.7z"/>
	<path class="st0" d="M138.2,146.9h8.6l4.5,13.7l4.5-13.7h8.5l-9.3,23.5h-7.5L138.2,146.9z"/>
	<path class="st0" d="M164.7,158.6L164.7,158.6c0-6.9,4.9-12.3,11.8-12.3c8.1,0,11.8,5.9,11.8,12.8c0,0.5,0,1.1,0,1.7h-15.6
		c0.6,2.5,2.5,3.8,5.1,3.8c1.9,0,3.5-0.7,5.2-2.4l4.5,3.8c-2.2,2.9-5.5,4.8-10.2,4.8C169.9,170.8,164.7,165.9,164.7,158.6z
		 M180.6,156.6c-0.3-2.6-1.8-4.2-4.1-4.2c-2.2,0-3.6,1.7-4.1,4.2H180.6z"/>
	<path class="st0" d="M191.2,161.8h8.6v8.4h-8.6V161.8z"/>
</g>
</svg>
