<?xml version="1.0" encoding="utf-8"?>
<!-- Generator: Adobe Illustrator 25.4.1, SVG Export Plug-In . SVG Version: 6.00 Build 0)  -->
<svg version="1.1" id="Layer_1" xmlns="http://www.w3.org/2000/svg" xmlns:xlink="http://www.w3.org/1999/xlink" x="0px" y="0px"
	 viewBox="0 0 336 280" style="enable-background:new 0 0 336 280;" xml:space="preserve">
<style type="text/css">
	.st0{fill:#AB1F2D;}
	.st1{fill:#FFFFFF;}
</style>
<path class="st0" d="M32.8,233.3c-7.2,0-13,5.8-13,13v3.6c0,7.2,5.8,13,13,13h89c7.2,0,13-5.8,13-13v-3.6c0-7.2-5.8-13-13-13H32.8z"
	/>
<g>
	<path class="st1" d="M27,243.8h2.4l2.1,7l2.3-7.1h2l2.3,7.1l2.1-7h2.4l-3.5,10.4h-2l-2.3-6.8l-2.3,6.8h-2L27,243.8z"/>
	<path class="st1" d="M46.6,243.7h2.1l4.4,10.4h-2.4l-0.9-2.3h-4.4l-0.9,2.3h-2.3L46.6,243.7z M49,249.8l-1.4-3.4l-1.4,3.4H49z"/>
	<path class="st1" d="M55.9,245.9h-3.2v-2.1h8.6v2.1h-3.2v8.3h-2.3V245.9z"/>
	<path class="st1" d="M62.1,249L62.1,249c0-3,2.2-5.4,5.4-5.4c2,0,3.1,0.7,4.1,1.6l-1.5,1.7c-0.8-0.7-1.6-1.2-2.7-1.2
		c-1.7,0-3,1.5-3,3.2v0c0,1.8,1.2,3.3,3,3.3c1.2,0,1.9-0.5,2.7-1.2l1.5,1.5c-1.1,1.1-2.3,1.9-4.3,1.9C64.4,254.3,62.1,252,62.1,249z
		"/>
	<path class="st1" d="M73.5,243.8h2.3v4.1H80v-4.1h2.3v10.4H80V250h-4.2v4.2h-2.3V243.8z"/>
	<path class="st1" d="M89.2,243.8h2.1l4.9,6.4v-6.4h2.3v10.4h-1.9l-5-6.6v6.6h-2.3V243.8z"/>
	<path class="st1" d="M100.5,249L100.5,249c0-3,2.3-5.4,5.5-5.4c3.2,0,5.5,2.4,5.5,5.3v0c0,2.9-2.3,5.4-5.5,5.4
		C102.8,254.3,100.5,251.9,100.5,249z M109.1,249L109.1,249c0-1.8-1.3-3.3-3.1-3.3c-1.8,0-3.1,1.5-3.1,3.2v0c0,1.8,1.3,3.3,3.1,3.3
		C107.8,252.2,109.1,250.8,109.1,249z"/>
	<path class="st1" d="M112.1,243.8h2.4l2.1,7l2.3-7.1h2l2.3,7.1l2.1-7h2.4l-3.5,10.4h-2l-2.3-6.8l-2.3,6.8h-2L112.1,243.8z"/>
</g>
</svg>
