<?xml version="1.0" encoding="utf-8"?>
<!-- Generator: Adobe Illustrator 25.4.1, SVG Export Plug-In . SVG Version: 6.00 Build 0)  -->
<svg version="1.1" id="Layer_1" xmlns="http://www.w3.org/2000/svg" xmlns:xlink="http://www.w3.org/1999/xlink" x="0px" y="0px"
	 viewBox="0 0 336 280" style="enable-background:new 0 0 336 280;" xml:space="preserve">
<style type="text/css">
	.st0{clip-path:url(#SVGID_00000056415301295810649430000017566053071873562005_);fill:#AC1F2D;}
	.st1{clip-path:url(#SVGID_00000056415301295810649430000017566053071873562005_);fill:#FFFFFF;}
</style>
<g>
	<defs>
		<rect id="SVGID_1_" x="17.6" y="11" width="50.1" height="55.2"/>
	</defs>
	<clipPath id="SVGID_00000146492555605804250700000011227497805798754993_">
		<use xlink:href="#SVGID_1_"  style="overflow:visible;"/>
	</clipPath>
	<path style="clip-path:url(#SVGID_00000146492555605804250700000011227497805798754993_);fill:#AC1F2D;" d="M64.2,38
		c0,12.8-10.4,23.2-23.2,23.2S17.9,50.8,17.9,38c0-12.8,10.4-23.2,23.2-23.2S64.2,25.2,64.2,38"/>
	<path style="clip-path:url(#SVGID_00000146492555605804250700000011227497805798754993_);fill:#FFFFFF;" d="M50.3,33.8v2.6h3
		L49.8,42h8.8v-2.7h-3.8l3.4-5.5H50.3z M33.1,30.5l-2.8,6.3l-2.8-6.3h-3.9V42h3.2v-6.1l2.8,6.1H31l2.8-6.3V42H37V30.5H33.1z
		 M45.8,30.5v4.1h-4.1v-4.1h-3.6V42h3.6v-4.6h4.1V42h3.6V30.5H45.8z"/>
	<path style="clip-path:url(#SVGID_00000146492555605804250700000011227497805798754993_);fill:#FFFFFF;" d="M50.1,46.7h3.1v-0.9h-2
		v-0.6h1.8v-0.8h-1.8v-0.6h2v-0.9h-3.1V46.7z M47.6,46.8c0.8,0,1.3-0.4,1.7-0.9l-0.8-0.6c-0.2,0.3-0.5,0.5-0.9,0.5
		c-0.5,0-0.9-0.4-0.9-1v0c0-0.6,0.4-1,0.9-1c0.4,0,0.6,0.2,0.8,0.4l0.8-0.6c-0.3-0.5-0.8-0.8-1.6-0.8c-1.2,0-2,0.9-2,2v0
		C45.6,46,46.5,46.8,47.6,46.8 M43.7,46.7h1.1v-3.8h-1.1V46.7z M40.7,45.8c-0.6,0-1-0.5-1-1v0c0-0.6,0.4-1,1-1c0.6,0,1,0.5,1,1v0
		C41.7,45.4,41.3,45.8,40.7,45.8 M40.7,46.8c1.2,0,2.1-0.9,2.1-2v0c0-1.1-0.9-2-2-2c-1.2,0-2.1,0.9-2.1,2v0
		C38.7,45.9,39.5,46.8,40.7,46.8 M34.3,46.7h1.1v-1.4h1.4v1.4h1.1v-3.8h-1.1v1.4h-1.4v-1.4h-1.1V46.7z M31.9,46.8
		c0.8,0,1.3-0.4,1.7-0.9l-0.8-0.6c-0.2,0.3-0.5,0.5-0.9,0.5c-0.5,0-0.9-0.4-0.9-1v0c0-0.6,0.4-1,0.9-1c0.4,0,0.6,0.2,0.8,0.4
		l0.8-0.6c-0.3-0.5-0.8-0.8-1.6-0.8c-1.2,0-2,0.9-2,2v0C29.9,46,30.8,46.8,31.9,46.8"/>
</g>
</svg>
