<?xml version="1.0" encoding="utf-8"?>
<!-- Generator: Adobe Illustrator 26.3.1, SVG Export Plug-In . SVG Version: 6.00 Build 0)  -->
<svg version="1.1" id="Layer_1" xmlns="http://www.w3.org/2000/svg" xmlns:xlink="http://www.w3.org/1999/xlink" x="0px" y="0px"
	 viewBox="0 0 728 90" style="enable-background:new 0 0 728 90;" xml:space="preserve">
<style type="text/css">
	.st0{fill:#490A09;}
</style>
<g>
	<path class="st0" d="M69.1,29.5c0-9.6,7.8-18,19.3-18c6,0,10.4,2.5,12.5,5.1L95.3,22c-1.8-1.8-4.2-3.1-7.4-3.1
		c-6.1,0-10.2,4.7-10.2,10.2c0,4.2,3.1,6.4,6.8,6.4c1.7,0,3-0.3,4-0.8l1.2-4h-5.8l1.6-6.1h13.8l-4.3,15.2c-3,1.7-6.8,3-11.3,3
		C76.5,42.8,69.1,38.8,69.1,29.5z"/>
	<path class="st0" d="M107.5,10.8h8.2l-8.4,31.4H99L107.5,10.8z"/>
	<path class="st0" d="M114,31.9c0-7,5.9-13.5,13.7-13.5c7.1,0,11.4,4.7,11.4,10.8c0,7.1-5.9,13.5-13.7,13.5
		C118.3,42.8,114,38.1,114,31.9z M131.3,29.5c0-2.6-1.6-4.3-4-4.3c-3.2,0-5.4,3.4-5.4,6.4c0,2.7,1.6,4.3,4,4.3
		C129.1,36,131.3,32.6,131.3,29.5z"/>
	<path class="st0" d="M145.7,18.9h8.2l-1.2,4.7c2.2-3.3,4.9-5.3,8.7-5.1l-2.3,8.6h-0.7c-4.5,0-7.4,2.5-8.8,8l-1.9,7h-8.2L145.7,18.9
		z"/>
	<path class="st0" d="M164.4,18.9h8.2l-6.2,23.3h-8.2L164.4,18.9z M166.5,10.8h8.5l-1.6,6h-8.5L166.5,10.8z"/>
	<path class="st0" d="M171.9,36.4c0-5.1,4.1-8.2,10.2-8.2c2.1,0,4,0.3,5.9,0.9l0.1-0.3c0.1-0.4,0.2-0.9,0.2-1.4c0-1.5-1.2-2.5-4-2.5
		c-2.2,0-4.6,0.5-6.3,1.2l-1.2-5.9c2.5-0.9,5.8-1.4,9.2-1.4c7,0,10.4,2.8,10.4,7.4c0,1.1-0.2,2.2-0.5,3.4l-3.4,12.8h-8l0.6-2.5
		c-2,1.8-4,3-6.7,3C174.5,42.7,171.9,40.2,171.9,36.4z M186.9,33.4l0.2-0.8c-0.9-0.3-1.9-0.5-3.1-0.5c-2.6,0-4.3,1.2-4.3,3.4
		c0,1.3,0.9,2.1,2.3,2.1C184.3,37.7,186.3,35.8,186.9,33.4z"/>
</g>
<g>
	<path class="st0" d="M199.4,33.8h8.5v8.4h-8.5V33.8z"/>
</g>
</svg>
