<?xml version="1.0" encoding="utf-8"?>
<!-- Generator: Adobe Illustrator 26.3.1, SVG Export Plug-In . SVG Version: 6.00 Build 0)  -->
<svg version="1.1" id="Layer_1" xmlns="http://www.w3.org/2000/svg" xmlns:xlink="http://www.w3.org/1999/xlink" x="0px" y="0px"
	 viewBox="0 0 728 90" style="enable-background:new 0 0 728 90;" xml:space="preserve">
<style type="text/css">
	.st0{fill:#490A09;}
</style>
<g>
	<path class="st0" d="M77.8,57.4h-9v-7.3h26.4v7.3h-9v22.8h-8.3V57.4z"/>
	<path class="st0" d="M98.3,48.8h8.2v11.3c1.5-1.9,3.7-3.7,7-3.7c4.9,0,7.9,3.3,7.9,8.6v15.2h-8.2V67.6c0-2.5-1.3-3.9-3.3-3.9
		c-2,0-3.4,1.4-3.4,3.9v12.6h-8.2V48.8z"/>
	<path class="st0" d="M124.6,68.7L124.6,68.7c0-6.9,4.9-12.3,11.7-12.3c8,0,11.7,5.9,11.7,12.7c0,0.5,0,1.1,0,1.7h-15.6
		c0.6,2.5,2.5,3.8,5,3.8c1.9,0,3.5-0.7,5.2-2.4l4.5,3.7c-2.2,2.8-5.5,4.7-10.1,4.7C129.8,80.8,124.6,75.9,124.6,68.7z M140.4,66.7
		c-0.3-2.6-1.8-4.2-4-4.2c-2.1,0-3.6,1.7-4,4.2H140.4z"/>
	<path class="st0" d="M163.5,57h8.2v3.3c1.5-1.9,3.7-3.8,7-3.8c4.9,0,7.9,3.3,7.9,8.6v15.2h-8.2V67.6c0-2.5-1.3-3.9-3.3-3.9
		c-2,0-3.4,1.4-3.4,3.9v12.6h-8.2V57z"/>
	<path class="st0" d="M189.8,68.7L189.8,68.7c0-6.9,4.9-12.3,11.7-12.3c8,0,11.7,5.9,11.7,12.7c0,0.5,0,1.1,0,1.7h-15.6
		c0.6,2.5,2.5,3.8,5,3.8c1.9,0,3.5-0.7,5.2-2.4l4.5,3.7c-2.2,2.8-5.5,4.7-10.1,4.7C195,80.8,189.8,75.9,189.8,68.7z M205.6,66.7
		c-0.3-2.6-1.8-4.2-4-4.2c-2.1,0-3.6,1.7-4,4.2H205.6z"/>
	<path class="st0" d="M214.1,57h8l3.1,11.7l3.6-11.8h6.8l3.6,11.9l3.1-11.8h7.9l-7.2,23.4h-7.1L232,68.3l-3.9,12.1h-7L214.1,57z"/>
	<path class="st0" d="M265.1,50.1h24.1v7.3h-15.7v5.1h14.2v6.9h-14.2v10.8h-8.3V50.1z"/>
	<path class="st0" d="M292.5,57h8.2v4.7c1.3-3.2,3.5-5.2,7.4-5.1v8.6h-0.7c-4.3,0-6.7,2.5-6.7,7.8v7.2h-8.2V57z"/>
	<path class="st0" d="M309.6,68.7L309.6,68.7c0-6.9,4.9-12.3,11.7-12.3c8,0,11.7,5.9,11.7,12.7c0,0.5,0,1.1,0,1.7h-15.6
		c0.6,2.5,2.5,3.8,5,3.8c1.9,0,3.5-0.7,5.2-2.4l4.5,3.7c-2.2,2.8-5.5,4.7-10.1,4.7C314.8,80.8,309.6,75.9,309.6,68.7z M325.4,66.7
		c-0.3-2.6-1.8-4.2-4-4.2c-2.1,0-3.6,1.7-4,4.2H325.4z"/>
	<path class="st0" d="M336.6,57h8.2v3.3c1.5-1.9,3.7-3.8,7-3.8c4.9,0,7.9,3.3,7.9,8.6v15.2h-8.2V67.6c0-2.5-1.3-3.9-3.3-3.9
		c-2,0-3.4,1.4-3.4,3.9v12.6h-8.2V57z"/>
	<path class="st0" d="M362.9,68.7L362.9,68.7c0-6.7,5.1-12.2,12.5-12.2c4.8,0,8,2.1,9.9,5.2l-5.5,4.1c-1.1-1.5-2.4-2.5-4.3-2.5
		c-2.6,0-4.6,2.3-4.6,5.2v0.1c0,3,1.9,5.3,4.6,5.3c1.9,0,3.2-0.9,4.5-2.4l5.5,4c-2.1,3.2-5.2,5.3-10.4,5.3
		C368,80.8,362.9,75.3,362.9,68.7z"/>
	<path class="st0" d="M388.3,48.8h8.2v11.3c1.5-1.9,3.7-3.7,7-3.7c4.9,0,7.9,3.3,7.9,8.6v15.2h-8.2V67.6c0-2.5-1.3-3.9-3.3-3.9
		c-2,0-3.4,1.4-3.4,3.9v12.6h-8.2V48.8z"/>
	<path class="st0" d="M428.9,73v-9.5h-2.8V57h2.8v-5.9h8.2V57h5.4v6.6h-5.4v7.9c0,1.6,0.7,2.3,2.2,2.3c1.1,0,2.1-0.3,3.1-0.8v6.4
		c-1.5,0.8-3.4,1.3-5.7,1.3C431.8,80.7,428.9,78.5,428.9,73z"/>
	<path class="st0" d="M446,48.8h8.2v11.3c1.5-1.9,3.7-3.7,7-3.7c4.9,0,7.9,3.3,7.9,8.6v15.2h-8.2V67.6c0-2.5-1.3-3.9-3.3-3.9
		c-2,0-3.4,1.4-3.4,3.9v12.6H446V48.8z"/>
	<path class="st0" d="M473.3,57h8.2v4.7c1.3-3.2,3.5-5.2,7.4-5.1v8.6h-0.7c-4.3,0-6.7,2.5-6.7,7.8v7.2h-8.2V57z"/>
	<path class="st0" d="M491.7,48.8h8.5v6h-8.5V48.8z M491.8,57h8.2v23.3h-8.2V57z"/>
	<path class="st0" d="M504.7,48.8h8.2v31.4h-8.2V48.8z"/>
	<path class="st0" d="M517.6,48.8h8.2v31.4h-8.2V48.8z"/>
	<path class="st0" d="M529.4,68.7L529.4,68.7c0-6.9,4.9-12.3,11.7-12.3c8,0,11.7,5.9,11.7,12.7c0,0.5,0,1.1,0,1.7h-15.6
		c0.6,2.5,2.5,3.8,5,3.8c1.9,0,3.5-0.7,5.2-2.4l4.5,3.7c-2.2,2.8-5.5,4.7-10.1,4.7C534.6,80.8,529.4,75.9,529.4,68.7z M545.2,66.7
		c-0.3-2.6-1.8-4.2-4-4.2c-2.1,0-3.6,1.7-4,4.2H545.2z"/>
	<path class="st0" d="M556.4,57h8.2v4.7c1.3-3.2,3.5-5.2,7.4-5.1v8.6h-0.7c-4.3,0-6.7,2.5-6.7,7.8v7.2h-8.2V57z"/>
	<path class="st0" d="M571.7,71.8h8.5v8.4h-8.5V71.8z"/>
</g>
</svg>
