<?xml version="1.0" encoding="utf-8"?>
<!-- Generator: Adobe Illustrator 26.3.1, SVG Export Plug-In . SVG Version: 6.00 Build 0)  -->
<svg version="1.1" id="Layer_1" xmlns="http://www.w3.org/2000/svg" xmlns:xlink="http://www.w3.org/1999/xlink" x="0px" y="0px"
	 viewBox="0 0 728 90" style="enable-background:new 0 0 728 90;" xml:space="preserve">
<style type="text/css">
	.st0{fill:#490A09;}
</style>
<g>
	<path class="st0" d="M68.6,20.4H77v11.3h10.7V20.4H96v30.1h-8.3V39H77v11.4h-8.3V20.4z"/>
	<path class="st0" d="M99.9,38.9L99.9,38.9c0-6.9,4.9-12.3,11.7-12.3c8,0,11.7,5.9,11.7,12.7c0,0.5,0,1.1,0,1.7h-15.6
		c0.6,2.5,2.5,3.8,5,3.8c1.9,0,3.5-0.7,5.2-2.4l4.5,3.7c-2.2,2.8-5.5,4.7-10.1,4.7C105.1,51,99.9,46.2,99.9,38.9z M115.7,36.9
		c-0.3-2.6-1.8-4.2-4-4.2c-2.1,0-3.6,1.7-4,4.2H115.7z"/>
	<path class="st0" d="M137.1,27.2h8l3.1,11.7l3.6-11.8h6.8l3.6,11.9l3.1-11.8h7.9l-7.2,23.4h-7.1l-3.8-12.1l-3.9,12.1h-7L137.1,27.2
		z"/>
	<path class="st0" d="M173.6,43.8L173.6,43.8c0-4.9,3.7-7.4,9.1-7.4c2.1,0,4.3,0.4,5.6,0.9v-0.4c0-2.4-1.5-3.8-4.6-3.8
		c-2.5,0-4.3,0.5-6.4,1.3l-1.7-5.8c2.6-1.1,5.4-1.8,9.4-1.8c4.2,0,7,1,8.9,2.8c1.8,1.7,2.5,4.1,2.5,7.4v13.4h-8.1V48
		c-1.6,1.8-3.8,2.9-6.8,2.9C177,51,173.6,48.4,173.6,43.8z M188.4,42V41c-0.8-0.3-2-0.6-3.2-0.6c-2.4,0-3.7,1.2-3.7,2.9v0.1
		c0,1.6,1.2,2.5,2.9,2.5C186.7,45.9,188.4,44.3,188.4,42z"/>
	<path class="st0" d="M198.8,47.5l3.1-4.9c2.7,1.8,5.6,2.7,8,2.7c1.4,0,2.1-0.4,2.1-1.2v-0.1c0-0.9-1.3-1.3-3.7-2
		c-4.6-1.2-8.3-2.8-8.3-7.4v-0.1c0-4.9,4-7.7,9.3-7.7c3.4,0,6.9,1,9.6,2.7l-2.8,5.2c-2.4-1.3-5-2.1-6.9-2.1c-1.2,0-1.9,0.5-1.9,1.1
		v0.1c0,0.9,1.3,1.3,3.8,2.1c4.6,1.3,8.3,2.9,8.3,7.4v0.1c0,5.1-3.8,7.8-9.5,7.8C205.9,51,202,49.9,198.8,47.5z"/>
	<path class="st0" d="M234.6,19.1h8.2v11.3c1.5-1.9,3.7-3.7,7-3.7c4.9,0,7.9,3.3,7.9,8.6v15.2h-8.2V37.9c0-2.5-1.3-3.9-3.3-3.9
		c-2,0-3.4,1.4-3.4,3.9v12.6h-8.2V19.1z"/>
	<path class="st0" d="M260.9,38.9L260.9,38.9c0-6.9,4.9-12.3,11.7-12.3c8,0,11.7,5.9,11.7,12.7c0,0.5,0,1.1,0,1.7h-15.6
		c0.6,2.5,2.5,3.8,5,3.8c1.9,0,3.5-0.7,5.2-2.4l4.5,3.7c-2.2,2.8-5.5,4.7-10.1,4.7C266,51,260.9,46.2,260.9,38.9z M276.7,36.9
		c-0.3-2.6-1.8-4.2-4-4.2c-2.1,0-3.6,1.7-4,4.2H276.7z"/>
	<path class="st0" d="M287.8,27.2h8.2v4.7c1.3-3.2,3.5-5.2,7.4-5.1v8.6h-0.7c-4.3,0-6.7,2.5-6.7,7.8v7.2h-8.2V27.2z"/>
	<path class="st0" d="M318.1,19.1h8.2v11.3c1.5-1.9,3.7-3.7,7-3.7c4.9,0,7.9,3.3,7.9,8.6v15.2H333V37.9c0-2.5-1.3-3.9-3.3-3.9
		c-2,0-3.4,1.4-3.4,3.9v12.6h-8.2V19.1z"/>
	<path class="st0" d="M345.2,42.4V27.2h8.2v12.6c0,2.5,1.3,3.9,3.3,3.9c1.9,0,3.4-1.4,3.4-3.9V27.2h8.2v23.3h-8.2v-3.2
		c-1.5,1.9-3.7,3.7-7,3.7C348.2,51,345.2,47.7,345.2,42.4z"/>
	<path class="st0" d="M370.9,47.5l3.1-4.9c2.7,1.8,5.6,2.7,8,2.7c1.4,0,2.1-0.4,2.1-1.2v-0.1c0-0.9-1.3-1.3-3.7-2
		c-4.6-1.2-8.3-2.8-8.3-7.4v-0.1c0-4.9,4-7.7,9.3-7.7c3.4,0,6.9,1,9.6,2.7l-2.8,5.2c-2.4-1.3-5-2.1-6.9-2.1c-1.2,0-1.9,0.5-1.9,1.1
		v0.1c0,0.9,1.3,1.3,3.8,2.1c4.6,1.3,8.3,2.9,8.3,7.4v0.1c0,5.1-3.8,7.8-9.5,7.8C378,51,374.1,49.9,370.9,47.5z"/>
	<path class="st0" d="M402.9,47.6v2.8h-8.2V19.1h8.2v11.2c1.6-1.9,3.6-3.6,7.1-3.6c5.5,0,10.3,4.6,10.3,12v0.1
		c0,7.6-4.8,12.2-10.3,12.2C406.5,51,404.4,49.4,402.9,47.6z M412.3,38.8L412.3,38.8c0-3.1-2.1-5.3-4.8-5.3c-2.6,0-4.7,2.2-4.7,5.2
		v0.1c0,3.1,2.1,5.3,4.7,5.3C410.2,44.1,412.3,42,412.3,38.8z"/>
	<path class="st0" d="M422.7,43.8L422.7,43.8c0-4.9,3.7-7.4,9.1-7.4c2.2,0,4.3,0.4,5.6,0.9v-0.4c0-2.4-1.5-3.8-4.6-3.8
		c-2.5,0-4.3,0.5-6.4,1.3l-1.7-5.8c2.6-1.1,5.4-1.8,9.4-1.8c4.2,0,7,1,8.9,2.8c1.8,1.7,2.5,4.1,2.5,7.4v13.4h-8.1V48
		c-1.6,1.8-3.8,2.9-6.8,2.9C426.1,51,422.7,48.4,422.7,43.8z M437.5,42V41c-0.8-0.3-2-0.6-3.2-0.6c-2.4,0-3.7,1.2-3.7,2.9v0.1
		c0,1.6,1.2,2.5,2.9,2.5C435.8,45.9,437.5,44.3,437.5,42z"/>
	<path class="st0" d="M449.6,27.2h8.2v3.3c1.5-1.9,3.7-3.8,7-3.8c4.9,0,7.9,3.3,7.9,8.6v15.2h-8.2V37.9c0-2.5-1.3-3.9-3.3-3.9
		c-2,0-3.4,1.4-3.4,3.9v12.6h-8.2V27.2z"/>
	<path class="st0" d="M476,38.9L476,38.9c0-7.7,4.7-12.3,10.2-12.3c3.5,0,5.6,1.6,7.1,3.4v-11h8.2v31.4h-8.2v-3.1
		c-1.6,1.9-3.6,3.6-7.1,3.6C480.8,51,476,46.4,476,38.9z M493.5,38.8L493.5,38.8c0-3.1-2.1-5.3-4.7-5.3s-4.8,2.1-4.8,5.2v0.1
		c0,3.1,2.1,5.3,4.8,5.3S493.5,41.9,493.5,38.8z"/>
	<path class="st0" d="M505.6,42.1h8.5v8.4h-8.5V42.1z"/>
</g>
</svg>
