<svg id="Layer_1" xmlns="http://www.w3.org/2000/svg" viewBox="0 0 970 250"><style>.st0{fill:#490a09}</style><path class="st0" d="M37.3 55.8h17.4l14.2 23 14.2-23h17.4v59.5H84.1V81.1l-15.2 23.3h-.3L53.4 81.3v34H37.3V55.8zM109.8 99.4V69.3H126v24.9c0 5 2.6 7.7 6.5 7.7 3.8 0 6.7-2.7 6.7-7.7V69.3h16.2v46h-16.2V109c-3 3.8-7.2 7.3-13.8 7.3-9.8 0-15.6-6.4-15.6-16.9zM164 69.3h16.2v9.3c2.6-6.3 6.9-10.4 14.5-10v17h-1.4c-8.4 0-13.2 4.8-13.2 15.5v14.3H164V69.3zM197.8 92.5v-.2c0-15 9.4-24.1 20.2-24.1 7 0 11.1 3.1 14.1 6.6V53.2h16.2v62.1h-16.2v-6.1c-3.1 3.8-7.1 7.1-14 7.1-10.8 0-20.3-9.1-20.3-23.8zm34.6-.2v-.2c0-6-4.2-10.4-9.4-10.4s-9.4 4.3-9.4 10.4v.2c0 6.1 4.3 10.5 9.4 10.5 5.3 0 9.4-4.3 9.4-10.5zM255.1 92.5v-.2c0-13.4 9.6-24.1 23.2-24.1 15.9 0 23.2 11.6 23.2 25.2 0 1 0 2.2-.1 3.3h-30.8c1.3 5 4.9 7.6 9.9 7.6 3.8 0 6.9-1.4 10.2-4.7l8.9 7.4c-4.4 5.6-10.8 9.4-20 9.4-14.3 0-24.5-9.6-24.5-23.9zm31.3-4c-.6-5.1-3.6-8.3-8-8.3-4.2 0-7.1 3.3-8 8.3h16zM308.4 69.3h16.2v9.3c2.6-6.3 6.9-10.4 14.5-10v17h-1.4c-8.4 0-13.2 4.8-13.2 15.5v14.3h-16.2V69.3zM341.3 109.5l6-9.8c5.3 3.5 11.1 5.3 15.8 5.3 2.8 0 4.1-.9 4.1-2.5v-.2c0-1.8-2.6-2.6-7.4-3.9-9.1-2.4-16.3-5.4-16.3-14.7v-.2c0-9.8 7.8-15.2 18.4-15.2 6.7 0 13.7 2 19 5.4l-5.5 10.2c-4.8-2.6-9.9-4.2-13.6-4.2-2.5 0-3.7.9-3.7 2.2v.2c0 1.8 2.6 2.6 7.5 4.1 9.1 2.6 16.3 5.7 16.3 14.6v.2c0 10.1-7.6 15.4-18.8 15.4-7.8-.1-15.4-2.3-21.8-6.9z"/><g><path class="st0" d="M39.1 179v-18.7h-5.4v-13h5.4v-11.6h16.2v11.6H66v13H55.3v15.6c0 3.2 1.4 4.6 4.4 4.6 2.1 0 4.2-.6 6.1-1.5v12.7c-2.9 1.6-6.7 2.6-11.2 2.6-9.7 0-15.5-4.3-15.5-15.3zM69.9 170.5v-.2c0-13.1 10.7-24.1 25.5-24.1 14.7 0 25.3 10.8 25.3 23.9v.2c0 13.1-10.7 24.1-25.5 24.1-14.7 0-25.3-10.8-25.3-23.9zm35.1 0v-.2c0-5.6-4.1-10.4-9.8-10.4-5.9 0-9.6 4.7-9.6 10.2v.2c0 5.6 4.1 10.4 9.8 10.4 5.9 0 9.6-4.6 9.6-10.2zM147.6 187.5l6-9.8c5.3 3.5 11.1 5.3 15.8 5.3 2.8 0 4.1-.8 4.1-2.5v-.2c0-1.8-2.6-2.6-7.4-3.9-9.1-2.4-16.3-5.4-16.3-14.7v-.2c0-9.8 7.8-15.2 18.4-15.2 6.7 0 13.7 2 19 5.4l-5.5 10.2c-4.8-2.6-9.9-4.3-13.6-4.3-2.5 0-3.7.9-3.7 2.2v.2c0 1.8 2.6 2.6 7.5 4.1 9.1 2.5 16.3 5.7 16.3 14.6v.2c0 10.1-7.6 15.4-18.8 15.4-7.8 0-15.4-2.2-21.8-6.8zM192.9 170.5v-.2c0-13.1 10.7-24.1 25.5-24.1 14.7 0 25.3 10.8 25.3 23.9v.2c0 13.1-10.7 24.1-25.5 24.1-14.7 0-25.3-10.8-25.3-23.9zm35.1 0v-.2c0-5.6-4.1-10.4-9.8-10.4-5.9 0-9.6 4.7-9.6 10.2v.2c0 5.6 4.1 10.4 9.8 10.4 5.9 0 9.6-4.6 9.6-10.2zM250.9 131.3H267v62.1h-16.2v-62.1zM272.5 147.3h17l8.8 26.9 8.8-26.9H324l-18.4 46.3h-14.7l-18.4-46.3zM324.6 170.5v-.2c0-13.4 9.6-24.1 23.2-24.1 15.9 0 23.2 11.6 23.2 25.2 0 1 0 2.2-.1 3.3h-30.8c1.3 5 4.9 7.6 9.9 7.6 3.8 0 6.9-1.4 10.2-4.7l8.9 7.4c-4.4 5.6-10.8 9.4-20 9.4-14.3 0-24.5-9.6-24.5-23.9zm31.2-4c-.6-5.1-3.6-8.3-8-8.3-4.2 0-7.1 3.3-8 8.3h16zM376.8 176.7h16.8v16.6h-16.8v-16.6z"/></g></svg>