<svg id="Layer_1" xmlns="http://www.w3.org/2000/svg" viewBox="0 0 970 250"><style>.st0{fill:#490a09}</style><path class="st0" d="M38 132v-.2c0-15.9 12.8-28.8 29.9-28.8s29.8 12.7 29.8 28.7v.2c0 15.9-12.8 28.8-29.9 28.8S38 147.9 38 132zm44 0v-.2c0-8-5.8-15-14.2-15-8.4 0-14 6.8-14 14.8v.2c0 8 5.8 15 14.2 15 8.4 0 14-6.8 14-14.8zM104.8 116.7h15v6c2.8-3.6 6.7-7 12.8-7 9.1 0 14.6 6 14.6 15.8v28h-15v-23.2c0-4.7-2.5-7.2-6-7.2-3.6 0-6.3 2.5-6.3 7.2v23.2h-15v-42.8zM155.3 101.7h15v57.8h-15v-57.8zM177.6 168.7l4.7-10.5c2.4 1.4 4.9 2.3 6.6 2.3 1.5 0 2.5-.4 3.5-1.7l-16.8-42h15.8l8.5 25.8 8.1-25.8h15.4l-15.7 41.8c-3.7 10-7.8 13.9-16.3 13.9-5.3-.1-9.8-1.6-13.8-3.8zM248.5 138.3v-.2c0-12.2 10-22.4 23.7-22.4s23.6 10.1 23.6 22.2v.2c0 12.2-10 22.4-23.7 22.4s-23.6-10-23.6-22.2zm32.7 0v-.2c0-5.2-3.8-9.7-9.1-9.7-5.5 0-8.9 4.4-8.9 9.5v.2c0 5.2 3.8 9.7 9.1 9.7 5.4 0 8.9-4.3 8.9-9.5zM302.1 116.7h15v6c2.8-3.6 6.7-7 12.8-7 9.1 0 14.6 6 14.6 15.8v28h-15v-23.2c0-4.7-2.5-7.2-6-7.2-3.6 0-6.3 2.5-6.3 7.2v23.2h-15v-42.8z"/><g><path class="st0" d="M39.9 170.4h16.2l13.2 21.4 13.2-21.4h16.2v55.4H83.5V194l-14.2 21.7H69l-14.1-21.5v31.7h-15v-55.5zM108.6 170.4H124v20.7h19.7v-20.7H159v55.4h-15.4v-21.1H124v21.1h-15.4v-55.4zM166.5 215.9l19.8-21h-19.1v-12h39v9.9l-19.9 21h19.9v12h-39.7v-9.9zM233.4 198.2v-.2c0-16.1 12.4-28.8 29.2-28.8 11.3 0 18.6 4.7 23.5 11.6l-11.6 8.9c-3.2-4-6.8-6.5-12.1-6.5-7.8 0-13.2 6.6-13.2 14.6v.2c0 8.3 5.5 14.8 13.2 14.8 5.8 0 9.2-2.7 12.5-6.7l11.6 8.2c-5.2 7.2-12.3 12.5-24.5 12.5-15.8.1-28.6-12-28.6-28.6zM292.2 168h15v20.8c2.8-3.6 6.7-6.8 12.8-6.8 9.1 0 14.6 6 14.6 15.8v28h-15v-23.2c0-4.7-2.5-7.2-6-7.2-3.6 0-6.3 2.5-6.3 7.2v23.2h-15V168zM340.7 204.5v-.2c0-12.2 10-22.4 23.7-22.4S388 192 388 204.1v.2c0 12.2-10 22.4-23.7 22.4-13.7.1-23.6-10-23.6-22.2zm32.7 0v-.2c0-5.2-3.8-9.7-9.1-9.7-5.5 0-8.9 4.4-8.9 9.5v.2c0 5.2 3.8 9.7 9.1 9.7 5.4 0 8.9-4.3 8.9-9.5zM394.3 168H410v11.1h-15.7V168zm.4 14.9h15v42.8h-15v-42.8zM416.3 204.5v-.2c0-12.1 9.4-22.3 23-22.3 8.8 0 14.6 3.8 18.3 9.6l-10.2 7.6c-2.1-2.8-4.4-4.5-8-4.5-4.8 0-8.4 4.3-8.4 9.5v.2c0 5.5 3.5 9.7 8.5 9.7 3.6 0 5.9-1.7 8.2-4.4l10.1 7.3c-4 5.9-9.7 9.8-19.1 9.8-12.9 0-22.4-10.1-22.4-22.3zM460.3 204.5v-.2c0-12.5 8.9-22.4 21.6-22.4 14.8 0 21.6 10.8 21.6 23.4 0 1 0 2.1-.1 3.1h-28.7c1.2 4.7 4.6 7 9.3 7 3.6 0 6.4-1.3 9.5-4.4l8.3 6.9c-4.1 5.2-10.1 8.7-18.6 8.7-13.4.2-22.9-8.8-22.9-22.1zm29.1-3.7c-.6-4.7-3.3-7.8-7.4-7.8-4 0-6.6 3.1-7.4 7.8h14.8zM509 210.3h15.7v15.4H509v-15.4z"/></g></svg>