<svg id="Layer_1" xmlns="http://www.w3.org/2000/svg" viewBox="0 0 970 250"><style>.st0{fill:#490a09}</style><path class="st0" d="M48.9 23.5h15.5l7.4 21.4 18.8-21.4h17.3L93 78.9H77.6L86 47.1 66.2 68.7h-.3l-8.2-21.5-8.5 31.7H34.1l14.8-55.4zM105.6 67c0-2.3.5-5 1.2-7.7l6.3-23.3h15l-6 22.4c-.3 1.1-.6 2.5-.6 3.5 0 2.8 1.7 4.5 4.8 4.5 4.2 0 6.6-2.8 7.9-7.8l6.1-22.6h15L144 78.9h-15l1.3-4.9c-2.9 3.1-7.1 5.9-12.2 5.9-7.8-.1-12.5-5.1-12.5-12.9zM163.4 36.1h15l-2.3 8.6c4.1-6.1 9.1-9.8 16.1-9.3l-4.3 15.8h-1.3c-8.2 0-13.5 4.6-16.2 14.8l-3.5 12.9h-15l11.5-42.8zM189.7 62.3c0-15.4 10.8-27.1 23-27.1 6.4 0 10.4 2.8 13 6.8l5.5-20.8h15L230.8 79h-15l1.3-4.5c-3.4 3.2-7.5 5.5-12.2 5.5-8.5-.2-15.2-6.7-15.2-17.7zm33-7.1c0-4.6-3.1-7.6-7.4-7.6-5.6 0-10.4 5.5-10.4 12.3 0 4.6 2.9 7.5 7.3 7.5 5.7 0 10.5-5.7 10.5-12.2zM264.7 68.7c3.1 0 5.9-1 9.1-3.4l7 8.2c-4.4 3.8-10.1 6.4-17.5 6.4-12.7 0-20.4-7.4-20.4-19 0-12.7 9.9-25.8 25.7-25.8 12.7 0 18.2 8.5 18.2 17.7 0 2.9-.6 6-1.7 8.8h-28.4c.3 4.3 2.9 7.1 8 7.1zm8.3-14.8c.2-.7.4-1.5.4-2.3 0-2.9-1.9-5.5-5.9-5.5s-8 2.6-9.8 7.8H273zM298 36.1h15l-2.3 8.6c4.1-6.1 9.1-9.8 16.1-9.3l-4.3 15.8h-1.3c-8.2 0-13.5 4.6-16.2 14.8l-3.5 12.9h-15L298 36.1zM358.5 23.5h15.4L359 78.9h-15.4l14.9-55.4zM379.7 36.1h15l-1.3 4.9c2.9-3.1 7.2-5.9 12.3-5.9 7.8 0 12.4 4.9 12.4 12.8 0 2.3-.6 5-1.3 7.7l-6.2 23.3h-15l6-22.4c.3-1.1.5-2.5.5-3.5 0-2.8-1.7-4.5-4.7-4.5-4.2 0-6.6 2.8-8 7.8l-6.1 22.6h-15l11.4-42.8zM422.3 63.4H438l-4.2 15.4h-15.6l4.1-15.4zM446.2 63.4h15.7l-4.2 15.4h-15.6l4.1-15.4zM470.1 63.4h15.7l-4.2 15.4H466l4.1-15.4z"/></svg>