<?xml version="1.0" encoding="utf-8"?>
<!-- Generator: Adobe Illustrator 26.3.1, SVG Export Plug-In . SVG Version: 6.00 Build 0)  -->
<svg version="1.1" id="Layer_1" xmlns="http://www.w3.org/2000/svg" xmlns:xlink="http://www.w3.org/1999/xlink" x="0px" y="0px"
	 viewBox="0 0 300 600" style="enable-background:new 0 0 300 600;" xml:space="preserve">
<style type="text/css">
	.st0{fill:#490A09;}
</style>
<g>
	<path class="st0" d="M22.8,162.2h21.7c5.3,0,9.1,1.3,11.6,3.8c1.7,1.7,2.7,3.9,2.7,6.8v0.1c0,4.9-2.8,7.8-6.5,9.5
		c5.1,1.7,8.4,4.6,8.4,10.4v0.1c0,7.3-5.9,11.7-16.1,11.7H22.8V162.2z M41.6,179.1c3.6,0,5.6-1.2,5.6-3.7v-0.1
		c0-2.3-1.8-3.6-5.3-3.6h-7.6v7.5H41.6z M43.3,195.1c3.6,0,5.6-1.4,5.6-3.9v-0.1c0-2.3-1.8-3.8-5.8-3.8h-9v7.8H43.3z"/>
	<path class="st0" d="M64.1,188.4v-0.1c0-9.6,6.8-17.1,16.5-17.1c11.3,0,16.5,8.3,16.5,17.9c0,0.7,0,1.6-0.1,2.4H75.2
		c0.9,3.6,3.5,5.4,7.1,5.4c2.7,0,4.9-1,7.3-3.3l6.4,5.3c-3.2,4-7.7,6.7-14.2,6.7C71.3,205.4,64.1,198.5,64.1,188.4z M86.4,185.5
		c-0.4-3.6-2.5-5.9-5.7-5.9c-3,0-5.1,2.4-5.7,5.9H86.4z"/>
	<path class="st0" d="M102,160.4h11.5v15.9c2.1-2.7,5.1-5.2,9.8-5.2c7,0,11.1,4.6,11.1,12.1v21.4H123v-17.7c0-3.6-1.9-5.5-4.6-5.5
		c-2.8,0-4.8,1.9-4.8,5.5v17.7H102V160.4z"/>
	<path class="st0" d="M140.4,160.4h12v8.5h-12V160.4z M140.7,171.8h11.5v32.8h-11.5V171.8z"/>
	<path class="st0" d="M158.6,171.8h11.5v4.6c2.1-2.7,5.1-5.3,9.8-5.3c7,0,11.1,4.6,11.1,12.1v21.4h-11.5v-17.7
		c0-3.6-1.9-5.5-4.6-5.5c-2.8,0-4.8,1.9-4.8,5.5v17.7h-11.5V171.8z"/>
	<path class="st0" d="M195.8,188.4v-0.1c0-10.7,6.7-17.1,14.4-17.1c5,0,7.9,2.2,10.1,4.7v-15.4h11.5v44.2h-11.5v-4.4
		c-2.2,2.7-5.1,5.1-10,5.1C202.5,205.3,195.8,198.8,195.8,188.4z M220.5,188.2v-0.1c0-4.3-3-7.4-6.7-7.4s-6.7,3-6.7,7.4v0.1
		c0,4.4,3,7.5,6.7,7.5S220.5,192.6,220.5,188.2z"/>
</g>
<g>
	<path class="st0" d="M20.8,243.9v-0.1c0-9.6,6.8-17.1,16.5-17.1c11.3,0,16.5,8.3,16.5,17.9c0,0.7,0,1.6-0.1,2.4H31.8
		c0.9,3.6,3.5,5.4,7.1,5.4c2.7,0,4.9-1,7.3-3.3l6.4,5.3c-3.2,4-7.7,6.7-14.2,6.7C28,260.9,20.8,254.1,20.8,243.9z M43,241
		c-0.4-3.6-2.5-5.9-5.7-5.9c-3,0-5.1,2.4-5.7,5.9H43z"/>
	<path class="st0" d="M54.8,227.3h12.1l6.3,19.1l6.3-19.1h11.9l-13.1,33H67.9L54.8,227.3z"/>
	<path class="st0" d="M91.9,243.9v-0.1c0-9.6,6.8-17.1,16.5-17.1c11.3,0,16.5,8.3,16.5,17.9c0,0.7,0,1.6-0.1,2.4H103
		c0.9,3.6,3.5,5.4,7.1,5.4c2.7,0,4.9-1,7.3-3.3l6.4,5.3c-3.2,4-7.7,6.7-14.2,6.7C99.1,260.9,91.9,254.1,91.9,243.9z M114.2,241
		c-0.4-3.6-2.5-5.9-5.7-5.9c-3,0-5.1,2.4-5.7,5.9H114.2z"/>
	<path class="st0" d="M129.9,227.3h11.5v6.6c1.9-4.5,4.9-7.4,10.4-7.1v12.1h-1c-6,0-9.4,3.5-9.4,11v10.2h-11.5V227.3z"/>
	<path class="st0" d="M154.9,267.1l3.6-8.1c1.8,1.1,3.8,1.8,5,1.8c1.2,0,1.9-0.3,2.7-1.3l-12.8-32.2h12.1l6.5,19.7l6.2-19.7h11.8
		l-12,32c-2.8,7.6-5.9,10.7-12.5,10.7C161.4,270,158,268.8,154.9,267.1z"/>
</g>
<g>
	<path class="st0" d="M22.1,282.9h11.5v4.4c2.2-2.7,5-5.1,9.9-5.1c7.8,0,14.5,6.5,14.5,17v0.1c0,10.7-6.7,17.1-14.5,17.1
		c-5,0-7.9-2.2-10-4.7v13.7H22.1V282.9z M46.7,299.3v-0.1c0-4.3-3-7.4-6.7-7.4c-3.7,0-6.7,3.1-6.7,7.4v0.1c0,4.4,3,7.5,6.7,7.5
		C43.8,306.7,46.7,303.7,46.7,299.3z"/>
	<path class="st0" d="M61.7,299.4v-0.1c0-9.6,6.8-17.1,16.5-17.1c11.3,0,16.5,8.3,16.5,17.9c0,0.7,0,1.6-0.1,2.4H72.8
		c0.9,3.6,3.5,5.4,7.1,5.4c2.7,0,4.9-1,7.3-3.3l6.4,5.3c-3.2,4-7.7,6.7-14.2,6.7C69,316.4,61.7,309.6,61.7,299.4z M84,296.6
		c-0.4-3.6-2.5-5.9-5.7-5.9c-3,0-5.1,2.4-5.7,5.9H84z"/>
	<path class="st0" d="M99.7,282.9h11.5v6.6c1.9-4.5,4.9-7.4,10.4-7.1v12.1h-1c-6,0-9.4,3.5-9.4,11v10.2H99.7V282.9z"/>
	<path class="st0" d="M127.7,292.1h-3.8v-9h3.8v-0.7c0-3.8,0.8-6.5,2.8-8.5c2-2,4.7-2.8,8.5-2.8c3.5,0,5.7,0.4,7.5,0.9v8.1
		c-1.3-0.4-2.7-0.7-4.3-0.7c-2.1,0-3.3,1-3.3,3.1v0.8h7.5v8.8h-7.3v23.6h-11.4V292.1z"/>
	<path class="st0" d="M148.2,299.4v-0.1c0-9.6,6.8-17.1,16.5-17.1c11.3,0,16.5,8.3,16.5,17.9c0,0.7,0,1.6-0.1,2.4h-21.9
		c0.9,3.6,3.5,5.4,7.1,5.4c2.7,0,4.9-1,7.3-3.3l6.4,5.3c-3.1,4-7.7,6.7-14.2,6.7C155.5,316.4,148.2,309.6,148.2,299.4z M170.5,296.6
		c-0.4-3.6-2.5-5.9-5.7-5.9c-3,0-5.1,2.4-5.7,5.9H170.5z"/>
	<path class="st0" d="M184.8,299.4v-0.1c0-9.3,7.2-17.1,17.6-17.1c6.7,0,11.2,2.9,14,7.3l-7.8,5.8c-1.6-2.2-3.3-3.5-6.1-3.5
		c-3.7,0-6.4,3.3-6.4,7.3v0.1c0,4.2,2.7,7.5,6.5,7.5c2.7,0,4.5-1.3,6.3-3.4l7.7,5.6c-3,4.5-7.4,7.5-14.6,7.5
		C192.1,316.4,184.8,308.7,184.8,299.4z"/>
	<path class="st0" d="M222.6,305.5v-13.3h-3.9v-9.3h3.9v-8.3h11.5v8.3h7.6v9.3h-7.6v11.1c0,2.3,1,3.3,3.1,3.3c1.5,0,3-0.4,4.4-1.1v9
		c-2.1,1.2-4.8,1.9-8,1.9C226.8,316.3,222.6,313.3,222.6,305.5z"/>
</g>
<g>
	<path class="st0" d="M22.3,335h11.5v44.2H22.3V335z"/>
	<path class="st0" d="M40.3,335h12v8.5h-12V335z M40.5,346.4H52v32.8H40.5V346.4z"/>
	<path class="st0" d="M60.5,355.6h-3.8v-9h3.8v-0.7c0-3.8,0.8-6.5,2.8-8.5c2-2,4.7-2.8,8.5-2.8c3.5,0,5.7,0.4,7.5,0.9v8.1
		c-1.3-0.4-2.7-0.7-4.3-0.7c-2.1,0-3.3,1-3.3,3.1v0.8h7.5v8.8h-7.3v23.6H60.5V355.6z"/>
	<path class="st0" d="M81,362.9v-0.1c0-9.6,6.8-17.1,16.5-17.1c11.3,0,16.5,8.3,16.5,17.9c0,0.7,0,1.6-0.1,2.4H92.1
		c0.9,3.6,3.5,5.4,7.1,5.4c2.7,0,4.9-1,7.3-3.3l6.4,5.3c-3.2,4-7.7,6.7-14.2,6.7C88.3,380,81,373.1,81,362.9z M103.3,360.1
		c-0.4-3.6-2.5-5.9-5.7-5.9c-3,0-5.1,2.4-5.7,5.9H103.3z"/>
</g>
</svg>
