<?xml version="1.0" encoding="utf-8"?>
<!-- Generator: Adobe Illustrator 26.3.1, SVG Export Plug-In . SVG Version: 6.00 Build 0)  -->
<svg version="1.1" id="Layer_1" xmlns="http://www.w3.org/2000/svg" xmlns:xlink="http://www.w3.org/1999/xlink" x="0px" y="0px"
	 viewBox="0 0 300 600" style="enable-background:new 0 0 300 600;" xml:space="preserve">
<style type="text/css">
	.st0{fill:#490A09;}
</style>
<g>
	<path class="st0" d="M32.1,240.7H19.4v-10.3h37.2v10.3H43.9v32.1H32.1V240.7z"/>
	<path class="st0" d="M61.1,228.6h11.5v15.9c2.1-2.7,5.1-5.2,9.8-5.2c7,0,11.1,4.6,11.1,12.1v21.4H82v-17.7c0-3.6-1.9-5.5-4.6-5.5
		c-2.8,0-4.8,1.9-4.8,5.5v17.7H61.1V228.6z"/>
	<path class="st0" d="M98.1,256.6v-0.1c0-9.6,6.8-17.1,16.5-17.1c11.3,0,16.5,8.3,16.5,17.9c0,0.7,0,1.6-0.1,2.4h-21.9
		c0.9,3.6,3.5,5.4,7.1,5.4c2.7,0,4.9-1,7.3-3.3l6.4,5.3c-3.2,4-7.7,6.7-14.2,6.7C105.4,273.6,98.1,266.8,98.1,256.6z M120.4,253.8
		c-0.4-3.6-2.5-5.9-5.7-5.9c-3,0-5.1,2.4-5.7,5.9H120.4z"/>
</g>
<g>
	<path class="st0" d="M21.1,295.6h11.5v4.6c2.1-2.7,5.1-5.3,9.8-5.3c7,0,11.1,4.6,11.1,12.1v21.4H42v-17.7c0-3.6-1.9-5.5-4.6-5.5
		c-2.8,0-4.8,1.9-4.8,5.5v17.7H21.1V295.6z"/>
	<path class="st0" d="M58.2,312.1V312c0-9.6,6.8-17.1,16.5-17.1c11.3,0,16.5,8.3,16.5,17.9c0,0.7,0,1.6-0.1,2.4H69.2
		c0.9,3.6,3.5,5.4,7.1,5.4c2.7,0,4.9-1,7.3-3.3l6.4,5.3c-3.2,4-7.7,6.7-14.2,6.7C65.4,329.2,58.2,322.3,58.2,312.1z M80.5,309.3
		c-0.4-3.6-2.5-5.9-5.7-5.9c-3,0-5.1,2.4-5.7,5.9H80.5z"/>
	<path class="st0" d="M92.3,295.6h11.3l4.3,16.5l5-16.6h9.5l5.1,16.7l4.4-16.6H143l-10.1,33H123l-5.3-17l-5.5,17h-9.9L92.3,295.6z"
		/>
</g>
<g>
	<path class="st0" d="M21.8,344.8h33.9v10.3H33.5v7.2h20.1v9.8H33.5v15.1H21.8V344.8z"/>
	<path class="st0" d="M60.3,354.5h11.5v6.6c1.9-4.5,4.9-7.4,10.4-7.1V366h-1c-6,0-9.4,3.5-9.4,11v10.2H60.3V354.5z"/>
	<path class="st0" d="M84.4,371v-0.1c0-9.6,6.8-17.1,16.5-17.1c11.3,0,16.5,8.3,16.5,17.9c0,0.7,0,1.6-0.1,2.4H95.5
		c0.9,3.6,3.5,5.4,7.1,5.4c2.7,0,4.9-1,7.3-3.3l6.4,5.3c-3.2,4-7.7,6.7-14.2,6.7C91.7,388,84.4,381.2,84.4,371z M106.7,368.2
		c-0.4-3.6-2.5-5.9-5.7-5.9c-3,0-5.1,2.4-5.7,5.9H106.7z"/>
	<path class="st0" d="M122.4,354.5h11.5v4.6c2.1-2.7,5.1-5.3,9.8-5.3c7,0,11.1,4.6,11.1,12.1v21.4h-11.5v-17.7
		c0-3.6-1.9-5.5-4.6-5.5c-2.8,0-4.8,1.9-4.8,5.5v17.7h-11.5V354.5z"/>
	<path class="st0" d="M159.4,371v-0.1c0-9.3,7.2-17.1,17.6-17.1c6.7,0,11.2,2.9,14,7.3l-7.8,5.8c-1.6-2.2-3.3-3.5-6.1-3.5
		c-3.7,0-6.4,3.3-6.4,7.3v0.1c0,4.2,2.7,7.5,6.5,7.5c2.7,0,4.5-1.3,6.3-3.4l7.7,5.6c-3,4.5-7.4,7.5-14.6,7.5
		C166.7,388,159.4,380.3,159.4,371z"/>
	<path class="st0" d="M195.2,343h11.5V359c2.1-2.7,5.1-5.2,9.8-5.2c7,0,11.1,4.6,11.1,12.1v21.4h-11.5v-17.7c0-3.6-1.9-5.5-4.6-5.5
		c-2.8,0-4.8,1.9-4.8,5.5v17.7h-11.5V343z"/>
</g>
<g>
	<path class="st0" d="M23.1,436v-13.3h-3.9v-9.3h3.9v-8.3h11.5v8.3h7.6v9.3h-7.6v11.1c0,2.3,1,3.3,3.1,3.3c1.5,0,3-0.4,4.4-1.1v9
		c-2.1,1.2-4.8,1.9-8,1.9C27.2,446.8,23.1,443.8,23.1,436z"/>
	<path class="st0" d="M47.2,401.9h11.5v15.9c2.1-2.7,5.1-5.2,9.8-5.2c7,0,11.1,4.6,11.1,12.1v21.4H68.2v-17.7c0-3.6-1.9-5.5-4.6-5.5
		c-2.8,0-4.8,1.9-4.8,5.5v17.7H47.2V401.9z"/>
	<path class="st0" d="M85.6,413.4h11.5v6.6c1.9-4.5,4.9-7.4,10.4-7.1v12.1h-1c-6,0-9.4,3.5-9.4,11v10.2H85.6V413.4z"/>
	<path class="st0" d="M111.5,401.9h12v8.5h-12V401.9z M111.8,413.4h11.5v32.8h-11.5V413.4z"/>
	<path class="st0" d="M129.9,401.9h11.5v44.2h-11.5V401.9z"/>
	<path class="st0" d="M148.1,401.9h11.5v44.2h-11.5V401.9z"/>
	<path class="st0" d="M164.7,429.9v-0.1c0-9.6,6.8-17.1,16.5-17.1c11.3,0,16.5,8.3,16.5,17.9c0,0.7,0,1.6-0.1,2.4h-21.9
		c0.9,3.6,3.5,5.4,7.1,5.4c2.7,0,4.9-1,7.3-3.3l6.4,5.3c-3.1,4-7.7,6.7-14.2,6.7C172,446.9,164.7,440.1,164.7,429.9z M187,427
		c-0.4-3.6-2.5-5.9-5.7-5.9c-3,0-5.1,2.4-5.7,5.9H187z"/>
	<path class="st0" d="M202.7,413.4h11.5v6.6c1.9-4.5,4.9-7.4,10.4-7.1v12.1h-1c-6,0-9.4,3.5-9.4,11v10.2h-11.5V413.4z"/>
	<path class="st0" d="M224.2,434.3h12v11.8h-12V434.3z"/>
</g>
</svg>
