<?xml version="1.0" encoding="utf-8"?>
<!-- Generator: Adobe Illustrator 26.3.1, SVG Export Plug-In . SVG Version: 6.00 Build 0)  -->
<svg version="1.1" id="Layer_1" xmlns="http://www.w3.org/2000/svg" xmlns:xlink="http://www.w3.org/1999/xlink" x="0px" y="0px"
	 viewBox="0 0 300 600" style="enable-background:new 0 0 300 600;" xml:space="preserve">
<style type="text/css">
	.st0{fill:#490A09;}
</style>
<g>
	<path class="st0" d="M21,174.2c0-13.5,11-25.4,27.2-25.4c8.5,0,14.7,3.5,17.6,7.2l-7.9,7.6c-2.5-2.5-5.9-4.4-10.5-4.4
		c-8.5,0-14.4,6.6-14.4,14.4c0,5.9,4.3,9,9.5,9c2.4,0,4.2-0.5,5.6-1.2l1.7-5.7h-8.2l2.2-8.6h19.4l-6.1,21.4
		c-4.2,2.4-9.6,4.2-15.9,4.2C31.3,192.9,21,187.2,21,174.2z"/>
	<path class="st0" d="M75,147.9h11.5l-11.9,44.2H63.1L75,147.9z"/>
	<path class="st0" d="M84.2,177.6c0-9.9,8.3-19,19.3-19c10.1,0,16.1,6.6,16.1,15.2c0,9.9-8.3,19.1-19.3,19.1
		C90.3,192.9,84.2,186.3,84.2,177.6z M108.6,174.2c0-3.7-2.3-6.1-5.7-6.1c-4.5,0-7.6,4.8-7.6,9c0,3.8,2.3,6.1,5.7,6.1
		C105.5,183.3,108.6,178.5,108.6,174.2z"/>
	<path class="st0" d="M128.9,159.3h11.5l-1.8,6.6c3.1-4.7,7-7.5,12.3-7.1l-3.3,12.1h-1c-6.3,0-10.4,3.5-12.4,11.3l-2.7,9.9h-11.5
		L128.9,159.3z"/>
	<path class="st0" d="M155.2,159.3h11.5l-8.8,32.8h-11.5L155.2,159.3z M158.1,147.9h12l-2.3,8.5h-12L158.1,147.9z"/>
	<path class="st0" d="M165.7,183.9c0-7.2,5.8-11.6,14.4-11.6c3,0,5.7,0.5,8.3,1.3l0.1-0.4c0.1-0.5,0.3-1.2,0.3-2
		c0-2.1-1.6-3.5-5.6-3.5c-3.1,0-6.5,0.7-8.8,1.6l-1.6-8.4c3.5-1.2,8.2-2,12.9-2c9.8,0,14.6,3.9,14.6,10.4c0,1.5-0.2,3.1-0.7,4.7
		l-4.8,18.1h-11.3l0.9-3.5c-2.8,2.6-5.6,4.2-9.5,4.2C169.5,192.8,165.7,189.3,165.7,183.9z M186.9,179.7l0.3-1.1
		c-1.3-0.4-2.7-0.7-4.3-0.7c-3.6,0-6,1.8-6,4.7c0,1.9,1.3,3,3.3,3C183.2,185.7,186,183.1,186.9,179.7z"/>
</g>
<g>
	<path class="st0" d="M204.4,180.3h12v11.8h-12V180.3z"/>
</g>
</svg>
