<svg id="Layer_1" xmlns="http://www.w3.org/2000/svg" viewBox="0 0 320 50"><style>.st0{fill:#490a09}</style><path class="st0" d="M13.7 18h3.5l5.5 13.1h-3.9l-.9-2.3h-5l-.9 2.3H8.1L13.7 18zm3.1 8l-1.5-3.7-1.4 3.7h2.9zM32.4 29.9v1.2h-3.5V17.5h3.5v4.9c.7-.8 1.5-1.6 3.1-1.6 2.4 0 4.5 2 4.5 5.2 0 3.3-2.1 5.3-4.4 5.3-1.6.1-2.5-.6-3.2-1.4zm4.1-3.8c0-1.4-.9-2.3-2.1-2.3-1.1 0-2 .9-2 2.3 0 1.3.9 2.3 2 2.3 1.2 0 2.1-.9 2.1-2.3zM41.5 21.1H45v2c.6-1.4 1.5-2.3 3.2-2.2v3.7h-.3c-1.8 0-2.9 1.1-2.9 3.4v3.1h-3.5v-10zM49.5 17.5h3.7v2.6h-3.7v-2.6zm0 3.6H53v10.1h-3.5V21.1zM55.1 17.5h3.5v13.6h-3.5V17.5zM60.7 17.5h3.5v13.6h-3.5V17.5zM66.2 17.5h3.7v2.6h-3.7v-2.6zm.1 3.6h3.5v10.1h-3.5V21.1zM71.3 28.3c0-2.1 1.6-3.2 3.9-3.2.9 0 1.8.2 2.4.4v-.2c0-1-.7-1.6-2-1.6-1.1 0-1.9.2-2.8.6l-.7-2.5c1.1-.5 2.3-.8 4.1-.8 1.8 0 3 .4 3.8 1.2.8.7 1.1 1.8 1.1 3.2v5.8h-3.5v-1c-.7.8-1.6 1.3-3 1.3-1.8-.1-3.3-1.2-3.3-3.2zm6.4-.8V27c-.4-.1-.9-.3-1.4-.3-1 0-1.6.5-1.6 1.2s.5 1.1 1.2 1.1c1.1.1 1.8-.5 1.8-1.5zM83 21.1h3.5v1.4c.7-.8 1.6-1.6 3-1.6 2.1 0 3.4 1.4 3.4 3.7v6.6h-3.5v-5.5c0-1.1-.6-1.7-1.4-1.7-.9 0-1.5.6-1.5 1.7v5.5H83V21.1zM95.4 28v-4.1h-1.2v-2.8h1.2v-2.6h3.5v2.6h2.3v2.8h-2.3v3.4c0 .7.3 1 1 1 .5 0 .9-.1 1.3-.3v2.8c-.6.4-1.5.6-2.5.6-2.1-.1-3.3-1-3.3-3.4zM102.9 17.5h3.5v13.6h-3.5V17.5zM108.1 33.3l1.1-2.5c.6.3 1.2.5 1.5.5.4 0 .6-.1.8-.4l-3.9-9.9h3.7l2 6.1 1.9-6.1h3.6l-3.7 9.8c-.9 2.3-1.8 3.3-3.8 3.3-1.2.1-2.3-.3-3.2-.8zM125.8 23.9h-1.2v-2.8h1.2v-.2c0-1.2.3-2 .9-2.6.6-.6 1.4-.9 2.6-.9 1.1 0 1.8.1 2.3.3v2.5c-.4-.1-.8-.2-1.3-.2-.7 0-1 .3-1 .9v.2h2.3v2.7h-2.3V31h-3.5v-7.1zM132.6 27.7v-6.6h3.5v5.5c0 1.1.6 1.7 1.4 1.7.8 0 1.5-.6 1.5-1.7v-5.5h3.5v10.1H139v-1.4c-.7.8-1.6 1.6-3 1.6-2.1 0-3.4-1.5-3.4-3.7zM144.5 21.1h3.5v1.4c.7-.8 1.6-1.6 3-1.6 2.1 0 3.4 1.4 3.4 3.7v6.6h-3.5v-5.5c0-1.1-.6-1.7-1.4-1.7-.9 0-1.5.6-1.5 1.7v5.5h-3.5V21.1zM156.3 21.1h3.5v1.4c.7-.8 1.6-1.6 3-1.6 2.1 0 3.4 1.4 3.4 3.7v6.6h-3.5v-5.5c0-1.1-.6-1.7-1.4-1.7-.9 0-1.5.6-1.5 1.7v5.5h-3.5V21.1zM167.6 33.3l1.1-2.5c.6.3 1.2.5 1.5.5.4 0 .6-.1.8-.4l-3.9-9.9h3.7l2 6.1 1.9-6.1h3.6l-3.7 9.8c-.9 2.3-1.8 3.3-3.8 3.3-1.2.1-2.3-.3-3.2-.8zM184.7 21.1h3.5v1.3c.7-.8 1.5-1.6 3.1-1.6 2.4 0 4.5 2 4.5 5.2 0 3.3-2.1 5.3-4.4 5.3-1.5 0-2.4-.7-3.1-1.5V34h-3.5V21.1zm7.5 5c0-1.4-.9-2.3-2.1-2.3-1.1 0-2 .9-2 2.3 0 1.3.9 2.3 2 2.3 1.2 0 2.1-.9 2.1-2.3zM197.2 21.1h3.5v2c.6-1.4 1.5-2.3 3.2-2.2v3.7h-.3c-1.8 0-2.9 1.1-2.9 3.4v3.1h-3.5v-10zM204.6 26.1c0-2.9 2.3-5.3 5.6-5.3 3.2 0 5.5 2.4 5.5 5.2 0 2.9-2.3 5.3-5.6 5.3-3.2.1-5.5-2.3-5.5-5.2zm7.7 0c0-1.3-.9-2.3-2.1-2.3-1.3 0-2.1 1-2.1 2.2 0 1.2.9 2.3 2.1 2.3 1.3.1 2.1-.9 2.1-2.2zM216.5 29.9l1.3-2.1c1.2.8 2.4 1.2 3.5 1.2.6 0 .9-.2.9-.5 0-.4-.6-.6-1.6-.9-2-.5-3.6-1.2-3.6-3.2 0-2.1 1.7-3.3 4-3.3 1.5 0 3 .4 4.2 1.2l-1.2 2.2c-1-.6-2.2-.9-3-.9-.5 0-.8.2-.8.5 0 .4.6.6 1.6.9 2 .6 3.6 1.2 3.6 3.2 0 2.2-1.7 3.4-4.1 3.4-1.8-.2-3.4-.7-4.8-1.7zM226.4 26.1c0-3 2.1-5.3 5.1-5.3 3.5 0 5.1 2.6 5.1 5.5v.7h-6.7c.3 1.1 1.1 1.7 2.2 1.7.8 0 1.5-.3 2.2-1l2 1.6c-1 1.2-2.4 2-4.4 2-3.3.1-5.5-2-5.5-5.2zm6.8-.8c-.1-1.1-.8-1.8-1.8-1.8-.9 0-1.6.7-1.8 1.8h3.6zM237.6 26.1c0-2.9 2.2-5.3 5.4-5.3 2.1 0 3.4.9 4.3 2.3l-2.4 1.8c-.5-.7-1-1.1-1.9-1.1-1.1 0-2 1-2 2.2 0 1.3.8 2.3 2 2.3.8 0 1.4-.4 1.9-1l2.4 1.7c-.9 1.4-2.3 2.3-4.5 2.3-2.9.1-5.2-2.3-5.2-5.2zM248.6 27.7v-6.6h3.5v5.5c0 1.1.6 1.7 1.4 1.7.8 0 1.5-.6 1.5-1.7v-5.5h3.5v10.1H255v-1.4c-.7.8-1.6 1.6-3 1.6-2.1 0-3.4-1.5-3.4-3.7zM261.1 28v-4.1h-1.2v-2.8h1.2v-2.6h3.5v2.6h2.3v2.8h-2.3v3.4c0 .7.3 1 1 1 .5 0 .9-.1 1.3-.3v2.8c-.6.4-1.5.6-2.5.6-2.1-.1-3.3-1-3.3-3.4zM267.8 26.1c0-2.9 2.3-5.3 5.6-5.3 3.2 0 5.5 2.4 5.5 5.2 0 2.9-2.3 5.3-5.6 5.3-3.2.1-5.5-2.3-5.5-5.2zm7.7 0c0-1.3-.9-2.3-2.1-2.3-1.3 0-2.1 1-2.1 2.2 0 1.2.9 2.3 2.1 2.3 1.3.1 2.1-.9 2.1-2.2zM280.4 21.1h3.5v2c.6-1.4 1.5-2.3 3.2-2.2v3.7h-.3c-1.8 0-2.9 1.1-2.9 3.4v3.1h-3.5v-10zM287.1 27.5h3.7v3.6h-3.7v-3.6z"/></svg>