<svg id="Layer_1" xmlns="http://www.w3.org/2000/svg" viewBox="0 0 320 50"><style>.st0{fill:#490a09}</style><path class="st0" d="M8.2 39.4l1.8-2.2c1.2.9 2.5 1.4 3.8 1.4.9 0 1.3-.3 1.3-.8s-.4-.8-2-1.1c-2.5-.6-4.4-1.3-4.4-3.7 0-2.2 1.7-3.8 4.6-3.8 2 0 3.6.5 4.8 1.6l-1.6 2.3c-1.1-.8-2.3-1.2-3.3-1.2-.8 0-1.2.3-1.2.8s.4.8 2 1.1c2.7.6 4.4 1.5 4.4 3.7 0 2.4-1.9 3.8-4.8 3.8-2 .1-4-.6-5.4-1.9zM19.5 36.7c0-2.7 1.9-4.8 4.6-4.8 3.1 0 4.6 2.3 4.6 5v.7h-6.1c.3 1 1 1.5 2 1.5.8 0 1.4-.3 2-.9l1.8 1.5c-.9 1.1-2.1 1.9-4 1.9-2.9-.2-4.9-2.1-4.9-4.9zm6.2-.8c-.1-1-.7-1.6-1.6-1.6-.8 0-1.4.7-1.6 1.6h3.2zM29.6 38.6c0-1.9 1.4-2.9 3.6-2.9.8 0 1.7.2 2.2.4v-.2c0-.9-.6-1.5-1.8-1.5-1 0-1.7.2-2.5.5l-.7-2.3c1-.4 2.1-.7 3.7-.7s2.7.4 3.5 1.1c.7.7 1 1.6 1 2.9v5.2h-3.2v-.9c-.6.7-1.5 1.1-2.7 1.1-1.8.1-3.1-.9-3.1-2.7zm5.7-.7v-.4c-.3-.1-.8-.2-1.2-.2-.9 0-1.5.5-1.5 1.1 0 .6.5 1 1.1 1 1 0 1.6-.6 1.6-1.5zM39.4 40l1.2-1.9c1 .7 2.2 1 3.1 1 .6 0 .8-.2.8-.5 0-.4-.5-.5-1.5-.8-1.8-.5-3.2-1.1-3.2-2.9 0-1.9 1.5-3 3.7-3 1.3 0 2.7.4 3.8 1.1l-1.1 2c-.9-.5-2-.8-2.7-.8-.5 0-.7.2-.7.4 0 .4.5.5 1.5.8 1.8.5 3.2 1.1 3.2 2.9 0 2-1.5 3-3.7 3-1.6.1-3.1-.3-4.4-1.3zM48.4 36.7c0-2.6 2.1-4.8 5-4.8s5 2.1 5 4.7-2.1 4.8-5 4.8-5-2.1-5-4.7zm6.9 0c0-1.1-.8-2.1-1.9-2.1-1.2 0-1.9.9-1.9 2s.8 2.1 1.9 2.1c1.2 0 1.9-.9 1.9-2zM59.8 32.1H63v1.3c.6-.8 1.4-1.5 2.7-1.5 1.9 0 3.1 1.3 3.1 3.3v6h-3.2v-4.9c0-1-.5-1.5-1.3-1.5s-1.3.5-1.3 1.5v4.9h-3.2v-9.1zM77 32.4l-2 .5-.6-2.5 3.5-1h2.4v11.9H77v-8.9zM87.4 34.6h-1.1v-2.5h1.1v-.2c0-1 .2-1.8.8-2.4.6-.6 1.3-.8 2.4-.8 1 0 1.6.1 2.1.3v2.3c-.4-.1-.7-.2-1.2-.2-.6 0-.9.3-.9.9v.2h2.1v2.5h-2v6.5h-3.2v-6.6zM93.7 32.1h3.2v1.8c.5-1.2 1.4-2.1 2.9-2v3.4h-.3c-1.7 0-2.6 1-2.6 3.1v2.8h-3.2v-9.1zM100.3 36.7c0-2.7 1.9-4.8 4.6-4.8 3.1 0 4.6 2.3 4.6 5v.7h-6.1c.3 1 1 1.5 2 1.5.8 0 1.4-.3 2-.9l1.8 1.5c-.9 1.1-2.1 1.9-4 1.9-2.8-.2-4.9-2.1-4.9-4.9zm6.2-.8c-.1-1-.7-1.6-1.6-1.6-.8 0-1.4.7-1.6 1.6h3.2zM110.5 36.7c0-2.7 1.9-4.8 4.6-4.8 3.1 0 4.6 2.3 4.6 5v.7h-6.1c.3 1 1 1.5 2 1.5.8 0 1.4-.3 2-.9l1.8 1.5c-.9 1.1-2.1 1.9-4 1.9-2.9-.2-4.9-2.1-4.9-4.9zm6.2-.8c-.1-1-.7-1.6-1.6-1.6-.8 0-1.4.7-1.6 1.6h3.2zM125.4 36.7c0-2.6 2.1-4.8 5-4.8s5 2.1 5 4.7-2.1 4.8-5 4.8-5-2.1-5-4.7zm6.9 0c0-1.1-.8-2.1-1.9-2.1-1.2 0-1.9.9-1.9 2s.8 2.1 1.9 2.1c1.2 0 1.9-.9 1.9-2zM136.8 32.1h3.2v1.3c.6-.8 1.4-1.5 2.7-1.5 1.9 0 3.1 1.3 3.1 3.3v6h-3.2v-4.9c0-1-.5-1.5-1.3-1.5s-1.3.5-1.3 1.5v4.9h-3.2v-9.1zM152.3 29.4h3.5l2.8 4.6 2.8-4.6h3.5v11.8h-3.2v-6.8l-3 4.6h-.1l-3-4.6v6.7h-3.2V29.4zM166.9 29.4h3.3v4.4h4.2v-4.4h3.3v11.8h-3.3v-4.5h-4.2v4.5h-3.3V29.4zM179.2 39.1l4.2-4.5h-4.1v-2.5h8.3v2.1l-4.2 4.5h4.2v2.5h-8.4v-2.1zM193.4 35.3c0-3.5 2.6-6.2 6.2-6.2 2.4 0 4 1 5 2.5l-2.5 1.9c-.7-.8-1.4-1.4-2.6-1.4-1.6 0-2.8 1.4-2.8 3.1 0 1.8 1.2 3.1 2.8 3.1 1.2 0 2-.6 2.7-1.4l2.5 1.8c-1.1 1.5-2.6 2.7-5.2 2.7-3.4 0-6.1-2.6-6.1-6.1zM205.9 28.9h3.2v4.4c.6-.8 1.4-1.4 2.7-1.4 1.9 0 3.1 1.3 3.1 3.3v6h-3.2v-4.9c0-1-.5-1.5-1.3-1.5s-1.3.5-1.3 1.5v4.9h-3.2V28.9zM216.2 36.7c0-2.6 2.1-4.8 5-4.8s5 2.1 5 4.7-2.1 4.8-5 4.8-5-2.1-5-4.7zm7 0c0-1.1-.8-2.1-1.9-2.1-1.2 0-1.9.9-1.9 2s.8 2.1 1.9 2.1c1.1 0 1.9-.9 1.9-2zM227.6 28.9h3.3v2.4h-3.3v-2.4zm.1 3.2h3.2v9.1h-3.2v-9.1zM232.3 36.7c0-2.6 2-4.8 4.9-4.8 1.9 0 3.1.8 3.9 2l-2.2 1.6c-.4-.6-.9-1-1.7-1-1 0-1.8.9-1.8 2 0 1.2.7 2.1 1.8 2.1.8 0 1.2-.4 1.8-.9l2.1 1.5c-.8 1.2-2.1 2.1-4.1 2.1-2.7.1-4.7-2-4.7-4.6zM241.7 36.7c0-2.7 1.9-4.8 4.6-4.8 3.1 0 4.6 2.3 4.6 5v.7h-6.1c.3 1 1 1.5 2 1.5.8 0 1.4-.3 2-.9l1.8 1.5c-.9 1.1-2.1 1.9-4 1.9-2.9-.2-4.9-2.1-4.9-4.9zm6.2-.8c-.1-1-.7-1.6-1.6-1.6-.8 0-1.4.7-1.6 1.6h3.2zM252 37.9h3.3v3.3H252v-3.3z"/></svg>