<svg id="Layer_1" xmlns="http://www.w3.org/2000/svg" viewBox="0 0 320 50"><style>.st0{fill:#490a09}</style><path class="st0" d="M11 12.5h3.3l-3.2 11.8H7.9L11 12.5zM15.6 15.2h3.2l-.3 1c.6-.6 1.5-1.2 2.5-1.2 1.2 0 2 .6 2.4 1.6.9-1 2-1.6 3.3-1.6 1.7 0 2.7 1 2.7 2.7 0 .5-.1 1.1-.3 1.6l-1.3 4.9h-3.2l1.3-4.8c.1-.2.1-.5.1-.7 0-.6-.3-1-1-1-.9 0-1.4.6-1.7 1.6L22 24.1h-3.2l1.3-4.8c.1-.2.1-.5.1-.7 0-.6-.3-1-1-1-.9 0-1.4.6-1.7 1.6L16.2 24H13l2.6-8.8zM31.8 15.2H35l-.3 1c.6-.6 1.5-1.2 2.5-1.2 1.2 0 2 .6 2.4 1.6.9-1 2-1.6 3.3-1.6 1.7 0 2.7 1 2.7 2.7 0 .5-.1 1.1-.3 1.6L44 24.2h-3.2l1.3-4.8c.1-.2.1-.5.1-.7 0-.6-.3-1-1-1-.9 0-1.4.6-1.7 1.6l-1.3 4.8H35l1.3-4.8c.1-.2.1-.5.1-.7 0-.6-.3-1-1-1-.9 0-1.4.6-1.7 1.6L32.4 24h-3.2l2.6-8.8zM46.1 22c0-2 1.6-3.2 4-3.2.8 0 1.6.1 2.3.4v-.1c0-.2.1-.3.1-.6 0-.6-.5-1-1.6-1-.9 0-1.8.2-2.5.5l-.4-2.4c1-.3 2.3-.6 3.6-.6 2.7 0 4.1 1.1 4.1 2.9 0 .4-.1.9-.2 1.3l-1.3 5H51l.3-1c-.8.7-1.6 1.2-2.6 1.2-1.6.1-2.6-.9-2.6-2.4zm5.9-1.1l.1-.3c-.4-.1-.8-.2-1.2-.2-1 0-1.7.5-1.7 1.3 0 .5.4.8.9.8.8 0 1.6-.7 1.9-1.6zM65.7 15.4h-3.5l.8-2.9h10.3l-.8 2.9H69l-2.4 8.9h-3.3l2.4-8.9zM70.7 22c0-2 1.6-3.2 4-3.2.8 0 1.6.1 2.3.4v-.1c0-.2.1-.3.1-.6 0-.6-.5-1-1.6-1-.9 0-1.8.2-2.5.5l-.5-2.3c1-.3 2.3-.6 3.6-.6 2.7 0 4.1 1.1 4.1 2.9 0 .4-.1.9-.2 1.3l-1.3 5h-3.1l.3-1c-.8.7-1.6 1.2-2.6 1.2-1.5 0-2.6-1-2.6-2.5zm5.9-1.1l.1-.3c-.4-.1-.8-.2-1.2-.2-1 0-1.7.5-1.7 1.3 0 .5.4.8.9.8.9 0 1.7-.7 1.9-1.6zM81.5 22.3c0-.4.1-.8.2-1.2l.9-3.4h-1.1l.7-2.6h1.1l.6-2.3h3.2l-.6 2.3h2.1l-.7 2.6h-2.1l-.8 2.9c-.1.2-.1.4-.1.6 0 .4.2.6.7.6.4 0 .7-.1 1.2-.3l-.7 2.7c-.6.2-1.2.3-1.9.3-1.8 0-2.7-.8-2.7-2.2zM88.7 22.3c0-.4.1-.8.2-1.2l.9-3.4h-1.1l.7-2.6h1.1l.6-2.3h3.2l-.6 2.3h2.1l-.7 2.6H93l-.8 2.9c-.1.2-.1.4-.1.6 0 .4.2.6.7.6.4 0 .7-.1 1.2-.3l-.7 2.7c-.6.2-1.2.3-1.9.3-1.8 0-2.7-.8-2.7-2.2zM95.1 22c0-2 1.6-3.2 4-3.2.8 0 1.6.1 2.3.4v-.1c0-.2.1-.3.1-.6 0-.6-.5-1-1.6-1-.9 0-1.8.2-2.5.5l-.5-2.3c1-.3 2.3-.6 3.6-.6 2.7 0 4.1 1.1 4.1 2.9 0 .4-.1.9-.2 1.3l-1.3 5H100l.3-1c-.8.7-1.6 1.2-2.6 1.2-1.5 0-2.6-1-2.6-2.5zm5.9-1.1l.1-.3c-.4-.1-.8-.2-1.2-.2-1 0-1.7.5-1.7 1.3 0 .5.4.8.9.8.9 0 1.7-.7 1.9-1.6zM107.2 15.2h3.2l-.5 1.8c.9-1.3 1.9-2.1 3.4-2l-.9 3.4h-.3c-1.8 0-2.9 1-3.5 3.1l-.7 2.7h-3.2l2.5-9zM112.1 22c0-2 1.6-3.2 4-3.2.8 0 1.6.1 2.3.4v-.1c0-.2.1-.3.1-.6 0-.6-.5-1-1.6-1-.9 0-1.8.2-2.5.5l-.5-2.3c1-.3 2.3-.6 3.6-.6 2.7 0 4.1 1.1 4.1 2.9 0 .4-.1.9-.2 1.3l-1.3 5H117l.3-1c-.8.7-1.6 1.2-2.6 1.2-1.5 0-2.6-1-2.6-2.5zm5.9-1.1l.1-.3c-.4-.1-.8-.2-1.2-.2-1 0-1.7.5-1.7 1.3 0 .5.4.8.9.8.9 0 1.7-.7 1.9-1.6zM124.2 15.2h3.2l-.3 1c.6-.7 1.5-1.2 2.6-1.2 1.6 0 2.6 1 2.6 2.7 0 .5-.1 1.1-.3 1.6l-1.3 4.9h-3.2l1.3-4.8c.1-.2.1-.5.1-.7 0-.6-.4-1-1-1-.9 0-1.4.6-1.7 1.6l-1.3 4.8h-3.2l2.5-8.9zM134.9 15.2h3.2l-2.4 9.1h-3.2l2.4-9.1zm.8-3.2h3.3l-.6 2.4h-3.3l.6-2.4zM138.4 21h3.3l-.9 3.3h-3.3l.9-3.3z"/></svg>