<svg id="Layer_1" xmlns="http://www.w3.org/2000/svg" xmlns:xlink="http://www.w3.org/1999/xlink" viewBox="0 0 320 50"><style>.st0,.st1{clip-path:url(#SVGID_00000057134834114996639670000006540589848965592459_);fill:#ac1f2d}.st1{fill:#fff}</style><defs><path id="SVGID_1_" d="M291 2.5h23.9v22.7H291z"/></defs><clipPath id="SVGID_00000070830663392854710600000017061373956104289448_"><use xlink:href="#SVGID_1_" overflow="visible"/></clipPath><path d="M313.4 14c0 5.8-4.7 10.4-10.4 10.4-5.8 0-10.4-4.7-10.4-10.4S297.2 3.6 303 3.6c5.8 0 10.4 4.7 10.4 10.4" clip-path="url(#SVGID_00000070830663392854710600000017061373956104289448_)" fill="#ac1f2d"/><path d="M307.2 12.1v1.2h1.4l-1.6 2.5h3.9v-1.2h-1.7l1.5-2.5h-3.5zm-7.8-1.5l-1.3 2.8-1.2-2.8h-1.8v5.2h1.4V13l1.3 2.8h.6l1.2-2.9v2.9h1.5v-5.2h-1.7zm5.7 0v1.8h-1.8v-1.8h-1.6v5.2h1.6v-2.1h1.8v2.1h1.6v-5.2h-1.6zM307.1 17.9h1.4v-.4h-.9v-.3h.8v-.4h-.8v-.3h.9v-.4h-1.4v1.8zm-1.2.1c.4 0 .6-.2.8-.4l-.4-.3c-.1.1-.2.2-.4.2s-.4-.2-.4-.5c0-.2.2-.5.4-.5s.3.1.4.2l.4-.3c-.2-.2-.4-.4-.7-.4-.5 0-.9.4-.9.9 0 .7.4 1.1.8 1.1m-1.7-.1h.5v-1.7h-.5v1.7zm-1.3-.4c-.3 0-.4-.2-.4-.5 0-.2.2-.5.4-.5.3 0 .4.2.4.5s-.2.5-.4.5m0 .5c.5 0 .9-.4.9-.9s-.4-.9-.9-.9-.9.4-.9.9c-.1.5.3.9.9.9m-2.9-.1h.5v-.7h.6v.7h.5v-1.7h-.5v.6h-.6v-.6h-.5v1.7zm-1.1.1c.4 0 .6-.2.8-.4l-.4-.3c-.1.1-.2.2-.4.2s-.4-.2-.4-.5c0-.2.2-.5.4-.5s.3.1.4.2l.4-.3c-.2-.2-.4-.4-.7-.4-.5 0-.9.4-.9.9-.1.7.3 1.1.8 1.1" clip-path="url(#SVGID_00000070830663392854710600000017061373956104289448_)" fill="#fff"/></svg>