<svg id="Layer_1" xmlns="http://www.w3.org/2000/svg" viewBox="0 0 728 90"><style>.st0{fill:#490a09}</style><path class="st0" d="M69 28.9c0-8.9 7.3-16.8 18-16.8 5.6 0 9.7 2.3 11.6 4.8l-5.2 5c-1.6-1.6-3.9-2.9-6.9-2.9-5.6 0-9.5 4.4-9.5 9.5 0 3.9 2.8 6 6.3 6 1.6 0 2.8-.3 3.7-.8l1.1-3.8h-5.4l1.5-5.7H97l-4 14.1c-2.8 1.6-6.4 2.8-10.5 2.8-6.7.2-13.5-3.6-13.5-12.2zM104.6 11.5h7.6l-7.8 29.2h-7.6l7.8-29.2zM110.7 31.2c0-6.5 5.5-12.6 12.7-12.6 6.6 0 10.6 4.4 10.6 10 0 6.6-5.5 12.6-12.8 12.6-6.5 0-10.5-4.3-10.5-10zm16.1-2.3c0-2.4-1.5-4-3.8-4-3 0-5 3.2-5 6 0 2.5 1.5 4 3.8 4 3 0 5-3.1 5-6zM140.2 19.1h7.6l-1.2 4.4c2.1-3.1 4.6-5 8.1-4.7l-2.2 8h-.5c-4.2 0-6.8 2.3-8.2 7.5l-1.8 6.5h-7.6l5.8-21.7zM157.6 19.1h7.6l-5.8 21.6h-7.6l5.8-21.6zm1.9-7.6h7.9l-1.5 5.6H158l1.5-5.6zM164.6 35.3c0-4.8 3.8-7.6 9.5-7.6 2 0 3.8.3 5.5.8l.1-.3c.1-.4.2-.8.2-1.3 0-1.4-1.1-2.3-3.7-2.3-2 0-4.3.5-5.8 1.1l-1.1-5.5c2.3-.8 5.4-1.3 8.5-1.3 6.5 0 9.6 2.6 9.6 6.9 0 1-.2 2-.4 3.1l-3.2 11.9h-7.5l.6-2.3c-1.8 1.7-3.7 2.8-6.2 2.8-3.7-.1-6.1-2.4-6.1-6zm14-2.7l.2-.7c-.8-.3-1.8-.5-2.8-.5-2.4 0-4 1.2-4 3.1 0 1.2.9 2 2.2 2 1.9 0 3.8-1.7 4.4-3.9z"/><g><path class="st0" d="M190.1 32.9h7.9v7.8h-7.9v-7.8z"/></g></svg>