<svg id="Layer_1" xmlns="http://www.w3.org/2000/svg" viewBox="0 0 728 90"><style>.st0{fill:#490a09}</style><path class="st0" d="M77 55.5h-8.4v-6.8h24.6v6.8h-8.4v21.2H77V55.5zM96.1 47.5h7.6V58c1.4-1.8 3.4-3.4 6.5-3.4 4.6 0 7.4 3 7.4 8v14.2H110V65c0-2.4-1.2-3.6-3-3.6s-3.2 1.3-3.2 3.6v11.7h-7.6V47.5zM120.6 66c0-6.4 4.5-11.4 10.9-11.4 7.5 0 10.9 5.5 10.9 11.8V68h-14.5c.6 2.4 2.3 3.6 4.7 3.6 1.8 0 3.2-.7 4.8-2.2l4.2 3.5c-2.1 2.6-5.1 4.4-9.4 4.4-6.8-.1-11.6-4.6-11.6-11.3zm14.7-1.9c-.3-2.4-1.7-3.9-3.8-3.9-2 0-3.4 1.6-3.8 3.9h7.6zM156.8 55.1h7.6v3c1.4-1.8 3.4-3.5 6.5-3.5 4.6 0 7.4 3 7.4 8v14.2h-7.6V65c0-2.4-1.2-3.6-3-3.6s-3.2 1.3-3.2 3.6v11.7h-7.6V55.1zM181.2 66c0-6.4 4.5-11.4 10.9-11.4 7.5 0 10.9 5.5 10.9 11.8V68h-14.5c.6 2.4 2.3 3.6 4.7 3.6 1.8 0 3.2-.7 4.8-2.2l4.2 3.5c-2.1 2.6-5.1 4.4-9.4 4.4-6.8-.1-11.6-4.6-11.6-11.3zm14.8-1.9c-.3-2.4-1.7-3.9-3.8-3.9-2 0-3.4 1.6-3.8 3.9h7.6zM203.8 55.1h7.4L214 66l3.3-11h6.3l3.4 11 2.9-11h7.3l-6.7 21.8H224l-3.5-11.2-3.6 11.2h-6.5l-6.6-21.7zM251.3 48.7h22.4v6.8H259v4.8h13.2v6.4H259v10h-7.8v-28zM276.8 55.1h7.6v4.4c1.2-3 3.2-4.9 6.8-4.7v8h-.6c-4 0-6.2 2.3-6.2 7.3v6.7h-7.6V55.1zM292.6 66c0-6.4 4.5-11.4 10.9-11.4 7.5 0 10.9 5.5 10.9 11.8V68H300c.6 2.4 2.3 3.6 4.7 3.6 1.8 0 3.2-.7 4.8-2.2l4.2 3.5c-2.1 2.6-5.1 4.4-9.4 4.4-6.9-.1-11.7-4.6-11.7-11.3zm14.8-1.9c-.3-2.4-1.7-3.9-3.8-3.9-2 0-3.4 1.6-3.8 3.9h7.6zM317.7 55.1h7.6v3c1.4-1.8 3.4-3.5 6.5-3.5 4.6 0 7.4 3 7.4 8v14.2h-7.6V65c0-2.4-1.2-3.6-3-3.6s-3.2 1.3-3.2 3.6v11.7h-7.6V55.1zM342.2 66c0-6.2 4.8-11.4 11.6-11.4 4.4 0 7.4 1.9 9.2 4.8l-5.2 3.8c-1-1.4-2.2-2.3-4-2.3-2.4 0-4.2 2.2-4.2 4.8v.1c0 2.8 1.8 4.9 4.3 4.9 1.8 0 3-.8 4.2-2.2l5.1 3.7c-2 3-4.9 5-9.6 5-6.6 0-11.4-5.1-11.4-11.2zM365.8 47.5h7.6V58c1.4-1.8 3.4-3.4 6.5-3.4 4.6 0 7.4 3 7.4 8v14.2h-7.6V65c0-2.4-1.2-3.6-3-3.6s-3.2 1.3-3.2 3.6v11.7h-7.6V47.5zM403.6 70v-8.8H401v-6.1h2.6v-5.5h7.6v5.5h5v6.1h-5v7.3c0 1.5.7 2.2 2.1 2.2 1 0 2-.3 2.9-.7v6c-1.4.8-3.2 1.2-5.3 1.2-4.6 0-7.3-2-7.3-7.2zM419.5 47.5h7.6V58c1.4-1.8 3.4-3.4 6.5-3.4 4.6 0 7.4 3 7.4 8v14.2h-7.6V65c0-2.4-1.2-3.6-3-3.6s-3.2 1.3-3.2 3.6v11.7h-7.6V47.5zM444.9 55.1h7.6v4.4c1.2-3 3.2-4.9 6.8-4.7v8h-.6c-4 0-6.2 2.3-6.2 7.3v6.7h-7.6V55.1zM462 47.5h7.9v5.6H462v-5.6zm.2 7.6h7.6v21.6h-7.6V55.1zM474.2 47.5h7.6v29.2h-7.6V47.5zM486.2 47.5h7.6v29.2h-7.6V47.5zM497.1 66c0-6.4 4.5-11.4 10.9-11.4 7.5 0 10.9 5.5 10.9 11.8V68h-14.5c.6 2.4 2.3 3.6 4.7 3.6 1.8 0 3.2-.7 4.8-2.2l4.2 3.5c-2.1 2.6-5.1 4.4-9.4 4.4-6.8-.1-11.6-4.6-11.6-11.3zm14.7-1.9c-.3-2.4-1.7-3.9-3.8-3.9-2 0-3.4 1.6-3.8 3.9h7.6zM522.2 55.1h7.6v4.4c1.2-3 3.2-4.9 6.8-4.7v8h-.6c-4 0-6.2 2.3-6.2 7.3v6.7h-7.6V55.1zM536.4 68.9h7.9v7.8h-7.9v-7.8z"/></svg>