<svg id="Layer_1" xmlns="http://www.w3.org/2000/svg" viewBox="0 0 728 90"><style>.st0{fill:#490a09}</style><path class="st0" d="M68.7 20.5h15.4c3.8 0 6.5.9 8.2 2.7 1.2 1.2 1.9 2.8 1.9 4.9v.1c0 3.5-2 5.5-4.6 6.7 3.7 1.2 6 3.3 6 7.4v.1c0 5.2-4.2 8.3-11.4 8.3H68.7V20.5zm13.3 12c2.5 0 4-.9 4-2.6v-.1c0-1.6-1.3-2.6-3.8-2.6h-5.4v5.3H82zm1.2 11.4c2.5 0 4-1 4-2.8V41c0-1.6-1.3-2.7-4.1-2.7h-6.4v5.5h6.5zM98 39c0-6.9 4.9-12.3 11.7-12.3 8 0 11.7 5.9 11.7 12.7v1.7h-15.6c.6 2.5 2.5 3.8 5 3.8 1.9 0 3.5-.7 5.2-2.4l4.5 3.7c-2.2 2.8-5.5 4.7-10.1 4.7-7.2.2-12.4-4.6-12.4-11.9zm15.8-2c-.3-2.6-1.8-4.2-4-4.2-2.1 0-3.6 1.7-4 4.2h8zM125 19.2h8.2v11.3c1.5-1.9 3.7-3.7 7-3.7 4.9 0 7.9 3.3 7.9 8.6v15.2h-8.2V38c0-2.5-1.3-3.9-3.3-3.9-2 0-3.4 1.4-3.4 3.9v12.6H125V19.2zM152.2 19.2h8.5v6h-8.5v-6zm.2 8.1h8.2v23.3h-8.2V27.3zM165.1 27.3h8.2v3.3c1.5-1.9 3.7-3.8 7-3.8 4.9 0 7.9 3.3 7.9 8.6v15.2H180V38c0-2.5-1.3-3.9-3.3-3.9-2 0-3.4 1.4-3.4 3.9v12.6h-8.2V27.3zM191.5 39c0-7.7 4.7-12.3 10.2-12.3 3.5 0 5.6 1.6 7.1 3.4v-11h8.2v31.4h-8.2v-3.1c-1.6 1.9-3.6 3.6-7.1 3.6-5.4.1-10.2-4.5-10.2-12zm17.5 0c0-3.1-2.1-5.3-4.7-5.3s-4.8 2.1-4.8 5.2v.1c0 3.1 2.1 5.3 4.8 5.3 2.6-.1 4.7-2.3 4.7-5.3zM232.4 39c0-6.9 4.9-12.3 11.7-12.3 8 0 11.7 5.9 11.7 12.7v1.7h-15.6c.6 2.5 2.5 3.8 5 3.8 1.9 0 3.5-.7 5.2-2.4l4.5 3.7c-2.2 2.8-5.5 4.7-10.1 4.7-7.2.2-12.4-4.6-12.4-11.9zm15.8-2c-.3-2.6-1.8-4.2-4-4.2-2.1 0-3.6 1.7-4 4.2h8zM256.5 27.3h8.6l4.5 13.6 4.5-13.6h8.5l-9.3 23.4h-7.4l-9.4-23.4zM282.9 39c0-6.9 4.9-12.3 11.7-12.3 8 0 11.7 5.9 11.7 12.7v1.7h-15.6c.6 2.5 2.5 3.8 5 3.8 1.9 0 3.5-.7 5.2-2.4l4.5 3.7c-2.2 2.8-5.5 4.7-10.1 4.7-7.3.2-12.4-4.6-12.4-11.9zm15.8-2c-.3-2.6-1.8-4.2-4-4.2-2.1 0-3.6 1.7-4 4.2h8zM309.9 27.3h8.2V32c1.3-3.2 3.5-5.2 7.4-5.1v8.6h-.7c-4.3 0-6.7 2.5-6.7 7.8v7.2h-8.2V27.3zM327.7 55.5l2.5-5.7c1.3.8 2.7 1.2 3.6 1.2.8 0 1.4-.2 1.9-.9l-9.1-22.8h8.6l4.6 14 4.4-14h8.4L344 50c-2 5.4-4.2 7.6-8.9 7.6-2.8 0-5.3-.8-7.4-2.1zM367.1 27.3h8.2v3.1c1.6-1.9 3.6-3.6 7.1-3.6 5.5 0 10.3 4.6 10.3 12v.1c0 7.6-4.8 12.2-10.3 12.2-3.5 0-5.6-1.6-7.1-3.4v9.7h-8.2V27.3zM384.6 39c0-3.1-2.1-5.3-4.8-5.3-2.6 0-4.7 2.2-4.7 5.2v.1c0 3.1 2.1 5.3 4.7 5.3 2.7-.1 4.8-2.2 4.8-5.3zM395.2 39c0-6.9 4.9-12.3 11.7-12.3 8 0 11.7 5.9 11.7 12.7v1.7H403c.6 2.5 2.5 3.8 5 3.8 1.9 0 3.5-.7 5.2-2.4l4.5 3.7c-2.2 2.8-5.5 4.7-10.1 4.7-7.2.2-12.4-4.6-12.4-11.9zm15.8-2c-.3-2.6-1.8-4.2-4-4.2-2.1 0-3.6 1.7-4 4.2h8zM422.2 27.3h8.2V32c1.3-3.2 3.5-5.2 7.4-5.1v8.6h-.8c-4.3 0-6.7 2.5-6.7 7.8v7.2h-8.2V27.3zM442 33.8h-2.7v-6.4h2.7v-.5c0-2.7.6-4.6 2-6 1.4-1.4 3.3-2 6.1-2 2.5 0 4 .3 5.3.6v5.8c-.9-.3-1.9-.5-3.1-.5-1.5 0-2.3.7-2.3 2.2v.6h5.3v6.3h-5.2v16.7H442V33.8zM456.6 39c0-6.9 4.9-12.3 11.7-12.3 8 0 11.7 5.9 11.7 12.7v1.7h-15.6c.6 2.5 2.5 3.8 5 3.8 1.9 0 3.5-.7 5.2-2.4l4.5 3.7c-2.2 2.8-5.5 4.7-10.1 4.7-7.2.2-12.4-4.6-12.4-11.9zm15.8-2c-.3-2.6-1.8-4.2-4-4.2-2.1 0-3.6 1.7-4 4.2h8zM482.6 39c0-6.7 5.1-12.2 12.5-12.2 4.8 0 8 2.1 9.9 5.2l-5.5 4.1c-1.1-1.5-2.4-2.5-4.3-2.5-2.6 0-4.6 2.3-4.6 5.2v.2c0 3 1.9 5.3 4.6 5.3 1.9 0 3.2-.9 4.5-2.4l5.5 4c-2.1 3.2-5.2 5.3-10.4 5.3-7-.1-12.2-5.6-12.2-12.2zM509.5 43.3v-9.5h-2.8v-6.6h2.8v-5.9h8.2v5.9h5.4v6.6h-5.4v7.9c0 1.6.7 2.3 2.2 2.3 1.1 0 2.1-.3 3.1-.8v6.4c-1.5.8-3.4 1.3-5.7 1.3-4.9.1-7.8-2-7.8-7.6z"/><g><path class="st0" d="M538.6 19.2h8.2v31.4h-8.2V19.2zM551.3 19.2h8.5v6h-8.5v-6zm.2 8.1h8.2v23.3h-8.2V27.3zM565.7 33.8H563v-6.4h2.7v-.5c0-2.7.6-4.6 2-6 1.4-1.4 3.3-2 6.1-2 2.5 0 4 .3 5.3.6v5.8c-.9-.3-1.9-.5-3.1-.5-1.5 0-2.3.7-2.3 2.2v.6h5.3v6.3h-5.2v16.7h-8.1V33.8zM580.2 39c0-6.9 4.9-12.3 11.7-12.3 8 0 11.7 5.9 11.7 12.7v1.7H588c.6 2.5 2.5 3.8 5 3.8 1.9 0 3.5-.7 5.2-2.4l4.5 3.7c-2.2 2.8-5.5 4.7-10.1 4.7-7.2.2-12.4-4.6-12.4-11.9zm15.8-2c-.3-2.6-1.8-4.2-4-4.2-2.1 0-3.6 1.7-4 4.2h8z"/></g></svg>