<?xml version="1.0" encoding="utf-8"?>
<!-- Generator: Adobe Illustrator 25.4.1, SVG Export Plug-In . SVG Version: 6.00 Build 0)  -->
<svg version="1.1" id="Layer_1" xmlns="http://www.w3.org/2000/svg" xmlns:xlink="http://www.w3.org/1999/xlink" x="0px" y="0px"
	 viewBox="0 0 970 250" style="enable-background:new 0 0 970 250;" xml:space="preserve">
<style type="text/css">
	.st0{fill:#490A09;}
</style>
<g>
	<path class="st0" d="M55.3,72.5H37.9v-14h50.7v14H71.3v43.8h-16V72.5z"/>
	<path class="st0" d="M91,58.5H109l13.1,36.6l13.1-36.6h17.6l-23.5,58.3h-14.9L91,58.5z"/>
	<path class="st0" d="M178.6,94.2V94c0-12.6,9.8-23.3,24-23.3c9.2,0,15.3,4,19.1,10L211,88.7c-2.1-3-4.5-4.7-8.3-4.7
		c-5,0-8.8,4.5-8.8,9.9V94c0,5.8,3.6,10.2,8.9,10.2c3.7,0,6.1-1.7,8.6-4.6l10.5,7.6c-4.1,6.1-10.1,10.2-19.9,10.2
		C188.6,117.4,178.6,106.8,178.6,94.2z"/>
	<path class="st0" d="M227.5,71.6h15.7v9c2.6-6.1,6.7-10.1,14.1-9.8v16.5H256c-8.2,0-12.8,4.7-12.8,15v13.9h-15.7V71.6z"/>
	<path class="st0" d="M262.8,56h16.4v11.6h-16.4V56z M263.2,71.6h15.7v44.7h-15.7V71.6z"/>
	<path class="st0" d="M290.4,102.5V84.3h-5.3V71.6h5.3V60.3h15.7v11.3h10.4v12.6h-10.4v15.1c0,3.1,1.4,4.5,4.3,4.5
		c2.1,0,4-0.6,6-1.5v12.3c-2.8,1.6-6.5,2.6-10.9,2.6C296,117.3,290.4,113.1,290.4,102.5z"/>
	<path class="st0" d="M323.3,56h16.4v11.6h-16.4V56z M323.6,71.6h15.7v44.7h-15.7V71.6z"/>
	<path class="st0" d="M346.2,94.2V94c0-12.6,9.8-23.3,24-23.3c9.2,0,15.3,4,19.1,10l-10.7,7.9c-2.1-3-4.5-4.7-8.3-4.7
		c-5,0-8.8,4.5-8.8,9.9V94c0,5.8,3.6,10.2,8.9,10.2c3.7,0,6.1-1.7,8.6-4.6l10.5,7.6c-4.1,6.1-10.1,10.2-19.9,10.2
		C356.1,117.4,346.2,106.8,346.2,94.2z"/>
	<path class="st0" d="M391.7,110.7l5.9-9.5c5.1,3.4,10.7,5.1,15.4,5.1c2.7,0,4-0.8,4-2.4v-0.2c0-1.7-2.5-2.5-7.2-3.8
		c-8.8-2.3-15.9-5.3-15.9-14.3v-0.2c0-9.5,7.6-14.8,17.9-14.8c6.5,0,13.3,1.9,18.4,5.2l-5.4,9.9c-4.6-2.6-9.7-4.1-13.2-4.1
		c-2.4,0-3.6,0.9-3.6,2.1V84c0,1.7,2.6,2.6,7.3,4c8.8,2.5,15.9,5.5,15.9,14.2v0.2c0,9.8-7.4,15-18.3,15
		C405.3,117.3,397.9,115.2,391.7,110.7z"/>
</g>
<g>
	<path class="st0" d="M38.4,170v-0.2c0-12.6,9.8-23.3,24-23.3c9.2,0,15.3,4,19.1,10l-10.7,7.9c-2.1-3-4.5-4.7-8.3-4.7
		c-5,0-8.8,4.5-8.8,9.9v0.2c0,5.8,3.6,10.2,8.9,10.2c3.7,0,6.1-1.7,8.6-4.6l10.5,7.6c-4.1,6.1-10.1,10.2-19.9,10.2
		C48.3,193.2,38.4,182.6,38.4,170z"/>
	<path class="st0" d="M87.2,131.8h15.7v21.7c2.9-3.7,7-7.1,13.4-7.1c9.5,0,15.2,6.3,15.2,16.4v29.3h-15.7v-24.2
		c0-4.9-2.6-7.5-6.3-7.5c-3.8,0-6.6,2.6-6.6,7.5v24.2H87.2V131.8z"/>
	<path class="st0" d="M137.8,170v-0.2c0-13.1,9.3-23.4,22.6-23.4c15.5,0,22.6,11.3,22.6,24.5c0,1,0,2.1-0.1,3.2h-29.9
		c1.2,4.9,4.8,7.4,9.7,7.4c3.7,0,6.7-1.4,9.9-4.5l8.7,7.2c-4.3,5.5-10.5,9.1-19.4,9.1C147.7,193.2,137.8,183.9,137.8,170z
		 M168.2,166.1c-0.6-5-3.5-8.1-7.8-8.1c-4.1,0-6.9,3.2-7.8,8.1H168.2z"/>
	<path class="st0" d="M187.8,170v-0.2c0-13.1,9.3-23.4,22.6-23.4c15.5,0,22.6,11.3,22.6,24.5c0,1,0,2.1-0.1,3.2h-29.9
		c1.2,4.9,4.8,7.4,9.7,7.4c3.7,0,6.7-1.4,9.9-4.5l8.7,7.2c-4.3,5.5-10.5,9.1-19.4,9.1C197.7,193.2,187.8,183.9,187.8,170z
		 M218.2,166.1c-0.6-5-3.5-8.1-7.8-8.1c-4.1,0-6.9,3.2-7.8,8.1H218.2z"/>
	<path class="st0" d="M239.6,147.4h15.7v9c2.6-6.1,6.7-10.1,14.1-9.8v16.5h-1.3c-8.2,0-12.8,4.7-12.8,15v13.9h-15.7V147.4z"/>
	<path class="st0" d="M272.3,170v-0.2c0-13.1,9.3-23.4,22.6-23.4c15.5,0,22.6,11.3,22.6,24.5c0,1,0,2.1-0.1,3.2h-29.9
		c1.2,4.9,4.8,7.4,9.7,7.4c3.7,0,6.7-1.4,9.9-4.5l8.7,7.2c-4.3,5.5-10.5,9.1-19.4,9.1C282.3,193.2,272.3,183.9,272.3,170z
		 M302.8,166.1c-0.6-5-3.5-8.1-7.8-8.1c-4.1,0-6.9,3.2-7.8,8.1H302.8z"/>
	<path class="st0" d="M322.5,170v-0.2c0-14.5,9.1-23.4,19.7-23.4c6.8,0,10.7,3.1,13.7,6.4v-21.1h15.7v60.3h-15.7v-6
		c-3.1,3.7-6.9,6.9-13.6,6.9C331.7,193.1,322.5,184.3,322.5,170z M356.1,169.8v-0.2c0-5.9-4-10.1-9.1-10.1s-9.2,4.1-9.2,10.1v0.2
		c0,6,4.1,10.2,9.2,10.2S356.1,175.8,356.1,169.8z"/>
	<path class="st0" d="M379.4,176h16.4v16.1h-16.4V176z"/>
</g>
</svg>
