<?xml version="1.0" encoding="utf-8"?>
<!-- Generator: Adobe Illustrator 25.4.1, SVG Export Plug-In . SVG Version: 6.00 Build 0)  -->
<svg version="1.1" id="Layer_1" xmlns="http://www.w3.org/2000/svg" xmlns:xlink="http://www.w3.org/1999/xlink" x="0px" y="0px"
	 viewBox="0 0 970 250" style="enable-background:new 0 0 970 250;" xml:space="preserve">
<style type="text/css">
	.st0{fill:#490A09;}
</style>
<g>
	<path class="st0" d="M69.9,95.2h15l8.6,55.6H77.4l-1.3-9.9H54.8l-6.6,9.9H31.5L69.9,95.2z M74.8,129.1l-2-15.9l-10.3,15.9H74.8z"/>
	<path class="st0" d="M134.2,95.6h44.2l-3.6,13.4H146l-2.5,9.4h26l-3.4,12.7h-26l-5.3,19.7h-15.4L134.2,95.6z"/>
	<path class="st0" d="M181.5,108.2h15l-2.3,8.6c4.1-6.1,9.1-9.8,16-9.3l-4.3,15.8h-1.3c-8.2,0-13.5,4.6-16.2,14.8l-3.5,12.9h-15
		L181.5,108.2z"/>
	<path class="st0" d="M229.7,140.7c3.1,0,5.8-1,9.1-3.4l6.9,8.2c-4.3,3.8-10,6.4-17.4,6.4c-12.6,0-20.4-7.4-20.4-18.9
		c0-12.6,9.9-25.7,25.6-25.7c12.6,0,18.1,8.4,18.1,17.7c0,2.9-0.6,6-1.7,8.8h-28.3C222,137.9,224.5,140.7,229.7,140.7z M237.9,126
		c0.2-0.7,0.4-1.5,0.4-2.3c0-2.9-1.9-5.4-5.8-5.4c-4,0-8,2.6-9.8,7.7H237.9z"/>
	<path class="st0" d="M262.9,108.2h15l-1.3,4.9c2.9-3.1,7.2-5.8,12.2-5.8c7.7,0,12.4,4.9,12.4,12.8c0,2.3-0.6,5-1.3,7.7l-6.2,23.2
		h-15l6-22.3c0.3-1.1,0.5-2.5,0.5-3.5c0-2.8-1.7-4.5-4.7-4.5c-4.2,0-6.6,2.8-8,7.7l-6.1,22.6h-15L262.9,108.2z"/>
	<path class="st0" d="M305,133.2c0-14.4,11.4-25.9,25.6-25.9c9.9,0,15.9,5.1,18.1,11.7l-11.8,6.1c-1.4-3.3-3.5-5.4-7.3-5.4
		c-5.7,0-10.3,6.2-10.3,12.7c0,4.3,2.8,7.1,6.5,7.1c3.2,0,5.4-1.3,8-3.9l9.2,8c-4.3,5-9.7,8.4-18.2,8.4
		C313.4,151.9,305,144.7,305,133.2z"/>
	<path class="st0" d="M360.9,93.3h15l-5.3,19.8c2.9-3.1,7.2-5.8,12.2-5.8c7.7,0,12.4,4.9,12.4,12.8c0,2.3-0.6,5-1.3,7.7l-6.2,23.2
		h-15l6-22.3c0.3-1.1,0.5-2.5,0.5-3.5c0-2.8-1.7-4.5-4.7-4.5c-4.2,0-6.6,2.8-8,7.7l-6.1,22.6h-15L360.9,93.3z"/>
	<path class="st0" d="M427.5,95.6h16.7l3.1,34.7L469,95.6h17.3l-37.2,55.6h-14.3L427.5,95.6z"/>
	<path class="st0" d="M486.5,108.2h15L490,150.9h-15L486.5,108.2z M490.3,93.3h15.6l-3,11h-15.6L490.3,93.3z"/>
	<path class="st0" d="M514.3,93.3h15l-15.5,57.6h-15L514.3,93.3z"/>
	<path class="st0" d="M538,93.3h15l-15.5,57.6h-15L538,93.3z"/>
	<path class="st0" d="M547.7,140.1c0-9.4,7.5-15.1,18.8-15.1c3.9,0,7.4,0.6,10.8,1.7l0.2-0.6c0.2-0.7,0.4-1.6,0.4-2.6
		c0-2.8-2.1-4.6-7.3-4.6c-4,0-8.5,0.9-11.5,2.1l-2.1-10.9c4.5-1.6,10.7-2.6,16.8-2.6c12.8,0,19,5,19,13.6c0,2-0.3,4-0.9,6.2
		l-6.3,23.5h-14.8l1.2-4.6c-3.6,3.4-7.3,5.4-12.3,5.4C552.6,151.7,547.7,147.2,547.7,140.1z M575.3,134.8l0.4-1.4
		c-1.7-0.6-3.5-0.9-5.6-0.9c-4.7,0-7.8,2.3-7.8,6.2c0,2.4,1.7,3.9,4.3,3.9C570.4,142.5,574.1,139.1,575.3,134.8z"/>
	<path class="st0" d="M591,157.8l6.7-9.4c4.8,2.9,10.3,4.4,15.1,4.4c3.9,0,6.7-1,8.8-3.2c1.6-1.6,2.7-3.8,3.5-6.9l0.2-0.9
		c-3.8,3.4-7.7,5.2-12.9,5.2c-7.7,0-15.2-5.2-15.2-14.8c0-13.3,9.7-25,22.4-25c6.5,0,10.6,3.2,12.9,6.9l1.6-6.1h15l-9.1,33.9
		c-2.1,7.7-4.1,11.8-7.6,15.3c-4.3,4.2-10.2,6.2-19.1,6.2C605.3,163.6,596.5,161.3,591,157.8z M629.3,125.9c0-3.9-2.8-6.8-7.1-6.8
		c-5.8,0-9.9,5.1-9.9,10.6c0,4,2.8,6.5,6.9,6.5C624.9,136.3,629.3,131.3,629.3,125.9z"/>
	<path class="st0" d="M671.4,140.7c3.1,0,5.8-1,9.1-3.4l6.9,8.2c-4.3,3.8-10,6.4-17.4,6.4c-12.6,0-20.4-7.4-20.4-18.9
		c0-12.6,9.9-25.7,25.6-25.7c12.6,0,18.1,8.4,18.1,17.7c0,2.9-0.6,6-1.7,8.8h-28.3C663.7,137.9,666.3,140.7,671.4,140.7z M679.7,126
		c0.2-0.7,0.4-1.5,0.4-2.3c0-2.9-1.9-5.4-5.8-5.4c-4,0-8,2.6-9.8,7.7H679.7z"/>
</g>
<g>
	<path class="st0" d="M696.4,158.1c5.3-0.6,8-3.2,7.9-7.4h-6.1v-15.4h15.6v12.5c0,11.7-6.4,15.7-16.3,16L696.4,158.1z"/>
</g>
<g>
	<path class="st0" d="M38.3,201.3v-0.2c0-12.1,9.9-22.3,23.7-22.3c13.6,0,23.5,10,23.5,22.2v0.2c0,12.1-9.9,22.3-23.7,22.3
		C48.1,223.5,38.3,213.5,38.3,201.3z M70.9,201.3v-0.2c0-5.2-3.8-9.6-9.1-9.6c-5.4,0-8.9,4.3-8.9,9.5v0.2c0,5.2,3.8,9.6,9.1,9.6
		C67.4,210.8,70.9,206.5,70.9,201.3z"/>
	<path class="st0" d="M91.8,179.8h15v6c2.8-3.5,6.7-6.9,12.8-6.9c9.1,0,14.5,6,14.5,15.7v27.9h-15v-23.1c0-4.7-2.4-7.2-6-7.2
		c-3.6,0-6.3,2.5-6.3,7.2v23.1h-15V179.8z"/>
	<path class="st0" d="M164.5,167.3h16.2l13.2,21.4l13.2-21.4h16.2v55.2H208v-31.7l-14.1,21.6h-0.3l-14-21.5v31.6h-15V167.3z"/>
	<path class="st0" d="M233,167.3h15.3v20.7h19.6v-20.7h15.3v55.2h-15.3v-21h-19.6v21H233V167.3z"/>
	<path class="st0" d="M290.6,212.6l19.7-20.9h-19v-11.9h38.9v9.9l-19.8,20.9h19.8v11.9h-39.6V212.6z"/>
	<path class="st0" d="M357.4,195v-0.2c0-16.1,12.4-28.7,29.1-28.7c11.3,0,18.5,4.7,23.4,11.5l-11.5,8.9c-3.2-3.9-6.8-6.5-12.1-6.5
		c-7.7,0-13.2,6.5-13.2,14.6v0.2c0,8.3,5.4,14.8,13.2,14.8c5.8,0,9.2-2.7,12.5-6.7l11.5,8.2c-5.2,7.2-12.2,12.5-24.5,12.5
		C370.1,223.6,357.4,211.5,357.4,195z"/>
	<path class="st0" d="M416,164.9h15v20.7c2.8-3.5,6.7-6.8,12.8-6.8c9.1,0,14.5,6,14.5,15.7v27.9h-15v-23.1c0-4.7-2.4-7.2-6-7.2
		c-3.6,0-6.3,2.5-6.3,7.2v23.1h-15V164.9z"/>
	<path class="st0" d="M464.3,201.3v-0.2c0-12.1,9.9-22.3,23.7-22.3c13.6,0,23.5,10,23.5,22.2v0.2c0,12.1-9.9,22.3-23.7,22.3
		C474.1,223.5,464.3,213.5,464.3,201.3z M496.8,201.3v-0.2c0-5.2-3.8-9.6-9.1-9.6c-5.4,0-8.9,4.3-8.9,9.5v0.2c0,5.2,3.8,9.6,9.1,9.6
		C493.4,210.8,496.8,206.5,496.8,201.3z"/>
	<path class="st0" d="M517.7,164.9h15.6v11h-15.6V164.9z M518.1,179.8h15v42.7h-15V179.8z"/>
	<path class="st0" d="M539.7,201.3v-0.2c0-12.1,9.4-22.2,22.9-22.2c8.8,0,14.6,3.8,18.2,9.5l-10.2,7.6c-2.1-2.8-4.3-4.5-8-4.5
		c-4.8,0-8.4,4.3-8.4,9.5v0.2c0,5.5,3.5,9.7,8.5,9.7c3.5,0,5.8-1.7,8.2-4.4l10,7.3c-3.9,5.8-9.6,9.8-19,9.8
		C549.1,223.5,539.7,213.4,539.7,201.3z"/>
	<path class="st0" d="M583.4,201.3v-0.2c0-12.5,8.9-22.3,21.5-22.3c14.8,0,21.5,10.8,21.5,23.4c0,0.9,0,2.1-0.1,3.1h-28.6
		c1.2,4.7,4.6,7,9.2,7c3.5,0,6.4-1.3,9.5-4.3l8.3,6.9c-4.1,5.2-10,8.7-18.5,8.7C592.9,223.5,583.4,214.6,583.4,201.3z M612.5,197.6
		c-0.6-4.7-3.3-7.7-7.4-7.7c-3.9,0-6.6,3.1-7.4,7.7H612.5z"/>
	<path class="st0" d="M632,207.1h15.6v15.4H632V207.1z"/>
</g>
</svg>
