<?xml version="1.0" encoding="utf-8"?>
<!-- Generator: Adobe Illustrator 25.4.1, SVG Export Plug-In . SVG Version: 6.00 Build 0)  -->
<svg version="1.1" id="Layer_1" xmlns="http://www.w3.org/2000/svg" xmlns:xlink="http://www.w3.org/1999/xlink" x="0px" y="0px"
	 viewBox="0 0 970 250" style="enable-background:new 0 0 970 250;" xml:space="preserve">
<style type="text/css">
	.st0{clip-path:url(#SVGID_00000062893679819845721240000017773275648496994730_);fill:#AC1F2D;}
	.st1{clip-path:url(#SVGID_00000062893679819845721240000017773275648496994730_);fill:#FFFFFF;}
</style>
<g>
	<defs>
		<rect id="SVGID_1_" x="843.4" y="11" width="106" height="100.3"/>
	</defs>
	<clipPath id="SVGID_00000063604681950726713180000008110987481184183448_">
		<use xlink:href="#SVGID_1_"  style="overflow:visible;"/>
	</clipPath>
	<path style="clip-path:url(#SVGID_00000063604681950726713180000008110987481184183448_);fill:#AC1F2D;" d="M942.6,62
		c0,25.5-20.7,46.2-46.2,46.2c-25.5,0-46.2-20.7-46.2-46.2s20.7-46.2,46.2-46.2C921.9,15.8,942.6,36.5,942.6,62"/>
	<path style="clip-path:url(#SVGID_00000063604681950726713180000008110987481184183448_);fill:#FFFFFF;" d="M914.8,53.6v5.3h6
		l-7.1,11.1h17.5v-5.4h-7.5l6.8-10.9H914.8z M880.5,46.9l-5.6,12.5l-5.5-12.5h-7.8v23h6.4V57.7l5.6,12.2h2.8l5.5-12.6v12.6h6.5v-23
		H880.5z M905.8,46.9V55h-8.1v-8.1h-7.1v23h7.1v-9.1h8.1v9.1h7.1v-23H905.8z"/>
	<path style="clip-path:url(#SVGID_00000063604681950726713180000008110987481184183448_);fill:#FFFFFF;" d="M914.4,79.3h6.2v-1.8
		h-4.1v-1.2h3.6v-1.7h-3.6v-1.1h4v-1.8h-6.1V79.3z M909.5,79.4c1.7,0,2.6-0.7,3.4-1.7l-1.6-1.1c-0.5,0.6-0.9,0.9-1.7,0.9
		c-1.1,0-1.8-0.9-1.8-2v0c0-1.1,0.7-2,1.8-2c0.7,0,1.2,0.3,1.7,0.9l1.6-1.2c-0.7-0.9-1.7-1.6-3.2-1.6c-2.3,0-4,1.7-4,3.9v0
		C905.5,77.8,907.3,79.4,909.5,79.4 M901.7,79.3h2.1v-7.6h-2.1V79.3z M895.8,77.5c-1.1,0-1.9-1-1.9-2.1v0c0-1.1,0.8-2,1.9-2
		c1.2,0,2,1,2,2v0C897.7,76.6,896.9,77.5,895.8,77.5 M895.8,79.4c2.3,0,4.1-1.8,4.1-3.9v0c0-2.2-1.7-3.9-4.1-3.9
		c-2.3,0-4.1,1.8-4.1,3.9v0C891.7,77.7,893.4,79.4,895.8,79.4 M883,79.3h2.1v-2.9h2.7v2.9h2.1v-7.6h-2.1v2.8h-2.7v-2.8H883V79.3z
		 M878.1,79.4c1.7,0,2.6-0.7,3.4-1.7l-1.6-1.1c-0.5,0.6-0.9,0.9-1.7,0.9c-1.1,0-1.8-0.9-1.8-2v0c0-1.1,0.7-2,1.8-2
		c0.7,0,1.2,0.3,1.7,0.9l1.6-1.2c-0.7-0.9-1.7-1.6-3.2-1.6c-2.3,0-4,1.7-4,3.9v0C874.2,77.8,876,79.4,878.1,79.4"/>
</g>
</svg>
