<svg id="Layer_1" xmlns="http://www.w3.org/2000/svg" viewBox="0 0 160 600"><style>.st0{fill:#490a09}</style><path class="st0" d="M13.2 170.3c0-6.6 5-11.7 11.8-11.7 4.6 0 7.5 1.9 9.5 4.7l-4.7 3.6c-1.3-1.6-2.8-2.6-4.9-2.6-3.1 0-5.3 2.7-5.3 5.9v.1c0 3.4 2.2 6 5.3 6 2.3 0 3.7-1.1 5.1-2.7l4.7 3.3c-2.1 2.9-5 5.1-9.9 5.1-6.4-.1-11.6-5-11.6-11.7zM36.1 176.5c0-3.6 2.7-5.5 6.8-5.5 1.6 0 3.2.3 4.2.7v-.3c0-1.8-1.1-2.8-3.5-2.8-1.8 0-3.2.4-4.8 1l-1.2-4.3c2-.8 4-1.3 7-1.3 3.1 0 5.2.7 6.6 2.1 1.3 1.3 1.9 3.1 1.9 5.5v10h-6v-1.8c-1.2 1.3-2.8 2.2-5.1 2.2-3.3-.2-5.9-2-5.9-5.5zm11-1.3v-.8c-.6-.3-1.5-.4-2.4-.4-1.8 0-2.8.9-2.8 2.1v.1c0 1.2.9 1.9 2.1 1.9 1.9-.1 3.1-1.2 3.1-2.9zM57.1 176.1v-7h-2v-4.9h2v-4.4h6.1v4.4h4v4.9h-4v5.9c0 1.2.5 1.7 1.7 1.7.8 0 1.6-.2 2.3-.6v4.8c-1.1.6-2.5 1-4.2 1-3.7-.1-5.9-1.7-5.9-5.8zM68.7 172.9c0-5 3.8-9.1 9.3-9.1 3.6 0 5.9 1.5 7.4 3.9l-4.1 3.1c-.8-1.2-1.8-1.8-3.2-1.8-2 0-3.4 1.7-3.4 3.8v.1c0 2.2 1.4 3.9 3.5 3.9 1.4 0 2.4-.7 3.3-1.8l4.1 2.9c-1.6 2.4-3.9 4-7.7 4-5.4 0-9.2-4.1-9.2-9zM87.6 158.1h6.1v8.4c1.1-1.4 2.7-2.8 5.2-2.8 3.7 0 5.9 2.4 5.9 6.4v11.3h-6.1V172c0-1.9-1-2.9-2.4-2.9-1.5 0-2.6 1-2.6 2.9v9.4h-6.1v-23.3z"/><g><path class="st0" d="M14.7 207.1v-7h-2v-4.9h2v-4.4h6.1v4.4h4v4.9h-4v5.9c0 1.2.5 1.7 1.7 1.7.8 0 1.6-.2 2.3-.6v4.8c-1.1.6-2.5 1-4.2 1-3.7-.1-5.9-1.7-5.9-5.8zM27.4 189.1h6.1v8.4c1.1-1.4 2.7-2.8 5.2-2.8 3.7 0 5.9 2.4 5.9 6.4v11.3h-6.1V203c0-1.9-1-2.9-2.4-2.9-1.5 0-2.6 1-2.6 2.9v9.4h-6.1v-23.3zM47 203.9c0-5.1 3.6-9.1 8.7-9.1 6 0 8.7 4.4 8.7 9.5v1.2H52.9c.5 1.9 1.9 2.8 3.7 2.8 1.4 0 2.6-.5 3.8-1.8l3.4 2.8c-1.7 2.1-4.1 3.5-7.5 3.5-5.5.1-9.3-3.5-9.3-8.9zm11.8-1.5c-.2-1.9-1.3-3.1-3-3.1-1.6 0-2.7 1.2-3 3.1h6z"/></g><g><path class="st0" d="M13 234.9c0-5.7 3.5-9.1 7.6-9.1 2.6 0 4.2 1.2 5.3 2.5v-8.2H32v23.4h-6.1v-2.3c-1.2 1.4-2.7 2.7-5.3 2.7-4.1 0-7.6-3.5-7.6-9zm13-.1c0-2.3-1.6-4-3.5-4-2 0-3.6 1.6-3.6 3.9v.1c0 2.3 1.6 3.9 3.6 3.9 1.9.1 3.5-1.6 3.5-3.9zM35.3 226.2h6.1v3.5c1-2.4 2.6-3.9 5.5-3.8v6.4h-.5c-3.2 0-5 1.8-5 5.8v5.4h-6.1v-17.3zM47.3 238.5c0-3.6 2.7-5.5 6.8-5.5 1.6 0 3.2.3 4.2.7v-.3c0-1.8-1.1-2.8-3.5-2.8-1.8 0-3.2.4-4.8 1l-1.2-4.3c2-.8 4-1.3 7-1.3 3.1 0 5.2.7 6.6 2.1 1.3 1.3 1.9 3.1 1.9 5.5v10h-6v-1.8c-1.2 1.3-2.8 2.2-5.1 2.2-3.3-.1-5.9-2-5.9-5.5zm11-1.3v-.8c-.6-.3-1.5-.4-2.4-.4-1.8 0-2.8.9-2.8 2.1v.1c0 1.2.9 1.9 2.1 1.9 1.9 0 3.1-1.2 3.1-2.9zM67.4 226.2h6.1v2.4c1.1-1.4 2.7-2.8 5.2-2.8 2.3 0 4.1 1 5 2.8 1.5-1.7 3.3-2.8 5.8-2.8 3.7 0 5.9 2.3 5.9 6.3v11.4h-6.1v-9.4c0-1.9-.9-2.9-2.4-2.9-1.4 0-2.5 1-2.5 2.9v9.4h-6.1v-9.4c0-1.9-.9-2.9-2.4-2.9s-2.5 1-2.5 2.9v9.4h-6.1v-17.3zM97.6 238.5c0-3.6 2.7-5.5 6.8-5.5 1.6 0 3.2.3 4.2.7v-.3c0-1.8-1.1-2.8-3.5-2.8-1.8 0-3.2.4-4.8 1l-1.2-4.3c2-.8 4-1.3 7-1.3 3.1 0 5.2.7 6.6 2.1 1.3 1.3 1.9 3.1 1.9 5.5v10h-6v-1.8c-1.2 1.3-2.8 2.2-5.1 2.2-3.4-.1-5.9-2-5.9-5.5zm11-1.3v-.8c-.6-.3-1.5-.4-2.4-.4-1.8 0-2.8.9-2.8 2.1v.1c0 1.2.9 1.9 2.1 1.9 1.8 0 3.1-1.2 3.1-2.9zM117.3 237.2h6.3v6.2h-6.3v-6.2z"/></g></svg>