<svg id="Layer_1" xmlns="http://www.w3.org/2000/svg" viewBox="0 0 160 600"><style>.st0{fill:#490a09}</style><path class="st0" d="M25.2 264.9h6.1l3.5 22.6h-6.5l-.5-4h-8.6l-2.7 4H9.6l15.6-22.6zm2 13.7l-.8-6.4-4.2 6.4h5zM17.6 296.1h17.9l-1.5 5.4H22.4l-1 3.8H32l-1.4 5.2H20l-2.1 8h-6.2l5.9-22.4zM36.8 301.2h6.1l-.9 3.5c1.7-2.5 3.7-4 6.5-3.8l-1.7 6.4h-.5c-3.3 0-5.5 1.9-6.6 6l-1.4 5.2h-6.1l4.6-17.3zM56.4 314.4c1.2 0 2.4-.4 3.7-1.4l2.8 3.3c-1.8 1.5-4.1 2.6-7.1 2.6-5.1 0-8.3-3-8.3-7.7 0-5.1 4-10.4 10.4-10.4 5.1 0 7.4 3.4 7.4 7.2 0 1.2-.3 2.4-.7 3.6H53.1c.1 1.6 1.2 2.8 3.3 2.8zm3.3-6c.1-.3.2-.6.2-.9 0-1.2-.8-2.2-2.4-2.2-1.6 0-3.2 1.1-4 3.1h6.2zM69.8 301.2h6.1l-.5 2c1.2-1.2 2.9-2.4 5-2.4 3.1 0 5 2 5 5.2 0 .9-.2 2-.5 3.1l-2.5 9.4h-6.1l2.4-9.1c.1-.4.2-1 .2-1.4 0-1.2-.7-1.8-1.9-1.8-1.7 0-2.7 1.2-3.2 3.1l-2.5 9.2h-6.1l4.6-17.3zM86.9 311.3c0-5.8 4.6-10.5 10.4-10.5 4 0 6.4 2.1 7.4 4.7l-4.8 2.5c-.6-1.3-1.4-2.2-3-2.2-2.3 0-4.2 2.5-4.2 5.2 0 1.8 1.2 2.9 2.7 2.9 1.3 0 2.2-.5 3.3-1.6l3.7 3.2c-1.8 2-3.9 3.4-7.4 3.4-4.7 0-8.1-2.9-8.1-7.6zM109.6 295.1h6.1l-2.1 8c1.2-1.2 2.9-2.4 5-2.4 3.1 0 5 2 5 5.2 0 .9-.2 2-.5 3.1l-2.5 9.4h-6.1l2.4-9.1c.1-.4.2-1 .2-1.4 0-1.2-.7-1.8-1.9-1.8-1.7 0-2.7 1.2-3.2 3.1l-2.5 9.2h-6.1l6.2-23.3z"/><g><path class="st0" d="M15.5 327.1h6.8l1.2 14.1 8.8-14.1h7l-15.1 22.6h-5.8l-2.9-22.6zM39.5 332.2h6.1L41 349.5h-6.1l4.6-17.3zm1.5-6.1h6.3l-1.2 4.5h-6.3l1.2-4.5zM50.7 326.1h6.1l-6.3 23.4h-6.1l6.3-23.4zM60.4 326.1h6.1l-6.3 23.4h-6.1l6.3-23.4zM64.3 345.1c0-3.8 3-6.1 7.6-6.1 1.6 0 3 .3 4.4.7l.1-.2c.1-.3.2-.6.2-1.1 0-1.1-.9-1.9-3-1.9-1.6 0-3.5.4-4.7.9L68 333c1.8-.6 4.3-1.1 6.8-1.1 5.2 0 7.7 2 7.7 5.5 0 .8-.1 1.6-.4 2.5l-2.6 9.5h-6l.5-1.9c-1.5 1.4-3 2.2-5 2.2-2.7.1-4.7-1.7-4.7-4.6zm11.2-2.1l.2-.6c-.7-.2-1.4-.4-2.3-.4-1.9 0-3.2.9-3.2 2.5 0 1 .7 1.6 1.7 1.6 1.6 0 3.1-1.4 3.6-3.1zM81.9 352.3l2.7-3.8c2 1.2 4.2 1.8 6.1 1.8 1.6 0 2.7-.4 3.6-1.3.6-.6 1.1-1.5 1.4-2.8l.1-.4c-1.5 1.4-3.1 2.1-5.2 2.1-3.1 0-6.2-2.1-6.2-6 0-5.4 3.9-10.1 9.1-10.1 2.6 0 4.3 1.3 5.2 2.8l.6-2.5h6.1l-3.7 13.8c-.8 3.1-1.7 4.8-3.1 6.2-1.7 1.7-4.1 2.5-7.7 2.5-3.3.1-6.8-.9-9-2.3zm15.5-12.9c0-1.6-1.1-2.8-2.9-2.8-2.3 0-4 2.1-4 4.3 0 1.6 1.1 2.7 2.8 2.7 2.3 0 4.1-2 4.1-4.2zM114.5 345.4c1.2 0 2.4-.4 3.7-1.4l2.8 3.3c-1.8 1.5-4.1 2.6-7.1 2.6-5.1 0-8.3-3-8.3-7.7 0-5.1 4-10.4 10.4-10.4 5.1 0 7.4 3.4 7.4 7.2 0 1.2-.3 2.4-.7 3.6h-11.5c.2 1.6 1.2 2.8 3.3 2.8zm3.3-6c.1-.3.2-.6.2-.9 0-1.2-.8-2.2-2.4-2.2-1.6 0-3.2 1.1-4 3.1h6.2z"/></g><g><path class="st0" d="M12.9 371.9c0-5 4-9.1 9.6-9.1 5.5 0 9.5 4.1 9.5 9v.1c0 4.9-4 9.1-9.6 9.1-5.5-.1-9.5-4.1-9.5-9.1zm13.2 0c0-2.2-1.5-4-3.7-4s-3.6 1.8-3.6 3.8v.1c0 2.1 1.5 3.9 3.7 3.9 2.2.1 3.6-1.7 3.6-3.8zM34.6 363.2h6.1v2.4c1.1-1.4 2.7-2.8 5.2-2.8 3.7 0 5.9 2.4 5.9 6.4v11.3h-6.1v-9.4c0-1.9-1-2.9-2.4-2.9-1.5 0-2.6 1-2.6 2.9v9.4h-6.1v-17.3z"/></g><g><path class="st0" d="M14 389.1h6.6l5.3 8.7 5.3-8.7h6.6v22.4h-6.2v-12.9l-5.7 8.8h-.1l-5.7-8.7v12.8H14v-22.4zM41.8 389.1H48v8.4h8v-8.4h6.2v22.4H56V403h-8v8.5h-6.2v-22.4zM65.2 407.5l8-8.5h-7.7v-4.8h15.8v4l-8 8.5h8v4.8H65.2v-4z"/></g><g><path class="st0" d="M13.2 431.4c0-6.6 5-11.7 11.8-11.7 4.6 0 7.5 1.9 9.5 4.7l-4.7 3.6c-1.3-1.6-2.8-2.6-4.9-2.6-3.1 0-5.3 2.7-5.3 5.9v.1c0 3.4 2.2 6 5.3 6 2.3 0 3.7-1.1 5.1-2.7l4.7 3.3c-2.1 2.9-5 5.1-9.9 5.1-6.4-.1-11.6-5-11.6-11.7zM37 419.2h6.1v8.4c1.1-1.4 2.7-2.8 5.2-2.8 3.7 0 5.9 2.4 5.9 6.4v11.3h-6.1v-9.4c0-1.9-1-2.9-2.4-2.9-1.5 0-2.6 1-2.6 2.9v9.4H37v-23.3zM56.6 433.9c0-5 4-9.1 9.6-9.1 5.5 0 9.5 4.1 9.5 9v.1c0 4.9-4 9.1-9.6 9.1-5.5-.1-9.5-4.1-9.5-9.1zm13.2 0c0-2.2-1.5-4-3.7-4s-3.6 1.8-3.6 3.8v.1c0 2.1 1.5 3.9 3.7 3.9 2.2.1 3.6-1.7 3.6-3.8zM78.3 419.2h6.3v4.5h-6.3v-4.5zm.1 6h6.1v17.3h-6.1v-17.3zM87.2 433.9c0-5 3.8-9.1 9.3-9.1 3.6 0 5.9 1.5 7.4 3.9l-4.1 3.1c-.8-1.2-1.8-1.8-3.2-1.8-2 0-3.4 1.7-3.4 3.8v.1c0 2.2 1.4 3.9 3.5 3.9 1.4 0 2.4-.7 3.3-1.8l4.1 2.9c-1.6 2.4-3.9 4-7.7 4-5.4 0-9.2-4.1-9.2-9zM104.9 433.9c0-5.1 3.6-9.1 8.7-9.1 6 0 8.7 4.4 8.7 9.5v1.2h-11.6c.5 1.9 1.9 2.8 3.7 2.8 1.4 0 2.6-.5 3.8-1.8l3.4 2.8c-1.7 2.1-4.1 3.5-7.5 3.5-5.3.1-9.2-3.5-9.2-8.9zm11.8-1.5c-.2-1.9-1.3-3.1-3-3.1-1.6 0-2.7 1.2-3 3.1h6zM124.6 436.3h6.3v6.2h-6.3v-6.2z"/></g></svg>