<svg id="Layer_1" xmlns="http://www.w3.org/2000/svg" viewBox="0 0 160 600"><style>.st0{fill:#490a09}</style><path class="st0" d="M19.7 242.5H13v-5.4h19.6v5.4h-6.7v17h-6.2v-17zM33.6 237.1h6.9l5.1 14.2 5.1-14.2h6.8l-9.1 22.6h-5.8l-9-22.6zM13.2 281.9c0-5 3.8-9.1 9.3-9.1 3.6 0 5.9 1.5 7.4 3.9l-4.1 3.1c-.8-1.2-1.8-1.8-3.2-1.8-2 0-3.4 1.7-3.4 3.8v.1c0 2.2 1.4 3.9 3.5 3.9 1.4 0 2.4-.7 3.3-1.8l4.1 2.9c-1.6 2.4-3.9 4-7.7 4-5.4 0-9.2-4.1-9.2-9zM32.1 273.2h6.1v3.5c1-2.4 2.6-3.9 5.5-3.8v6.4h-.5c-3.2 0-5 1.8-5 5.8v5.4h-6.1v-17.3zM45.8 267.1h6.3v4.5h-6.3v-4.5zm.1 6.1H52v17.3h-6.1v-17.3zM56.5 285.1v-7h-2v-4.9h2v-4.4h6.1v4.4h4v4.9h-4v5.9c0 1.2.5 1.7 1.7 1.7.8 0 1.6-.2 2.3-.6v4.8c-1.1.6-2.5 1-4.2 1-3.8-.1-5.9-1.7-5.9-5.8zM69.2 267.1h6.3v4.5h-6.3v-4.5zm.1 6.1h6.1v17.3h-6.1v-17.3zM78.1 281.9c0-5 3.8-9.1 9.3-9.1 3.6 0 5.9 1.5 7.4 3.9l-4.1 3.1c-.8-1.2-1.8-1.8-3.2-1.8-2 0-3.4 1.7-3.4 3.8v.1c0 2.2 1.4 3.9 3.5 3.9 1.4 0 2.4-.7 3.3-1.8l4.1 2.9c-1.6 2.4-3.9 4-7.7 4-5.4 0-9.2-4.1-9.2-9zM95.7 288.3l2.3-3.7c2 1.3 4.2 2 6 2 1.1 0 1.5-.3 1.5-.9v-.1c0-.7-1-1-2.8-1.5-3.4-.9-6.1-2-6.1-5.5v-.1c0-3.7 2.9-5.7 6.9-5.7 2.5 0 5.2.7 7.1 2l-2.1 3.8c-1.8-1-3.7-1.6-5.1-1.6-.9 0-1.4.4-1.4.8v.1c0 .7 1 1 2.8 1.5 3.4 1 6.1 2.1 6.1 5.5v.1c0 3.8-2.8 5.8-7.1 5.8-2.8.1-5.7-.8-8.1-2.5z"/><g><path class="st0" d="M13.2 312.9c0-5 3.8-9.1 9.3-9.1 3.6 0 5.9 1.5 7.4 3.9l-4.1 3.1c-.8-1.2-1.8-1.8-3.2-1.8-2 0-3.4 1.7-3.4 3.8v.1c0 2.2 1.4 3.9 3.5 3.9 1.4 0 2.4-.7 3.3-1.8l4.1 2.9c-1.6 2.4-3.9 4-7.7 4-5.4 0-9.2-4.1-9.2-9zM32.1 298.1h6.1v8.4c1.1-1.4 2.7-2.8 5.2-2.8 3.7 0 5.9 2.4 5.9 6.4v11.3h-6.1V312c0-1.9-1-2.9-2.4-2.9-1.5 0-2.6 1-2.6 2.9v9.4h-6.1v-23.3zM51.7 312.9c0-5.1 3.6-9.1 8.7-9.1 6 0 8.7 4.4 8.7 9.5v1.2H57.5c.5 1.9 1.9 2.8 3.7 2.8 1.4 0 2.6-.5 3.8-1.8l3.4 2.8c-1.7 2.1-4.1 3.5-7.5 3.5-5.4.1-9.2-3.5-9.2-8.9zm11.8-1.5c-.2-1.9-1.3-3.1-3-3.1-1.6 0-2.7 1.2-3 3.1h6zM71 312.9c0-5.1 3.6-9.1 8.7-9.1 6 0 8.7 4.4 8.7 9.5v1.2H76.9c.5 1.9 1.9 2.8 3.7 2.8 1.4 0 2.6-.5 3.8-1.8l3.4 2.8c-1.7 2.1-4.1 3.5-7.5 3.5-5.4.1-9.3-3.5-9.3-8.9zm11.8-1.5c-.2-1.9-1.3-3.1-3-3.1-1.6 0-2.7 1.2-3 3.1h6zM91.1 304.2h6.1v3.5c1-2.4 2.6-3.9 5.5-3.8v6.4h-.5c-3.2 0-5 1.8-5 5.8v5.4h-6.1v-17.3zM103.8 312.9c0-5.1 3.6-9.1 8.7-9.1 6 0 8.7 4.4 8.7 9.5v1.2h-11.6c.5 1.9 1.9 2.8 3.7 2.8 1.4 0 2.6-.5 3.8-1.8l3.4 2.8c-1.7 2.1-4.1 3.5-7.5 3.5-5.4.1-9.2-3.5-9.2-8.9zm11.8-1.5c-.2-1.9-1.3-3.1-3-3.1-1.6 0-2.7 1.2-3 3.1h6zM123.2 312.9c0-5.7 3.5-9.1 7.6-9.1 2.6 0 4.2 1.2 5.3 2.5v-8.2h6.1v23.4h-6.1v-2.3c-1.2 1.4-2.7 2.7-5.3 2.7-4 0-7.6-3.5-7.6-9zm13-.1c0-2.3-1.6-4-3.5-4s-3.6 1.6-3.6 3.9v.1c0 2.3 1.6 3.9 3.6 3.9s3.5-1.6 3.5-3.9zM145.2 315.2h6.3v6.2h-6.3v-6.2z"/></g></svg>