<?xml version="1.0" encoding="utf-8"?>
<!-- Generator: Adobe Illustrator 26.3.1, SVG Export Plug-In . SVG Version: 6.00 Build 0)  -->
<svg version="1.1" id="Layer_1" xmlns="http://www.w3.org/2000/svg" xmlns:xlink="http://www.w3.org/1999/xlink" x="0px" y="0px"
	 viewBox="0 0 970 250" style="enable-background:new 0 0 970 250;" xml:space="preserve">
<style type="text/css">
	.st0{fill:#490A09;}
</style>
<g>
	<path class="st0" d="M37.8,94.1h15.1v20.4h19.4V94.1h15.1v54.4H72.2v-20.7H52.8v20.7H37.8V94.1z"/>
	<path class="st0" d="M94.4,127.7v-0.2c0-12.3,8.8-22,21.2-22c14.5,0,21.2,10.7,21.2,23c0,0.9,0,2-0.1,3h-28.1
		c1.2,4.6,4.5,6.9,9.1,6.9c3.5,0,6.3-1.3,9.3-4.3l8.2,6.8c-4,5.1-9.9,8.6-18.3,8.6C103.7,149.5,94.4,140.7,94.4,127.7z M123,124
		c-0.5-4.7-3.3-7.6-7.3-7.6c-3.9,0-6.5,3-7.3,7.6H123z"/>
	<path class="st0" d="M161.6,106.4h14.5l5.5,21.2l6.5-21.3h12.2l6.5,21.5l5.7-21.3h14.2l-13,42.4H201l-6.8-21.8l-7,21.8h-12.7
		L161.6,106.4z"/>
	<path class="st0" d="M227.7,136.5v-0.2c0-8.7,6.6-13.2,16.5-13.2c3.9,0,7.7,0.8,10.1,1.6V124c0-4.4-2.7-6.8-8.4-6.8
		c-4.4,0-7.9,0.9-11.6,2.3l-3-10.4c4.7-1.9,9.8-3.3,17-3.3c7.5,0,12.7,1.8,16,5.1c3.2,3.1,4.5,7.5,4.5,13.4v24.2h-14.6v-4.4
		c-2.9,3.2-6.8,5.3-12.4,5.3C233.8,149.4,227.7,144.8,227.7,136.5z M254.4,133.3v-1.9c-1.5-0.6-3.6-1.1-5.8-1.1
		c-4.3,0-6.8,2.1-6.8,5.2v0.2c0,2.9,2.2,4.6,5.2,4.6C251.4,140.2,254.4,137.5,254.4,133.3z"/>
	<path class="st0" d="M273.1,143.2l5.5-8.9c4.8,3.2,10.1,4.8,14.5,4.8c2.6,0,3.7-0.8,3.7-2.3v-0.2c0-1.6-2.3-2.3-6.8-3.6
		c-8.3-2.2-14.9-5-14.9-13.5v-0.2c0-8.9,7.2-13.9,16.9-13.9c6.1,0,12.5,1.8,17.3,4.9l-5.1,9.3c-4.4-2.4-9.1-3.9-12.4-3.9
		c-2.3,0-3.4,0.9-3.4,2v0.2c0,1.6,2.4,2.4,6.8,3.7c8.3,2.3,14.9,5.2,14.9,13.4v0.2c0,9.3-6.9,14.1-17.2,14.1
		C286,149.4,279,147.4,273.1,143.2z"/>
	<path class="st0" d="M337.8,91.7h14.8v20.5c2.7-3.5,6.6-6.7,12.6-6.7c8.9,0,14.3,5.9,14.3,15.5v27.5h-14.8v-22.8
		c0-4.6-2.4-7.1-5.9-7.1c-3.6,0-6.2,2.5-6.2,7.1v22.8h-14.8V91.7z"/>
	<path class="st0" d="M385.4,127.7v-0.2c0-12.3,8.8-22,21.2-22c14.5,0,21.2,10.7,21.2,23c0,0.9,0,2-0.1,3h-28.1
		c1.2,4.6,4.5,6.9,9.1,6.9c3.5,0,6.3-1.3,9.3-4.3l8.2,6.8c-4,5.1-9.9,8.6-18.3,8.6C394.8,149.5,385.4,140.7,385.4,127.7z M414,124
		c-0.5-4.7-3.3-7.6-7.3-7.6c-3.9,0-6.5,3-7.3,7.6H414z"/>
	<path class="st0" d="M434.2,106.4H449v8.5c2.4-5.8,6.3-9.5,13.3-9.2v15.6H461c-7.7,0-12.1,4.4-12.1,14.2v13.1h-14.8V106.4z"/>
	<path class="st0" d="M489,91.7h14.8v20.5c2.7-3.5,6.6-6.7,12.6-6.7c8.9,0,14.3,5.9,14.3,15.5v27.5h-14.8v-22.8
		c0-4.6-2.4-7.1-5.9-7.1c-3.6,0-6.2,2.5-6.2,7.1v22.8H489V91.7z"/>
	<path class="st0" d="M538,134v-27.5h14.8v22.8c0,4.6,2.4,7.1,6,7.1c3.5,0,6.1-2.5,6.1-7.1v-22.8h14.8v42.1h-14.8v-5.8
		c-2.7,3.5-6.6,6.7-12.6,6.7C543.4,149.4,538,143.5,538,134z"/>
	<path class="st0" d="M584.4,143.2l5.5-8.9c4.8,3.2,10.1,4.8,14.5,4.8c2.6,0,3.7-0.8,3.7-2.3v-0.2c0-1.6-2.3-2.3-6.8-3.6
		c-8.3-2.2-14.9-5-14.9-13.5v-0.2c0-8.9,7.2-13.9,16.9-13.9c6.1,0,12.5,1.8,17.3,4.9l-5.1,9.3c-4.4-2.4-9.1-3.9-12.4-3.9
		c-2.3,0-3.4,0.9-3.4,2v0.2c0,1.6,2.4,2.4,6.8,3.7c8.3,2.3,14.9,5.2,14.9,13.4v0.2c0,9.3-6.9,14.1-17.2,14.1
		C597.3,149.4,590.3,147.4,584.4,143.2z"/>
	<path class="st0" d="M642.4,143.4v5.1h-14.8V91.7h14.8V112c2.9-3.5,6.5-6.5,12.8-6.5c10,0,18.7,8.3,18.7,21.8v0.2
		c0,13.7-8.6,22-18.6,22C648.8,149.4,645.1,146.6,642.4,143.4z M659.2,127.5v-0.2c0-5.5-3.8-9.5-8.6-9.5c-4.7,0-8.6,4-8.6,9.5v0.2
		c0,5.6,3.8,9.6,8.6,9.6C655.4,137.1,659.2,133.2,659.2,127.5z"/>
	<path class="st0" d="M678.1,136.5v-0.2c0-8.7,6.6-13.2,16.5-13.2c3.9,0,7.7,0.8,10.1,1.6V124c0-4.4-2.7-6.8-8.4-6.8
		c-4.4,0-7.9,0.9-11.6,2.3l-3-10.4c4.7-1.9,9.8-3.3,17-3.3c7.5,0,12.7,1.8,16,5.1c3.2,3.1,4.5,7.5,4.5,13.4v24.2h-14.6v-4.4
		c-2.9,3.2-6.8,5.3-12.4,5.3C684.2,149.4,678.1,144.8,678.1,136.5z M704.8,133.3v-1.9c-1.5-0.6-3.6-1.1-5.8-1.1
		c-4.3,0-6.8,2.1-6.8,5.2v0.2c0,2.9,2.2,4.6,5.2,4.6C701.8,140.2,704.8,137.5,704.8,133.3z"/>
	<path class="st0" d="M726.7,106.4h14.8v5.9c2.7-3.5,6.6-6.8,12.6-6.8c8.9,0,14.3,5.9,14.3,15.5v27.5h-14.8v-22.8
		c0-4.6-2.4-7.1-5.9-7.1c-3.6,0-6.2,2.5-6.2,7.1v22.8h-14.8V106.4z"/>
	<path class="st0" d="M774.5,127.7v-0.2c0-13.7,8.6-22,18.5-22c6.4,0,10.1,2.9,12.9,6.1V91.7h14.8v56.8h-14.8v-5.6
		c-2.9,3.5-6.5,6.5-12.8,6.5C783.1,149.4,774.5,141.1,774.5,127.7z M806.1,127.5v-0.2c0-5.5-3.8-9.5-8.6-9.5s-8.6,3.9-8.6,9.5v0.2
		c0,5.6,3.9,9.6,8.6,9.6S806.1,133.1,806.1,127.5z"/>
	<path class="st0" d="M828,133.3h15.4v15.2H828V133.3z"/>
</g>
</svg>
