<?xml version="1.0" encoding="utf-8"?>
<!-- Generator: Adobe Illustrator 26.3.1, SVG Export Plug-In . SVG Version: 6.00 Build 0)  -->
<svg version="1.1" id="Layer_1" xmlns="http://www.w3.org/2000/svg" xmlns:xlink="http://www.w3.org/1999/xlink" x="0px" y="0px"
	 viewBox="0 0 970 250" style="enable-background:new 0 0 970 250;" xml:space="preserve">
<style type="text/css">
	.st0{fill:#490A09;}
</style>
<g>
	<path class="st0" d="M40.5,93.6c0-14.9,12.2-28,30-28c9.4,0,16.2,3.8,19.4,7.9L81.1,82c-2.7-2.7-6.5-4.8-11.6-4.8
		c-9.4,0-15.9,7.3-15.9,15.9c0,6.5,4.7,10,10.5,10c2.6,0,4.6-0.5,6.2-1.3l1.9-6.3h-9l2.5-9.5h21.4l-6.7,23.6
		c-4.6,2.7-10.6,4.7-17.5,4.7C51.8,114.3,40.5,108,40.5,93.6z"/>
	<path class="st0" d="M100,64.6h12.7l-13.1,48.8H86.9L100,64.6z"/>
	<path class="st0" d="M110.1,97.4c0-10.9,9.2-21,21.2-21c11.1,0,17.8,7.3,17.8,16.8c0,11-9.2,21-21.3,21
		C116.8,114.2,110.1,106.9,110.1,97.4z M137,93.6c0-4.1-2.5-6.7-6.3-6.7c-5,0-8.4,5.3-8.4,10c0,4.1,2.5,6.7,6.3,6.7
		C133.6,103.7,137,98.4,137,93.6z"/>
	<path class="st0" d="M159.4,77.2h12.7l-1.9,7.3c3.5-5.1,7.7-8.3,13.6-7.9L180.1,90h-1.1c-6.9,0-11.4,3.9-13.7,12.5l-2.9,10.9h-12.7
		L159.4,77.2z"/>
	<path class="st0" d="M188.4,77.2h12.7l-9.7,36.1h-12.7L188.4,77.2z M191.6,64.6h13.2l-2.5,9.4h-13.2L191.6,64.6z"/>
	<path class="st0" d="M200,104.3c0-7.9,6.3-12.8,15.9-12.8c3.3,0,6.3,0.5,9.2,1.4l0.1-0.5c0.1-0.6,0.3-1.3,0.3-2.2
		c0-2.3-1.8-3.9-6.2-3.9c-3.4,0-7.2,0.8-9.8,1.8l-1.8-9.2c3.8-1.3,9-2.2,14.2-2.2c10.8,0,16.1,4.3,16.1,11.5c0,1.7-0.3,3.4-0.7,5.2
		l-5.3,19.9h-12.5l1-3.9c-3.1,2.9-6.2,4.6-10.4,4.6C204.2,114.1,200,110.3,200,104.3z M223.4,99.7l0.3-1.2c-1.4-0.5-3-0.8-4.7-0.8
		c-4,0-6.6,1.9-6.6,5.2c0,2.1,1.5,3.3,3.6,3.3C219.3,106.3,222.4,103.4,223.4,99.7z"/>
</g>
<g>
	<path class="st0" d="M242.7,100.3H256v13h-13.2V100.3z"/>
</g>
</svg>
