<?xml version="1.0" encoding="utf-8"?>
<!-- Generator: Adobe Illustrator 26.3.1, SVG Export Plug-In . SVG Version: 6.00 Build 0)  -->
<svg version="1.1" id="Layer_1" xmlns="http://www.w3.org/2000/svg" xmlns:xlink="http://www.w3.org/1999/xlink" x="0px" y="0px"
	 viewBox="0 0 970 250" style="enable-background:new 0 0 970 250;" xml:space="preserve">
<style type="text/css">
	.st0{fill:#490A09;}
</style>
<g>
	<path class="st0" d="M53.8,136.9h-14v-11.4h41v11.4h-14v35.4h-13V136.9z"/>
	<path class="st0" d="M85.8,123.5h12.7v17.6c2.3-3,5.7-5.7,10.8-5.7c7.7,0,12.3,5.1,12.3,13.3v23.6h-12.7v-19.6
		c0-3.9-2.1-6.1-5.1-6.1c-3.1,0-5.3,2.1-5.3,6.1v19.6H85.8V123.5z"/>
	<path class="st0" d="M126.6,154.4v-0.1c0-10.6,7.5-18.9,18.2-18.9c12.5,0,18.2,9.2,18.2,19.8c0,0.8,0,1.7-0.1,2.6h-24.2
		c1,3.9,3.9,5.9,7.8,5.9c3,0,5.4-1.1,8-3.7l7,5.8c-3.5,4.4-8.5,7.3-15.7,7.3C134.6,173.1,126.6,165.6,126.6,154.4z M151.2,151.2
		c-0.5-4-2.8-6.5-6.3-6.5c-3.3,0-5.6,2.6-6.3,6.5H151.2z"/>
	<path class="st0" d="M187,136.1h12.7v5.1c2.3-3,5.7-5.9,10.8-5.9c7.7,0,12.3,5.1,12.3,13.3v23.6h-12.7v-19.6c0-3.9-2.1-6.1-5.1-6.1
		c-3.1,0-5.3,2.1-5.3,6.1v19.6H187V136.1z"/>
	<path class="st0" d="M227.9,154.4v-0.1c0-10.6,7.5-18.9,18.2-18.9c12.5,0,18.2,9.2,18.2,19.8c0,0.8,0,1.7-0.1,2.6h-24.2
		c1,3.9,3.9,5.9,7.8,5.9c3,0,5.4-1.1,8-3.7l7,5.8c-3.5,4.4-8.5,7.3-15.7,7.3C235.9,173.1,227.9,165.6,227.9,154.4z M252.5,151.2
		c-0.5-4-2.8-6.5-6.3-6.5c-3.3,0-5.6,2.6-6.3,6.5H252.5z"/>
	<path class="st0" d="M265.5,136.1h12.4l4.7,18.2l5.5-18.3h10.5l5.6,18.4l4.9-18.3h12.2l-11.2,36.4h-11l-5.9-18.8l-6,18.8h-10.9
		L265.5,136.1z"/>
	<path class="st0" d="M344.9,125.5h37.4v11.4h-24.4v7.9h22.1v10.8h-22.1v16.7h-13V125.5z"/>
	<path class="st0" d="M387.4,136.1h12.7v7.3c2.1-4.9,5.4-8.2,11.4-7.9v13.4h-1.1c-6.6,0-10.4,3.8-10.4,12.2v11.2h-12.7V136.1z"/>
	<path class="st0" d="M413.9,154.4v-0.1c0-10.6,7.5-18.9,18.2-18.9c12.5,0,18.2,9.2,18.2,19.8c0,0.8,0,1.7-0.1,2.6h-24.2
		c1,3.9,3.9,5.9,7.8,5.9c3,0,5.4-1.1,8-3.7l7,5.8c-3.5,4.4-8.5,7.3-15.7,7.3C421.9,173.1,413.9,165.6,413.9,154.4z M438.5,151.2
		c-0.5-4-2.8-6.5-6.3-6.5c-3.3,0-5.6,2.6-6.3,6.5H438.5z"/>
	<path class="st0" d="M455.8,136.1h12.7v5.1c2.3-3,5.7-5.9,10.8-5.9c7.7,0,12.3,5.1,12.3,13.3v23.6h-12.7v-19.6
		c0-3.9-2.1-6.1-5.1-6.1c-3.1,0-5.3,2.1-5.3,6.1v19.6h-12.7V136.1z"/>
	<path class="st0" d="M496.7,154.4v-0.1c0-10.2,7.9-18.8,19.4-18.8c7.4,0,12.4,3.2,15.4,8.1l-8.6,6.4c-1.7-2.4-3.7-3.8-6.7-3.8
		c-4.1,0-7.1,3.6-7.1,8v0.1c0,4.7,2.9,8.2,7.2,8.2c3,0,4.9-1.4,6.9-3.7l8.5,6.1c-3.3,4.9-8.2,8.3-16.1,8.3
		C504.7,173.1,496.7,164.6,496.7,154.4z"/>
	<path class="st0" d="M536.2,123.5h12.7v17.6c2.3-3,5.7-5.7,10.8-5.7c7.7,0,12.3,5.1,12.3,13.3v23.6h-12.7v-19.6
		c0-3.9-2.1-6.1-5.1-6.1c-3.1,0-5.3,2.1-5.3,6.1v19.6h-12.7V123.5z"/>
	<path class="st0" d="M599.2,161v-14.7h-4.3v-10.2h4.3V127h12.7v9.2h8.4v10.2h-8.4v12.2c0,2.5,1.1,3.6,3.5,3.6
		c1.7,0,3.3-0.5,4.8-1.2v10c-2.3,1.3-5.3,2.1-8.8,2.1C603.8,173,599.2,169.7,599.2,161z"/>
	<path class="st0" d="M625.8,123.5h12.7v17.6c2.3-3,5.7-5.7,10.8-5.7c7.7,0,12.3,5.1,12.3,13.3v23.6h-12.7v-19.6
		c0-3.9-2.1-6.1-5.1-6.1c-3.1,0-5.3,2.1-5.3,6.1v19.6h-12.7V123.5z"/>
	<path class="st0" d="M668.1,136.1h12.7v7.3c2.1-4.9,5.4-8.2,11.4-7.9v13.4h-1.1c-6.6,0-10.4,3.8-10.4,12.2v11.2h-12.7V136.1z"/>
	<path class="st0" d="M696.7,123.5H710v9.4h-13.2V123.5z M697,136.1h12.7v36.1H697V136.1z"/>
	<path class="st0" d="M717,123.5h12.7v48.8H717V123.5z"/>
	<path class="st0" d="M737.1,123.5h12.7v48.8h-12.7V123.5z"/>
	<path class="st0" d="M755.4,154.4v-0.1c0-10.6,7.5-18.9,18.2-18.9c12.5,0,18.2,9.2,18.2,19.8c0,0.8,0,1.7-0.1,2.6h-24.2
		c1,3.9,3.9,5.9,7.8,5.9c3,0,5.4-1.1,8-3.7l7,5.8c-3.5,4.4-8.5,7.3-15.7,7.3C763.4,173.1,755.4,165.6,755.4,154.4z M780,151.2
		c-0.5-4-2.8-6.5-6.3-6.5c-3.3,0-5.6,2.6-6.3,6.5H780z"/>
	<path class="st0" d="M797.3,136.1H810v7.3c2.1-4.9,5.4-8.2,11.4-7.9v13.4h-1.1c-6.6,0-10.4,3.8-10.4,12.2v11.2h-12.7V136.1z"/>
	<path class="st0" d="M821,159.2h13.2v13H821V159.2z"/>
</g>
</svg>
