<?xml version="1.0" encoding="utf-8"?>
<!-- Generator: Adobe Illustrator 26.3.1, SVG Export Plug-In . SVG Version: 6.00 Build 0)  -->
<svg version="1.1" id="Layer_1" xmlns="http://www.w3.org/2000/svg" xmlns:xlink="http://www.w3.org/1999/xlink" x="0px" y="0px"
	 viewBox="0 0 970 250" style="enable-background:new 0 0 970 250;" xml:space="preserve">
<style type="text/css">
	.st0{clip-path:url(#SVGID_00000154420060332659570340000012154819907845572285_);fill:#AC1F2D;}
	.st1{clip-path:url(#SVGID_00000154420060332659570340000012154819907845572285_);fill:#FFFFFF;}
</style>
<g>
	<defs>
		<rect id="SVGID_1_" x="843.9" y="10.5" width="106" height="100.3"/>
	</defs>
	<clipPath id="SVGID_00000147918918316068368080000000166976772386865805_">
		<use xlink:href="#SVGID_1_"  style="overflow:visible;"/>
	</clipPath>
	<path style="clip-path:url(#SVGID_00000147918918316068368080000000166976772386865805_);fill:#AC1F2D;" d="M943.1,61.5
		c0,25.5-20.7,46.2-46.2,46.2c-25.5,0-46.2-20.7-46.2-46.2s20.7-46.2,46.2-46.2C922.4,15.3,943.1,36,943.1,61.5"/>
	<path style="clip-path:url(#SVGID_00000147918918316068368080000000166976772386865805_);fill:#FFFFFF;" d="M915.3,53.1v5.3h6
		l-7.1,11.1h17.5V64h-7.5l6.8-10.9H915.3z M881,46.4l-5.6,12.5l-5.5-12.5h-7.8v23h6.4V57.2l5.6,12.2h2.8l5.5-12.6v12.6h6.5v-23H881z
		 M906.3,46.4v8.1h-8.1v-8.1h-7.1v23h7.1v-9.1h8.1v9.1h7.1v-23H906.3z"/>
	<path style="clip-path:url(#SVGID_00000147918918316068368080000000166976772386865805_);fill:#FFFFFF;" d="M914.9,78.8h6.2V77
		h-4.1v-1.2h3.6v-1.7h-3.6V73h4v-1.8h-6.1V78.8z M909.9,79c1.7,0,2.6-0.7,3.4-1.7l-1.6-1.1c-0.5,0.6-0.9,0.9-1.7,0.9
		c-1.1,0-1.8-0.9-1.8-2v0c0-1.1,0.7-2,1.8-2c0.7,0,1.2,0.3,1.7,0.9l1.6-1.2c-0.7-0.9-1.7-1.6-3.2-1.6c-2.3,0-4,1.7-4,3.9v0
		C906,77.3,907.8,79,909.9,79 M902.1,78.8h2.1v-7.6h-2.1V78.8z M896.3,77.1c-1.1,0-1.9-1-1.9-2.1v0c0-1.1,0.8-2,1.9-2c1.2,0,2,1,2,2
		v0C898.2,76.1,897.4,77.1,896.3,77.1 M896.3,79c2.3,0,4.1-1.8,4.1-3.9v0c0-2.2-1.7-3.9-4.1-3.9c-2.3,0-4.1,1.8-4.1,3.9v0
		C892.2,77.2,893.9,79,896.3,79 M883.5,78.8h2.1v-2.9h2.7v2.9h2.1v-7.6h-2.1v2.8h-2.7v-2.8h-2.1V78.8z M878.6,79
		c1.7,0,2.6-0.7,3.4-1.7l-1.6-1.1c-0.5,0.6-0.9,0.9-1.7,0.9c-1.1,0-1.8-0.9-1.8-2v0c0-1.1,0.7-2,1.8-2c0.7,0,1.2,0.3,1.7,0.9
		l1.6-1.2c-0.7-0.9-1.7-1.6-3.2-1.6c-2.3,0-4,1.7-4,3.9v0C874.7,77.3,876.4,79,878.6,79"/>
</g>
</svg>
