<?xml version="1.0" encoding="utf-8"?>
<!-- Generator: Adobe Illustrator 25.4.1, SVG Export Plug-In . SVG Version: 6.00 Build 0)  -->
<svg version="1.1" id="Layer_1" xmlns="http://www.w3.org/2000/svg" xmlns:xlink="http://www.w3.org/1999/xlink" x="0px" y="0px"
	 viewBox="0 0 970 250" style="enable-background:new 0 0 970 250;" xml:space="preserve">
<style type="text/css">
	.st0{fill:#490A09;}
</style>
<g>
	<path class="st0" d="M38,132v-0.2c0-15.9,12.8-28.8,29.9-28.8s29.8,12.7,29.8,28.7v0.2c0,15.9-12.8,28.8-29.9,28.8S38,147.9,38,132
		z M82,132v-0.2c0-8-5.8-15-14.2-15c-8.4,0-14,6.8-14,14.8v0.2c0,8,5.8,15,14.2,15C76.4,146.8,82,140,82,132z"/>
	<path class="st0" d="M104.8,116.7h15v6c2.8-3.6,6.7-7,12.8-7c9.1,0,14.6,6,14.6,15.8v28h-15v-23.2c0-4.7-2.5-7.2-6-7.2
		c-3.6,0-6.3,2.5-6.3,7.2v23.2h-15V116.7z"/>
	<path class="st0" d="M155.3,101.7h15v57.8h-15V101.7z"/>
	<path class="st0" d="M177.6,168.7l4.7-10.5c2.4,1.4,4.9,2.3,6.6,2.3c1.5,0,2.5-0.4,3.5-1.7l-16.8-42h15.8l8.5,25.8l8.1-25.8h15.4
		l-15.7,41.8c-3.7,10-7.8,13.9-16.3,13.9C186.1,172.4,181.6,170.9,177.6,168.7z"/>
	<path class="st0" d="M248.5,138.3v-0.2c0-12.2,10-22.4,23.7-22.4c13.7,0,23.6,10.1,23.6,22.2v0.2c0,12.2-10,22.4-23.7,22.4
		C258.4,160.5,248.5,150.5,248.5,138.3z M281.2,138.3v-0.2c0-5.2-3.8-9.7-9.1-9.7c-5.5,0-8.9,4.4-8.9,9.5v0.2c0,5.2,3.8,9.7,9.1,9.7
		C277.7,147.8,281.2,143.5,281.2,138.3z"/>
	<path class="st0" d="M302.1,116.7h15v6c2.8-3.6,6.7-7,12.8-7c9.1,0,14.6,6,14.6,15.8v28h-15v-23.2c0-4.7-2.5-7.2-6-7.2
		c-3.6,0-6.3,2.5-6.3,7.2v23.2h-15V116.7z"/>
</g>
<g>
	<path class="st0" d="M39.9,170.4h16.2l13.2,21.4l13.2-21.4h16.2v55.4H83.5v-31.8l-14.2,21.7H69l-14.1-21.5v31.7h-15V170.4z"/>
	<path class="st0" d="M108.6,170.4H124v20.7h19.7v-20.7H159v55.4h-15.4v-21.1H124v21.1h-15.4V170.4z"/>
	<path class="st0" d="M166.5,215.9l19.8-21h-19.1v-12h39v9.9l-19.9,21h19.9v12h-39.7V215.9z"/>
	<path class="st0" d="M233.4,198.2v-0.2c0-16.1,12.4-28.8,29.2-28.8c11.3,0,18.6,4.7,23.5,11.6l-11.6,8.9c-3.2-4-6.8-6.5-12.1-6.5
		c-7.8,0-13.2,6.6-13.2,14.6v0.2c0,8.3,5.5,14.8,13.2,14.8c5.8,0,9.2-2.7,12.5-6.7l11.6,8.2c-5.2,7.2-12.3,12.5-24.5,12.5
		C246.2,226.9,233.4,214.8,233.4,198.2z"/>
	<path class="st0" d="M292.2,168h15v20.8c2.8-3.6,6.7-6.8,12.8-6.8c9.1,0,14.6,6,14.6,15.8v28h-15v-23.2c0-4.7-2.5-7.2-6-7.2
		c-3.6,0-6.3,2.5-6.3,7.2v23.2h-15V168z"/>
	<path class="st0" d="M340.7,204.5v-0.2c0-12.2,10-22.4,23.7-22.4c13.7,0,23.6,10.1,23.6,22.2v0.2c0,12.2-10,22.4-23.7,22.4
		C350.6,226.8,340.7,216.7,340.7,204.5z M373.4,204.5v-0.2c0-5.2-3.8-9.7-9.1-9.7c-5.5,0-8.9,4.4-8.9,9.5v0.2c0,5.2,3.8,9.7,9.1,9.7
		C369.9,214,373.4,209.7,373.4,204.5z"/>
	<path class="st0" d="M394.3,168H410v11.1h-15.7V168z M394.7,182.9h15v42.8h-15V182.9z"/>
	<path class="st0" d="M416.3,204.5v-0.2c0-12.1,9.4-22.3,23-22.3c8.8,0,14.6,3.8,18.3,9.6l-10.2,7.6c-2.1-2.8-4.4-4.5-8-4.5
		c-4.8,0-8.4,4.3-8.4,9.5v0.2c0,5.5,3.5,9.7,8.5,9.7c3.6,0,5.9-1.7,8.2-4.4l10.1,7.3c-4,5.9-9.7,9.8-19.1,9.8
		C425.8,226.8,416.3,216.7,416.3,204.5z"/>
	<path class="st0" d="M460.3,204.5v-0.2c0-12.5,8.9-22.4,21.6-22.4c14.8,0,21.6,10.8,21.6,23.4c0,1,0,2.1-0.1,3.1h-28.7
		c1.2,4.7,4.6,7,9.3,7c3.6,0,6.4-1.3,9.5-4.4l8.3,6.9c-4.1,5.2-10.1,8.7-18.6,8.7C469.8,226.8,460.3,217.8,460.3,204.5z
		 M489.4,200.8c-0.6-4.7-3.3-7.8-7.4-7.8c-4,0-6.6,3.1-7.4,7.8H489.4z"/>
	<path class="st0" d="M509,210.3h15.7v15.4H509V210.3z"/>
</g>
</svg>
