<?xml version="1.0" encoding="utf-8"?>
<!-- Generator: Adobe Illustrator 25.4.1, SVG Export Plug-In . SVG Version: 6.00 Build 0)  -->
<svg version="1.1" id="Layer_1" xmlns="http://www.w3.org/2000/svg" xmlns:xlink="http://www.w3.org/1999/xlink" x="0px" y="0px"
	 viewBox="0 0 970 250" style="enable-background:new 0 0 970 250;" xml:space="preserve">
<style type="text/css">
	.st0{fill:#490A09;}
</style>
<g>
	<path class="st0" d="M37.3,55.8h17.4l14.2,23l14.2-23h17.4v59.5H84.1V81.1l-15.2,23.3h-0.3L53.4,81.3v34H37.3V55.8z"/>
	<path class="st0" d="M109.8,99.4V69.3h16.2v24.9c0,5,2.6,7.7,6.5,7.7c3.8,0,6.7-2.7,6.7-7.7V69.3h16.2v46h-16.2V109
		c-3,3.8-7.2,7.3-13.8,7.3C115.6,116.3,109.8,109.9,109.8,99.4z"/>
	<path class="st0" d="M164,69.3h16.2v9.3c2.6-6.3,6.9-10.4,14.5-10v17h-1.4c-8.4,0-13.2,4.8-13.2,15.5v14.3H164V69.3z"/>
	<path class="st0" d="M197.8,92.5v-0.2c0-15,9.4-24.1,20.2-24.1c7,0,11.1,3.1,14.1,6.6V53.2h16.2v62.1h-16.2v-6.1
		c-3.1,3.8-7.1,7.1-14,7.1C207.3,116.3,197.8,107.2,197.8,92.5z M232.4,92.3v-0.2c0-6-4.2-10.4-9.4-10.4c-5.2,0-9.4,4.3-9.4,10.4
		v0.2c0,6.1,4.3,10.5,9.4,10.5C228.3,102.8,232.4,98.5,232.4,92.3z"/>
	<path class="st0" d="M255.1,92.5v-0.2c0-13.4,9.6-24.1,23.2-24.1c15.9,0,23.2,11.6,23.2,25.2c0,1,0,2.2-0.1,3.3h-30.8
		c1.3,5,4.9,7.6,9.9,7.6c3.8,0,6.9-1.4,10.2-4.7l8.9,7.4c-4.4,5.6-10.8,9.4-20,9.4C265.3,116.4,255.1,106.8,255.1,92.5z M286.4,88.5
		c-0.6-5.1-3.6-8.3-8-8.3c-4.2,0-7.1,3.3-8,8.3H286.4z"/>
	<path class="st0" d="M308.4,69.3h16.2v9.3c2.6-6.3,6.9-10.4,14.5-10v17h-1.4c-8.4,0-13.2,4.8-13.2,15.5v14.3h-16.2V69.3z"/>
	<path class="st0" d="M341.3,109.5l6-9.8c5.3,3.5,11.1,5.3,15.8,5.3c2.8,0,4.1-0.9,4.1-2.5v-0.2c0-1.8-2.6-2.6-7.4-3.9
		c-9.1-2.4-16.3-5.4-16.3-14.7v-0.2c0-9.8,7.8-15.2,18.4-15.2c6.7,0,13.7,2,19,5.4l-5.5,10.2c-4.8-2.6-9.9-4.2-13.6-4.2
		c-2.5,0-3.7,0.9-3.7,2.2v0.2c0,1.8,2.6,2.6,7.5,4.1c9.1,2.6,16.3,5.7,16.3,14.6v0.2c0,10.1-7.6,15.4-18.8,15.4
		C355.3,116.3,347.7,114.1,341.3,109.5z"/>
</g>
<g>
	<path class="st0" d="M39.1,179v-18.7h-5.4v-13h5.4v-11.6h16.2v11.6H66v13H55.3v15.6c0,3.2,1.4,4.6,4.4,4.6c2.1,0,4.2-0.6,6.1-1.5
		v12.7c-2.9,1.6-6.7,2.6-11.2,2.6C44.9,194.3,39.1,190,39.1,179z"/>
	<path class="st0" d="M69.9,170.5v-0.2c0-13.1,10.7-24.1,25.5-24.1c14.7,0,25.3,10.8,25.3,23.9v0.2c0,13.1-10.7,24.1-25.5,24.1
		C80.5,194.4,69.9,183.6,69.9,170.5z M105,170.5v-0.2c0-5.6-4.1-10.4-9.8-10.4c-5.9,0-9.6,4.7-9.6,10.2v0.2c0,5.6,4.1,10.4,9.8,10.4
		C101.3,180.7,105,176.1,105,170.5z"/>
	<path class="st0" d="M147.6,187.5l6-9.8c5.3,3.5,11.1,5.3,15.8,5.3c2.8,0,4.1-0.8,4.1-2.5v-0.2c0-1.8-2.6-2.6-7.4-3.9
		c-9.1-2.4-16.3-5.4-16.3-14.7v-0.2c0-9.8,7.8-15.2,18.4-15.2c6.7,0,13.7,2,19,5.4l-5.5,10.2c-4.8-2.6-9.9-4.3-13.6-4.3
		c-2.5,0-3.7,0.9-3.7,2.2v0.2c0,1.8,2.6,2.6,7.5,4.1c9.1,2.5,16.3,5.7,16.3,14.6v0.2c0,10.1-7.6,15.4-18.8,15.4
		C161.6,194.3,154,192.1,147.6,187.5z"/>
	<path class="st0" d="M192.9,170.5v-0.2c0-13.1,10.7-24.1,25.5-24.1c14.7,0,25.3,10.8,25.3,23.9v0.2c0,13.1-10.7,24.1-25.5,24.1
		C203.5,194.4,192.9,183.6,192.9,170.5z M228,170.5v-0.2c0-5.6-4.1-10.4-9.8-10.4c-5.9,0-9.6,4.7-9.6,10.2v0.2
		c0,5.6,4.1,10.4,9.8,10.4C224.3,180.7,228,176.1,228,170.5z"/>
	<path class="st0" d="M250.9,131.3H267v62.1h-16.2V131.3z"/>
	<path class="st0" d="M272.5,147.3h17l8.8,26.9l8.8-26.9H324l-18.4,46.3h-14.7L272.5,147.3z"/>
	<path class="st0" d="M324.6,170.5v-0.2c0-13.4,9.6-24.1,23.2-24.1c15.9,0,23.2,11.6,23.2,25.2c0,1,0,2.2-0.1,3.3h-30.8
		c1.3,5,4.9,7.6,9.9,7.6c3.8,0,6.9-1.4,10.2-4.7l8.9,7.4c-4.4,5.6-10.8,9.4-20,9.4C334.8,194.4,324.6,184.8,324.6,170.5z
		 M355.8,166.5c-0.6-5.1-3.6-8.3-8-8.3c-4.2,0-7.1,3.3-8,8.3H355.8z"/>
	<path class="st0" d="M376.8,176.7h16.8v16.6h-16.8V176.7z"/>
</g>
</svg>
