<?xml version="1.0" encoding="utf-8"?>
<!-- Generator: Adobe Illustrator 25.4.1, SVG Export Plug-In . SVG Version: 6.00 Build 0)  -->
<svg version="1.1" id="Layer_1" xmlns="http://www.w3.org/2000/svg" xmlns:xlink="http://www.w3.org/1999/xlink" x="0px" y="0px"
	 viewBox="0 0 970 250" style="enable-background:new 0 0 970 250;" xml:space="preserve">
<style type="text/css">
	.st0{fill:#490A09;}
</style>
<g>
	<path class="st0" d="M48.9,23.5h15.5l7.4,21.4l18.8-21.4h17.3L93,78.9H77.6L86,47.1L66.2,68.7h-0.3l-8.2-21.5l-8.5,31.7H34.1
		L48.9,23.5z"/>
	<path class="st0" d="M105.6,67c0-2.3,0.5-5,1.2-7.7l6.3-23.3h15l-6,22.4c-0.3,1.1-0.6,2.5-0.6,3.5c0,2.8,1.7,4.5,4.8,4.5
		c4.2,0,6.6-2.8,7.9-7.8l6.1-22.6h15L144,78.9h-15l1.3-4.9c-2.9,3.1-7.1,5.9-12.2,5.9C110.3,79.8,105.6,74.8,105.6,67z"/>
	<path class="st0" d="M163.4,36.1h15l-2.3,8.6c4.1-6.1,9.1-9.8,16.1-9.3l-4.3,15.8h-1.3c-8.2,0-13.5,4.6-16.2,14.8l-3.5,12.9h-15
		L163.4,36.1z"/>
	<path class="st0" d="M189.7,62.3c0-15.4,10.8-27.1,23-27.1c6.4,0,10.4,2.8,13,6.8l5.5-20.8h15l-15.4,57.8h-15l1.3-4.5
		c-3.4,3.2-7.5,5.5-12.2,5.5C196.4,79.8,189.7,73.3,189.7,62.3z M222.7,55.2c0-4.6-3.1-7.6-7.4-7.6c-5.6,0-10.4,5.5-10.4,12.3
		c0,4.6,2.9,7.5,7.3,7.5C217.9,67.4,222.7,61.7,222.7,55.2z"/>
	<path class="st0" d="M264.7,68.7c3.1,0,5.9-1,9.1-3.4l7,8.2c-4.4,3.8-10.1,6.4-17.5,6.4c-12.7,0-20.4-7.4-20.4-19
		c0-12.7,9.9-25.8,25.7-25.8c12.7,0,18.2,8.5,18.2,17.7c0,2.9-0.6,6-1.7,8.8h-28.4C257,65.9,259.6,68.7,264.7,68.7z M273,53.9
		c0.2-0.7,0.4-1.5,0.4-2.3c0-2.9-1.9-5.5-5.9-5.5c-4,0-8,2.6-9.8,7.8H273z"/>
	<path class="st0" d="M298,36.1h15l-2.3,8.6c4.1-6.1,9.1-9.8,16.1-9.3l-4.3,15.8h-1.3c-8.2,0-13.5,4.6-16.2,14.8l-3.5,12.9h-15
		L298,36.1z"/>
	<path class="st0" d="M358.5,23.5h15.4L359,78.9h-15.4L358.5,23.5z"/>
	<path class="st0" d="M379.7,36.1h15l-1.3,4.9c2.9-3.1,7.2-5.9,12.3-5.9c7.8,0,12.4,4.9,12.4,12.8c0,2.3-0.6,5-1.3,7.7l-6.2,23.3
		h-15l6-22.4c0.3-1.1,0.5-2.5,0.5-3.5c0-2.8-1.7-4.5-4.7-4.5c-4.2,0-6.6,2.8-8,7.8l-6.1,22.6h-15L379.7,36.1z"/>
	<path class="st0" d="M422.3,63.4H438l-4.2,15.4h-15.6L422.3,63.4z"/>
	<path class="st0" d="M446.2,63.4h15.7l-4.2,15.4h-15.6L446.2,63.4z"/>
	<path class="st0" d="M470.1,63.4h15.7l-4.2,15.4H466L470.1,63.4z"/>
</g>
</svg>
