<svg id="Layer_1" xmlns="http://www.w3.org/2000/svg" viewBox="0 0 300 600"><style>.st0{fill:#490a09}</style><path class="st0" d="M19.3 340.5h24.5v7.2H27.7v4.6h14.6v6.7H27.7v4.8h16.4v7.2H19.3v-30.5zM47.7 362.8v-15.4H56v12.8c0 2.6 1.4 4 3.4 4s3.4-1.4 3.4-4v-12.8h8.3V371h-8.3v-3.2c-1.5 2-3.7 3.7-7.1 3.7-5 0-8-3.3-8-8.7zM75.5 347.4h8.3v4.7c1.4-3.2 3.5-5.3 7.4-5.1v8.7h-.7c-4.3 0-6.8 2.5-6.8 7.9v7.3h-8.3v-23.5zM92.8 359.3c0-6.8 5.5-12.4 13.1-12.4 7.5 0 13 5.5 13 12.2v.1c0 6.7-5.5 12.3-13.1 12.3s-13-5.5-13-12.2zm18 0c0-3-2.1-5.4-5-5.4-3 0-4.9 2.4-4.9 5.2v.1c0 2.9 2.1 5.3 5 5.3s4.9-2.4 4.9-5.2zM122.3 347.4h8.3v3.1c1.6-2 3.6-3.7 7.1-3.7 5.6 0 10.5 4.7 10.5 12.2v.1c0 7.7-4.8 12.3-10.4 12.3-3.6 0-5.7-1.6-7.2-3.4v9.8h-8.3v-30.4zm17.7 11.8c0-3.2-2.1-5.4-4.8-5.4-2.7 0-4.8 2.2-4.8 5.3v.1c0 3.1 2.1 5.4 4.8 5.4 2.7-.1 4.8-2.2 4.8-5.4zM151.8 339.1h8.3v11.5c1.5-2 3.7-3.7 7.1-3.7 5 0 8 3.3 8 8.7V371h-8.3v-12.8c0-2.6-1.4-4-3.3-4-2 0-3.5 1.4-3.5 4V371h-8.3v-31.9zM179.4 339.1h8.6v6.1h-8.6v-6.1zm.2 8.3h8.3V371h-8.3v-23.6zM192.6 339.1h8.3v31.8h-8.3v-31.8zM204.6 359.3c0-7 4.9-12.4 11.9-12.4 8.1 0 11.9 6 11.9 12.9v1.7h-15.8c.7 2.6 2.5 3.9 5.1 3.9 2 0 3.5-.7 5.2-2.4l4.6 3.8c-2.3 2.9-5.5 4.8-10.2 4.8-7.5-.1-12.7-5-12.7-12.3zm16-2.1c-.3-2.6-1.8-4.3-4.1-4.3-2.2 0-3.7 1.7-4.1 4.3h8.2zM231.4 362.5h8.6v8.5h-8.6v-8.5z"/></svg>