<svg id="Layer_1" xmlns="http://www.w3.org/2000/svg" viewBox="0 0 300 600"><style>.st0{fill:#490a09}</style><path class="st0" d="M19.5 252.7H28v30.5h-8.5v-30.5zM34.5 275.9v-9.6h-2.8v-6.7h2.8v-6h8.3v6h5.5v6.7h-5.5v8c0 1.7.7 2.4 2.3 2.4 1.1 0 2.1-.3 3.1-.8v6.5c-1.5.8-3.4 1.4-5.8 1.4-4.9-.1-7.9-2.3-7.9-7.9zM50.7 276.4c0-5 3.7-7.5 9.2-7.5 2.2 0 4.3.4 5.7.9v-.4c0-2.4-1.5-3.8-4.7-3.8-2.5 0-4.4.5-6.5 1.3l-1.7-5.8c2.7-1.1 5.5-1.8 9.5-1.8 4.2 0 7.1 1 9 2.9 1.8 1.7 2.5 4.2 2.5 7.5v13.5h-8.2v-2.4c-1.6 1.8-3.8 3-6.9 3-4.5-.1-7.9-2.6-7.9-7.4zm15-1.7v-1.1c-.8-.3-2-.6-3.2-.6-2.4 0-3.8 1.2-3.8 2.9v.1c0 1.6 1.2 2.6 2.9 2.6 2.4-.1 4.1-1.6 4.1-3.9zM78.1 251.4h8.3v31.8h-8.3v-31.8zM90.1 271.5c0-6.8 5.5-12.4 13.1-12.4 7.5 0 13 5.5 13 12.2v.1c0 6.7-5.5 12.3-13.1 12.3-7.6.1-13-5.5-13-12.2zm18 0c0-3-2.1-5.4-5-5.4-3 0-4.9 2.4-4.9 5.2v.1c0 2.9 2.1 5.3 5 5.3 2.9.1 4.9-2.3 4.9-5.2zM119.6 259.6h8.3v3.1c1.6-2 3.6-3.7 7.1-3.7 5.6 0 10.5 4.7 10.5 12.2v.1c0 7.7-4.8 12.3-10.4 12.3-3.6 0-5.7-1.6-7.2-3.4v9.8h-8.3v-30.4zm17.7 11.8c0-3.2-2.1-5.4-4.8-5.4-2.7 0-4.8 2.2-4.8 5.3v.1c0 3.1 2.1 5.4 4.8 5.4 2.7 0 4.8-2.2 4.8-5.4zM149.1 251.4h8.3v11.5c1.5-2 3.7-3.7 7.1-3.7 5 0 8 3.3 8 8.7v15.4h-8.3v-12.8c0-2.6-1.4-4-3.3-4-2 0-3.5 1.4-3.5 4v12.8h-8.3v-31.9zM176.7 251.4h8.6v6.1h-8.6v-6.1zm.2 8.2h8.3v23.6h-8.3v-23.6zM189.9 251.4h8.3v31.8h-8.3v-31.8zM201.9 271.5c0-7 4.9-12.4 11.9-12.4 8.1 0 11.9 6 11.9 12.9v1.7h-15.8c.7 2.6 2.5 3.9 5.1 3.9 2 0 3.5-.7 5.2-2.4l4.6 3.8c-2.3 2.9-5.5 4.8-10.2 4.8-7.5 0-12.7-5-12.7-12.3zm16-2c-.3-2.6-1.8-4.3-4.1-4.3-2.2 0-3.7 1.7-4.1 4.3h8.2zM228.7 274.7h8.6v8.5h-8.6v-8.5z"/></svg>