<svg id="Layer_1" xmlns="http://www.w3.org/2000/svg" viewBox="0 0 300 600"><style>.st0{fill:#490a09}</style><path class="st0" d="M19.8 242.2h11.6l6.9 22.9 7.6-23.1h9.5l7.6 23.1 6.9-22.9h11.4L68 282.1h-9.6l-8-22.8-7.9 22.8h-9.6l-13.1-39.9zM80.2 266.7v-.1c0-8.9 6.4-16 15.5-16 10.6 0 15.5 7.8 15.5 16.8 0 .7 0 1.5-.1 2.2H90.5c.8 3.3 3.3 5 6.6 5 2.5 0 4.6-1 6.8-3.1l5.9 4.9c-2.9 3.7-7.2 6.2-13.3 6.2-9.5 0-16.3-6.4-16.3-15.9zM101 264c-.4-3.4-2.4-5.6-5.3-5.6-2.8 0-4.8 2.2-5.3 5.6H101zM131.4 240.5h10.8v14.9c2-2.5 4.8-4.9 9.2-4.9 6.5 0 10.4 4.3 10.4 11.3v20.1H151v-16.6c0-3.3-1.8-5.2-4.3-5.2-2.6 0-4.5 1.8-4.5 5.2v16.6h-10.8v-41.4zM165.7 273.1v-.1c0-6.3 4.8-9.6 12-9.6 2.8 0 5.6.6 7.4 1.2v-.6c0-3.2-2-5-6.1-5-3.2 0-5.7.6-8.4 1.7l-2.2-7.6c3.5-1.4 7.1-2.4 12.4-2.4 5.5 0 9.2 1.3 11.7 3.7 2.3 2.3 3.3 5.4 3.3 9.7v17.6h-10.6v-3.2c-2.1 2.3-5 3.9-9 3.9-6 .1-10.5-3.2-10.5-9.3zm19.5-2.4v-1.4c-1.1-.5-2.6-.8-4.2-.8-3.1 0-4.9 1.5-4.9 3.8v.1c0 2.1 1.6 3.3 3.8 3.3 3.1.1 5.3-1.9 5.3-5zM197.4 251.2h11.3l5.9 17.9 5.9-17.9h11.2l-12.2 30.9h-9.8l-12.3-30.9zM232 266.7v-.1c0-8.9 6.4-16 15.5-16 10.6 0 15.5 7.8 15.5 16.8 0 .7 0 1.5-.1 2.2h-20.5c.8 3.3 3.3 5 6.6 5 2.5 0 4.6-1 6.8-3.1l5.9 4.9c-2.9 3.7-7.2 6.2-13.3 6.2-9.6 0-16.4-6.4-16.4-15.9zm20.9-2.7c-.4-3.4-2.4-5.6-5.3-5.6-2.8 0-4.8 2.2-5.3 5.6h10.6z"/><g><path class="st0" d="M21.1 345.4l3.3-7.5c1.7 1 3.5 1.6 4.7 1.6 1.1 0 1.8-.3 2.5-1.2l-12-30.1h11.3l6.1 18.5 5.8-18.5h11l-11.2 29.9c-2.7 7.1-5.6 10-11.7 10-3.7 0-7-1.1-9.8-2.7zM54.5 323.7v-.1c0-8.7 7.1-16 17-16 9.8 0 16.9 7.2 16.9 15.9v.1c0 8.7-7.1 16-17 16s-16.9-7.2-16.9-15.9zm23.3 0v-.1c0-3.7-2.7-6.9-6.5-6.9-3.9 0-6.4 3.1-6.4 6.8v.1c0 3.7 2.7 6.9 6.5 6.9 4 0 6.4-3.1 6.4-6.8zM92.6 328.3v-20.1h10.8v16.6c0 3.3 1.8 5.2 4.4 5.2 2.5 0 4.5-1.8 4.5-5.2v-16.6H123v30.6h-10.8v-4.2c-2 2.5-4.8 4.9-9.2 4.9-6.5.1-10.4-4.3-10.4-11.2zM128.8 308.2h10.8v6.2c1.8-4.2 4.6-6.9 9.7-6.7V319h-.9c-5.6 0-8.8 3.2-8.8 10.3v9.5h-10.8v-30.6zM179 308.9h-11.9v-9.6h34.8v9.6H190v30h-11v-30zM203.5 299.2h12.3l9 25.1 9-25.1h12.1l-16.1 39.9h-10.2l-16.1-39.9zM241.9 327.8h11.2v11h-11.2v-11z"/></g></svg>