<svg id="Layer_1" xmlns="http://www.w3.org/2000/svg" viewBox="0 0 300 600"><style>.st0{fill:#fff}</style><path class="st0" d="M27.7 196.8h-9.4v-7.6h27.5v7.6h-9.4v23.7h-8.7v-23.7zM49.1 187.9h8.5v11.8c1.6-2 3.8-3.8 7.2-3.8 5.1 0 8.2 3.4 8.2 8.9v15.8h-8.5v-13.1c0-2.6-1.4-4.1-3.4-4.1-2.1 0-3.6 1.4-3.6 4.1v13.1H49v-32.7zM76.5 208.5c0-7.2 5.1-12.8 12.2-12.8 8.4 0 12.2 6.1 12.2 13.2v1.7H84.7c.7 2.6 2.6 4 5.2 4 2 0 3.6-.8 5.4-2.5l4.7 3.9c-2.3 3-5.7 4.9-10.5 4.9-7.6.2-13-4.8-13-12.4zm16.5-2.1c-.3-2.7-1.9-4.4-4.2-4.4-2.2 0-3.8 1.7-4.2 4.4H93zM115.3 189.2h9.2l5.5 18.1 6-18.2h7.5l6 18.2 5.5-18.1h9l-10.5 31.6h-7.6l-6.3-18-6.3 18h-7.6l-10.4-31.6zM163 208.5c0-7 5.6-12.8 13.4-12.8 7.7 0 13.3 5.7 13.3 12.6v.1c0 6.9-5.6 12.7-13.4 12.7-7.7 0-13.3-5.7-13.3-12.6zm18.5 0c0-3-2.1-5.5-5.1-5.5-3.1 0-5.1 2.5-5.1 5.4v.1c0 3 2.1 5.5 5.1 5.5 3.1-.1 5.1-2.6 5.1-5.5zM193.4 196.3h8.5v4.9c1.4-3.3 3.6-5.5 7.7-5.3v9h-.7c-4.4 0-6.9 2.6-6.9 8.1v7.5h-8.5v-24.2zM212.7 187.9h8.5v32.7h-8.5v-32.7zM225 208.5c0-8 4.9-12.8 10.7-12.8 3.7 0 5.8 1.7 7.4 3.5v-11.4h8.5v32.7h-8.5v-3.2c-1.7 2-3.8 3.8-7.4 3.8-5.7 0-10.7-4.8-10.7-12.6zm18.3-.1c0-3.3-2.2-5.5-4.9-5.5s-5 2.2-5 5.5v.1c0 3.2 2.2 5.5 5 5.5 2.7 0 4.9-2.3 4.9-5.6zM254.9 202.1c3-.3 4.6-1.8 4.5-4.2H256v-8.7h8.8v7.1c0 6.6-3.6 8.9-9.2 9.1l-.7-3.3zM266.8 217.5l3.2-5.1c2.8 1.8 5.8 2.8 8.3 2.8 1.5 0 2.1-.4 2.1-1.3v-.1c0-.9-1.3-1.3-3.9-2.1-4.8-1.3-8.6-2.9-8.6-7.7v-.1c0-5.1 4.1-8 9.7-8 3.5 0 7.2 1 10 2.8l-2.9 5.4c-2.5-1.4-5.2-2.2-7.2-2.2-1.3 0-2 .5-2 1.2v.1c0 .9 1.4 1.4 3.9 2.1 4.8 1.3 8.6 3 8.6 7.7v.1c0 5.3-4 8.1-9.9 8.1-4-.1-8-1.3-11.3-3.7z"/><g><path class="st0" d="M20 234.3h16.1c3.9 0 6.7 1 8.5 2.8 1.3 1.3 2 2.9 2 5.1v.1c0 3.6-2.1 5.8-4.8 7 3.8 1.3 6.2 3.4 6.2 7.7v.1c0 5.4-4.4 8.6-11.9 8.6H20v-31.4zm14 12.5c2.6 0 4.1-.9 4.1-2.7v-.1c0-1.7-1.3-2.7-3.9-2.7h-5.6v5.5H34zm1.2 11.8c2.6 0 4.2-1 4.2-2.9v-.1c0-1.7-1.3-2.8-4.3-2.8h-6.6v5.8h6.7zM50.6 253.6c0-7.2 5.1-12.8 12.2-12.8 8.4 0 12.2 6.1 12.2 13.2v1.7H58.8c.7 2.6 2.6 4 5.2 4 2 0 3.6-.8 5.4-2.5l4.7 3.9c-2.3 3-5.7 4.9-10.5 4.9-7.7.2-13-4.9-13-12.4zm16.4-2.1c-.3-2.7-1.9-4.4-4.2-4.4-2.2 0-3.8 1.7-4.2 4.4H67zM76.8 262.6l3.2-5.1c2.8 1.8 5.8 2.8 8.3 2.8 1.5 0 2.1-.4 2.1-1.3v-.1c0-.9-1.3-1.3-3.9-2.1-4.8-1.3-8.6-2.9-8.6-7.7v-.1c0-5.1 4.1-8 9.7-8 3.5 0 7.2 1 10 2.8l-2.9 5.4c-2.5-1.4-5.2-2.2-7.2-2.2-1.3 0-2 .5-2 1.2v.1c0 .9 1.4 1.4 3.9 2.1 4.8 1.3 8.6 3 8.6 7.7v.1c0 5.3-4 8.1-9.9 8.1-3.9-.2-7.9-1.3-11.3-3.7zM102.7 258.1v-9.8h-2.9v-6.8h2.9v-6.1h8.5v6.1h5.6v6.8h-5.6v8.2c0 1.7.8 2.4 2.3 2.4 1.1 0 2.2-.3 3.2-.8v6.7c-1.5.9-3.5 1.4-5.9 1.4-5-.1-8.1-2.3-8.1-8.1zM141.1 241.9h-9.4v-7.6h27.5v7.6h-9.4v23.7h-8.7v-23.7zM160.5 234.3h9.7l7.1 19.8 7.1-19.8h9.5l-12.7 31.6h-8.1l-12.6-31.6z"/></g><g><path class="st0" d="M19.7 278h8.5v32.7h-8.5V278zM33 278h8.9v6.3H33V278zm.2 8.5h8.5v24.2h-8.5v-24.2zM44.6 286.5h9l4.7 14.1 4.7-14.1h8.8L62 310.9h-7.7l-9.7-24.4zM72 298.7c0-7.2 5.1-12.8 12.2-12.8 8.4 0 12.2 6.1 12.2 13.2v1.7H80.2c.7 2.6 2.6 4 5.2 4 2 0 3.6-.8 5.4-2.5l4.7 3.9c-2.3 3-5.7 4.9-10.5 4.9-7.7.2-13-4.9-13-12.4zm16.4-2.1c-.3-2.7-1.9-4.4-4.2-4.4-2.2 0-3.8 1.7-4.2 4.4h8.4zM98.2 307.6l3.2-5.1c2.8 1.8 5.8 2.8 8.3 2.8 1.5 0 2.1-.4 2.1-1.3v-.1c0-.9-1.3-1.3-3.9-2.1-4.8-1.3-8.6-2.9-8.6-7.7v-.1c0-5.1 4.1-8 9.7-8 3.5 0 7.2 1 10 2.8l-2.9 5.4c-2.5-1.4-5.2-2.2-7.2-2.2-1.3 0-2 .5-2 1.2v.1c0 .9 1.4 1.4 3.9 2.1 4.8 1.3 8.6 3 8.6 7.7v.1c0 5.3-4 8.1-9.9 8.1-3.9-.1-8-1.2-11.3-3.7zM135.4 278h8.5v11.8c1.6-2 3.8-3.8 7.2-3.8 5.1 0 8.2 3.4 8.2 8.9v15.8h-8.5v-13.1c0-2.6-1.4-4.1-3.4-4.1-2.1 0-3.6 1.4-3.6 4.1v13.1h-8.5V278zM162.8 298.7c0-7.2 5.1-12.8 12.2-12.8 8.4 0 12.2 6.1 12.2 13.2v1.7H171c.7 2.6 2.6 4 5.2 4 2 0 3.6-.8 5.4-2.5l4.7 3.9c-2.3 3-5.7 4.9-10.5 4.9-7.6.2-13-4.9-13-12.4zm16.5-2.1c-.3-2.7-1.9-4.4-4.2-4.4-2.2 0-3.8 1.7-4.2 4.4h8.4zM190.9 286.5h8.5v4.9c1.4-3.3 3.6-5.5 7.7-5.3v9h-.7c-4.4 0-6.9 2.6-6.9 8.1v7.5H191v-24.2zM208.6 298.7c0-7.2 5.1-12.8 12.2-12.8 8.4 0 12.2 6.1 12.2 13.2v1.7h-16.2c.7 2.6 2.6 4 5.2 4 2 0 3.6-.8 5.4-2.5l4.7 3.9c-2.3 3-5.7 4.9-10.5 4.9-7.6.2-13-4.9-13-12.4zm16.5-2.1c-.3-2.7-1.9-4.4-4.2-4.4-2.2 0-3.8 1.7-4.2 4.4h8.4zM236.1 302h8.9v8.7h-8.9V302z"/></g></svg>