<svg id="Layer_1" xmlns="http://www.w3.org/2000/svg" xmlns:xlink="http://www.w3.org/1999/xlink" viewBox="0 0 300 600"><style>.st0,.st1{clip-path:url(#SVGID_00000160168169538866923020000012624542277965538724_);fill:#ac1f2d}.st1{fill:#fff}</style><defs><path id="SVGID_1_" d="M18.4 14.5h75.3v83H18.4z"/></defs><clipPath id="SVGID_00000160182989569813473650000007302898846797572272_"><use xlink:href="#SVGID_1_" overflow="visible"/></clipPath><path d="M88.6 55.2c0 19.3-15.6 34.9-34.9 34.9-19.3 0-34.9-15.6-34.9-34.9s15.6-34.9 34.9-34.9C73 20.4 88.6 36 88.6 55.2" clip-path="url(#SVGID_00000160182989569813473650000007302898846797572272_)" fill="#ac1f2d"/><path d="M67.6 48.9v4h4.5l-5.3 8.4H80v-4.1h-5.6l5.1-8.3H67.6zm-25.9-5l-4.2 9.4-4.2-9.4h-5.9v17.3h4.8V52l4.2 9.2h2.1l4.2-9.5v9.5h4.9V43.9h-5.9zm19.1 0V50h-6.1v-6.1h-5.4v17.3h5.4v-6.9h6.1v6.9h5.4V43.9h-5.4zM67.3 68.3H72v-1.4h-3.1V66h2.8v-1.3h-2.8v-.9h3v-1.4h-4.6v5.9zm-3.7.1c1.3 0 2-.5 2.5-1.3l-1.2-.9c-.3.4-.7.7-1.3.7-.8 0-1.4-.7-1.4-1.5s.6-1.5 1.4-1.5c.5 0 .9.3 1.3.7l1.2-.9c-.5-.7-1.3-1.2-2.4-1.2-1.7 0-3 1.3-3 3-.1 1.7 1.2 2.9 2.9 2.9m-5.9-.1h1.6v-5.7h-1.6v5.7zM53.2 67c-.9 0-1.5-.7-1.5-1.5s.6-1.5 1.4-1.5c.9 0 1.5.7 1.5 1.5.1.8-.5 1.5-1.4 1.5m0 1.4c1.8 0 3.1-1.3 3.1-3 0-1.6-1.3-3-3.1-3s-3.1 1.3-3.1 3 1.4 3 3.1 3m-9.6-.1h1.6v-2.2h2v2.2h1.6v-5.7h-1.6v2.1h-2v-2.1h-1.6v5.7zm-3.7.1c1.3 0 2-.5 2.5-1.3l-1.2-.9c-.3.5-.6.8-1.2.8-.8 0-1.4-.7-1.4-1.5S39.2 64 40 64c.5 0 .9.3 1.3.7l1.2-.9c-.5-.7-1.3-1.2-2.4-1.2-1.7 0-3 1.3-3 3-.1 1.6 1.2 2.8 2.8 2.8" clip-path="url(#SVGID_00000160182989569813473650000007302898846797572272_)" fill="#fff"/></svg>