<?xml version="1.0" encoding="utf-8"?>
<!-- Generator: Adobe Illustrator 25.4.1, SVG Export Plug-In . SVG Version: 6.00 Build 0)  -->
<svg version="1.1" id="Layer_1" xmlns="http://www.w3.org/2000/svg" xmlns:xlink="http://www.w3.org/1999/xlink" x="0px" y="0px"
	 viewBox="0 0 970 250" style="enable-background:new 0 0 970 250;" xml:space="preserve">
<style type="text/css">
	.st0{fill:#490A09;}
</style>
<g>
	<path class="st0" d="M63.5,57.8h16.6l26.4,62.5H88l-4.5-11.1h-24l-4.4,11.1H37L63.5,57.8z M78.6,95.9l-6.9-17.7l-7,17.7H78.6z"/>
	<path class="st0" d="M153,114.5v5.9h-16.9V55.6H153v23.2c3.3-4,7.4-7.5,14.5-7.5c11.4,0,21.3,9.5,21.3,24.8v0.2
		c0,15.6-9.8,25.1-21.2,25.1C160.3,121.4,156.1,118.1,153,114.5z M172.2,96.4v-0.2c0-6.3-4.3-10.8-9.8-10.8c-5.4,0-9.8,4.5-9.8,10.8
		v0.2c0,6.4,4.3,10.9,9.8,10.9C167.9,107.3,172.2,102.9,172.2,96.4z"/>
	<path class="st0" d="M196.1,72.4h16.9V82c2.8-6.6,7.2-10.8,15.2-10.5v17.7h-1.4c-8.8,0-13.8,5.1-13.8,16.1v14.9h-16.9V72.4z"/>
	<path class="st0" d="M234.1,55.6h17.6V68h-17.6V55.6z M234.4,72.4h16.9v48h-16.9V72.4z"/>
	<path class="st0" d="M261,55.6h16.9v64.8H261V55.6z"/>
	<path class="st0" d="M287.6,55.6h16.9v64.8h-16.9V55.6z"/>
	<path class="st0" d="M313.9,55.6h17.6V68h-17.6V55.6z M314.3,72.4h16.9v48h-16.9V72.4z"/>
	<path class="st0" d="M338.1,106.6v-0.2c0-9.9,7.5-15.1,18.8-15.1c4.4,0,8.8,0.9,11.5,1.9v-0.8c0-5-3.1-7.8-9.6-7.8
		c-5.1,0-9,1-13.2,2.7l-3.5-11.9c5.4-2.2,11.2-3.7,19.4-3.7c8.6,0,14.5,2,18.3,5.9c3.6,3.5,5.1,8.5,5.1,15.3v27.6h-16.7v-5
		c-3.3,3.6-7.8,6-14.1,6C345.1,121.4,338.1,116.2,338.1,106.6z M368.6,103v-2.2c-1.7-0.7-4.1-1.2-6.6-1.2c-4.9,0-7.7,2.4-7.7,5.9
		v0.2c0,3.3,2.5,5.2,5.9,5.2C365.2,110.9,368.6,107.8,368.6,103z"/>
	<path class="st0" d="M393.6,72.4h16.9v6.7c3.1-4,7.5-7.8,14.4-7.8c10.2,0,16.3,6.7,16.3,17.7v31.4h-16.9v-26c0-5.2-2.8-8.1-6.7-8.1
		c-4.1,0-7.1,2.8-7.1,8.1v26h-16.9V72.4z"/>
	<path class="st0" d="M452.8,105.5V85.9h-5.7V72.4h5.7V60.2h16.9v12.2h11.2v13.6h-11.2v16.2c0,3.4,1.5,4.8,4.6,4.8
		c2.2,0,4.3-0.6,6.4-1.6v13.2c-3,1.7-7,2.8-11.7,2.8C458.9,121.3,452.8,116.9,452.8,105.5z"/>
	<path class="st0" d="M488.5,55.6h16.9v64.8h-16.9V55.6z"/>
	<path class="st0" d="M513.5,130.7l5.2-11.8c2.7,1.6,5.5,2.6,7.4,2.6c1.7,0,2.8-0.4,3.9-2l-18.8-47.1h17.7l9.6,28.9l9-28.9h17.3
		l-17.6,46.8c-4.2,11.2-8.7,15.6-18.3,15.6C523,134.8,517.9,133.1,513.5,130.7z"/>
</g>
<g>
	<path class="st0" d="M44,160.6h-5.6v-13.2H44v-1.1c0-5.5,1.2-9.6,4.1-12.4c2.9-2.9,6.8-4.2,12.5-4.2c5.1,0,8.3,0.5,11,1.3V143
		c-2-0.6-3.9-1-6.3-1c-3.1,0-4.8,1.4-4.8,4.5v1.2h11v13H60.8v34.5H44V160.6z"/>
	<path class="st0" d="M76.5,178.6v-31.4h16.9v26c0,5.2,2.8,8.1,6.8,8.1c4,0,7-2.8,7-8.1v-26h16.9v48h-16.9v-6.6
		c-3.1,4-7.5,7.6-14.4,7.6C82.6,196.2,76.5,189.5,76.5,178.6z"/>
	<path class="st0" d="M133.1,147.1H150v6.7c3.1-4,7.5-7.8,14.4-7.8c10.2,0,16.3,6.7,16.3,17.7v31.4h-16.9v-26c0-5.2-2.8-8.1-6.7-8.1
		c-4.1,0-7.1,2.8-7.1,8.1v26h-16.9V147.1z"/>
	<path class="st0" d="M189.3,147.1h16.9v6.7c3.1-4,7.5-7.8,14.4-7.8c10.2,0,16.3,6.7,16.3,17.7v31.4H220v-26c0-5.2-2.8-8.1-6.7-8.1
		c-4.1,0-7.1,2.8-7.1,8.1v26h-16.9V147.1z"/>
	<path class="st0" d="M243.1,205.4l5.2-11.8c2.7,1.6,5.5,2.6,7.4,2.6c1.7,0,2.8-0.4,3.9-2l-18.8-47.1h17.7l9.6,28.9l9-28.9h17.3
		L276.8,194c-4.2,11.2-8.7,15.6-18.3,15.6C252.6,209.6,247.5,207.9,243.1,205.4z"/>
	<path class="st0" d="M324.5,147.1h16.9v6.4c3.3-4,7.4-7.5,14.5-7.5c11.4,0,21.3,9.5,21.3,24.8v0.2c0,15.6-9.8,25.1-21.2,25.1
		c-7.3,0-11.5-3.3-14.6-6.9v20h-16.9V147.1z M360.6,171.2V171c0-6.3-4.3-10.8-9.8-10.8c-5.4,0-9.8,4.5-9.8,10.8v0.2
		c0,6.4,4.3,10.9,9.8,10.9C356.2,182.1,360.6,177.7,360.6,171.2z"/>
	<path class="st0" d="M384.4,147.1h16.9v9.7c2.8-6.6,7.2-10.8,15.2-10.5v17.7H415c-8.8,0-13.8,5.1-13.8,16.1v14.9h-16.9V147.1z"/>
	<path class="st0" d="M419.6,171.4v-0.2c0-13.7,11.2-25.1,26.6-25.1c15.3,0,26.4,11.3,26.4,24.9v0.2c0,13.7-11.2,25.1-26.6,25.1
		C430.6,196.3,419.6,185,419.6,171.4z M456.2,171.4v-0.2c0-5.9-4.3-10.8-10.2-10.8c-6.1,0-10,4.9-10,10.6v0.2
		c0,5.9,4.3,10.8,10.2,10.8C452.3,182,456.2,177.1,456.2,171.4z"/>
	<path class="st0" d="M476,189.1l6.3-10.2c5.5,3.6,11.5,5.5,16.5,5.5c2.9,0,4.3-0.9,4.3-2.6v-0.2c0-1.9-2.7-2.7-7.7-4.1
		c-9.5-2.5-17-5.7-17-15.3v-0.2c0-10.2,8.2-15.9,19.3-15.9c7,0,14.3,2,19.8,5.6l-5.8,10.6c-5-2.8-10.4-4.4-14.2-4.4
		c-2.6,0-3.9,1-3.9,2.3v0.2c0,1.9,2.8,2.8,7.8,4.3c9.5,2.7,17,5.9,17,15.3v0.2c0,10.6-7.9,16.1-19.6,16.1
		C490.6,196.2,482.6,193.9,476,189.1z"/>
	<path class="st0" d="M523.3,171.4v-0.2c0-14,10-25.1,24.2-25.1c16.6,0,24.2,12.2,24.2,26.3c0,1.1,0,2.3-0.1,3.5h-32.1
		c1.3,5.2,5.1,7.9,10.4,7.9c4,0,7.2-1.5,10.6-4.9l9.3,7.7c-4.6,5.9-11.3,9.8-20.8,9.8C533.9,196.3,523.3,186.3,523.3,171.4z
		 M555.9,167.2c-0.6-5.3-3.7-8.7-8.3-8.7c-4.4,0-7.5,3.5-8.3,8.7H555.9z"/>
	<path class="st0" d="M576.9,171.4v-0.2c0-13.6,10.6-25,25.7-25c9.8,0,16.4,4.3,20.5,10.7l-11.4,8.5c-2.3-3.2-4.9-5.1-9-5.1
		c-5.4,0-9.4,4.8-9.4,10.6v0.2c0,6.2,3.9,10.9,9.6,10.9c4,0,6.6-1.9,9.2-5l11.3,8.2c-4.4,6.6-10.8,11-21.4,11
		C587.6,196.3,576.9,184.9,576.9,171.4z"/>
	<path class="st0" d="M629,178.6v-31.4h16.9v26c0,5.2,2.8,8.1,6.8,8.1c4,0,7-2.8,7-8.1v-26h16.9v48h-16.9v-6.6
		c-3.1,4-7.5,7.6-14.4,7.6C635.1,196.2,629,189.5,629,178.6z"/>
	<path class="st0" d="M688.5,180.2v-19.5h-5.7v-13.6h5.7V135h16.9v12.2h11.2v13.6h-11.2V177c0,3.4,1.5,4.8,4.6,4.8
		c2.2,0,4.3-0.6,6.4-1.6v13.2c-3,1.7-7,2.8-11.7,2.8C694.6,196.1,688.5,191.7,688.5,180.2z"/>
	<path class="st0" d="M720.6,171.4v-0.2c0-13.7,11.2-25.1,26.6-25.1c15.3,0,26.4,11.3,26.4,24.9v0.2c0,13.7-11.2,25.1-26.6,25.1
		C731.7,196.3,720.6,185,720.6,171.4z M757.3,171.4v-0.2c0-5.9-4.3-10.8-10.2-10.8c-6.1,0-10,4.9-10,10.6v0.2
		c0,5.9,4.3,10.8,10.2,10.8C753.4,182,757.3,177.1,757.3,171.4z"/>
	<path class="st0" d="M780.8,147.1h16.9v9.7c2.8-6.6,7.2-10.8,15.2-10.5v17.7h-1.4c-8.8,0-13.8,5.1-13.8,16.1v14.9h-16.9V147.1z"/>
	<path class="st0" d="M812.4,177.8h17.6v17.3h-17.6V177.8z"/>
</g>
</svg>
