<?xml version="1.0" encoding="utf-8"?>
<!-- Generator: Adobe Illustrator 25.4.1, SVG Export Plug-In . SVG Version: 6.00 Build 0)  -->
<svg version="1.1" id="Layer_1" xmlns="http://www.w3.org/2000/svg" xmlns:xlink="http://www.w3.org/1999/xlink" x="0px" y="0px"
	 viewBox="0 0 970 250" style="enable-background:new 0 0 970 250;" xml:space="preserve">
<style type="text/css">
	.st0{fill:#490A09;}
</style>
<g>
	<path class="st0" d="M36.8,150.4l7.5-9c4.8,3.8,10.2,5.9,15.8,5.9c3.6,0,5.6-1.3,5.6-3.4v-0.1c0-2-1.6-3.1-8.2-4.7
		c-10.4-2.4-18.4-5.3-18.4-15.4v-0.1c0-9.1,7.2-15.6,18.9-15.6c8.3,0,14.8,2.2,20.1,6.5l-6.8,9.6c-4.5-3.1-9.4-4.8-13.7-4.8
		c-3.3,0-4.9,1.4-4.9,3.1v0.1c0,2.2,1.7,3.2,8.4,4.7c11.2,2.4,18.2,6.1,18.2,15.2v0.1c0,10-7.9,15.9-19.8,15.9
		C51.1,158.5,42.8,155.8,36.8,150.4z"/>
	<path class="st0" d="M83.7,138.9v-0.1c0-11,7.9-19.8,19.1-19.8c13.1,0,19.1,9.6,19.1,20.7c0,0.8,0,1.8-0.1,2.7H96.5
		c1,4.1,4,6.2,8.2,6.2c3.1,0,5.7-1.2,8.4-3.8l7.3,6.1c-3.6,4.6-8.9,7.7-16.4,7.7C92.1,158.6,83.7,150.7,83.7,138.9z M109.4,135.7
		c-0.5-4.2-2.9-6.8-6.6-6.8c-3.5,0-5.9,2.7-6.6,6.8H109.4z"/>
	<path class="st0" d="M125.6,146.8v-0.1c0-7.8,5.9-11.9,14.8-11.9c3.5,0,6.9,0.7,9.1,1.5v-0.6c0-3.9-2.4-6.1-7.5-6.1
		c-4,0-7.1,0.8-10.4,2.1l-2.7-9.4c4.3-1.7,8.8-2.9,15.3-2.9c6.8,0,11.4,1.6,14.4,4.6c2.9,2.8,4,6.7,4,12v21.7h-13.1v-3.9
		c-2.6,2.9-6.1,4.7-11.1,4.7C131.1,158.5,125.6,154.4,125.6,146.8z M149.6,144v-1.7c-1.3-0.6-3.2-1-5.2-1c-3.8,0-6.1,1.9-6.1,4.7
		v0.1c0,2.6,2,4.1,4.7,4.1C146.9,150.2,149.6,147.7,149.6,144z"/>
	<path class="st0" d="M166.5,152.9l5-8c4.3,2.9,9.1,4.3,13,4.3c2.3,0,3.4-0.7,3.4-2V147c0-1.5-2.1-2.1-6.1-3.2
		c-7.5-2-13.4-4.5-13.4-12.1v-0.1c0-8,6.4-12.5,15.1-12.5c5.5,0,11.2,1.6,15.6,4.4l-4.5,8.4c-3.9-2.2-8.2-3.5-11.2-3.5
		c-2,0-3.1,0.8-3.1,1.8v0.1c0,1.5,2.2,2.2,6.1,3.4c7.5,2.1,13.4,4.7,13.4,12v0.1c0,8.3-6.2,12.6-15.4,12.6
		C178,158.5,171.7,156.7,166.5,152.9z"/>
	<path class="st0" d="M203.7,138.9v-0.1c0-10.8,8.8-19.8,20.9-19.8c12.1,0,20.8,8.9,20.8,19.6v0.1c0,10.8-8.8,19.8-20.9,19.8
		C212.4,158.6,203.7,149.7,203.7,138.9z M232.5,138.9v-0.1c0-4.6-3.4-8.5-8-8.5c-4.8,0-7.9,3.8-7.9,8.4v0.1c0,4.6,3.4,8.5,8,8.5
		C229.4,147.3,232.5,143.5,232.5,138.9z"/>
	<path class="st0" d="M251,119.9h13.3v5.3c2.4-3.1,5.9-6.1,11.3-6.1c8,0,12.8,5.3,12.8,13.9v24.7h-13.3v-20.5c0-4.1-2.2-6.4-5.3-6.4
		c-3.2,0-5.6,2.2-5.6,6.4v20.5H251V119.9z"/>
	<path class="st0" d="M322.4,121.1l-8.2,1.9l-2.6-10.5l14.3-4h9.8v49.2h-13.3V121.1z"/>
	<path class="st0" d="M365.8,130.5h-4.4v-10.4h4.4v-0.8c0-4.3,1-7.5,3.2-9.8c2.3-2.3,5.4-3.3,9.8-3.3c4,0,6.6,0.4,8.7,1v9.4
		c-1.5-0.5-3.1-0.8-5-0.8c-2.4,0-3.8,1.1-3.8,3.6v0.9h8.7v10.2H379v27.2h-13.2V130.5z"/>
	<path class="st0" d="M391.6,119.9h13.3v7.6c2.2-5.2,5.7-8.5,11.9-8.2v14h-1.1c-6.9,0-10.8,4-10.8,12.7v11.7h-13.3V119.9z"/>
	<path class="st0" d="M419.3,138.9v-0.1c0-11,7.9-19.8,19.1-19.8c13.1,0,19.1,9.6,19.1,20.7c0,0.8,0,1.8-0.1,2.7h-25.3
		c1,4.1,4,6.2,8.2,6.2c3.1,0,5.7-1.2,8.4-3.8l7.3,6.1c-3.6,4.6-8.9,7.7-16.4,7.7C427.7,158.6,419.3,150.7,419.3,138.9z M445,135.7
		c-0.5-4.2-2.9-6.8-6.6-6.8c-3.5,0-5.9,2.7-6.6,6.8H445z"/>
	<path class="st0" d="M461.5,138.9v-0.1c0-11,7.9-19.8,19.1-19.8c13.1,0,19.1,9.6,19.1,20.7c0,0.8,0,1.8-0.1,2.7h-25.3
		c1,4.1,4,6.2,8.2,6.2c3.1,0,5.7-1.2,8.4-3.8l7.3,6.1c-3.6,4.6-8.9,7.7-16.4,7.7C469.9,158.6,461.5,150.7,461.5,138.9z M487.2,135.7
		c-0.5-4.2-2.9-6.8-6.6-6.8c-3.5,0-5.9,2.7-6.6,6.8H487.2z"/>
	<path class="st0" d="M523.1,138.9v-0.1c0-10.8,8.8-19.8,20.9-19.8c12.1,0,20.8,8.9,20.8,19.6v0.1c0,10.8-8.8,19.8-20.9,19.8
		C531.8,158.6,523.1,149.7,523.1,138.9z M551.9,138.9v-0.1c0-4.6-3.4-8.5-8-8.5c-4.8,0-7.9,3.8-7.9,8.4v0.1c0,4.6,3.4,8.5,8,8.5
		C548.9,147.3,551.9,143.5,551.9,138.9z"/>
	<path class="st0" d="M570.4,119.9h13.3v5.3c2.4-3.1,5.9-6.1,11.3-6.1c8,0,12.8,5.3,12.8,13.9v24.7h-13.3v-20.5
		c0-4.1-2.2-6.4-5.3-6.4c-3.2,0-5.6,2.2-5.6,6.4v20.5h-13.3V119.9z"/>
</g>
<g>
	<path class="st0" d="M40.5,174h14.3l11.7,18.9L78.2,174h14.3v48.9H79v-28.1l-12.5,19.1h-0.3l-12.4-19v27.9H40.5V174z"/>
	<path class="st0" d="M101.1,174h13.5v18.3h17.4V174h13.5v48.9h-13.5v-18.6h-17.4v18.6h-13.5V174z"/>
	<path class="st0" d="M152.2,214.1l17.5-18.5h-16.8v-10.5h34.4v8.7l-17.5,18.5h17.5v10.5h-35V214.1z"/>
	<path class="st0" d="M211.2,198.6v-0.1c0-14.2,11-25.4,25.8-25.4c10,0,16.4,4.2,20.7,10.2l-10.2,7.9c-2.8-3.5-6-5.7-10.7-5.7
		c-6.8,0-11.7,5.8-11.7,12.9v0.1c0,7.3,4.8,13.1,11.7,13.1c5.1,0,8.1-2.4,11-5.9l10.2,7.3c-4.6,6.4-10.8,11-21.6,11
		C222.4,223.8,211.2,213.1,211.2,198.6z"/>
	<path class="st0" d="M263.1,171.9h13.3v18.4c2.4-3.1,5.9-6,11.3-6c8,0,12.8,5.3,12.8,13.9v24.7h-13.3v-20.5c0-4.1-2.2-6.4-5.3-6.4
		c-3.2,0-5.6,2.2-5.6,6.4v20.5h-13.3V171.9z"/>
	<path class="st0" d="M305.8,204.1V204c0-10.8,8.8-19.8,20.9-19.8c12.1,0,20.8,8.9,20.8,19.6v0.1c0,10.8-8.8,19.8-20.9,19.8
		C314.5,223.8,305.8,214.9,305.8,204.1z M334.6,204.1V204c0-4.6-3.4-8.5-8-8.5c-4.8,0-7.9,3.8-7.9,8.4v0.1c0,4.6,3.4,8.5,8,8.5
		C331.6,212.5,334.6,208.7,334.6,204.1z"/>
	<path class="st0" d="M353.1,171.9h13.8v9.8h-13.8V171.9z M353.4,185.1h13.3v37.8h-13.3V185.1z"/>
	<path class="st0" d="M372.5,204.1V204c0-10.7,8.3-19.7,20.2-19.7c7.7,0,12.9,3.4,16.1,8.4l-9,6.7c-1.8-2.5-3.8-4-7.1-4
		c-4.3,0-7.4,3.8-7.4,8.4v0.1c0,4.9,3.1,8.6,7.5,8.6c3.1,0,5.2-1.5,7.3-3.9l8.9,6.4c-3.5,5.2-8.5,8.7-16.8,8.7
		C380.9,223.8,372.5,214.8,372.5,204.1z"/>
	<path class="st0" d="M411.3,204.1V204c0-11,7.9-19.8,19.1-19.8c13.1,0,19.1,9.6,19.1,20.7c0,0.8,0,1.8-0.1,2.7H424
		c1,4.1,4,6.2,8.2,6.2c3.1,0,5.7-1.2,8.4-3.8l7.3,6.1c-3.6,4.6-8.9,7.7-16.4,7.7C419.7,223.8,411.3,215.9,411.3,204.1z M437,200.9
		c-0.5-4.2-2.9-6.8-6.6-6.8c-3.5,0-5.9,2.7-6.6,6.8H437z"/>
	<path class="st0" d="M454.2,209.2H468v13.6h-13.8V209.2z"/>
</g>
</svg>
