<?xml version="1.0" encoding="utf-8"?>
<!-- Generator: Adobe Illustrator 25.4.1, SVG Export Plug-In . SVG Version: 6.00 Build 0)  -->
<svg version="1.1" id="Layer_1" xmlns="http://www.w3.org/2000/svg" xmlns:xlink="http://www.w3.org/1999/xlink" x="0px" y="0px"
	 viewBox="0 0 970 250" style="enable-background:new 0 0 970 250;" xml:space="preserve">
<style type="text/css">
	.st0{fill:#490A09;}
</style>
<g>
	<path class="st0" d="M48.8,30.3h13.5L49.3,79.2H35.7L48.8,30.3z"/>
	<path class="st0" d="M67.5,41.4h13.3l-1.1,4.2c2.6-2.7,6.1-5,10.5-5c5.2,0,8.4,2.7,9.8,6.6c3.6-4,8.2-6.6,13.7-6.6
		c7.2,0,11.2,4.3,11.2,11.2c0,2-0.5,4.5-1.1,6.8l-5.5,20.5h-13.2l5.2-19.8c0.3-1,0.5-2.2,0.5-3.1c0-2.5-1.3-4-4-4
		c-3.6,0-5.7,2.5-6.9,6.8l-5.4,20H81.2l5.3-19.8c0.3-1,0.5-2.2,0.5-3.1c0-2.5-1.3-4-4-4c-3.6,0-5.7,2.5-6.9,6.8l-5.4,20H57.4
		L67.5,41.4z"/>
	<path class="st0" d="M135.1,41.4h13.3l-1.1,4.2c2.6-2.7,6.1-5,10.5-5c5.2,0,8.4,2.7,9.8,6.6c3.6-4,8.2-6.6,13.7-6.6
		c7.2,0,11.2,4.3,11.2,11.2c0,2-0.5,4.5-1.1,6.8l-5.5,20.5h-13.2l5.2-19.8c0.3-1,0.5-2.2,0.5-3.1c0-2.5-1.3-4-4-4
		c-3.6,0-5.7,2.5-6.9,6.8l-5.4,20h-13.3l5.3-19.8c0.3-1,0.5-2.2,0.5-3.1c0-2.5-1.3-4-4-4c-3.6,0-5.7,2.5-6.9,6.8l-5.4,20H125
		L135.1,41.4z"/>
	<path class="st0" d="M194.1,69.7c0-8.3,6.6-13.3,16.6-13.3c3.4,0,6.6,0.6,9.6,1.5l0.1-0.5c0.1-0.6,0.3-1.4,0.3-2.3
		c0-2.4-1.9-4-6.5-4c-3.6,0-7.5,0.8-10.2,1.9l-1.9-9.6c4-1.4,9.4-2.3,14.9-2.3c11.3,0,16.8,4.5,16.8,12c0,1.7-0.3,3.6-0.8,5.4
		l-5.6,20.8h-13.1l1-4c-3.2,3-6.5,4.8-10.9,4.8C198.4,80,194.1,76,194.1,69.7z M218.5,64.9l0.3-1.3c-1.5-0.5-3.1-0.8-5-0.8
		c-4.2,0-6.9,2-6.9,5.4c0,2.2,1.5,3.5,3.8,3.5C214.2,71.8,217.5,68.8,218.5,64.9z"/>
	<path class="st0" d="M275.6,42.2h-14.7l3.2-11.9h42.8l-3.1,11.9h-14.7l-9.9,37h-13.6L275.6,42.2z"/>
	<path class="st0" d="M296.3,69.7c0-8.3,6.6-13.3,16.6-13.3c3.4,0,6.6,0.6,9.6,1.5l0.1-0.5c0.1-0.6,0.3-1.4,0.3-2.3
		c0-2.4-1.9-4-6.5-4c-3.6,0-7.5,0.8-10.2,1.9l-1.9-9.6c4-1.4,9.4-2.3,14.9-2.3c11.3,0,16.8,4.5,16.8,12c0,1.7-0.3,3.6-0.8,5.4
		l-5.6,20.8h-13.1l1-4c-3.2,3-6.5,4.8-10.9,4.8C300.6,80,296.3,76,296.3,69.7z M320.7,64.9l0.3-1.3c-1.5-0.5-3.1-0.8-5-0.8
		c-4.2,0-6.9,2-6.9,5.4c0,2.2,1.5,3.5,3.8,3.5C316.4,71.8,319.7,68.8,320.7,64.9z"/>
	<path class="st0" d="M341,71c0-1.5,0.3-3.1,0.7-5l3.8-14H341l2.9-10.7h4.5l2.6-9.6h13.3l-2.6,9.6h8.8l-2.9,10.7h-8.8L355.5,64
		c-0.2,0.9-0.3,1.7-0.3,2.3c0,1.5,0.9,2.4,3,2.4c1.5,0,3.1-0.3,5-1l-2.9,11c-2.4,0.8-5.1,1.3-7.8,1.3C344.7,80,341,76.6,341,71z"/>
	<path class="st0" d="M371,71c0-1.5,0.3-3.1,0.7-5l3.8-14H371l2.9-10.7h4.5l2.6-9.6h13.3l-2.6,9.6h8.8l-2.9,10.7h-8.8L385.5,64
		c-0.2,0.9-0.3,1.7-0.3,2.3c0,1.5,0.9,2.4,3,2.4c1.5,0,3.1-0.3,5-1l-2.9,11c-2.4,0.8-5.1,1.3-7.8,1.3C374.8,80,371,76.6,371,71z"/>
	<path class="st0" d="M397.6,69.7c0-8.3,6.6-13.3,16.6-13.3c3.4,0,6.6,0.6,9.6,1.5l0.1-0.5c0.1-0.6,0.3-1.4,0.3-2.3
		c0-2.4-1.9-4-6.5-4c-3.6,0-7.5,0.8-10.2,1.9l-1.9-9.6c4-1.4,9.4-2.3,14.9-2.3c11.3,0,16.8,4.5,16.8,12c0,1.7-0.3,3.6-0.8,5.4
		L431,79.2H418l1-4c-3.2,3-6.5,4.8-10.9,4.8C401.9,80,397.6,76,397.6,69.7z M422,64.9l0.3-1.3c-1.5-0.5-3.1-0.8-5-0.8
		c-4.2,0-6.9,2-6.9,5.4c0,2.2,1.5,3.5,3.8,3.5C417.7,71.8,421,68.8,422,64.9z"/>
	<path class="st0" d="M447.9,41.4h13.3l-2,7.6c3.6-5.4,8-8.7,14.2-8.2l-3.8,14h-1.1c-7.3,0-11.9,4-14.3,13.1L451,79.2h-13.3
		L447.9,41.4z"/>
	<path class="st0" d="M468.1,69.7c0-8.3,6.6-13.3,16.6-13.3c3.4,0,6.6,0.6,9.6,1.5l0.1-0.5c0.1-0.6,0.3-1.4,0.3-2.3
		c0-2.4-1.9-4-6.5-4c-3.6,0-7.5,0.8-10.2,1.9l-1.9-9.6c4-1.4,9.4-2.3,14.9-2.3c11.3,0,16.8,4.5,16.8,12c0,1.7-0.3,3.6-0.8,5.4
		l-5.6,20.8h-13.1l1-4c-3.2,3-6.5,4.8-10.9,4.8C472.4,80,468.1,76,468.1,69.7z M492.5,64.9l0.3-1.3c-1.5-0.5-3.1-0.8-5-0.8
		c-4.2,0-6.9,2-6.9,5.4c0,2.2,1.5,3.5,3.8,3.5C488.2,71.8,491.5,68.8,492.5,64.9z"/>
	<path class="st0" d="M518.4,41.4h13.3l-1.2,4.3c2.6-2.7,6.4-5.2,10.8-5.2c6.8,0,11,4.3,11,11.3c0,2-0.5,4.4-1.1,6.8l-5.4,20.5
		h-13.3l5.3-19.8c0.3-1,0.4-2.2,0.4-3.1c0-2.5-1.5-4-4.2-4c-3.7,0-5.9,2.5-7.1,6.8l-5.4,20h-13.3L518.4,41.4z"/>
	<path class="st0" d="M562.6,41.4h13.3l-10.1,37.8h-13.3L562.6,41.4z M566,28.2h13.8l-2.7,9.8h-13.8L566,28.2z"/>
	<path class="st0" d="M576.9,65.6h13.8L587,79.2h-13.8L576.9,65.6z"/>
</g>
</svg>
