<?xml version="1.0" encoding="utf-8"?>
<!-- Generator: Adobe Illustrator 25.4.1, SVG Export Plug-In . SVG Version: 6.00 Build 0)  -->
<svg version="1.1" id="Layer_1" xmlns="http://www.w3.org/2000/svg" xmlns:xlink="http://www.w3.org/1999/xlink" x="0px" y="0px"
	 viewBox="0 0 970 250" style="enable-background:new 0 0 970 250;" xml:space="preserve">
<style type="text/css">
	.st0{fill:#AB1F2D;}
	.st1{fill:#FFFFFF;}
</style>
<path class="st0" d="M800.2,186c-9.3,0-16.9,7.6-16.9,16.9v5c0,9.3,7.6,16.9,16.9,16.9h117.1c9.3,0,16.9-7.6,16.9-16.9v-5
	c0-9.3-7.6-16.9-16.9-16.9H800.2z"/>
<g>
	<path class="st1" d="M793.4,199.7h3.2l2.8,9.1l3-9.2h2.5l3,9.2l2.8-9.1h3.1l-4.6,13.6h-2.6l-3-8.8l-3,8.8H798L793.4,199.7z"/>
	<path class="st1" d="M818.9,199.6h2.7l5.8,13.6h-3.1l-1.2-3h-5.7l-1.2,3h-3L818.9,199.6z M822,207.6l-1.8-4.4l-1.8,4.4H822z"/>
	<path class="st1" d="M830.9,202.5h-4.1v-2.7H838v2.7h-4.1v10.7h-3V202.5z"/>
	<path class="st1" d="M839.1,206.5L839.1,206.5c0-3.9,2.9-7,7-7c2.5,0,4.1,0.8,5.3,2.1l-1.9,2.2c-1-0.9-2.1-1.5-3.4-1.5
		c-2.3,0-3.9,1.9-3.9,4.2v0c0,2.3,1.6,4.2,3.9,4.2c1.5,0,2.5-0.6,3.5-1.6l1.9,1.9c-1.4,1.5-2.9,2.4-5.5,2.4
		C842,213.4,839.1,210.4,839.1,206.5z"/>
	<path class="st1" d="M853.9,199.7h3v5.3h5.5v-5.3h3v13.5h-3v-5.4h-5.5v5.4h-3V199.7z"/>
	<path class="st1" d="M874.3,199.7h2.7l6.3,8.3v-8.3h2.9v13.5h-2.5l-6.5-8.6v8.6h-2.9V199.7z"/>
	<path class="st1" d="M888.9,206.5L888.9,206.5c0-3.9,3-7,7.2-7c4.2,0,7.1,3.1,7.1,6.9v0c0,3.8-3,7-7.2,7S888.9,210.3,888.9,206.5z
		 M900.1,206.5L900.1,206.5c0-2.3-1.7-4.3-4.1-4.3s-4,1.9-4,4.2v0c0,2.3,1.7,4.2,4.1,4.2C898.5,210.7,900.1,208.8,900.1,206.5z"/>
	<path class="st1" d="M904.1,199.7h3.2l2.8,9.1l3-9.2h2.5l3,9.2l2.8-9.1h3.1l-4.6,13.6h-2.6l-3-8.8l-3,8.8h-2.6L904.1,199.7z"/>
</g>
</svg>
