<?xml version="1.0" encoding="utf-8"?>
<!-- Generator: Adobe Illustrator 25.4.1, SVG Export Plug-In . SVG Version: 6.00 Build 0)  -->
<svg version="1.1" id="Layer_1" xmlns="http://www.w3.org/2000/svg" xmlns:xlink="http://www.w3.org/1999/xlink" x="0px" y="0px"
	 viewBox="0 0 320 50" style="enable-background:new 0 0 320 50;" xml:space="preserve">
<style type="text/css">
	.st0{fill:#490A09;}
</style>
<g>
	<path class="st0" d="M12.8,17.8L12.8,17.8c0-3.1,2.3-5.4,5.5-5.4c2.1,0,3.5,0.9,4.4,2.2l-2.2,1.7C20,15.5,19.3,15,18.3,15
		c-1.5,0-2.5,1.2-2.5,2.8v0c0,1.6,1,2.8,2.5,2.8c1.1,0,1.7-0.5,2.4-1.3l2.2,1.5c-1,1.4-2.3,2.4-4.6,2.4
		C15.2,23.2,12.8,20.9,12.8,17.8z"/>
	<path class="st0" d="M23.5,20.7L23.5,20.7c0-1.7,1.3-2.6,3.2-2.6c0.7,0,1.5,0.1,1.9,0.3v-0.1c0-0.8-0.5-1.3-1.6-1.3
		c-0.8,0-1.5,0.2-2.2,0.4l-0.6-2c0.9-0.4,1.9-0.6,3.3-0.6c1.4,0,2.4,0.3,3.1,1c0.6,0.6,0.9,1.4,0.9,2.6V23h-2.8v-0.8
		c-0.6,0.6-1.3,1-2.4,1C24.7,23.2,23.5,22.3,23.5,20.7z M28.6,20.1v-0.4c-0.3-0.1-0.7-0.2-1.1-0.2c-0.8,0-1.3,0.4-1.3,1v0
		c0,0.6,0.4,0.9,1,0.9C28,21.4,28.6,20.9,28.6,20.1z"/>
	<path class="st0" d="M33.2,20.5v-3.3h-1v-2.3h1v-2h2.8v2h1.9v2.3h-1.9v2.7c0,0.6,0.3,0.8,0.8,0.8c0.4,0,0.7-0.1,1.1-0.3v2.2
		c-0.5,0.3-1.2,0.5-2,0.5C34.2,23.2,33.2,22.4,33.2,20.5z"/>
	<path class="st0" d="M38.6,19L38.6,19c0-2.3,1.8-4.2,4.3-4.2c1.7,0,2.8,0.7,3.4,1.8L44.4,18c-0.4-0.5-0.8-0.8-1.5-0.8
		c-0.9,0-1.6,0.8-1.6,1.8v0c0,1,0.7,1.8,1.6,1.8c0.7,0,1.1-0.3,1.5-0.8l1.9,1.4c-0.7,1.1-1.8,1.8-3.6,1.8
		C40.4,23.2,38.6,21.3,38.6,19z"/>
	<path class="st0" d="M47.4,12.1h2.8v3.9c0.5-0.7,1.3-1.3,2.4-1.3c1.7,0,2.7,1.1,2.7,3V23h-2.8v-4.4c0-0.9-0.5-1.4-1.1-1.4
		c-0.7,0-1.2,0.5-1.2,1.4V23h-2.8V12.1z"/>
	<path class="st0" d="M61.5,20.5v-3.3h-1v-2.3h1v-2h2.8v2h1.9v2.3h-1.9v2.7c0,0.6,0.3,0.8,0.8,0.8c0.4,0,0.7-0.1,1.1-0.3v2.2
		c-0.5,0.3-1.2,0.5-2,0.5C62.5,23.2,61.5,22.4,61.5,20.5z"/>
	<path class="st0" d="M67.4,12.1h2.8v3.9c0.5-0.7,1.3-1.3,2.4-1.3c1.7,0,2.7,1.1,2.7,3V23h-2.8v-4.4c0-0.9-0.5-1.4-1.1-1.4
		c-0.7,0-1.2,0.5-1.2,1.4V23h-2.8V12.1z"/>
	<path class="st0" d="M76.5,19L76.5,19c0-2.4,1.7-4.2,4.1-4.2c2.8,0,4.1,2,4.1,4.4c0,0.2,0,0.4,0,0.6h-5.4c0.2,0.9,0.9,1.3,1.7,1.3
		c0.7,0,1.2-0.3,1.8-0.8l1.6,1.3c-0.8,1-1.9,1.6-3.5,1.6C78.3,23.2,76.5,21.5,76.5,19z M82,18.3c-0.1-0.9-0.6-1.5-1.4-1.5
		c-0.7,0-1.2,0.6-1.4,1.5H82z"/>
	<path class="st0" d="M89.6,19L89.6,19c0-2.6,1.6-4.2,3.5-4.2c1.2,0,1.9,0.6,2.5,1.2v-3.8h2.8V23h-2.8v-1.1
		c-0.6,0.7-1.2,1.2-2.5,1.2C91.3,23.2,89.6,21.6,89.6,19z M95.7,19L95.7,19c0-1.1-0.7-1.8-1.6-1.8c-0.9,0-1.7,0.7-1.7,1.8v0
		c0,1.1,0.7,1.8,1.7,1.8C95,20.8,95.7,20.1,95.7,19z"/>
	<path class="st0" d="M100,14.9h2.8v1.6c0.5-1.1,1.2-1.8,2.5-1.8v3h-0.2c-1.5,0-2.3,0.8-2.3,2.7V23H100V14.9z"/>
	<path class="st0" d="M105.6,20.7L105.6,20.7c0-1.7,1.3-2.6,3.2-2.6c0.7,0,1.5,0.1,1.9,0.3v-0.1c0-0.8-0.5-1.3-1.6-1.3
		c-0.8,0-1.5,0.2-2.2,0.4l-0.6-2c0.9-0.4,1.9-0.6,3.3-0.6c1.4,0,2.4,0.3,3.1,1c0.6,0.6,0.9,1.4,0.9,2.6V23h-2.8v-0.8
		c-0.6,0.6-1.3,1-2.4,1C106.8,23.2,105.6,22.3,105.6,20.7z M110.7,20.1v-0.4c-0.3-0.1-0.7-0.2-1.1-0.2c-0.8,0-1.3,0.4-1.3,1v0
		c0,0.6,0.4,0.9,1,0.9C110.1,21.4,110.7,20.9,110.7,20.1z"/>
	<path class="st0" d="M114.9,14.9h2.8v1.1c0.5-0.7,1.3-1.3,2.4-1.3c1.1,0,1.9,0.5,2.3,1.3c0.7-0.8,1.5-1.3,2.7-1.3
		c1.7,0,2.8,1.1,2.8,2.9V23h-2.8v-4.4c0-0.9-0.4-1.3-1.1-1.3s-1.2,0.5-1.2,1.3V23H120v-4.4c0-0.9-0.4-1.3-1.1-1.3s-1.1,0.5-1.1,1.3
		V23h-2.8V14.9z"/>
	<path class="st0" d="M129,20.7L129,20.7c0-1.7,1.3-2.6,3.2-2.6c0.7,0,1.5,0.1,1.9,0.3v-0.1c0-0.8-0.5-1.3-1.6-1.3
		c-0.8,0-1.5,0.2-2.2,0.4l-0.6-2c0.9-0.4,1.9-0.6,3.3-0.6c1.4,0,2.4,0.3,3.1,1c0.6,0.6,0.9,1.4,0.9,2.6V23H134v-0.8
		c-0.6,0.6-1.3,1-2.4,1C130.1,23.2,129,22.3,129,20.7z M134.1,20.1v-0.4c-0.3-0.1-0.7-0.2-1.1-0.2c-0.8,0-1.3,0.4-1.3,1v0
		c0,0.6,0.4,0.9,1,0.9C133.5,21.4,134.1,20.9,134.1,20.1z"/>
	<path class="st0" d="M138.1,20.1h2.9V23h-2.9V20.1z"/>
</g>
</svg>
