<?xml version="1.0" encoding="utf-8"?>
<!-- Generator: Adobe Illustrator 25.4.1, SVG Export Plug-In . SVG Version: 6.00 Build 0)  -->
<svg version="1.1" id="Layer_1" xmlns="http://www.w3.org/2000/svg" xmlns:xlink="http://www.w3.org/1999/xlink" x="0px" y="0px"
	 viewBox="0 0 320 50" style="enable-background:new 0 0 320 50;" xml:space="preserve">
<style type="text/css">
	.st0{fill:#490A09;}
</style>
<g>
	<path class="st0" d="M18.7,27.7h2.8l1.6,10.5h-3l-0.3-1.9h-4l-1.2,1.9h-3.1L18.7,27.7z M19.6,34.1l-0.4-3l-1.9,3H19.6z"/>
	<path class="st0" d="M30.8,27.8h8.3l-0.7,2.5H33l-0.5,1.8h4.9l-0.6,2.4h-4.9l-1,3.7H28L30.8,27.8z"/>
	<path class="st0" d="M39.7,30.2h2.8l-0.4,1.6c0.8-1.1,1.7-1.8,3-1.8l-0.8,3h-0.2c-1.5,0-2.5,0.9-3,2.8l-0.7,2.4h-2.8L39.7,30.2z"/>
	<path class="st0" d="M48.8,36.3c0.6,0,1.1-0.2,1.7-0.6l1.3,1.5c-0.8,0.7-1.9,1.2-3.3,1.2c-2.4,0-3.8-1.4-3.8-3.6
		c0-2.4,1.9-4.9,4.8-4.9c2.4,0,3.4,1.6,3.4,3.3c0,0.6-0.1,1.1-0.3,1.7h-5.3C47.3,35.8,47.8,36.3,48.8,36.3z M50.4,33.5
		c0-0.1,0.1-0.3,0.1-0.4c0-0.5-0.4-1-1.1-1c-0.8,0-1.5,0.5-1.8,1.5H50.4z"/>
	<path class="st0" d="M55.1,30.2h2.8l-0.3,0.9c0.6-0.6,1.4-1.1,2.3-1.1c1.5,0,2.3,0.9,2.3,2.4c0,0.4-0.1,0.9-0.2,1.4l-1.2,4.4H58
		l1.1-4.2c0.1-0.2,0.1-0.5,0.1-0.7c0-0.5-0.3-0.8-0.9-0.8c-0.8,0-1.2,0.5-1.5,1.5l-1.1,4.3h-2.8L55.1,30.2z"/>
	<path class="st0" d="M63,34.9c0-2.7,2.2-4.9,4.8-4.9c1.9,0,3,1,3.4,2.2L69,33.3c-0.3-0.6-0.7-1-1.4-1c-1.1,0-1.9,1.2-1.9,2.4
		c0,0.8,0.5,1.3,1.2,1.3c0.6,0,1-0.3,1.5-0.7l1.7,1.5c-0.8,1-1.8,1.6-3.4,1.6C64.6,38.4,63,37.1,63,34.9z"/>
	<path class="st0" d="M73.5,27.4h2.8l-1,3.7c0.6-0.6,1.4-1.1,2.3-1.1c1.5,0,2.3,0.9,2.3,2.4c0,0.4-0.1,0.9-0.2,1.4l-1.2,4.4h-2.8
		l1.1-4.2c0.1-0.2,0.1-0.5,0.1-0.7c0-0.5-0.3-0.8-0.9-0.8c-0.8,0-1.2,0.5-1.5,1.5l-1.1,4.3h-2.8L73.5,27.4z"/>
	<path class="st0" d="M86.1,27.8h3.2l0.6,6.5l4.1-6.5h3.3l-7,10.5h-2.7L86.1,27.8z"/>
	<path class="st0" d="M97.2,30.2h2.8l-2.2,8h-2.8L97.2,30.2z M97.9,27.4h2.9l-0.6,2.1h-2.9L97.9,27.4z"/>
	<path class="st0" d="M102.5,27.4h2.8l-2.9,10.9h-2.8L102.5,27.4z"/>
	<path class="st0" d="M106.9,27.4h2.8l-2.9,10.9H104L106.9,27.4z"/>
	<path class="st0" d="M108.8,36.2c0-1.8,1.4-2.8,3.5-2.8c0.7,0,1.4,0.1,2,0.3l0-0.1c0-0.1,0.1-0.3,0.1-0.5c0-0.5-0.4-0.9-1.4-0.9
		c-0.8,0-1.6,0.2-2.2,0.4l-0.4-2.1c0.8-0.3,2-0.5,3.2-0.5c2.4,0,3.6,1,3.6,2.6c0,0.4-0.1,0.8-0.2,1.2l-1.2,4.4h-2.8l0.2-0.9
		c-0.7,0.6-1.4,1-2.3,1C109.7,38.4,108.8,37.5,108.8,36.2z M114,35.2l0.1-0.3c-0.3-0.1-0.7-0.2-1.1-0.2c-0.9,0-1.5,0.4-1.5,1.2
		c0,0.5,0.3,0.7,0.8,0.7C113.1,36.6,113.8,36,114,35.2z"/>
	<path class="st0" d="M116.9,39.5l1.3-1.8c0.9,0.5,1.9,0.8,2.9,0.8c0.7,0,1.3-0.2,1.7-0.6c0.3-0.3,0.5-0.7,0.7-1.3l0-0.2
		c-0.7,0.6-1.5,1-2.4,1c-1.5,0-2.9-1-2.9-2.8c0-2.5,1.8-4.7,4.2-4.7c1.2,0,2,0.6,2.4,1.3l0.3-1.1h2.8l-1.7,6.4
		c-0.4,1.4-0.8,2.2-1.4,2.9c-0.8,0.8-1.9,1.2-3.6,1.2C119.6,40.6,118,40.2,116.9,39.5z M124.2,33.5c0-0.7-0.5-1.3-1.3-1.3
		c-1.1,0-1.9,1-1.9,2c0,0.8,0.5,1.2,1.3,1.2C123.3,35.5,124.2,34.5,124.2,33.5z"/>
	<path class="st0" d="M132.1,36.3c0.6,0,1.1-0.2,1.7-0.6l1.3,1.5c-0.8,0.7-1.9,1.2-3.3,1.2c-2.4,0-3.8-1.4-3.8-3.6
		c0-2.4,1.9-4.9,4.8-4.9c2.4,0,3.4,1.6,3.4,3.3c0,0.6-0.1,1.1-0.3,1.7h-5.3C130.7,35.8,131.1,36.3,132.1,36.3z M133.7,33.5
		c0-0.1,0.1-0.3,0.1-0.4c0-0.5-0.4-1-1.1-1c-0.8,0-1.5,0.5-1.8,1.5H133.7z"/>
</g>
<g>
	<path class="st0" d="M136.8,39.6c1-0.1,1.5-0.6,1.5-1.4h-1.1v-2.9h2.9v2.4c0,2.2-1.2,3-3.1,3L136.8,39.6z"/>
</g>
<g>
	<path class="st0" d="M145.3,34.2L145.3,34.2c0-2.3,1.9-4.2,4.5-4.2c2.6,0,4.4,1.9,4.4,4.2v0c0,2.3-1.9,4.2-4.5,4.2
		C147.2,38.4,145.3,36.5,145.3,34.2z M151.4,34.2L151.4,34.2c0-1-0.7-1.8-1.7-1.8c-1,0-1.7,0.8-1.7,1.8v0c0,1,0.7,1.8,1.7,1.8
		C150.8,36,151.4,35.2,151.4,34.2z"/>
	<path class="st0" d="M155.4,30.2h2.8v1.1c0.5-0.7,1.3-1.3,2.4-1.3c1.7,0,2.7,1.1,2.7,3v5.3h-2.8v-4.4c0-0.9-0.5-1.4-1.1-1.4
		c-0.7,0-1.2,0.5-1.2,1.4v4.4h-2.8V30.2z"/>
	<path class="st0" d="M169.1,27.8h3l2.5,4l2.5-4h3v10.4h-2.9v-6l-2.7,4.1h-0.1l-2.6-4v6h-2.8V27.8z"/>
	<path class="st0" d="M182,27.8h2.9v3.9h3.7v-3.9h2.9v10.4h-2.9v-4h-3.7v4H182V27.8z"/>
	<path class="st0" d="M192.9,36.4l3.7-3.9H193v-2.2h7.3V32l-3.7,3.9h3.7v2.2h-7.5V36.4z"/>
	<path class="st0" d="M205.5,33L205.5,33c0-3.1,2.3-5.4,5.5-5.4c2.1,0,3.5,0.9,4.4,2.2l-2.2,1.7c-0.6-0.7-1.3-1.2-2.3-1.2
		c-1.5,0-2.5,1.2-2.5,2.8v0c0,1.6,1,2.8,2.5,2.8c1.1,0,1.7-0.5,2.4-1.3l2.2,1.5c-1,1.4-2.3,2.4-4.6,2.4
		C207.9,38.4,205.5,36.1,205.5,33z"/>
	<path class="st0" d="M216.5,27.4h2.8v3.9c0.5-0.7,1.3-1.3,2.4-1.3c1.7,0,2.7,1.1,2.7,3v5.3h-2.8v-4.4c0-0.9-0.5-1.4-1.1-1.4
		c-0.7,0-1.2,0.5-1.2,1.4v4.4h-2.8V27.4z"/>
	<path class="st0" d="M225.6,34.2L225.6,34.2c0-2.3,1.9-4.2,4.5-4.2c2.6,0,4.4,1.9,4.4,4.2v0c0,2.3-1.9,4.2-4.5,4.2
		C227.5,38.4,225.6,36.5,225.6,34.2z M231.8,34.2L231.8,34.2c0-1-0.7-1.8-1.7-1.8c-1,0-1.7,0.8-1.7,1.8v0c0,1,0.7,1.8,1.7,1.8
		C231.1,36,231.8,35.2,231.8,34.2z"/>
	<path class="st0" d="M235.7,27.4h2.9v2.1h-2.9V27.4z M235.8,30.2h2.8v8h-2.8V30.2z"/>
	<path class="st0" d="M239.9,34.2L239.9,34.2c0-2.3,1.8-4.2,4.3-4.2c1.7,0,2.8,0.7,3.4,1.8l-1.9,1.4c-0.4-0.5-0.8-0.8-1.5-0.8
		c-0.9,0-1.6,0.8-1.6,1.8v0c0,1,0.7,1.8,1.6,1.8c0.7,0,1.1-0.3,1.5-0.8l1.9,1.4c-0.7,1.1-1.8,1.8-3.6,1.8
		C241.6,38.4,239.9,36.5,239.9,34.2z"/>
	<path class="st0" d="M248.1,34.2L248.1,34.2c0-2.4,1.7-4.2,4.1-4.2c2.8,0,4.1,2,4.1,4.4c0,0.2,0,0.4,0,0.6h-5.4
		c0.2,0.9,0.9,1.3,1.7,1.3c0.7,0,1.2-0.3,1.8-0.8l1.6,1.3c-0.8,1-1.9,1.6-3.5,1.6C249.9,38.4,248.1,36.7,248.1,34.2z M253.6,33.5
		c-0.1-0.9-0.6-1.5-1.4-1.5c-0.7,0-1.2,0.6-1.4,1.5H253.6z"/>
	<path class="st0" d="M257.3,35.3h2.9v2.9h-2.9V35.3z"/>
</g>
</svg>
