<?xml version="1.0" encoding="utf-8"?>
<!-- Generator: Adobe Illustrator 25.4.1, SVG Export Plug-In . SVG Version: 6.00 Build 0)  -->
<svg version="1.1" id="Layer_1" xmlns="http://www.w3.org/2000/svg" xmlns:xlink="http://www.w3.org/1999/xlink" x="0px" y="0px"
	 viewBox="0 0 320 50" style="enable-background:new 0 0 320 50;" xml:space="preserve">
<style type="text/css">
	.st0{fill:#490A09;}
</style>
<g>
	<path class="st0" d="M17.3,21.2h-4.7v-3.8h13.9v3.8h-4.7v12h-4.4V21.2z"/>
	<path class="st0" d="M27,17.4h4.9l3.6,10l3.6-10h4.8l-6.4,15.9h-4.1L27,17.4z"/>
	<path class="st0" d="M51,27.1L51,27.1c0-3.5,2.7-6.4,6.5-6.4c2.5,0,4.2,1.1,5.2,2.7l-2.9,2.2c-0.6-0.8-1.2-1.3-2.3-1.3
		c-1.4,0-2.4,1.2-2.4,2.7v0c0,1.6,1,2.8,2.4,2.8c1,0,1.7-0.5,2.3-1.3l2.9,2.1c-1.1,1.7-2.8,2.8-5.4,2.8C53.7,33.5,51,30.6,51,27.1z"
		/>
	<path class="st0" d="M64.3,21h4.3v2.5c0.7-1.7,1.8-2.8,3.9-2.7v4.5h-0.4c-2.2,0-3.5,1.3-3.5,4.1v3.8h-4.3V21z"/>
	<path class="st0" d="M73.9,16.7h4.5v3.2h-4.5V16.7z M74,21h4.3v12.2H74V21z"/>
	<path class="st0" d="M81.5,29.4v-5H80V21h1.4v-3.1h4.3V21h2.8v3.5h-2.8v4.1c0,0.9,0.4,1.2,1.2,1.2c0.6,0,1.1-0.2,1.6-0.4v3.4
		c-0.8,0.4-1.8,0.7-3,0.7C83,33.4,81.5,32.3,81.5,29.4z"/>
	<path class="st0" d="M90.4,16.7h4.5v3.2h-4.5V16.7z M90.5,21h4.3v12.2h-4.3V21z"/>
	<path class="st0" d="M96.7,27.1L96.7,27.1c0-3.5,2.7-6.4,6.5-6.4c2.5,0,4.2,1.1,5.2,2.7l-2.9,2.2c-0.6-0.8-1.2-1.3-2.3-1.3
		c-1.4,0-2.4,1.2-2.4,2.7v0c0,1.6,1,2.8,2.4,2.8c1,0,1.7-0.5,2.3-1.3l2.9,2.1c-1.1,1.7-2.8,2.8-5.4,2.8
		C99.4,33.5,96.7,30.6,96.7,27.1z"/>
	<path class="st0" d="M109.1,31.6l1.6-2.6c1.4,0.9,2.9,1.4,4.2,1.4c0.7,0,1.1-0.2,1.1-0.7v0c0-0.5-0.7-0.7-2-1
		c-2.4-0.6-4.3-1.4-4.3-3.9v0c0-2.6,2.1-4,4.9-4c1.8,0,3.6,0.5,5,1.4l-1.5,2.7c-1.3-0.7-2.6-1.1-3.6-1.1c-0.7,0-1,0.2-1,0.6v0
		c0,0.5,0.7,0.7,2,1.1c2.4,0.7,4.3,1.5,4.3,3.9v0c0,2.7-2,4.1-5,4.1C112.9,33.4,110.8,32.8,109.1,31.6z"/>
	<path class="st0" d="M127.4,27.1L127.4,27.1c0-3.5,2.7-6.4,6.5-6.4c2.5,0,4.2,1.1,5.2,2.7l-2.9,2.2c-0.6-0.8-1.2-1.3-2.3-1.3
		c-1.4,0-2.4,1.2-2.4,2.7v0c0,1.6,1,2.8,2.4,2.8c1,0,1.7-0.5,2.3-1.3l2.9,2.1c-1.1,1.7-2.8,2.8-5.4,2.8
		C130.1,33.5,127.4,30.6,127.4,27.1z"/>
	<path class="st0" d="M140.7,16.7h4.3v5.9c0.8-1,1.9-1.9,3.7-1.9c2.6,0,4.2,1.7,4.2,4.5v8h-4.3v-6.6c0-1.3-0.7-2.1-1.7-2.1
		c-1,0-1.8,0.7-1.8,2.1v6.6h-4.3V16.7z"/>
	<path class="st0" d="M154.6,27.1L154.6,27.1c0-3.6,2.6-6.4,6.2-6.4c4.2,0,6.2,3.1,6.2,6.7c0,0.3,0,0.6,0,0.9h-8.2
		c0.3,1.3,1.3,2,2.6,2c1,0,1.8-0.4,2.7-1.2l2.4,2c-1.2,1.5-2.9,2.5-5.3,2.5C157.3,33.5,154.6,30.9,154.6,27.1z M162.9,26.1
		c-0.2-1.4-0.9-2.2-2.1-2.2c-1.1,0-1.9,0.9-2.1,2.2H162.9z"/>
	<path class="st0" d="M168.2,27.1L168.2,27.1c0-3.6,2.6-6.4,6.2-6.4c4.2,0,6.2,3.1,6.2,6.7c0,0.3,0,0.6,0,0.9h-8.2
		c0.3,1.3,1.3,2,2.6,2c1,0,1.8-0.4,2.7-1.2l2.4,2c-1.2,1.5-2.9,2.5-5.3,2.5C170.9,33.5,168.2,30.9,168.2,27.1z M176.5,26.1
		c-0.2-1.4-0.9-2.2-2.1-2.2c-1.1,0-1.9,0.9-2.1,2.2H176.5z"/>
	<path class="st0" d="M182.4,21h4.3v2.5c0.7-1.7,1.8-2.8,3.9-2.7v4.5h-0.4c-2.2,0-3.5,1.3-3.5,4.1v3.8h-4.3V21z"/>
	<path class="st0" d="M191.3,27.1L191.3,27.1c0-3.6,2.6-6.4,6.2-6.4c4.2,0,6.2,3.1,6.2,6.7c0,0.3,0,0.6,0,0.9h-8.2
		c0.3,1.3,1.3,2,2.6,2c1,0,1.8-0.4,2.7-1.2l2.4,2c-1.2,1.5-2.9,2.5-5.3,2.5C194,33.5,191.3,30.9,191.3,27.1z M199.6,26.1
		c-0.2-1.4-0.9-2.2-2.1-2.2c-1.1,0-1.9,0.9-2.1,2.2H199.6z"/>
	<path class="st0" d="M205,27.1L205,27.1c0-4,2.5-6.4,5.4-6.4c1.9,0,2.9,0.8,3.7,1.8v-5.8h4.3v16.5h-4.3v-1.6
		c-0.8,1-1.9,1.9-3.7,1.9C207.5,33.4,205,31,205,27.1z M214.2,27.1L214.2,27.1c0-1.6-1.1-2.8-2.5-2.8s-2.5,1.1-2.5,2.8v0
		c0,1.6,1.1,2.8,2.5,2.8S214.2,28.7,214.2,27.1z"/>
	<path class="st0" d="M220.5,28.8h4.5v4.4h-4.5V28.8z"/>
</g>
</svg>
