<?xml version="1.0" encoding="utf-8"?>
<!-- Generator: Adobe Illustrator 26.3.1, SVG Export Plug-In . SVG Version: 6.00 Build 0)  -->
<svg version="1.1" id="Layer_1" xmlns="http://www.w3.org/2000/svg" xmlns:xlink="http://www.w3.org/1999/xlink" x="0px" y="0px"
	 viewBox="0 0 320 50" style="enable-background:new 0 0 320 50;" xml:space="preserve">
<style type="text/css">
	.st0{fill:#490A09;}
</style>
<g>
	<path class="st0" d="M11.6,18.1c0-4.4,3.6-8.2,8.8-8.2c2.7,0,4.8,1.1,5.7,2.3l-2.6,2.5c-0.8-0.8-1.9-1.4-3.4-1.4
		c-2.8,0-4.7,2.1-4.7,4.7c0,1.9,1.4,2.9,3.1,2.9c0.8,0,1.4-0.2,1.8-0.4l0.5-1.8h-2.7l0.7-2.8h6.3l-2,6.9c-1.4,0.8-3.1,1.4-5.1,1.4
		C15,24.1,11.6,22.3,11.6,18.1z"/>
	<path class="st0" d="M29.1,9.5h3.7L29,23.9h-3.7L29.1,9.5z"/>
	<path class="st0" d="M32.1,19.2c0-3.2,2.7-6.2,6.2-6.2c3.3,0,5.2,2.1,5.2,4.9c0,3.2-2.7,6.2-6.3,6.2C34.1,24.1,32.1,22,32.1,19.2z
		 M40,18.1c0-1.2-0.7-2-1.8-2c-1.5,0-2.5,1.6-2.5,2.9c0,1.2,0.7,2,1.8,2C39,21,40,19.5,40,18.1z"/>
	<path class="st0" d="M46.6,13.2h3.7l-0.6,2.1c1-1.5,2.3-2.4,4-2.3L52.7,17h-0.3c-2,0-3.4,1.1-4,3.7l-0.9,3.2h-3.7L46.6,13.2z"/>
	<path class="st0" d="M55.1,13.2h3.7L56,23.9h-3.7L55.1,13.2z M56.1,9.5H60l-0.7,2.7h-3.9L56.1,9.5z"/>
	<path class="st0" d="M58.5,21.2c0-2.3,1.9-3.8,4.7-3.8c1,0,1.8,0.2,2.7,0.4l0-0.1c0-0.2,0.1-0.4,0.1-0.6c0-0.7-0.5-1.1-1.8-1.1
		c-1,0-2.1,0.2-2.9,0.5l-0.5-2.7c1.1-0.4,2.7-0.6,4.2-0.6c3.2,0,4.7,1.3,4.7,3.4c0,0.5-0.1,1-0.2,1.5l-1.6,5.9h-3.7l0.3-1.1
		c-0.9,0.8-1.8,1.4-3.1,1.4C59.8,24.1,58.5,23,58.5,21.2z M65.4,19.9l0.1-0.4c-0.4-0.1-0.9-0.2-1.4-0.2c-1.2,0-1.9,0.6-1.9,1.5
		c0,0.6,0.4,1,1.1,1C64.2,21.8,65.1,20.9,65.4,19.9z"/>
</g>
<g>
	<path class="st0" d="M71.1,20H75v3.8h-3.9V20z"/>
</g>
</svg>
