<?xml version="1.0" encoding="utf-8"?>
<!-- Generator: Adobe Illustrator 26.3.1, SVG Export Plug-In . SVG Version: 6.00 Build 0)  -->
<svg version="1.1" id="Layer_1" xmlns="http://www.w3.org/2000/svg" xmlns:xlink="http://www.w3.org/1999/xlink" x="0px" y="0px"
	 viewBox="0 0 320 50" style="enable-background:new 0 0 320 50;" xml:space="preserve">
<style type="text/css">
	.st0{fill:#490A09;}
</style>
<g>
	<path class="st0" d="M15.6,30.5h-4.1v-3.3h12.1v3.3h-4.1V41h-3.8V30.5z"/>
	<path class="st0" d="M24.9,26.6h3.7v5.2c0.7-0.9,1.7-1.7,3.2-1.7c2.3,0,3.6,1.5,3.6,3.9v7h-3.7v-5.8c0-1.2-0.6-1.8-1.5-1.8
		c-0.9,0-1.6,0.6-1.6,1.8V41h-3.7V26.6z"/>
	<path class="st0" d="M37,35.7L37,35.7c0-3.1,2.2-5.6,5.4-5.6c3.7,0,5.4,2.7,5.4,5.8c0,0.2,0,0.5,0,0.8h-7.1
		c0.3,1.2,1.1,1.7,2.3,1.7c0.9,0,1.6-0.3,2.4-1.1l2.1,1.7c-1,1.3-2.5,2.2-4.6,2.2C39.3,41.2,37,39,37,35.7z M44.2,34.8
		c-0.1-1.2-0.8-1.9-1.8-1.9c-1,0-1.6,0.8-1.8,1.9H44.2z"/>
	<path class="st0" d="M54.7,30.3h3.7v1.5c0.7-0.9,1.7-1.7,3.2-1.7c2.3,0,3.6,1.5,3.6,3.9v7h-3.7v-5.8c0-1.2-0.6-1.8-1.5-1.8
		c-0.9,0-1.6,0.6-1.6,1.8V41h-3.7V30.3z"/>
	<path class="st0" d="M66.7,35.7L66.7,35.7c0-3.1,2.2-5.6,5.4-5.6c3.7,0,5.4,2.7,5.4,5.8c0,0.2,0,0.5,0,0.8h-7.1
		c0.3,1.2,1.1,1.7,2.3,1.7c0.9,0,1.6-0.3,2.4-1.1l2.1,1.7c-1,1.3-2.5,2.2-4.6,2.2C69.1,41.2,66.7,39,66.7,35.7z M74,34.8
		c-0.1-1.2-0.8-1.9-1.8-1.9c-1,0-1.6,0.8-1.8,1.9H74z"/>
	<path class="st0" d="M77.8,30.3h3.7l1.4,5.3l1.6-5.4h3.1l1.6,5.4l1.4-5.4h3.6L90.9,41h-3.2L86,35.5L84.2,41H81L77.8,30.3z"/>
	<path class="st0" d="M101.1,27.2h11v3.3h-7.2v2.3h6.5V36h-6.5V41h-3.8V27.2z"/>
	<path class="st0" d="M113.6,30.3h3.7v2.1c0.6-1.5,1.6-2.4,3.4-2.3v3.9h-0.3c-1.9,0-3,1.1-3,3.6V41h-3.7V30.3z"/>
	<path class="st0" d="M121.4,35.7L121.4,35.7c0-3.1,2.2-5.6,5.4-5.6c3.7,0,5.4,2.7,5.4,5.8c0,0.2,0,0.5,0,0.8H125
		c0.3,1.2,1.1,1.7,2.3,1.7c0.9,0,1.6-0.3,2.4-1.1l2.1,1.7c-1,1.3-2.5,2.2-4.6,2.2C123.8,41.2,121.4,39,121.4,35.7z M128.6,34.8
		c-0.1-1.2-0.8-1.9-1.8-1.9c-1,0-1.6,0.8-1.8,1.9H128.6z"/>
	<path class="st0" d="M133.7,30.3h3.7v1.5c0.7-0.9,1.7-1.7,3.2-1.7c2.3,0,3.6,1.5,3.6,3.9v7h-3.7v-5.8c0-1.2-0.6-1.8-1.5-1.8
		c-0.9,0-1.6,0.6-1.6,1.8V41h-3.7V30.3z"/>
	<path class="st0" d="M145.7,35.7L145.7,35.7c0-3,2.3-5.6,5.7-5.6c2.2,0,3.6,0.9,4.5,2.4l-2.5,1.9c-0.5-0.7-1.1-1.1-2-1.1
		c-1.2,0-2.1,1.1-2.1,2.4v0c0,1.4,0.9,2.4,2.1,2.4c0.9,0,1.5-0.4,2-1.1l2.5,1.8c-1,1.5-2.4,2.4-4.7,2.4
		C148.1,41.2,145.7,38.7,145.7,35.7z"/>
	<path class="st0" d="M157.4,26.6h3.7v5.2c0.7-0.9,1.7-1.7,3.2-1.7c2.3,0,3.6,1.5,3.6,3.9v7h-3.7v-5.8c0-1.2-0.6-1.8-1.5-1.8
		c-0.9,0-1.6,0.6-1.6,1.8V41h-3.7V26.6z"/>
	<path class="st0" d="M175.9,37.7v-4.3h-1.3v-3h1.3v-2.7h3.7v2.7h2.5v3h-2.5v3.6c0,0.7,0.3,1.1,1,1.1c0.5,0,1-0.1,1.4-0.4v2.9
		c-0.7,0.4-1.6,0.6-2.6,0.6C177.2,41.2,175.9,40.2,175.9,37.7z"/>
	<path class="st0" d="M183.7,26.6h3.7v5.2c0.7-0.9,1.7-1.7,3.2-1.7c2.3,0,3.6,1.5,3.6,3.9v7h-3.7v-5.8c0-1.2-0.6-1.8-1.5-1.8
		c-0.9,0-1.6,0.6-1.6,1.8V41h-3.7V26.6z"/>
	<path class="st0" d="M196.2,30.3h3.7v2.1c0.6-1.5,1.6-2.4,3.4-2.3v3.9h-0.3c-1.9,0-3,1.1-3,3.6V41h-3.7V30.3z"/>
	<path class="st0" d="M204.6,26.6h3.9v2.7h-3.9V26.6z M204.6,30.3h3.7V41h-3.7V30.3z"/>
	<path class="st0" d="M210.5,26.6h3.7V41h-3.7V26.6z"/>
	<path class="st0" d="M216.4,26.6h3.7V41h-3.7V26.6z"/>
	<path class="st0" d="M221.8,35.7L221.8,35.7c0-3.1,2.2-5.6,5.4-5.6c3.7,0,5.4,2.7,5.4,5.8c0,0.2,0,0.5,0,0.8h-7.1
		c0.3,1.2,1.1,1.7,2.3,1.7c0.9,0,1.6-0.3,2.4-1.1l2.1,1.7c-1,1.3-2.5,2.2-4.6,2.2C224.2,41.2,221.8,39,221.8,35.7z M229,34.8
		c-0.1-1.2-0.8-1.9-1.8-1.9c-1,0-1.6,0.8-1.8,1.9H229z"/>
	<path class="st0" d="M234.1,30.3h3.7v2.1c0.6-1.5,1.6-2.4,3.4-2.3v3.9h-0.3c-1.9,0-3,1.1-3,3.6V41h-3.7V30.3z"/>
	<path class="st0" d="M241.1,37.1h3.9V41h-3.9V37.1z"/>
</g>
</svg>
