<?xml version="1.0" encoding="utf-8"?>
<!-- Generator: Adobe Illustrator 26.3.1, SVG Export Plug-In . SVG Version: 6.00 Build 0)  -->
<svg version="1.1" id="Layer_1" xmlns="http://www.w3.org/2000/svg" xmlns:xlink="http://www.w3.org/1999/xlink" x="0px" y="0px"
	 viewBox="0 0 320 50" style="enable-background:new 0 0 320 50;" xml:space="preserve">
<style type="text/css">
	.st0{fill:#490A09;}
</style>
<g>
	<path class="st0" d="M9.7,22.2h4.3V28h5.5v-5.8h4.3v15.4h-4.3v-5.9h-5.5v5.9H9.7V22.2z"/>
	<path class="st0" d="M25.7,31.7L25.7,31.7c0-3.5,2.5-6.3,6-6.3c4.1,0,6,3,6,6.5c0,0.3,0,0.6,0,0.9h-8c0.3,1.3,1.3,2,2.6,2
		c1,0,1.8-0.4,2.6-1.2l2.3,1.9c-1.1,1.5-2.8,2.4-5.2,2.4C28.4,37.9,25.7,35.4,25.7,31.7z M33.8,30.7c-0.2-1.3-0.9-2.2-2.1-2.2
		c-1.1,0-1.9,0.9-2.1,2.2H33.8z"/>
	<path class="st0" d="M44.8,25.7h4.1l1.6,6l1.8-6h3.5l1.9,6.1l1.6-6h4l-3.7,12H56L54,31.5l-2,6.2h-3.6L44.8,25.7z"/>
	<path class="st0" d="M63.5,34.2L63.5,34.2c0-2.5,1.9-3.8,4.7-3.8c1.1,0,2.2,0.2,2.9,0.5v-0.2c0-1.2-0.8-1.9-2.4-1.9
		c-1.3,0-2.2,0.2-3.3,0.7l-0.9-3c1.3-0.6,2.8-0.9,4.8-0.9c2.1,0,3.6,0.5,4.5,1.5c0.9,0.9,1.3,2.1,1.3,3.8v6.9h-4.1v-1.2
		c-0.8,0.9-1.9,1.5-3.5,1.5C65.3,37.9,63.5,36.6,63.5,34.2z M71.1,33.3v-0.6c-0.4-0.2-1-0.3-1.6-0.3c-1.2,0-1.9,0.6-1.9,1.5v0
		c0,0.8,0.6,1.3,1.5,1.3C70.3,35.3,71.1,34.5,71.1,33.3z"/>
	<path class="st0" d="M76.4,36.1l1.6-2.5c1.4,0.9,2.9,1.4,4.1,1.4c0.7,0,1.1-0.2,1.1-0.6v0c0-0.5-0.7-0.7-1.9-1
		c-2.4-0.6-4.2-1.4-4.2-3.8v0c0-2.5,2-3.9,4.8-3.9c1.7,0,3.6,0.5,4.9,1.4l-1.4,2.6c-1.2-0.7-2.6-1.1-3.5-1.1c-0.6,0-1,0.2-1,0.6v0
		c0,0.5,0.7,0.7,1.9,1.1c2.4,0.7,4.2,1.5,4.2,3.8v0c0,2.6-2,4-4.9,4C80.1,37.9,78.1,37.3,76.4,36.1z"/>
	<path class="st0" d="M94.8,21.5H99v5.8c0.8-1,1.9-1.9,3.6-1.9c2.5,0,4.1,1.7,4.1,4.4v7.8h-4.2v-6.5c0-1.3-0.7-2-1.7-2
		c-1,0-1.8,0.7-1.8,2v6.5h-4.2V21.5z"/>
	<path class="st0" d="M108.3,31.7L108.3,31.7c0-3.5,2.5-6.3,6-6.3c4.1,0,6,3,6,6.5c0,0.3,0,0.6,0,0.9h-8c0.3,1.3,1.3,2,2.6,2
		c1,0,1.8-0.4,2.6-1.2l2.3,1.9c-1.1,1.5-2.8,2.4-5.2,2.4C110.9,37.9,108.3,35.4,108.3,31.7z M116.4,30.7c-0.2-1.3-0.9-2.2-2.1-2.2
		c-1.1,0-1.9,0.9-2.1,2.2H116.4z"/>
	<path class="st0" d="M122.1,25.7h4.2v2.4c0.7-1.6,1.8-2.7,3.8-2.6v4.4h-0.4c-2.2,0-3.4,1.3-3.4,4v3.7h-4.2V25.7z"/>
	<path class="st0" d="M137.7,21.5h4.2v5.8c0.8-1,1.9-1.9,3.6-1.9c2.5,0,4.1,1.7,4.1,4.4v7.8h-4.2v-6.5c0-1.3-0.7-2-1.7-2
		c-1,0-1.8,0.7-1.8,2v6.5h-4.2V21.5z"/>
	<path class="st0" d="M151.6,33.5v-7.8h4.2v6.5c0,1.3,0.7,2,1.7,2c1,0,1.7-0.7,1.7-2v-6.5h4.2v11.9h-4.2V36c-0.8,1-1.9,1.9-3.6,1.9
		C153.1,37.9,151.6,36.2,151.6,33.5z"/>
	<path class="st0" d="M164.7,36.1l1.6-2.5c1.4,0.9,2.9,1.4,4.1,1.4c0.7,0,1.1-0.2,1.1-0.6v0c0-0.5-0.7-0.7-1.9-1
		c-2.4-0.6-4.2-1.4-4.2-3.8v0c0-2.5,2-3.9,4.8-3.9c1.7,0,3.6,0.5,4.9,1.4l-1.4,2.6c-1.2-0.7-2.6-1.1-3.5-1.1c-0.6,0-1,0.2-1,0.6v0
		c0,0.5,0.7,0.7,1.9,1.1c2.4,0.7,4.2,1.5,4.2,3.8v0c0,2.6-2,4-4.9,4C168.4,37.9,166.4,37.3,164.7,36.1z"/>
	<path class="st0" d="M181.2,36.2v1.5H177V21.5h4.2v5.8c0.8-1,1.8-1.9,3.6-1.9c2.8,0,5.3,2.4,5.3,6.2v0c0,3.9-2.4,6.2-5.3,6.2
		C183,37.9,182,37.1,181.2,36.2z M186,31.7L186,31.7c0-1.6-1.1-2.7-2.4-2.7c-1.3,0-2.4,1.1-2.4,2.7v0c0,1.6,1.1,2.7,2.4,2.7
		C184.9,34.4,186,33.3,186,31.7z"/>
	<path class="st0" d="M191.3,34.2L191.3,34.2c0-2.5,1.9-3.8,4.7-3.8c1.1,0,2.2,0.2,2.9,0.5v-0.2c0-1.2-0.8-1.9-2.4-1.9
		c-1.3,0-2.2,0.2-3.3,0.7l-0.9-3c1.3-0.6,2.8-0.9,4.8-0.9c2.1,0,3.6,0.5,4.5,1.5c0.9,0.9,1.3,2.1,1.3,3.8v6.9h-4.1v-1.2
		c-0.8,0.9-1.9,1.5-3.5,1.5C193.1,37.9,191.3,36.6,191.3,34.2z M198.9,33.3v-0.6c-0.4-0.2-1-0.3-1.6-0.3c-1.2,0-1.9,0.6-1.9,1.5v0
		c0,0.8,0.6,1.3,1.5,1.3C198,35.3,198.9,34.5,198.9,33.3z"/>
	<path class="st0" d="M205.1,25.7h4.2v1.7c0.8-1,1.9-1.9,3.6-1.9c2.5,0,4.1,1.7,4.1,4.4v7.8h-4.2v-6.5c0-1.3-0.7-2-1.7-2
		c-1,0-1.8,0.7-1.8,2v6.5h-4.2V25.7z"/>
	<path class="st0" d="M218.7,31.7L218.7,31.7c0-3.9,2.4-6.3,5.3-6.3c1.8,0,2.9,0.8,3.7,1.7v-5.6h4.2v16.1h-4.2V36
		c-0.8,1-1.9,1.9-3.6,1.9C221.1,37.9,218.7,35.5,218.7,31.7z M227.6,31.7L227.6,31.7c0-1.6-1.1-2.7-2.4-2.7s-2.4,1.1-2.4,2.7v0
		c0,1.6,1.1,2.7,2.4,2.7S227.6,33.2,227.6,31.7z"/>
	<path class="st0" d="M233.8,33.3h4.4v4.3h-4.4V33.3z"/>
</g>
</svg>
