<?xml version="1.0" encoding="utf-8"?>
<!-- Generator: Adobe Illustrator 25.4.1, SVG Export Plug-In . SVG Version: 6.00 Build 0)  -->
<svg version="1.1" id="Layer_1" xmlns="http://www.w3.org/2000/svg" xmlns:xlink="http://www.w3.org/1999/xlink" x="0px" y="0px"
	 viewBox="0 0 160 600" style="enable-background:new 0 0 160 600;" xml:space="preserve">
<style type="text/css">
	.st0{fill:#490A09;}
</style>
<g>
	<path class="st0" d="M15.2,293.5L15.2,293.5c0-6.7,5.3-12.1,12.5-12.1S40,286.8,40,293.4v0.1c0,6.6-5.3,12-12.5,12
		S15.2,300.2,15.2,293.5z M33.5,293.5L33.5,293.5c0-3.4-2.4-6.3-5.9-6.3c-3.5,0-5.8,2.8-5.8,6.2v0.1c0,3.3,2.4,6.2,5.9,6.2
		C31.2,299.7,33.5,296.9,33.5,293.5z"/>
	<path class="st0" d="M43,287.2h6.3v2.5c1.2-1.5,2.8-2.9,5.3-2.9c3.8,0,6.1,2.5,6.1,6.6V305h-6.3v-9.7c0-1.9-1-3-2.5-3
		c-1.5,0-2.6,1.1-2.6,3v9.7H43V287.2z"/>
	<path class="st0" d="M64.1,280.9h6.3V305h-6.3V280.9z"/>
	<path class="st0" d="M73.4,308.9l1.9-4.4c1,0.6,2,1,2.7,1c0.6,0,1.1-0.2,1.5-0.7l-7-17.5h6.6l3.6,10.8l3.4-10.8h6.4l-6.5,17.4
		c-1.6,4.2-3.2,5.8-6.8,5.8C76.9,310.4,75,309.8,73.4,308.9z"/>
</g>
<g>
	<path class="st0" d="M13.3,327.2L13.3,327.2c0-5.1,4.2-9.4,9.9-9.4c5.7,0,9.8,4.2,9.8,9.3v0.1c0,5.1-4.2,9.3-9.9,9.3
		C17.5,336.4,13.3,332.3,13.3,327.2z M27,327.2L27,327.2c0-2.2-1.6-4.1-3.8-4.1c-2.3,0-3.7,1.8-3.7,4v0.1c0,2.2,1.6,4,3.8,4
		C25.5,331.1,27,329.3,27,327.2z"/>
	<path class="st0" d="M35.7,318.2H42v2.5c1.2-1.5,2.8-2.9,5.3-2.9c3.8,0,6.1,2.5,6.1,6.6V336h-6.3v-9.7c0-1.9-1-3-2.5-3
		c-1.5,0-2.6,1.1-2.6,3v9.7h-6.3V318.2z"/>
</g>
<g>
	<path class="st0" d="M14.4,343.9h6.8l5.5,8.9l5.5-8.9H39V367h-6.4v-13.3l-5.9,9h-0.1l-5.9-9V367h-6.3V343.9z"/>
	<path class="st0" d="M43.1,343.9h6.4v8.6h8.2v-8.6h6.4V367h-6.4v-8.8h-8.2v8.8h-6.4V343.9z"/>
	<path class="st0" d="M67.2,362.9l8.3-8.7h-8v-5h16.3v4.1l-8.3,8.7h8.3v5H67.2V362.9z"/>
</g>
<g>
	<path class="st0" d="M13.6,387.4L13.6,387.4c0-6.8,5.2-12.1,12.2-12.1c4.7,0,7.8,2,9.8,4.8l-4.8,3.7c-1.3-1.6-2.8-2.7-5-2.7
		c-3.2,0-5.5,2.7-5.5,6.1v0.1c0,3.5,2.3,6.2,5.5,6.2c2.4,0,3.8-1.1,5.2-2.8l4.8,3.4c-2.2,3-5.1,5.2-10.2,5.2
		C18.9,399.3,13.6,394.3,13.6,387.4z"/>
	<path class="st0" d="M38.2,374.8h6.3v8.7c1.2-1.5,2.8-2.8,5.3-2.8c3.8,0,6.1,2.5,6.1,6.6v11.7h-6.3v-9.7c0-1.9-1-3-2.5-3
		c-1.5,0-2.6,1.1-2.6,3v9.7h-6.3V374.8z"/>
	<path class="st0" d="M58.3,390L58.3,390c0-5.1,4.2-9.4,9.9-9.4c5.7,0,9.8,4.2,9.8,9.3v0.1c0,5.1-4.2,9.3-9.9,9.3
		C62.5,399.3,58.3,395.1,58.3,390z M72,390L72,390c0-2.2-1.6-4.1-3.8-4.1c-2.3,0-3.7,1.8-3.7,4v0.1c0,2.2,1.6,4,3.8,4
		C70.5,394,72,392.2,72,390z"/>
	<path class="st0" d="M80.7,374.8h6.5v4.6h-6.5V374.8z M80.9,381h6.3v17.9h-6.3V381z"/>
	<path class="st0" d="M89.9,390L89.9,390c0-5.1,3.9-9.4,9.6-9.4c3.7,0,6.1,1.6,7.6,4l-4.3,3.2c-0.9-1.2-1.8-1.9-3.3-1.9
		c-2,0-3.5,1.8-3.5,4v0.1c0,2.3,1.5,4.1,3.6,4.1c1.5,0,2.4-0.7,3.4-1.8l4.2,3c-1.7,2.4-4,4.1-8,4.1C93.9,399.3,89.9,395.1,89.9,390z
		"/>
	<path class="st0" d="M108.2,390L108.2,390c0-5.3,3.7-9.4,9-9.4c6.2,0,9,4.5,9,9.8c0,0.4,0,0.9,0,1.3h-11.9c0.5,1.9,1.9,2.9,3.9,2.9
		c1.5,0,2.7-0.6,4-1.8l3.5,2.9c-1.7,2.2-4.2,3.6-7.8,3.6C112.2,399.3,108.2,395.6,108.2,390z M120.4,388.5c-0.2-2-1.4-3.2-3.1-3.2
		c-1.6,0-2.8,1.3-3.1,3.2H120.4z"/>
	<path class="st0" d="M128.5,392.5h6.5v6.4h-6.5V392.5z"/>
</g>
</svg>
