<?xml version="1.0" encoding="utf-8"?>
<!-- Generator: Adobe Illustrator 25.4.1, SVG Export Plug-In . SVG Version: 6.00 Build 0)  -->
<svg version="1.1" id="Layer_1" xmlns="http://www.w3.org/2000/svg" xmlns:xlink="http://www.w3.org/1999/xlink" x="0px" y="0px"
	 viewBox="0 0 160 600" style="enable-background:new 0 0 160 600;" xml:space="preserve">
<style type="text/css">
	.st0{fill:#490A09;}
</style>
<g>
	<path class="st0" d="M19.7,204.9h6.5l3.1,8.9l7.9-8.9h7.2L38.1,228h-6.4l3.5-13.3l-8.3,9h-0.1l-3.4-9L19.8,228h-6.3L19.7,204.9z"/>
	<path class="st0" d="M43.3,223.1c0-1,0.2-2.1,0.5-3.2l2.6-9.7h6.3l-2.5,9.3c-0.1,0.5-0.2,1.1-0.2,1.5c0,1.2,0.7,1.9,2,1.9
		c1.7,0,2.8-1.2,3.3-3.2l2.5-9.4h6.3L59.3,228h-6.3l0.5-2c-1.2,1.3-3,2.4-5.1,2.4C45.3,228.4,43.3,226.4,43.3,223.1z"/>
	<path class="st0" d="M67.4,210.2h6.3l-1,3.6c1.7-2.5,3.8-4.1,6.7-3.9l-1.8,6.6h-0.5c-3.4,0-5.6,1.9-6.8,6.2l-1.5,5.4h-6.3
		L67.4,210.2z"/>
	<path class="st0" d="M78.4,221.1c0-6.4,4.5-11.3,9.6-11.3c2.7,0,4.3,1.2,5.4,2.8l2.3-8.7h6.3L95.6,228h-6.3l0.5-1.9
		c-1.4,1.4-3.1,2.3-5.1,2.3C81.2,228.4,78.4,225.7,78.4,221.1z M92.2,218.2c0-1.9-1.3-3.2-3.1-3.2c-2.3,0-4.4,2.3-4.4,5.1
		c0,1.9,1.2,3.1,3,3.1C90.2,223.3,92.2,220.9,92.2,218.2z"/>
	<path class="st0" d="M109.7,223.8c1.3,0,2.4-0.4,3.8-1.4l2.9,3.4c-1.8,1.6-4.2,2.7-7.3,2.7c-5.3,0-8.5-3.1-8.5-7.9
		c0-5.3,4.1-10.8,10.7-10.8c5.3,0,7.6,3.5,7.6,7.4c0,1.2-0.3,2.5-0.7,3.7h-11.8C106.5,222.6,107.6,223.8,109.7,223.8z M113.2,217.6
		c0.1-0.3,0.2-0.6,0.2-1c0-1.2-0.8-2.3-2.4-2.3c-1.7,0-3.3,1.1-4.1,3.2H113.2z"/>
	<path class="st0" d="M123.6,210.2h6.3l-1,3.6c1.7-2.5,3.8-4.1,6.7-3.9l-1.8,6.6h-0.5c-3.4,0-5.6,1.9-6.8,6.2l-1.5,5.4h-6.3
		L123.6,210.2z"/>
</g>
<g>
	<path class="st0" d="M18.4,235.9h6.4L18.6,259h-6.4L18.4,235.9z"/>
	<path class="st0" d="M27.2,241.2h6.3l-0.6,2c1.2-1.3,3-2.4,5.1-2.4c3.2,0,5.2,2,5.2,5.3c0,1-0.2,2.1-0.5,3.2l-2.6,9.7h-6.3l2.5-9.3
		c0.1-0.5,0.2-1.1,0.2-1.5c0-1.2-0.7-1.9-2-1.9c-1.7,0-2.8,1.2-3.3,3.2l-2.5,9.4h-6.3L27.2,241.2z"/>
	<path class="st0" d="M44.9,252.6h6.5l-1.7,6.4h-6.5L44.9,252.6z"/>
	<path class="st0" d="M54.9,252.6h6.5l-1.7,6.4h-6.5L54.9,252.6z"/>
	<path class="st0" d="M64.9,252.6h6.5l-1.7,6.4h-6.5L64.9,252.6z"/>
</g>
</svg>
