<?xml version="1.0" encoding="utf-8"?>
<!-- Generator: Adobe Illustrator 25.4.1, SVG Export Plug-In . SVG Version: 6.00 Build 0)  -->
<svg version="1.1" id="Layer_1" xmlns="http://www.w3.org/2000/svg" xmlns:xlink="http://www.w3.org/1999/xlink" x="0px" y="0px"
	 viewBox="0 0 160 600" style="enable-background:new 0 0 160 600;" xml:space="preserve">
<style type="text/css">
	.st0{fill:#490A09;}
</style>
<g>
	<path class="st0" d="M12.6,260.6h6.6l5.4,8.8l5.4-8.8h6.6v22.7h-6.2v-13l-5.8,8.9h-0.1l-5.8-8.8v12.9h-6.1V260.6z"/>
	<path class="st0" d="M40.2,277.2v-11.5h6.1v9.5c0,1.9,1,2.9,2.5,2.9c1.5,0,2.6-1,2.6-2.9v-9.5h6.1v17.5h-6.1v-2.4
		c-1.1,1.5-2.8,2.8-5.2,2.8C42.5,283.6,40.2,281.2,40.2,277.2z"/>
	<path class="st0" d="M60.9,265.7H67v3.5c1-2.4,2.6-3.9,5.5-3.8v6.5h-0.5c-3.2,0-5,1.8-5,5.9v5.4h-6.1V265.7z"/>
	<path class="st0" d="M73.8,274.6L73.8,274.6c0-5.8,3.6-9.2,7.7-9.2c2.7,0,4.2,1.2,5.4,2.5v-8.3H93v23.6h-6.1v-2.3
		c-1.2,1.5-2.7,2.7-5.3,2.7C77.4,283.6,73.8,280.2,73.8,274.6z M87,274.5L87,274.5c0-2.4-1.6-4-3.6-4c-2,0-3.6,1.6-3.6,3.9v0.1
		c0,2.3,1.6,4,3.6,4C85.4,278.5,87,276.8,87,274.5z"/>
	<path class="st0" d="M95.6,274.6L95.6,274.6c0-5.2,3.7-9.2,8.8-9.2c6.1,0,8.8,4.4,8.8,9.6c0,0.4,0,0.8,0,1.3h-11.7
		c0.5,1.9,1.9,2.9,3.8,2.9c1.5,0,2.6-0.6,3.9-1.8l3.4,2.8c-1.7,2.1-4.1,3.6-7.6,3.6C99.5,283.6,95.6,280,95.6,274.6z M107.5,273
		c-0.2-1.9-1.4-3.2-3-3.2c-1.6,0-2.7,1.3-3,3.2H107.5z"/>
	<path class="st0" d="M115.9,265.7h6.1v3.5c1-2.4,2.6-3.9,5.5-3.8v6.5h-0.5c-3.2,0-5,1.8-5,5.9v5.4h-6.1V265.7z"/>
	<path class="st0" d="M128.4,281l2.3-3.7c2,1.3,4.2,2,6,2c1.1,0,1.6-0.3,1.6-0.9v-0.1c0-0.7-1-1-2.8-1.5c-3.5-0.9-6.2-2.1-6.2-5.6
		v-0.1c0-3.7,3-5.8,7-5.8c2.6,0,5.2,0.7,7.2,2l-2.1,3.9c-1.8-1-3.8-1.6-5.2-1.6c-0.9,0-1.4,0.4-1.4,0.8v0.1c0,0.7,1,1,2.8,1.6
		c3.5,1,6.2,2.2,6.2,5.6v0.1c0,3.9-2.9,5.9-7.2,5.9C133.8,283.6,130.9,282.8,128.4,281z"/>
</g>
<g>
	<path class="st0" d="M13.4,307.8v-7.1h-2.1v-5h2.1v-4.4h6.1v4.4h4.1v5h-4.1v5.9c0,1.2,0.6,1.7,1.7,1.7c0.8,0,1.6-0.2,2.3-0.6v4.8
		c-1.1,0.6-2.6,1-4.3,1C15.6,313.6,13.4,312,13.4,307.8z"/>
	<path class="st0" d="M25.1,304.6L25.1,304.6c0-5,4.1-9.2,9.7-9.2c5.6,0,9.6,4.1,9.6,9.1v0.1c0,5-4.1,9.2-9.7,9.2
		C29.1,313.6,25.1,309.5,25.1,304.6z M38.4,304.6L38.4,304.6c0-2.2-1.6-4-3.7-4c-2.2,0-3.7,1.8-3.7,3.9v0.1c0,2.1,1.6,3.9,3.7,3.9
		C37,308.4,38.4,306.7,38.4,304.6z"/>
	<path class="st0" d="M54.6,311l2.3-3.7c2,1.3,4.2,2,6,2c1.1,0,1.6-0.3,1.6-0.9v-0.1c0-0.7-1-1-2.8-1.5c-3.5-0.9-6.2-2.1-6.2-5.6
		v-0.1c0-3.7,3-5.8,7-5.8c2.6,0,5.2,0.7,7.2,2l-2.1,3.9c-1.8-1-3.8-1.6-5.2-1.6c-0.9,0-1.4,0.4-1.4,0.8v0.1c0,0.7,1,1,2.8,1.6
		c3.5,1,6.2,2.2,6.2,5.6v0.1c0,3.9-2.9,5.9-7.2,5.9C60,313.6,57.1,312.8,54.6,311z"/>
	<path class="st0" d="M71.9,304.6L71.9,304.6c0-5,4.1-9.2,9.7-9.2c5.6,0,9.6,4.1,9.6,9.1v0.1c0,5-4.1,9.2-9.7,9.2
		C75.9,313.6,71.9,309.5,71.9,304.6z M85.3,304.6L85.3,304.6c0-2.2-1.6-4-3.7-4c-2.2,0-3.7,1.8-3.7,3.9v0.1c0,2.1,1.6,3.9,3.7,3.9
		C83.8,308.4,85.3,306.7,85.3,304.6z"/>
	<path class="st0" d="M94,289.6h6.1v23.6H94V289.6z"/>
	<path class="st0" d="M102.2,295.7h6.5l3.4,10.2l3.4-10.2h6.4l-7,17.6h-5.6L102.2,295.7z"/>
	<path class="st0" d="M122,304.6L122,304.6c0-5.2,3.7-9.2,8.8-9.2c6.1,0,8.8,4.4,8.8,9.6c0,0.4,0,0.8,0,1.3h-11.7
		c0.5,1.9,1.9,2.9,3.8,2.9c1.5,0,2.6-0.6,3.9-1.8l3.4,2.8c-1.7,2.1-4.1,3.6-7.6,3.6C125.9,313.6,122,310,122,304.6z M133.9,303
		c-0.2-1.9-1.4-3.2-3-3.2c-1.6,0-2.7,1.3-3,3.2H133.9z"/>
	<path class="st0" d="M141.9,306.9h6.4v6.3h-6.4V306.9z"/>
</g>
</svg>
