<?xml version="1.0" encoding="utf-8"?>
<!-- Generator: Adobe Illustrator 25.4.1, SVG Export Plug-In . SVG Version: 6.00 Build 0)  -->
<svg version="1.1" id="Layer_1" xmlns="http://www.w3.org/2000/svg" xmlns:xlink="http://www.w3.org/1999/xlink" x="0px" y="0px"
	 viewBox="0 0 160 600" style="enable-background:new 0 0 160 600;" xml:space="preserve">
<style type="text/css">
	.st0{clip-path:url(#SVGID_00000062891152522395828040000017335769839085272973_);fill:#AC1F2D;}
	.st1{clip-path:url(#SVGID_00000062891152522395828040000017335769839085272973_);fill:#FFFFFF;}
</style>
<g>
	<defs>
		<rect id="SVGID_1_" x="11.5" y="4.9" width="63.6" height="70.1"/>
	</defs>
	<clipPath id="SVGID_00000167380774117340778630000017290491079018907068_">
		<use xlink:href="#SVGID_1_"  style="overflow:visible;"/>
	</clipPath>
	<path style="clip-path:url(#SVGID_00000167380774117340778630000017290491079018907068_);fill:#AC1F2D;" d="M70.7,39.2
		c0,16.3-13.2,29.4-29.4,29.4S11.8,55.5,11.8,39.2C11.8,23,25,9.8,41.3,9.8S70.7,23,70.7,39.2"/>
	<path style="clip-path:url(#SVGID_00000167380774117340778630000017290491079018907068_);fill:#FFFFFF;" d="M53,33.9v3.4h3.8
		l-4.5,7.1h11.1v-3.4h-4.8l4.3-7H53z M31.1,29.6l-3.5,8l-3.5-8h-5v14.6h4.1v-7.8l3.5,7.8h1.8l3.5-8v8h4.1V29.6H31.1z M47.3,29.6v5.2
		h-5.2v-5.2h-4.5v14.6h4.5v-5.8h5.2v5.8h4.5V29.6H47.3z"/>
	<path style="clip-path:url(#SVGID_00000167380774117340778630000017290491079018907068_);fill:#FFFFFF;" d="M52.7,50.3h3.9v-1.1H54
		v-0.8h2.3v-1.1H54v-0.7h2.6v-1.1h-3.9V50.3z M49.6,50.4c1.1,0,1.7-0.5,2.1-1.1l-1-0.7c-0.3,0.4-0.6,0.6-1.1,0.6
		c-0.7,0-1.2-0.6-1.2-1.3v0c0-0.7,0.5-1.3,1.2-1.3c0.5,0,0.8,0.2,1.1,0.6l1-0.8c-0.4-0.6-1.1-1-2.1-1c-1.5,0-2.6,1.1-2.6,2.5v0
		C47.1,49.3,48.2,50.4,49.6,50.4 M44.6,50.3H46v-4.8h-1.3V50.3z M40.9,49.2c-0.7,0-1.2-0.6-1.2-1.3v0c0-0.7,0.5-1.3,1.2-1.3
		c0.7,0,1.2,0.6,1.2,1.3v0C42.1,48.6,41.6,49.2,40.9,49.2 M40.9,50.4c1.5,0,2.6-1.1,2.6-2.5v0c0-1.4-1.1-2.5-2.6-2.5
		c-1.5,0-2.6,1.1-2.6,2.5v0C38.3,49.3,39.4,50.4,40.9,50.4 M32.7,50.3h1.3v-1.8h1.7v1.8h1.3v-4.8h-1.3v1.8h-1.7v-1.8h-1.3V50.3z
		 M29.6,50.4c1.1,0,1.7-0.5,2.1-1.1l-1-0.7c-0.3,0.4-0.6,0.6-1.1,0.6c-0.7,0-1.2-0.6-1.2-1.3v0c0-0.7,0.5-1.3,1.2-1.3
		c0.5,0,0.8,0.2,1.1,0.6l1-0.8c-0.4-0.6-1.1-1-2.1-1c-1.5,0-2.6,1.1-2.6,2.5v0C27.1,49.3,28.2,50.4,29.6,50.4"/>
</g>
</svg>
