<svg id="Layer_1" xmlns="http://www.w3.org/2000/svg" viewBox="0 0 970 250"><style>.st0{fill:#490a09}</style><path class="st0" d="M37.8 94.1h15.1v20.4h19.4V94.1h15.1v54.4H72.2v-20.7H52.8v20.7h-15V94.1zM94.4 127.7v-.2c0-12.3 8.8-22 21.2-22 14.5 0 21.2 10.7 21.2 23 0 .9 0 2-.1 3h-28.1c1.2 4.6 4.5 6.9 9.1 6.9 3.5 0 6.3-1.3 9.3-4.3l8.2 6.8c-4 5.1-9.9 8.6-18.3 8.6-13.2 0-22.5-8.8-22.5-21.8zM123 124c-.5-4.7-3.3-7.6-7.3-7.6-3.9 0-6.5 3-7.3 7.6H123zM161.6 106.4h14.5l5.5 21.2 6.5-21.3h12.2l6.5 21.5 5.7-21.3h14.2l-13 42.4H201l-6.8-21.8-7 21.8h-12.7l-12.9-42.5zM227.7 136.5v-.2c0-8.7 6.6-13.2 16.5-13.2 3.9 0 7.7.8 10.1 1.6v-.7c0-4.4-2.7-6.8-8.4-6.8-4.4 0-7.9.9-11.6 2.3l-3-10.4c4.7-1.9 9.8-3.3 17-3.3 7.5 0 12.7 1.8 16 5.1 3.2 3.1 4.5 7.5 4.5 13.4v24.2h-14.6v-4.4c-2.9 3.2-6.8 5.3-12.4 5.3-8 0-14.1-4.6-14.1-12.9zm26.7-3.2v-1.9c-1.5-.6-3.6-1.1-5.8-1.1-4.3 0-6.8 2.1-6.8 5.2v.2c0 2.9 2.2 4.6 5.2 4.6 4.4-.1 7.4-2.8 7.4-7zM273.1 143.2l5.5-8.9c4.8 3.2 10.1 4.8 14.5 4.8 2.6 0 3.7-.8 3.7-2.3v-.2c0-1.6-2.3-2.3-6.8-3.6-8.3-2.2-14.9-5-14.9-13.5v-.2c0-8.9 7.2-13.9 16.9-13.9 6.1 0 12.5 1.8 17.3 4.9l-5.1 9.3c-4.4-2.4-9.1-3.9-12.4-3.9-2.3 0-3.4.9-3.4 2v.2c0 1.6 2.4 2.4 6.8 3.7 8.3 2.3 14.9 5.2 14.9 13.4v.2c0 9.3-6.9 14.1-17.2 14.1-6.9.1-13.9-1.9-19.8-6.1zM337.8 91.7h14.8v20.5c2.7-3.5 6.6-6.7 12.6-6.7 8.9 0 14.3 5.9 14.3 15.5v27.5h-14.8v-22.8c0-4.6-2.4-7.1-5.9-7.1-3.6 0-6.2 2.5-6.2 7.1v22.8h-14.8V91.7zM385.4 127.7v-.2c0-12.3 8.8-22 21.2-22 14.5 0 21.2 10.7 21.2 23 0 .9 0 2-.1 3h-28.1c1.2 4.6 4.5 6.9 9.1 6.9 3.5 0 6.3-1.3 9.3-4.3l8.2 6.8c-4 5.1-9.9 8.6-18.3 8.6-13.1 0-22.5-8.8-22.5-21.8zM414 124c-.5-4.7-3.3-7.6-7.3-7.6-3.9 0-6.5 3-7.3 7.6H414zM434.2 106.4H449v8.5c2.4-5.8 6.3-9.5 13.3-9.2v15.6H461c-7.7 0-12.1 4.4-12.1 14.2v13.1h-14.8v-42.2zM489 91.7h14.8v20.5c2.7-3.5 6.6-6.7 12.6-6.7 8.9 0 14.3 5.9 14.3 15.5v27.5h-14.8v-22.8c0-4.6-2.4-7.1-5.9-7.1-3.6 0-6.2 2.5-6.2 7.1v22.8H489V91.7zM538 134v-27.5h14.8v22.8c0 4.6 2.4 7.1 6 7.1 3.5 0 6.1-2.5 6.1-7.1v-22.8h14.8v42.1h-14.8v-5.8c-2.7 3.5-6.6 6.7-12.6 6.7-8.9-.1-14.3-6-14.3-15.5zM584.4 143.2l5.5-8.9c4.8 3.2 10.1 4.8 14.5 4.8 2.6 0 3.7-.8 3.7-2.3v-.2c0-1.6-2.3-2.3-6.8-3.6-8.3-2.2-14.9-5-14.9-13.5v-.2c0-8.9 7.2-13.9 16.9-13.9 6.1 0 12.5 1.8 17.3 4.9l-5.1 9.3c-4.4-2.4-9.1-3.9-12.4-3.9-2.3 0-3.4.9-3.4 2v.2c0 1.6 2.4 2.4 6.8 3.7 8.3 2.3 14.9 5.2 14.9 13.4v.2c0 9.3-6.9 14.1-17.2 14.1-6.9.1-13.9-1.9-19.8-6.1zM642.4 143.4v5.1h-14.8V91.7h14.8V112c2.9-3.5 6.5-6.5 12.8-6.5 10 0 18.7 8.3 18.7 21.8v.2c0 13.7-8.6 22-18.6 22-6.5-.1-10.2-2.9-12.9-6.1zm16.8-15.9v-.2c0-5.5-3.8-9.5-8.6-9.5-4.7 0-8.6 4-8.6 9.5v.2c0 5.6 3.8 9.6 8.6 9.6s8.6-3.9 8.6-9.6zM678.1 136.5v-.2c0-8.7 6.6-13.2 16.5-13.2 3.9 0 7.7.8 10.1 1.6v-.7c0-4.4-2.7-6.8-8.4-6.8-4.4 0-7.9.9-11.6 2.3l-3-10.4c4.7-1.9 9.8-3.3 17-3.3 7.5 0 12.7 1.8 16 5.1 3.2 3.1 4.5 7.5 4.5 13.4v24.2h-14.6v-4.4c-2.9 3.2-6.8 5.3-12.4 5.3-8 0-14.1-4.6-14.1-12.9zm26.7-3.2v-1.9c-1.5-.6-3.6-1.1-5.8-1.1-4.3 0-6.8 2.1-6.8 5.2v.2c0 2.9 2.2 4.6 5.2 4.6 4.4-.1 7.4-2.8 7.4-7zM726.7 106.4h14.8v5.9c2.7-3.5 6.6-6.8 12.6-6.8 8.9 0 14.3 5.9 14.3 15.5v27.5h-14.8v-22.8c0-4.6-2.4-7.1-5.9-7.1-3.6 0-6.2 2.5-6.2 7.1v22.8h-14.8v-42.1zM774.5 127.7v-.2c0-13.7 8.6-22 18.5-22 6.4 0 10.1 2.9 12.9 6.1V91.7h14.8v56.8h-14.8v-5.6c-2.9 3.5-6.5 6.5-12.8 6.5-10 0-18.6-8.3-18.6-21.7zm31.6-.2v-.2c0-5.5-3.8-9.5-8.6-9.5s-8.6 3.9-8.6 9.5v.2c0 5.6 3.9 9.6 8.6 9.6s8.6-4 8.6-9.6zM828 133.3h15.4v15.2H828v-15.2z"/></svg>