<svg id="Layer_1" xmlns="http://www.w3.org/2000/svg" viewBox="0 0 970 250"><style>.st0{fill:#490a09}</style><path class="st0" d="M53.8 136.9h-14v-11.4h41v11.4h-14v35.4h-13v-35.4zM85.8 123.5h12.7v17.6c2.3-3 5.7-5.7 10.8-5.7 7.7 0 12.3 5.1 12.3 13.3v23.6h-12.7v-19.6c0-3.9-2.1-6.1-5.1-6.1-3.1 0-5.3 2.1-5.3 6.1v19.6H85.8v-48.8zM126.6 154.4v-.1c0-10.6 7.5-18.9 18.2-18.9 12.5 0 18.2 9.2 18.2 19.8 0 .8 0 1.7-.1 2.6h-24.2c1 3.9 3.9 5.9 7.8 5.9 3 0 5.4-1.1 8-3.7l7 5.8c-3.5 4.4-8.5 7.3-15.7 7.3-11.2 0-19.2-7.5-19.2-18.7zm24.6-3.2c-.5-4-2.8-6.5-6.3-6.5-3.3 0-5.6 2.6-6.3 6.5h12.6zM187 136.1h12.7v5.1c2.3-3 5.7-5.9 10.8-5.9 7.7 0 12.3 5.1 12.3 13.3v23.6h-12.7v-19.6c0-3.9-2.1-6.1-5.1-6.1-3.1 0-5.3 2.1-5.3 6.1v19.6H187v-36.1zM227.9 154.4v-.1c0-10.6 7.5-18.9 18.2-18.9 12.5 0 18.2 9.2 18.2 19.8 0 .8 0 1.7-.1 2.6H240c1 3.9 3.9 5.9 7.8 5.9 3 0 5.4-1.1 8-3.7l7 5.8c-3.5 4.4-8.5 7.3-15.7 7.3-11.2 0-19.2-7.5-19.2-18.7zm24.6-3.2c-.5-4-2.8-6.5-6.3-6.5-3.3 0-5.6 2.6-6.3 6.5h12.6zM265.5 136.1h12.4l4.7 18.2 5.5-18.3h10.5l5.6 18.4 4.9-18.3h12.2l-11.2 36.4h-11l-5.9-18.8-6 18.8h-10.9l-10.8-36.4zM344.9 125.5h37.4v11.4h-24.4v7.9H380v10.8h-22.1v16.7h-13v-46.8zM387.4 136.1h12.7v7.3c2.1-4.9 5.4-8.2 11.4-7.9v13.4h-1.1c-6.6 0-10.4 3.8-10.4 12.2v11.2h-12.7v-36.2zM413.9 154.4v-.1c0-10.6 7.5-18.9 18.2-18.9 12.5 0 18.2 9.2 18.2 19.8 0 .8 0 1.7-.1 2.6H426c1 3.9 3.9 5.9 7.8 5.9 3 0 5.4-1.1 8-3.7l7 5.8c-3.5 4.4-8.5 7.3-15.7 7.3-11.2 0-19.2-7.5-19.2-18.7zm24.6-3.2c-.5-4-2.8-6.5-6.3-6.5-3.3 0-5.6 2.6-6.3 6.5h12.6zM455.8 136.1h12.7v5.1c2.3-3 5.7-5.9 10.8-5.9 7.7 0 12.3 5.1 12.3 13.3v23.6h-12.7v-19.6c0-3.9-2.1-6.1-5.1-6.1-3.1 0-5.3 2.1-5.3 6.1v19.6h-12.7v-36.1zM496.7 154.4v-.1c0-10.2 7.9-18.8 19.4-18.8 7.4 0 12.4 3.2 15.4 8.1l-8.6 6.4c-1.7-2.4-3.7-3.8-6.7-3.8-4.1 0-7.1 3.6-7.1 8v.1c0 4.7 2.9 8.2 7.2 8.2 3 0 4.9-1.4 6.9-3.7l8.5 6.1c-3.3 4.9-8.2 8.3-16.1 8.3-10.9-.1-18.9-8.6-18.9-18.8zM536.2 123.5h12.7v17.6c2.3-3 5.7-5.7 10.8-5.7 7.7 0 12.3 5.1 12.3 13.3v23.6h-12.7v-19.6c0-3.9-2.1-6.1-5.1-6.1-3.1 0-5.3 2.1-5.3 6.1v19.6h-12.7v-48.8zM599.2 161v-14.7h-4.3v-10.2h4.3V127h12.7v9.2h8.4v10.2h-8.4v12.2c0 2.5 1.1 3.6 3.5 3.6 1.7 0 3.3-.5 4.8-1.2v10c-2.3 1.3-5.3 2.1-8.8 2.1-7.6-.1-12.2-3.4-12.2-12.1zM625.8 123.5h12.7v17.6c2.3-3 5.7-5.7 10.8-5.7 7.7 0 12.3 5.1 12.3 13.3v23.6h-12.7v-19.6c0-3.9-2.1-6.1-5.1-6.1-3.1 0-5.3 2.1-5.3 6.1v19.6h-12.7v-48.8zM668.1 136.1h12.7v7.3c2.1-4.9 5.4-8.2 11.4-7.9v13.4h-1.1c-6.6 0-10.4 3.8-10.4 12.2v11.2H668v-36.2zM696.7 123.5H710v9.4h-13.2v-9.4zm.3 12.6h12.7v36.1H697v-36.1zM717 123.5h12.7v48.8H717v-48.8zM737.1 123.5h12.7v48.8h-12.7v-48.8zM755.4 154.4v-.1c0-10.6 7.5-18.9 18.2-18.9 12.5 0 18.2 9.2 18.2 19.8 0 .8 0 1.7-.1 2.6h-24.2c1 3.9 3.9 5.9 7.8 5.9 3 0 5.4-1.1 8-3.7l7 5.8c-3.5 4.4-8.5 7.3-15.7 7.3-11.2 0-19.2-7.5-19.2-18.7zm24.6-3.2c-.5-4-2.8-6.5-6.3-6.5-3.3 0-5.6 2.6-6.3 6.5H780zM797.3 136.1H810v7.3c2.1-4.9 5.4-8.2 11.4-7.9v13.4h-1.1c-6.6 0-10.4 3.8-10.4 12.2v11.2h-12.7v-36.2zM821 159.2h13.2v13H821v-13z"/></svg>