<svg id="Layer_1" xmlns="http://www.w3.org/2000/svg" viewBox="0 0 160 600"><style>.st0{fill:#490a09}</style><path class="st0" d="M11 303.6h12.9v3.9h-8.4v2.7H23v3.7h-7.6v5.7H11v-16zM25.6 307.3H30v2.5c.7-1.7 1.9-2.8 3.9-2.7v4.6h-.4c-2.3 0-3.6 1.3-3.6 4.2v3.9h-4.4v-12.5zM34.3 316.1c0-2.6 2-3.9 4.9-3.9 1.1 0 2.3.2 3 .5v-.2c0-1.3-.8-2-2.5-2-1.3 0-2.3.3-3.4.7l-.9-3.1c1.4-.6 2.9-1 5-1 2.2 0 3.7.5 4.7 1.5.9.9 1.3 2.2 1.3 3.9v7.1h-4.3v-1.3c-.8.9-2 1.6-3.6 1.6-2.4 0-4.2-1.3-4.2-3.8zm7.9-.9v-.6c-.4-.2-1.1-.3-1.7-.3-1.3 0-2 .6-2 1.5 0 .8.6 1.4 1.5 1.4 1.3 0 2.2-.8 2.2-2zM48.6 307.3H53v1.7c.8-1 2-2 3.7-2 2.6 0 4.2 1.7 4.2 4.6v8.1h-4.4V313c0-1.4-.7-2.1-1.7-2.1-1.1 0-1.8.7-1.8 2.1v6.7h-4.4v-12.4zM62.7 313.5c0-3.6 2.7-6.5 6.7-6.5 2.5 0 4.2 1.1 5.3 2.8l-3 2.2c-.6-.8-1.3-1.3-2.3-1.3-1.4 0-2.4 1.2-2.4 2.8 0 1.6 1 2.8 2.5 2.8 1 0 1.7-.5 2.4-1.3l2.9 2.1c-1.1 1.7-2.8 2.8-5.5 2.8-3.9.1-6.6-2.9-6.6-6.4zM75.4 313.5c0-3.6 2.9-6.5 6.9-6.5s6.8 2.9 6.8 6.4c0 3.5-2.9 6.5-6.9 6.5-3.9.1-6.8-2.8-6.8-6.4zm9.5 0c0-1.6-1.1-2.8-2.6-2.8-1.6 0-2.6 1.3-2.6 2.8 0 1.5 1.1 2.8 2.6 2.8 1.6 0 2.6-1.3 2.6-2.8zM91 307.3h4.4v1.7c.8-1 1.9-1.9 3.8-1.9 3 0 5.5 2.5 5.5 6.4 0 4-2.5 6.5-5.5 6.5-1.9 0-3-.8-3.8-1.8v5.2H91v-16.1zm9.3 6.2c0-1.7-1.1-2.8-2.5-2.8s-2.5 1.2-2.5 2.8c0 1.7 1.1 2.8 2.5 2.8s2.5-1.2 2.5-2.8zM106.5 302.9h4.4v6c.8-1 2-2 3.7-2 2.6 0 4.2 1.7 4.2 4.6v8.1h-4.4v-6.7c0-1.4-.7-2.1-1.7-2.1-1.1 0-1.8.7-1.8 2.1v6.7h-4.4v-16.7zM121 302.9h4.5v3.2H121v-3.2zm.1 4.4h4.4v12.4h-4.4v-12.4zM128 302.9h4.4v16.8H128v-16.8zM134.3 313.5c0-3.7 2.6-6.5 6.3-6.5 4.3 0 6.3 3.1 6.3 6.8v.9h-8.3c.3 1.4 1.3 2 2.7 2 1 0 1.9-.4 2.8-1.3l2.4 2c-1.2 1.5-2.9 2.5-5.4 2.5-4.1.1-6.8-2.5-6.8-6.4zm8.4-1.1c-.2-1.4-1-2.2-2.2-2.2-1.1 0-1.9.9-2.2 2.2h4.4zM148.4 315.2h4.5v4.5h-4.5v-4.5z"/></svg>