<svg id="Layer_1" xmlns="http://www.w3.org/2000/svg" viewBox="0 0 160 600"><style>.st0{fill:#490a09}</style><path class="st0" d="M11 326.7h12.9v3.8h-8.5v2.4h7.7v3.5h-7.7v2.5H24v3.8H11v-16zM26 338.5v-8.1h4.4v6.7c0 1.4.7 2.1 1.8 2.1 1 0 1.8-.7 1.8-2.1v-6.7h4.4v12.4H34v-1.7c-.8 1-2 2-3.7 2-2.8 0-4.3-1.8-4.3-4.6zM40.6 330.4H45v2.5c.7-1.7 1.9-2.8 3.9-2.7v4.6h-.4c-2.3 0-3.6 1.3-3.6 4.2v3.9h-4.4v-12.5zM49.7 336.6c0-3.6 2.9-6.5 6.9-6.5s6.8 2.9 6.8 6.4c0 3.5-2.9 6.5-6.9 6.5-3.9.1-6.8-2.8-6.8-6.4zm9.5 0c0-1.6-1.1-2.8-2.6-2.8-1.6 0-2.6 1.3-2.6 2.8 0 1.5 1.1 2.8 2.6 2.8 1.6 0 2.6-1.3 2.6-2.8zM65.3 330.4h4.4v1.7c.8-1 1.9-1.9 3.8-1.9 3 0 5.5 2.5 5.5 6.4 0 4-2.5 6.5-5.5 6.5-1.9 0-3-.8-3.8-1.8v5.2h-4.4v-16.1zm9.3 6.2c0-1.7-1.1-2.8-2.5-2.8s-2.5 1.2-2.5 2.8c0 1.7 1.1 2.8 2.5 2.8s2.5-1.1 2.5-2.8zM80.8 326h4.4v6c.8-1 2-2 3.7-2 2.6 0 4.2 1.7 4.2 4.6v8.1h-4.4V336c0-1.4-.7-2.1-1.7-2.1-1.1 0-1.8.7-1.8 2.1v6.7h-4.4V326zM95.3 326h4.5v3.2h-4.5V326zm.1 4.4h4.4v12.4h-4.4v-12.4zM102.3 326h4.4v16.8h-4.4V326zM108.6 336.6c0-3.7 2.6-6.5 6.3-6.5 4.3 0 6.3 3.1 6.3 6.8v.9h-8.3c.3 1.4 1.3 2 2.7 2 1 0 1.9-.4 2.8-1.3l2.4 2c-1.2 1.5-2.9 2.5-5.4 2.5-4.1.1-6.8-2.5-6.8-6.4zm8.4-1.1c-.2-1.4-1-2.2-2.2-2.2-1.1 0-1.9.9-2.2 2.2h4.4zM122.7 338.3h4.5v4.5h-4.5v-4.5z"/></svg>