<svg id="Layer_1" xmlns="http://www.w3.org/2000/svg" viewBox="0 0 160 600"><style>.st0{fill:#490a09}</style><path class="st0" d="M12.5 245.5h7.2l4.3 14.2 4.7-14.3h5.9l4.7 14.3 4.3-14.2h7.1l-8.2 24.7h-5.9l-4.9-14.1-4.9 14.1h-5.9l-8.4-24.7zM49.9 260.6c0-5.6 4-10 9.6-10 6.6 0 9.6 4.8 9.6 10.4v1.4H56.3c.5 2.1 2 3.1 4.1 3.1 1.6 0 2.8-.6 4.2-1.9l3.7 3.1c-1.8 2.3-4.5 3.9-8.2 3.9-6-.1-10.2-4.1-10.2-10zm12.9-1.6c-.2-2.1-1.5-3.4-3.3-3.4-1.8 0-2.9 1.4-3.3 3.4h6.6zM13.8 279.4h6.7v9.2c1.2-1.6 3-3 5.7-3 4 0 6.5 2.7 6.5 7V305H26v-10.3c0-2.1-1.1-3.2-2.7-3.2s-2.8 1.1-2.8 3.2V305h-6.7v-25.6zM35.1 299.6c0-4 3-6 7.4-6 1.8 0 3.5.4 4.6.7v-.3c0-2-1.2-3.1-3.8-3.1-2 0-3.5.4-5.2 1.1l-1.4-4.7c2.1-.9 4.4-1.5 7.7-1.5 3.4 0 5.7.8 7.2 2.3 1.4 1.4 2 3.4 2 6V305H47v-2c-1.3 1.4-3.1 2.4-5.6 2.4-3.5 0-6.3-2-6.3-5.8zm12.1-1.5v-.9c-.7-.3-1.6-.5-2.6-.5-1.9 0-3.1.9-3.1 2.4v.1c0 1.3 1 2.1 2.4 2.1 1.9 0 3.3-1.3 3.3-3.2zM54.7 286h7l3.6 11.1L69 286h6.9l-7.6 19.1h-6.1L54.7 286zM76.2 295.6c0-5.6 4-10 9.6-10 6.6 0 9.6 4.8 9.6 10.4v1.4H82.6c.5 2.1 2 3.1 4.1 3.1 1.6 0 2.8-.6 4.2-1.9l3.7 3.1c-1.8 2.3-4.5 3.9-8.2 3.9-6-.1-10.2-4.1-10.2-10zm12.9-1.6c-.2-2.1-1.5-3.4-3.3-3.4-1.8 0-2.9 1.4-3.3 3.4h6.6z"/><g><path class="st0" d="M13.3 342.1l2.1-4.7c1.1.6 2.2 1 2.9 1 .7 0 1.1-.2 1.5-.8L12.4 319h7l3.8 11.4 3.6-11.4h6.8l-6.9 18.5c-1.6 4.4-3.4 6.2-7.2 6.2-2.4 0-4.4-.6-6.2-1.6zM34 328.6c0-5.5 4.4-10 10.5-10s10.5 4.5 10.5 9.9v.1c0 5.4-4.4 9.9-10.5 9.9S34 334 34 328.6zm14.5 0c0-2.4-1.7-4.4-4-4.4-2.4 0-4 1.9-4 4.2v.1c0 2.3 1.7 4.3 4 4.3 2.4 0 4-1.9 4-4.2zM57.6 331.5V319h6.7v10.3c0 2.1 1.1 3.2 2.7 3.2s2.8-1.1 2.8-3.2V319h6.7v19h-6.7v-2.6c-1.2 1.6-3 3-5.7 3-4.1 0-6.5-2.6-6.5-6.9zM80 319h6.7v3.8c1.1-2.6 2.8-4.3 6-4.1v7h-.6c-3.5 0-5.4 2-5.4 6.4v5.9H80v-19z"/></g><g><path class="st0" d="M20.2 357.4h-7.4v-6h21.5v6H27V376h-6.8v-18.6zM35.4 351.5H43l5.6 15.5 5.6-15.5h7.5l-10 24.7h-6.3l-10-24.7zM59.1 369.2H66v6.8h-6.9v-6.8z"/></g></svg>