<svg id="Layer_1" xmlns="http://www.w3.org/2000/svg" viewBox="0 0 160 600"><style>.st0{fill:#fff}</style><path class="st0" d="M19.8 253h-7.1v-5.8h20.9v5.8h-7.1v18h-6.6v-18zM36 246.2h6.5v9c1.2-1.5 2.9-2.9 5.5-2.9 3.9 0 6.3 2.6 6.3 6.8v12.1h-6.5v-10c0-2-1.1-3.1-2.6-3.1-1.6 0-2.7 1.1-2.7 3.1v10H36v-25zM56.9 262c0-5.4 3.8-9.7 9.3-9.7 6.4 0 9.3 4.7 9.3 10.1v1.3H63.1c.5 2 2 3 4 3 1.5 0 2.8-.6 4.1-1.9l3.6 3c-1.8 2.2-4.3 3.7-8 3.7-5.9 0-9.9-3.8-9.9-9.5zm12.5-1.6c-.2-2-1.4-3.3-3.2-3.3-1.7 0-2.9 1.3-3.2 3.3h6.4zM12.3 281.2h7l4.2 13.8 4.6-13.9h5.7l4.6 13.9 4.2-13.8h6.8l-8 24h-5.8l-4.8-13.7-4.8 13.7h-5.8l-7.9-24zM48.6 295.9c0-5.3 4.3-9.7 10.2-9.7 5.9 0 10.1 4.3 10.1 9.6v.1c0 5.2-4.3 9.6-10.2 9.6-5.9 0-10.1-4.4-10.1-9.6zm14 0c0-2.3-1.6-4.2-3.9-4.2s-3.8 1.9-3.8 4.1v.1c0 2.2 1.6 4.2 3.9 4.2 2.3-.1 3.8-2 3.8-4.2zM71.7 286.6h6.5v3.7c1.1-2.5 2.8-4.2 5.8-4v6.8h-.5c-3.4 0-5.3 1.9-5.3 6.2v5.7h-6.5v-18.4zM86.4 280.2h6.5V305h-6.5v-24.8zM95.8 295.9c0-6.1 3.7-9.7 8.1-9.7 2.8 0 4.4 1.3 5.7 2.7v-8.7h6.5V305h-6.5v-2.5c-1.3 1.5-2.9 2.9-5.6 2.9-4.5 0-8.2-3.6-8.2-9.5zm13.8-.1c0-2.5-1.7-4.2-3.7-4.2-2.1 0-3.8 1.7-3.8 4.2v.1c0 2.5 1.7 4.2 3.8 4.2 2.1-.1 3.7-1.8 3.7-4.3zM118.5 291c2.3-.2 3.5-1.4 3.4-3.2h-2.6v-6.6h6.7v5.4c0 5-2.7 6.8-7 6.9l-.5-2.5zM127.5 302.7l2.4-3.9c2.1 1.4 4.4 2.1 6.3 2.1 1.1 0 1.6-.3 1.6-1v-.1c0-.7-1-1-3-1.6-3.6-1-6.5-2.2-6.5-5.9v-.1c0-3.9 3.1-6.1 7.4-6.1 2.7 0 5.5.8 7.6 2.1l-2.2 4.1c-1.9-1.1-4-1.7-5.4-1.7-1 0-1.5.4-1.5.9v.1c0 .7 1.1 1.1 3 1.6 3.6 1 6.5 2.3 6.5 5.9v.1c0 4.1-3 6.2-7.5 6.2-3.1 0-6.2-.9-8.7-2.7z"/><g><path class="st0" d="M13.9 315.1h12.2c3 0 5.1.7 6.5 2.1 1 1 1.5 2.2 1.5 3.8v.1c0 2.8-1.6 4.4-3.7 5.3 2.9 1 4.7 2.6 4.7 5.8v.1c0 4.1-3.3 6.6-9 6.6H13.9v-23.8zm10.6 9.5c2 0 3.1-.7 3.1-2.1v-.1c0-1.3-1-2-3-2h-4.3v4.2h4.2zm1 9.1c2 0 3.2-.8 3.2-2.2v-.1c0-1.3-1-2.1-3.2-2.1h-5v4.4h5zM37.1 329.8c0-5.4 3.8-9.7 9.3-9.7 6.4 0 9.3 4.7 9.3 10.1v1.3H43.4c.5 2 2 3 4 3 1.5 0 2.8-.6 4.1-1.9l3.6 3c-1.8 2.2-4.3 3.7-8 3.7-5.9.1-10-3.7-10-9.5zm12.6-1.6c-.2-2-1.4-3.3-3.2-3.3-1.7 0-2.9 1.3-3.2 3.3h6.4zM57.1 336.6l2.4-3.9c2.1 1.4 4.4 2.1 6.3 2.1 1.1 0 1.6-.3 1.6-1v-.1c0-.7-1-1-3-1.6-3.6-1-6.5-2.2-6.5-5.9v-.1c0-3.9 3.1-6.1 7.4-6.1 2.7 0 5.5.8 7.6 2.1l-2.2 4.1c-1.9-1.1-4-1.7-5.4-1.7-1 0-1.5.4-1.5.9v.1c0 .7 1.1 1.1 3 1.6 3.6 1 6.5 2.3 6.5 5.9v.1c0 4.1-3 6.2-7.5 6.2-3.1.1-6.2-.8-8.7-2.7zM76.8 333.2v-7.5h-2.2v-5.2h2.2v-4.7h6.5v4.7h4.3v5.2h-4.3v6.2c0 1.3.6 1.8 1.8 1.8.9 0 1.7-.2 2.5-.6v5.1c-1.2.6-2.7 1.1-4.5 1.1-4 0-6.3-1.7-6.3-6.1zM106 320.9h-7.1v-5.8h20.9v5.8h-7.1v18H106v-18zM120.7 315.1h7.4l5.4 15.1 5.4-15.1h7.3l-9.7 24h-6.1l-9.7-24z"/></g><g><path class="st0" d="M13.7 348.1h6.5V373h-6.5v-24.9zM23.8 348.1h6.7v4.8h-6.7v-4.8zm.1 6.4h6.5v18.4h-6.5v-18.4zM32.6 354.5h6.8l3.5 10.8 3.5-10.8h6.7L45.8 373h-5.9l-7.3-18.5zM53.4 363.8c0-5.4 3.8-9.7 9.3-9.7 6.4 0 9.3 4.7 9.3 10.1v1.3H59.6c.5 2 2 3 4 3 1.5 0 2.8-.6 4.1-1.9l3.6 3c-1.8 2.2-4.3 3.7-8 3.7-5.8 0-9.9-3.8-9.9-9.5zm12.5-1.6c-.2-2-1.4-3.3-3.2-3.3-1.7 0-2.9 1.3-3.2 3.3h6.4zM73.4 370.6l2.4-3.9c2.1 1.4 4.4 2.1 6.3 2.1 1.1 0 1.6-.3 1.6-1v-.1c0-.7-1-1-3-1.6-3.6-1-6.5-2.2-6.5-5.9v-.1c0-3.9 3.1-6.1 7.4-6.1 2.7 0 5.5.8 7.6 2.1l-2.2 4.1c-1.9-1.1-4-1.7-5.4-1.7-1 0-1.5.4-1.5.9v.1c0 .7 1.1 1.1 3 1.6 3.6 1 6.5 2.3 6.5 5.9v.1c0 4.1-3 6.2-7.5 6.2-3.1 0-6.2-.9-8.7-2.7z"/></g><g><path class="st0" d="M13.6 382H20v9c1.2-1.5 2.9-2.9 5.5-2.9 3.9 0 6.3 2.6 6.3 6.8V407h-6.5v-10c0-2-1.1-3.1-2.6-3.1-1.6 0-2.7 1.1-2.7 3.1v10h-6.5v-25zM34.4 397.7c0-5.4 3.8-9.7 9.3-9.7 6.4 0 9.3 4.7 9.3 10.1v1.3H40.6c.5 2 2 3 4 3 1.5 0 2.8-.6 4.1-1.9l3.6 3c-1.8 2.2-4.3 3.7-8 3.7-5.8.1-9.9-3.8-9.9-9.5zm12.5-1.6c-.2-2-1.4-3.3-3.2-3.3-1.7 0-2.9 1.3-3.2 3.3h6.4zM55.7 388.4h6.5v3.7c1.1-2.5 2.8-4.2 5.8-4v6.8h-.5c-3.4 0-5.3 1.9-5.3 6.2v5.7h-6.5v-18.4zM69.2 397.7c0-5.4 3.8-9.7 9.3-9.7 6.4 0 9.3 4.7 9.3 10.1v1.3H75.5c.5 2 2 3 4 3 1.5 0 2.8-.6 4.1-1.9l3.6 3c-1.8 2.2-4.3 3.7-8 3.7-5.9.1-10-3.8-10-9.5zm12.6-1.6c-.2-2-1.4-3.3-3.2-3.3-1.7 0-2.9 1.3-3.2 3.3h6.4zM90.2 400.2h6.7v6.6h-6.7v-6.6z"/></g></svg>