<svg id="Layer_1" xmlns="http://www.w3.org/2000/svg" viewBox="0 0 160 600"><style>.st0{fill:#490a09}</style><path class="st0" d="M11.1 280.5h4.5v16.1h-4.5v-16.1zM19 292.7v-5h-1.5v-3.5H19V281h4.4v3.1h2.9v3.5h-2.9v4.2c0 .9.4 1.2 1.2 1.2.6 0 1.1-.2 1.7-.4v3.4c-.8.4-1.8.7-3 .7-2.7.1-4.3-1-4.3-4zM27.5 293c0-2.6 2-3.9 4.9-3.9 1.1 0 2.3.2 3 .5v-.2c0-1.3-.8-2-2.5-2-1.3 0-2.3.3-3.4.7l-.9-3.1c1.4-.6 2.9-1 5-1 2.2 0 3.7.5 4.7 1.5.9.9 1.3 2.2 1.3 3.9v7.1h-4.3v-1.3c-.8.9-2 1.6-3.6 1.6-2.4 0-4.2-1.3-4.2-3.8zm7.9-.9v-.6c-.4-.2-1.1-.3-1.7-.3-1.3 0-2 .6-2 1.5 0 .8.6 1.4 1.5 1.4 1.3 0 2.2-.8 2.2-2zM42 279.8h4.4v16.8H42v-16.8zM48.3 290.4c0-3.6 2.9-6.5 6.9-6.5s6.8 2.9 6.8 6.4c0 3.5-2.9 6.5-6.9 6.5-4 .1-6.8-2.9-6.8-6.4zm9.4 0c0-1.6-1.1-2.8-2.6-2.8-1.6 0-2.6 1.3-2.6 2.8 0 1.5 1.1 2.8 2.6 2.8 1.6 0 2.6-1.3 2.6-2.8zM63.8 284.1h4.4v1.7c.8-1 1.9-1.9 3.8-1.9 3 0 5.5 2.5 5.5 6.4 0 4-2.5 6.5-5.5 6.5-1.9 0-3-.8-3.8-1.8v5.2h-4.4v-16.1zm9.4 6.3c0-1.7-1.1-2.8-2.5-2.8s-2.5 1.2-2.5 2.8c0 1.7 1.1 2.8 2.5 2.8 1.3 0 2.5-1.2 2.5-2.8zM79.3 279.8h4.4v6c.8-1 2-2 3.7-2 2.6 0 4.2 1.7 4.2 4.6v8.1h-4.4v-6.7c0-1.4-.7-2.1-1.7-2.1-1.1 0-1.8.7-1.8 2.1v6.7h-4.4v-16.7zM93.9 279.8h4.5v3.2h-4.5v-3.2zm.1 4.3h4.4v12.4H94v-12.4zM100.9 279.8h4.4v16.8h-4.4v-16.8zM107.1 290.4c0-3.7 2.6-6.5 6.3-6.5 4.3 0 6.3 3.1 6.3 6.8v.9h-8.3c.3 1.4 1.3 2 2.7 2 1 0 1.9-.4 2.8-1.3l2.4 2c-1.2 1.5-2.9 2.5-5.4 2.5-4 .1-6.8-2.5-6.8-6.4zm8.5-1.1c-.2-1.4-1-2.2-2.2-2.2-1.1 0-1.9.9-2.2 2.2h4.4zM121.3 292.1h4.5v4.5h-4.5v-4.5z"/></svg>