<?xml version="1.0" encoding="utf-8"?>
<!-- Generator: Adobe Illustrator 25.4.1, SVG Export Plug-In . SVG Version: 6.00 Build 0)  -->
<svg version="1.1" id="Layer_1" xmlns="http://www.w3.org/2000/svg" xmlns:xlink="http://www.w3.org/1999/xlink" x="0px" y="0px"
	 viewBox="0 0 728 90" style="enable-background:new 0 0 728 90;" xml:space="preserve">
<style type="text/css">
	.st0{fill:#490A09;}
</style>
<g>
	<path class="st0" d="M68.3,71.6l3.8-4.5c2.4,1.9,5.1,2.9,7.9,2.9c1.8,0,2.8-0.6,2.8-1.7v-0.1c0-1-0.8-1.6-4.1-2.3
		c-5.2-1.2-9.2-2.7-9.2-7.7v-0.1c0-4.5,3.6-7.8,9.5-7.8c4.2,0,7.4,1.1,10.1,3.3l-3.4,4.8C83.4,56.8,81,56,78.8,56
		c-1.6,0-2.5,0.7-2.5,1.6v0.1c0,1.1,0.8,1.6,4.2,2.4c5.6,1.2,9.1,3,9.1,7.6v0.1c0,5-4,8-9.9,8C75.5,75.7,71.3,74.3,68.3,71.6z"/>
	<path class="st0" d="M91.8,65.9L91.8,65.9c0-5.6,4-10,9.6-10c6.5,0,9.6,4.8,9.6,10.4c0,0.4,0,0.9,0,1.4H98.2c0.5,2.1,2,3.1,4.1,3.1
		c1.6,0,2.8-0.6,4.2-1.9l3.7,3c-1.8,2.3-4.4,3.9-8.2,3.9C96,75.7,91.8,71.8,91.8,65.9z M104.7,64.2c-0.2-2.1-1.5-3.4-3.3-3.4
		c-1.8,0-2.9,1.4-3.3,3.4H104.7z"/>
	<path class="st0" d="M112.8,69.8L112.8,69.8c0-4,3-6,7.4-6c1.8,0,3.5,0.4,4.6,0.7v-0.3c0-2-1.2-3.1-3.8-3.1c-2,0-3.5,0.4-5.2,1
		l-1.4-4.7c2.1-0.9,4.4-1.5,7.7-1.5c3.4,0,5.7,0.8,7.2,2.3c1.4,1.4,2,3.4,2,6v10.9h-6.6v-2c-1.3,1.4-3.1,2.4-5.6,2.4
		C115.6,75.7,112.8,73.6,112.8,69.8z M124.9,68.4v-0.9c-0.7-0.3-1.6-0.5-2.6-0.5c-1.9,0-3,0.9-3,2.3v0.1c0,1.3,1,2.1,2.3,2.1
		C123.5,71.5,124.9,70.3,124.9,68.4z"/>
	<path class="st0" d="M133.3,72.9l2.5-4c2.2,1.4,4.6,2.2,6.5,2.2c1.2,0,1.7-0.4,1.7-1v-0.1c0-0.7-1.1-1.1-3-1.6
		c-3.7-1-6.7-2.2-6.7-6.1v-0.1c0-4,3.2-6.3,7.6-6.3c2.8,0,5.6,0.8,7.8,2.2l-2.3,4.2c-2-1.1-4.1-1.8-5.6-1.8c-1,0-1.5,0.4-1.5,0.9
		v0.1c0,0.7,1.1,1.1,3.1,1.7c3.7,1,6.7,2.3,6.7,6v0.1c0,4.2-3.1,6.3-7.7,6.3C139.1,75.7,135.9,74.8,133.3,72.9z"/>
	<path class="st0" d="M152,65.9L152,65.9c0-5.5,4.4-10,10.5-10c6.1,0,10.4,4.4,10.4,9.8v0.1c0,5.4-4.4,9.9-10.5,9.9
		C156.3,75.7,152,71.3,152,65.9z M166.4,65.9L166.4,65.9c0-2.4-1.7-4.3-4-4.3c-2.4,0-4,1.9-4,4.2v0.1c0,2.3,1.7,4.3,4,4.3
		C164.9,70.1,166.4,68.2,166.4,65.9z"/>
	<path class="st0" d="M175.7,56.3h6.7V59c1.2-1.6,3-3.1,5.7-3.1c4,0,6.4,2.7,6.4,7v12.4h-6.7V65c0-2.1-1.1-3.2-2.7-3.2
		c-1.6,0-2.8,1.1-2.8,3.2v10.3h-6.7V56.3z"/>
	<path class="st0" d="M211.5,56.9l-4.1,0.9l-1.3-5.3l7.2-2h4.9v24.7h-6.7V56.9z"/>
	<path class="st0" d="M233.2,61.7H231v-5.2h2.2V56c0-2.2,0.5-3.8,1.6-4.9c1.2-1.2,2.7-1.6,4.9-1.6c2,0,3.3,0.2,4.3,0.5v4.7
		c-0.8-0.2-1.5-0.4-2.5-0.4c-1.2,0-1.9,0.6-1.9,1.8v0.5h4.3v5.1h-4.2v13.6h-6.6V61.7z"/>
	<path class="st0" d="M246.2,56.3h6.7v3.8c1.1-2.6,2.8-4.3,6-4.1v7h-0.6c-3.5,0-5.4,2-5.4,6.4v5.9h-6.7V56.3z"/>
	<path class="st0" d="M260,65.9L260,65.9c0-5.6,4-10,9.6-10c6.5,0,9.6,4.8,9.6,10.4c0,0.4,0,0.9,0,1.4h-12.7c0.5,2.1,2,3.1,4.1,3.1
		c1.6,0,2.8-0.6,4.2-1.9l3.7,3c-1.8,2.3-4.4,3.9-8.2,3.9C264.2,75.7,260,71.8,260,65.9z M272.9,64.2c-0.2-2.1-1.5-3.4-3.3-3.4
		c-1.8,0-2.9,1.4-3.3,3.4H272.9z"/>
	<path class="st0" d="M281.2,65.9L281.2,65.9c0-5.6,4-10,9.6-10c6.5,0,9.6,4.8,9.6,10.4c0,0.4,0,0.9,0,1.4h-12.7
		c0.5,2.1,2,3.1,4.1,3.1c1.6,0,2.8-0.6,4.2-1.9l3.7,3c-1.8,2.3-4.4,3.9-8.2,3.9C285.4,75.7,281.2,71.8,281.2,65.9z M294.1,64.2
		c-0.2-2.1-1.5-3.4-3.3-3.4c-1.8,0-2.9,1.4-3.3,3.4H294.1z"/>
	<path class="st0" d="M312.1,65.9L312.1,65.9c0-5.5,4.4-10,10.5-10c6.1,0,10.4,4.4,10.4,9.8v0.1c0,5.4-4.4,9.9-10.5,9.9
		C316.5,75.7,312.1,71.3,312.1,65.9z M326.5,65.9L326.5,65.9c0-2.4-1.7-4.3-4-4.3c-2.4,0-4,1.9-4,4.2v0.1c0,2.3,1.7,4.3,4,4.3
		C325,70.1,326.5,68.2,326.5,65.9z"/>
	<path class="st0" d="M335.8,56.3h6.7V59c1.2-1.6,3-3.1,5.7-3.1c4,0,6.4,2.7,6.4,7v12.4h-6.7V65c0-2.1-1.1-3.2-2.7-3.2
		c-1.6,0-2.8,1.1-2.8,3.2v10.3h-6.7V56.3z"/>
	<path class="st0" d="M368.1,50.8h7.2l5.8,9.5l5.8-9.5h7.2v24.5h-6.8V61.2l-6.3,9.6H381l-6.2-9.5v14h-6.7V50.8z"/>
	<path class="st0" d="M398.5,50.8h6.8v9.2h8.7v-9.2h6.8v24.5H414V66h-8.7v9.3h-6.8V50.8z"/>
	<path class="st0" d="M424.1,70.9l8.8-9.3h-8.4v-5.3h17.3v4.4l-8.8,9.3h8.8v5.3h-17.6V70.9z"/>
	<path class="st0" d="M453.7,63.1L453.7,63.1c0-7.2,5.5-12.8,12.9-12.8c5,0,8.2,2.1,10.4,5.1l-5.1,4c-1.4-1.8-3-2.9-5.4-2.9
		c-3.4,0-5.8,2.9-5.8,6.5V63c0,3.7,2.4,6.5,5.8,6.5c2.6,0,4.1-1.2,5.5-3l5.1,3.6c-2.3,3.2-5.4,5.5-10.9,5.5
		C459.3,75.8,453.7,70.4,453.7,63.1z"/>
	<path class="st0" d="M479.7,49.7h6.7v9.2c1.2-1.6,3-3,5.7-3c4,0,6.4,2.7,6.4,7v12.4h-6.7V65c0-2.1-1.1-3.2-2.7-3.2
		c-1.6,0-2.8,1.1-2.8,3.2v10.3h-6.7V49.7z"/>
	<path class="st0" d="M501.1,65.9L501.1,65.9c0-5.5,4.4-10,10.5-10c6.1,0,10.4,4.4,10.4,9.8v0.1c0,5.4-4.4,9.9-10.5,9.9
		C505.5,75.7,501.1,71.3,501.1,65.9z M515.5,65.9L515.5,65.9c0-2.4-1.7-4.3-4-4.3c-2.4,0-4,1.9-4,4.2v0.1c0,2.3,1.7,4.3,4,4.3
		C514,70.1,515.5,68.2,515.5,65.9z"/>
	<path class="st0" d="M524.8,49.7h6.9v4.9h-6.9V49.7z M525,56.3h6.7v18.9H525V56.3z"/>
	<path class="st0" d="M534.5,65.9L534.5,65.9c0-5.4,4.2-9.9,10.2-9.9c3.9,0,6.5,1.7,8.1,4.2l-4.5,3.4c-0.9-1.3-1.9-2-3.5-2
		c-2.1,0-3.7,1.9-3.7,4.2v0.1c0,2.5,1.5,4.3,3.8,4.3c1.6,0,2.6-0.7,3.6-2l4.4,3.2c-1.8,2.6-4.3,4.3-8.4,4.3
		C538.7,75.7,534.5,71.2,534.5,65.9z"/>
	<path class="st0" d="M554,65.9L554,65.9c0-5.6,4-10,9.6-10c6.5,0,9.6,4.8,9.6,10.4c0,0.4,0,0.9,0,1.4h-12.7c0.5,2.1,2,3.1,4.1,3.1
		c1.6,0,2.8-0.6,4.2-1.9l3.7,3c-1.8,2.3-4.4,3.9-8.2,3.9C558.2,75.7,554,71.8,554,65.9z M566.8,64.2c-0.2-2.1-1.5-3.4-3.3-3.4
		c-1.8,0-2.9,1.4-3.3,3.4H566.8z"/>
	<path class="st0" d="M575.5,68.4h6.9v6.8h-6.9V68.4z"/>
</g>
</svg>
