<?xml version="1.0" encoding="utf-8"?>
<!-- Generator: Adobe Illustrator 25.4.1, SVG Export Plug-In . SVG Version: 6.00 Build 0)  -->
<svg version="1.1" id="Layer_1" xmlns="http://www.w3.org/2000/svg" xmlns:xlink="http://www.w3.org/1999/xlink" x="0px" y="0px"
	 viewBox="0 0 728 90" style="enable-background:new 0 0 728 90;" xml:space="preserve">
<style type="text/css">
	.st0{fill:#490A09;}
</style>
<g>
	<path class="st0" d="M80.7,30.2h7.7l12.2,28.9h-8.5L90,54H78.9l-2.1,5.1h-8.4L80.7,30.2z M87.7,47.8l-3.2-8.2l-3.2,8.2H87.7z"/>
	<path class="st0" d="M122.1,56.4v2.7h-7.8V29.2h7.8v10.7c1.5-1.8,3.4-3.4,6.7-3.4c5.3,0,9.8,4.4,9.8,11.5V48
		c0,7.2-4.6,11.6-9.8,11.6C125.5,59.6,123.5,58.1,122.1,56.4z M131,48L131,48c0-3-2-5.1-4.6-5.1c-2.5,0-4.5,2.1-4.5,5V48
		c0,3,2,5,4.5,5C129,53.1,131,51,131,48z"/>
	<path class="st0" d="M142,36.9h7.8v4.5c1.3-3,3.3-5,7-4.8v8.2h-0.7c-4.1,0-6.4,2.3-6.4,7.5v6.9H142V36.9z"/>
	<path class="st0" d="M159.6,29.2h8.1v5.7h-8.1V29.2z M159.8,36.9h7.8v22.2h-7.8V36.9z"/>
	<path class="st0" d="M172.1,29.2h7.8v29.9h-7.8V29.2z"/>
	<path class="st0" d="M184.4,29.2h7.8v29.9h-7.8V29.2z"/>
	<path class="st0" d="M196.5,29.2h8.1v5.7h-8.1V29.2z M196.7,36.9h7.8v22.2h-7.8V36.9z"/>
	<path class="st0" d="M207.7,52.8L207.7,52.8c0-4.7,3.5-7.1,8.7-7.1c2.1,0,4.1,0.4,5.3,0.9v-0.4c0-2.3-1.4-3.6-4.4-3.6
		c-2.3,0-4.1,0.5-6.1,1.2l-1.6-5.5c2.5-1,5.2-1.7,9-1.7c4,0,6.7,0.9,8.4,2.7c1.7,1.6,2.4,3.9,2.4,7.1v12.8h-7.7v-2.3
		c-1.5,1.7-3.6,2.8-6.5,2.8C210.9,59.6,207.7,57.2,207.7,52.8z M221.8,51.1v-1c-0.8-0.3-1.9-0.6-3-0.6c-2.3,0-3.6,1.1-3.6,2.7v0.1
		c0,1.5,1.1,2.4,2.7,2.4C220.2,54.7,221.8,53.3,221.8,51.1z"/>
	<path class="st0" d="M233.4,36.9h7.8v3.1c1.4-1.8,3.5-3.6,6.6-3.6c4.7,0,7.5,3.1,7.5,8.2v14.5h-7.8v-12c0-2.4-1.3-3.7-3.1-3.7
		c-1.9,0-3.3,1.3-3.3,3.7v12h-7.8V36.9z"/>
	<path class="st0" d="M260.7,52.2v-9h-2.6v-6.3h2.6v-5.6h7.8v5.6h5.2v6.3h-5.2v7.5c0,1.6,0.7,2.2,2.1,2.2c1,0,2-0.3,3-0.7v6.1
		c-1.4,0.8-3.2,1.3-5.4,1.3C263.5,59.6,260.7,57.5,260.7,52.2z"/>
	<path class="st0" d="M277.2,29.2h7.8v29.9h-7.8V29.2z"/>
	<path class="st0" d="M288.8,63.9l2.4-5.5c1.2,0.7,2.5,1.2,3.4,1.2c0.8,0,1.3-0.2,1.8-0.9l-8.7-21.8h8.2l4.4,13.4l4.2-13.4h8
		l-8.1,21.7c-1.9,5.2-4,7.2-8.4,7.2C293.2,65.8,290.8,65,288.8,63.9z"/>
	<path class="st0" d="M327.8,43.2h-2.6v-6.1h2.6v-0.5c0-2.5,0.6-4.4,1.9-5.7c1.4-1.4,3.2-1.9,5.8-1.9c2.4,0,3.9,0.2,5.1,0.6V35
		c-0.9-0.3-1.8-0.5-2.9-0.5c-1.4,0-2.2,0.7-2.2,2.1v0.5h5.1v6h-5v16h-7.8V43.2z"/>
	<path class="st0" d="M342.8,51.5V36.9h7.8v12c0,2.4,1.3,3.7,3.2,3.7c1.8,0,3.2-1.3,3.2-3.7v-12h7.8v22.2H357v-3
		c-1.4,1.8-3.5,3.5-6.6,3.5C345.6,59.6,342.8,56.5,342.8,51.5z"/>
	<path class="st0" d="M368.9,36.9h7.8v3.1c1.4-1.8,3.5-3.6,6.6-3.6c4.7,0,7.5,3.1,7.5,8.2v14.5h-7.8v-12c0-2.4-1.3-3.7-3.1-3.7
		c-1.9,0-3.3,1.3-3.3,3.7v12h-7.8V36.9z"/>
	<path class="st0" d="M394.9,36.9h7.8v3.1c1.4-1.8,3.5-3.6,6.6-3.6c4.7,0,7.5,3.1,7.5,8.2v14.5h-7.8v-12c0-2.4-1.3-3.7-3.1-3.7
		c-1.9,0-3.3,1.3-3.3,3.7v12h-7.8V36.9z"/>
	<path class="st0" d="M419.8,63.9l2.4-5.5c1.2,0.7,2.5,1.2,3.4,1.2c0.8,0,1.3-0.2,1.8-0.9l-8.7-21.8h8.2l4.4,13.4l4.2-13.4h8
		l-8.1,21.7c-1.9,5.2-4,7.2-8.4,7.2C424.2,65.8,421.8,65,419.8,63.9z"/>
	<path class="st0" d="M457.4,36.9h7.8v3c1.5-1.8,3.4-3.4,6.7-3.4c5.3,0,9.8,4.4,9.8,11.5V48c0,7.2-4.6,11.6-9.8,11.6
		c-3.4,0-5.3-1.5-6.8-3.2v9.3h-7.8V36.9z M474.1,48L474.1,48c0-3-2-5.1-4.6-5.1c-2.5,0-4.5,2.1-4.5,5V48c0,3,2,5,4.5,5
		C472.1,53.1,474.1,51,474.1,48z"/>
	<path class="st0" d="M485.1,36.9h7.8v4.5c1.3-3,3.3-5,7-4.8v8.2h-0.7c-4.1,0-6.4,2.3-6.4,7.5v6.9h-7.8V36.9z"/>
	<path class="st0" d="M501.4,48.1L501.4,48.1c0-6.4,5.2-11.7,12.3-11.7c7.1,0,12.2,5.2,12.2,11.5V48c0,6.3-5.2,11.6-12.3,11.6
		C506.5,59.7,501.4,54.4,501.4,48.1z M518.3,48.1L518.3,48.1c0-2.8-2-5.1-4.7-5.1c-2.8,0-4.6,2.3-4.6,4.9V48c0,2.7,2,5,4.7,5
		C516.5,53.1,518.3,50.8,518.3,48.1z"/>
	<path class="st0" d="M527.5,56.3l2.9-4.7c2.5,1.7,5.3,2.5,7.6,2.5c1.4,0,2-0.4,2-1.2v-0.1c0-0.9-1.2-1.2-3.6-1.9
		c-4.4-1.1-7.9-2.6-7.9-7.1v-0.1c0-4.7,3.8-7.3,8.9-7.3c3.2,0,6.6,0.9,9.1,2.6l-2.7,4.9c-2.3-1.3-4.8-2.1-6.6-2.1
		c-1.2,0-1.8,0.5-1.8,1.1v0.1c0,0.9,1.3,1.3,3.6,2c4.4,1.2,7.9,2.7,7.9,7.1v0.1c0,4.9-3.7,7.4-9.1,7.4
		C534.2,59.6,530.6,58.5,527.5,56.3z"/>
	<path class="st0" d="M549.3,48.1L549.3,48.1c0-6.6,4.6-11.7,11.2-11.7c7.7,0,11.2,5.6,11.2,12.1c0,0.5,0,1.1,0,1.6h-14.8
		c0.6,2.4,2.4,3.7,4.8,3.7c1.8,0,3.3-0.7,4.9-2.3l4.3,3.6c-2.1,2.7-5.2,4.5-9.6,4.5C554.3,59.7,549.3,55,549.3,48.1z M564.4,46.2
		c-0.3-2.5-1.7-4-3.9-4c-2.1,0-3.4,1.6-3.9,4H564.4z"/>
	<path class="st0" d="M574.1,48.1L574.1,48.1c0-6.4,4.9-11.6,11.9-11.6c4.6,0,7.6,2,9.5,5l-5.3,3.9c-1.1-1.5-2.3-2.3-4.1-2.3
		c-2.5,0-4.3,2.2-4.3,4.9V48c0,2.9,1.8,5,4.4,5c1.8,0,3-0.9,4.3-2.3l5.2,3.8c-2.1,3-5,5.1-9.9,5.1C579.1,59.7,574.1,54.4,574.1,48.1
		z"/>
	<path class="st0" d="M598.2,51.5V36.9h7.8v12c0,2.4,1.3,3.7,3.2,3.7c1.8,0,3.2-1.3,3.2-3.7v-12h7.8v22.2h-7.8v-3
		c-1.4,1.8-3.5,3.5-6.6,3.5C601,59.6,598.2,56.5,598.2,51.5z"/>
	<path class="st0" d="M625.7,52.2v-9h-2.6v-6.3h2.6v-5.6h7.8v5.6h5.2v6.3h-5.2v7.5c0,1.6,0.7,2.2,2.1,2.2c1,0,2-0.3,3-0.7v6.1
		c-1.4,0.8-3.2,1.3-5.4,1.3C628.5,59.6,625.7,57.5,625.7,52.2z"/>
	<path class="st0" d="M640.6,48.1L640.6,48.1c0-6.4,5.2-11.7,12.3-11.7c7.1,0,12.2,5.2,12.2,11.5V48c0,6.3-5.2,11.6-12.3,11.6
		C645.7,59.7,640.6,54.4,640.6,48.1z M657.5,48.1L657.5,48.1c0-2.8-2-5.1-4.7-5.1c-2.8,0-4.6,2.3-4.6,4.9V48c0,2.7,2,5,4.7,5
		C655.7,53.1,657.5,50.8,657.5,48.1z"/>
	<path class="st0" d="M668.4,36.9h7.8v4.5c1.3-3,3.3-5,7-4.8v8.2h-0.7c-4.1,0-6.4,2.3-6.4,7.5v6.9h-7.8V36.9z"/>
	<path class="st0" d="M683,51.1h8.1v8H683V51.1z"/>
</g>
</svg>
