<?xml version="1.0" encoding="utf-8"?>
<!-- Generator: Adobe Illustrator 25.4.1, SVG Export Plug-In . SVG Version: 6.00 Build 0)  -->
<svg version="1.1" id="Layer_1" xmlns="http://www.w3.org/2000/svg" xmlns:xlink="http://www.w3.org/1999/xlink" x="0px" y="0px"
	 viewBox="0 0 728 90" style="enable-background:new 0 0 728 90;" xml:space="preserve">
<style type="text/css">
	.st0{fill:#490A09;}
</style>
<g>
	<path class="st0" d="M75.1,15h7.6l-7.3,27.3h-7.6L75.1,15z"/>
	<path class="st0" d="M85.5,21.2h7.4l-0.6,2.3c1.4-1.5,3.4-2.8,5.9-2.8c2.9,0,4.7,1.5,5.5,3.7c2-2.3,4.6-3.7,7.6-3.7
		c4,0,6.2,2.4,6.2,6.3c0,1.1-0.3,2.5-0.6,3.8l-3.1,11.5h-7.4l2.9-11c0.2-0.5,0.3-1.2,0.3-1.7c0-1.4-0.7-2.2-2.3-2.2
		c-2,0-3.2,1.4-3.9,3.8l-3,11.2h-7.4l3-11c0.2-0.5,0.3-1.2,0.3-1.7c0-1.4-0.7-2.2-2.3-2.2c-2,0-3.2,1.4-3.9,3.8l-3,11.2h-7.4
		L85.5,21.2z"/>
	<path class="st0" d="M123.3,21.2h7.4l-0.6,2.3c1.4-1.5,3.4-2.8,5.9-2.8c2.9,0,4.7,1.5,5.5,3.7c2-2.3,4.6-3.7,7.6-3.7
		c4,0,6.2,2.4,6.2,6.3c0,1.1-0.3,2.5-0.6,3.8l-3.1,11.5h-7.4l2.9-11c0.2-0.5,0.3-1.2,0.3-1.7c0-1.4-0.7-2.2-2.3-2.2
		c-2,0-3.2,1.4-3.9,3.8l-3,11.2h-7.4l3-11c0.2-0.5,0.3-1.2,0.3-1.7c0-1.4-0.7-2.2-2.3-2.2c-2,0-3.2,1.4-3.9,3.8l-3,11.2h-7.4
		L123.3,21.2z"/>
	<path class="st0" d="M156.3,37c0-4.6,3.7-7.5,9.3-7.5c1.9,0,3.7,0.3,5.3,0.8l0.1-0.3c0.1-0.4,0.2-0.8,0.2-1.3
		c0-1.4-1.1-2.3-3.6-2.3c-2,0-4.2,0.5-5.7,1.1l-1.1-5.4c2.2-0.8,5.3-1.3,8.3-1.3c6.3,0,9.4,2.5,9.4,6.7c0,1-0.2,2-0.4,3l-3.1,11.6
		h-7.3l0.6-2.3c-1.8,1.7-3.6,2.7-6.1,2.7C158.7,42.7,156.3,40.5,156.3,37z M169.9,34.3l0.2-0.7c-0.8-0.3-1.8-0.5-2.8-0.5
		c-2.3,0-3.9,1.1-3.9,3c0,1.2,0.9,2,2.1,2C167.5,38.1,169.3,36.5,169.9,34.3z"/>
	<path class="st0" d="M201.8,21.6h-8.2l1.8-6.6h23.9l-1.8,6.6h-8.2l-5.5,20.7h-7.6L201.8,21.6z"/>
	<path class="st0" d="M213.4,37c0-4.6,3.7-7.5,9.3-7.5c1.9,0,3.7,0.3,5.3,0.8l0.1-0.3c0.1-0.4,0.2-0.8,0.2-1.3
		c0-1.4-1.1-2.3-3.6-2.3c-2,0-4.2,0.5-5.7,1.1l-1.1-5.4c2.2-0.8,5.3-1.3,8.3-1.3c6.3,0,9.4,2.5,9.4,6.7c0,1-0.2,2-0.4,3l-3.1,11.6
		h-7.3l0.6-2.3c-1.8,1.7-3.6,2.7-6.1,2.7C215.8,42.7,213.4,40.5,213.4,37z M227.1,34.3l0.2-0.7c-0.8-0.3-1.8-0.5-2.8-0.5
		c-2.3,0-3.9,1.1-3.9,3c0,1.2,0.9,2,2.1,2C224.7,38.1,226.5,36.5,227.1,34.3z"/>
	<path class="st0" d="M238.4,37.7c0-0.9,0.2-1.8,0.4-2.8l2.1-7.8h-2.5l1.6-6h2.5l1.4-5.3h7.4l-1.4,5.3h4.9l-1.6,6h-4.9l-1.8,6.6
		c-0.1,0.5-0.2,1-0.2,1.3c0,0.9,0.5,1.3,1.7,1.3c0.8,0,1.7-0.2,2.8-0.6l-1.6,6.2c-1.3,0.5-2.8,0.7-4.4,0.7
		C240.5,42.7,238.4,40.8,238.4,37.7z"/>
	<path class="st0" d="M255.1,37.7c0-0.9,0.2-1.8,0.4-2.8l2.1-7.8h-2.5l1.6-6h2.5l1.4-5.3h7.4l-1.4,5.3h4.9l-1.6,6H265l-1.8,6.6
		c-0.1,0.5-0.2,1-0.2,1.3c0,0.9,0.5,1.3,1.7,1.3c0.8,0,1.7-0.2,2.8-0.6l-1.6,6.2c-1.3,0.5-2.8,0.7-4.4,0.7
		C257.2,42.7,255.1,40.8,255.1,37.7z"/>
	<path class="st0" d="M270,37c0-4.6,3.7-7.5,9.3-7.5c1.9,0,3.7,0.3,5.3,0.8l0.1-0.3c0.1-0.4,0.2-0.8,0.2-1.3c0-1.4-1.1-2.3-3.6-2.3
		c-2,0-4.2,0.5-5.7,1.1l-1.1-5.4c2.2-0.8,5.3-1.3,8.3-1.3c6.3,0,9.4,2.5,9.4,6.7c0,1-0.2,2-0.4,3l-3.1,11.6h-7.3L282,40
		c-1.8,1.7-3.6,2.7-6.1,2.7C272.4,42.7,270,40.5,270,37z M283.7,34.3l0.2-0.7c-0.8-0.3-1.8-0.5-2.8-0.5c-2.3,0-3.9,1.1-3.9,3
		c0,1.2,0.9,2,2.1,2C281.2,38.1,283.1,36.5,283.7,34.3z"/>
	<path class="st0" d="M298.1,21.2h7.4l-1.1,4.3c2-3,4.5-4.8,7.9-4.6l-2.1,7.8h-0.6c-4.1,0-6.7,2.3-8,7.3l-1.7,6.4h-7.4L298.1,21.2z"
		/>
	<path class="st0" d="M309.4,37c0-4.6,3.7-7.5,9.3-7.5c1.9,0,3.7,0.3,5.3,0.8l0.1-0.3c0.1-0.4,0.2-0.8,0.2-1.3
		c0-1.4-1.1-2.3-3.6-2.3c-2,0-4.2,0.5-5.7,1.1l-1.1-5.4c2.2-0.8,5.3-1.3,8.3-1.3c6.3,0,9.4,2.5,9.4,6.7c0,1-0.2,2-0.4,3l-3.1,11.6
		h-7.3l0.6-2.3c-1.8,1.7-3.6,2.7-6.1,2.7C311.9,42.7,309.4,40.5,309.4,37z M323.1,34.3l0.2-0.7c-0.8-0.3-1.8-0.5-2.8-0.5
		c-2.3,0-3.9,1.1-3.9,3c0,1.2,0.9,2,2.1,2C320.7,38.1,322.5,36.5,323.1,34.3z"/>
	<path class="st0" d="M337.5,21.2h7.4l-0.7,2.4c1.4-1.5,3.6-2.9,6-2.9c3.8,0,6.1,2.4,6.1,6.3c0,1.1-0.3,2.5-0.6,3.8l-3,11.5h-7.4
		l3-11c0.2-0.5,0.2-1.2,0.2-1.7c0-1.4-0.8-2.2-2.3-2.2c-2.1,0-3.3,1.4-3.9,3.8l-3,11.2h-7.4L337.5,21.2z"/>
	<path class="st0" d="M362.3,21.2h7.4L364,42.3h-7.4L362.3,21.2z M364.1,13.8h7.7l-1.5,5.5h-7.7L364.1,13.8z"/>
	<path class="st0" d="M370.3,34.7h7.7l-2.1,7.6h-7.7L370.3,34.7z"/>
</g>
</svg>
