<?xml version="1.0" encoding="utf-8"?>
<!-- Generator: Adobe Illustrator 25.4.1, SVG Export Plug-In . SVG Version: 6.00 Build 0)  -->
<svg version="1.1" id="Layer_1" xmlns="http://www.w3.org/2000/svg" xmlns:xlink="http://www.w3.org/1999/xlink" x="0px" y="0px"
	 viewBox="0 0 728 90" style="enable-background:new 0 0 728 90;" xml:space="preserve">
<style type="text/css">
	.st0{clip-path:url(#SVGID_00000082339454246716102950000010983576388260327042_);fill:#AC1F2D;}
	.st1{clip-path:url(#SVGID_00000082339454246716102950000010983576388260327042_);fill:#FFFFFF;}
</style>
<g>
	<defs>
		<rect id="SVGID_1_" x="9.3" y="9.2" width="42.3" height="40"/>
	</defs>
	<clipPath id="SVGID_00000070841334270991205790000002689155986858689415_">
		<use xlink:href="#SVGID_1_"  style="overflow:visible;"/>
	</clipPath>
	<path style="clip-path:url(#SVGID_00000070841334270991205790000002689155986858689415_);fill:#AC1F2D;" d="M48.8,29.6
		c0,10.2-8.2,18.4-18.4,18.4C20.2,48,12,39.7,12,29.6s8.2-18.4,18.4-18.4C40.6,11.1,48.8,19.4,48.8,29.6"/>
	<path style="clip-path:url(#SVGID_00000070841334270991205790000002689155986858689415_);fill:#FFFFFF;" d="M37.7,26.2v2.1h2.4
		l-2.8,4.4h7v-2.2h-3l2.7-4.4H37.7z M24.1,23.6l-2.2,5l-2.2-5h-3.1v9.2h2.6v-4.9l2.2,4.9h1.1l2.2-5v5h2.6v-9.2H24.1z M34.2,23.6v3.2
		h-3.2v-3.2h-2.8v9.2h2.8v-3.6h3.2v3.6H37v-9.2H34.2z"/>
	<path style="clip-path:url(#SVGID_00000070841334270991205790000002689155986858689415_);fill:#FFFFFF;" d="M37.6,36.5H40v-0.7
		h-1.6v-0.5h1.5v-0.7h-1.5v-0.5H40v-0.7h-2.4V36.5z M35.6,36.5c0.7,0,1.1-0.3,1.3-0.7l-0.6-0.5c-0.2,0.2-0.4,0.4-0.7,0.4
		c-0.4,0-0.7-0.4-0.7-0.8v0c0-0.4,0.3-0.8,0.7-0.8c0.3,0,0.5,0.1,0.7,0.4l0.6-0.5c-0.3-0.4-0.7-0.6-1.3-0.6c-0.9,0-1.6,0.7-1.6,1.6
		v0C34,35.9,34.7,36.5,35.6,36.5 M32.5,36.5h0.8v-3h-0.8V36.5z M30.1,35.8c-0.5,0-0.8-0.4-0.8-0.8v0c0-0.4,0.3-0.8,0.8-0.8
		c0.5,0,0.8,0.4,0.8,0.8v0C30.9,35.4,30.6,35.8,30.1,35.8 M30.1,36.5c0.9,0,1.6-0.7,1.6-1.6v0c0-0.9-0.7-1.6-1.6-1.6
		s-1.6,0.7-1.6,1.6v0C28.5,35.8,29.2,36.5,30.1,36.5 M25.1,36.5h0.8v-1.2H27v1.2h0.8v-3H27v1.1h-1.1v-1.1h-0.8V36.5z M23.1,36.5
		c0.7,0,1.1-0.3,1.3-0.7l-0.6-0.5c-0.2,0.2-0.4,0.4-0.7,0.4c-0.4,0-0.7-0.4-0.7-0.8v0c0-0.4,0.3-0.8,0.7-0.8c0.3,0,0.5,0.1,0.7,0.4
		l0.6-0.5c-0.3-0.4-0.7-0.6-1.3-0.6c-0.9,0-1.6,0.7-1.6,1.6v0C21.5,35.9,22.2,36.5,23.1,36.5"/>
</g>
</svg>
