<?xml version="1.0" encoding="utf-8"?>
<!-- Generator: Adobe Illustrator 25.4.1, SVG Export Plug-In . SVG Version: 6.00 Build 0)  -->
<svg version="1.1" id="Layer_1" xmlns="http://www.w3.org/2000/svg" xmlns:xlink="http://www.w3.org/1999/xlink" x="0px" y="0px"
	 viewBox="0 0 728 90" style="enable-background:new 0 0 728 90;" xml:space="preserve">
<style type="text/css">
	.st0{fill:#490A09;}
</style>
<g>
	<path class="st0" d="M74.9,13h7.6l3.6,10.6L95.4,13h8.5l-7.3,27.3H89l4.2-15.7l-9.8,10.7h-0.2l-4-10.6L75,40.3h-7.5L74.9,13z"/>
	<path class="st0" d="M102.8,34.4c0-1.1,0.2-2.5,0.6-3.8l3.1-11.5h7.4l-3,11c-0.2,0.5-0.3,1.2-0.3,1.7c0,1.4,0.8,2.2,2.4,2.2
		c2.1,0,3.3-1.4,3.9-3.8l3-11.2h7.4l-5.6,21.1h-7.4l0.6-2.4c-1.4,1.5-3.5,2.9-6,2.9C105.1,40.7,102.8,38.3,102.8,34.4z"/>
	<path class="st0" d="M131.3,19.2h7.4l-1.1,4.3c2-3,4.5-4.8,7.9-4.6l-2.1,7.8h-0.6c-4.1,0-6.7,2.3-8,7.3l-1.7,6.4h-7.4L131.3,19.2z"
		/>
	<path class="st0" d="M144.2,32.1c0-7.6,5.3-13.4,11.4-13.4c3.2,0,5.1,1.4,6.4,3.4l2.7-10.3h7.4l-7.6,28.5h-7.4l0.6-2.2
		c-1.7,1.6-3.7,2.7-6,2.7C147.6,40.7,144.2,37.5,144.2,32.1z M160.6,28.6c0-2.3-1.5-3.7-3.7-3.7c-2.8,0-5.2,2.7-5.2,6
		c0,2.3,1.4,3.7,3.6,3.7C158.2,34.6,160.6,31.8,160.6,28.6z"/>
	<path class="st0" d="M181.2,35.2c1.5,0,2.9-0.5,4.5-1.7l3.4,4.1c-2.1,1.9-5,3.2-8.6,3.2c-6.2,0-10.1-3.7-10.1-9.4
		c0-6.2,4.9-12.7,12.7-12.7c6.2,0,9,4.2,9,8.7c0,1.4-0.3,3-0.8,4.3h-14C177.4,33.9,178.7,35.2,181.2,35.2z M185.3,28
		c0.1-0.4,0.2-0.7,0.2-1.1c0-1.4-0.9-2.7-2.9-2.7c-2,0-3.9,1.3-4.8,3.8H185.3z"/>
	<path class="st0" d="M197.7,19.2h7.4l-1.1,4.3c2-3,4.5-4.8,7.9-4.6l-2.1,7.8h-0.6c-4.1,0-6.7,2.3-8,7.3l-1.7,6.4H192L197.7,19.2z"
		/>
	<path class="st0" d="M227.5,13h7.6l-7.3,27.3h-7.6L227.5,13z"/>
	<path class="st0" d="M237.9,19.2h7.4l-0.7,2.4c1.4-1.5,3.6-2.9,6-2.9c3.8,0,6.1,2.4,6.1,6.3c0,1.1-0.3,2.5-0.6,3.8l-3,11.5h-7.4
		l3-11c0.2-0.5,0.2-1.2,0.2-1.7c0-1.4-0.8-2.2-2.3-2.2c-2.1,0-3.3,1.4-3.9,3.8l-3,11.2h-7.4L237.9,19.2z"/>
	<path class="st0" d="M258.9,32.7h7.7l-2.1,7.6h-7.7L258.9,32.7z"/>
	<path class="st0" d="M270.7,32.7h7.7l-2.1,7.6h-7.7L270.7,32.7z"/>
	<path class="st0" d="M282.5,32.7h7.7l-2.1,7.6h-7.7L282.5,32.7z"/>
</g>
</svg>
