<?xml version="1.0" encoding="utf-8"?>
<!-- Generator: Adobe Illustrator 25.4.1, SVG Export Plug-In . SVG Version: 6.00 Build 0)  -->
<svg version="1.1" id="Layer_1" xmlns="http://www.w3.org/2000/svg" xmlns:xlink="http://www.w3.org/1999/xlink" x="0px" y="0px"
	 viewBox="0 0 728 90" style="enable-background:new 0 0 728 90;" xml:space="preserve">
<style type="text/css">
	.st0{fill:#490A09;}
</style>
<g>
	<path class="st0" d="M69.5,61.8L69.5,61.8c0-7.9,6.3-14.3,14.7-14.3s14.7,6.3,14.7,14.1v0.1c0,7.8-6.3,14.2-14.7,14.2
		S69.5,69.7,69.5,61.8z M91.2,61.8L91.2,61.8c0-4-2.8-7.5-7-7.5c-4.1,0-6.9,3.4-6.9,7.3v0.1c0,3.9,2.8,7.4,7,7.4
		C88.4,69.1,91.2,65.8,91.2,61.8z"/>
	<path class="st0" d="M102.4,54.3h7.4v3c1.4-1.8,3.3-3.4,6.3-3.4c4.5,0,7.2,3,7.2,7.8v13.8h-7.4V64c0-2.3-1.2-3.6-3-3.6
		c-1.8,0-3.1,1.2-3.1,3.6v11.4h-7.4V54.3z"/>
	<path class="st0" d="M127.3,46.9h7.4v28.5h-7.4V46.9z"/>
	<path class="st0" d="M138.3,79.9l2.3-5.2c1.2,0.7,2.4,1.1,3.2,1.1c0.7,0,1.2-0.2,1.7-0.9l-8.3-20.7h7.8l4.2,12.7l4-12.7h7.6
		l-7.7,20.6c-1.8,4.9-3.8,6.9-8,6.9C142.5,81.8,140.3,81,138.3,79.9z"/>
	<path class="st0" d="M173.2,65L173.2,65c0-6.1,4.9-11.1,11.7-11.1c6.8,0,11.6,5,11.6,11v0.1c0,6-4.9,11-11.7,11
		C178.1,75.9,173.2,71,173.2,65z M189.3,65L189.3,65c0-2.7-1.9-4.8-4.5-4.8c-2.7,0-4.4,2.1-4.4,4.7v0.1c0,2.6,1.9,4.8,4.5,4.8
		C187.6,69.6,189.3,67.5,189.3,65z"/>
	<path class="st0" d="M199.7,54.3h7.4v3c1.4-1.8,3.3-3.4,6.3-3.4c4.5,0,7.2,3,7.2,7.8v13.8h-7.4V64c0-2.3-1.2-3.6-3-3.6
		c-1.8,0-3.1,1.2-3.1,3.6v11.4h-7.4V54.3z"/>
	<path class="st0" d="M235.7,48.1h8l6.5,10.6l6.5-10.6h8v27.3h-7.5V59.7l-7,10.7H250l-6.9-10.6v15.6h-7.4V48.1z"/>
	<path class="st0" d="M269.5,48.1h7.6v10.2h9.7V48.1h7.6v27.3h-7.6V65h-9.7v10.4h-7.6V48.1z"/>
	<path class="st0" d="M298,70.5l9.8-10.3h-9.4v-5.9h19.2v4.9l-9.8,10.3h9.8v5.9H298V70.5z"/>
	<path class="st0" d="M331.1,61.8L331.1,61.8c0-8,6.1-14.3,14.4-14.3c5.6,0,9.2,2.3,11.6,5.7l-5.7,4.4c-1.6-2-3.4-3.2-6-3.2
		c-3.8,0-6.5,3.2-6.5,7.2v0.1c0,4.1,2.7,7.3,6.5,7.3c2.8,0,4.5-1.3,6.2-3.3l5.7,4.1c-2.6,3.5-6,6.2-12.1,6.2
		C337.3,76,331.1,70,331.1,61.8z"/>
	<path class="st0" d="M360,46.9h7.4v10.3c1.4-1.8,3.3-3.4,6.3-3.4c4.5,0,7.2,3,7.2,7.8v13.8h-7.4V64c0-2.3-1.2-3.6-3-3.6
		c-1.8,0-3.1,1.2-3.1,3.6v11.4H360V46.9z"/>
	<path class="st0" d="M383.9,65L383.9,65c0-6.1,4.9-11.1,11.7-11.1c6.7,0,11.6,5,11.6,11v0.1c0,6-4.9,11-11.7,11
		C388.8,75.9,383.9,71,383.9,65z M400,65L400,65c0-2.7-1.9-4.8-4.5-4.8c-2.7,0-4.4,2.1-4.4,4.7v0.1c0,2.6,1.9,4.8,4.5,4.8
		C398.3,69.6,400,67.5,400,65z"/>
	<path class="st0" d="M410.4,46.9h7.7v5.5h-7.7V46.9z M410.5,54.3h7.4v21.1h-7.4V54.3z"/>
	<path class="st0" d="M421.2,65L421.2,65c0-6,4.6-11.1,11.3-11.1c4.3,0,7.2,1.9,9,4.7l-5,3.7c-1-1.4-2.1-2.2-3.9-2.2
		c-2.4,0-4.1,2.1-4.1,4.7v0.1c0,2.7,1.7,4.8,4.2,4.8c1.8,0,2.9-0.8,4.1-2.2l5,3.6c-2,2.9-4.8,4.8-9.4,4.8
		C425.9,75.9,421.2,70.9,421.2,65z"/>
	<path class="st0" d="M442.9,65L442.9,65c0-6.2,4.4-11.1,10.7-11.1c7.3,0,10.7,5.3,10.7,11.5c0,0.5,0,1,0,1.5H450
		c0.6,2.3,2.3,3.5,4.6,3.5c1.8,0,3.2-0.7,4.7-2.1l4.1,3.4c-2,2.6-5,4.3-9.2,4.3C447.6,75.9,442.9,71.5,442.9,65z M457.2,63.1
		c-0.3-2.3-1.6-3.8-3.7-3.8c-2,0-3.3,1.5-3.7,3.8H457.2z"/>
	<path class="st0" d="M466.9,67.8h7.7v7.6h-7.7V67.8z"/>
</g>
</svg>
