<?xml version="1.0" encoding="utf-8"?>
<!-- Generator: Adobe Illustrator 25.4.1, SVG Export Plug-In . SVG Version: 6.00 Build 0)  -->
<svg version="1.1" id="Layer_1" xmlns="http://www.w3.org/2000/svg" xmlns:xlink="http://www.w3.org/1999/xlink" x="0px" y="0px"
	 viewBox="0 0 728 90" style="enable-background:new 0 0 728 90;" xml:space="preserve">
<style type="text/css">
	.st0{fill:#490A09;}
</style>
<g>
	<path class="st0" d="M67.9,30.6h8l6.5,10.6l6.5-10.6h8v27.3h-7.5V42.2l-7,10.7h-0.2l-6.9-10.6v15.6h-7.4V30.6z"/>
	<path class="st0" d="M101.2,50.6V36.8h7.4v11.4c0,2.3,1.2,3.5,3,3.5c1.8,0,3.1-1.2,3.1-3.5V36.8h7.4v21.1h-7.4V55
		c-1.4,1.8-3.3,3.4-6.3,3.4C103.9,58.3,101.2,55.4,101.2,50.6z"/>
	<path class="st0" d="M126.1,36.8h7.4V41c1.2-2.9,3.2-4.8,6.7-4.6v7.8h-0.6c-3.9,0-6,2.2-6,7.1v6.6h-7.4V36.8z"/>
	<path class="st0" d="M141.6,47.4L141.6,47.4c0-6.9,4.3-11.1,9.3-11.1c3.2,0,5.1,1.4,6.5,3v-9.9h7.4v28.5h-7.4v-2.8
		c-1.4,1.8-3.3,3.3-6.4,3.3C146,58.3,141.6,54.2,141.6,47.4z M157.5,47.3L157.5,47.3c0-2.8-1.9-4.8-4.3-4.8c-2.4,0-4.3,2-4.3,4.8
		v0.1c0,2.8,2,4.8,4.3,4.8C155.6,52.1,157.5,50.2,157.5,47.3z"/>
	<path class="st0" d="M167.9,47.4L167.9,47.4c0-6.2,4.4-11.1,10.7-11.1c7.3,0,10.7,5.3,10.7,11.5c0,0.5,0,1,0,1.5h-14.1
		c0.6,2.3,2.3,3.5,4.6,3.5c1.8,0,3.2-0.7,4.7-2.1l4.1,3.4c-2,2.6-5,4.3-9.2,4.3C172.6,58.4,167.9,54,167.9,47.4z M182.3,45.6
		c-0.3-2.3-1.6-3.8-3.7-3.8c-2,0-3.3,1.5-3.7,3.8H182.3z"/>
	<path class="st0" d="M192.4,36.8h7.4V41c1.2-2.9,3.2-4.8,6.7-4.6v7.8h-0.6c-3.9,0-6,2.2-6,7.1v6.6h-7.4V36.8z"/>
	<path class="st0" d="M207.5,55.2l2.8-4.5c2.4,1.6,5.1,2.4,7.3,2.4c1.3,0,1.9-0.4,1.9-1.1v-0.1c0-0.8-1.2-1.2-3.4-1.8
		c-4.2-1.1-7.5-2.5-7.5-6.7v-0.1c0-4.5,3.6-7,8.5-7c3.1,0,6.3,0.9,8.7,2.5l-2.5,4.7c-2.2-1.2-4.6-2-6.2-2c-1.1,0-1.7,0.4-1.7,1v0.1
		c0,0.8,1.2,1.2,3.4,1.9c4.2,1.2,7.5,2.6,7.5,6.7v0.1c0,4.6-3.5,7.1-8.6,7.1C213.9,58.3,210.4,57.3,207.5,55.2z"/>
</g>
<g>
	<path class="st0" d="M241.2,51.3v-8.6h-2.5v-6h2.5v-5.3h7.4v5.3h4.9v6h-4.9v7.1c0,1.5,0.7,2.1,2,2.1c1,0,1.9-0.3,2.8-0.7v5.8
		c-1.3,0.7-3.1,1.2-5.2,1.2C243.9,58.3,241.2,56.4,241.2,51.3z"/>
	<path class="st0" d="M255.3,47.4L255.3,47.4c0-6.1,4.9-11.1,11.7-11.1c6.8,0,11.6,5,11.6,11v0.1c0,6-4.9,11-11.7,11
		C260.2,58.4,255.3,53.4,255.3,47.4z M271.5,47.4L271.5,47.4c0-2.7-1.9-4.8-4.5-4.8c-2.7,0-4.4,2.1-4.4,4.7v0.1
		c0,2.6,1.9,4.8,4.5,4.8C269.7,52.1,271.5,50,271.5,47.4z"/>
	<path class="st0" d="M291,55.2l2.8-4.5c2.4,1.6,5.1,2.4,7.3,2.4c1.3,0,1.9-0.4,1.9-1.1v-0.1c0-0.8-1.2-1.2-3.4-1.8
		c-4.2-1.1-7.5-2.5-7.5-6.7v-0.1c0-4.5,3.6-7,8.5-7c3.1,0,6.3,0.9,8.7,2.5l-2.5,4.7c-2.2-1.2-4.6-2-6.2-2c-1.1,0-1.7,0.4-1.7,1v0.1
		c0,0.8,1.2,1.2,3.4,1.9c4.2,1.2,7.5,2.6,7.5,6.7v0.1c0,4.6-3.5,7.1-8.6,7.1C297.4,58.3,293.9,57.3,291,55.2z"/>
	<path class="st0" d="M311.8,47.4L311.8,47.4c0-6.1,4.9-11.1,11.7-11.1c6.8,0,11.6,5,11.6,11v0.1c0,6-4.9,11-11.7,11
		C316.7,58.4,311.8,53.4,311.8,47.4z M327.9,47.4L327.9,47.4c0-2.7-1.9-4.8-4.5-4.8c-2.7,0-4.4,2.1-4.4,4.7v0.1
		c0,2.6,1.9,4.8,4.5,4.8C326.2,52.1,327.9,50,327.9,47.4z"/>
	<path class="st0" d="M338.4,29.4h7.4v28.5h-7.4V29.4z"/>
	<path class="st0" d="M348.4,36.8h7.8l4.1,12.3l4.1-12.3h7.7L363.5,58h-6.7L348.4,36.8z"/>
	<path class="st0" d="M372.2,47.4L372.2,47.4c0-6.2,4.4-11.1,10.7-11.1c7.3,0,10.7,5.3,10.7,11.5c0,0.5,0,1,0,1.5h-14.1
		c0.6,2.3,2.3,3.5,4.6,3.5c1.8,0,3.2-0.7,4.7-2.1l4.1,3.4c-2,2.6-5,4.3-9.2,4.3C376.9,58.4,372.2,54,372.2,47.4z M386.6,45.6
		c-0.3-2.3-1.6-3.8-3.7-3.8c-2,0-3.3,1.5-3.7,3.8H386.6z"/>
	<path class="st0" d="M396.2,50.3h7.7v7.6h-7.7V50.3z"/>
</g>
</svg>
