<?xml version="1.0" encoding="utf-8"?>
<!-- Generator: Adobe Illustrator 25.4.1, SVG Export Plug-In . SVG Version: 6.00 Build 0)  -->
<svg version="1.1" id="Layer_1" xmlns="http://www.w3.org/2000/svg" xmlns:xlink="http://www.w3.org/1999/xlink" x="0px" y="0px"
	 viewBox="0 0 728 90" style="enable-background:new 0 0 728 90;" xml:space="preserve">
<style type="text/css">
	.st0{fill:#AB1F2D;}
	.st1{fill:#FFFFFF;}
</style>
<path class="st0" d="M615.9,49.5c-6.3,0-11.5,5.1-11.5,11.5v3.4c0,6.3,5.1,11.5,11.5,11.5h79.6c6.3,0,11.5-5.1,11.5-11.5v-3.4
	c0-6.3-5.1-11.5-11.5-11.5H615.9z"/>
<g>
	<path class="st1" d="M611.3,58.8h2.2l1.9,6.2l2.1-6.2h1.7l2.1,6.2l1.9-6.2h2.1l-3.1,9.2h-1.8l-2.1-6l-2.1,6h-1.8L611.3,58.8z"/>
	<path class="st1" d="M628.7,58.7h1.9l3.9,9.2h-2.1l-0.8-2.1h-3.9l-0.8,2.1h-2.1L628.7,58.7z M630.8,64.1l-1.2-3l-1.2,3H630.8z"/>
	<path class="st1" d="M636.8,60.6H634v-1.9h7.6v1.9h-2.8v7.3h-2V60.6z"/>
	<path class="st1" d="M642.4,63.4L642.4,63.4c0-2.6,2-4.8,4.8-4.8c1.7,0,2.8,0.6,3.6,1.4l-1.3,1.5c-0.7-0.6-1.4-1-2.3-1
		c-1.5,0-2.7,1.3-2.7,2.9v0c0,1.6,1.1,2.9,2.7,2.9c1,0,1.7-0.4,2.4-1.1l1.3,1.3c-0.9,1-2,1.6-3.8,1.6
		C644.4,68.1,642.4,66,642.4,63.4z"/>
	<path class="st1" d="M652.4,58.8h2v3.6h3.7v-3.6h2v9.2h-2v-3.7h-3.7v3.7h-2V58.8z"/>
	<path class="st1" d="M666.3,58.8h1.9l4.3,5.6v-5.6h2v9.2h-1.7l-4.4-5.8v5.8h-2V58.8z"/>
	<path class="st1" d="M676.2,63.4L676.2,63.4c0-2.6,2.1-4.8,4.9-4.8c2.8,0,4.9,2.1,4.9,4.7v0c0,2.6-2.1,4.7-4.9,4.7
		C678.2,68.1,676.2,66,676.2,63.4z M683.8,63.4L683.8,63.4c0-1.6-1.2-2.9-2.8-2.9c-1.6,0-2.7,1.3-2.7,2.9v0c0,1.6,1.2,2.9,2.8,2.9
		C682.7,66.2,683.8,64.9,683.8,63.4z"/>
	<path class="st1" d="M686.5,58.8h2.2l1.9,6.2l2.1-6.2h1.7l2.1,6.2l1.9-6.2h2.1l-3.1,9.2h-1.8l-2.1-6l-2.1,6h-1.8L686.5,58.8z"/>
</g>
</svg>
