<?xml version="1.0" encoding="utf-8"?>
<!-- Generator: Adobe Illustrator 25.4.1, SVG Export Plug-In . SVG Version: 6.00 Build 0)  -->
<svg version="1.1" id="Layer_1" xmlns="http://www.w3.org/2000/svg" xmlns:xlink="http://www.w3.org/1999/xlink" x="0px" y="0px"
	 viewBox="0 0 728 90" style="enable-background:new 0 0 728 90;" xml:space="preserve">
<style type="text/css">
	.st0{clip-path:url(#SVGID_00000051380113623749255530000004073170918043371449_);fill:#AC1F2D;}
	.st1{clip-path:url(#SVGID_00000051380113623749255530000004073170918043371449_);fill:#FFFFFF;}
</style>
<g>
	<defs>
		<rect id="SVGID_1_" x="8.5" y="8.6" width="42.3" height="40"/>
	</defs>
	<clipPath id="SVGID_00000124160633641261874330000009850902077604082083_">
		<use xlink:href="#SVGID_1_"  style="overflow:visible;"/>
	</clipPath>
	<path style="clip-path:url(#SVGID_00000124160633641261874330000009850902077604082083_);fill:#AC1F2D;" d="M48,29
		c0,10.2-8.2,18.4-18.4,18.4c-10.2,0-18.4-8.2-18.4-18.4s8.2-18.4,18.4-18.4C39.8,10.5,48,18.8,48,29"/>
	<path style="clip-path:url(#SVGID_00000124160633641261874330000009850902077604082083_);fill:#FFFFFF;" d="M36.9,25.6v2.1h2.4
		l-2.8,4.4h7V30h-3l2.7-4.4H36.9z M23.3,23l-2.2,5l-2.2-5h-3.1v9.2h2.6v-4.9l2.2,4.9h1.1l2.2-5v5h2.6V23H23.3z M33.4,23v3.2h-3.2V23
		h-2.8v9.2h2.8v-3.6h3.2v3.6h2.8V23H33.4z"/>
	<path style="clip-path:url(#SVGID_00000124160633641261874330000009850902077604082083_);fill:#FFFFFF;" d="M36.8,35.9h2.5v-0.7
		h-1.6v-0.5h1.5V34h-1.5v-0.5h1.6v-0.7h-2.4V35.9z M34.8,35.9c0.7,0,1.1-0.3,1.3-0.7l-0.6-0.5c-0.2,0.2-0.4,0.4-0.7,0.4
		c-0.4,0-0.7-0.4-0.7-0.8v0c0-0.4,0.3-0.8,0.7-0.8c0.3,0,0.5,0.1,0.7,0.4l0.6-0.5c-0.3-0.4-0.7-0.6-1.3-0.6c-0.9,0-1.6,0.7-1.6,1.6
		v0C33.3,35.3,33.9,35.9,34.8,35.9 M31.7,35.9h0.8v-3h-0.8V35.9z M29.4,35.2c-0.5,0-0.8-0.4-0.8-0.8v0c0-0.4,0.3-0.8,0.8-0.8
		c0.5,0,0.8,0.4,0.8,0.8v0C30.1,34.8,29.8,35.2,29.4,35.2 M29.4,35.9c0.9,0,1.6-0.7,1.6-1.6v0c0-0.9-0.7-1.6-1.6-1.6
		s-1.6,0.7-1.6,1.6v0C27.7,35.2,28.4,35.9,29.4,35.9 M24.3,35.9h0.8v-1.2h1.1v1.2H27v-3h-0.8V34h-1.1v-1.1h-0.8V35.9z M22.3,35.9
		c0.7,0,1.1-0.3,1.3-0.7L23,34.8c-0.2,0.2-0.4,0.4-0.7,0.4c-0.4,0-0.7-0.4-0.7-0.8v0c0-0.4,0.3-0.8,0.7-0.8c0.3,0,0.5,0.1,0.7,0.4
		l0.6-0.5c-0.3-0.4-0.7-0.6-1.3-0.6c-0.9,0-1.6,0.7-1.6,1.6v0C20.8,35.3,21.5,35.9,22.3,35.9"/>
</g>
</svg>
