<?xml version="1.0" encoding="utf-8"?>
<!-- Generator: Adobe Illustrator 25.4.1, SVG Export Plug-In . SVG Version: 6.00 Build 0)  -->
<svg version="1.1" id="Layer_1" xmlns="http://www.w3.org/2000/svg" xmlns:xlink="http://www.w3.org/1999/xlink" x="0px" y="0px"
	 viewBox="0 0 300 600" style="enable-background:new 0 0 300 600;" xml:space="preserve">
<style type="text/css">
	.st0{fill:#490A09;}
</style>
<g>
	<path class="st0" d="M19.5,252.7H28v30.5h-8.5V252.7z"/>
	<path class="st0" d="M34.5,275.9v-9.6h-2.8v-6.7h2.8v-6h8.3v6h5.5v6.7h-5.5v8c0,1.7,0.7,2.4,2.3,2.4c1.1,0,2.1-0.3,3.1-0.8v6.5
		c-1.5,0.8-3.4,1.4-5.8,1.4C37.5,283.7,34.5,281.5,34.5,275.9z"/>
	<path class="st0" d="M50.7,276.4L50.7,276.4c0-5,3.7-7.5,9.2-7.5c2.2,0,4.3,0.4,5.7,0.9v-0.4c0-2.4-1.5-3.8-4.7-3.8
		c-2.5,0-4.4,0.5-6.5,1.3l-1.7-5.8c2.7-1.1,5.5-1.8,9.5-1.8c4.2,0,7.1,1,9,2.9c1.8,1.7,2.5,4.2,2.5,7.5v13.5h-8.2v-2.4
		c-1.6,1.8-3.8,3-6.9,3C54.1,283.7,50.7,281.2,50.7,276.4z M65.7,274.7v-1.1c-0.8-0.3-2-0.6-3.2-0.6c-2.4,0-3.8,1.2-3.8,2.9v0.1
		c0,1.6,1.2,2.6,2.9,2.6C64,278.5,65.7,277,65.7,274.7z"/>
	<path class="st0" d="M78.1,251.4h8.3v31.8h-8.3V251.4z"/>
	<path class="st0" d="M90.1,271.5L90.1,271.5c0-6.8,5.5-12.4,13.1-12.4c7.5,0,13,5.5,13,12.2v0.1c0,6.7-5.5,12.3-13.1,12.3
		C95.5,283.8,90.1,278.2,90.1,271.5z M108.1,271.5L108.1,271.5c0-3-2.1-5.4-5-5.4c-3,0-4.9,2.4-4.9,5.2v0.1c0,2.9,2.1,5.3,5,5.3
		C106.1,276.8,108.1,274.4,108.1,271.5z"/>
	<path class="st0" d="M119.6,259.6h8.3v3.1c1.6-2,3.6-3.7,7.1-3.7c5.6,0,10.5,4.7,10.5,12.2v0.1c0,7.7-4.8,12.3-10.4,12.3
		c-3.6,0-5.7-1.6-7.2-3.4v9.8h-8.3V259.6z M137.3,271.4L137.3,271.4c0-3.2-2.1-5.4-4.8-5.4c-2.7,0-4.8,2.2-4.8,5.3v0.1
		c0,3.1,2.1,5.4,4.8,5.4C135.2,276.8,137.3,274.6,137.3,271.4z"/>
	<path class="st0" d="M149.1,251.4h8.3v11.5c1.5-2,3.7-3.7,7.1-3.7c5,0,8,3.3,8,8.7v15.4h-8.3v-12.8c0-2.6-1.4-4-3.3-4
		c-2,0-3.5,1.4-3.5,4v12.8h-8.3V251.4z"/>
	<path class="st0" d="M176.7,251.4h8.6v6.1h-8.6V251.4z M176.9,259.6h8.3v23.6h-8.3V259.6z"/>
	<path class="st0" d="M189.9,251.4h8.3v31.8h-8.3V251.4z"/>
	<path class="st0" d="M201.9,271.5L201.9,271.5c0-7,4.9-12.4,11.9-12.4c8.1,0,11.9,6,11.9,12.9c0,0.5,0,1.1,0,1.7h-15.8
		c0.7,2.6,2.5,3.9,5.1,3.9c2,0,3.5-0.7,5.2-2.4l4.6,3.8c-2.3,2.9-5.5,4.8-10.2,4.8C207.1,283.8,201.9,278.8,201.9,271.5z
		 M217.9,269.5c-0.3-2.6-1.8-4.3-4.1-4.3c-2.2,0-3.7,1.7-4.1,4.3H217.9z"/>
	<path class="st0" d="M228.7,274.7h8.6v8.5h-8.6V274.7z"/>
</g>
</svg>
