<?xml version="1.0" encoding="utf-8"?>
<!-- Generator: Adobe Illustrator 25.4.1, SVG Export Plug-In . SVG Version: 6.00 Build 0)  -->
<svg version="1.1" id="Layer_1" xmlns="http://www.w3.org/2000/svg" xmlns:xlink="http://www.w3.org/1999/xlink" x="0px" y="0px"
	 viewBox="0 0 300 600" style="enable-background:new 0 0 300 600;" xml:space="preserve">
<style type="text/css">
	.st0{fill:#490A09;}
</style>
<g>
	<path class="st0" d="M19.3,340.5h24.5v7.2H27.7v4.6h14.6v6.7H27.7v4.8h16.4v7.2H19.3V340.5z"/>
	<path class="st0" d="M47.7,362.8v-15.4H56v12.8c0,2.6,1.4,4,3.4,4c2,0,3.4-1.4,3.4-4v-12.8h8.3v23.6h-8.3v-3.2
		c-1.5,2-3.7,3.7-7.1,3.7C50.7,371.5,47.7,368.2,47.7,362.8z"/>
	<path class="st0" d="M75.5,347.4h8.3v4.7c1.4-3.2,3.5-5.3,7.4-5.1v8.7h-0.7c-4.3,0-6.8,2.5-6.8,7.9v7.3h-8.3V347.4z"/>
	<path class="st0" d="M92.8,359.3L92.8,359.3c0-6.8,5.5-12.4,13.1-12.4c7.5,0,13,5.5,13,12.2v0.1c0,6.7-5.5,12.3-13.1,12.3
		C98.2,371.5,92.8,366,92.8,359.3z M110.8,359.3L110.8,359.3c0-3-2.1-5.4-5-5.4c-3,0-4.9,2.4-4.9,5.2v0.1c0,2.9,2.1,5.3,5,5.3
		C108.8,364.5,110.8,362.1,110.8,359.3z"/>
	<path class="st0" d="M122.3,347.4h8.3v3.1c1.6-2,3.6-3.7,7.1-3.7c5.6,0,10.5,4.7,10.5,12.2v0.1c0,7.7-4.8,12.3-10.4,12.3
		c-3.6,0-5.7-1.6-7.2-3.4v9.8h-8.3V347.4z M140,359.2L140,359.2c0-3.2-2.1-5.4-4.8-5.4c-2.7,0-4.8,2.2-4.8,5.3v0.1
		c0,3.1,2.1,5.4,4.8,5.4C137.9,364.5,140,362.4,140,359.2z"/>
	<path class="st0" d="M151.8,339.1h8.3v11.5c1.5-2,3.7-3.7,7.1-3.7c5,0,8,3.3,8,8.7v15.4h-8.3v-12.8c0-2.6-1.4-4-3.3-4
		c-2,0-3.5,1.4-3.5,4v12.8h-8.3V339.1z"/>
	<path class="st0" d="M179.4,339.1h8.6v6.1h-8.6V339.1z M179.6,347.4h8.3v23.6h-8.3V347.4z"/>
	<path class="st0" d="M192.6,339.1h8.3v31.8h-8.3V339.1z"/>
	<path class="st0" d="M204.6,359.3L204.6,359.3c0-7,4.9-12.4,11.9-12.4c8.1,0,11.9,6,11.9,12.9c0,0.5,0,1.1,0,1.7h-15.8
		c0.7,2.6,2.5,3.9,5.1,3.9c2,0,3.5-0.7,5.2-2.4l4.6,3.8c-2.3,2.9-5.5,4.8-10.2,4.8C209.8,371.5,204.6,366.6,204.6,359.3z
		 M220.6,357.2c-0.3-2.6-1.8-4.3-4.1-4.3c-2.2,0-3.7,1.7-4.1,4.3H220.6z"/>
	<path class="st0" d="M231.4,362.5h8.6v8.5h-8.6V362.5z"/>
</g>
</svg>
