<?xml version="1.0" encoding="utf-8"?>
<!-- Generator: Adobe Illustrator 25.4.1, SVG Export Plug-In . SVG Version: 6.00 Build 0)  -->
<svg version="1.1" id="Layer_1" xmlns="http://www.w3.org/2000/svg" xmlns:xlink="http://www.w3.org/1999/xlink" x="0px" y="0px"
	 viewBox="0 0 300 600" style="enable-background:new 0 0 300 600;" xml:space="preserve">
<style type="text/css">
	.st0{fill:#490A09;}
</style>
<g>
	<path class="st0" d="M19.8,242.2h11.6l6.9,22.9l7.6-23.1h9.5l7.6,23.1l6.9-22.9h11.4l-13.3,39.9h-9.6l-8-22.8l-7.9,22.8h-9.6
		L19.8,242.2z"/>
	<path class="st0" d="M80.2,266.7v-0.1c0-8.9,6.4-16,15.5-16c10.6,0,15.5,7.8,15.5,16.8c0,0.7,0,1.5-0.1,2.2H90.5
		c0.8,3.3,3.3,5,6.6,5c2.5,0,4.6-1,6.8-3.1l5.9,4.9c-2.9,3.7-7.2,6.2-13.3,6.2C87,282.6,80.2,276.2,80.2,266.7z M101,264
		c-0.4-3.4-2.4-5.6-5.3-5.6c-2.8,0-4.8,2.2-5.3,5.6H101z"/>
	<path class="st0" d="M131.4,240.5h10.8v14.9c2-2.5,4.8-4.9,9.2-4.9c6.5,0,10.4,4.3,10.4,11.3v20.1H151v-16.6c0-3.3-1.8-5.2-4.3-5.2
		c-2.6,0-4.5,1.8-4.5,5.2v16.6h-10.8V240.5z"/>
	<path class="st0" d="M165.7,273.1v-0.1c0-6.3,4.8-9.6,12-9.6c2.8,0,5.6,0.6,7.4,1.2V264c0-3.2-2-5-6.1-5c-3.2,0-5.7,0.6-8.4,1.7
		l-2.2-7.6c3.5-1.4,7.1-2.4,12.4-2.4c5.5,0,9.2,1.3,11.7,3.7c2.3,2.3,3.3,5.4,3.3,9.7v17.6h-10.6v-3.2c-2.1,2.3-5,3.9-9,3.9
		C170.2,282.5,165.7,279.2,165.7,273.1z M185.2,270.7v-1.4c-1.1-0.5-2.6-0.8-4.2-0.8c-3.1,0-4.9,1.5-4.9,3.8v0.1
		c0,2.1,1.6,3.3,3.8,3.3C183,275.8,185.2,273.8,185.2,270.7z"/>
	<path class="st0" d="M197.4,251.2h11.3l5.9,17.9l5.9-17.9h11.2l-12.2,30.9h-9.8L197.4,251.2z"/>
	<path class="st0" d="M232,266.7v-0.1c0-8.9,6.4-16,15.5-16c10.6,0,15.5,7.8,15.5,16.8c0,0.7,0,1.5-0.1,2.2h-20.5
		c0.8,3.3,3.3,5,6.6,5c2.5,0,4.6-1,6.8-3.1l5.9,4.9c-2.9,3.7-7.2,6.2-13.3,6.2C238.8,282.6,232,276.2,232,266.7z M252.9,264
		c-0.4-3.4-2.4-5.6-5.3-5.6c-2.8,0-4.8,2.2-5.3,5.6H252.9z"/>
</g>
<g>
	<path class="st0" d="M21.1,345.4l3.3-7.5c1.7,1,3.5,1.6,4.7,1.6c1.1,0,1.8-0.3,2.5-1.2l-12-30.1h11.3l6.1,18.5l5.8-18.5h11
		l-11.2,29.9c-2.7,7.1-5.6,10-11.7,10C27.2,348.1,23.9,347,21.1,345.4z"/>
	<path class="st0" d="M54.5,323.7v-0.1c0-8.7,7.1-16,17-16c9.8,0,16.9,7.2,16.9,15.9v0.1c0,8.7-7.1,16-17,16
		C61.5,339.6,54.5,332.4,54.5,323.7z M77.8,323.7v-0.1c0-3.7-2.7-6.9-6.5-6.9c-3.9,0-6.4,3.1-6.4,6.8v0.1c0,3.7,2.7,6.9,6.5,6.9
		C75.4,330.5,77.8,327.4,77.8,323.7z"/>
	<path class="st0" d="M92.6,328.3v-20.1h10.8v16.6c0,3.3,1.8,5.2,4.4,5.2c2.5,0,4.5-1.8,4.5-5.2v-16.6H123v30.6h-10.8v-4.2
		c-2,2.5-4.8,4.9-9.2,4.9C96.5,339.6,92.6,335.2,92.6,328.3z"/>
	<path class="st0" d="M128.8,308.2h10.8v6.2c1.8-4.2,4.6-6.9,9.7-6.7V319h-0.9c-5.6,0-8.8,3.2-8.8,10.3v9.5h-10.8V308.2z"/>
	<path class="st0" d="M179,308.9h-11.9v-9.6h34.8v9.6H190v30h-11V308.9z"/>
	<path class="st0" d="M203.5,299.2h12.3l9,25.1l9-25.1h12.1l-16.1,39.9h-10.2L203.5,299.2z"/>
	<path class="st0" d="M241.9,327.8h11.2v11h-11.2V327.8z"/>
</g>
</svg>
