<?xml version="1.0" encoding="utf-8"?>
<!-- Generator: Adobe Illustrator 25.4.1, SVG Export Plug-In . SVG Version: 6.00 Build 0)  -->
<svg version="1.1" id="Layer_1" xmlns="http://www.w3.org/2000/svg" xmlns:xlink="http://www.w3.org/1999/xlink" x="0px" y="0px"
	 viewBox="0 0 300 600" style="enable-background:new 0 0 300 600;" xml:space="preserve">
<style type="text/css">
	.st0{fill:#FFFFFF;}
</style>
<g>
	<path class="st0" d="M27.7,196.8h-9.4v-7.6h27.5v7.6h-9.4v23.7h-8.7V196.8z"/>
	<path class="st0" d="M49.1,187.9h8.5v11.8c1.6-2,3.8-3.8,7.2-3.8c5.1,0,8.2,3.4,8.2,8.9v15.8h-8.5v-13.1c0-2.6-1.4-4.1-3.4-4.1
		c-2.1,0-3.6,1.4-3.6,4.1v13.1h-8.5V187.9z"/>
	<path class="st0" d="M76.5,208.5L76.5,208.5c0-7.2,5.1-12.8,12.2-12.8c8.4,0,12.2,6.1,12.2,13.2c0,0.5,0,1.2,0,1.7H84.7
		c0.7,2.6,2.6,4,5.2,4c2,0,3.6-0.8,5.4-2.5l4.7,3.9c-2.3,3-5.7,4.9-10.5,4.9C81.9,221.1,76.5,216.1,76.5,208.5z M93,206.4
		c-0.3-2.7-1.9-4.4-4.2-4.4c-2.2,0-3.8,1.7-4.2,4.4H93z"/>
	<path class="st0" d="M115.3,189.2h9.2l5.5,18.1l6-18.2h7.5l6,18.2l5.5-18.1h9l-10.5,31.6h-7.6l-6.3-18l-6.3,18h-7.6L115.3,189.2z"
		/>
	<path class="st0" d="M163,208.5L163,208.5c0-7,5.6-12.8,13.4-12.8c7.7,0,13.3,5.7,13.3,12.6v0.1c0,6.9-5.6,12.7-13.4,12.7
		C168.6,221.1,163,215.4,163,208.5z M181.5,208.5L181.5,208.5c0-3-2.1-5.5-5.1-5.5c-3.1,0-5.1,2.5-5.1,5.4v0.1c0,3,2.1,5.5,5.1,5.5
		C179.5,213.9,181.5,211.4,181.5,208.5z"/>
	<path class="st0" d="M193.4,196.3h8.5v4.9c1.4-3.3,3.6-5.5,7.7-5.3v9h-0.7c-4.4,0-6.9,2.6-6.9,8.1v7.5h-8.5V196.3z"/>
	<path class="st0" d="M212.7,187.9h8.5v32.7h-8.5V187.9z"/>
	<path class="st0" d="M225,208.5L225,208.5c0-8,4.9-12.8,10.7-12.8c3.7,0,5.8,1.7,7.4,3.5v-11.4h8.5v32.7h-8.5v-3.2
		c-1.7,2-3.8,3.8-7.4,3.8C230,221.1,225,216.3,225,208.5z M243.3,208.4L243.3,208.4c0-3.3-2.2-5.5-4.9-5.5c-2.7,0-5,2.2-5,5.5v0.1
		c0,3.2,2.2,5.5,5,5.5C241.1,214,243.3,211.7,243.3,208.4z"/>
	<path class="st0" d="M254.9,202.1c3-0.3,4.6-1.8,4.5-4.2H256v-8.7h8.8v7.1c0,6.6-3.6,8.9-9.2,9.1L254.9,202.1z"/>
	<path class="st0" d="M266.8,217.5l3.2-5.1c2.8,1.8,5.8,2.8,8.3,2.8c1.5,0,2.1-0.4,2.1-1.3v-0.1c0-0.9-1.3-1.3-3.9-2.1
		c-4.8-1.3-8.6-2.9-8.6-7.7v-0.1c0-5.1,4.1-8,9.7-8c3.5,0,7.2,1,10,2.8l-2.9,5.4c-2.5-1.4-5.2-2.2-7.2-2.2c-1.3,0-2,0.5-2,1.2v0.1
		c0,0.9,1.4,1.4,3.9,2.1c4.8,1.3,8.6,3,8.6,7.7v0.1c0,5.3-4,8.1-9.9,8.1C274.1,221.1,270.1,219.9,266.8,217.5z"/>
</g>
<g>
	<path class="st0" d="M20,234.3h16.1c3.9,0,6.7,1,8.5,2.8c1.3,1.3,2,2.9,2,5.1v0.1c0,3.6-2.1,5.8-4.8,7c3.8,1.3,6.2,3.4,6.2,7.7v0.1
		c0,5.4-4.4,8.6-11.9,8.6H20V234.3z M34,246.8c2.6,0,4.1-0.9,4.1-2.7v-0.1c0-1.7-1.3-2.7-3.9-2.7h-5.6v5.5H34z M35.2,258.6
		c2.6,0,4.2-1,4.2-2.9v-0.1c0-1.7-1.3-2.8-4.3-2.8h-6.6v5.8H35.2z"/>
	<path class="st0" d="M50.6,253.6L50.6,253.6c0-7.2,5.1-12.8,12.2-12.8c8.4,0,12.2,6.1,12.2,13.2c0,0.5,0,1.2,0,1.7H58.8
		c0.7,2.6,2.6,4,5.2,4c2,0,3.6-0.8,5.4-2.5l4.7,3.9c-2.3,3-5.7,4.9-10.5,4.9C55.9,266.2,50.6,261.1,50.6,253.6z M67,251.5
		c-0.3-2.7-1.9-4.4-4.2-4.4c-2.2,0-3.8,1.7-4.2,4.4H67z"/>
	<path class="st0" d="M76.8,262.6l3.2-5.1c2.8,1.8,5.8,2.8,8.3,2.8c1.5,0,2.1-0.4,2.1-1.3v-0.1c0-0.9-1.3-1.3-3.9-2.1
		c-4.8-1.3-8.6-2.9-8.6-7.7v-0.1c0-5.1,4.1-8,9.7-8c3.5,0,7.2,1,10,2.8l-2.9,5.4c-2.5-1.4-5.2-2.2-7.2-2.2c-1.3,0-2,0.5-2,1.2v0.1
		c0,0.9,1.4,1.4,3.9,2.1c4.8,1.3,8.6,3,8.6,7.7v0.1c0,5.3-4,8.1-9.9,8.1C84.2,266.1,80.2,265,76.8,262.6z"/>
	<path class="st0" d="M102.7,258.1v-9.8h-2.9v-6.8h2.9v-6.1h8.5v6.1h5.6v6.8h-5.6v8.2c0,1.7,0.8,2.4,2.3,2.4c1.1,0,2.2-0.3,3.2-0.8
		v6.7c-1.5,0.9-3.5,1.4-5.9,1.4C105.8,266.1,102.7,263.9,102.7,258.1z"/>
	<path class="st0" d="M141.1,241.9h-9.4v-7.6h27.5v7.6h-9.4v23.7h-8.7V241.9z"/>
	<path class="st0" d="M160.5,234.3h9.7l7.1,19.8l7.1-19.8h9.5l-12.7,31.6h-8.1L160.5,234.3z"/>
</g>
<g>
	<path class="st0" d="M19.7,278h8.5v32.7h-8.5V278z"/>
	<path class="st0" d="M33,278h8.9v6.3H33V278z M33.2,286.5h8.5v24.2h-8.5V286.5z"/>
	<path class="st0" d="M44.6,286.5h9l4.7,14.1l4.7-14.1h8.8L62,310.9h-7.7L44.6,286.5z"/>
	<path class="st0" d="M72,298.7L72,298.7c0-7.2,5.1-12.8,12.2-12.8c8.4,0,12.2,6.1,12.2,13.2c0,0.5,0,1.2,0,1.7H80.2
		c0.7,2.6,2.6,4,5.2,4c2,0,3.6-0.8,5.4-2.5l4.7,3.9c-2.3,3-5.7,4.9-10.5,4.9C77.3,311.3,72,306.2,72,298.7z M88.4,296.6
		c-0.3-2.7-1.9-4.4-4.2-4.4c-2.2,0-3.8,1.7-4.2,4.4H88.4z"/>
	<path class="st0" d="M98.2,307.6l3.2-5.1c2.8,1.8,5.8,2.8,8.3,2.8c1.5,0,2.1-0.4,2.1-1.3v-0.1c0-0.9-1.3-1.3-3.9-2.1
		c-4.8-1.3-8.6-2.9-8.6-7.7V294c0-5.1,4.1-8,9.7-8c3.5,0,7.2,1,10,2.8l-2.9,5.4c-2.5-1.4-5.2-2.2-7.2-2.2c-1.3,0-2,0.5-2,1.2v0.1
		c0,0.9,1.4,1.4,3.9,2.1c4.8,1.3,8.6,3,8.6,7.7v0.1c0,5.3-4,8.1-9.9,8.1C105.6,311.2,101.5,310.1,98.2,307.6z"/>
	<path class="st0" d="M135.4,278h8.5v11.8c1.6-2,3.8-3.8,7.2-3.8c5.1,0,8.2,3.4,8.2,8.9v15.8h-8.5v-13.1c0-2.6-1.4-4.1-3.4-4.1
		c-2.1,0-3.6,1.4-3.6,4.1v13.1h-8.5V278z"/>
	<path class="st0" d="M162.8,298.7L162.8,298.7c0-7.2,5.1-12.8,12.2-12.8c8.4,0,12.2,6.1,12.2,13.2c0,0.5,0,1.2,0,1.7H171
		c0.7,2.6,2.6,4,5.2,4c2,0,3.6-0.8,5.4-2.5l4.7,3.9c-2.3,3-5.7,4.9-10.5,4.9C168.2,311.3,162.8,306.2,162.8,298.7z M179.3,296.6
		c-0.3-2.7-1.9-4.4-4.2-4.4c-2.2,0-3.8,1.7-4.2,4.4H179.3z"/>
	<path class="st0" d="M190.9,286.5h8.5v4.9c1.4-3.3,3.6-5.5,7.7-5.3v9h-0.7c-4.4,0-6.9,2.6-6.9,8.1v7.5h-8.5V286.5z"/>
	<path class="st0" d="M208.6,298.7L208.6,298.7c0-7.2,5.1-12.8,12.2-12.8c8.4,0,12.2,6.1,12.2,13.2c0,0.5,0,1.2,0,1.7h-16.2
		c0.7,2.6,2.6,4,5.2,4c2,0,3.6-0.8,5.4-2.5l4.7,3.9c-2.3,3-5.7,4.9-10.5,4.9C214,311.3,208.6,306.2,208.6,298.7z M225.1,296.6
		c-0.3-2.7-1.9-4.4-4.2-4.4c-2.2,0-3.8,1.7-4.2,4.4H225.1z"/>
	<path class="st0" d="M236.1,302h8.9v8.7h-8.9V302z"/>
</g>
</svg>
