<?xml version="1.0" encoding="utf-8"?>
<!-- Generator: Adobe Illustrator 25.4.1, SVG Export Plug-In . SVG Version: 6.00 Build 0)  -->
<svg version="1.1" id="Layer_1" xmlns="http://www.w3.org/2000/svg" xmlns:xlink="http://www.w3.org/1999/xlink" x="0px" y="0px"
	 viewBox="0 0 300 600" style="enable-background:new 0 0 300 600;" xml:space="preserve">
<style type="text/css">
	.st0{fill:#490A09;}
</style>
<g>
	<path class="st0" d="M19.3,296.6h24.4v7.4H27.8v5.2h14.4v7H27.8v10.9h-8.5V296.6z"/>
	<path class="st0" d="M47.1,303.5h8.3v4.7c1.4-3.2,3.5-5.3,7.4-5.1v8.7h-0.7c-4.3,0-6.8,2.5-6.8,7.9v7.3h-8.3V303.5z"/>
	<path class="st0" d="M63.5,320.3L63.5,320.3c0-5,3.7-7.5,9.2-7.5c2.2,0,4.3,0.4,5.7,0.9v-0.4c0-2.4-1.5-3.8-4.7-3.8
		c-2.5,0-4.4,0.5-6.5,1.3l-1.7-5.8c2.7-1.1,5.5-1.8,9.5-1.8c4.2,0,7.1,1,9,2.9c1.8,1.7,2.5,4.2,2.5,7.5v13.5h-8.2v-2.4
		c-1.6,1.8-3.8,3-6.9,3C66.9,327.6,63.5,325,63.5,320.3z M78.5,318.5v-1.1c-0.8-0.3-2-0.6-3.2-0.6c-2.4,0-3.8,1.2-3.8,2.9v0.1
		c0,1.6,1.2,2.6,2.9,2.6C76.8,322.4,78.5,320.9,78.5,318.5z"/>
	<path class="st0" d="M90.8,303.5H99v3.3c1.5-2,3.7-3.8,7.1-3.8c5,0,8,3.3,8,8.7v15.4h-8.3v-12.8c0-2.6-1.4-4-3.3-4
		c-2,0-3.5,1.4-3.5,4v12.8h-8.3V303.5z"/>
	<path class="st0" d="M117.4,315.4L117.4,315.4c0-6.8,5.2-12.4,12.6-12.4c4.8,0,8.1,2.1,10.1,5.3l-5.6,4.2c-1.1-1.6-2.4-2.5-4.4-2.5
		c-2.7,0-4.6,2.4-4.6,5.2v0.1c0,3,1.9,5.4,4.7,5.4c2,0,3.2-0.9,4.5-2.4l5.5,4c-2.2,3.2-5.3,5.4-10.5,5.4
		C122.7,327.6,117.4,322.1,117.4,315.4z"/>
	<path class="st0" d="M141.6,315.4L141.6,315.4c0-6.8,5.5-12.4,13.1-12.4c7.5,0,13,5.5,13,12.2v0.1c0,6.7-5.5,12.3-13.1,12.3
		C147.1,327.6,141.6,322.1,141.6,315.4z M159.6,315.4L159.6,315.4c0-3-2.1-5.4-5-5.4c-3,0-4.9,2.4-4.9,5.2v0.1c0,2.9,2.1,5.3,5,5.3
		C157.7,320.6,159.6,318.2,159.6,315.4z"/>
	<path class="st0" d="M171.1,303.5h8.3v3.1c1.6-2,3.6-3.7,7.1-3.7c5.6,0,10.5,4.7,10.5,12.2v0.1c0,7.7-4.8,12.3-10.4,12.3
		c-3.6,0-5.7-1.6-7.2-3.4v9.8h-8.3V303.5z M188.9,315.3L188.9,315.3c0-3.2-2.1-5.4-4.8-5.4c-2.7,0-4.8,2.2-4.8,5.3v0.1
		c0,3.1,2.1,5.4,4.8,5.4C186.7,320.7,188.9,318.5,188.9,315.3z"/>
	<path class="st0" d="M200.6,295.3h8.3v11.5c1.5-2,3.7-3.7,7.1-3.7c5,0,8,3.3,8,8.7v15.4h-8.3v-12.8c0-2.6-1.4-4-3.3-4
		c-2,0-3.5,1.4-3.5,4v12.8h-8.3V295.3z"/>
	<path class="st0" d="M228.2,295.3h8.6v6.1h-8.6V295.3z M228.4,303.5h8.3v23.6h-8.3V303.5z"/>
	<path class="st0" d="M241.5,295.3h8.3v31.8h-8.3V295.3z"/>
	<path class="st0" d="M253.4,315.4L253.4,315.4c0-7,4.9-12.4,11.9-12.4c8.1,0,11.9,6,11.9,12.9c0,0.5,0,1.1,0,1.7h-15.8
		c0.7,2.6,2.5,3.9,5.1,3.9c2,0,3.5-0.7,5.2-2.4l4.6,3.8c-2.3,2.9-5.5,4.8-10.2,4.8C258.6,327.6,253.4,322.7,253.4,315.4z
		 M269.4,313.4c-0.3-2.6-1.8-4.3-4.1-4.3c-2.2,0-3.7,1.7-4.1,4.3H269.4z"/>
	<path class="st0" d="M280.2,318.6h8.6v8.5h-8.6V318.6z"/>
</g>
</svg>
