<?xml version="1.0" encoding="utf-8"?>
<!-- Generator: Adobe Illustrator 25.4.1, SVG Export Plug-In . SVG Version: 6.00 Build 0)  -->
<svg version="1.1" id="Layer_1" xmlns="http://www.w3.org/2000/svg" xmlns:xlink="http://www.w3.org/1999/xlink" x="0px" y="0px"
	 viewBox="0 0 300 600" style="enable-background:new 0 0 300 600;" xml:space="preserve">
<style type="text/css">
	.st0{clip-path:url(#SVGID_00000160168169538866923020000012624542277965538724_);fill:#AC1F2D;}
	.st1{clip-path:url(#SVGID_00000160168169538866923020000012624542277965538724_);fill:#FFFFFF;}
</style>
<g>
	<defs>
		<rect id="SVGID_1_" x="18.4" y="14.5" width="75.3" height="83"/>
	</defs>
	<clipPath id="SVGID_00000160182989569813473650000007302898846797572272_">
		<use xlink:href="#SVGID_1_"  style="overflow:visible;"/>
	</clipPath>
	<path style="clip-path:url(#SVGID_00000160182989569813473650000007302898846797572272_);fill:#AC1F2D;" d="M88.6,55.2
		c0,19.3-15.6,34.9-34.9,34.9c-19.3,0-34.9-15.6-34.9-34.9s15.6-34.9,34.9-34.9C73,20.4,88.6,36,88.6,55.2"/>
	<path style="clip-path:url(#SVGID_00000160182989569813473650000007302898846797572272_);fill:#FFFFFF;" d="M67.6,48.9v4h4.5
		l-5.3,8.4H80v-4.1h-5.6l5.1-8.3H67.6z M41.7,43.9l-4.2,9.4l-4.2-9.4h-5.9v17.3h4.8V52l4.2,9.2h2.1l4.2-9.5v9.5h4.9V43.9H41.7z
		 M60.8,43.9V50h-6.1v-6.1h-5.4v17.3h5.4v-6.9h6.1v6.9h5.4V43.9H60.8z"/>
	<path style="clip-path:url(#SVGID_00000160182989569813473650000007302898846797572272_);fill:#FFFFFF;" d="M67.3,68.3h4.7v-1.4
		h-3.1V66h2.8v-1.3h-2.8v-0.9h3v-1.4h-4.6V68.3z M63.6,68.4c1.3,0,2-0.5,2.5-1.3l-1.2-0.9c-0.3,0.4-0.7,0.7-1.3,0.7
		c-0.8,0-1.4-0.7-1.4-1.5v0c0-0.8,0.6-1.5,1.4-1.5c0.5,0,0.9,0.3,1.3,0.7l1.2-0.9c-0.5-0.7-1.3-1.2-2.4-1.2c-1.7,0-3,1.3-3,3v0
		C60.6,67.2,61.9,68.4,63.6,68.4 M57.7,68.3h1.6v-5.7h-1.6V68.3z M53.2,67c-0.9,0-1.5-0.7-1.5-1.5v0c0-0.8,0.6-1.5,1.4-1.5
		c0.9,0,1.5,0.7,1.5,1.5v0C54.7,66.3,54.1,67,53.2,67 M53.2,68.4c1.8,0,3.1-1.3,3.1-3v0c0-1.6-1.3-3-3.1-3c-1.8,0-3.1,1.3-3.1,3v0
		C50.1,67.1,51.5,68.4,53.2,68.4 M43.6,68.3h1.6v-2.2h2v2.2h1.6v-5.7h-1.6v2.1h-2v-2.1h-1.6V68.3z M39.9,68.4c1.3,0,2-0.5,2.5-1.3
		l-1.2-0.9C40.9,66.7,40.6,67,40,67c-0.8,0-1.4-0.7-1.4-1.5v0c0-0.8,0.6-1.5,1.4-1.5c0.5,0,0.9,0.3,1.3,0.7l1.2-0.9
		c-0.5-0.7-1.3-1.2-2.4-1.2c-1.7,0-3,1.3-3,3v0C37,67.2,38.3,68.4,39.9,68.4"/>
</g>
</svg>
