<?xml version="1.0" encoding="utf-8"?>
<!-- Generator: Adobe Illustrator 25.4.1, SVG Export Plug-In . SVG Version: 6.00 Build 0)  -->
<svg version="1.1" id="Layer_1" xmlns="http://www.w3.org/2000/svg" xmlns:xlink="http://www.w3.org/1999/xlink" x="0px" y="0px"
	 viewBox="0 0 300 50" style="enable-background:new 0 0 300 50;" xml:space="preserve">
<style type="text/css">
	.st0{fill:#490A09;}
</style>
<g>
	<path class="st0" d="M9.5,17.6L9.5,17.6c0-2.9,2.2-5.2,5.2-5.2c2,0,3.3,0.8,4.2,2.1l-2.1,1.6c-0.6-0.7-1.2-1.2-2.2-1.2
		c-1.4,0-2.4,1.2-2.4,2.6v0c0,1.5,1,2.6,2.4,2.6c1,0,1.6-0.5,2.2-1.2l2.1,1.5c-0.9,1.3-2.2,2.2-4.4,2.2C11.8,22.7,9.5,20.6,9.5,17.6
		z"/>
	<path class="st0" d="M19.7,20.3L19.7,20.3c0-1.6,1.2-2.4,3-2.4c0.7,0,1.4,0.1,1.8,0.3v-0.1c0-0.8-0.5-1.2-1.5-1.2
		c-0.8,0-1.4,0.2-2.1,0.4l-0.6-1.9c0.9-0.4,1.8-0.6,3.1-0.6c1.4,0,2.3,0.3,2.9,0.9c0.6,0.6,0.8,1.4,0.8,2.4v4.4h-2.7v-0.8
		c-0.5,0.6-1.2,1-2.2,1C20.8,22.7,19.7,21.9,19.7,20.3z M24.5,19.7v-0.4c-0.3-0.1-0.6-0.2-1-0.2c-0.8,0-1.2,0.4-1.2,0.9v0
		c0,0.5,0.4,0.8,0.9,0.8C24,21,24.5,20.5,24.5,19.7z"/>
	<path class="st0" d="M28.9,20.1V17H28v-2.2h0.9v-1.9h2.7v1.9h1.8V17h-1.8v2.6c0,0.5,0.2,0.8,0.7,0.8c0.4,0,0.7-0.1,1-0.3v2.1
		c-0.5,0.3-1.1,0.4-1.9,0.4C29.9,22.7,28.9,22,28.9,20.1z"/>
	<path class="st0" d="M34,18.7L34,18.7c0-2.2,1.7-4,4.1-4c1.6,0,2.6,0.7,3.3,1.7l-1.8,1.4c-0.4-0.5-0.8-0.8-1.4-0.8
		c-0.9,0-1.5,0.8-1.5,1.7v0c0,1,0.6,1.7,1.5,1.7c0.6,0,1-0.3,1.5-0.8l1.8,1.3c-0.7,1-1.7,1.8-3.4,1.8C35.7,22.7,34,20.9,34,18.7z"/>
	<path class="st0" d="M42.4,12.2h2.7v3.7c0.5-0.6,1.2-1.2,2.3-1.2c1.6,0,2.6,1.1,2.6,2.8v5h-2.7v-4.1c0-0.8-0.4-1.3-1.1-1.3
		c-0.6,0-1.1,0.5-1.1,1.3v4.1h-2.7V12.2z"/>
	<path class="st0" d="M55.7,20.1V17h-0.9v-2.2h0.9v-1.9h2.7v1.9h1.8V17h-1.8v2.6c0,0.5,0.2,0.8,0.7,0.8c0.4,0,0.7-0.1,1-0.3v2.1
		c-0.5,0.3-1.1,0.4-1.9,0.4C56.7,22.7,55.7,22,55.7,20.1z"/>
	<path class="st0" d="M61.4,12.2H64v3.7c0.5-0.6,1.2-1.2,2.3-1.2c1.6,0,2.6,1.1,2.6,2.8v5h-2.7v-4.1c0-0.8-0.4-1.3-1.1-1.3
		c-0.6,0-1.1,0.5-1.1,1.3v4.1h-2.7V12.2z"/>
	<path class="st0" d="M70,18.7L70,18.7c0-2.3,1.6-4,3.9-4c2.6,0,3.9,1.9,3.9,4.2c0,0.2,0,0.4,0,0.6h-5.1c0.2,0.8,0.8,1.3,1.7,1.3
		c0.6,0,1.1-0.2,1.7-0.8l1.5,1.2c-0.7,0.9-1.8,1.6-3.3,1.6C71.7,22.7,70,21.1,70,18.7z M75.2,18.1c-0.1-0.8-0.6-1.4-1.3-1.4
		c-0.7,0-1.2,0.6-1.3,1.4H75.2z"/>
	<path class="st0" d="M82.5,18.7L82.5,18.7c0-2.5,1.6-4,3.4-4c1.2,0,1.8,0.5,2.3,1.1v-3.6h2.7v10.3h-2.7v-1
		c-0.5,0.6-1.2,1.2-2.3,1.2C84.1,22.7,82.5,21.2,82.5,18.7z M88.2,18.7L88.2,18.7c0-1-0.7-1.8-1.6-1.8c-0.9,0-1.6,0.7-1.6,1.7v0
		c0,1,0.7,1.7,1.6,1.7C87.6,20.4,88.2,19.7,88.2,18.7z"/>
	<path class="st0" d="M92.3,14.9H95v1.5c0.4-1,1.1-1.7,2.4-1.7v2.8h-0.2c-1.4,0-2.2,0.8-2.2,2.6v2.4h-2.7V14.9z"/>
	<path class="st0" d="M97.7,20.3L97.7,20.3c0-1.6,1.2-2.4,3-2.4c0.7,0,1.4,0.1,1.8,0.3v-0.1c0-0.8-0.5-1.2-1.5-1.2
		c-0.8,0-1.4,0.2-2.1,0.4l-0.6-1.9c0.9-0.4,1.8-0.6,3.1-0.6c1.4,0,2.3,0.3,2.9,0.9c0.6,0.6,0.8,1.4,0.8,2.4v4.4h-2.7v-0.8
		c-0.5,0.6-1.2,1-2.2,1C98.8,22.7,97.7,21.9,97.7,20.3z M102.5,19.7v-0.4c-0.3-0.1-0.6-0.2-1-0.2c-0.8,0-1.2,0.4-1.2,0.9v0
		c0,0.5,0.4,0.8,0.9,0.8C102,21,102.5,20.5,102.5,19.7z"/>
	<path class="st0" d="M106.5,14.9h2.7v1c0.5-0.6,1.2-1.2,2.3-1.2c1,0,1.8,0.5,2.2,1.2c0.7-0.8,1.4-1.2,2.6-1.2c1.6,0,2.6,1,2.6,2.8
		v5h-2.7v-4.2c0-0.8-0.4-1.3-1-1.3s-1.1,0.4-1.1,1.3v4.2h-2.7v-4.2c0-0.8-0.4-1.3-1-1.3s-1.1,0.4-1.1,1.3v4.2h-2.7V14.9z"/>
	<path class="st0" d="M119.8,20.3L119.8,20.3c0-1.6,1.2-2.4,3-2.4c0.7,0,1.4,0.1,1.8,0.3v-0.1c0-0.8-0.5-1.2-1.5-1.2
		c-0.8,0-1.4,0.2-2.1,0.4l-0.6-1.9c0.9-0.4,1.8-0.6,3.1-0.6c1.4,0,2.3,0.3,2.9,0.9c0.6,0.6,0.8,1.4,0.8,2.4v4.4h-2.7v-0.8
		c-0.5,0.6-1.2,1-2.2,1C121,22.7,119.8,21.9,119.8,20.3z M124.7,19.7v-0.4c-0.3-0.1-0.6-0.2-1-0.2c-0.8,0-1.2,0.4-1.2,0.9v0
		c0,0.5,0.4,0.8,0.9,0.8C124.2,21,124.7,20.5,124.7,19.7z"/>
	<path class="st0" d="M128.6,19.8h2.8v2.8h-2.8V19.8z"/>
</g>
</svg>
