<?xml version="1.0" encoding="utf-8"?>
<!-- Generator: Adobe Illustrator 25.4.1, SVG Export Plug-In . SVG Version: 6.00 Build 0)  -->
<svg version="1.1" id="Layer_1" xmlns="http://www.w3.org/2000/svg" xmlns:xlink="http://www.w3.org/1999/xlink" x="0px" y="0px"
	 viewBox="0 0 300 50" style="enable-background:new 0 0 300 50;" xml:space="preserve">
<style type="text/css">
	.st0{fill:#490A09;}
</style>
<g>
	<path class="st0" d="M12.3,21.7H7.5v-3.8h13.9v3.8h-4.7v12h-4.4V21.7z"/>
	<path class="st0" d="M22,17.9h4.9l3.6,10l3.6-10h4.8l-6.4,15.9h-4.1L22,17.9z"/>
	<path class="st0" d="M46,27.6L46,27.6c0-3.5,2.7-6.4,6.5-6.4c2.5,0,4.2,1.1,5.2,2.7l-2.9,2.2c-0.6-0.8-1.2-1.3-2.3-1.3
		c-1.4,0-2.4,1.2-2.4,2.7v0c0,1.6,1,2.8,2.4,2.8c1,0,1.7-0.5,2.3-1.3l2.9,2.1C56.6,32.8,55,34,52.3,34C48.7,34,46,31.1,46,27.6z"/>
	<path class="st0" d="M59.3,21.5h4.3v2.5c0.7-1.7,1.8-2.8,3.9-2.7v4.5h-0.4c-2.2,0-3.5,1.3-3.5,4.1v3.8h-4.3V21.5z"/>
	<path class="st0" d="M68.9,17.2h4.5v3.2h-4.5V17.2z M69,21.5h4.3v12.2H69V21.5z"/>
	<path class="st0" d="M76.5,29.9v-5H75v-3.5h1.4v-3.1h4.3v3.1h2.8v3.5h-2.8V29c0,0.9,0.4,1.2,1.2,1.2c0.6,0,1.1-0.2,1.6-0.4v3.4
		c-0.8,0.4-1.8,0.7-3,0.7C78,33.9,76.5,32.8,76.5,29.9z"/>
	<path class="st0" d="M85.4,17.2h4.5v3.2h-4.5V17.2z M85.5,21.5h4.3v12.2h-4.3V21.5z"/>
	<path class="st0" d="M91.7,27.6L91.7,27.6c0-3.5,2.7-6.4,6.5-6.4c2.5,0,4.2,1.1,5.2,2.7l-2.9,2.2c-0.6-0.8-1.2-1.3-2.3-1.3
		c-1.4,0-2.4,1.2-2.4,2.7v0c0,1.6,1,2.8,2.4,2.8c1,0,1.7-0.5,2.3-1.3l2.9,2.1c-1.1,1.7-2.8,2.8-5.4,2.8C94.4,34,91.7,31.1,91.7,27.6
		z"/>
	<path class="st0" d="M104.1,32.1l1.6-2.6c1.4,0.9,2.9,1.4,4.2,1.4c0.7,0,1.1-0.2,1.1-0.7v0c0-0.5-0.7-0.7-2-1
		c-2.4-0.6-4.3-1.4-4.3-3.9v0c0-2.6,2.1-4,4.9-4c1.8,0,3.6,0.5,5,1.4l-1.5,2.7c-1.3-0.7-2.6-1.1-3.6-1.1c-0.7,0-1,0.2-1,0.6v0
		c0,0.5,0.7,0.7,2,1.1c2.4,0.7,4.3,1.5,4.3,3.9v0c0,2.7-2,4.1-5,4.1C107.9,33.9,105.8,33.3,104.1,32.1z"/>
	<path class="st0" d="M122.4,27.6L122.4,27.6c0-3.5,2.7-6.4,6.5-6.4c2.5,0,4.2,1.1,5.2,2.7l-2.9,2.2c-0.6-0.8-1.2-1.3-2.3-1.3
		c-1.4,0-2.4,1.2-2.4,2.7v0c0,1.6,1,2.8,2.4,2.8c1,0,1.7-0.5,2.3-1.3l2.9,2.1c-1.1,1.7-2.8,2.8-5.4,2.8
		C125.1,34,122.4,31.1,122.4,27.6z"/>
	<path class="st0" d="M135.7,17.2h4.3v5.9c0.8-1,1.9-1.9,3.7-1.9c2.6,0,4.2,1.7,4.2,4.5v8h-4.3v-6.6c0-1.3-0.7-2.1-1.7-2.1
		c-1,0-1.8,0.7-1.8,2.1v6.6h-4.3V17.2z"/>
	<path class="st0" d="M149.6,27.6L149.6,27.6c0-3.6,2.6-6.4,6.2-6.4c4.2,0,6.2,3.1,6.2,6.7c0,0.3,0,0.6,0,0.9h-8.2
		c0.3,1.3,1.3,2,2.6,2c1,0,1.8-0.4,2.7-1.2l2.4,2c-1.2,1.5-2.9,2.5-5.3,2.5C152.3,34,149.6,31.4,149.6,27.6z M157.9,26.6
		c-0.2-1.4-0.9-2.2-2.1-2.2c-1.1,0-1.9,0.9-2.1,2.2H157.9z"/>
	<path class="st0" d="M163.2,27.6L163.2,27.6c0-3.6,2.6-6.4,6.2-6.4c4.2,0,6.2,3.1,6.2,6.7c0,0.3,0,0.6,0,0.9h-8.2
		c0.3,1.3,1.3,2,2.6,2c1,0,1.8-0.4,2.7-1.2l2.4,2c-1.2,1.5-2.9,2.5-5.3,2.5C165.9,34,163.2,31.4,163.2,27.6z M171.5,26.6
		c-0.2-1.4-0.9-2.2-2.1-2.2c-1.1,0-1.9,0.9-2.1,2.2H171.5z"/>
	<path class="st0" d="M177.4,21.5h4.3v2.5c0.7-1.7,1.8-2.8,3.9-2.7v4.5h-0.4c-2.2,0-3.5,1.3-3.5,4.1v3.8h-4.3V21.5z"/>
	<path class="st0" d="M186.3,27.6L186.3,27.6c0-3.6,2.6-6.4,6.2-6.4c4.2,0,6.2,3.1,6.2,6.7c0,0.3,0,0.6,0,0.9h-8.2
		c0.3,1.3,1.3,2,2.6,2c1,0,1.8-0.4,2.7-1.2l2.4,2c-1.2,1.5-2.9,2.5-5.3,2.5C189,34,186.3,31.4,186.3,27.6z M194.6,26.6
		c-0.2-1.4-0.9-2.2-2.1-2.2c-1.1,0-1.9,0.9-2.1,2.2H194.6z"/>
	<path class="st0" d="M200,27.6L200,27.6c0-4,2.5-6.4,5.4-6.4c1.9,0,2.9,0.8,3.7,1.8v-5.8h4.3v16.5h-4.3V32c-0.8,1-1.9,1.9-3.7,1.9
		C202.5,33.9,200,31.5,200,27.6z M209.2,27.6L209.2,27.6c0-1.6-1.1-2.8-2.5-2.8s-2.5,1.1-2.5,2.8v0c0,1.6,1.1,2.8,2.5,2.8
		S209.2,29.2,209.2,27.6z"/>
	<path class="st0" d="M215.5,29.3h4.5v4.4h-4.5V29.3z"/>
</g>
</svg>
