<?xml version="1.0" encoding="utf-8"?>
<!-- Generator: Adobe Illustrator 25.4.1, SVG Export Plug-In . SVG Version: 6.00 Build 0)  -->
<svg version="1.1" id="Layer_1" xmlns="http://www.w3.org/2000/svg" xmlns:xlink="http://www.w3.org/1999/xlink" x="0px" y="0px"
	 viewBox="0 0 300 50" style="enable-background:new 0 0 300 50;" xml:space="preserve">
<style type="text/css">
	.st0{fill:#490A09;}
</style>
<g>
	<path class="st0" d="M15.1,27h2.7l1.5,10h-2.9l-0.2-1.8h-3.8L11.2,37h-3L15.1,27z M16,33.1l-0.4-2.8l-1.9,2.8H16z"/>
	<path class="st0" d="M26.6,27.1h7.9l-0.6,2.4h-5.2l-0.5,1.7h4.7l-0.6,2.3h-4.7L26.7,37h-2.8L26.6,27.1z"/>
	<path class="st0" d="M35.1,29.3h2.7l-0.4,1.5c0.7-1.1,1.6-1.8,2.9-1.7L39.5,32h-0.2c-1.5,0-2.4,0.8-2.9,2.6L35.7,37H33L35.1,29.3z"
		/>
	<path class="st0" d="M43.7,35.1c0.6,0,1-0.2,1.6-0.6l1.2,1.5c-0.8,0.7-1.8,1.1-3.1,1.1c-2.3,0-3.6-1.3-3.6-3.4
		c0-2.3,1.8-4.6,4.6-4.6c2.3,0,3.2,1.5,3.2,3.2c0,0.5-0.1,1.1-0.3,1.6h-5.1C42.3,34.7,42.8,35.1,43.7,35.1z M45.2,32.5
		c0-0.1,0.1-0.3,0.1-0.4c0-0.5-0.3-1-1-1c-0.7,0-1.4,0.5-1.8,1.4H45.2z"/>
	<path class="st0" d="M49.6,29.3h2.7l-0.2,0.9c0.5-0.6,1.3-1,2.2-1c1.4,0,2.2,0.9,2.2,2.3c0,0.4-0.1,0.9-0.2,1.4L55.2,37h-2.7l1.1-4
		c0.1-0.2,0.1-0.5,0.1-0.6c0-0.5-0.3-0.8-0.8-0.8c-0.7,0-1.2,0.5-1.4,1.4l-1.1,4h-2.7L49.6,29.3z"/>
	<path class="st0" d="M57.2,33.8c0-2.6,2-4.6,4.6-4.6c1.8,0,2.8,0.9,3.2,2.1l-2.1,1.1c-0.3-0.6-0.6-1-1.3-1c-1,0-1.8,1.1-1.8,2.3
		c0,0.8,0.5,1.3,1.2,1.3c0.6,0,1-0.2,1.4-0.7l1.6,1.4c-0.8,0.9-1.7,1.5-3.3,1.5C58.7,37.2,57.2,35.9,57.2,33.8z"/>
	<path class="st0" d="M67.2,26.7h2.7L69,30.2c0.5-0.6,1.3-1,2.2-1c1.4,0,2.2,0.9,2.2,2.3c0,0.4-0.1,0.9-0.2,1.4L72,37h-2.7l1.1-4
		c0.1-0.2,0.1-0.5,0.1-0.6c0-0.5-0.3-0.8-0.8-0.8c-0.7,0-1.2,0.5-1.4,1.4l-1.1,4h-2.7L67.2,26.7z"/>
	<path class="st0" d="M79.1,27.1h3l0.6,6.2l3.9-6.2h3.1L83,37h-2.6L79.1,27.1z"/>
	<path class="st0" d="M89.7,29.3h2.7l-2,7.6h-2.7L89.7,29.3z M90.4,26.7h2.8l-0.5,2h-2.8L90.4,26.7z"/>
	<path class="st0" d="M94.7,26.7h2.7L94.6,37h-2.7L94.7,26.7z"/>
	<path class="st0" d="M98.9,26.7h2.7L98.9,37h-2.7L98.9,26.7z"/>
	<path class="st0" d="M100.7,35c0-1.7,1.3-2.7,3.4-2.7c0.7,0,1.3,0.1,1.9,0.3l0-0.1c0-0.1,0.1-0.3,0.1-0.5c0-0.5-0.4-0.8-1.3-0.8
		c-0.7,0-1.5,0.2-2.1,0.4l-0.4-1.9c0.8-0.3,1.9-0.5,3-0.5c2.3,0,3.4,0.9,3.4,2.4c0,0.4-0.1,0.7-0.2,1.1l-1.1,4.2h-2.6l0.2-0.8
		c-0.6,0.6-1.3,1-2.2,1C101.6,37.1,100.7,36.3,100.7,35z M105.6,34.1l0.1-0.3c-0.3-0.1-0.6-0.2-1-0.2c-0.8,0-1.4,0.4-1.4,1.1
		c0,0.4,0.3,0.7,0.8,0.7C104.8,35.5,105.4,34.9,105.6,34.1z"/>
	<path class="st0" d="M108.4,38.2l1.2-1.7c0.9,0.5,1.9,0.8,2.7,0.8c0.7,0,1.2-0.2,1.6-0.6c0.3-0.3,0.5-0.7,0.6-1.2l0-0.2
		c-0.7,0.6-1.4,0.9-2.3,0.9c-1.4,0-2.7-0.9-2.7-2.6c0-2.4,1.7-4.5,4-4.5c1.2,0,1.9,0.6,2.3,1.2l0.3-1.1h2.7l-1.6,6.1
		c-0.4,1.4-0.7,2.1-1.4,2.7c-0.8,0.7-1.8,1.1-3.4,1.1C111,39.3,109.4,38.8,108.4,38.2z M115.3,32.5c0-0.7-0.5-1.2-1.3-1.2
		c-1,0-1.8,0.9-1.8,1.9c0,0.7,0.5,1.2,1.2,1.2C114.5,34.4,115.3,33.5,115.3,32.5z"/>
	<path class="st0" d="M122.8,35.1c0.6,0,1-0.2,1.6-0.6l1.2,1.5c-0.8,0.7-1.8,1.1-3.1,1.1c-2.3,0-3.6-1.3-3.6-3.4
		c0-2.3,1.8-4.6,4.6-4.6c2.3,0,3.2,1.5,3.2,3.2c0,0.5-0.1,1.1-0.3,1.6h-5.1C121.5,34.7,121.9,35.1,122.8,35.1z M124.3,32.5
		c0-0.1,0.1-0.3,0.1-0.4c0-0.5-0.3-1-1-1c-0.7,0-1.4,0.5-1.8,1.4H124.3z"/>
</g>
<g>
	<path class="st0" d="M127.3,38.3c0.9-0.1,1.4-0.6,1.4-1.3h-1.1v-2.8h2.8v2.2c0,2.1-1.1,2.8-2.9,2.9L127.3,38.3z"/>
</g>
<g>
	<path class="st0" d="M135.4,33.2L135.4,33.2c0-2.2,1.8-4,4.2-4c2.4,0,4.2,1.8,4.2,4v0c0,2.2-1.8,4-4.2,4
		C137.1,37.2,135.4,35.4,135.4,33.2z M141.2,33.2L141.2,33.2c0-1-0.7-1.8-1.6-1.8c-1,0-1.6,0.8-1.6,1.7v0c0,0.9,0.7,1.7,1.6,1.7
		C140.6,34.9,141.2,34.1,141.2,33.2z"/>
	<path class="st0" d="M145,29.3h2.7v1.1c0.5-0.6,1.2-1.2,2.3-1.2c1.6,0,2.6,1.1,2.6,2.8v5h-2.7v-4.1c0-0.8-0.4-1.3-1.1-1.3
		c-0.6,0-1.1,0.5-1.1,1.3V37H145V29.3z"/>
	<path class="st0" d="M158,27.1h2.9l2.4,3.8l2.4-3.8h2.9V37h-2.7v-5.7l-2.5,3.9h-0.1l-2.5-3.8V37H158V27.1z"/>
	<path class="st0" d="M170.3,27.1h2.7v3.7h3.5v-3.7h2.7V37h-2.7v-3.8H173V37h-2.7V27.1z"/>
	<path class="st0" d="M180.6,35.2l3.5-3.7h-3.4v-2.1h7v1.8l-3.5,3.7h3.5V37h-7.1V35.2z"/>
	<path class="st0" d="M192.5,32.1L192.5,32.1c0-2.9,2.2-5.2,5.2-5.2c2,0,3.3,0.8,4.2,2.1l-2.1,1.6c-0.6-0.7-1.2-1.2-2.2-1.2
		c-1.4,0-2.4,1.2-2.4,2.6v0c0,1.5,1,2.6,2.4,2.6c1,0,1.6-0.5,2.2-1.2l2.1,1.5c-0.9,1.3-2.2,2.2-4.4,2.2
		C194.8,37.2,192.5,35,192.5,32.1z"/>
	<path class="st0" d="M203.1,26.7h2.7v3.7c0.5-0.6,1.2-1.2,2.3-1.2c1.6,0,2.6,1.1,2.6,2.8v5h-2.7v-4.1c0-0.8-0.4-1.3-1.1-1.3
		c-0.6,0-1.1,0.5-1.1,1.3V37h-2.7V26.7z"/>
	<path class="st0" d="M211.7,33.2L211.7,33.2c0-2.2,1.8-4,4.2-4c2.4,0,4.2,1.8,4.2,4v0c0,2.2-1.8,4-4.2,4
		C213.5,37.2,211.7,35.4,211.7,33.2z M217.5,33.2L217.5,33.2c0-1-0.7-1.8-1.6-1.8c-1,0-1.6,0.8-1.6,1.7v0c0,0.9,0.7,1.7,1.6,1.7
		C216.9,34.9,217.5,34.1,217.5,33.2z"/>
	<path class="st0" d="M221.3,26.7h2.8v2h-2.8V26.7z M221.3,29.3h2.7V37h-2.7V29.3z"/>
	<path class="st0" d="M225.2,33.2L225.2,33.2c0-2.2,1.7-4,4.1-4c1.6,0,2.6,0.7,3.3,1.7l-1.8,1.4c-0.4-0.5-0.8-0.8-1.4-0.8
		c-0.9,0-1.5,0.8-1.5,1.7v0c0,1,0.6,1.7,1.5,1.7c0.6,0,1-0.3,1.5-0.8l1.8,1.3c-0.7,1-1.7,1.8-3.4,1.8
		C226.9,37.2,225.2,35.3,225.2,33.2z"/>
	<path class="st0" d="M233.1,33.2L233.1,33.2c0-2.3,1.6-4,3.9-4c2.6,0,3.9,1.9,3.9,4.2c0,0.2,0,0.4,0,0.6h-5.1
		c0.2,0.8,0.8,1.3,1.7,1.3c0.6,0,1.1-0.2,1.7-0.8l1.5,1.2c-0.7,0.9-1.8,1.6-3.3,1.6C234.8,37.2,233.1,35.6,233.1,33.2z M238.3,32.5
		c-0.1-0.8-0.6-1.4-1.3-1.4c-0.7,0-1.2,0.6-1.3,1.4H238.3z"/>
	<path class="st0" d="M241.7,34.2h2.8V37h-2.8V34.2z"/>
</g>
</svg>
