<svg id="Layer_1" xmlns="http://www.w3.org/2000/svg" viewBox="0 0 336 280"><style>.st0{fill:#490a09}</style><path class="st0" d="M19.1 110.9h15.3c3.8 0 6.4.9 8.1 2.7 1.2 1.2 1.9 2.8 1.9 4.8v.1c0 3.5-2 5.5-4.6 6.7 3.6 1.2 5.9 3.2 5.9 7.3v.1c0 5.1-4.2 8.2-11.3 8.2H19.1v-29.9zm13.3 11.9c2.5 0 3.9-.9 3.9-2.6v-.1c0-1.6-1.3-2.6-3.8-2.6h-5.4v5.2h5.3zm1.2 11.3c2.5 0 4-1 4-2.7v-.1c0-1.6-1.3-2.7-4-2.7h-6.3v5.5h6.3zM48.2 129.3c0-6.8 4.8-12.2 11.6-12.2 8 0 11.6 5.8 11.6 12.6v1.7H56c.6 2.5 2.5 3.8 5 3.8 1.9 0 3.5-.7 5.1-2.3l4.5 3.7c-2.2 2.8-5.4 4.7-10 4.7-7.3 0-12.4-4.8-12.4-12zm15.7-2c-.3-2.6-1.8-4.2-4-4.2-2.1 0-3.6 1.7-4 4.2h8zM74.9 109.6H83v11.2c1.5-1.9 3.6-3.7 6.9-3.7 4.9 0 7.8 3.2 7.8 8.5v15.1h-8.1v-12.5c0-2.5-1.3-3.9-3.2-3.9-2 0-3.4 1.4-3.4 3.9v12.5h-8.1v-31.1zM102 109.6h8.4v6H102v-6zm.1 8.1h8.1v23.1h-8.1v-23.1zM114.8 117.7h8.1v3.2c1.5-1.9 3.6-3.8 6.9-3.8 4.9 0 7.8 3.2 7.8 8.5v15.1h-8.1v-12.5c0-2.5-1.3-3.9-3.2-3.9-2 0-3.4 1.4-3.4 3.9v12.5h-8.1v-23zM140.9 129.3c0-7.6 4.7-12.2 10.1-12.2 3.5 0 5.5 1.6 7.1 3.3v-10.9h8.1v31.1h-8.1v-3.1c-1.6 1.9-3.6 3.6-7 3.6-5.4.2-10.2-4.4-10.2-11.8zm17.4-.1c0-3.1-2.1-5.3-4.7-5.3s-4.7 2.1-4.7 5.2v.1c0 3.1 2.1 5.2 4.7 5.2 2.6.1 4.7-2.1 4.7-5.2zM181.5 129.3c0-6.8 4.8-12.2 11.6-12.2 8 0 11.6 5.8 11.6 12.6v1.7h-15.4c.6 2.5 2.5 3.8 5 3.8 1.9 0 3.5-.7 5.1-2.3l4.5 3.7c-2.2 2.8-5.4 4.7-10 4.7-7.3 0-12.4-4.8-12.4-12zm15.7-2c-.3-2.6-1.8-4.2-4-4.2-2.1 0-3.6 1.7-4 4.2h8zM205.4 117.7h8.5l4.4 13.5 4.4-13.5h8.4l-9.2 23.2h-7.4l-9.1-23.2zM231.6 129.3c0-6.8 4.8-12.2 11.6-12.2 8 0 11.6 5.8 11.6 12.6v1.7h-15.4c.6 2.5 2.5 3.8 5 3.8 1.9 0 3.5-.7 5.1-2.3l4.5 3.7c-2.2 2.8-5.4 4.7-10 4.7-7.3 0-12.4-4.8-12.4-12zm15.6-2c-.3-2.6-1.8-4.2-4-4.2-2.1 0-3.6 1.7-4 4.2h8zM258.3 117.7h8.1v4.6c1.3-3.2 3.5-5.2 7.3-5v8.5h-.7c-4.2 0-6.6 2.4-6.6 7.8v7.2h-8.1v-23.1zM275.9 145.7l2.5-5.7c1.3.8 2.6 1.2 3.5 1.2.8 0 1.4-.2 1.9-.9l-9-22.6h8.5l4.6 13.9 4.3-13.9h8.3l-8.4 22.5c-2 5.4-4.2 7.5-8.8 7.5-2.8 0-5.2-.8-7.4-2z"/><g><path class="st0" d="M18.7 157.7h8.1v3.1c1.6-1.9 3.5-3.6 7-3.6 5.5 0 10.2 4.6 10.2 11.9v.1c0 7.5-4.7 12.1-10.2 12.1-3.5 0-5.5-1.6-7-3.3v9.6h-8.1v-29.9zM36 169.2c0-3.1-2.1-5.3-4.7-5.3s-4.7 2.2-4.7 5.2v.1c0 3.1 2.1 5.2 4.7 5.2 2.6.1 4.7-2.1 4.7-5.2zM46.6 169.3c0-6.8 4.8-12.2 11.6-12.2 8 0 11.6 5.8 11.6 12.6v1.7H54.4c.6 2.5 2.5 3.8 5 3.8 1.9 0 3.5-.7 5.1-2.3l4.5 3.7c-2.2 2.8-5.4 4.7-10 4.7-7.3 0-12.4-4.8-12.4-12zm15.6-2c-.3-2.6-1.8-4.2-4-4.2-2.1 0-3.6 1.7-4 4.2h8zM73.3 157.7h8.1v4.6c1.3-3.2 3.5-5.2 7.3-5v8.5H88c-4.2 0-6.6 2.4-6.6 7.8v7.2h-8.1v-23.1zM93.8 164.2h-2.7v-6.4h2.7v-.5c0-2.6.6-4.6 2-6 1.4-1.4 3.3-2 6-2 2.5 0 4 .3 5.3.6v5.7c-.9-.3-1.9-.5-3-.5-1.5 0-2.3.7-2.3 2.2v.6h5.3v6.2h-5.2v16.6h-8.1v-16.5zM108.3 169.3c0-6.8 4.8-12.2 11.6-12.2 8 0 11.6 5.8 11.6 12.6v1.7h-15.4c.6 2.5 2.5 3.8 5 3.8 1.9 0 3.5-.7 5.1-2.3l4.5 3.7c-2.2 2.8-5.4 4.7-10 4.7-7.3 0-12.4-4.8-12.4-12zm15.7-2c-.3-2.6-1.8-4.2-4-4.2-2.1 0-3.6 1.7-4 4.2h8zM134.1 169.3c0-6.6 5.1-12.1 12.4-12.1 4.7 0 7.9 2 9.8 5.2l-5.5 4.1c-1.1-1.5-2.3-2.4-4.3-2.4-2.6 0-4.5 2.3-4.5 5.1v.1c0 3 1.9 5.2 4.6 5.2 1.9 0 3.2-.9 4.4-2.4l5.4 3.9c-2.1 3.2-5.2 5.3-10.3 5.3-6.9 0-12-5.5-12-12zM160.7 173.6v-9.4H158v-6.5h2.7v-5.8h8.1v5.8h5.4v6.5h-5.4v7.8c0 1.6.7 2.3 2.2 2.3 1.1 0 2.1-.3 3.1-.8v6.4c-1.4.8-3.4 1.3-5.6 1.3-4.9 0-7.8-2.1-7.8-7.6zM189.6 149.6h8.1v31.1h-8.1v-31.1zM202.2 149.6h8.4v6h-8.4v-6zm.2 8.1h8.1v23.1h-8.1v-23.1zM216.5 164.2h-2.7v-6.4h2.7v-.5c0-2.6.6-4.6 2-6 1.4-1.4 3.3-2 6-2 2.5 0 4 .3 5.3.6v5.7c-.9-.3-1.9-.5-3-.5-1.5 0-2.3.7-2.3 2.2v.6h5.3v6.2h-5.2v16.6h-8.1v-16.5zM230.9 169.3c0-6.8 4.8-12.2 11.6-12.2 8 0 11.6 5.8 11.6 12.6v1.7h-15.4c.6 2.5 2.5 3.8 5 3.8 1.9 0 3.5-.7 5.1-2.3l4.5 3.7c-2.2 2.8-5.4 4.7-10 4.7-7.3 0-12.4-4.8-12.4-12zm15.7-2c-.3-2.6-1.8-4.2-4-4.2-2.1 0-3.6 1.7-4 4.2h8z"/></g></svg>