<svg id="Layer_1" xmlns="http://www.w3.org/2000/svg" viewBox="0 0 336 280"><style>.st0{fill:#490a09}</style><path class="st0" d="M17.8 104.4c0-9.2 7.5-17.2 18.4-17.2 5.8 0 9.9 2.3 11.9 4.9l-5.3 5.2c-1.7-1.7-4-3-7.1-3-5.8 0-9.8 4.5-9.8 9.8 0 4 2.9 6.1 6.4 6.1 1.6 0 2.8-.3 3.8-.8l1.2-3.9h-5.5l1.5-5.8h13.2l-4.1 14.5c-2.8 1.6-6.5 2.9-10.8 2.9-6.8-.1-13.8-3.9-13.8-12.7zM54.4 86.5h7.8l-8.1 30h-7.8l8.1-30zM60.7 106.7c0-6.7 5.6-12.9 13.1-12.9 6.8 0 10.9 4.5 10.9 10.3 0 6.7-5.6 12.9-13.1 12.9-6.8 0-10.9-4.5-10.9-10.3zm16.5-2.3c0-2.5-1.6-4.1-3.9-4.1-3.1 0-5.2 3.2-5.2 6.1 0 2.5 1.6 4.1 3.9 4.1 3.1 0 5.2-3.2 5.2-6.1zM91 94.3h7.8l-1.2 4.5c2.1-3.2 4.7-5.1 8.3-4.8l-2.2 8.2h-.7c-4.3 0-7 2.4-8.4 7.7l-1.8 6.7H85l6-22.3zM108.8 94.3h7.8l-6 22.2h-7.8l6-22.2zm2-7.8h8.1l-1.6 5.8h-8.1l1.6-5.8zM116 110.9c0-4.9 3.9-7.8 9.8-7.8 2 0 3.9.3 5.6.9l.1-.3c.1-.4.2-.8.2-1.4 0-1.4-1.1-2.4-3.8-2.4-2.1 0-4.4.5-6 1.1l-1.1-5.7c2.3-.8 5.5-1.4 8.7-1.4 6.7 0 9.9 2.6 9.9 7.1 0 1-.2 2.1-.5 3.2l-3.3 12.2H128l.6-2.4c-1.9 1.8-3.8 2.8-6.4 2.8-3.7.1-6.2-2.2-6.2-5.9zm14.3-2.8l.2-.7c-.9-.3-1.8-.5-2.9-.5-2.5 0-4.1 1.2-4.1 3.2 0 1.3.9 2.1 2.2 2.1 2.1-.1 4-1.8 4.6-4.1z"/><g><path class="st0" d="M142.2 108.5h8.1v8h-8.1v-8z"/></g></svg>