<svg id="Layer_1" xmlns="http://www.w3.org/2000/svg" viewBox="0 0 336 280"><style>.st0{fill:#490a09}</style><path class="st0" d="M25.3 141.5h-8.6v-7h25.2v7h-8.6v21.8h-8v-21.8zM45 133.3h7.8v10.8c1.4-1.8 3.5-3.5 6.7-3.5 4.7 0 7.6 3.1 7.6 8.2v14.5h-7.8v-12c0-2.4-1.3-3.7-3.1-3.7-1.9 0-3.3 1.3-3.3 3.7v12H45v-30zM70.1 152.3c0-6.6 4.6-11.7 11.2-11.7 7.7 0 11.2 5.6 11.2 12.2v1.6H77.6c.6 2.4 2.4 3.7 4.8 3.7 1.8 0 3.3-.7 4.9-2.3l4.3 3.6c-2.1 2.7-5.2 4.5-9.7 4.5-6.9-.1-11.8-4.7-11.8-11.6zm15.1-1.9c-.3-2.5-1.7-4-3.9-4-2.1 0-3.5 1.6-3.9 4h7.8zM107.2 141.1h7.8v3.1c1.4-1.8 3.5-3.6 6.7-3.6 4.7 0 7.6 3.1 7.6 8.2v14.5h-7.8v-12c0-2.4-1.3-3.7-3.1-3.7-1.9 0-3.3 1.3-3.3 3.7v12h-7.8v-22.2zM132.4 152.3c0-6.6 4.6-11.7 11.2-11.7 7.7 0 11.2 5.6 11.2 12.2v1.6h-14.9c.6 2.4 2.4 3.7 4.8 3.7 1.8 0 3.3-.7 4.9-2.3l4.3 3.6c-2.1 2.7-5.2 4.5-9.7 4.5-6.9-.1-11.8-4.7-11.8-11.6zm15.1-1.9c-.3-2.5-1.7-4-3.9-4-2.1 0-3.5 1.6-3.9 4h7.8zM155.6 141.1h7.6l2.9 11.2 3.4-11.3h6.4l3.5 11.3 3-11.3h7.5l-6.9 22.4h-6.7l-3.6-11.5-3.7 11.5h-6.7l-6.7-22.3z"/><g><path class="st0" d="M18.3 172.4h23v7h-15v4.9h13.6v6.6H26.3v10.3h-8v-28.8zM44.5 178.9h7.8v4.5c1.3-3 3.3-5 7-4.8v8.2h-.7c-4.1 0-6.4 2.3-6.4 7.5v6.9h-7.8v-22.3zM60.7 190.1c0-6.6 4.6-11.7 11.2-11.7 7.7 0 11.2 5.6 11.2 12.2v1.6H68.3c.6 2.4 2.4 3.7 4.8 3.7 1.8 0 3.3-.7 4.9-2.3l4.3 3.6c-2.1 2.7-5.2 4.5-9.7 4.5-6.9 0-11.9-4.7-11.9-11.6zm15.2-1.9c-.3-2.5-1.7-4-3.9-4-2.1 0-3.5 1.6-3.9 4h7.8zM86.5 178.9h7.8v3.1c1.4-1.8 3.5-3.6 6.7-3.6 4.7 0 7.6 3.1 7.6 8.2v14.5h-7.8v-12c0-2.4-1.3-3.7-3.1-3.7-1.9 0-3.3 1.3-3.3 3.7v12h-7.8v-22.2zM111.6 190.1c0-6.4 4.9-11.7 11.9-11.7 4.6 0 7.6 2 9.5 5l-5.3 3.9c-1.1-1.5-2.3-2.3-4.1-2.3-2.5 0-4.4 2.2-4.4 4.9v.1c0 2.9 1.8 5.1 4.4 5.1 1.8 0 3-.9 4.3-2.3l5.2 3.8c-2.1 3-5 5.1-9.9 5.1-6.6 0-11.6-5.3-11.6-11.6zM135.9 171.2h7.8V182c1.4-1.8 3.5-3.5 6.7-3.5 4.7 0 7.6 3.1 7.6 8.2v14.5h-7.8v-12c0-2.4-1.3-3.7-3.1-3.7-1.9 0-3.3 1.3-3.3 3.7v12H136v-30zM174.7 194.2v-9h-2.6v-6.3h2.6v-5.6h7.8v5.6h5.2v6.3h-5.2v7.5c0 1.6.7 2.2 2.1 2.2 1 0 2-.3 3-.7v6.1c-1.4.8-3.2 1.3-5.4 1.3-4.7 0-7.5-2.1-7.5-7.4zM191.1 171.2h7.8V182c1.4-1.8 3.5-3.5 6.7-3.5 4.7 0 7.6 3.1 7.6 8.2v14.5h-7.8v-12c0-2.4-1.3-3.7-3.1-3.7-1.9 0-3.3 1.3-3.3 3.7v12h-7.8v-30zM217.1 178.9h7.8v4.5c1.3-3 3.3-5 7-4.8v8.2h-.7c-4.1 0-6.4 2.3-6.4 7.5v6.9H217v-22.3zM234.7 171.2h8.1v5.8h-8.1v-5.8zm.1 7.7h7.8v22.2h-7.8v-22.2zM247.2 171.2h7.8v30h-7.8v-30zM259.5 171.2h7.8v30h-7.8v-30zM270.7 190.1c0-6.6 4.6-11.7 11.2-11.7 7.7 0 11.2 5.6 11.2 12.2v1.6h-14.9c.6 2.4 2.4 3.7 4.8 3.7 1.8 0 3.3-.7 4.9-2.3l4.3 3.6c-2.1 2.7-5.2 4.5-9.7 4.5-6.8 0-11.8-4.7-11.8-11.6zm15.2-1.9c-.3-2.5-1.7-4-3.9-4-2.1 0-3.5 1.6-3.9 4h7.8zM296.5 178.9h7.8v4.5c1.3-3 3.3-5 7-4.8v8.2h-.7c-4.1 0-6.4 2.3-6.4 7.5v6.9h-7.8v-22.3zM311.1 193.1h8.1v8h-8.1v-8z"/></g></svg>