<svg id="Layer_1" xmlns="http://www.w3.org/2000/svg" xmlns:xlink="http://www.w3.org/1999/xlink" viewBox="0 0 336 280"><style>.st0,.st1{clip-path:url(#SVGID_00000049205697767778024240000012046265235377756049_);fill:#ac1f2d}.st1{fill:#fff}</style><defs><path id="SVGID_1_" d="M13.5 10h54.7v55.2H13.5z"/></defs><clipPath id="SVGID_00000071524322674719476350000003224637515006405266_"><use xlink:href="#SVGID_1_" overflow="visible"/></clipPath><path d="M64.7 37c0 12.8-10.4 23.2-23.2 23.2S18.4 49.8 18.4 37c0-12.8 10.4-23.2 23.2-23.2S64.7 24.2 64.7 37" clip-path="url(#SVGID_00000071524322674719476350000003224637515006405266_)" fill="#ac1f2d"/><path d="M50.8 32.8v2.6h3L50.3 41H59v-2.7h-3.8l3.4-5.5h-7.8zm-17.2-3.3l-2.8 6.3-2.8-6.3h-3.9V41h3.2v-6.1l2.8 6.1h1.4l2.8-6.3V41h3.2V29.5h-3.9zm12.7 0v4.1h-4.1v-4.1h-3.6V41h3.6v-4.6h4.1V41h3.6V29.5h-3.6zM50.6 45.7h3.1v-.9h-2v-.6h1.8v-.8h-1.8v-.6h2v-.9h-3.1v3.8zm-2.5.1c.8 0 1.3-.4 1.7-.9l-.8-.5c-.2.3-.5.5-.9.5-.5 0-.9-.4-.9-1s.4-1 .9-1c.4 0 .6.2.8.4l.8-.6c-.3-.5-.8-.8-1.6-.8-1.2 0-2 .9-2 2s.9 1.9 2 1.9m-3.9-.1h1.1v-3.8h-1.1v3.8zm-3-.9c-.6 0-1-.5-1-1 0-.6.4-1 1-1s1 .5 1 1c0 .6-.4 1-1 1m0 1c1.2 0 2.1-.9 2.1-2s-.9-2-2-2c-1.2 0-2.1.9-2.1 2s.8 2 2 2m-6.4-.1h1.1v-1.4h1.4v1.4h1.1v-3.8h-1.1v1.4h-1.4v-1.4h-1.1v3.8zm-2.4.1c.8 0 1.3-.4 1.7-.9l-.8-.6c-.2.3-.5.5-.9.5-.5 0-.9-.4-.9-1s.4-1 .9-1c.4 0 .6.2.8.4l.8-.6c-.3-.5-.8-.8-1.6-.8-1.2 0-2 .9-2 2 0 1.2.9 2 2 2" clip-path="url(#SVGID_00000071524322674719476350000003224637515006405266_)" fill="#fff"/></svg>