<svg id="Layer_1" xmlns="http://www.w3.org/2000/svg" viewBox="0 0 320 50"><style>.st0{fill:#490a09}</style><path class="st0" d="M15.6 30.5h-4.1v-3.3h12.1v3.3h-4.1V41h-3.8V30.5zM24.9 26.6h3.7v5.2c.7-.9 1.7-1.7 3.2-1.7 2.3 0 3.6 1.5 3.6 3.9v7h-3.7v-5.8c0-1.2-.6-1.8-1.5-1.8s-1.6.6-1.6 1.8V41h-3.7V26.6zM37 35.7c0-3.1 2.2-5.6 5.4-5.6 3.7 0 5.4 2.7 5.4 5.8v.8h-7.1c.3 1.2 1.1 1.7 2.3 1.7.9 0 1.6-.3 2.4-1.1l2.1 1.7c-1 1.3-2.5 2.2-4.6 2.2-3.6 0-5.9-2.2-5.9-5.5zm7.2-.9c-.1-1.2-.8-1.9-1.8-1.9s-1.6.8-1.8 1.9h3.6zM54.7 30.3h3.7v1.5c.7-.9 1.7-1.7 3.2-1.7 2.3 0 3.6 1.5 3.6 3.9v7h-3.7v-5.8c0-1.2-.6-1.8-1.5-1.8s-1.6.6-1.6 1.8V41h-3.7V30.3zM66.7 35.7c0-3.1 2.2-5.6 5.4-5.6 3.7 0 5.4 2.7 5.4 5.8v.8h-7.1c.3 1.2 1.1 1.7 2.3 1.7.9 0 1.6-.3 2.4-1.1l2.1 1.7c-1 1.3-2.5 2.2-4.6 2.2-3.5 0-5.9-2.2-5.9-5.5zm7.3-.9c-.1-1.2-.8-1.9-1.8-1.9s-1.6.8-1.8 1.9H74zM77.8 30.3h3.7l1.4 5.3 1.6-5.4h3.1l1.6 5.4 1.4-5.4h3.6L90.9 41h-3.2L86 35.5 84.2 41H81l-3.2-10.7zM101.1 27.2h11v3.3h-7.2v2.3h6.5V36h-6.5v5h-3.8V27.2zM113.6 30.3h3.7v2.1c.6-1.5 1.6-2.4 3.4-2.3V34h-.3c-1.9 0-3 1.1-3 3.6V41h-3.7V30.3zM121.4 35.7c0-3.1 2.2-5.6 5.4-5.6 3.7 0 5.4 2.7 5.4 5.8v.8H125c.3 1.2 1.1 1.7 2.3 1.7.9 0 1.6-.3 2.4-1.1l2.1 1.7c-1 1.3-2.5 2.2-4.6 2.2-3.4 0-5.8-2.2-5.8-5.5zm7.2-.9c-.1-1.2-.8-1.9-1.8-1.9s-1.6.8-1.8 1.9h3.6zM133.7 30.3h3.7v1.5c.7-.9 1.7-1.7 3.2-1.7 2.3 0 3.6 1.5 3.6 3.9v7h-3.7v-5.8c0-1.2-.6-1.8-1.5-1.8s-1.6.6-1.6 1.8V41h-3.7V30.3zM145.7 35.7c0-3 2.3-5.6 5.7-5.6 2.2 0 3.6.9 4.5 2.4l-2.5 1.9c-.5-.7-1.1-1.1-2-1.1-1.2 0-2.1 1.1-2.1 2.4 0 1.4.9 2.4 2.1 2.4.9 0 1.5-.4 2-1.1l2.5 1.8c-1 1.5-2.4 2.4-4.7 2.4-3.1 0-5.5-2.5-5.5-5.5zM157.4 26.6h3.7v5.2c.7-.9 1.7-1.7 3.2-1.7 2.3 0 3.6 1.5 3.6 3.9v7h-3.7v-5.8c0-1.2-.6-1.8-1.5-1.8s-1.6.6-1.6 1.8V41h-3.7V26.6zM175.9 37.7v-4.3h-1.3v-3h1.3v-2.7h3.7v2.7h2.5v3h-2.5V37c0 .7.3 1.1 1 1.1.5 0 1-.1 1.4-.4v2.9c-.7.4-1.6.6-2.6.6-2.2 0-3.5-1-3.5-3.5zM183.7 26.6h3.7v5.2c.7-.9 1.7-1.7 3.2-1.7 2.3 0 3.6 1.5 3.6 3.9v7h-3.7v-5.8c0-1.2-.6-1.8-1.5-1.8s-1.6.6-1.6 1.8V41h-3.7V26.6zM196.2 30.3h3.7v2.1c.6-1.5 1.6-2.4 3.4-2.3V34h-.3c-1.9 0-3 1.1-3 3.6V41h-3.7V30.3zM204.6 26.6h3.9v2.7h-3.9v-2.7zm0 3.7h3.7V41h-3.7V30.3zM210.5 26.6h3.7V41h-3.7V26.6zM216.4 26.6h3.7V41h-3.7V26.6zM221.8 35.7c0-3.1 2.2-5.6 5.4-5.6 3.7 0 5.4 2.7 5.4 5.8v.8h-7.1c.3 1.2 1.1 1.7 2.3 1.7.9 0 1.6-.3 2.4-1.1l2.1 1.7c-1 1.3-2.5 2.2-4.6 2.2-3.5 0-5.9-2.2-5.9-5.5zm7.2-.9c-.1-1.2-.8-1.9-1.8-1.9s-1.6.8-1.8 1.9h3.6zM234.1 30.3h3.7v2.1c.6-1.5 1.6-2.4 3.4-2.3V34h-.3c-1.9 0-3 1.1-3 3.6V41h-3.7V30.3zM241.1 37.1h3.9V41h-3.9v-3.9z"/></svg>