<svg id="Layer_1" xmlns="http://www.w3.org/2000/svg" viewBox="0 0 320 50"><style>.st0{fill:#490a09}</style><path class="st0" d="M9.7 22.2H14V28h5.5v-5.8h4.3v15.4h-4.3v-5.9H14v5.9H9.7V22.2zM25.7 31.7c0-3.5 2.5-6.3 6-6.3 4.1 0 6 3 6 6.5v.9h-8c.3 1.3 1.3 2 2.6 2 1 0 1.8-.4 2.6-1.2l2.3 1.9c-1.1 1.5-2.8 2.4-5.2 2.4-3.6 0-6.3-2.5-6.3-6.2zm8.1-1c-.2-1.3-.9-2.2-2.1-2.2-1.1 0-1.9.9-2.1 2.2h4.2zM44.8 25.7h4.1l1.6 6 1.8-6h3.5l1.9 6.1 1.6-6h4l-3.7 12H56l-2-6.3-2 6.2h-3.6l-3.6-12zM63.5 34.2c0-2.5 1.9-3.8 4.7-3.8 1.1 0 2.2.2 2.9.5v-.2c0-1.2-.8-1.9-2.4-1.9-1.3 0-2.2.2-3.3.7l-.9-3c1.3-.6 2.8-.9 4.8-.9 2.1 0 3.6.5 4.5 1.5.9.9 1.3 2.1 1.3 3.8v6.9H71v-1.2c-.8.9-1.9 1.5-3.5 1.5-2.2-.2-4-1.5-4-3.9zm7.6-.9v-.6c-.4-.2-1-.3-1.6-.3-1.2 0-1.9.6-1.9 1.5 0 .8.6 1.3 1.5 1.3 1.2.1 2-.7 2-1.9zM76.4 36.1l1.6-2.5c1.4.9 2.9 1.4 4.1 1.4.7 0 1.1-.2 1.1-.6 0-.5-.7-.7-1.9-1-2.4-.6-4.2-1.4-4.2-3.8 0-2.5 2-3.9 4.8-3.9 1.7 0 3.6.5 4.9 1.4l-1.4 2.6c-1.2-.7-2.6-1.1-3.5-1.1-.6 0-1 .2-1 .6 0 .5.7.7 1.9 1.1 2.4.7 4.2 1.5 4.2 3.8 0 2.6-2 4-4.9 4-2-.2-4-.8-5.7-2zM94.8 21.5H99v5.8c.8-1 1.9-1.9 3.6-1.9 2.5 0 4.1 1.7 4.1 4.4v7.8h-4.2v-6.5c0-1.3-.7-2-1.7-2s-1.8.7-1.8 2v6.5h-4.2V21.5zM108.3 31.7c0-3.5 2.5-6.3 6-6.3 4.1 0 6 3 6 6.5v.9h-8c.3 1.3 1.3 2 2.6 2 1 0 1.8-.4 2.6-1.2l2.3 1.9c-1.1 1.5-2.8 2.4-5.2 2.4-3.7 0-6.3-2.5-6.3-6.2zm8.1-1c-.2-1.3-.9-2.2-2.1-2.2-1.1 0-1.9.9-2.1 2.2h4.2zM122.1 25.7h4.2v2.4c.7-1.6 1.8-2.7 3.8-2.6v4.4h-.4c-2.2 0-3.4 1.3-3.4 4v3.7h-4.2V25.7zM137.7 21.5h4.2v5.8c.8-1 1.9-1.9 3.6-1.9 2.5 0 4.1 1.7 4.1 4.4v7.8h-4.2v-6.5c0-1.3-.7-2-1.7-2s-1.8.7-1.8 2v6.5h-4.2V21.5zM151.6 33.5v-7.8h4.2v6.5c0 1.3.7 2 1.7 2s1.7-.7 1.7-2v-6.5h4.2v11.9h-4.2V36c-.8 1-1.9 1.9-3.6 1.9-2.5 0-4-1.7-4-4.4zM164.7 36.1l1.6-2.5c1.4.9 2.9 1.4 4.1 1.4.7 0 1.1-.2 1.1-.6 0-.5-.7-.7-1.9-1-2.4-.6-4.2-1.4-4.2-3.8 0-2.5 2-3.9 4.8-3.9 1.7 0 3.6.5 4.9 1.4l-1.4 2.6c-1.2-.7-2.6-1.1-3.5-1.1-.6 0-1 .2-1 .6 0 .5.7.7 1.9 1.1 2.4.7 4.2 1.5 4.2 3.8 0 2.6-2 4-4.9 4-2-.2-4-.8-5.7-2zM181.2 36.2v1.5H177V21.5h4.2v5.8c.8-1 1.8-1.9 3.6-1.9 2.8 0 5.3 2.4 5.3 6.2 0 3.9-2.4 6.2-5.3 6.2-1.8.1-2.8-.7-3.6-1.6zm4.8-4.5c0-1.6-1.1-2.7-2.4-2.7-1.3 0-2.4 1.1-2.4 2.7s1.1 2.7 2.4 2.7c1.3 0 2.4-1.1 2.4-2.7zM191.3 34.2c0-2.5 1.9-3.8 4.7-3.8 1.1 0 2.2.2 2.9.5v-.2c0-1.2-.8-1.9-2.4-1.9-1.3 0-2.2.2-3.3.7l-.9-3c1.3-.6 2.8-.9 4.8-.9 2.1 0 3.6.5 4.5 1.5.9.9 1.3 2.1 1.3 3.8v6.9h-4.1v-1.2c-.8.9-1.9 1.5-3.5 1.5-2.2-.2-4-1.5-4-3.9zm7.6-.9v-.6c-.4-.2-1-.3-1.6-.3-1.2 0-1.9.6-1.9 1.5 0 .8.6 1.3 1.5 1.3 1.1.1 2-.7 2-1.9zM205.1 25.7h4.2v1.7c.8-1 1.9-1.9 3.6-1.9 2.5 0 4.1 1.7 4.1 4.4v7.8h-4.2v-6.5c0-1.3-.7-2-1.7-2s-1.8.7-1.8 2v6.5h-4.2v-12zM218.7 31.7c0-3.9 2.4-6.3 5.3-6.3 1.8 0 2.9.8 3.7 1.7v-5.6h4.2v16.1h-4.2V36c-.8 1-1.9 1.9-3.6 1.9-3 0-5.4-2.4-5.4-6.2zm8.9 0c0-1.6-1.1-2.7-2.4-2.7s-2.4 1.1-2.4 2.7 1.1 2.7 2.4 2.7 2.4-1.2 2.4-2.7zM233.8 33.3h4.4v4.3h-4.4v-4.3z"/></svg>