<?xml version="1.0" encoding="utf-8"?>
<!-- Generator: Adobe Illustrator 25.4.1, SVG Export Plug-In . SVG Version: 6.00 Build 0)  -->
<svg version="1.1" id="Layer_1" xmlns="http://www.w3.org/2000/svg" xmlns:xlink="http://www.w3.org/1999/xlink" x="0px" y="0px"
	 viewBox="0 0 336 280" style="enable-background:new 0 0 336 280;" xml:space="preserve">
<style type="text/css">
	.st0{fill:#490A09;}
</style>
<g>
	<path class="st0" d="M17.9,158.5l4-4.8c2.6,2,5.4,3.1,8.4,3.1c1.9,0,3-0.7,3-1.8V155c0-1.1-0.9-1.7-4.4-2.5
		c-5.5-1.3-9.8-2.8-9.8-8.2v-0.1c0-4.8,3.8-8.3,10-8.3c4.4,0,7.9,1.2,10.7,3.4l-3.6,5.1c-2.4-1.7-5-2.6-7.3-2.6
		c-1.7,0-2.6,0.7-2.6,1.7v0.1c0,1.2,0.9,1.7,4.5,2.5c6,1.3,9.7,3.2,9.7,8.1v0.1c0,5.3-4.2,8.4-10.5,8.4
		C25.5,162.8,21.1,161.3,17.9,158.5z"/>
	<path class="st0" d="M42.8,152.4L42.8,152.4c0-5.9,4.2-10.6,10.1-10.6c6.9,0,10.1,5.1,10.1,11c0,0.4,0,1,0,1.4H49.6
		c0.6,2.2,2.1,3.3,4.3,3.3c1.7,0,3-0.6,4.4-2l3.9,3.2c-1.9,2.4-4.7,4.1-8.7,4.1C47.2,162.8,42.8,158.6,42.8,152.4z M56.4,150.7
		c-0.3-2.2-1.6-3.6-3.5-3.6c-1.9,0-3.1,1.4-3.5,3.6H56.4z"/>
	<path class="st0" d="M65,156.6L65,156.6c0-4.2,3.1-6.4,7.9-6.4c1.9,0,3.7,0.4,4.8,0.8v-0.3c0-2.1-1.3-3.3-4-3.3
		c-2.1,0-3.7,0.4-5.5,1.1l-1.4-5c2.3-0.9,4.7-1.6,8.1-1.6c3.6,0,6,0.9,7.6,2.4c1.5,1.5,2.1,3.6,2.1,6.4v11.5h-7v-2.1
		c-1.4,1.5-3.3,2.5-5.9,2.5C67.9,162.8,65,160.6,65,156.6z M77.8,155.1v-0.9c-0.7-0.3-1.7-0.5-2.7-0.5c-2,0-3.2,1-3.2,2.5v0.1
		c0,1.4,1,2.2,2.5,2.2C76.3,158.4,77.8,157.1,77.8,155.1z"/>
	<path class="st0" d="M86.7,159.8l2.6-4.3c2.3,1.5,4.8,2.3,6.9,2.3c1.2,0,1.8-0.4,1.8-1.1v-0.1c0-0.8-1.1-1.1-3.2-1.7
		c-4-1-7.1-2.4-7.1-6.4v-0.1c0-4.3,3.4-6.6,8-6.6c2.9,0,6,0.9,8.3,2.3l-2.4,4.4c-2.1-1.1-4.3-1.9-5.9-1.9c-1.1,0-1.6,0.4-1.6,1v0.1
		c0,0.8,1.1,1.1,3.3,1.8c4,1.1,7.1,2.5,7.1,6.4v0.1c0,4.4-3.3,6.7-8.2,6.7C92.8,162.8,89.5,161.8,86.7,159.8z"/>
	<path class="st0" d="M106.4,152.4L106.4,152.4c0-5.8,4.7-10.6,11.1-10.6c6.4,0,11,4.7,11,10.4v0.1c0,5.7-4.7,10.5-11.1,10.5
		C111.1,162.8,106.4,158.1,106.4,152.4z M121.7,152.4L121.7,152.4c0-2.5-1.8-4.6-4.3-4.6c-2.6,0-4.2,2-4.2,4.4v0.1
		c0,2.4,1.8,4.5,4.3,4.5C120.1,156.8,121.7,154.8,121.7,152.4z"/>
	<path class="st0" d="M131.6,142.3h7v2.8c1.3-1.7,3.1-3.3,6-3.3c4.3,0,6.8,2.8,6.8,7.4v13.1h-7v-10.9c0-2.2-1.1-3.4-2.8-3.4
		c-1.7,0-3,1.2-3,3.4v10.9h-7V142.3z"/>
	<path class="st0" d="M169.5,142.9l-4.4,1l-1.4-5.6l7.6-2.1h5.2v26.1h-7.1V142.9z"/>
	<path class="st0" d="M192.5,147.9h-2.3v-5.5h2.3V142c0-2.3,0.5-4,1.7-5.2c1.2-1.2,2.9-1.7,5.2-1.7c2.1,0,3.5,0.2,4.6,0.6v5
		c-0.8-0.3-1.6-0.4-2.6-0.4c-1.3,0-2,0.6-2,1.9v0.5h4.6v5.4h-4.5v14.4h-7V147.9z"/>
	<path class="st0" d="M206.2,142.3h7v4c1.1-2.7,3-4.5,6.3-4.4v7.4h-0.6c-3.7,0-5.7,2.1-5.7,6.7v6.2h-7V142.3z"/>
	<path class="st0" d="M220.9,152.4L220.9,152.4c0-5.9,4.2-10.6,10.1-10.6c6.9,0,10.1,5.1,10.1,11c0,0.4,0,1,0,1.4h-13.4
		c0.6,2.2,2.1,3.3,4.3,3.3c1.7,0,3-0.6,4.4-2l3.9,3.2c-1.9,2.4-4.7,4.1-8.7,4.1C225.3,162.8,220.9,158.6,220.9,152.4z M234.5,150.7
		c-0.3-2.2-1.6-3.6-3.5-3.6c-1.9,0-3.1,1.4-3.5,3.6H234.5z"/>
	<path class="st0" d="M243.3,152.4L243.3,152.4c0-5.9,4.2-10.6,10.1-10.6c6.9,0,10.1,5.1,10.1,11c0,0.4,0,1,0,1.4h-13.4
		c0.6,2.2,2.1,3.3,4.3,3.3c1.7,0,3-0.6,4.4-2l3.9,3.2c-1.9,2.4-4.7,4.1-8.7,4.1C247.7,162.8,243.3,158.6,243.3,152.4z M256.9,150.7
		c-0.3-2.2-1.6-3.6-3.5-3.6c-1.9,0-3.1,1.4-3.5,3.6H256.9z"/>
</g>
<g>
	<path class="st0" d="M18.6,188.7L18.6,188.7c0-5.8,4.7-10.6,11.1-10.6c6.4,0,11,4.7,11,10.4v0.1c0,5.7-4.7,10.5-11.1,10.5
		C23.3,199.2,18.6,194.5,18.6,188.7z M33.9,188.7L33.9,188.7c0-2.5-1.8-4.6-4.3-4.6c-2.6,0-4.2,2-4.2,4.4v0.1c0,2.4,1.8,4.5,4.3,4.5
		C32.3,193.2,33.9,191.2,33.9,188.7z"/>
	<path class="st0" d="M43.8,178.6h7v2.8c1.3-1.7,3.1-3.3,6-3.3c4.3,0,6.8,2.8,6.8,7.4v13.1h-7v-10.9c0-2.2-1.1-3.4-2.8-3.4
		c-1.7,0-3,1.2-3,3.4v10.9h-7V178.6z"/>
	<path class="st0" d="M77.9,172.7h7.6l6.2,10l6.2-10h7.6v25.9h-7.2v-14.9l-6.6,10.2h-0.1l-6.6-10.1v14.8h-7V172.7z"/>
	<path class="st0" d="M110.1,172.7h7.2v9.7h9.2v-9.7h7.2v25.9h-7.2v-9.9h-9.2v9.9h-7.2V172.7z"/>
	<path class="st0" d="M137.1,194l9.3-9.8h-8.9v-5.6h18.3v4.6l-9.3,9.8h9.3v5.6h-18.6V194z"/>
	<path class="st0" d="M168.5,185.8L168.5,185.8c0-7.6,5.8-13.6,13.7-13.6c5.3,0,8.7,2.2,11,5.4l-5.4,4.2c-1.5-1.9-3.2-3-5.7-3
		c-3.6,0-6.2,3.1-6.2,6.9v0.1c0,3.9,2.6,6.9,6.2,6.9c2.7,0,4.3-1.3,5.9-3.1l5.4,3.9c-2.4,3.4-5.7,5.9-11.5,5.9
		C174.5,199.2,168.5,193.5,168.5,185.8z"/>
	<path class="st0" d="M196,171.6h7v9.7c1.3-1.7,3.1-3.2,6-3.2c4.3,0,6.8,2.8,6.8,7.4v13.1h-7v-10.9c0-2.2-1.1-3.4-2.8-3.4
		c-1.7,0-3,1.2-3,3.4v10.9h-7V171.6z"/>
	<path class="st0" d="M218.7,188.7L218.7,188.7c0-5.8,4.7-10.6,11.1-10.6c6.4,0,11,4.7,11,10.4v0.1c0,5.7-4.7,10.5-11.1,10.5
		C223.3,199.2,218.7,194.5,218.7,188.7z M234,188.7L234,188.7c0-2.5-1.8-4.6-4.3-4.6c-2.6,0-4.2,2-4.2,4.4v0.1
		c0,2.4,1.8,4.5,4.3,4.5C232.4,193.2,234,191.2,234,188.7z"/>
	<path class="st0" d="M243.8,171.6h7.3v5.2h-7.3V171.6z M243.9,178.6h7v20h-7V178.6z"/>
	<path class="st0" d="M254.1,188.7L254.1,188.7c0-5.7,4.4-10.5,10.7-10.5c4.1,0,6.9,1.8,8.6,4.5l-4.8,3.6c-1-1.3-2-2.1-3.7-2.1
		c-2.3,0-3.9,2-3.9,4.4v0.1c0,2.6,1.6,4.6,4,4.6c1.7,0,2.7-0.8,3.9-2.1l4.7,3.4c-1.9,2.7-4.5,4.6-8.9,4.6
		C258.5,199.2,254.1,194.4,254.1,188.7z"/>
	<path class="st0" d="M274.7,188.7L274.7,188.7c0-5.9,4.2-10.6,10.1-10.6c6.9,0,10.1,5.1,10.1,11c0,0.4,0,1,0,1.4h-13.4
		c0.6,2.2,2.1,3.3,4.3,3.3c1.7,0,3-0.6,4.4-2l3.9,3.2c-1.9,2.4-4.7,4.1-8.7,4.1C279.1,199.2,274.7,195,274.7,188.7z M288.3,187
		c-0.3-2.2-1.6-3.6-3.5-3.6c-1.9,0-3.1,1.4-3.5,3.6H288.3z"/>
	<path class="st0" d="M297.4,191.5h7.3v7.2h-7.3V191.5z"/>
</g>
</svg>
