<?xml version="1.0" encoding="utf-8"?>
<!-- Generator: Adobe Illustrator 25.4.1, SVG Export Plug-In . SVG Version: 6.00 Build 0)  -->
<svg version="1.1" id="Layer_1" xmlns="http://www.w3.org/2000/svg" xmlns:xlink="http://www.w3.org/1999/xlink" x="0px" y="0px"
	 viewBox="0 0 336 280" style="enable-background:new 0 0 336 280;" xml:space="preserve">
<style type="text/css">
	.st0{fill:#490A09;}
</style>
<g>
	<path class="st0" d="M26,90.2h7.2l-7,25.9H19L26,90.2z"/>
	<path class="st0" d="M35.9,96.1h7l-0.6,2.2c1.4-1.4,3.2-2.7,5.6-2.7c2.7,0,4.5,1.4,5.2,3.5c1.9-2.1,4.3-3.5,7.3-3.5
		c3.8,0,5.9,2.3,5.9,6c0,1.1-0.3,2.4-0.6,3.6l-2.9,10.9h-7l2.8-10.5c0.1-0.5,0.3-1.2,0.3-1.6c0-1.3-0.7-2.1-2.1-2.1
		c-1.9,0-3,1.3-3.7,3.6l-2.9,10.6h-7l2.8-10.5c0.1-0.5,0.3-1.2,0.3-1.6c0-1.3-0.7-2.1-2.1-2.1c-1.9,0-3,1.3-3.7,3.6l-2.9,10.6h-7
		L35.9,96.1z"/>
	<path class="st0" d="M71.8,96.1h7l-0.6,2.2c1.4-1.4,3.2-2.7,5.6-2.7c2.7,0,4.5,1.4,5.2,3.5c1.9-2.1,4.3-3.5,7.3-3.5
		c3.8,0,5.9,2.3,5.9,6c0,1.1-0.3,2.4-0.6,3.6l-2.9,10.9h-7l2.8-10.5c0.1-0.5,0.3-1.2,0.3-1.6c0-1.3-0.7-2.1-2.1-2.1
		c-1.9,0-3,1.3-3.7,3.6l-2.9,10.6h-7l2.8-10.5c0.1-0.5,0.3-1.2,0.3-1.6c0-1.3-0.7-2.1-2.1-2.1c-1.9,0-3,1.3-3.7,3.6l-2.9,10.6h-7
		L71.8,96.1z"/>
	<path class="st0" d="M103.1,111.1c0-4.4,3.5-7.1,8.8-7.1c1.8,0,3.5,0.3,5.1,0.8l0.1-0.3c0.1-0.3,0.2-0.7,0.2-1.2
		c0-1.3-1-2.1-3.4-2.1c-1.9,0-4,0.4-5.4,1l-1-5.1c2.1-0.7,5-1.2,7.9-1.2c6,0,8.9,2.4,8.9,6.4c0,0.9-0.1,1.9-0.4,2.9l-3,11h-6.9
		l0.6-2.1c-1.7,1.6-3.4,2.6-5.8,2.6C105.4,116.5,103.1,114.4,103.1,111.1z M116,108.6l0.2-0.7c-0.8-0.3-1.7-0.4-2.6-0.4
		c-2.2,0-3.7,1.1-3.7,2.9c0,1.1,0.8,1.9,2,1.9C113.7,112.2,115.5,110.6,116,108.6z"/>
	<path class="st0" d="M146.3,96.5h-7.8l1.7-6.3h22.7l-1.7,6.3h-7.8l-5.3,19.6H141L146.3,96.5z"/>
	<path class="st0" d="M157.3,111.1c0-4.4,3.5-7.1,8.8-7.1c1.8,0,3.5,0.3,5.1,0.8l0.1-0.3c0.1-0.3,0.2-0.7,0.2-1.2
		c0-1.3-1-2.1-3.4-2.1c-1.9,0-4,0.4-5.4,1l-1-5.1c2.1-0.7,5-1.2,7.9-1.2c6,0,8.9,2.4,8.9,6.4c0,0.9-0.1,1.9-0.4,2.9l-3,11h-6.9
		l0.6-2.1c-1.7,1.6-3.4,2.6-5.8,2.6C159.6,116.5,157.3,114.4,157.3,111.1z M170.3,108.6l0.2-0.7c-0.8-0.3-1.7-0.4-2.6-0.4
		c-2.2,0-3.7,1.1-3.7,2.9c0,1.1,0.8,1.9,2,1.9C168,112.2,169.7,110.6,170.3,108.6z"/>
	<path class="st0" d="M181,111.8c0-0.8,0.1-1.7,0.4-2.6l2-7.4H181l1.5-5.7h2.4l1.4-5.1h7l-1.4,5.1h4.7l-1.5,5.7h-4.7l-1.7,6.3
		c-0.1,0.5-0.2,0.9-0.2,1.2c0,0.8,0.5,1.3,1.6,1.3c0.8,0,1.6-0.2,2.7-0.6l-1.6,5.9c-1.3,0.4-2.7,0.7-4.1,0.7
		C183,116.5,181,114.8,181,111.8z"/>
	<path class="st0" d="M195.2,111.1c0-4.4,3.5-7.1,8.8-7.1c1.8,0,3.5,0.3,5.1,0.8l0.1-0.3c0.1-0.3,0.2-0.7,0.2-1.2
		c0-1.3-1-2.1-3.4-2.1c-1.9,0-4,0.4-5.4,1l-1-5.1c2.1-0.7,5-1.2,7.9-1.2c6,0,8.9,2.4,8.9,6.4c0,0.9-0.1,1.9-0.4,2.9l-3,11H206
		l0.6-2.1c-1.7,1.6-3.4,2.6-5.8,2.6C197.5,116.5,195.2,114.4,195.2,111.1z M208.1,108.6l0.2-0.7c-0.8-0.3-1.7-0.4-2.6-0.4
		c-2.2,0-3.7,1.1-3.7,2.9c0,1.1,0.8,1.9,2,1.9C205.8,112.2,207.6,110.6,208.1,108.6z"/>
	<path class="st0" d="M221.8,96.1h7l-1.1,4c1.9-2.9,4.3-4.6,7.5-4.4l-2,7.4h-0.6c-3.9,0-6.3,2.1-7.6,6.9l-1.6,6h-7L221.8,96.1z"/>
	<path class="st0" d="M232.6,111.1c0-4.4,3.5-7.1,8.8-7.1c1.8,0,3.5,0.3,5.1,0.8l0.1-0.3c0.1-0.3,0.2-0.7,0.2-1.2
		c0-1.3-1-2.1-3.4-2.1c-1.9,0-4,0.4-5.4,1l-1-5.1c2.1-0.7,5-1.2,7.9-1.2c6,0,8.9,2.4,8.9,6.4c0,0.9-0.1,1.9-0.4,2.9l-3,11h-6.9
		l0.6-2.1c-1.7,1.6-3.4,2.6-5.8,2.6C234.9,116.5,232.6,114.4,232.6,111.1z M245.5,108.6l0.2-0.7c-0.8-0.3-1.7-0.4-2.6-0.4
		c-2.2,0-3.7,1.1-3.7,2.9c0,1.1,0.8,1.9,2,1.9C243.2,112.2,245,110.6,245.5,108.6z"/>
	<path class="st0" d="M259.2,96.1h7l-0.6,2.3c1.4-1.4,3.4-2.7,5.7-2.7c3.6,0,5.8,2.3,5.8,6c0,1.1-0.3,2.3-0.6,3.6l-2.9,10.9h-7
		l2.8-10.5c0.1-0.5,0.2-1.2,0.2-1.6c0-1.3-0.8-2.1-2.2-2.1c-2,0-3.1,1.3-3.7,3.6l-2.9,10.6h-7L259.2,96.1z"/>
	<path class="st0" d="M282.6,96.1h7l-0.6,2.3c1.4-1.4,3.4-2.7,5.7-2.7c3.6,0,5.8,2.3,5.8,6c0,1.1-0.3,2.3-0.6,3.6l-2.9,10.9h-7
		l2.8-10.5c0.1-0.5,0.2-1.2,0.2-1.6c0-1.3-0.8-2.1-2.2-2.1c-2,0-3.1,1.3-3.7,3.6l-2.9,10.6h-7L282.6,96.1z"/>
	<path class="st0" d="M306.1,96.1h7l-5.4,20h-7L306.1,96.1z M307.9,89.1h7.3l-1.4,5.2h-7.3L307.9,89.1z"/>
	<path class="st0" d="M313.7,108.9h7.3l-2,7.2h-7.3L313.7,108.9z"/>
</g>
</svg>
