<?xml version="1.0" encoding="utf-8"?>
<!-- Generator: Adobe Illustrator 25.4.1, SVG Export Plug-In . SVG Version: 6.00 Build 0)  -->
<svg version="1.1" id="Layer_1" xmlns="http://www.w3.org/2000/svg" xmlns:xlink="http://www.w3.org/1999/xlink" x="0px" y="0px"
	 viewBox="0 0 336 280" style="enable-background:new 0 0 336 280;" xml:space="preserve">
<style type="text/css">
	.st0{fill:#490A09;}
</style>
<g>
	<path class="st0" d="M31.6,100.8h8.1l12.9,30.5h-9l-2.2-5.4H29.7l-2.2,5.4h-8.8L31.6,100.8z M39,119.3l-3.4-8.6l-3.4,8.6H39z"/>
	<path class="st0" d="M75.2,128.4v2.9H67V99.7h8.2V111c1.6-1.9,3.6-3.6,7.1-3.6c5.6,0,10.4,4.6,10.4,12.1v0.1
		c0,7.6-4.8,12.2-10.3,12.2C78.8,131.7,76.7,130.1,75.2,128.4z M84.6,119.6L84.6,119.6c0-3.2-2.1-5.4-4.8-5.4
		c-2.6,0-4.8,2.2-4.8,5.3v0.1c0,3.1,2.1,5.3,4.8,5.3C82.5,124.9,84.6,122.7,84.6,119.6z"/>
	<path class="st0" d="M96.2,107.9h8.2v4.7c1.3-3.2,3.5-5.3,7.4-5.1v8.6h-0.7c-4.3,0-6.7,2.5-6.7,7.9v7.3h-8.2V107.9z"/>
	<path class="st0" d="M114.7,99.7h8.6v6h-8.6V99.7z M114.9,107.9h8.2v23.4h-8.2V107.9z"/>
	<path class="st0" d="M127.8,99.7h8.2v31.5h-8.2V99.7z"/>
	<path class="st0" d="M140.8,99.7h8.2v31.5h-8.2V99.7z"/>
	<path class="st0" d="M153.6,99.7h8.6v6h-8.6V99.7z M153.7,107.9h8.2v23.4h-8.2V107.9z"/>
	<path class="st0" d="M165.4,124.5L165.4,124.5c0-4.9,3.7-7.4,9.2-7.4c2.2,0,4.3,0.4,5.6,0.9v-0.4c0-2.4-1.5-3.8-4.7-3.8
		c-2.5,0-4.4,0.5-6.4,1.3l-1.7-5.8c2.6-1.1,5.4-1.8,9.5-1.8c4.2,0,7,1,8.9,2.9c1.8,1.7,2.5,4.1,2.5,7.4v13.4h-8.1v-2.4
		c-1.6,1.8-3.8,2.9-6.9,2.9C168.8,131.7,165.4,129.2,165.4,124.5z M180.2,122.8v-1.1c-0.8-0.3-2-0.6-3.2-0.6c-2.4,0-3.8,1.2-3.8,2.9
		v0.1c0,1.6,1.2,2.5,2.9,2.5C178.5,126.6,180.2,125.1,180.2,122.8z"/>
	<path class="st0" d="M192.4,107.9h8.2v3.3c1.5-1.9,3.7-3.8,7-3.8c5,0,7.9,3.3,7.9,8.6v15.3h-8.2v-12.7c0-2.5-1.3-3.9-3.3-3.9
		c-2,0-3.5,1.4-3.5,3.9v12.7h-8.2V107.9z"/>
	<path class="st0" d="M221.2,124v-9.5h-2.8v-6.6h2.8v-5.9h8.2v5.9h5.4v6.6h-5.4v7.9c0,1.6,0.7,2.3,2.2,2.3c1.1,0,2.1-0.3,3.1-0.8
		v6.4c-1.5,0.8-3.4,1.3-5.7,1.3C224.2,131.7,221.2,129.5,221.2,124z"/>
	<path class="st0" d="M238.6,99.7h8.2v31.5h-8.2V99.7z"/>
	<path class="st0" d="M250.8,136.2l2.5-5.7c1.3,0.8,2.7,1.3,3.6,1.3c0.8,0,1.4-0.2,1.9-1l-9.2-22.9h8.6l4.7,14.1l4.4-14.1h8.4
		l-8.6,22.8c-2,5.4-4.2,7.6-8.9,7.6C255.4,138.3,252.9,137.4,250.8,136.2z"/>
</g>
<g>
	<path class="st0" d="M22.2,150.4h-2.7v-6.4h2.7v-0.5c0-2.7,0.6-4.7,2-6c1.4-1.4,3.3-2,6.1-2c2.5,0,4.1,0.3,5.4,0.6v5.8
		c-1-0.3-1.9-0.5-3.1-0.5c-1.5,0-2.3,0.7-2.3,2.2v0.6h5.4v6.3h-5.2v16.8h-8.2V150.4z"/>
	<path class="st0" d="M38,159.1v-15.3h8.2v12.7c0,2.5,1.3,3.9,3.3,3.9c1.9,0,3.4-1.4,3.4-3.9v-12.7h8.2v23.4h-8.2V164
		c-1.5,1.9-3.7,3.7-7,3.7C41,167.7,38,164.4,38,159.1z"/>
	<path class="st0" d="M65.5,143.8h8.2v3.3c1.5-1.9,3.7-3.8,7-3.8c5,0,7.9,3.3,7.9,8.6v15.3h-8.2v-12.7c0-2.5-1.3-3.9-3.3-3.9
		c-2,0-3.5,1.4-3.5,3.9v12.7h-8.2V143.8z"/>
	<path class="st0" d="M92.9,143.8h8.2v3.3c1.5-1.9,3.7-3.8,7-3.8c5,0,7.9,3.3,7.9,8.6v15.3h-8.2v-12.7c0-2.5-1.3-3.9-3.3-3.9
		c-2,0-3.5,1.4-3.5,3.9v12.7h-8.2V143.8z"/>
	<path class="st0" d="M119.1,172.2l2.5-5.7c1.3,0.8,2.7,1.3,3.6,1.3c0.8,0,1.4-0.2,1.9-1l-9.2-22.9h8.6l4.7,14.1l4.4-14.1h8.4
		l-8.6,22.8c-2,5.4-4.2,7.6-8.9,7.6C123.7,174.2,121.3,173.4,119.1,172.2z"/>
</g>
<g>
	<path class="st0" d="M20.7,179.7h8.2v3.1c1.6-1.9,3.6-3.6,7.1-3.6c5.6,0,10.4,4.6,10.4,12.1v0.1c0,7.6-4.8,12.2-10.3,12.2
		c-3.5,0-5.6-1.6-7.1-3.4v9.8h-8.2V179.7z M38.3,191.4L38.3,191.4c0-3.2-2.1-5.4-4.8-5.4c-2.6,0-4.8,2.2-4.8,5.3v0.1
		c0,3.1,2.1,5.3,4.8,5.3C36.2,196.8,38.3,194.6,38.3,191.4z"/>
	<path class="st0" d="M49.9,179.7h8.2v4.7c1.3-3.2,3.5-5.3,7.4-5.1v8.6h-0.7c-4.3,0-6.7,2.5-6.7,7.9v7.3h-8.2V179.7z"/>
	<path class="st0" d="M67,191.5L67,191.5c0-6.7,5.4-12.3,13-12.3c7.5,0,12.9,5.5,12.9,12.1v0.1c0,6.7-5.4,12.2-13,12.2
		C72.4,203.7,67,198.2,67,191.5z M84.9,191.5L84.9,191.5c0-2.9-2.1-5.4-5-5.4c-3,0-4.9,2.4-4.9,5.2v0.1c0,2.9,2.1,5.3,5,5.3
		C82.9,196.7,84.9,194.3,84.9,191.5z"/>
	<path class="st0" d="M94.5,200.2l3.1-5c2.7,1.8,5.6,2.7,8,2.7c1.4,0,2.1-0.4,2.1-1.3v-0.1c0-0.9-1.3-1.3-3.8-2
		c-4.6-1.2-8.3-2.8-8.3-7.5V187c0-5,4-7.7,9.4-7.7c3.4,0,7,1,9.6,2.7l-2.8,5.2c-2.4-1.3-5.1-2.2-6.9-2.2c-1.3,0-1.9,0.5-1.9,1.1v0.1
		c0,0.9,1.3,1.3,3.8,2.1c4.6,1.3,8.3,2.9,8.3,7.4v0.1c0,5.1-3.8,7.8-9.5,7.8C101.6,203.6,97.7,202.5,94.5,200.2z"/>
	<path class="st0" d="M117.5,191.5L117.5,191.5c0-6.9,4.9-12.3,11.8-12.3c8.1,0,11.8,5.9,11.8,12.8c0,0.5,0,1.1,0,1.7h-15.6
		c0.6,2.5,2.5,3.8,5.1,3.8c1.9,0,3.5-0.7,5.2-2.4l4.5,3.8c-2.2,2.9-5.5,4.8-10.2,4.8C122.7,203.7,117.5,198.8,117.5,191.5z
		 M133.4,189.5c-0.3-2.6-1.8-4.2-4.1-4.2c-2.2,0-3.6,1.7-4.1,4.2H133.4z"/>
	<path class="st0" d="M143.6,191.5L143.6,191.5c0-6.7,5.1-12.3,12.5-12.3c4.8,0,8,2.1,10,5.2l-5.6,4.1c-1.1-1.6-2.4-2.5-4.4-2.5
		c-2.6,0-4.6,2.3-4.6,5.2v0.1c0,3,1.9,5.3,4.7,5.3c1.9,0,3.2-0.9,4.5-2.4l5.5,4c-2.2,3.2-5.3,5.4-10.4,5.4
		C148.8,203.7,143.6,198.1,143.6,191.5z"/>
	<path class="st0" d="M169,195v-15.3h8.2v12.7c0,2.5,1.3,3.9,3.3,3.9c1.9,0,3.4-1.4,3.4-3.9v-12.7h8.2v23.4h-8.2v-3.2
		c-1.5,1.9-3.7,3.7-7,3.7C172,203.6,169,200.3,169,195z"/>
	<path class="st0" d="M198,195.8v-9.5h-2.8v-6.6h2.8v-5.9h8.2v5.9h5.4v6.6h-5.4v7.9c0,1.6,0.7,2.3,2.2,2.3c1.1,0,2.1-0.3,3.1-0.8
		v6.4c-1.5,0.8-3.4,1.3-5.7,1.3C200.9,203.6,198,201.4,198,195.8z"/>
	<path class="st0" d="M213.6,191.5L213.6,191.5c0-6.7,5.4-12.3,13-12.3c7.5,0,12.9,5.5,12.9,12.1v0.1c0,6.7-5.4,12.2-13,12.2
		C219,203.7,213.6,198.2,213.6,191.5z M231.5,191.5L231.5,191.5c0-2.9-2.1-5.4-5-5.4c-3,0-4.9,2.4-4.9,5.2v0.1c0,2.9,2.1,5.3,5,5.3
		C229.6,196.7,231.5,194.3,231.5,191.5z"/>
	<path class="st0" d="M242.9,179.7h8.2v4.7c1.3-3.2,3.5-5.3,7.4-5.1v8.6h-0.7c-4.3,0-6.7,2.5-6.7,7.9v7.3h-8.2V179.7z"/>
	<path class="st0" d="M258.2,194.7h8.6v8.4h-8.6V194.7z"/>
</g>
</svg>
