<?xml version="1.0" encoding="utf-8"?>
<!-- Generator: Adobe Illustrator 26.3.1, SVG Export Plug-In . SVG Version: 6.00 Build 0)  -->
<svg version="1.1" id="Layer_1" xmlns="http://www.w3.org/2000/svg" xmlns:xlink="http://www.w3.org/1999/xlink" x="0px" y="0px"
	 viewBox="0 0 320 50" style="enable-background:new 0 0 320 50;" xml:space="preserve">
<style type="text/css">
	.st0{fill:#490A09;}
</style>
<g>
	<path class="st0" d="M16.3,30h-4.1v-3.3h12.1V30h-4.1v10.4h-3.8V30z"/>
	<path class="st0" d="M25.7,26.1h3.7v5.2c0.7-0.9,1.7-1.7,3.2-1.7c2.3,0,3.6,1.5,3.6,3.9v7h-3.7v-5.8c0-1.2-0.6-1.8-1.5-1.8
		c-0.9,0-1.6,0.6-1.6,1.8v5.8h-3.7V26.1z"/>
	<path class="st0" d="M37.7,35.2L37.7,35.2c0-3.1,2.2-5.6,5.4-5.6c3.7,0,5.4,2.7,5.4,5.8c0,0.2,0,0.5,0,0.8h-7.1
		c0.3,1.2,1.1,1.7,2.3,1.7c0.9,0,1.6-0.3,2.4-1.1l2.1,1.7c-1,1.3-2.5,2.2-4.6,2.2C40.1,40.7,37.7,38.5,37.7,35.2z M45,34.2
		c-0.1-1.2-0.8-1.9-1.8-1.9c-1,0-1.6,0.8-1.8,1.9H45z"/>
	<path class="st0" d="M55.5,29.8h3.7v1.5c0.7-0.9,1.7-1.7,3.2-1.7c2.3,0,3.6,1.5,3.6,3.9v7h-3.7v-5.8c0-1.2-0.6-1.8-1.5-1.8
		c-0.9,0-1.6,0.6-1.6,1.8v5.8h-3.7V29.8z"/>
	<path class="st0" d="M67.5,35.2L67.5,35.2c0-3.1,2.2-5.6,5.4-5.6c3.7,0,5.4,2.7,5.4,5.8c0,0.2,0,0.5,0,0.8h-7.1
		c0.3,1.2,1.1,1.7,2.3,1.7c0.9,0,1.6-0.3,2.4-1.1l2.1,1.7c-1,1.3-2.5,2.2-4.6,2.2C69.9,40.7,67.5,38.5,67.5,35.2z M74.7,34.2
		c-0.1-1.2-0.8-1.9-1.8-1.9c-1,0-1.6,0.8-1.8,1.9H74.7z"/>
	<path class="st0" d="M78.6,29.8h3.7l1.4,5.3l1.6-5.4h3.1l1.6,5.4l1.4-5.4H95l-3.3,10.7h-3.2L86.8,35L85,40.5h-3.2L78.6,29.8z"/>
	<path class="st0" d="M101.9,26.7h11V30h-7.2v2.3h6.5v3.2h-6.5v4.9h-3.8V26.7z"/>
	<path class="st0" d="M114.4,29.8h3.7v2.1c0.6-1.5,1.6-2.4,3.4-2.3v3.9h-0.3c-1.9,0-3,1.1-3,3.6v3.3h-3.7V29.8z"/>
	<path class="st0" d="M122.2,35.2L122.2,35.2c0-3.1,2.2-5.6,5.4-5.6c3.7,0,5.4,2.7,5.4,5.8c0,0.2,0,0.5,0,0.8h-7.1
		c0.3,1.2,1.1,1.7,2.3,1.7c0.9,0,1.6-0.3,2.4-1.1l2.1,1.7c-1,1.3-2.5,2.2-4.6,2.2C124.6,40.7,122.2,38.5,122.2,35.2z M129.4,34.2
		c-0.1-1.2-0.8-1.9-1.8-1.9c-1,0-1.6,0.8-1.8,1.9H129.4z"/>
	<path class="st0" d="M134.5,29.8h3.7v1.5c0.7-0.9,1.7-1.7,3.2-1.7c2.3,0,3.6,1.5,3.6,3.9v7h-3.7v-5.8c0-1.2-0.6-1.8-1.5-1.8
		c-0.9,0-1.6,0.6-1.6,1.8v5.8h-3.7V29.8z"/>
	<path class="st0" d="M146.5,35.2L146.5,35.2c0-3,2.3-5.6,5.7-5.6c2.2,0,3.6,0.9,4.5,2.4l-2.5,1.9c-0.5-0.7-1.1-1.1-2-1.1
		c-1.2,0-2.1,1.1-2.1,2.4v0c0,1.4,0.9,2.4,2.1,2.4c0.9,0,1.5-0.4,2-1.1l2.5,1.8c-1,1.5-2.4,2.4-4.7,2.4
		C148.9,40.7,146.5,38.2,146.5,35.2z"/>
	<path class="st0" d="M158.1,26.1h3.7v5.2c0.7-0.9,1.7-1.7,3.2-1.7c2.3,0,3.6,1.5,3.6,3.9v7h-3.7v-5.8c0-1.2-0.6-1.8-1.5-1.8
		c-0.9,0-1.6,0.6-1.6,1.8v5.8h-3.7V26.1z"/>
	<path class="st0" d="M176.7,37.1v-4.3h-1.3v-3h1.3v-2.7h3.7v2.7h2.5v3h-2.5v3.6c0,0.7,0.3,1.1,1,1.1c0.5,0,1-0.1,1.4-0.4V40
		c-0.7,0.4-1.6,0.6-2.6,0.6C178,40.6,176.7,39.6,176.7,37.1z"/>
	<path class="st0" d="M184.5,26.1h3.7v5.2c0.7-0.9,1.7-1.7,3.2-1.7c2.3,0,3.6,1.5,3.6,3.9v7h-3.7v-5.8c0-1.2-0.6-1.8-1.5-1.8
		c-0.9,0-1.6,0.6-1.6,1.8v5.8h-3.7V26.1z"/>
	<path class="st0" d="M196.9,29.8h3.7v2.1c0.6-1.5,1.6-2.4,3.4-2.3v3.9h-0.3c-1.9,0-3,1.1-3,3.6v3.3h-3.7V29.8z"/>
	<path class="st0" d="M205.3,26.1h3.9v2.7h-3.9V26.1z M205.4,29.8h3.7v10.6h-3.7V29.8z"/>
	<path class="st0" d="M211.3,26.1h3.7v14.3h-3.7V26.1z"/>
	<path class="st0" d="M217.2,26.1h3.7v14.3h-3.7V26.1z"/>
	<path class="st0" d="M222.6,35.2L222.6,35.2c0-3.1,2.2-5.6,5.4-5.6c3.7,0,5.4,2.7,5.4,5.8c0,0.2,0,0.5,0,0.8h-7.1
		c0.3,1.2,1.1,1.7,2.3,1.7c0.9,0,1.6-0.3,2.4-1.1l2.1,1.7c-1,1.3-2.5,2.2-4.6,2.2C224.9,40.7,222.6,38.5,222.6,35.2z M229.8,34.2
		c-0.1-1.2-0.8-1.9-1.8-1.9c-1,0-1.6,0.8-1.8,1.9H229.8z"/>
	<path class="st0" d="M234.9,29.8h3.7v2.1c0.6-1.5,1.6-2.4,3.4-2.3v3.9h-0.3c-1.9,0-3,1.1-3,3.6v3.3h-3.7V29.8z"/>
	<path class="st0" d="M241.9,36.6h3.9v3.8h-3.9V36.6z"/>
</g>
</svg>
