<?xml version="1.0" encoding="utf-8"?>
<!-- Generator: Adobe Illustrator 26.3.1, SVG Export Plug-In . SVG Version: 6.00 Build 0)  -->
<svg version="1.1" id="Layer_1" xmlns="http://www.w3.org/2000/svg" xmlns:xlink="http://www.w3.org/1999/xlink" x="0px" y="0px"
	 viewBox="0 0 320 50" style="enable-background:new 0 0 320 50;" xml:space="preserve">
<style type="text/css">
	.st0{fill:#490A09;}
</style>
<g>
	<path class="st0" d="M12.3,17.6h7.4c1.8,0,3.1,0.5,3.9,1.3c0.6,0.6,0.9,1.3,0.9,2.3v0c0,1.7-1,2.7-2.2,3.2c1.8,0.6,2.9,1.6,2.9,3.5
		v0c0,2.5-2,4-5.5,4h-7.5V17.6z M18.7,23.4c1.2,0,1.9-0.4,1.9-1.3v0c0-0.8-0.6-1.2-1.8-1.2h-2.6v2.5H18.7z M19.3,28.9
		c1.2,0,1.9-0.5,1.9-1.3v0c0-0.8-0.6-1.3-2-1.3h-3.1v2.7H19.3z"/>
	<path class="st0" d="M26.4,26.6L26.4,26.6c0-3.3,2.3-5.9,5.6-5.9c3.9,0,5.6,2.8,5.6,6.1c0,0.2,0,0.5,0,0.8h-7.5
		c0.3,1.2,1.2,1.8,2.4,1.8c0.9,0,1.7-0.4,2.5-1.1l2.2,1.8c-1.1,1.4-2.6,2.3-4.9,2.3C28.9,32.4,26.4,30,26.4,26.6z M34,25.6
		c-0.1-1.2-0.9-2-1.9-2c-1,0-1.7,0.8-1.9,2H34z"/>
	<path class="st0" d="M39.3,17h3.9v5.4c0.7-0.9,1.8-1.8,3.3-1.8c2.4,0,3.8,1.6,3.8,4.1v7.3h-3.9V26c0-1.2-0.6-1.9-1.6-1.9
		c-1,0-1.7,0.7-1.7,1.9v6.1h-3.9V17z"/>
	<path class="st0" d="M52.4,17h4.1v2.9h-4.1V17z M52.5,20.9h3.9v11.2h-3.9V20.9z"/>
	<path class="st0" d="M58.6,20.9h3.9v1.6c0.7-0.9,1.8-1.8,3.3-1.8c2.4,0,3.8,1.6,3.8,4.1v7.3h-3.9V26c0-1.2-0.6-1.9-1.6-1.9
		c-1,0-1.7,0.7-1.7,1.9v6.1h-3.9V20.9z"/>
	<path class="st0" d="M71.3,26.6L71.3,26.6c0-3.7,2.3-5.9,4.9-5.9c1.7,0,2.7,0.8,3.4,1.6V17h3.9v15.1h-3.9v-1.5
		c-0.8,0.9-1.7,1.7-3.4,1.7C73.6,32.3,71.3,30.1,71.3,26.6z M79.8,26.5L79.8,26.5c0-1.5-1-2.6-2.3-2.6s-2.3,1-2.3,2.5v0
		c0,1.5,1,2.5,2.3,2.5S79.8,28,79.8,26.5z"/>
	<path class="st0" d="M91,26.6L91,26.6c0-3.3,2.3-5.9,5.6-5.9c3.9,0,5.6,2.8,5.6,6.1c0,0.2,0,0.5,0,0.8h-7.5
		c0.3,1.2,1.2,1.8,2.4,1.8c0.9,0,1.7-0.4,2.5-1.1l2.2,1.8c-1.1,1.4-2.6,2.3-4.9,2.3C93.5,32.4,91,30,91,26.6z M98.6,25.6
		c-0.1-1.2-0.9-2-1.9-2c-1,0-1.7,0.8-1.9,2H98.6z"/>
	<path class="st0" d="M102.6,20.9h4.1l2.2,6.5l2.2-6.5h4.1l-4.5,11.3h-3.6L102.6,20.9z"/>
	<path class="st0" d="M115.3,26.6L115.3,26.6c0-3.3,2.3-5.9,5.6-5.9c3.9,0,5.6,2.8,5.6,6.1c0,0.2,0,0.5,0,0.8H119
		c0.3,1.2,1.2,1.8,2.4,1.8c0.9,0,1.7-0.4,2.5-1.1l2.2,1.8c-1.1,1.4-2.6,2.3-4.9,2.3C117.7,32.4,115.3,30,115.3,26.6z M122.9,25.6
		c-0.1-1.2-0.9-2-1.9-2c-1,0-1.7,0.8-1.9,2H122.9z"/>
	<path class="st0" d="M128.2,20.9h3.9v2.3c0.6-1.5,1.7-2.5,3.5-2.4v4.1h-0.3c-2,0-3.2,1.2-3.2,3.8v3.5h-3.9V20.9z"/>
	<path class="st0" d="M136.8,34.5l1.2-2.8c0.6,0.4,1.3,0.6,1.7,0.6c0.4,0,0.7-0.1,0.9-0.5l-4.4-11h4.1l2.2,6.7l2.1-6.7h4l-4.1,10.9
		c-1,2.6-2,3.6-4.3,3.6C139,35.5,137.8,35.1,136.8,34.5z"/>
	<path class="st0" d="M155.7,20.9h3.9v1.5c0.8-0.9,1.7-1.7,3.4-1.7c2.7,0,5,2.2,5,5.8v0c0,3.6-2.3,5.9-4.9,5.9
		c-1.7,0-2.7-0.8-3.4-1.6v4.7h-3.9V20.9z M164.2,26.5L164.2,26.5c0-1.5-1-2.6-2.3-2.6c-1.3,0-2.3,1.1-2.3,2.5v0c0,1.5,1,2.5,2.3,2.5
		C163.1,29.1,164.2,28,164.2,26.5z"/>
	<path class="st0" d="M169.3,26.6L169.3,26.6c0-3.3,2.3-5.9,5.6-5.9c3.9,0,5.6,2.8,5.6,6.1c0,0.2,0,0.5,0,0.8H173
		c0.3,1.2,1.2,1.8,2.4,1.8c0.9,0,1.7-0.4,2.5-1.1l2.2,1.8c-1.1,1.4-2.6,2.3-4.9,2.3C171.7,32.4,169.3,30,169.3,26.6z M176.9,25.6
		c-0.1-1.2-0.9-2-1.9-2c-1,0-1.7,0.8-1.9,2H176.9z"/>
	<path class="st0" d="M182.2,20.9h3.9v2.3c0.6-1.5,1.7-2.5,3.5-2.4v4.1h-0.3c-2,0-3.2,1.2-3.2,3.8v3.5h-3.9V20.9z"/>
	<path class="st0" d="M192.6,24.1h-1.3V21h1.3v-0.2c0-1.3,0.3-2.2,1-2.9c0.7-0.7,1.6-1,2.9-1c1.2,0,1.9,0.1,2.6,0.3v2.8
		c-0.5-0.1-0.9-0.2-1.5-0.2c-0.7,0-1.1,0.3-1.1,1.1V21h2.6v3h-2.5v8h-3.9V24.1z"/>
	<path class="st0" d="M199.6,26.6L199.6,26.6c0-3.3,2.3-5.9,5.6-5.9c3.9,0,5.6,2.8,5.6,6.1c0,0.2,0,0.5,0,0.8h-7.5
		c0.3,1.2,1.2,1.8,2.4,1.8c0.9,0,1.7-0.4,2.5-1.1l2.2,1.8c-1.1,1.4-2.6,2.3-4.9,2.3C202.1,32.4,199.6,30,199.6,26.6z M207.2,25.6
		c-0.1-1.2-0.9-2-1.9-2c-1,0-1.7,0.8-1.9,2H207.2z"/>
	<path class="st0" d="M212.1,26.6L212.1,26.6c0-3.2,2.5-5.9,6-5.9c2.3,0,3.8,1,4.8,2.5l-2.7,2c-0.5-0.7-1.1-1.2-2.1-1.2
		c-1.3,0-2.2,1.1-2.2,2.5v0c0,1.4,0.9,2.5,2.2,2.5c0.9,0,1.5-0.4,2.2-1.2l2.6,1.9c-1,1.5-2.5,2.6-5,2.6
		C214.6,32.4,212.1,29.7,212.1,26.6z"/>
	<path class="st0" d="M225,28.6v-4.5h-1.3v-3.2h1.3v-2.8h3.9v2.8h2.6v3.2h-2.6v3.8c0,0.8,0.4,1.1,1.1,1.1c0.5,0,1-0.1,1.5-0.4v3.1
		c-0.7,0.4-1.6,0.6-2.7,0.6C226.4,32.3,225,31.3,225,28.6z"/>
</g>
<g>
	<path class="st0" d="M239,17h3.9v15.1H239V17z"/>
	<path class="st0" d="M245.1,17h4.1v2.9h-4.1V17z M245.2,20.9h3.9v11.2h-3.9V20.9z"/>
	<path class="st0" d="M252,24.1h-1.3V21h1.3v-0.2c0-1.3,0.3-2.2,1-2.9c0.7-0.7,1.6-1,2.9-1c1.2,0,1.9,0.1,2.6,0.3v2.8
		c-0.5-0.1-0.9-0.2-1.5-0.2c-0.7,0-1.1,0.3-1.1,1.1V21h2.6v3h-2.5v8H252V24.1z"/>
	<path class="st0" d="M259,26.6L259,26.6c0-3.3,2.3-5.9,5.6-5.9c3.9,0,5.6,2.8,5.6,6.1c0,0.2,0,0.5,0,0.8h-7.5
		c0.3,1.2,1.2,1.8,2.4,1.8c0.9,0,1.7-0.4,2.5-1.1l2.2,1.8c-1.1,1.4-2.6,2.3-4.9,2.3C261.5,32.4,259,30,259,26.6z M266.6,25.6
		c-0.1-1.2-0.9-2-1.9-2c-1,0-1.7,0.8-1.9,2H266.6z"/>
</g>
</svg>
