<?xml version="1.0" encoding="utf-8"?>
<!-- Generator: Adobe Illustrator 26.3.1, SVG Export Plug-In . SVG Version: 6.00 Build 0)  -->
<svg version="1.1" id="Layer_1" xmlns="http://www.w3.org/2000/svg" xmlns:xlink="http://www.w3.org/1999/xlink" x="0px" y="0px"
	 viewBox="0 0 320 50" style="enable-background:new 0 0 320 50;" xml:space="preserve">
<style type="text/css">
	.st0{fill:#490A09;}
</style>
<g>
	<path class="st0" d="M12.4,17.5c0-4.4,3.6-8.2,8.8-8.2c2.7,0,4.8,1.1,5.7,2.3l-2.6,2.5c-0.8-0.8-1.9-1.4-3.4-1.4
		c-2.8,0-4.7,2.1-4.7,4.7c0,1.9,1.4,2.9,3.1,2.9c0.8,0,1.4-0.2,1.8-0.4l0.5-1.8h-2.7l0.7-2.8h6.3l-2,6.9C22.8,23,21,23.6,19,23.6
		C15.7,23.6,12.4,21.7,12.4,17.5z"/>
	<path class="st0" d="M29.9,9h3.7l-3.8,14.3h-3.7L29.9,9z"/>
	<path class="st0" d="M32.9,18.6c0-3.2,2.7-6.2,6.2-6.2c3.3,0,5.2,2.1,5.2,4.9c0,3.2-2.7,6.2-6.3,6.2C34.9,23.6,32.9,21.4,32.9,18.6
		z M40.8,17.5c0-1.2-0.7-2-1.8-2c-1.5,0-2.5,1.6-2.5,2.9c0,1.2,0.7,2,1.8,2C39.8,20.5,40.8,18.9,40.8,17.5z"/>
	<path class="st0" d="M47.4,12.7h3.7l-0.6,2.1c1-1.5,2.3-2.4,4-2.3l-1.1,3.9h-0.3c-2,0-3.4,1.1-4,3.7l-0.9,3.2h-3.7L47.4,12.7z"/>
	<path class="st0" d="M55.9,12.7h3.7l-2.8,10.6h-3.7L55.9,12.7z M56.8,9h3.9L60,11.7h-3.9L56.8,9z"/>
	<path class="st0" d="M59.3,20.6c0-2.3,1.9-3.8,4.7-3.8c1,0,1.8,0.2,2.7,0.4l0-0.1c0-0.2,0.1-0.4,0.1-0.6c0-0.7-0.5-1.1-1.8-1.1
		c-1,0-2.1,0.2-2.9,0.5l-0.5-2.7c1.1-0.4,2.7-0.6,4.2-0.6c3.2,0,4.7,1.3,4.7,3.4c0,0.5-0.1,1-0.2,1.5l-1.6,5.9h-3.7l0.3-1.1
		c-0.9,0.8-1.8,1.4-3.1,1.4C60.5,23.5,59.3,22.4,59.3,20.6z M66.2,19.3l0.1-0.4c-0.4-0.1-0.9-0.2-1.4-0.2c-1.2,0-1.9,0.6-1.9,1.5
		c0,0.6,0.4,1,1.1,1C65,21.2,65.9,20.4,66.2,19.3z"/>
</g>
<g>
	<path class="st0" d="M71.9,19.5h3.9v3.8h-3.9V19.5z"/>
</g>
</svg>
