<?xml version="1.0" encoding="utf-8"?>
<!-- Generator: Adobe Illustrator 26.3.1, SVG Export Plug-In . SVG Version: 6.00 Build 0)  -->
<svg version="1.1" id="Layer_1" xmlns="http://www.w3.org/2000/svg" xmlns:xlink="http://www.w3.org/1999/xlink" x="0px" y="0px"
	 viewBox="0 0 320 50" style="enable-background:new 0 0 320 50;" xml:space="preserve">
<style type="text/css">
	.st0{clip-path:url(#SVGID_00000095321397453868296580000010030385171046538419_);fill:#AC1F2D;}
	.st1{clip-path:url(#SVGID_00000095321397453868296580000010030385171046538419_);fill:#FFFFFF;}
</style>
<g>
	<defs>
		<rect id="SVGID_1_" x="291.1" y="3" width="23.9" height="22.7"/>
	</defs>
	<clipPath id="SVGID_00000176025138820845340330000015196134658829094077_">
		<use xlink:href="#SVGID_1_"  style="overflow:visible;"/>
	</clipPath>
	<path style="clip-path:url(#SVGID_00000176025138820845340330000015196134658829094077_);fill:#AC1F2D;" d="M313.5,14.5
		c0,5.8-4.7,10.4-10.4,10.4c-5.8,0-10.4-4.7-10.4-10.4S297.3,4.1,303,4.1C308.8,4.1,313.5,8.8,313.5,14.5"/>
	<path style="clip-path:url(#SVGID_00000176025138820845340330000015196134658829094077_);fill:#FFFFFF;" d="M307.2,12.6v1.2h1.4
		l-1.6,2.5h3.9v-1.2h-1.7l1.5-2.5H307.2z M299.4,11.1l-1.3,2.8l-1.2-2.8h-1.8v5.2h1.4v-2.8l1.3,2.8h0.6l1.2-2.9v2.9h1.5v-5.2H299.4z
		 M305.2,11.1V13h-1.8v-1.8h-1.6v5.2h1.6v-2.1h1.8v2.1h1.6v-5.2H305.2z"/>
	<path style="clip-path:url(#SVGID_00000176025138820845340330000015196134658829094077_);fill:#FFFFFF;" d="M307.1,18.4h1.4V18
		h-0.9v-0.3h0.8v-0.4h-0.8v-0.3h0.9v-0.4h-1.4V18.4z M306,18.5c0.4,0,0.6-0.2,0.8-0.4l-0.4-0.3c-0.1,0.1-0.2,0.2-0.4,0.2
		c-0.2,0-0.4-0.2-0.4-0.5v0c0-0.2,0.2-0.5,0.4-0.5c0.2,0,0.3,0.1,0.4,0.2l0.4-0.3c-0.2-0.2-0.4-0.4-0.7-0.4c-0.5,0-0.9,0.4-0.9,0.9
		v0C305.1,18.1,305.5,18.5,306,18.5 M304.2,18.4h0.5v-1.7h-0.5V18.4z M302.9,18c-0.3,0-0.4-0.2-0.4-0.5v0c0-0.2,0.2-0.5,0.4-0.5
		c0.3,0,0.4,0.2,0.4,0.5v0C303.3,17.8,303.1,18,302.9,18 M302.9,18.5c0.5,0,0.9-0.4,0.9-0.9v0c0-0.5-0.4-0.9-0.9-0.9
		c-0.5,0-0.9,0.4-0.9,0.9v0C302,18.1,302.4,18.5,302.9,18.5 M300,18.4h0.5v-0.7h0.6v0.7h0.5v-1.7h-0.5v0.6h-0.6v-0.6H300V18.4z
		 M298.9,18.5c0.4,0,0.6-0.2,0.8-0.4l-0.4-0.3c-0.1,0.1-0.2,0.2-0.4,0.2c-0.2,0-0.4-0.2-0.4-0.5v0c0-0.2,0.2-0.5,0.4-0.5
		c0.2,0,0.3,0.1,0.4,0.2l0.4-0.3c-0.2-0.2-0.4-0.4-0.7-0.4c-0.5,0-0.9,0.4-0.9,0.9v0C298,18.1,298.4,18.5,298.9,18.5"/>
</g>
</svg>
