<?xml version="1.0" encoding="utf-8"?>
<!-- Generator: Adobe Illustrator 25.4.1, SVG Export Plug-In . SVG Version: 6.00 Build 0)  -->
<svg version="1.1" id="Layer_1" xmlns="http://www.w3.org/2000/svg" xmlns:xlink="http://www.w3.org/1999/xlink" x="0px" y="0px"
	 viewBox="0 0 728 90" style="enable-background:new 0 0 728 90;" xml:space="preserve">
<style type="text/css">
	.st0{fill:#490A09;}
</style>
<g>
	<path class="st0" d="M81.3,50.5h5.9l3.4,21.9h-6.3l-0.5-3.9h-8.4l-2.6,3.9h-6.5L81.3,50.5z M83.3,63.8l-0.8-6.2l-4.1,6.2H83.3z"/>
	<path class="st0" d="M106.6,50.6H124l-1.4,5.3h-11.3l-1,3.7h10.2l-1.3,5h-10.2l-2.1,7.8h-6L106.6,50.6z"/>
	<path class="st0" d="M125.2,55.6h5.9l-0.9,3.4c1.6-2.4,3.6-3.8,6.3-3.7l-1.7,6.2h-0.5c-3.2,0-5.3,1.8-6.4,5.8l-1.4,5.1h-5.9
		L125.2,55.6z"/>
	<path class="st0" d="M144.1,68.3c1.2,0,2.3-0.4,3.6-1.3l2.7,3.2c-1.7,1.5-3.9,2.5-6.9,2.5c-5,0-8-2.9-8-7.4c0-5,3.9-10.1,10.1-10.1
		c5,0,7.1,3.3,7.1,6.9c0,1.1-0.2,2.4-0.7,3.4H141C141.1,67.3,142.1,68.3,144.1,68.3z M147.4,62.6c0.1-0.3,0.2-0.6,0.2-0.9
		c0-1.1-0.7-2.1-2.3-2.1c-1.6,0-3.1,1-3.8,3H147.4z"/>
	<path class="st0" d="M157.2,55.6h5.9l-0.5,1.9c1.1-1.2,2.8-2.3,4.8-2.3c3,0,4.9,1.9,4.9,5c0,0.9-0.2,2-0.5,3l-2.4,9.1h-5.9l2.4-8.8
		c0.1-0.4,0.2-1,0.2-1.4c0-1.1-0.7-1.8-1.9-1.8c-1.6,0-2.6,1.1-3.1,3l-2.4,8.9h-5.9L157.2,55.6z"/>
	<path class="st0" d="M173.7,65.4c0-5.6,4.5-10.2,10.1-10.2c3.9,0,6.2,2,7.1,4.6l-4.6,2.4c-0.6-1.3-1.4-2.1-2.9-2.1
		c-2.2,0-4,2.4-4,5c0,1.7,1.1,2.8,2.6,2.8c1.2,0,2.1-0.5,3.2-1.6l3.6,3.1c-1.7,2-3.8,3.3-7.2,3.3C177,72.8,173.7,69.9,173.7,65.4z"
		/>
	<path class="st0" d="M195.7,49.7h5.9l-2.1,7.8c1.1-1.2,2.8-2.3,4.8-2.3c3,0,4.9,1.9,4.9,5c0,0.9-0.2,2-0.5,3l-2.4,9.1h-5.9l2.4-8.8
		c0.1-0.4,0.2-1,0.2-1.4c0-1.1-0.7-1.8-1.9-1.8c-1.6,0-2.6,1.1-3.1,3l-2.4,8.9h-5.9L195.7,49.7z"/>
	<path class="st0" d="M221.9,50.6h6.6l1.2,13.6l8.5-13.6h6.8l-14.6,21.9h-5.6L221.9,50.6z"/>
	<path class="st0" d="M245.1,55.6h5.9l-4.5,16.8h-5.9L245.1,55.6z M246.5,49.7h6.1l-1.2,4.3h-6.1L246.5,49.7z"/>
	<path class="st0" d="M256,49.7h5.9l-6.1,22.6h-5.9L256,49.7z"/>
	<path class="st0" d="M265.3,49.7h5.9l-6.1,22.6h-5.9L265.3,49.7z"/>
	<path class="st0" d="M269.1,68.1c0-3.7,2.9-5.9,7.4-5.9c1.5,0,2.9,0.2,4.2,0.7l0.1-0.2c0.1-0.3,0.2-0.6,0.2-1
		c0-1.1-0.8-1.8-2.9-1.8c-1.6,0-3.3,0.4-4.5,0.8l-0.8-4.3c1.8-0.6,4.2-1,6.6-1c5,0,7.5,2,7.5,5.3c0,0.8-0.1,1.6-0.3,2.4l-2.5,9.2
		h-5.8l0.5-1.8c-1.4,1.3-2.9,2.1-4.8,2.1C271,72.7,269.1,70.9,269.1,68.1z M280,66l0.2-0.6c-0.7-0.2-1.4-0.4-2.2-0.4
		c-1.9,0-3.1,0.9-3.1,2.4c0,1,0.7,1.5,1.7,1.5C278,69.1,279.5,67.7,280,66z"/>
	<path class="st0" d="M286.1,75.1l2.6-3.7c1.9,1.1,4.1,1.7,6,1.7c1.6,0,2.6-0.4,3.5-1.2c0.6-0.6,1.1-1.5,1.4-2.7l0.1-0.4
		c-1.5,1.3-3,2-5.1,2c-3,0-6-2-6-5.8c0-5.2,3.8-9.8,8.8-9.8c2.5,0,4.2,1.2,5.1,2.7l0.6-2.4h5.9l-3.6,13.3c-0.8,3-1.6,4.6-3,6
		c-1.7,1.6-4,2.5-7.5,2.5C291.8,77.4,288.3,76.4,286.1,75.1z M301.2,62.5c0-1.5-1.1-2.7-2.8-2.7c-2.3,0-3.9,2-3.9,4.2
		c0,1.6,1.1,2.6,2.7,2.6C299.5,66.6,301.2,64.7,301.2,62.5z"/>
	<path class="st0" d="M317.7,68.3c1.2,0,2.3-0.4,3.6-1.3l2.7,3.2c-1.7,1.5-3.9,2.5-6.9,2.5c-5,0-8-2.9-8-7.4c0-5,3.9-10.1,10.1-10.1
		c5,0,7.1,3.3,7.1,6.9c0,1.1-0.2,2.4-0.7,3.4h-11.1C314.7,67.3,315.7,68.3,317.7,68.3z M321,62.6c0.1-0.3,0.2-0.6,0.2-0.9
		c0-1.1-0.7-2.1-2.3-2.1c-1.6,0-3.1,1-3.8,3H321z"/>
</g>
<g>
	<path class="st0" d="M327.6,75.2c2.1-0.2,3.2-1.2,3.1-2.9h-2.4v-6h6.1v4.9c0,4.6-2.5,6.2-6.4,6.3L327.6,75.2z"/>
</g>
<g>
	<path class="st0" d="M345.2,64L345.2,64c0-4.8,3.9-8.8,9.3-8.8c5.4,0,9.2,3.9,9.2,8.7V64c0,4.8-3.9,8.8-9.3,8.8
		C349.1,72.8,345.2,68.8,345.2,64z M358,64L358,64c0-2.1-1.5-3.8-3.6-3.8c-2.1,0-3.5,1.7-3.5,3.7V64c0,2,1.5,3.8,3.6,3.8
		C356.7,67.8,358,66.1,358,64z"/>
	<path class="st0" d="M366.3,55.6h5.9v2.4c1.1-1.4,2.6-2.7,5-2.7c3.6,0,5.7,2.4,5.7,6.2v11H377v-9.1c0-1.8-1-2.8-2.4-2.8
		c-1.4,0-2.5,1-2.5,2.8v9.1h-5.9V55.6z"/>
	<path class="st0" d="M394.8,50.6h6.4l5.2,8.4l5.2-8.4h6.4v21.7h-6V59.9l-5.5,8.5h-0.1l-5.5-8.4v12.4h-5.9V50.6z"/>
	<path class="st0" d="M421.7,50.6h6v8.1h7.7v-8.1h6v21.7h-6v-8.2h-7.7v8.2h-6V50.6z"/>
	<path class="st0" d="M444.4,68.5l7.8-8.2h-7.5v-4.7H460v3.9l-7.8,8.2h7.8v4.7h-15.6V68.5z"/>
	<path class="st0" d="M470.6,61.6L470.6,61.6c0-6.4,4.9-11.3,11.4-11.3c4.4,0,7.3,1.9,9.2,4.5l-4.5,3.5c-1.2-1.6-2.7-2.5-4.7-2.5
		c-3,0-5.2,2.6-5.2,5.7v0.1c0,3.3,2.1,5.8,5.2,5.8c2.3,0,3.6-1.1,4.9-2.6l4.5,3.2c-2,2.8-4.8,4.9-9.6,4.9
		C475.6,72.8,470.6,68,470.6,61.6z"/>
	<path class="st0" d="M493.7,49.7h5.9v8.2c1.1-1.4,2.6-2.7,5-2.7c3.6,0,5.7,2.4,5.7,6.2v11h-5.9v-9.1c0-1.8-1-2.8-2.4-2.8
		c-1.4,0-2.5,1-2.5,2.8v9.1h-5.9V49.7z"/>
	<path class="st0" d="M512.7,64L512.7,64c0-4.8,3.9-8.8,9.3-8.8c5.4,0,9.2,3.9,9.2,8.7V64c0,4.8-3.9,8.8-9.3,8.8
		C516.5,72.8,512.7,68.8,512.7,64z M525.5,64L525.5,64c0-2.1-1.5-3.8-3.6-3.8c-2.1,0-3.5,1.7-3.5,3.7V64c0,2,1.5,3.8,3.6,3.8
		C524.1,67.8,525.5,66.1,525.5,64z"/>
	<path class="st0" d="M533.7,49.7h6.1v4.3h-6.1V49.7z M533.8,55.6h5.9v16.8h-5.9V55.6z"/>
	<path class="st0" d="M542.3,64L542.3,64c0-4.8,3.7-8.8,9-8.8c3.4,0,5.7,1.5,7.2,3.8l-4,3c-0.8-1.1-1.7-1.8-3.1-1.8
		c-1.9,0-3.3,1.7-3.3,3.7V64c0,2.2,1.4,3.8,3.3,3.8c1.4,0,2.3-0.7,3.2-1.7l3.9,2.9c-1.6,2.3-3.8,3.8-7.5,3.8
		C546,72.8,542.3,68.8,542.3,64z"/>
	<path class="st0" d="M559.5,64L559.5,64c0-5,3.5-8.8,8.5-8.8c5.8,0,8.5,4.2,8.5,9.2c0,0.4,0,0.8,0,1.2h-11.2
		c0.5,1.8,1.8,2.8,3.6,2.8c1.4,0,2.5-0.5,3.7-1.7l3.3,2.7c-1.6,2-3.9,3.4-7.3,3.4C563.2,72.8,559.5,69.2,559.5,64z M570.9,62.6
		c-0.2-1.9-1.3-3-2.9-3c-1.5,0-2.6,1.2-2.9,3H570.9z"/>
	<path class="st0" d="M578.6,66.3h6.1v6h-6.1V66.3z"/>
</g>
</svg>
