<?xml version="1.0" encoding="utf-8"?>
<!-- Generator: Adobe Illustrator 25.4.1, SVG Export Plug-In . SVG Version: 6.00 Build 0)  -->
<svg version="1.1" id="Layer_1" xmlns="http://www.w3.org/2000/svg" xmlns:xlink="http://www.w3.org/1999/xlink" x="0px" y="0px"
	 viewBox="0 0 728 90" style="enable-background:new 0 0 728 90;" xml:space="preserve">
<style type="text/css">
	.st0{fill:#490A09;}
</style>
<g>
	<path class="st0" d="M79.4,35.6H69.1v-8.3h30.1v8.3H88.9v26h-9.5V35.6z"/>
	<path class="st0" d="M100.7,27.2h10.6l7.8,21.7l7.8-21.7h10.4l-13.9,34.6h-8.8L100.7,27.2z"/>
	<path class="st0" d="M152.7,48.4L152.7,48.4c0-7.6,5.8-13.9,14.2-13.9c5.4,0,9.1,2.4,11.3,5.9l-6.3,4.7c-1.3-1.8-2.7-2.8-5-2.8
		c-3,0-5.2,2.6-5.2,5.9v0.1c0,3.4,2.2,6,5.3,6c2.2,0,3.6-1,5.1-2.7l6.2,4.5c-2.5,3.6-6,6.1-11.8,6.1
		C158.6,62.2,152.7,55.9,152.7,48.4z"/>
	<path class="st0" d="M181.7,35h9.3v5.3c1.5-3.6,4-6,8.4-5.8v9.8h-0.8c-4.9,0-7.6,2.8-7.6,8.9v8.2h-9.3V35z"/>
	<path class="st0" d="M202.7,25.8h9.7v6.9h-9.7V25.8z M202.9,35h9.3v26.5h-9.3V35z"/>
	<path class="st0" d="M219,53.3V42.5h-3.1V35h3.1v-6.7h9.3V35h6.2v7.5h-6.2v9c0,1.9,0.8,2.6,2.6,2.6c1.2,0,2.4-0.3,3.5-0.9v7.3
		c-1.7,0.9-3.9,1.5-6.5,1.5C222.3,62.1,219,59.7,219,53.3z"/>
	<path class="st0" d="M238.5,25.8h9.7v6.9h-9.7V25.8z M238.7,35h9.3v26.5h-9.3V35z"/>
	<path class="st0" d="M252.2,48.4L252.2,48.4c0-7.6,5.8-13.9,14.2-13.9c5.4,0,9.1,2.4,11.3,5.9l-6.3,4.7c-1.3-1.8-2.7-2.8-5-2.8
		c-3,0-5.2,2.6-5.2,5.9v0.1c0,3.4,2.2,6,5.3,6c2.2,0,3.6-1,5.1-2.7l6.2,4.5c-2.5,3.6-6,6.1-11.8,6.1
		C258.1,62.2,252.2,55.9,252.2,48.4z"/>
	<path class="st0" d="M279.1,58.2l3.5-5.6c3,2,6.4,3,9.1,3c1.6,0,2.4-0.5,2.4-1.4v-0.1c0-1-1.5-1.5-4.3-2.3
		c-5.2-1.4-9.4-3.1-9.4-8.5v-0.1c0-5.6,4.5-8.8,10.6-8.8c3.9,0,7.9,1.1,10.9,3.1l-3.2,5.9c-2.7-1.5-5.7-2.5-7.8-2.5
		c-1.4,0-2.2,0.5-2.2,1.3v0.1c0,1,1.5,1.5,4.3,2.4c5.2,1.5,9.4,3.3,9.4,8.4v0.1c0,5.8-4.4,8.9-10.8,8.9
		C287.2,62.2,282.8,60.9,279.1,58.2z"/>
	<path class="st0" d="M318.9,48.4L318.9,48.4c0-7.6,5.8-13.9,14.2-13.9c5.4,0,9.1,2.4,11.3,5.9l-6.3,4.7c-1.3-1.8-2.7-2.8-5-2.8
		c-3,0-5.2,2.6-5.2,5.9v0.1c0,3.4,2.2,6,5.3,6c2.2,0,3.6-1,5.1-2.7l6.2,4.5c-2.5,3.6-6,6.1-11.8,6.1
		C324.8,62.2,318.9,55.9,318.9,48.4z"/>
	<path class="st0" d="M347.9,25.8h9.3v12.9c1.7-2.2,4.2-4.2,7.9-4.2c5.6,0,9,3.7,9,9.8v17.4h-9.3V47.2c0-2.9-1.5-4.5-3.7-4.5
		c-2.3,0-3.9,1.6-3.9,4.5v14.4h-9.3V25.8z"/>
	<path class="st0" d="M377.9,48.4L377.9,48.4c0-7.8,5.5-14,13.4-14c9.2,0,13.4,6.7,13.4,14.5c0,0.6,0,1.3,0,1.9h-17.8
		c0.7,2.9,2.8,4.4,5.7,4.4c2.2,0,4-0.8,5.9-2.7l5.2,4.3c-2.6,3.2-6.2,5.4-11.5,5.4C383.8,62.2,377.9,56.7,377.9,48.4z M396,46.1
		c-0.3-2.9-2.1-4.8-4.6-4.8c-2.5,0-4.1,1.9-4.6,4.8H396z"/>
	<path class="st0" d="M407.6,48.4L407.6,48.4c0-7.8,5.5-14,13.4-14c9.2,0,13.4,6.7,13.4,14.5c0,0.6,0,1.3,0,1.9h-17.8
		c0.7,2.9,2.8,4.4,5.7,4.4c2.2,0,4-0.8,5.9-2.7l5.2,4.3c-2.6,3.2-6.2,5.4-11.5,5.4C413.5,62.2,407.6,56.7,407.6,48.4z M425.6,46.1
		c-0.3-2.9-2.1-4.8-4.6-4.8c-2.5,0-4.1,1.9-4.6,4.8H425.6z"/>
	<path class="st0" d="M438.3,35h9.3v5.3c1.5-3.6,4-6,8.4-5.8v9.8h-0.8c-4.9,0-7.6,2.8-7.6,8.9v8.2h-9.3V35z"/>
	<path class="st0" d="M457.8,48.4L457.8,48.4c0-7.8,5.5-14,13.4-14c9.2,0,13.4,6.7,13.4,14.5c0,0.6,0,1.3,0,1.9h-17.8
		c0.7,2.9,2.8,4.4,5.7,4.4c2.2,0,4-0.8,5.9-2.7l5.2,4.3c-2.6,3.2-6.2,5.4-11.5,5.4C463.7,62.2,457.8,56.7,457.8,48.4z M475.8,46.1
		c-0.3-2.9-2.1-4.8-4.6-4.8c-2.5,0-4.1,1.9-4.6,4.8H475.8z"/>
	<path class="st0" d="M487.6,48.4L487.6,48.4c0-8.7,5.4-14,11.7-14c4,0,6.4,1.8,8.1,3.8V25.8h9.3v35.8h-9.3V58
		c-1.8,2.2-4.1,4.1-8.1,4.1C493,62.2,487.6,56.9,487.6,48.4z M507.5,48.3L507.5,48.3c0-3.6-2.4-6.1-5.4-6.1s-5.4,2.5-5.4,6v0.1
		c0,3.5,2.5,6,5.4,6S507.5,51.9,507.5,48.3z"/>
	<path class="st0" d="M521.3,52h9.7v9.6h-9.7V52z"/>
</g>
</svg>
