<?xml version="1.0" encoding="utf-8"?>
<!-- Generator: Adobe Illustrator 25.4.1, SVG Export Plug-In . SVG Version: 6.00 Build 0)  -->
<svg version="1.1" id="Layer_1" xmlns="http://www.w3.org/2000/svg" xmlns:xlink="http://www.w3.org/1999/xlink" x="0px" y="0px"
	 viewBox="0 0 728 90" style="enable-background:new 0 0 728 90;" xml:space="preserve">
<style type="text/css">
	.st0{fill:#490A09;}
</style>
<g>
	<path class="st0" d="M69.2,29.9L69.2,29.9c0-6.4,4.9-11.3,11.4-11.3c4.4,0,7.3,1.9,9.2,4.5l-4.5,3.5C84.1,25,82.6,24,80.6,24
		c-3,0-5.2,2.6-5.2,5.7v0.1c0,3.3,2.1,5.8,5.2,5.8c2.3,0,3.6-1.1,4.9-2.6l4.5,3.2c-2,2.8-4.8,4.9-9.6,4.9
		C74.2,41.1,69.2,36.3,69.2,29.9z"/>
	<path class="st0" d="M91.4,35.8L91.4,35.8c0-3.5,2.6-5.3,6.6-5.3c1.6,0,3.1,0.3,4,0.7v-0.3c0-1.7-1.1-2.7-3.3-2.7
		c-1.8,0-3.1,0.3-4.6,0.9l-1.2-4.2c1.9-0.8,3.9-1.3,6.8-1.3c3,0,5.1,0.7,6.4,2c1.3,1.2,1.8,3,1.8,5.3v9.6H102v-1.7
		c-1.1,1.3-2.7,2.1-4.9,2.1C93.8,41,91.4,39.2,91.4,35.8z M102,34.6v-0.8c-0.6-0.2-1.4-0.4-2.3-0.4c-1.7,0-2.7,0.8-2.7,2.1v0.1
		c0,1.1,0.9,1.8,2.1,1.8C100.8,37.3,102,36.2,102,34.6z"/>
	<path class="st0" d="M111.7,35.4v-6.8h-2v-4.7h2v-4.2h5.9v4.2h3.9v4.7h-3.9v5.7c0,1.2,0.5,1.7,1.6,1.7c0.8,0,1.5-0.2,2.2-0.6V40
		c-1.1,0.6-2.4,1-4.1,1C113.8,41,111.7,39.4,111.7,35.4z"/>
	<path class="st0" d="M122.9,32.3L122.9,32.3c0-4.8,3.7-8.8,9-8.8c3.4,0,5.7,1.5,7.2,3.8l-4,3c-0.8-1.1-1.7-1.8-3.1-1.8
		c-1.9,0-3.3,1.7-3.3,3.7v0.1c0,2.2,1.4,3.8,3.3,3.8c1.4,0,2.3-0.7,3.2-1.7l3.9,2.9c-1.6,2.3-3.8,3.8-7.5,3.8
		C126.6,41,122.9,37.1,122.9,32.3z"/>
	<path class="st0" d="M141.2,18h5.9v8.2c1.1-1.4,2.6-2.7,5-2.7c3.6,0,5.7,2.4,5.7,6.2v11H152v-9.1c0-1.8-1-2.8-2.4-2.8
		c-1.4,0-2.5,1-2.5,2.8v9.1h-5.9V18z"/>
	<path class="st0" d="M170.5,35.4v-6.8h-2v-4.7h2v-4.2h5.9v4.2h3.9v4.7h-3.9v5.7c0,1.2,0.5,1.7,1.6,1.7c0.8,0,1.5-0.2,2.2-0.6V40
		c-1.1,0.6-2.4,1-4.1,1C172.6,41,170.5,39.4,170.5,35.4z"/>
	<path class="st0" d="M182.8,18h5.9v8.2c1.1-1.4,2.6-2.7,5-2.7c3.6,0,5.7,2.4,5.7,6.2v11h-5.9v-9.1c0-1.8-1-2.8-2.4-2.8
		c-1.4,0-2.5,1-2.5,2.8v9.1h-5.9V18z"/>
	<path class="st0" d="M201.8,32.3L201.8,32.3c0-5,3.5-8.8,8.5-8.8c5.8,0,8.5,4.2,8.5,9.2c0,0.4,0,0.8,0,1.2h-11.2
		c0.5,1.8,1.8,2.8,3.6,2.8c1.4,0,2.5-0.5,3.7-1.7l3.3,2.7c-1.6,2-3.9,3.4-7.3,3.4C205.5,41,201.8,37.5,201.8,32.3z M213.2,30.9
		c-0.2-1.9-1.3-3-2.9-3c-1.6,0-2.6,1.2-2.9,3H213.2z"/>
	<path class="st0" d="M229.2,32.3L229.2,32.3c0-5.5,3.4-8.8,7.4-8.8c2.5,0,4,1.1,5.1,2.4V18h5.9v22.6h-5.9v-2.2
		c-1.1,1.4-2.6,2.6-5.1,2.6C232.7,41,229.2,37.7,229.2,32.3z M241.8,32.3L241.8,32.3c0-2.3-1.5-3.8-3.4-3.8S235,30,235,32.2v0.1
		c0,2.2,1.5,3.8,3.4,3.8S241.8,34.5,241.8,32.3z"/>
	<path class="st0" d="M250.8,23.9h5.9v3.4c1-2.3,2.5-3.8,5.3-3.7v6.2h-0.5c-3.1,0-4.8,1.8-4.8,5.6v5.2h-5.9V23.9z"/>
	<path class="st0" d="M262.5,35.8L262.5,35.8c0-3.5,2.6-5.3,6.6-5.3c1.6,0,3.1,0.3,4,0.7v-0.3c0-1.7-1.1-2.7-3.3-2.7
		c-1.8,0-3.1,0.3-4.6,0.9l-1.2-4.2c1.9-0.8,3.9-1.3,6.8-1.3c3,0,5.1,0.7,6.4,2c1.3,1.2,1.8,3,1.8,5.3v9.6h-5.8v-1.7
		c-1.1,1.3-2.7,2.1-4.9,2.1C264.9,41,262.5,39.2,262.5,35.8z M273.2,34.6v-0.8c-0.6-0.2-1.4-0.4-2.3-0.4c-1.7,0-2.7,0.8-2.7,2.1v0.1
		c0,1.1,0.9,1.8,2.1,1.8C271.9,37.3,273.2,36.2,273.2,34.6z"/>
	<path class="st0" d="M281.9,23.9h5.9v2.3c1.1-1.4,2.6-2.7,5-2.7c2.2,0,3.9,1,4.8,2.7c1.5-1.7,3.2-2.7,5.6-2.7
		c3.6,0,5.7,2.2,5.7,6.1v11h-5.9v-9.1c0-1.8-0.9-2.8-2.3-2.8s-2.4,1-2.4,2.8v9.1h-5.9v-9.1c0-1.8-0.9-2.8-2.3-2.8s-2.4,1-2.4,2.8
		v9.1h-5.9V23.9z"/>
	<path class="st0" d="M311.2,35.8L311.2,35.8c0-3.5,2.6-5.3,6.6-5.3c1.6,0,3.1,0.3,4,0.7v-0.3c0-1.7-1.1-2.7-3.3-2.7
		c-1.8,0-3.1,0.3-4.6,0.9l-1.2-4.2c1.9-0.8,3.9-1.3,6.8-1.3c3,0,5.1,0.7,6.4,2c1.3,1.2,1.8,3,1.8,5.3v9.6h-5.8v-1.7
		c-1.1,1.3-2.7,2.1-4.9,2.1C313.6,41,311.2,39.2,311.2,35.8z M321.8,34.6v-0.8c-0.6-0.2-1.4-0.4-2.3-0.4c-1.7,0-2.7,0.8-2.7,2.1v0.1
		c0,1.1,0.9,1.8,2.1,1.8C320.6,37.3,321.8,36.2,321.8,34.6z"/>
	<path class="st0" d="M330.3,34.6h6.1v6h-6.1V34.6z"/>
</g>
</svg>
