<?xml version="1.0" encoding="utf-8"?>
<!-- Generator: Adobe Illustrator 25.4.1, SVG Export Plug-In . SVG Version: 6.00 Build 0)  -->
<svg version="1.1" id="Layer_1" xmlns="http://www.w3.org/2000/svg" xmlns:xlink="http://www.w3.org/1999/xlink" x="0px" y="0px"
	 viewBox="0 0 728 90" style="enable-background:new 0 0 728 90;" xml:space="preserve">
<style type="text/css">
	.st0{clip-path:url(#SVGID_00000091723850203985629090000013267552455137255824_);fill:#AC1F2D;}
	.st1{clip-path:url(#SVGID_00000091723850203985629090000013267552455137255824_);fill:#FFFFFF;}
</style>
<g>
	<defs>
		<rect id="SVGID_1_" x="8.8" y="9" width="42.3" height="40"/>
	</defs>
	<clipPath id="SVGID_00000162318239739912633300000015282924772414916796_">
		<use xlink:href="#SVGID_1_"  style="overflow:visible;"/>
	</clipPath>
	<path style="clip-path:url(#SVGID_00000162318239739912633300000015282924772414916796_);fill:#AC1F2D;" d="M48.3,29.3
		c0,10.2-8.2,18.4-18.4,18.4c-10.2,0-18.4-8.2-18.4-18.4s8.2-18.4,18.4-18.4C40.1,10.9,48.3,19.2,48.3,29.3"/>
	<path style="clip-path:url(#SVGID_00000162318239739912633300000015282924772414916796_);fill:#FFFFFF;" d="M37.3,26v2.1h2.4
		l-2.8,4.4h7v-2.2h-3l2.7-4.4H37.3z M23.6,23.3l-2.2,5l-2.2-5H16v9.2h2.6v-4.9l2.2,4.9h1.1l2.2-5v5h2.6v-9.2H23.6z M33.7,23.3v3.2
		h-3.2v-3.2h-2.8v9.2h2.8v-3.6h3.2v3.6h2.8v-9.2H33.7z"/>
	<path style="clip-path:url(#SVGID_00000162318239739912633300000015282924772414916796_);fill:#FFFFFF;" d="M37.1,36.2h2.5v-0.7
		h-1.6v-0.5h1.5v-0.7h-1.5v-0.5h1.6v-0.7h-2.4V36.2z M35.1,36.3c0.7,0,1.1-0.3,1.3-0.7l-0.6-0.5c-0.2,0.2-0.4,0.4-0.7,0.4
		c-0.4,0-0.7-0.4-0.7-0.8v0c0-0.4,0.3-0.8,0.7-0.8c0.3,0,0.5,0.1,0.7,0.4l0.6-0.5c-0.3-0.4-0.7-0.6-1.3-0.6c-0.9,0-1.6,0.7-1.6,1.6
		v0C33.6,35.6,34.3,36.3,35.1,36.3 M32,36.2h0.8v-3H32V36.2z M29.7,35.5c-0.5,0-0.8-0.4-0.8-0.8v0c0-0.4,0.3-0.8,0.8-0.8
		c0.5,0,0.8,0.4,0.8,0.8v0C30.4,35.2,30.1,35.5,29.7,35.5 M29.7,36.3c0.9,0,1.6-0.7,1.6-1.6v0c0-0.9-0.7-1.6-1.6-1.6
		S28,33.9,28,34.7v0C28,35.6,28.7,36.3,29.7,36.3 M24.6,36.2h0.8v-1.2h1.1v1.2h0.8v-3h-0.8v1.1h-1.1v-1.1h-0.8V36.2z M22.6,36.3
		c0.7,0,1.1-0.3,1.3-0.7l-0.6-0.5c-0.2,0.2-0.4,0.4-0.7,0.4c-0.4,0-0.7-0.4-0.7-0.8v0c0-0.4,0.3-0.8,0.7-0.8c0.3,0,0.5,0.1,0.7,0.4
		l0.6-0.5c-0.3-0.4-0.7-0.6-1.3-0.6c-0.9,0-1.6,0.7-1.6,1.6v0C21.1,35.6,21.8,36.3,22.6,36.3"/>
</g>
</svg>
