<?xml version="1.0" encoding="utf-8"?>
<!-- Generator: Adobe Illustrator 25.4.1, SVG Export Plug-In . SVG Version: 6.00 Build 0)  -->
<svg version="1.1" id="Layer_1" xmlns="http://www.w3.org/2000/svg" xmlns:xlink="http://www.w3.org/1999/xlink" x="0px" y="0px"
	 viewBox="0 0 160 600" style="enable-background:new 0 0 160 600;" xml:space="preserve">
<style type="text/css">
	.st0{fill:#490A09;}
</style>
<g>
	<path class="st0" d="M11,326.7h12.9v3.8h-8.5v2.4h7.7v3.5h-7.7v2.5H24v3.8H11V326.7z"/>
	<path class="st0" d="M26,338.5v-8.1h4.4v6.7c0,1.4,0.7,2.1,1.8,2.1c1,0,1.8-0.7,1.8-2.1v-6.7h4.4v12.4h-4.4v-1.7c-0.8,1-2,2-3.7,2
		C27.5,343.1,26,341.3,26,338.5z"/>
	<path class="st0" d="M40.6,330.4H45v2.5c0.7-1.7,1.9-2.8,3.9-2.7v4.6h-0.4c-2.3,0-3.6,1.3-3.6,4.2v3.9h-4.4V330.4z"/>
	<path class="st0" d="M49.7,336.6L49.7,336.6c0-3.6,2.9-6.5,6.9-6.5c4,0,6.8,2.9,6.8,6.4v0c0,3.5-2.9,6.5-6.9,6.5
		C52.6,343.1,49.7,340.2,49.7,336.6z M59.2,336.6L59.2,336.6c0-1.6-1.1-2.8-2.6-2.8c-1.6,0-2.6,1.3-2.6,2.8v0c0,1.5,1.1,2.8,2.6,2.8
		C58.2,339.4,59.2,338.1,59.2,336.6z"/>
	<path class="st0" d="M65.3,330.4h4.4v1.7c0.8-1,1.9-1.9,3.8-1.9c3,0,5.5,2.5,5.5,6.4v0c0,4-2.5,6.5-5.5,6.5c-1.9,0-3-0.8-3.8-1.8
		v5.2h-4.4V330.4z M74.6,336.6L74.6,336.6c0-1.7-1.1-2.8-2.5-2.8c-1.4,0-2.5,1.2-2.5,2.8v0c0,1.7,1.1,2.8,2.5,2.8
		C73.5,339.4,74.6,338.3,74.6,336.6z"/>
	<path class="st0" d="M80.8,326h4.4v6c0.8-1,2-2,3.7-2c2.6,0,4.2,1.7,4.2,4.6v8.1h-4.4v-6.7c0-1.4-0.7-2.1-1.7-2.1
		c-1.1,0-1.8,0.7-1.8,2.1v6.7h-4.4V326z"/>
	<path class="st0" d="M95.3,326h4.5v3.2h-4.5V326z M95.4,330.4h4.4v12.4h-4.4V330.4z"/>
	<path class="st0" d="M102.3,326h4.4v16.8h-4.4V326z"/>
	<path class="st0" d="M108.6,336.6L108.6,336.6c0-3.7,2.6-6.5,6.3-6.5c4.3,0,6.3,3.1,6.3,6.8c0,0.3,0,0.6,0,0.9h-8.3
		c0.3,1.4,1.3,2,2.7,2c1,0,1.9-0.4,2.8-1.3l2.4,2c-1.2,1.5-2.9,2.5-5.4,2.5C111.3,343.1,108.6,340.5,108.6,336.6z M117,335.5
		c-0.2-1.4-1-2.2-2.2-2.2c-1.1,0-1.9,0.9-2.2,2.2H117z"/>
	<path class="st0" d="M122.7,338.3h4.5v4.5h-4.5V338.3z"/>
</g>
</svg>
