<?xml version="1.0" encoding="utf-8"?>
<!-- Generator: Adobe Illustrator 25.4.1, SVG Export Plug-In . SVG Version: 6.00 Build 0)  -->
<svg version="1.1" id="Layer_1" xmlns="http://www.w3.org/2000/svg" xmlns:xlink="http://www.w3.org/1999/xlink" x="0px" y="0px"
	 viewBox="0 0 160 600" style="enable-background:new 0 0 160 600;" xml:space="preserve">
<style type="text/css">
	.st0{fill:#490A09;}
</style>
<g>
	<path class="st0" d="M11.1,280.5h4.5v16.1h-4.5V280.5z"/>
	<path class="st0" d="M19,292.7v-5h-1.5v-3.5H19V281h4.4v3.1h2.9v3.5h-2.9v4.2c0,0.9,0.4,1.2,1.2,1.2c0.6,0,1.1-0.2,1.7-0.4v3.4
		c-0.8,0.4-1.8,0.7-3,0.7C20.6,296.8,19,295.7,19,292.7z"/>
	<path class="st0" d="M27.5,293L27.5,293c0-2.6,2-3.9,4.9-3.9c1.1,0,2.3,0.2,3,0.5v-0.2c0-1.3-0.8-2-2.5-2c-1.3,0-2.3,0.3-3.4,0.7
		l-0.9-3.1c1.4-0.6,2.9-1,5-1c2.2,0,3.7,0.5,4.7,1.5c0.9,0.9,1.3,2.2,1.3,3.9v7.1h-4.3v-1.3c-0.8,0.9-2,1.6-3.6,1.6
		C29.3,296.8,27.5,295.5,27.5,293z M35.4,292.1v-0.6c-0.4-0.2-1.1-0.3-1.7-0.3c-1.3,0-2,0.6-2,1.5v0c0,0.8,0.6,1.4,1.5,1.4
		C34.5,294.1,35.4,293.3,35.4,292.1z"/>
	<path class="st0" d="M42,279.8h4.4v16.8H42V279.8z"/>
	<path class="st0" d="M48.3,290.4L48.3,290.4c0-3.6,2.9-6.5,6.9-6.5c4,0,6.8,2.9,6.8,6.4v0c0,3.5-2.9,6.5-6.9,6.5
		C51.1,296.9,48.3,293.9,48.3,290.4z M57.7,290.4L57.7,290.4c0-1.6-1.1-2.8-2.6-2.8c-1.6,0-2.6,1.3-2.6,2.8v0c0,1.5,1.1,2.8,2.6,2.8
		C56.7,293.2,57.7,291.9,57.7,290.4z"/>
	<path class="st0" d="M63.8,284.1h4.4v1.7c0.8-1,1.9-1.9,3.8-1.9c3,0,5.5,2.5,5.5,6.4v0c0,4-2.5,6.5-5.5,6.5c-1.9,0-3-0.8-3.8-1.8
		v5.2h-4.4V284.1z M73.2,290.4L73.2,290.4c0-1.7-1.1-2.8-2.5-2.8c-1.4,0-2.5,1.2-2.5,2.8v0c0,1.7,1.1,2.8,2.5,2.8
		C72,293.2,73.2,292,73.2,290.4z"/>
	<path class="st0" d="M79.3,279.8h4.4v6c0.8-1,2-2,3.7-2c2.6,0,4.2,1.7,4.2,4.6v8.1h-4.4v-6.7c0-1.4-0.7-2.1-1.7-2.1
		c-1.1,0-1.8,0.7-1.8,2.1v6.7h-4.4V279.8z"/>
	<path class="st0" d="M93.9,279.8h4.5v3.2h-4.5V279.8z M94,284.1h4.4v12.4H94V284.1z"/>
	<path class="st0" d="M100.9,279.8h4.4v16.8h-4.4V279.8z"/>
	<path class="st0" d="M107.1,290.4L107.1,290.4c0-3.7,2.6-6.5,6.3-6.5c4.3,0,6.3,3.1,6.3,6.8c0,0.3,0,0.6,0,0.9h-8.3
		c0.3,1.4,1.3,2,2.7,2c1,0,1.9-0.4,2.8-1.3l2.4,2c-1.2,1.5-2.9,2.5-5.4,2.5C109.9,296.9,107.1,294.3,107.1,290.4z M115.6,289.3
		c-0.2-1.4-1-2.2-2.2-2.2c-1.1,0-1.9,0.9-2.2,2.2H115.6z"/>
	<path class="st0" d="M121.3,292.1h4.5v4.5h-4.5V292.1z"/>
</g>
</svg>
