<?xml version="1.0" encoding="utf-8"?>
<!-- Generator: Adobe Illustrator 25.4.1, SVG Export Plug-In . SVG Version: 6.00 Build 0)  -->
<svg version="1.1" id="Layer_1" xmlns="http://www.w3.org/2000/svg" xmlns:xlink="http://www.w3.org/1999/xlink" x="0px" y="0px"
	 viewBox="0 0 160 600" style="enable-background:new 0 0 160 600;" xml:space="preserve">
<style type="text/css">
	.st0{fill:#490A09;}
</style>
<g>
	<path class="st0" d="M12.5,245.5h7.2l4.3,14.2l4.7-14.3h5.9l4.7,14.3l4.3-14.2h7.1l-8.2,24.7h-5.9l-4.9-14.1l-4.9,14.1h-5.9
		L12.5,245.5z"/>
	<path class="st0" d="M49.9,260.6L49.9,260.6c0-5.6,4-10,9.6-10c6.6,0,9.6,4.8,9.6,10.4c0,0.4,0,0.9,0,1.4H56.3
		c0.5,2.1,2,3.1,4.1,3.1c1.6,0,2.8-0.6,4.2-1.9l3.7,3.1c-1.8,2.3-4.5,3.9-8.2,3.9C54.1,270.5,49.9,266.5,49.9,260.6z M62.8,259
		c-0.2-2.1-1.5-3.4-3.3-3.4c-1.8,0-2.9,1.4-3.3,3.4H62.8z"/>
</g>
<g>
	<path class="st0" d="M13.8,279.4h6.7v9.2c1.2-1.6,3-3,5.7-3c4,0,6.5,2.7,6.5,7V305h-6.7v-10.3c0-2.1-1.1-3.2-2.7-3.2
		c-1.6,0-2.8,1.1-2.8,3.2V305h-6.7V279.4z"/>
	<path class="st0" d="M35.1,299.6L35.1,299.6c0-4,3-6,7.4-6c1.8,0,3.5,0.4,4.6,0.7V294c0-2-1.2-3.1-3.8-3.1c-2,0-3.5,0.4-5.2,1.1
		l-1.4-4.7c2.1-0.9,4.4-1.5,7.7-1.5c3.4,0,5.7,0.8,7.2,2.3c1.4,1.4,2,3.4,2,6V305h-6.6v-2c-1.3,1.4-3.1,2.4-5.6,2.4
		C37.9,305.4,35.1,303.4,35.1,299.6z M47.2,298.1v-0.9c-0.7-0.3-1.6-0.5-2.6-0.5c-1.9,0-3.1,0.9-3.1,2.4v0.1c0,1.3,1,2.1,2.4,2.1
		C45.8,301.3,47.2,300,47.2,298.1z"/>
	<path class="st0" d="M54.7,286h7l3.6,11.1L69,286h6.9l-7.6,19.1h-6.1L54.7,286z"/>
	<path class="st0" d="M76.2,295.6L76.2,295.6c0-5.6,4-10,9.6-10c6.6,0,9.6,4.8,9.6,10.4c0,0.4,0,0.9,0,1.4H82.6
		c0.5,2.1,2,3.1,4.1,3.1c1.6,0,2.8-0.6,4.2-1.9l3.7,3.1c-1.8,2.3-4.5,3.9-8.2,3.9C80.4,305.5,76.2,301.5,76.2,295.6z M89.1,294
		c-0.2-2.1-1.5-3.4-3.3-3.4c-1.8,0-2.9,1.4-3.3,3.4H89.1z"/>
</g>
<g>
	<path class="st0" d="M13.3,342.1l2.1-4.7c1.1,0.6,2.2,1,2.9,1c0.7,0,1.1-0.2,1.5-0.8L12.4,319h7l3.8,11.4l3.6-11.4h6.8l-6.9,18.5
		c-1.6,4.4-3.4,6.2-7.2,6.2C17.1,343.7,15.1,343.1,13.3,342.1z"/>
	<path class="st0" d="M34,328.6L34,328.6c0-5.5,4.4-10,10.5-10c6.1,0,10.5,4.5,10.5,9.9v0.1c0,5.4-4.4,9.9-10.5,9.9
		C38.4,338.5,34,334,34,328.6z M48.5,328.6L48.5,328.6c0-2.4-1.7-4.4-4-4.4c-2.4,0-4,1.9-4,4.2v0.1c0,2.3,1.7,4.3,4,4.3
		C46.9,332.8,48.5,330.9,48.5,328.6z"/>
	<path class="st0" d="M57.6,331.5V319h6.7v10.3c0,2.1,1.1,3.2,2.7,3.2c1.6,0,2.8-1.1,2.8-3.2V319h6.7v19h-6.7v-2.6
		c-1.2,1.6-3,3-5.7,3C60,338.4,57.6,335.8,57.6,331.5z"/>
	<path class="st0" d="M80,319h6.7v3.8c1.1-2.6,2.8-4.3,6-4.1v7h-0.6c-3.5,0-5.4,2-5.4,6.4v5.9H80V319z"/>
</g>
<g>
	<path class="st0" d="M20.2,357.4h-7.4v-6h21.5v6H27V376h-6.8V357.4z"/>
	<path class="st0" d="M35.4,351.5H43l5.6,15.5l5.6-15.5h7.5l-10,24.7h-6.3L35.4,351.5z"/>
	<path class="st0" d="M59.1,369.2h6.9v6.8h-6.9V369.2z"/>
</g>
</svg>
