<?xml version="1.0" encoding="utf-8"?>
<!-- Generator: Adobe Illustrator 25.4.1, SVG Export Plug-In . SVG Version: 6.00 Build 0)  -->
<svg version="1.1" id="Layer_1" xmlns="http://www.w3.org/2000/svg" xmlns:xlink="http://www.w3.org/1999/xlink" x="0px" y="0px"
	 viewBox="0 0 160 600" style="enable-background:new 0 0 160 600;" xml:space="preserve">
<style type="text/css">
	.st0{fill:#FFFFFF;}
</style>
<g>
	<path class="st0" d="M19.8,253h-7.1v-5.8h20.9v5.8h-7.1v18h-6.6V253z"/>
	<path class="st0" d="M36,246.2h6.5v9c1.2-1.5,2.9-2.9,5.5-2.9c3.9,0,6.3,2.6,6.3,6.8v12.1h-6.5v-10c0-2-1.1-3.1-2.6-3.1
		c-1.6,0-2.7,1.1-2.7,3.1v10H36V246.2z"/>
	<path class="st0" d="M56.9,262L56.9,262c0-5.4,3.8-9.7,9.3-9.7c6.4,0,9.3,4.7,9.3,10.1c0,0.4,0,0.9,0,1.3H63.1c0.5,2,2,3,4,3
		c1.5,0,2.8-0.6,4.1-1.9l3.6,3c-1.8,2.2-4.3,3.7-8,3.7C60.9,271.5,56.9,267.7,56.9,262z M69.4,260.4c-0.2-2-1.4-3.3-3.2-3.3
		c-1.7,0-2.9,1.3-3.2,3.3H69.4z"/>
</g>
<g>
	<path class="st0" d="M12.3,281.2h7l4.2,13.8l4.6-13.9h5.7l4.6,13.9l4.2-13.8h6.8l-8,24h-5.8l-4.8-13.7L26,305.2h-5.8L12.3,281.2z"
		/>
	<path class="st0" d="M48.6,295.9L48.6,295.9c0-5.3,4.3-9.7,10.2-9.7c5.9,0,10.1,4.3,10.1,9.6v0.1c0,5.2-4.3,9.6-10.2,9.6
		C52.8,305.5,48.6,301.1,48.6,295.9z M62.6,295.9L62.6,295.9c0-2.3-1.6-4.2-3.9-4.2c-2.3,0-3.8,1.9-3.8,4.1v0.1
		c0,2.2,1.6,4.2,3.9,4.2C61.1,300,62.6,298.1,62.6,295.9z"/>
	<path class="st0" d="M71.7,286.6h6.5v3.7c1.1-2.5,2.8-4.2,5.8-4v6.8h-0.5c-3.4,0-5.3,1.9-5.3,6.2v5.7h-6.5V286.6z"/>
	<path class="st0" d="M86.4,280.2h6.5V305h-6.5V280.2z"/>
	<path class="st0" d="M95.8,295.9L95.8,295.9c0-6.1,3.7-9.7,8.1-9.7c2.8,0,4.4,1.3,5.7,2.7v-8.7h6.5V305h-6.5v-2.5
		c-1.3,1.5-2.9,2.9-5.6,2.9C99.5,305.4,95.8,301.8,95.8,295.9z M109.6,295.8L109.6,295.8c0-2.5-1.7-4.2-3.7-4.2
		c-2.1,0-3.8,1.7-3.8,4.2v0.1c0,2.5,1.7,4.2,3.8,4.2C108,300,109.6,298.3,109.6,295.8z"/>
	<path class="st0" d="M118.5,291c2.3-0.2,3.5-1.4,3.4-3.2h-2.6v-6.6h6.7v5.4c0,5-2.7,6.8-7,6.9L118.5,291z"/>
	<path class="st0" d="M127.5,302.7l2.4-3.9c2.1,1.4,4.4,2.1,6.3,2.1c1.1,0,1.6-0.3,1.6-1v-0.1c0-0.7-1-1-3-1.6
		c-3.6-1-6.5-2.2-6.5-5.9v-0.1c0-3.9,3.1-6.1,7.4-6.1c2.7,0,5.5,0.8,7.6,2.1l-2.2,4.1c-1.9-1.1-4-1.7-5.4-1.7c-1,0-1.5,0.4-1.5,0.9
		v0.1c0,0.7,1.1,1.1,3,1.6c3.6,1,6.5,2.3,6.5,5.9v0.1c0,4.1-3,6.2-7.5,6.2C133.1,305.4,130,304.5,127.5,302.7z"/>
</g>
<g>
	<path class="st0" d="M13.9,315.1h12.2c3,0,5.1,0.7,6.5,2.1c1,1,1.5,2.2,1.5,3.8v0.1c0,2.8-1.6,4.4-3.7,5.3c2.9,1,4.7,2.6,4.7,5.8
		v0.1c0,4.1-3.3,6.6-9,6.6H13.9V315.1z M24.5,324.6c2,0,3.1-0.7,3.1-2.1v-0.1c0-1.3-1-2-3-2h-4.3v4.2H24.5z M25.5,333.7
		c2,0,3.2-0.8,3.2-2.2v-0.1c0-1.3-1-2.1-3.2-2.1h-5v4.4H25.5z"/>
	<path class="st0" d="M37.1,329.8L37.1,329.8c0-5.4,3.8-9.7,9.3-9.7c6.4,0,9.3,4.7,9.3,10.1c0,0.4,0,0.9,0,1.3H43.4c0.5,2,2,3,4,3
		c1.5,0,2.8-0.6,4.1-1.9l3.6,3c-1.8,2.2-4.3,3.7-8,3.7C41.2,339.4,37.1,335.6,37.1,329.8z M49.7,328.2c-0.2-2-1.4-3.3-3.2-3.3
		c-1.7,0-2.9,1.3-3.2,3.3H49.7z"/>
	<path class="st0" d="M57.1,336.6l2.4-3.9c2.1,1.4,4.4,2.1,6.3,2.1c1.1,0,1.6-0.3,1.6-1v-0.1c0-0.7-1-1-3-1.6
		c-3.6-1-6.5-2.2-6.5-5.9v-0.1c0-3.9,3.1-6.1,7.4-6.1c2.7,0,5.5,0.8,7.6,2.1l-2.2,4.1c-1.9-1.1-4-1.7-5.4-1.7c-1,0-1.5,0.4-1.5,0.9
		v0.1c0,0.7,1.1,1.1,3,1.6c3.6,1,6.5,2.3,6.5,5.9v0.1c0,4.1-3,6.2-7.5,6.2C62.7,339.4,59.6,338.5,57.1,336.6z"/>
	<path class="st0" d="M76.8,333.2v-7.5h-2.2v-5.2h2.2v-4.7h6.5v4.7h4.3v5.2h-4.3v6.2c0,1.3,0.6,1.8,1.8,1.8c0.9,0,1.7-0.2,2.5-0.6
		v5.1c-1.2,0.6-2.7,1.1-4.5,1.1C79.1,339.3,76.8,337.6,76.8,333.2z"/>
	<path class="st0" d="M106,320.9h-7.1v-5.8h20.9v5.8h-7.1v18H106V320.9z"/>
	<path class="st0" d="M120.7,315.1h7.4l5.4,15.1l5.4-15.1h7.3l-9.7,24h-6.1L120.7,315.1z"/>
</g>
<g>
	<path class="st0" d="M13.7,348.1h6.5v24.9h-6.5V348.1z"/>
	<path class="st0" d="M23.8,348.1h6.7v4.8h-6.7V348.1z M23.9,354.5h6.5v18.4h-6.5V354.5z"/>
	<path class="st0" d="M32.6,354.5h6.8l3.5,10.8l3.5-10.8h6.7L45.8,373h-5.9L32.6,354.5z"/>
	<path class="st0" d="M53.4,363.8L53.4,363.8c0-5.4,3.8-9.7,9.3-9.7c6.4,0,9.3,4.7,9.3,10.1c0,0.4,0,0.9,0,1.3H59.6c0.5,2,2,3,4,3
		c1.5,0,2.8-0.6,4.1-1.9l3.6,3c-1.8,2.2-4.3,3.7-8,3.7C57.5,373.3,53.4,369.5,53.4,363.8z M65.9,362.2c-0.2-2-1.4-3.3-3.2-3.3
		c-1.7,0-2.9,1.3-3.2,3.3H65.9z"/>
	<path class="st0" d="M73.4,370.6l2.4-3.9c2.1,1.4,4.4,2.1,6.3,2.1c1.1,0,1.6-0.3,1.6-1v-0.1c0-0.7-1-1-3-1.6
		c-3.6-1-6.5-2.2-6.5-5.9v-0.1c0-3.9,3.1-6.1,7.4-6.1c2.7,0,5.5,0.8,7.6,2.1l-2.2,4.1c-1.9-1.1-4-1.7-5.4-1.7c-1,0-1.5,0.4-1.5,0.9
		v0.1c0,0.7,1.1,1.1,3,1.6c3.6,1,6.5,2.3,6.5,5.9v0.1c0,4.1-3,6.2-7.5,6.2C79,373.3,75.9,372.4,73.4,370.6z"/>
</g>
<g>
	<path class="st0" d="M13.6,382H20v9c1.2-1.5,2.9-2.9,5.5-2.9c3.9,0,6.3,2.6,6.3,6.8v12.1h-6.5v-10c0-2-1.1-3.1-2.6-3.1
		c-1.6,0-2.7,1.1-2.7,3.1v10h-6.5V382z"/>
	<path class="st0" d="M34.4,397.7L34.4,397.7c0-5.4,3.8-9.7,9.3-9.7c6.4,0,9.3,4.7,9.3,10.1c0,0.4,0,0.9,0,1.3H40.6c0.5,2,2,3,4,3
		c1.5,0,2.8-0.6,4.1-1.9l3.6,3c-1.8,2.2-4.3,3.7-8,3.7C38.5,407.3,34.4,403.4,34.4,397.7z M46.9,396.1c-0.2-2-1.4-3.3-3.2-3.3
		c-1.7,0-2.9,1.3-3.2,3.3H46.9z"/>
	<path class="st0" d="M55.7,388.4h6.5v3.7c1.1-2.5,2.8-4.2,5.8-4v6.8h-0.5c-3.4,0-5.3,1.9-5.3,6.2v5.7h-6.5V388.4z"/>
	<path class="st0" d="M69.2,397.7L69.2,397.7c0-5.4,3.8-9.7,9.3-9.7c6.4,0,9.3,4.7,9.3,10.1c0,0.4,0,0.9,0,1.3H75.5c0.5,2,2,3,4,3
		c1.5,0,2.8-0.6,4.1-1.9l3.6,3c-1.8,2.2-4.3,3.7-8,3.7C73.3,407.3,69.2,403.4,69.2,397.7z M81.8,396.1c-0.2-2-1.4-3.3-3.2-3.3
		c-1.7,0-2.9,1.3-3.2,3.3H81.8z"/>
	<path class="st0" d="M90.2,400.2h6.7v6.6h-6.7V400.2z"/>
</g>
</svg>
