<?xml version="1.0" encoding="utf-8"?>
<!-- Generator: Adobe Illustrator 25.4.1, SVG Export Plug-In . SVG Version: 6.00 Build 0)  -->
<svg version="1.1" id="Layer_1" xmlns="http://www.w3.org/2000/svg" xmlns:xlink="http://www.w3.org/1999/xlink" x="0px" y="0px"
	 viewBox="0 0 160 600" style="enable-background:new 0 0 160 600;" xml:space="preserve">
<style type="text/css">
	.st0{fill:#490A09;}
</style>
<g>
	<path class="st0" d="M11,303.6h12.9v3.9h-8.4v2.7H23v3.7h-7.6v5.7H11V303.6z"/>
	<path class="st0" d="M25.6,307.3H30v2.5c0.7-1.7,1.9-2.8,3.9-2.7v4.6h-0.4c-2.3,0-3.6,1.3-3.6,4.2v3.9h-4.4V307.3z"/>
	<path class="st0" d="M34.3,316.1L34.3,316.1c0-2.6,2-3.9,4.9-3.9c1.1,0,2.3,0.2,3,0.5v-0.2c0-1.3-0.8-2-2.5-2
		c-1.3,0-2.3,0.3-3.4,0.7l-0.9-3.1c1.4-0.6,2.9-1,5-1c2.2,0,3.7,0.5,4.7,1.5c0.9,0.9,1.3,2.2,1.3,3.9v7.1h-4.3v-1.3
		c-0.8,0.9-2,1.6-3.6,1.6C36.1,319.9,34.3,318.6,34.3,316.1z M42.2,315.2v-0.6c-0.4-0.2-1.1-0.3-1.7-0.3c-1.3,0-2,0.6-2,1.5v0
		c0,0.8,0.6,1.4,1.5,1.4C41.3,317.2,42.2,316.4,42.2,315.2z"/>
	<path class="st0" d="M48.6,307.3H53v1.7c0.8-1,2-2,3.7-2c2.6,0,4.2,1.7,4.2,4.6v8.1h-4.4v-6.7c0-1.4-0.7-2.1-1.7-2.1
		c-1.1,0-1.8,0.7-1.8,2.1v6.7h-4.4V307.3z"/>
	<path class="st0" d="M62.7,313.5L62.7,313.5c0-3.6,2.7-6.5,6.7-6.5c2.5,0,4.2,1.1,5.3,2.8l-3,2.2c-0.6-0.8-1.3-1.3-2.3-1.3
		c-1.4,0-2.4,1.2-2.4,2.8v0c0,1.6,1,2.8,2.5,2.8c1,0,1.7-0.5,2.4-1.3l2.9,2.1c-1.1,1.7-2.8,2.8-5.5,2.8
		C65.4,320,62.7,317,62.7,313.5z"/>
	<path class="st0" d="M75.4,313.5L75.4,313.5c0-3.6,2.9-6.5,6.9-6.5c4,0,6.8,2.9,6.8,6.4v0c0,3.5-2.9,6.5-6.9,6.5
		C78.3,320,75.4,317.1,75.4,313.5z M84.9,313.5L84.9,313.5c0-1.6-1.1-2.8-2.6-2.8c-1.6,0-2.6,1.3-2.6,2.8v0c0,1.5,1.1,2.8,2.6,2.8
		C83.9,316.3,84.9,315,84.9,313.5z"/>
	<path class="st0" d="M91,307.3h4.4v1.7c0.8-1,1.9-1.9,3.8-1.9c3,0,5.5,2.5,5.5,6.4v0c0,4-2.5,6.5-5.5,6.5c-1.9,0-3-0.8-3.8-1.8v5.2
		H91V307.3z M100.3,313.5L100.3,313.5c0-1.7-1.1-2.8-2.5-2.8c-1.4,0-2.5,1.2-2.5,2.8v0c0,1.7,1.1,2.8,2.5,2.8
		C99.2,316.3,100.3,315.1,100.3,313.5z"/>
	<path class="st0" d="M106.5,302.9h4.4v6c0.8-1,2-2,3.7-2c2.6,0,4.2,1.7,4.2,4.6v8.1h-4.4v-6.7c0-1.4-0.7-2.1-1.7-2.1
		c-1.1,0-1.8,0.7-1.8,2.1v6.7h-4.4V302.9z"/>
	<path class="st0" d="M121,302.9h4.5v3.2H121V302.9z M121.1,307.3h4.4v12.4h-4.4V307.3z"/>
	<path class="st0" d="M128,302.9h4.4v16.8H128V302.9z"/>
	<path class="st0" d="M134.3,313.5L134.3,313.5c0-3.7,2.6-6.5,6.3-6.5c4.3,0,6.3,3.1,6.3,6.8c0,0.3,0,0.6,0,0.9h-8.3
		c0.3,1.4,1.3,2,2.7,2c1,0,1.9-0.4,2.8-1.3l2.4,2c-1.2,1.5-2.9,2.5-5.4,2.5C137,320,134.3,317.4,134.3,313.5z M142.7,312.4
		c-0.2-1.4-1-2.2-2.2-2.2c-1.1,0-1.9,0.9-2.2,2.2H142.7z"/>
	<path class="st0" d="M148.4,315.2h4.5v4.5h-4.5V315.2z"/>
</g>
</svg>
