<svg id="Layer_1" xmlns="http://www.w3.org/2000/svg" viewBox="0 0 300 600"><style>.st0{fill:#490a09}</style><path class="st0" d="M22.8 282.8h12.6l10.2 16.6 10.2-16.6h12.6v42.9H56.5V301l-11 16.8h-.2l-10.9-16.7v24.5H22.8v-42.8zM75 314.2v-21.7h11.6v17.9c0 3.6 1.9 5.6 4.7 5.6 2.8 0 4.8-2 4.8-5.6v-17.9h11.6v33.1H96.2v-4.5c-2.1 2.8-5.2 5.3-9.9 5.3-7 0-11.3-4.7-11.3-12.2zM114.1 292.5h11.6v6.7c1.9-4.5 5-7.5 10.5-7.2v12.2h-1c-6.1 0-9.5 3.5-9.5 11.1v10.3h-11.6v-33.1zM138.5 309.2v-.1c0-10.8 6.7-17.3 14.6-17.3 5 0 8 2.3 10.2 4.8V281h11.6v44.7h-11.6v-4.4c-2.3 2.8-5.1 5.1-10.1 5.1-7.9 0-14.7-6.6-14.7-17.2zm24.9-.1v-.1c0-4.3-3-7.5-6.7-7.5s-6.8 3.1-6.8 7.5v.1c0 4.4 3.1 7.5 6.8 7.5s6.7-3.1 6.7-7.5zM179.8 309.2v-.1c0-9.7 6.9-17.3 16.7-17.3 11.5 0 16.7 8.4 16.7 18.1 0 .7 0 1.6-.1 2.4H191c.9 3.6 3.6 5.5 7.2 5.5 2.8 0 5-1 7.4-3.4l6.4 5.3c-3.2 4-7.8 6.7-14.4 6.7-10.5 0-17.8-6.9-17.8-17.2zm22.5-2.8c-.4-3.7-2.6-6-5.8-6-3.1 0-5.1 2.4-5.8 6h11.6zM218.2 292.5h11.6v6.7c1.9-4.5 5-7.5 10.5-7.2v12.2h-1c-6.1 0-9.5 3.5-9.5 11.1v10.3h-11.6v-33.1zM241.9 321.5l4.3-7c3.8 2.5 8 3.8 11.4 3.8 2 0 2.9-.6 2.9-1.8v-.1c0-1.3-1.8-1.8-5.3-2.8-6.6-1.7-11.8-3.9-11.8-10.6v-.1c0-7 5.6-11 13.3-11 4.8 0 9.9 1.4 13.7 3.9l-4 7.4c-3.4-1.9-7.2-3.1-9.8-3.1-1.8 0-2.7.7-2.7 1.6v.1c0 1.3 1.9 1.9 5.4 2.9 6.6 1.8 11.8 4.1 11.8 10.5v.1c0 7.3-5.5 11.1-13.5 11.1-5.6 0-11.1-1.6-15.7-4.9z"/><g><path class="st0" d="M24.1 366.4v-13.5h-3.9v-9.4h3.9v-8.4h11.6v8.4h7.7v9.4h-7.7v11.2c0 2.3 1 3.3 3.2 3.3 1.5 0 3-.4 4.4-1.1v9.1c-2.1 1.2-4.8 1.9-8.1 1.9-6.9 0-11.1-3-11.1-10.9zM46.3 360.2v-.1c0-9.4 7.7-17.3 18.4-17.3 10.6 0 18.3 7.8 18.3 17.2v.1c0 9.4-7.7 17.3-18.4 17.3-10.6 0-18.3-7.7-18.3-17.2zm25.3 0v-.1c0-4-2.9-7.5-7-7.5-4.2 0-6.9 3.4-6.9 7.3v.1c0 4 2.9 7.5 7 7.5 4.2.1 6.9-3.3 6.9-7.3z"/></g><g><path class="st0" d="M19.6 421.5l4.3-7c3.8 2.5 8 3.8 11.4 3.8 2 0 2.9-.6 2.9-1.8v-.1c0-1.3-1.8-1.8-5.3-2.8-6.6-1.7-11.8-3.9-11.8-10.6v-.1c0-7 5.6-11 13.3-11 4.8 0 9.9 1.4 13.7 3.9l-4 7.3c-3.4-1.9-7.2-3.1-9.8-3.1-1.8 0-2.7.7-2.7 1.6v.1c0 1.3 1.9 1.9 5.4 2.9 6.6 1.8 11.8 4.1 11.8 10.5v.1c0 7.3-5.5 11.1-13.5 11.1-5.6.1-11.1-1.5-15.7-4.8zM52.3 409.2v-.1c0-9.4 7.7-17.3 18.4-17.3 10.6 0 18.3 7.8 18.3 17.2v.1c0 9.4-7.7 17.3-18.4 17.3s-18.3-7.7-18.3-17.2zm25.3 0v-.1c0-4-2.9-7.5-7-7.5-4.2 0-6.9 3.4-6.9 7.4v.1c0 4 2.9 7.5 7 7.5 4.2 0 6.9-3.4 6.9-7.4zM94 380.9h11.6v44.7H94v-44.7zM109.6 392.5h12.2l6.4 19.4 6.4-19.4h12.1l-13.2 33.4h-10.6l-13.3-33.4zM147.2 409.2v-.1c0-9.7 6.9-17.3 16.7-17.3 11.5 0 16.7 8.4 16.7 18.1 0 .7 0 1.6-.1 2.4h-22.2c.9 3.6 3.6 5.5 7.2 5.5 2.8 0 5-1 7.3-3.4l6.4 5.3c-3.2 4-7.8 6.7-14.4 6.7-10.3 0-17.6-6.9-17.6-17.2zm22.5-2.8c-.4-3.7-2.6-6-5.8-6-3.1 0-5.1 2.4-5.8 6h11.6zM184.8 413.7H197v11.9h-12.1v-11.9z"/></g></svg>