<svg id="Layer_1" xmlns="http://www.w3.org/2000/svg" viewBox="0 0 300 600"><style>.st0{fill:#490a09}</style><path class="st0" d="M34.4 164.1h12l5.7 16.6 14.6-16.6h13.4L68.5 207H56.6l6.6-24.6-15.4 16.8h-.2l-6.3-16.7-6.6 24.5H22.9l11.5-42.9zM78.3 197.8c0-1.8.4-3.9.9-5.9l4.8-18h11.6L91 191.2c-.2.9-.4 2-.4 2.7 0 2.2 1.3 3.5 3.7 3.5 3.2 0 5.1-2.2 6.1-6l4.7-17.5h11.6L108 207H96.3l1-3.8c-2.3 2.4-5.5 4.5-9.4 4.5-6 0-9.6-3.8-9.6-9.9zM123 173.9h11.6l-1.8 6.7c3.2-4.7 7-7.6 12.4-7.2l-3.3 12.2h-1c-6.4 0-10.5 3.6-12.6 11.5l-2.7 10H114l9-33.2zM143.4 194.1c0-11.9 8.3-21 17.8-21 5 0 8 2.1 10 5.3l4.3-16.1h11.6L175.2 207h-11.6l1-3.5c-2.6 2.5-5.8 4.2-9.4 4.2-6.6 0-11.8-5-11.8-13.6zm25.6-5.4c0-3.6-2.4-5.9-5.8-5.9-4.3 0-8.1 4.2-8.1 9.5 0 3.6 2.3 5.8 5.6 5.8 4.5 0 8.3-4.4 8.3-9.4zM201.4 199.1c2.4 0 4.5-.8 7-2.6l5.4 6.4c-3.4 2.9-7.8 5-13.5 5-9.8 0-15.8-5.8-15.8-14.7 0-9.8 7.7-20 19.9-20 9.8 0 14.1 6.6 14.1 13.7 0 2.3-.5 4.7-1.3 6.8h-22c.3 3.2 2.3 5.4 6.2 5.4zm6.5-11.4c.2-.6.3-1.2.3-1.8 0-2.3-1.5-4.2-4.5-4.2-3.1 0-6.2 2-7.6 6h11.8zM227.2 173.9h11.6l-1.8 6.7c3.2-4.7 7-7.6 12.4-7.2l-3.3 12.2h-1c-6.4 0-10.5 3.6-12.6 11.5l-2.7 10h-11.6l9-33.2z"/><g><path class="st0" d="M31.9 218h11.9l-11.5 42.9H20.4L31.9 218zM48.3 227.8H60l-1 3.8c2.3-2.4 5.6-4.5 9.5-4.5 6 0 9.6 3.8 9.6 9.9 0 1.8-.4 3.9-1 5.9l-4.8 18H60.6l4.7-17.3c.2-.9.4-2 .4-2.7 0-2.2-1.3-3.5-3.7-3.5-3.2 0-5.1 2.2-6.2 6l-4.7 17.5H39.5l8.8-33.1zM81.3 249h12.1l-3.2 11.9H78.1l3.2-11.9zM99.8 249h12.1l-3.2 11.9H96.6l3.2-11.9zM118.3 249h12.1l-3.2 11.9h-12.1l3.2-11.9z"/></g></svg>