<svg id="Layer_1" xmlns="http://www.w3.org/2000/svg" viewBox="0 0 300 600"><style>.st0{fill:#ab1f2d}.st1{fill:#fff}</style><path class="st0" d="M36.7 513.7c-9.9 0-17.9 8-17.9 17.9v5.3c0 9.9 8 17.9 17.9 17.9h124.2c9.9 0 17.9-8 17.9-17.9v-5.3c0-9.9-8-17.9-17.9-17.9H36.7z"/><path class="st1" d="M32.9 527.9h3.2l2.8 9.2 3-9.2h2.6l3 9.2 2.8-9.2h3.1l-4.6 13.7h-2.6l-3.1-8.9-3.1 8.9h-2.6l-4.5-13.7zM58.7 527.8h2.8l5.8 13.7h-3.1l-1.2-3h-5.7l-1.2 3h-3l5.6-13.7zm3.1 8l-1.8-4.4-1.8 4.4h3.6zM70.7 530.6h-4.1v-2.8h11.2v2.8h-4.1v10.8h-3v-10.8zM79 534.7c0-3.9 2.9-7.1 7.1-7.1 2.6 0 4.1.9 5.4 2.1l-1.9 2.2c-1-1-2.1-1.5-3.5-1.5-2.3 0-3.9 1.9-3.9 4.2 0 2.3 1.6 4.3 3.9 4.3 1.6 0 2.5-.6 3.6-1.6l1.9 1.9c-1.4 1.5-2.9 2.4-5.6 2.4-4.1.1-7-3-7-6.9zM93.9 527.9h3v5.4h5.5v-5.4h3v13.6h-3V536h-5.5v5.4h-3v-13.5zM114.4 527.9h2.8l6.4 8.4v-8.4h2.9v13.6H124l-6.6-8.6v8.6h-2.9v-13.6zM129.2 534.7c0-3.9 3-7.1 7.2-7.1s7.2 3.1 7.2 7-3 7-7.2 7c-4.2.1-7.2-3-7.2-6.9zm11.3 0c0-2.4-1.7-4.3-4.1-4.3-2.4 0-4.1 1.9-4.1 4.2 0 2.3 1.7 4.3 4.1 4.3 2.4 0 4.1-1.9 4.1-4.2zM144.4 527.9h3.2l2.8 9.2 3-9.2h2.6l3 9.2 2.8-9.2h3.1l-4.6 13.7h-2.6l-3.1-8.9-3.1 8.9h-2.6l-4.5-13.7z"/></svg>