<?xml version="1.0" encoding="utf-8"?>
<!-- Generator: Adobe Illustrator 25.4.1, SVG Export Plug-In . SVG Version: 6.00 Build 0)  -->
<svg version="1.1" id="Layer_1" xmlns="http://www.w3.org/2000/svg" xmlns:xlink="http://www.w3.org/1999/xlink" x="0px" y="0px"
	 viewBox="0 0 320 50" style="enable-background:new 0 0 320 50;" xml:space="preserve">
<style type="text/css">
	.st0{fill:#490A09;}
</style>
<g>
	<path class="st0" d="M16,7.3h4.4l2.1,6.1l5.3-6.1h4.9L28.5,23h-4.4l2.4-9l-5.6,6.1h-0.1L18.5,14l-2.4,9h-4.3L16,7.3z"/>
	<path class="st0" d="M32.1,19.6c0-0.7,0.1-1.4,0.3-2.2l1.8-6.6h4.3l-1.7,6.3c-0.1,0.3-0.2,0.7-0.2,1c0,0.8,0.5,1.3,1.4,1.3
		c1.2,0,1.9-0.8,2.2-2.2l1.7-6.4h4.3L43,23h-4.3l0.4-1.4c-0.8,0.9-2,1.7-3.5,1.7C33.4,23.2,32.1,21.8,32.1,19.6z"/>
	<path class="st0" d="M48.5,10.8h4.3l-0.7,2.4c1.2-1.7,2.6-2.8,4.6-2.6l-1.2,4.5h-0.4c-2.3,0-3.8,1.3-4.6,4.2l-1,3.7h-4.3L48.5,10.8
		z"/>
	<path class="st0" d="M56,18.3c0-4.4,3.1-7.7,6.5-7.7c1.8,0,2.9,0.8,3.7,1.9l1.6-5.9H72L67.6,23h-4.3l0.4-1.3
		c-1,0.9-2.1,1.5-3.5,1.5C57.9,23.2,56,21.4,56,18.3z M65.3,16.3c0-1.3-0.9-2.2-2.1-2.2c-1.6,0-3,1.5-3,3.5c0,1.3,0.8,2.1,2.1,2.1
		C64,19.7,65.3,18.1,65.3,16.3z"/>
	<path class="st0" d="M77.2,20.1c0.9,0,1.7-0.3,2.6-1l2,2.3c-1.2,1.1-2.8,1.8-5,1.8c-3.6,0-5.8-2.1-5.8-5.4c0-3.6,2.8-7.3,7.3-7.3
		c3.6,0,5.2,2.4,5.2,5c0,0.8-0.2,1.7-0.5,2.5H75C75.1,19.3,75.8,20.1,77.2,20.1z M79.6,15.9c0.1-0.2,0.1-0.4,0.1-0.7
		c0-0.8-0.5-1.5-1.7-1.5c-1.1,0-2.3,0.7-2.8,2.2H79.6z"/>
	<path class="st0" d="M86.7,10.8h4.3l-0.7,2.4c1.2-1.7,2.6-2.8,4.6-2.6l-1.2,4.5h-0.4c-2.3,0-3.8,1.3-4.6,4.2l-1,3.7h-4.3L86.7,10.8
		z"/>
	<path class="st0" d="M103.8,7.3h4.4L103.9,23h-4.4L103.8,7.3z"/>
	<path class="st0" d="M109.8,10.8h4.3l-0.4,1.4c0.8-0.9,2-1.7,3.5-1.7c2.2,0,3.5,1.4,3.5,3.6c0,0.7-0.2,1.4-0.4,2.2l-1.7,6.6h-4.3
		l1.7-6.3c0.1-0.3,0.1-0.7,0.1-1c0-0.8-0.5-1.3-1.3-1.3c-1.2,0-1.9,0.8-2.3,2.2l-1.7,6.4h-4.3L109.8,10.8z"/>
	<path class="st0" d="M121.9,18.6h4.4l-1.2,4.4h-4.4L121.9,18.6z"/>
	<path class="st0" d="M128.7,18.6h4.4l-1.2,4.4h-4.4L128.7,18.6z"/>
	<path class="st0" d="M135.5,18.6h4.4l-1.2,4.4h-4.4L135.5,18.6z"/>
</g>
</svg>
