<?xml version="1.0" encoding="utf-8"?>
<!-- Generator: Adobe Illustrator 25.4.1, SVG Export Plug-In . SVG Version: 6.00 Build 0)  -->
<svg version="1.1" id="Layer_1" xmlns="http://www.w3.org/2000/svg" xmlns:xlink="http://www.w3.org/1999/xlink" x="0px" y="0px"
	 viewBox="0 0 320 50" style="enable-background:new 0 0 320 50;" xml:space="preserve">
<style type="text/css">
	.st0{fill:#490A09;}
</style>
<g>
	<path class="st0" d="M12.9,35.4L12.9,35.4c0-4.6,3.6-8.2,8.5-8.2s8.4,3.6,8.4,8.1v0c0,4.5-3.6,8.2-8.5,8.2
		C16.5,43.5,12.9,39.9,12.9,35.4z M25.4,35.4L25.4,35.4c0-2.3-1.6-4.3-4-4.3c-2.4,0-4,1.9-4,4.2v0c0,2.3,1.6,4.2,4,4.2
		C23.8,39.6,25.4,37.7,25.4,35.4z"/>
	<path class="st0" d="M31.9,31.1h4.3v1.7c0.8-1,1.9-2,3.6-2c2.6,0,4.1,1.7,4.1,4.5v7.9h-4.3v-6.6c0-1.3-0.7-2-1.7-2
		c-1,0-1.8,0.7-1.8,2v6.6h-4.3V31.1z"/>
	<path class="st0" d="M46.2,26.8h4.3v16.4h-4.3V26.8z"/>
	<path class="st0" d="M52.5,45.8l1.3-3c0.7,0.4,1.4,0.7,1.9,0.7c0.4,0,0.7-0.1,1-0.5l-4.8-11.9h4.5l2.4,7.3l2.3-7.3h4.4l-4.4,11.8
		c-1.1,2.8-2.2,3.9-4.6,3.9C54.9,46.8,53.6,46.4,52.5,45.8z"/>
	<path class="st0" d="M72.6,37.2L72.6,37.2c0-3.5,2.8-6.4,6.7-6.4c3.9,0,6.7,2.8,6.7,6.3v0c0,3.5-2.8,6.3-6.7,6.3
		C75.4,43.5,72.6,40.6,72.6,37.2z M81.9,37.2L81.9,37.2c0-1.5-1.1-2.8-2.6-2.8c-1.5,0-2.5,1.2-2.5,2.7v0c0,1.5,1.1,2.7,2.6,2.7
		C80.9,39.9,81.9,38.6,81.9,37.2z"/>
	<path class="st0" d="M87.8,31.1h4.3v1.7c0.8-1,1.9-2,3.6-2c2.6,0,4.1,1.7,4.1,4.5v7.9h-4.3v-6.6c0-1.3-0.7-2-1.7-2
		c-1,0-1.8,0.7-1.8,2v6.6h-4.3V31.1z"/>
	<path class="st0" d="M108.5,27.5h4.6l3.7,6.1l3.7-6.1h4.6v15.7h-4.3v-9l-4,6.1h-0.1l-4-6.1v9h-4.3V27.5z"/>
	<path class="st0" d="M128,27.5h4.4v5.9h5.6v-5.9h4.4v15.7h-4.4v-6h-5.6v6H128V27.5z"/>
	<path class="st0" d="M144.4,40.4l5.6-5.9h-5.4v-3.4h11.1v2.8l-5.6,5.9h5.6v3.4h-11.3V40.4z"/>
	<path class="st0" d="M163.4,35.4L163.4,35.4c0-4.6,3.5-8.2,8.3-8.2c3.2,0,5.3,1.3,6.7,3.3L175,33c-0.9-1.1-1.9-1.8-3.4-1.8
		c-2.2,0-3.7,1.9-3.7,4.1v0c0,2.4,1.5,4.2,3.7,4.2c1.6,0,2.6-0.8,3.5-1.9l3.3,2.3c-1.5,2-3.5,3.5-7,3.5
		C167,43.5,163.4,40.1,163.4,35.4z"/>
	<path class="st0" d="M180,26.8h4.3v5.9c0.8-1,1.9-1.9,3.6-1.9c2.6,0,4.1,1.7,4.1,4.5v7.9h-4.3v-6.6c0-1.3-0.7-2-1.7-2
		c-1,0-1.8,0.7-1.8,2v6.6H180V26.8z"/>
	<path class="st0" d="M193.8,37.2L193.8,37.2c0-3.5,2.8-6.4,6.7-6.4c3.9,0,6.7,2.8,6.7,6.3v0c0,3.5-2.8,6.3-6.7,6.3
		C196.6,43.5,193.8,40.6,193.8,37.2z M203,37.2L203,37.2c0-1.5-1.1-2.8-2.6-2.8c-1.5,0-2.5,1.2-2.5,2.7v0c0,1.5,1.1,2.7,2.6,2.7
		C202,39.9,203,38.6,203,37.2z"/>
	<path class="st0" d="M209,26.8h4.4V30H209V26.8z M209.1,31.1h4.3v12.1h-4.3V31.1z"/>
	<path class="st0" d="M215.2,37.2L215.2,37.2c0-3.5,2.7-6.4,6.5-6.4c2.5,0,4.1,1.1,5.2,2.7l-2.9,2.2c-0.6-0.8-1.2-1.3-2.3-1.3
		c-1.4,0-2.4,1.2-2.4,2.7v0c0,1.6,1,2.8,2.4,2.8c1,0,1.7-0.5,2.3-1.3l2.8,2.1c-1.1,1.7-2.7,2.8-5.4,2.8
		C217.9,43.5,215.2,40.6,215.2,37.2z"/>
	<path class="st0" d="M227.7,37.2L227.7,37.2c0-3.6,2.5-6.4,6.1-6.4c4.2,0,6.1,3.1,6.1,6.6c0,0.3,0,0.6,0,0.9h-8.1
		c0.3,1.3,1.3,2,2.6,2c1,0,1.8-0.4,2.7-1.2l2.4,2c-1.2,1.5-2.8,2.5-5.3,2.5C230.4,43.5,227.7,40.9,227.7,37.2z M235.9,36.1
		c-0.2-1.3-0.9-2.2-2.1-2.2c-1.1,0-1.9,0.9-2.1,2.2H235.9z"/>
	<path class="st0" d="M241.5,38.8h4.4v4.4h-4.4V38.8z"/>
</g>
</svg>
