<?xml version="1.0" encoding="utf-8"?>
<!-- Generator: Adobe Illustrator 25.4.1, SVG Export Plug-In . SVG Version: 6.00 Build 0)  -->
<svg version="1.1" id="Layer_1" xmlns="http://www.w3.org/2000/svg" xmlns:xlink="http://www.w3.org/1999/xlink" x="0px" y="0px"
	 viewBox="0 0 320 50" style="enable-background:new 0 0 320 50;" xml:space="preserve">
<style type="text/css">
	.st0{fill:#490A09;}
</style>
<g>
	<path class="st0" d="M12.9,16.6h4.6l3.7,6.1l3.7-6.1h4.6v15.7h-4.3v-9l-4,6.1h-0.1l-4-6.1v9h-4.3V16.6z"/>
	<path class="st0" d="M32,28.1v-7.9h4.3v6.6c0,1.3,0.7,2,1.7,2c1,0,1.8-0.7,1.8-2v-6.6h4.3v12.1h-4.3v-1.7c-0.8,1-1.9,1.9-3.6,1.9
		C33.6,32.5,32,30.8,32,28.1z"/>
	<path class="st0" d="M46.3,20.1h4.3v2.4c0.7-1.7,1.8-2.7,3.8-2.6v4.5h-0.4c-2.2,0-3.5,1.3-3.5,4.1v3.8h-4.3V20.1z"/>
	<path class="st0" d="M55.3,26.2L55.3,26.2c0-4,2.5-6.4,5.3-6.4c1.8,0,2.9,0.8,3.7,1.7v-5.7h4.3v16.4h-4.3v-1.6
		c-0.8,1-1.9,1.9-3.7,1.9C57.8,32.5,55.3,30.1,55.3,26.2z M64.4,26.2L64.4,26.2c0-1.6-1.1-2.8-2.5-2.8c-1.4,0-2.5,1.1-2.5,2.7v0
		c0,1.6,1.1,2.8,2.5,2.8C63.3,29,64.4,27.8,64.4,26.2z"/>
	<path class="st0" d="M70.4,26.2L70.4,26.2c0-3.6,2.5-6.4,6.1-6.4c4.2,0,6.1,3.1,6.1,6.6c0,0.3,0,0.6,0,0.9h-8.1
		c0.3,1.3,1.3,2,2.6,2c1,0,1.8-0.4,2.7-1.2l2.4,2c-1.2,1.5-2.8,2.5-5.3,2.5C73.1,32.6,70.4,30,70.4,26.2z M78.6,25.2
		c-0.2-1.3-0.9-2.2-2.1-2.2c-1.1,0-1.9,0.9-2.1,2.2H78.6z"/>
	<path class="st0" d="M84.5,20.1h4.3v2.4c0.7-1.7,1.8-2.7,3.8-2.6v4.5h-0.4c-2.2,0-3.5,1.3-3.5,4.1v3.8h-4.3V20.1z"/>
	<path class="st0" d="M93.1,30.7l1.6-2.6c1.4,0.9,2.9,1.4,4.2,1.4c0.7,0,1.1-0.2,1.1-0.7v0c0-0.5-0.7-0.7-2-1
		c-2.4-0.6-4.3-1.4-4.3-3.9v0c0-2.6,2.1-4,4.9-4c1.8,0,3.6,0.5,5,1.4l-1.5,2.7c-1.3-0.7-2.6-1.1-3.6-1.1c-0.7,0-1,0.2-1,0.6v0
		c0,0.5,0.7,0.7,2,1.1c2.4,0.7,4.3,1.5,4.3,3.9v0c0,2.7-2,4.1-5,4.1C96.8,32.5,94.8,31.9,93.1,30.7z"/>
	<path class="st0" d="M112.6,28.5v-4.9h-1.4v-3.4h1.4v-3.1h4.3v3.1h2.8v3.4h-2.8v4.1c0,0.9,0.4,1.2,1.2,1.2c0.6,0,1.1-0.2,1.6-0.4
		v3.3c-0.8,0.4-1.8,0.7-3,0.7C114.1,32.5,112.6,31.4,112.6,28.5z"/>
	<path class="st0" d="M120.7,26.2L120.7,26.2c0-3.5,2.8-6.4,6.7-6.4c3.9,0,6.7,2.8,6.7,6.3v0c0,3.5-2.8,6.3-6.7,6.3
		C123.5,32.6,120.7,29.7,120.7,26.2z M129.9,26.2L129.9,26.2c0-1.5-1.1-2.8-2.6-2.8c-1.5,0-2.5,1.2-2.5,2.7v0c0,1.5,1.1,2.7,2.6,2.7
		C129,28.9,129.9,27.7,129.9,26.2z"/>
	<path class="st0" d="M141.2,30.7l1.6-2.6c1.4,0.9,2.9,1.4,4.2,1.4c0.7,0,1.1-0.2,1.1-0.7v0c0-0.5-0.7-0.7-2-1
		c-2.4-0.6-4.3-1.4-4.3-3.9v0c0-2.6,2.1-4,4.9-4c1.8,0,3.6,0.5,5,1.4l-1.5,2.7c-1.3-0.7-2.6-1.1-3.6-1.1c-0.7,0-1,0.2-1,0.6v0
		c0,0.5,0.7,0.7,2,1.1c2.4,0.7,4.3,1.5,4.3,3.9v0c0,2.7-2,4.1-5,4.1C144.9,32.5,142.9,31.9,141.2,30.7z"/>
	<path class="st0" d="M153.1,26.2L153.1,26.2c0-3.5,2.8-6.4,6.7-6.4c3.9,0,6.7,2.8,6.7,6.3v0c0,3.5-2.8,6.3-6.7,6.3
		C155.9,32.6,153.1,29.7,153.1,26.2z M162.4,26.2L162.4,26.2c0-1.5-1.1-2.8-2.6-2.8c-1.5,0-2.5,1.2-2.5,2.7v0c0,1.5,1.1,2.7,2.6,2.7
		C161.4,28.9,162.4,27.7,162.4,26.2z"/>
	<path class="st0" d="M168.4,15.9h4.3v16.4h-4.3V15.9z"/>
	<path class="st0" d="M174.2,20.1h4.5l2.3,7.1l2.3-7.1h4.4l-4.8,12.2H179L174.2,20.1z"/>
	<path class="st0" d="M187.9,26.2L187.9,26.2c0-3.6,2.5-6.4,6.1-6.4c4.2,0,6.1,3.1,6.1,6.6c0,0.3,0,0.6,0,0.9H192
		c0.3,1.3,1.3,2,2.6,2c1,0,1.8-0.4,2.7-1.2l2.4,2c-1.2,1.5-2.8,2.5-5.3,2.5C190.6,32.6,187.9,30,187.9,26.2z M196.1,25.2
		c-0.2-1.3-0.9-2.2-2.1-2.2c-1.1,0-1.9,0.9-2.1,2.2H196.1z"/>
	<path class="st0" d="M201.7,27.9h4.4v4.4h-4.4V27.9z"/>
</g>
</svg>
