<?xml version="1.0" encoding="utf-8"?>
<!-- Generator: Adobe Illustrator 25.4.1, SVG Export Plug-In . SVG Version: 6.00 Build 0)  -->
<svg version="1.1" id="Layer_1" xmlns="http://www.w3.org/2000/svg" xmlns:xlink="http://www.w3.org/1999/xlink" x="0px" y="0px"
	 viewBox="0 0 320 50" style="enable-background:new 0 0 320 50;" xml:space="preserve">
<style type="text/css">
	.st0{clip-path:url(#SVGID_00000112621129586106318050000014355337197300909991_);fill:#AC1F2D;}
	.st1{clip-path:url(#SVGID_00000112621129586106318050000014355337197300909991_);fill:#FFFFFF;}
</style>
<g>
	<defs>
		<rect id="SVGID_1_" x="292.6" y="3.5" width="23.9" height="22.7"/>
	</defs>
	<clipPath id="SVGID_00000065788583046517166880000009243441227843905720_">
		<use xlink:href="#SVGID_1_"  style="overflow:visible;"/>
	</clipPath>
	<path style="clip-path:url(#SVGID_00000065788583046517166880000009243441227843905720_);fill:#AC1F2D;" d="M315,15
		c0,5.8-4.7,10.4-10.4,10.4c-5.8,0-10.4-4.7-10.4-10.4s4.7-10.4,10.4-10.4C310.3,4.6,315,9.3,315,15"/>
	<path style="clip-path:url(#SVGID_00000065788583046517166880000009243441227843905720_);fill:#FFFFFF;" d="M308.7,13.1v1.2h1.4
		l-1.6,2.5h3.9v-1.2h-1.7l1.5-2.5H308.7z M300.9,11.6l-1.3,2.8l-1.2-2.8h-1.8v5.2h1.4v-2.8l1.3,2.8h0.6l1.2-2.9v2.9h1.5v-5.2H300.9z
		 M306.7,11.6v1.8h-1.8v-1.8h-1.6v5.2h1.6v-2.1h1.8v2.1h1.6v-5.2H306.7z"/>
	<path style="clip-path:url(#SVGID_00000065788583046517166880000009243441227843905720_);fill:#FFFFFF;" d="M308.6,18.9h1.4v-0.4
		h-0.9v-0.3h0.8v-0.4h-0.8v-0.3h0.9v-0.4h-1.4V18.9z M307.5,19c0.4,0,0.6-0.2,0.8-0.4l-0.4-0.3c-0.1,0.1-0.2,0.2-0.4,0.2
		c-0.2,0-0.4-0.2-0.4-0.5v0c0-0.2,0.2-0.5,0.4-0.5c0.2,0,0.3,0.1,0.4,0.2l0.4-0.3c-0.2-0.2-0.4-0.4-0.7-0.4c-0.5,0-0.9,0.4-0.9,0.9
		v0C306.6,18.6,307,19,307.5,19 M305.7,18.9h0.5v-1.7h-0.5V18.9z M304.4,18.5c-0.3,0-0.4-0.2-0.4-0.5v0c0-0.2,0.2-0.5,0.4-0.5
		c0.3,0,0.4,0.2,0.4,0.5v0C304.8,18.3,304.6,18.5,304.4,18.5 M304.4,19c0.5,0,0.9-0.4,0.9-0.9v0c0-0.5-0.4-0.9-0.9-0.9
		c-0.5,0-0.9,0.4-0.9,0.9v0C303.5,18.6,303.9,19,304.4,19 M301.5,18.9h0.5v-0.7h0.6v0.7h0.5v-1.7h-0.5v0.6H302v-0.6h-0.5V18.9z
		 M300.4,19c0.4,0,0.6-0.2,0.8-0.4l-0.4-0.3c-0.1,0.1-0.2,0.2-0.4,0.2c-0.2,0-0.4-0.2-0.4-0.5v0c0-0.2,0.2-0.5,0.4-0.5
		c0.2,0,0.3,0.1,0.4,0.2l0.4-0.3c-0.2-0.2-0.4-0.4-0.7-0.4c-0.5,0-0.9,0.4-0.9,0.9v0C299.5,18.6,299.9,19,300.4,19"/>
</g>
</svg>
