<svg id="Layer_1" xmlns="http://www.w3.org/2000/svg" viewBox="0 0 300 50"><style>.st0{fill:#490a09}</style><path class="st0" d="M8.9 17.5c0-4.2 3.4-7.8 8.4-7.8 2.6 0 4.5 1.1 5.4 2.2l-2.4 2.4c-.8-.8-1.8-1.3-3.2-1.3-2.6 0-4.4 2-4.4 4.4 0 1.8 1.3 2.8 2.9 2.8.7 0 1.3-.1 1.7-.4l.5-1.8h-2.5l.7-2.6h6L20.1 22c-1.3.7-3 1.3-4.9 1.3-3.1 0-6.3-1.8-6.3-5.8zM25.6 9.4h3.5L25.4 23h-3.5l3.7-13.6zM28.4 18.6c0-3 2.6-5.9 5.9-5.9 3.1 0 5 2 5 4.7 0 3.1-2.6 5.9-6 5.9-3 0-4.9-2.1-4.9-4.7zm7.5-1.1c0-1.1-.7-1.9-1.8-1.9-1.4 0-2.4 1.5-2.4 2.8 0 1.2.7 1.9 1.8 1.9 1.4 0 2.4-1.5 2.4-2.8zM42.2 12.9h3.5l-.5 2c1-1.4 2.1-2.3 3.8-2.2l-1 3.7h-.3c-1.9 0-3.2 1.1-3.8 3.5L43 23h-3.5l2.7-10.1zM50.3 12.9h3.5L51.1 23h-3.5l2.7-10.1zm.9-3.5h3.7l-.8 2.6h-3.7l.8-2.6zM53.5 20.5c0-2.2 1.8-3.6 4.4-3.6.9 0 1.8.1 2.6.4v-.1c0-.2.1-.4.1-.6 0-.7-.5-1.1-1.7-1.1-1 0-2 .2-2.7.5l-.5-2.6c1.1-.4 2.5-.6 4-.6 3 0 4.5 1.2 4.5 3.2 0 .5-.1 1-.2 1.5L62.4 23h-3.5l.3-1.1c-.9.8-1.7 1.3-2.9 1.3-1.6 0-2.8-1-2.8-2.7zm6.5-1.3l.1-.3c-.4-.1-.8-.2-1.3-.2-1.1 0-1.8.5-1.8 1.5 0 .6.4.9 1 .9.9-.1 1.8-.9 2-1.9z"/><g><path class="st0" d="M65.4 19.4h3.7V23h-3.7v-3.6z"/></g></svg>