<svg id="Layer_1" xmlns="http://www.w3.org/2000/svg" viewBox="0 0 300 50"><style>.st0{fill:#490a09}</style><path class="st0" d="M12.7 29.4h-4v-3.2h11.5v3.2h-3.9v9.9h-3.6v-9.9zM21.6 25.6h3.5v4.9c.7-.8 1.6-1.6 3-1.6 2.1 0 3.4 1.4 3.4 3.7v6.6H28v-5.5c0-1.1-.6-1.7-1.4-1.7-.9 0-1.5.6-1.5 1.7v5.5h-3.5V25.6zM33 34.3c0-3 2.1-5.3 5.1-5.3 3.5 0 5.1 2.6 5.1 5.5v.7h-6.8c.3 1.1 1.1 1.7 2.2 1.7.8 0 1.5-.3 2.2-1l2 1.6c-1 1.2-2.4 2.1-4.4 2.1-3.2-.1-5.4-2.2-5.4-5.3zm6.9-.9c-.1-1.1-.8-1.8-1.8-1.8-.9 0-1.6.7-1.8 1.8h3.6zM49.9 29.2h3.5v1.4c.7-.8 1.6-1.6 3-1.6 2.1 0 3.4 1.4 3.4 3.7v6.6h-3.5v-5.5c0-1.1-.6-1.7-1.4-1.7-.9 0-1.5.6-1.5 1.7v5.5h-3.5V29.2zM61.3 34.3c0-3 2.1-5.3 5.1-5.3 3.5 0 5.1 2.6 5.1 5.5v.7h-6.8c.3 1.1 1.1 1.7 2.2 1.7.8 0 1.5-.3 2.2-1l2 1.6c-1 1.2-2.4 2.1-4.4 2.1-3.2-.1-5.4-2.2-5.4-5.3zm6.8-.9c-.1-1.1-.8-1.8-1.8-1.8-.9 0-1.6.7-1.8 1.8h3.6zM71.8 29.2h3.5l1.3 5.1 1.5-5.1H81l1.6 5.2 1.4-5.1h3.4l-3.1 10.2h-3.1l-1.6-5.2-1.7 5.2h-3l-3.1-10.3zM93.9 26.2h10.5v3.2h-6.8v2.2h6.2v3h-6.2v4.7H94V26.2zM105.8 29.2h3.5v2c.6-1.4 1.5-2.3 3.2-2.2v3.7h-.3c-1.8 0-2.9 1.1-2.9 3.4v3.1h-3.5v-10zM113.2 34.3c0-3 2.1-5.3 5.1-5.3 3.5 0 5.1 2.6 5.1 5.5v.7h-6.8c.3 1.1 1.1 1.7 2.2 1.7.8 0 1.5-.3 2.2-1l2 1.6c-1 1.2-2.4 2.1-4.4 2.1-3.1-.1-5.4-2.2-5.4-5.3zm6.9-.9c-.1-1.1-.8-1.8-1.8-1.8-.9 0-1.6.7-1.8 1.8h3.6zM124.9 29.2h3.5v1.4c.7-.8 1.6-1.6 3-1.6 2.1 0 3.4 1.4 3.4 3.7v6.6h-3.5v-5.5c0-1.1-.6-1.7-1.4-1.7-.9 0-1.5.6-1.5 1.7v5.5h-3.5V29.2zM136.3 34.3c0-2.9 2.2-5.3 5.4-5.3 2.1 0 3.5.9 4.3 2.3l-2.4 1.8c-.5-.7-1-1.1-1.9-1.1-1.1 0-2 1-2 2.2 0 1.3.8 2.3 2 2.3.8 0 1.4-.4 1.9-1l2.4 1.7c-.9 1.4-2.3 2.3-4.5 2.3-2.9 0-5.2-2.4-5.2-5.2zM147.4 25.6h3.5v4.9c.7-.8 1.6-1.6 3-1.6 2.1 0 3.4 1.4 3.4 3.7v6.6h-3.5v-5.5c0-1.1-.6-1.7-1.4-1.7-.9 0-1.5.6-1.5 1.7v5.5h-3.5V25.6zM165 36.1V32h-1.2v-2.9h1.2v-2.6h3.5v2.6h2.4V32h-2.4v3.4c0 .7.3 1 1 1 .5 0 .9-.1 1.3-.3v2.8c-.6.4-1.5.6-2.5.6-2 0-3.3-1-3.3-3.4zM172.4 25.6h3.5v4.9c.7-.8 1.6-1.6 3-1.6 2.1 0 3.4 1.4 3.4 3.7v6.6h-3.5v-5.5c0-1.1-.6-1.7-1.4-1.7-.9 0-1.5.6-1.5 1.7v5.5h-3.5V25.6zM184.2 29.2h3.5v2c.6-1.4 1.5-2.3 3.2-2.2v3.7h-.3c-1.8 0-2.9 1.1-2.9 3.4v3.1h-3.5v-10zM192.2 25.6h3.7v2.6h-3.7v-2.6zm.1 3.6h3.5v10.1h-3.5V29.2zM197.9 25.6h3.5v13.6h-3.5V25.6zM203.5 25.6h3.5v13.6h-3.5V25.6zM208.6 34.3c0-3 2.1-5.3 5.1-5.3 3.5 0 5.1 2.6 5.1 5.5v.7H212c.3 1.1 1.1 1.7 2.2 1.7.8 0 1.5-.3 2.2-1l2 1.6c-1 1.2-2.4 2.1-4.4 2.1-3.2-.1-5.4-2.2-5.4-5.3zm6.9-.9c-.1-1.1-.8-1.8-1.8-1.8-.9 0-1.6.7-1.8 1.8h3.6zM220.3 29.2h3.5v2c.6-1.4 1.5-2.3 3.2-2.2v3.7h-.3c-1.8 0-2.9 1.1-2.9 3.4v3.1h-3.5v-10zM226.9 35.6h3.7v3.6h-3.7v-3.6z"/></svg>