<?xml version="1.0" encoding="utf-8"?>
<!-- Generator: Adobe Illustrator 25.4.1, SVG Export Plug-In . SVG Version: 6.00 Build 0)  -->
<svg version="1.1" id="Layer_1" xmlns="http://www.w3.org/2000/svg" xmlns:xlink="http://www.w3.org/1999/xlink" x="0px" y="0px"
	 viewBox="0 0 300 600" style="enable-background:new 0 0 300 600;" xml:space="preserve">
<style type="text/css">
	.st0{fill:#490A09;}
</style>
<g>
	<path class="st0" d="M23.2,316.8v-0.1c0-12.3,9.9-22.3,23.2-22.3s23,9.9,23,22.2v0.1c0,12.3-9.9,22.3-23.2,22.3
		C33,339,23.2,329.1,23.2,316.8z M57.2,316.8v-0.1c0-6.2-4.5-11.6-11-11.6c-6.5,0-10.8,5.3-10.8,11.5v0.1c0,6.2,4.5,11.6,11,11.6
		C52.9,328.3,57.2,323,57.2,316.8z"/>
	<path class="st0" d="M74.8,305h11.6v4.7c2.1-2.8,5.2-5.4,9.9-5.4c7,0,11.3,4.7,11.3,12.2v21.7H96v-17.9c0-3.6-1.9-5.6-4.7-5.6
		c-2.8,0-4.9,2-4.9,5.6v17.9H74.8V305z"/>
	<path class="st0" d="M113.9,293.4h11.6v44.7h-11.6V293.4z"/>
	<path class="st0" d="M131.2,345.2l3.6-8.1c1.8,1.1,3.8,1.8,5.1,1.8c1.2,0,2-0.3,2.7-1.3l-13-32.5h12.2l6.6,20l6.2-20h11.9
		l-12.1,32.3c-2.9,7.7-6,10.8-12.6,10.8C137.7,348.1,134.3,346.9,131.2,345.2z"/>
	<path class="st0" d="M186,321.7v-0.1c0-9.4,7.7-17.3,18.4-17.3c10.6,0,18.3,7.8,18.3,17.2v0.1c0,9.4-7.7,17.3-18.4,17.3
		C193.7,338.9,186,331.1,186,321.7z M211.3,321.7v-0.1c0-4-2.9-7.5-7-7.5c-4.2,0-6.9,3.4-6.9,7.4v0.1c0,4,2.9,7.5,7,7.5
		C208.6,329,211.3,325.7,211.3,321.7z"/>
	<path class="st0" d="M227.5,305h11.6v4.7c2.1-2.8,5.2-5.4,9.9-5.4c7,0,11.3,4.7,11.3,12.2v21.7h-11.6v-17.9c0-3.6-1.9-5.6-4.7-5.6
		c-2.8,0-4.9,2-4.9,5.6v17.9h-11.6V305z"/>
</g>
<g>
	<path class="st0" d="M24.6,349.1h12.6l10.2,16.6l10.2-16.6h12.6V392H58.4v-24.6l-11,16.8h-0.2l-10.9-16.7V392H24.6V349.1z"/>
	<path class="st0" d="M77.8,349.1h11.9v16h15.3v-16h11.9V392h-11.9v-16.3H89.7V392H77.8V349.1z"/>
	<path class="st0" d="M122.6,384.4l15.3-16.2h-14.8v-9.2h30.2v7.7l-15.4,16.2h15.4v9.2h-30.7V384.4z"/>
</g>
<g>
	<path class="st0" d="M23.2,424.6v-0.1c0-12.5,9.6-22.3,22.6-22.3c8.8,0,14.4,3.7,18.2,8.9L55,418c-2.4-3.1-5.3-5-9.4-5
		c-6,0-10.2,5.1-10.2,11.3v0.1c0,6.4,4.2,11.5,10.2,11.5c4.5,0,7.1-2.1,9.7-5.2l8.9,6.4c-4,5.6-9.5,9.7-19,9.7
		C33,446.8,23.2,437.4,23.2,424.6z"/>
	<path class="st0" d="M68.7,401.2h11.6v16.1c2.1-2.8,5.2-5.3,9.9-5.3c7,0,11.3,4.7,11.3,12.2v21.7H89.9V428c0-3.6-1.9-5.6-4.7-5.6
		c-2.8,0-4.9,2-4.9,5.6v17.9H68.7V401.2z"/>
	<path class="st0" d="M106.1,429.5v-0.1c0-9.4,7.7-17.3,18.4-17.3c10.6,0,18.3,7.8,18.3,17.2v0.1c0,9.4-7.7,17.3-18.4,17.3
		C113.8,446.7,106.1,438.9,106.1,429.5z M131.4,429.5v-0.1c0-4-2.9-7.5-7-7.5c-4.2,0-6.9,3.4-6.9,7.4v0.1c0,4,2.9,7.5,7,7.5
		C128.7,436.9,131.4,433.5,131.4,429.5z"/>
	<path class="st0" d="M147.7,401.2h12.1v8.6h-12.1V401.2z M147.9,412.8h11.6v33.1h-11.6V412.8z"/>
	<path class="st0" d="M164.7,429.5v-0.1c0-9.4,7.3-17.3,17.8-17.3c6.8,0,11.3,2.9,14.1,7.4l-7.9,5.9c-1.6-2.2-3.4-3.5-6.2-3.5
		c-3.7,0-6.5,3.3-6.5,7.4v0.1c0,4.3,2.7,7.5,6.6,7.5c2.8,0,4.5-1.3,6.4-3.4l7.8,5.6c-3.1,4.5-7.5,7.6-14.8,7.6
		C172,446.7,164.7,438.9,164.7,429.5z"/>
	<path class="st0" d="M198.7,429.5v-0.1c0-9.7,6.9-17.3,16.7-17.3c11.5,0,16.7,8.4,16.7,18.1c0,0.7,0,1.6-0.1,2.4h-22.2
		c0.9,3.6,3.6,5.5,7.2,5.5c2.8,0,5-1,7.4-3.4l6.4,5.3c-3.2,4-7.8,6.7-14.4,6.7C206,446.7,198.7,439.8,198.7,429.5z M221.2,426.6
		c-0.4-3.7-2.6-6-5.8-6c-3.1,0-5.1,2.4-5.8,6H221.2z"/>
	<path class="st0" d="M236.3,434h12.1v11.9h-12.1V434z"/>
</g>
</svg>
