<?xml version="1.0" encoding="utf-8"?>
<!-- Generator: Adobe Illustrator 25.4.1, SVG Export Plug-In . SVG Version: 6.00 Build 0)  -->
<svg version="1.1" id="Layer_1" xmlns="http://www.w3.org/2000/svg" xmlns:xlink="http://www.w3.org/1999/xlink" x="0px" y="0px"
	 viewBox="0 0 300 600" style="enable-background:new 0 0 300 600;" xml:space="preserve">
<style type="text/css">
	.st0{fill:#490A09;}
</style>
<g>
	<path class="st0" d="M22.8,282.8h12.6l10.2,16.6l10.2-16.6h12.6v42.9H56.5V301l-11,16.8h-0.2l-10.9-16.7v24.5H22.8V282.8z"/>
	<path class="st0" d="M75,314.2v-21.7h11.6v17.9c0,3.6,1.9,5.6,4.7,5.6c2.8,0,4.8-2,4.8-5.6v-17.9h11.6v33.1H96.2v-4.5
		c-2.1,2.8-5.2,5.3-9.9,5.3C79.3,326.4,75,321.7,75,314.2z"/>
	<path class="st0" d="M114.1,292.5h11.6v6.7c1.9-4.5,5-7.5,10.5-7.2v12.2h-1c-6.1,0-9.5,3.5-9.5,11.1v10.3h-11.6V292.5z"/>
	<path class="st0" d="M138.5,309.2v-0.1c0-10.8,6.7-17.3,14.6-17.3c5,0,8,2.3,10.2,4.8v-15.6h11.6v44.7h-11.6v-4.4
		c-2.3,2.8-5.1,5.1-10.1,5.1C145.3,326.4,138.5,319.8,138.5,309.2z M163.4,309.1V309c0-4.3-3-7.5-6.7-7.5s-6.8,3.1-6.8,7.5v0.1
		c0,4.4,3.1,7.5,6.8,7.5S163.4,313.5,163.4,309.1z"/>
	<path class="st0" d="M179.8,309.2v-0.1c0-9.7,6.9-17.3,16.7-17.3c11.5,0,16.7,8.4,16.7,18.1c0,0.7,0,1.6-0.1,2.4H191
		c0.9,3.6,3.6,5.5,7.2,5.5c2.8,0,5-1,7.4-3.4l6.4,5.3c-3.2,4-7.8,6.7-14.4,6.7C187.1,326.4,179.8,319.5,179.8,309.2z M202.3,306.4
		c-0.4-3.7-2.6-6-5.8-6c-3.1,0-5.1,2.4-5.8,6H202.3z"/>
	<path class="st0" d="M218.2,292.5h11.6v6.7c1.9-4.5,5-7.5,10.5-7.2v12.2h-1c-6.1,0-9.5,3.5-9.5,11.1v10.3h-11.6V292.5z"/>
	<path class="st0" d="M241.9,321.5l4.3-7c3.8,2.5,8,3.8,11.4,3.8c2,0,2.9-0.6,2.9-1.8v-0.1c0-1.3-1.8-1.8-5.3-2.8
		c-6.6-1.7-11.8-3.9-11.8-10.6v-0.1c0-7,5.6-11,13.3-11c4.8,0,9.9,1.4,13.7,3.9l-4,7.4c-3.4-1.9-7.2-3.1-9.8-3.1
		c-1.8,0-2.7,0.7-2.7,1.6v0.1c0,1.3,1.9,1.9,5.4,2.9c6.6,1.8,11.8,4.1,11.8,10.5v0.1c0,7.3-5.5,11.1-13.5,11.1
		C252,326.4,246.5,324.8,241.9,321.5z"/>
</g>
<g>
	<path class="st0" d="M24.1,366.4v-13.5h-3.9v-9.4h3.9v-8.4h11.6v8.4h7.7v9.4h-7.7v11.2c0,2.3,1,3.3,3.2,3.3c1.5,0,3-0.4,4.4-1.1
		v9.1c-2.1,1.2-4.8,1.9-8.1,1.9C28.3,377.3,24.1,374.3,24.1,366.4z"/>
	<path class="st0" d="M46.3,360.2v-0.1c0-9.4,7.7-17.3,18.4-17.3c10.6,0,18.3,7.8,18.3,17.2v0.1c0,9.4-7.7,17.3-18.4,17.3
		C54,377.4,46.3,369.7,46.3,360.2z M71.6,360.2v-0.1c0-4-2.9-7.5-7-7.5c-4.2,0-6.9,3.4-6.9,7.3v0.1c0,4,2.9,7.5,7,7.5
		C68.9,367.6,71.6,364.2,71.6,360.2z"/>
</g>
<g>
	<path class="st0" d="M19.6,421.5l4.3-7c3.8,2.5,8,3.8,11.4,3.8c2,0,2.9-0.6,2.9-1.8v-0.1c0-1.3-1.8-1.8-5.3-2.8
		c-6.6-1.7-11.8-3.9-11.8-10.6v-0.1c0-7,5.6-11,13.3-11c4.8,0,9.9,1.4,13.7,3.9l-4,7.3c-3.4-1.9-7.2-3.1-9.8-3.1
		c-1.8,0-2.7,0.7-2.7,1.6v0.1c0,1.3,1.9,1.9,5.4,2.9c6.6,1.8,11.8,4.1,11.8,10.5v0.1c0,7.3-5.5,11.1-13.5,11.1
		C29.7,426.4,24.2,424.8,19.6,421.5z"/>
	<path class="st0" d="M52.3,409.2v-0.1c0-9.4,7.7-17.3,18.4-17.3c10.6,0,18.3,7.8,18.3,17.2v0.1c0,9.4-7.7,17.3-18.4,17.3
		C59.9,426.4,52.3,418.7,52.3,409.2z M77.6,409.2v-0.1c0-4-2.9-7.5-7-7.5c-4.2,0-6.9,3.4-6.9,7.4v0.1c0,4,2.9,7.5,7,7.5
		C74.9,416.6,77.6,413.2,77.6,409.2z"/>
	<path class="st0" d="M94,380.9h11.6v44.7H94V380.9z"/>
	<path class="st0" d="M109.6,392.5h12.2l6.4,19.4l6.4-19.4h12.1l-13.2,33.4h-10.6L109.6,392.5z"/>
	<path class="st0" d="M147.2,409.2v-0.1c0-9.7,6.9-17.3,16.7-17.3c11.5,0,16.7,8.4,16.7,18.1c0,0.7,0,1.6-0.1,2.4h-22.2
		c0.9,3.6,3.6,5.5,7.2,5.5c2.8,0,5-1,7.3-3.4l6.4,5.3c-3.2,4-7.8,6.7-14.4,6.7C154.5,426.4,147.2,419.5,147.2,409.2z M169.7,406.4
		c-0.4-3.7-2.6-6-5.8-6c-3.1,0-5.1,2.4-5.8,6H169.7z"/>
	<path class="st0" d="M184.8,413.7H197v11.9h-12.1V413.7z"/>
</g>
</svg>
