<?xml version="1.0" encoding="utf-8"?>
<!-- Generator: Adobe Illustrator 25.4.1, SVG Export Plug-In . SVG Version: 6.00 Build 0)  -->
<svg version="1.1" id="Layer_1" xmlns="http://www.w3.org/2000/svg" xmlns:xlink="http://www.w3.org/1999/xlink" x="0px" y="0px"
	 viewBox="0 0 300 600" style="enable-background:new 0 0 300 600;" xml:space="preserve">
<style type="text/css">
	.st0{fill:#490A09;}
</style>
<g>
	<path class="st0" d="M34.4,164.1h12l5.7,16.6l14.6-16.6h13.4L68.5,207H56.6l6.6-24.6l-15.4,16.8h-0.2l-6.3-16.7L34.7,207H22.9
		L34.4,164.1z"/>
	<path class="st0" d="M78.3,197.8c0-1.8,0.4-3.9,0.9-5.9l4.8-18h11.6L91,191.2c-0.2,0.9-0.4,2-0.4,2.7c0,2.2,1.3,3.5,3.7,3.5
		c3.2,0,5.1-2.2,6.1-6l4.7-17.5h11.6L108,207H96.3l1-3.8c-2.3,2.4-5.5,4.5-9.4,4.5C81.9,207.7,78.3,203.9,78.3,197.8z"/>
	<path class="st0" d="M123,173.9h11.6l-1.8,6.7c3.2-4.7,7-7.6,12.4-7.2l-3.3,12.2h-1c-6.4,0-10.5,3.6-12.6,11.5l-2.7,10h-11.6
		L123,173.9z"/>
	<path class="st0" d="M143.4,194.1c0-11.9,8.3-21,17.8-21c5,0,8,2.1,10,5.3l4.3-16.1h11.6L175.2,207h-11.6l1-3.5
		c-2.6,2.5-5.8,4.2-9.4,4.2C148.6,207.7,143.4,202.7,143.4,194.1z M169,188.7c0-3.6-2.4-5.9-5.8-5.9c-4.3,0-8.1,4.2-8.1,9.5
		c0,3.6,2.3,5.8,5.6,5.8C165.2,198.1,169,193.7,169,188.7z"/>
	<path class="st0" d="M201.4,199.1c2.4,0,4.5-0.8,7-2.6l5.4,6.4c-3.4,2.9-7.8,5-13.5,5c-9.8,0-15.8-5.8-15.8-14.7
		c0-9.8,7.7-20,19.9-20c9.8,0,14.1,6.6,14.1,13.7c0,2.3-0.5,4.7-1.3,6.8h-22C195.5,196.9,197.5,199.1,201.4,199.1z M207.9,187.7
		c0.2-0.6,0.3-1.2,0.3-1.8c0-2.3-1.5-4.2-4.5-4.2c-3.1,0-6.2,2-7.6,6H207.9z"/>
	<path class="st0" d="M227.2,173.9h11.6l-1.8,6.7c3.2-4.7,7-7.6,12.4-7.2l-3.3,12.2h-1c-6.4,0-10.5,3.6-12.6,11.5l-2.7,10h-11.6
		L227.2,173.9z"/>
</g>
<g>
	<path class="st0" d="M31.9,218h11.9l-11.5,42.9H20.4L31.9,218z"/>
	<path class="st0" d="M48.3,227.8H60l-1,3.8c2.3-2.4,5.6-4.5,9.5-4.5c6,0,9.6,3.8,9.6,9.9c0,1.8-0.4,3.9-1,5.9l-4.8,18H60.6
		l4.7-17.3c0.2-0.9,0.4-2,0.4-2.7c0-2.2-1.3-3.5-3.7-3.5c-3.2,0-5.1,2.2-6.2,6l-4.7,17.5H39.5L48.3,227.8z"/>
	<path class="st0" d="M81.3,249h12.1l-3.2,11.9H78.1L81.3,249z"/>
	<path class="st0" d="M99.8,249h12.1l-3.2,11.9H96.6L99.8,249z"/>
	<path class="st0" d="M118.3,249h12.1l-3.2,11.9h-12.1L118.3,249z"/>
</g>
</svg>
