<?xml version="1.0" encoding="utf-8"?>
<!-- Generator: Adobe Illustrator 25.4.1, SVG Export Plug-In . SVG Version: 6.00 Build 0)  -->
<svg version="1.1" id="Layer_1" xmlns="http://www.w3.org/2000/svg" xmlns:xlink="http://www.w3.org/1999/xlink" x="0px" y="0px"
	 viewBox="0 0 300 600" style="enable-background:new 0 0 300 600;" xml:space="preserve">
<style type="text/css">
	.st0{fill:#AB1F2D;}
	.st1{fill:#FFFFFF;}
</style>
<path class="st0" d="M36.7,513.7c-9.9,0-17.9,8-17.9,17.9v5.3c0,9.9,8,17.9,17.9,17.9h124.2c9.9,0,17.9-8,17.9-17.9v-5.3
	c0-9.9-8-17.9-17.9-17.9H36.7z"/>
<g>
	<path class="st1" d="M32.9,527.9h3.2l2.8,9.2l3-9.2h2.6l3,9.2l2.8-9.2h3.1l-4.6,13.7h-2.6l-3.1-8.9l-3.1,8.9h-2.6L32.9,527.9z"/>
	<path class="st1" d="M58.7,527.8h2.8l5.8,13.7h-3.1l-1.2-3h-5.7l-1.2,3h-3L58.7,527.8z M61.8,535.8l-1.8-4.4l-1.8,4.4H61.8z"/>
	<path class="st1" d="M70.7,530.6h-4.1v-2.8h11.2v2.8h-4.1v10.8h-3V530.6z"/>
	<path class="st1" d="M79,534.7L79,534.7c0-3.9,2.9-7.1,7.1-7.1c2.6,0,4.1,0.9,5.4,2.1l-1.9,2.2c-1-1-2.1-1.5-3.5-1.5
		c-2.3,0-3.9,1.9-3.9,4.2v0c0,2.3,1.6,4.3,3.9,4.3c1.6,0,2.5-0.6,3.6-1.6l1.9,1.9c-1.4,1.5-2.9,2.4-5.6,2.4
		C81.9,541.7,79,538.6,79,534.7z"/>
	<path class="st1" d="M93.9,527.9h3v5.4h5.5v-5.4h3v13.6h-3V536h-5.5v5.4h-3V527.9z"/>
	<path class="st1" d="M114.4,527.9h2.8l6.4,8.4v-8.4h2.9v13.6H124l-6.6-8.6v8.6h-2.9V527.9z"/>
	<path class="st1" d="M129.2,534.7L129.2,534.7c0-3.9,3-7.1,7.2-7.1s7.2,3.1,7.2,7v0c0,3.9-3,7-7.2,7
		C132.2,541.7,129.2,538.6,129.2,534.7z M140.5,534.7L140.5,534.7c0-2.4-1.7-4.3-4.1-4.3c-2.4,0-4.1,1.9-4.1,4.2v0
		c0,2.3,1.7,4.3,4.1,4.3C138.8,538.9,140.5,537,140.5,534.7z"/>
	<path class="st1" d="M144.4,527.9h3.2l2.8,9.2l3-9.2h2.6l3,9.2l2.8-9.2h3.1l-4.6,13.7h-2.6l-3.1-8.9l-3.1,8.9h-2.6L144.4,527.9z"/>
</g>
</svg>
