<svg id="Layer_1" xmlns="http://www.w3.org/2000/svg" viewBox="0 0 300 50"><style>.st0{fill:#490a09}</style><path class="st0" d="M7.5 24.3h3.2v11.4H7.5V24.3zM13.2 33v-3.6h-1v-2.5h1v-2.2h3.1v2.2h2.1v2.5h-2.1v3c0 .6.3.9.9.9.4 0 .8-.1 1.2-.3v2.4c-.6.3-1.3.5-2.2.5-1.9 0-3-.8-3-2.9zM19.2 33.2c0-1.9 1.4-2.8 3.5-2.8.8 0 1.6.2 2.1.3v-.1c0-.9-.6-1.4-1.8-1.4-.9 0-1.7.2-2.4.5l-.6-2.3c1-.4 2.1-.7 3.6-.7 1.6 0 2.7.4 3.4 1.1.7.7.9 1.6.9 2.8v5.1h-3.1v-.9c-.6.7-1.4 1.1-2.6 1.1-1.7 0-3-1-3-2.7zm5.7-.7v-.4c-.3-.1-.8-.2-1.2-.2-.9 0-1.4.4-1.4 1.1 0 .6.5 1 1.1 1 .8 0 1.5-.6 1.5-1.5zM29.5 23.8h3.1v11.9h-3.1V23.8zM34 31.3c0-2.6 2.1-4.7 4.9-4.7 2.8 0 4.9 2.1 4.9 4.6 0 2.5-2.1 4.6-4.9 4.6-2.8.1-4.9-2-4.9-4.5zm6.8 0c0-1.1-.8-2-1.9-2-1.1 0-1.8.9-1.8 2s.8 2 1.9 2c1.1 0 1.8-.9 1.8-2zM45.1 26.9h3.1V28c.6-.7 1.4-1.4 2.7-1.4 2.1 0 3.9 1.8 3.9 4.6 0 2.9-1.8 4.6-3.9 4.6-1.3 0-2.1-.6-2.7-1.3v3.7h-3.1V26.9zm6.7 4.4c0-1.2-.8-2-1.8-2s-1.8.8-1.8 2 .8 2 1.8 2 1.8-.8 1.8-2zM56.2 23.8h3.1v4.3c.6-.7 1.4-1.4 2.6-1.4 1.9 0 3 1.2 3 3.3v5.8h-3.1V31c0-1-.5-1.5-1.2-1.5-.8 0-1.3.5-1.3 1.5v4.8h-3.1v-12zM66.5 23.8h3.2v2.3h-3.2v-2.3zm.1 3.1h3.1v8.8h-3.1v-8.8zM71.5 23.8h3.1v11.9h-3.1V23.8zM76 31.3c0-2.6 1.8-4.7 4.5-4.7 3.1 0 4.5 2.2 4.5 4.8v.6h-6c.2 1 .9 1.5 1.9 1.5.7 0 1.3-.3 2-.9l1.7 1.4c-.9 1.1-2.1 1.8-3.8 1.8-2.9.1-4.8-1.7-4.8-4.5zm6-.7c-.1-1-.7-1.6-1.5-1.6s-1.4.6-1.5 1.6h3zM86 32.5h3.2v3.2H86v-3.2z"/></svg>