<svg id="Layer_1" xmlns="http://www.w3.org/2000/svg" viewBox="0 0 300 50"><style>.st0{fill:#fff}</style><path class="st0" d="M10.8 19.1H7.5v-2.7h9.7v2.7h-3.3v8.3h-3.1v-8.3zM18.3 15.9h3V20c.6-.7 1.3-1.4 2.5-1.4 1.8 0 2.9 1.2 2.9 3.1v5.6h-3v-4.6c0-.9-.5-1.4-1.2-1.4s-1.3.5-1.3 1.4v4.6h-3V15.9zM27.9 23.2c0-2.5 1.8-4.5 4.3-4.5 2.9 0 4.3 2.2 4.3 4.7v.6h-5.7c.2.9.9 1.4 1.8 1.4.7 0 1.3-.3 1.9-.9l1.7 1.4c-.8 1-2 1.7-3.7 1.7-2.7 0-4.6-1.8-4.6-4.4zm5.8-.7c-.1-.9-.7-1.5-1.5-1.5s-1.3.6-1.5 1.5h3zM41.6 16.4h3.2l1.9 6.4 2.1-6.4h2.6l2.1 6.4 1.9-6.4h3.2L55 27.5h-2.7l-2.2-6.3-2.2 6.3h-2.7l-3.6-11.1zM58.3 23.2c0-2.5 2-4.5 4.7-4.5s4.7 2 4.7 4.4c0 2.4-2 4.5-4.7 4.5s-4.7-2-4.7-4.4zm6.5 0c0-1.1-.8-2-1.8-2-1.1 0-1.8.9-1.8 1.9 0 1 .8 1.9 1.8 1.9 1.1.1 1.8-.8 1.8-1.8zM69 18.9h3v1.7c.5-1.2 1.3-1.9 2.7-1.9v3.1h-.3c-1.6 0-2.4.9-2.4 2.9v2.6h-3v-8.4zM75.8 15.9h3v11.5h-3V15.9zM80.1 23.2c0-2.8 1.7-4.5 3.7-4.5 1.3 0 2 .6 2.6 1.2v-4h3v11.5h-3v-1.1c-.6.7-1.3 1.3-2.6 1.3-1.9 0-3.7-1.7-3.7-4.4zm6.4 0c0-1.1-.8-2-1.7-2-1 0-1.7.8-1.7 1.9 0 1.1.8 1.9 1.7 1.9 1 .1 1.7-.7 1.7-1.8zM90.6 20.9c1.1-.1 1.6-.6 1.6-1.5H91v-3.1h3.1v2.5c0 2.3-1.3 3.1-3.2 3.2l-.3-1.1zM94.8 26.3l1.1-1.8c1 .6 2 1 2.9 1 .5 0 .8-.2.8-.5s-.5-.5-1.4-.7c-1.7-.4-3-1-3-2.7 0-1.8 1.4-2.8 3.4-2.8 1.2 0 2.5.4 3.5 1l-1 1.9c-.9-.5-1.8-.8-2.5-.8-.5 0-.7.2-.7.4 0 .3.5.5 1.4.8 1.7.5 3 1.1 3 2.7 0 1.9-1.4 2.8-3.5 2.8-1.4 0-2.8-.4-4-1.3zM108.1 16.4h5.6c1.4 0 2.4.3 3 1 .4.4.7 1 .7 1.8 0 1.3-.7 2-1.7 2.5 1.3.4 2.2 1.2 2.2 2.7 0 1.9-1.5 3-4.2 3H108v-11zm4.9 4.4c.9 0 1.4-.3 1.4-1 0-.6-.5-.9-1.4-.9h-2v1.9h2zm.4 4.2c.9 0 1.5-.4 1.5-1s-.5-1-1.5-1H111v2h2.4zM118.8 23.2c0-2.5 1.8-4.5 4.3-4.5 2.9 0 4.3 2.2 4.3 4.7v.6h-5.7c.2.9.9 1.4 1.8 1.4.7 0 1.3-.3 1.9-.9l1.7 1.4c-.8 1-2 1.7-3.7 1.7-2.7 0-4.6-1.8-4.6-4.4zm5.8-.7c-.1-.9-.7-1.5-1.5-1.5s-1.3.6-1.5 1.5h3zM128 26.3l1.1-1.8c1 .6 2 1 2.9 1 .5 0 .8-.2.8-.5s-.5-.5-1.4-.7c-1.7-.4-3-1-3-2.7 0-1.8 1.4-2.8 3.4-2.8 1.2 0 2.5.4 3.5 1l-1 1.9c-.9-.5-1.8-.8-2.5-.8-.5 0-.7.2-.7.4 0 .3.5.5 1.4.8 1.7.5 3 1.1 3 2.7 0 1.9-1.4 2.8-3.5 2.8-1.4 0-2.8-.4-4-1.3zM137.1 24.8v-3.5h-1v-2.4h1v-2.2h3v2.2h2v2.4h-2v2.9c0 .6.3.8.8.8.4 0 .8-.1 1.1-.3V27c-.5.3-1.2.5-2.1.5-1.7.1-2.8-.7-2.8-2.7zM150.6 19.1h-3.3v-2.7h9.7v2.7h-3.3v8.3h-3.1v-8.3zM157.4 16.4h3.4l2.5 7 2.5-7h3.4l-4.5 11.1h-2.8l-4.5-11.1zM174.5 15.9h3v11.5h-3V15.9zM179.1 15.9h3.1v2.2h-3.1v-2.2zm.1 3h3v8.5h-3v-8.5zM183.2 18.9h3.1l1.6 5 1.6-5h3.1l-3.4 8.6h-2.7l-3.3-8.6zM192.9 23.2c0-2.5 1.8-4.5 4.3-4.5 2.9 0 4.3 2.2 4.3 4.7v.6h-5.7c.2.9.9 1.4 1.8 1.4.7 0 1.3-.3 1.9-.9l1.7 1.4c-.8 1-2 1.7-3.7 1.7-2.8 0-4.6-1.8-4.6-4.4zm5.7-.7c-.1-.9-.7-1.5-1.5-1.5s-1.3.6-1.5 1.5h3zM202.1 26.3l1.1-1.8c1 .6 2 1 2.9 1 .5 0 .8-.2.8-.5s-.5-.5-1.4-.7c-1.7-.4-3-1-3-2.7 0-1.8 1.4-2.8 3.4-2.8 1.2 0 2.5.4 3.5 1l-1 1.9c-.9-.5-1.8-.8-2.5-.8-.5 0-.7.2-.7.4 0 .3.5.5 1.4.8 1.7.5 3 1.1 3 2.7 0 1.9-1.4 2.8-3.5 2.8-1.4 0-2.8-.4-4-1.3zM215.2 15.9h3V20c.6-.7 1.3-1.4 2.5-1.4 1.8 0 2.9 1.2 2.9 3.1v5.6h-3v-4.6c0-.9-.5-1.4-1.2-1.4s-1.3.5-1.3 1.4v4.6h-3V15.9zM224.8 23.2c0-2.5 1.8-4.5 4.3-4.5 2.9 0 4.3 2.2 4.3 4.7v.6h-5.7c.2.9.9 1.4 1.8 1.4.7 0 1.3-.3 1.9-.9l1.7 1.4c-.8 1-2 1.7-3.7 1.7-2.7 0-4.6-1.8-4.6-4.4zm5.8-.7c-.1-.9-.7-1.5-1.5-1.5s-1.3.6-1.5 1.5h3zM234.6 18.9h3v1.7c.5-1.2 1.3-1.9 2.7-1.9v3.1h-.3c-1.6 0-2.4.9-2.4 2.9v2.6h-3v-8.4zM240.9 23.2c0-2.5 1.8-4.5 4.3-4.5 2.9 0 4.3 2.2 4.3 4.7v.6h-5.7c.2.9.9 1.4 1.8 1.4.7 0 1.3-.3 1.9-.9l1.7 1.4c-.8 1-2 1.7-3.7 1.7-2.7 0-4.6-1.8-4.6-4.4zm5.8-.7c-.1-.9-.7-1.5-1.5-1.5s-1.3.6-1.5 1.5h3zM250.6 24.3h3.1v3.1h-3.1v-3.1z"/></svg>