<svg id="Layer_1" xmlns="http://www.w3.org/2000/svg" viewBox="0 0 300 50"><style>.st0{fill:#490a09}</style><path class="st0" d="M202.9 24.3h9.2V27H206v1.7h5.5v2.5H206V33h6.2v2.7h-9.3V24.3zM213.6 32.7v-5.8h3.1v4.8c0 1 .5 1.5 1.3 1.5.7 0 1.3-.5 1.3-1.5v-4.8h3.1v8.8h-3.1v-1.2c-.6.7-1.4 1.4-2.7 1.4-1.9 0-3-1.2-3-3.2zM224 26.9h3.1v1.8c.5-1.2 1.3-2 2.8-1.9V30h-.3c-1.6 0-2.5.9-2.5 3v2.7H224v-8.8zM230.5 31.3c0-2.6 2.1-4.7 4.9-4.7 2.8 0 4.9 2.1 4.9 4.6 0 2.5-2.1 4.6-4.9 4.6-2.9.1-4.9-2-4.9-4.5zm6.8 0c0-1.1-.8-2-1.9-2-1.1 0-1.8.9-1.8 2s.8 2 1.9 2c1 0 1.8-.9 1.8-2zM241.6 26.9h3.1V28c.6-.7 1.4-1.4 2.7-1.4 2.1 0 3.9 1.8 3.9 4.6 0 2.9-1.8 4.6-3.9 4.6-1.3 0-2.1-.6-2.7-1.3v3.7h-3.1V26.9zm6.6 4.4c0-1.2-.8-2-1.8-2s-1.8.8-1.8 2 .8 2 1.8 2 1.8-.8 1.8-2zM252.6 23.8h3.1v4.3c.6-.7 1.4-1.4 2.6-1.4 1.9 0 3 1.2 3 3.3v5.8h-3.1V31c0-1-.5-1.5-1.2-1.5-.8 0-1.3.5-1.3 1.5v4.8h-3.1v-12zM263 23.8h3.2v2.3H263v-2.3zm.1 3.1h3.1v8.8h-3.1v-8.8zM268 23.8h3.1v11.9H268V23.8zM272.5 31.3c0-2.6 1.8-4.7 4.5-4.7 3.1 0 4.5 2.2 4.5 4.8v.6h-5.9c.2 1 .9 1.5 1.9 1.5.7 0 1.3-.3 2-.9l1.7 1.4c-.8 1.1-2.1 1.8-3.8 1.8-3 .1-4.9-1.7-4.9-4.5zm6-.7c-.1-1-.7-1.6-1.5-1.6s-1.4.6-1.5 1.6h3zM282.5 32.5h3.2v3.2h-3.2v-3.2z"/></svg>