<svg id="Layer_1" xmlns="http://www.w3.org/2000/svg" viewBox="0 0 728 90"><style>.st0{fill:#490a09}</style><path class="st0" d="M81.3 50.5h5.9l3.4 21.9h-6.3l-.5-3.9h-8.4l-2.6 3.9h-6.5l15-21.9zm2 13.3l-.8-6.2-4.1 6.2h4.9zM106.6 50.6H124l-1.4 5.3h-11.3l-1 3.7h10.2l-1.3 5H109l-2.1 7.8h-6l5.7-21.8zM125.2 55.6h5.9l-.9 3.4c1.6-2.4 3.6-3.8 6.3-3.7l-1.7 6.2h-.5c-3.2 0-5.3 1.8-6.4 5.8l-1.4 5.1h-5.9l4.6-16.8zM144.1 68.3c1.2 0 2.3-.4 3.6-1.3l2.7 3.2c-1.7 1.5-3.9 2.5-6.9 2.5-5 0-8-2.9-8-7.4 0-5 3.9-10.1 10.1-10.1 5 0 7.1 3.3 7.1 6.9 0 1.1-.2 2.4-.7 3.4h-11c.1 1.8 1.1 2.8 3.1 2.8zm3.3-5.7c.1-.3.2-.6.2-.9 0-1.1-.7-2.1-2.3-2.1-1.6 0-3.1 1-3.8 3h5.9zM157.2 55.6h5.9l-.5 1.9c1.1-1.2 2.8-2.3 4.8-2.3 3 0 4.9 1.9 4.9 5 0 .9-.2 2-.5 3l-2.4 9.1h-5.9l2.4-8.8c.1-.4.2-1 .2-1.4 0-1.1-.7-1.8-1.9-1.8-1.6 0-2.6 1.1-3.1 3l-2.4 8.9h-5.9l4.4-16.6zM173.7 65.4c0-5.6 4.5-10.2 10.1-10.2 3.9 0 6.2 2 7.1 4.6l-4.6 2.4c-.6-1.3-1.4-2.1-2.9-2.1-2.2 0-4 2.4-4 5 0 1.7 1.1 2.8 2.6 2.8 1.2 0 2.1-.5 3.2-1.6l3.6 3.1c-1.7 2-3.8 3.3-7.2 3.3-4.6.1-7.9-2.8-7.9-7.3zM195.7 49.7h5.9l-2.1 7.8c1.1-1.2 2.8-2.3 4.8-2.3 3 0 4.9 1.9 4.9 5 0 .9-.2 2-.5 3l-2.4 9.1h-5.9l2.4-8.8c.1-.4.2-1 .2-1.4 0-1.1-.7-1.8-1.9-1.8-1.6 0-2.6 1.1-3.1 3l-2.4 8.9h-5.9l6-22.5zM221.9 50.6h6.6l1.2 13.6 8.5-13.6h6.8l-14.6 21.9h-5.6l-2.9-21.9zM245.1 55.6h5.9l-4.5 16.8h-5.9l4.5-16.8zm1.4-5.9h6.1l-1.2 4.3h-6.1l1.2-4.3zM256 49.7h5.9l-6.1 22.6h-5.9l6.1-22.6zM265.3 49.7h5.9l-6.1 22.6h-5.9l6.1-22.6zM269.1 68.1c0-3.7 2.9-5.9 7.4-5.9 1.5 0 2.9.2 4.2.7l.1-.2c.1-.3.2-.6.2-1 0-1.1-.8-1.8-2.9-1.8-1.6 0-3.3.4-4.5.8l-.8-4.3c1.8-.6 4.2-1 6.6-1 5 0 7.5 2 7.5 5.3 0 .8-.1 1.6-.3 2.4l-2.5 9.2h-5.8l.5-1.8c-1.4 1.3-2.9 2.1-4.8 2.1-3 .1-4.9-1.7-4.9-4.5zM280 66l.2-.6c-.7-.2-1.4-.4-2.2-.4-1.9 0-3.1.9-3.1 2.4 0 1 .7 1.5 1.7 1.5 1.4.2 2.9-1.2 3.4-2.9zM286.1 75.1l2.6-3.7c1.9 1.1 4.1 1.7 6 1.7 1.6 0 2.6-.4 3.5-1.2.6-.6 1.1-1.5 1.4-2.7l.1-.4c-1.5 1.3-3 2-5.1 2-3 0-6-2-6-5.8 0-5.2 3.8-9.8 8.8-9.8 2.5 0 4.2 1.2 5.1 2.7l.6-2.4h5.9l-3.6 13.3c-.8 3-1.6 4.6-3 6-1.7 1.6-4 2.5-7.5 2.5-3.1.1-6.6-.9-8.8-2.2zm15.1-12.6c0-1.5-1.1-2.7-2.8-2.7-2.3 0-3.9 2-3.9 4.2 0 1.6 1.1 2.6 2.7 2.6 2.3 0 4-1.9 4-4.1zM317.7 68.3c1.2 0 2.3-.4 3.6-1.3l2.7 3.2c-1.7 1.5-3.9 2.5-6.9 2.5-5 0-8-2.9-8-7.4 0-5 3.9-10.1 10.1-10.1 5 0 7.1 3.3 7.1 6.9 0 1.1-.2 2.4-.7 3.4h-11.1c.2 1.8 1.2 2.8 3.2 2.8zm3.3-5.7c.1-.3.2-.6.2-.9 0-1.1-.7-2.1-2.3-2.1-1.6 0-3.1 1-3.8 3h5.9z"/><g><path class="st0" d="M327.6 75.2c2.1-.2 3.2-1.2 3.1-2.9h-2.4v-6h6.1v4.9c0 4.6-2.5 6.2-6.4 6.3l-.4-2.3z"/></g><g><path class="st0" d="M345.2 64c0-4.8 3.9-8.8 9.3-8.8s9.2 3.9 9.2 8.7v.1c0 4.8-3.9 8.8-9.3 8.8-5.3 0-9.2-4-9.2-8.8zm12.8 0c0-2.1-1.5-3.8-3.6-3.8s-3.5 1.7-3.5 3.7v.1c0 2 1.5 3.8 3.6 3.8 2.2 0 3.5-1.7 3.5-3.8zM366.3 55.6h5.9V58c1.1-1.4 2.6-2.7 5-2.7 3.6 0 5.7 2.4 5.7 6.2v11H377v-9.1c0-1.8-1-2.8-2.4-2.8s-2.5 1-2.5 2.8v9.1h-5.9V55.6zM394.8 50.6h6.4l5.2 8.4 5.2-8.4h6.4v21.7h-6V59.9l-5.5 8.5h-.1l-5.5-8.4v12.4H395V50.6zM421.7 50.6h6v8.1h7.7v-8.1h6v21.7h-6v-8.2h-7.7v8.2h-6V50.6zM444.4 68.5l7.8-8.2h-7.5v-4.7H460v3.9l-7.8 8.2h7.8v4.7h-15.6v-3.9zM470.6 61.6c0-6.4 4.9-11.3 11.4-11.3 4.4 0 7.3 1.9 9.2 4.5l-4.5 3.5c-1.2-1.6-2.7-2.5-4.7-2.5-3 0-5.2 2.6-5.2 5.7v.1c0 3.3 2.1 5.8 5.2 5.8 2.3 0 3.6-1.1 4.9-2.6l4.5 3.2c-2 2.8-4.8 4.9-9.6 4.9-6.2-.1-11.2-4.9-11.2-11.3zM493.7 49.7h5.9v8.2c1.1-1.4 2.6-2.7 5-2.7 3.6 0 5.7 2.4 5.7 6.2v11h-5.9v-9.1c0-1.8-1-2.8-2.4-2.8s-2.5 1-2.5 2.8v9.1h-5.9V49.7zM512.7 64c0-4.8 3.9-8.8 9.3-8.8s9.2 3.9 9.2 8.7v.1c0 4.8-3.9 8.8-9.3 8.8s-9.2-4-9.2-8.8zm12.8 0c0-2.1-1.5-3.8-3.6-3.8s-3.5 1.7-3.5 3.7v.1c0 2 1.5 3.8 3.6 3.8s3.5-1.7 3.5-3.8zM533.7 49.7h6.1V54h-6.1v-4.3zm.1 5.9h5.9v16.8h-5.9V55.6zM542.3 64c0-4.8 3.7-8.8 9-8.8 3.4 0 5.7 1.5 7.2 3.8l-4 3c-.8-1.1-1.7-1.8-3.1-1.8-1.9 0-3.3 1.7-3.3 3.7v.1c0 2.2 1.4 3.8 3.3 3.8 1.4 0 2.3-.7 3.2-1.7l3.9 2.9c-1.6 2.3-3.8 3.8-7.5 3.8-5 0-8.7-4-8.7-8.8zM559.5 64c0-5 3.5-8.8 8.5-8.8 5.8 0 8.5 4.2 8.5 9.2v1.2h-11.2c.5 1.8 1.8 2.8 3.6 2.8 1.4 0 2.5-.5 3.7-1.7l3.3 2.7c-1.6 2-3.9 3.4-7.3 3.4-5.4 0-9.1-3.6-9.1-8.8zm11.4-1.4c-.2-1.9-1.3-3-2.9-3-1.5 0-2.6 1.2-2.9 3h5.8zM578.6 66.3h6.1v6h-6.1v-6z"/></g></svg>