<svg id="Layer_1" xmlns="http://www.w3.org/2000/svg" viewBox="0 0 728 90"><style>.st0{fill:#ab1f2d}.st1{fill:#fff}</style><path class="st0" d="M615.9 49.6c-6.3 0-11.5 5.1-11.5 11.5v3.4c0 6.3 5.1 11.5 11.5 11.5h79.6c6.3 0 11.5-5.1 11.5-11.5v-3.4c0-6.3-5.1-11.5-11.5-11.5h-79.6z"/><path class="st1" d="M611.3 58.9h2.2l1.9 6.2 2.1-6.2h1.7l2.1 6.2 1.9-6.2h2.1l-3.1 9.2h-1.8l-2.1-6-2.1 6h-1.8l-3.1-9.2zM628.7 58.9h1.9l3.9 9.2h-2.1l-.8-2.1h-3.9l-.8 2.1h-2.1l3.9-9.2zm2.1 5.3l-1.2-3-1.2 3h2.4zM636.8 60.8H634v-1.9h7.6v1.9h-2.8v7.3h-2v-7.3zM642.4 63.5c0-2.6 2-4.8 4.8-4.8 1.7 0 2.8.6 3.6 1.4l-1.3 1.5c-.7-.6-1.4-1-2.3-1-1.5 0-2.7 1.3-2.7 2.9 0 1.6 1.1 2.9 2.7 2.9 1 0 1.7-.4 2.4-1.1l1.3 1.3c-.9 1-2 1.6-3.8 1.6-2.7 0-4.7-2-4.7-4.7zM652.4 58.9h2v3.6h3.7v-3.6h2v9.2h-2v-3.7h-3.7v3.7h-2v-9.2zM666.3 58.9h1.9l4.3 5.6v-5.6h2v9.2h-1.7l-4.4-5.8v5.8h-2v-9.2zM676.2 63.5c0-2.6 2.1-4.8 4.9-4.8 2.8 0 4.9 2.1 4.9 4.7s-2.1 4.7-4.9 4.7c-2.9.1-4.9-2-4.9-4.6zm7.6 0c0-1.6-1.2-2.9-2.8-2.9-1.6 0-2.7 1.3-2.7 2.9 0 1.6 1.2 2.9 2.8 2.9 1.6 0 2.7-1.3 2.7-2.9zM686.5 58.9h2.2l1.9 6.2 2.1-6.2h1.7l2.1 6.2 1.9-6.2h2.1l-3.1 9.2h-1.8l-2.1-6-2.1 6h-1.8l-3.1-9.2z"/></svg>