<svg id="Layer_1" xmlns="http://www.w3.org/2000/svg" xmlns:xlink="http://www.w3.org/1999/xlink" viewBox="0 0 728 90"><style>.st0,.st1{clip-path:url(#SVGID_00000091723850203985629090000013267552455137255824_);fill:#ac1f2d}.st1{fill:#fff}</style><defs><path id="SVGID_1_" d="M8.8 9h42.3v40H8.8z"/></defs><clipPath id="SVGID_00000162318239739912633300000015282924772414916796_"><use xlink:href="#SVGID_1_" overflow="visible"/></clipPath><path d="M48.3 29.3c0 10.2-8.2 18.4-18.4 18.4s-18.4-8.2-18.4-18.4 8.2-18.4 18.4-18.4 18.4 8.3 18.4 18.4" clip-path="url(#SVGID_00000162318239739912633300000015282924772414916796_)" fill="#ac1f2d"/><path d="M37.3 26v2.1h2.4l-2.8 4.4h7v-2.2h-3l2.7-4.4h-6.3zm-13.7-2.7l-2.2 5-2.2-5H16v9.2h2.6v-4.9l2.2 4.9h1.1l2.2-5v5h2.6v-9.2h-3.1zm10.1 0v3.2h-3.2v-3.2h-2.8v9.2h2.8v-3.6h3.2v3.6h2.8v-9.2h-2.8zM37.1 36.2h2.5v-.7H38V35h1.5v-.7H38v-.5h1.6v-.7h-2.4v3.1zm-2 .1c.7 0 1.1-.3 1.3-.7l-.6-.5c-.2.2-.4.4-.7.4-.4 0-.7-.4-.7-.8s.3-.8.7-.8c.3 0 .5.1.7.4l.6-.5c-.3-.4-.7-.6-1.3-.6-.9 0-1.6.7-1.6 1.6.1.8.8 1.5 1.6 1.5m-3.1-.1h.8v-3H32v3zm-2.3-.7c-.5 0-.8-.4-.8-.8s.3-.8.8-.8.8.4.8.8c-.1.5-.4.8-.8.8m0 .8c.9 0 1.6-.7 1.6-1.6 0-.9-.7-1.6-1.6-1.6s-1.7.8-1.7 1.6c0 .9.7 1.6 1.7 1.6m-5.1-.1h.8V35h1.1v1.2h.8v-3h-.8v1.1h-1.1v-1.1h-.8v3zm-2 .1c.7 0 1.1-.3 1.3-.7l-.6-.5c-.2.2-.4.4-.7.4-.4 0-.7-.4-.7-.8s.3-.8.7-.8c.3 0 .5.1.7.4l.6-.5c-.3-.4-.7-.6-1.3-.6-.9 0-1.6.7-1.6 1.6.1.8.8 1.5 1.6 1.5" clip-path="url(#SVGID_00000162318239739912633300000015282924772414916796_)" fill="#fff"/></svg>