<svg id="Layer_1" xmlns="http://www.w3.org/2000/svg" viewBox="0 0 336 280"><style>.st0{fill:#490a09}</style><path class="st0" d="M31.6 100.8h8.1l12.9 30.5h-9l-2.2-5.4H29.7l-2.2 5.4h-8.8l12.9-30.5zm7.4 18.5l-3.4-8.6-3.4 8.6H39zM75.2 128.4v2.9H67V99.7h8.2V111c1.6-1.9 3.6-3.6 7.1-3.6 5.6 0 10.4 4.6 10.4 12.1v.1c0 7.6-4.8 12.2-10.3 12.2-3.6-.1-5.7-1.7-7.2-3.4zm9.4-8.8c0-3.2-2.1-5.4-4.8-5.4-2.6 0-4.8 2.2-4.8 5.3v.1c0 3.1 2.1 5.3 4.8 5.3 2.7 0 4.8-2.2 4.8-5.3zM96.2 107.9h8.2v4.7c1.3-3.2 3.5-5.3 7.4-5.1v8.6h-.7c-4.3 0-6.7 2.5-6.7 7.9v7.3h-8.2v-23.4zM114.7 99.7h8.6v6h-8.6v-6zm.2 8.2h8.2v23.4h-8.2v-23.4zM127.8 99.7h8.2v31.5h-8.2V99.7zM140.8 99.7h8.2v31.5h-8.2V99.7zM153.6 99.7h8.6v6h-8.6v-6zm.1 8.2h8.2v23.4h-8.2v-23.4zM165.4 124.5c0-4.9 3.7-7.4 9.2-7.4 2.2 0 4.3.4 5.6.9v-.4c0-2.4-1.5-3.8-4.7-3.8-2.5 0-4.4.5-6.4 1.3l-1.7-5.8c2.6-1.1 5.4-1.8 9.5-1.8 4.2 0 7 1 8.9 2.9 1.8 1.7 2.5 4.1 2.5 7.4v13.4h-8.1v-2.4c-1.6 1.8-3.8 2.9-6.9 2.9-4.5 0-7.9-2.5-7.9-7.2zm14.8-1.7v-1.1c-.8-.3-2-.6-3.2-.6-2.4 0-3.8 1.2-3.8 2.9v.1c0 1.6 1.2 2.5 2.9 2.5 2.4 0 4.1-1.5 4.1-3.8zM192.4 107.9h8.2v3.3c1.5-1.9 3.7-3.8 7-3.8 5 0 7.9 3.3 7.9 8.6v15.3h-8.2v-12.7c0-2.5-1.3-3.9-3.3-3.9-2 0-3.5 1.4-3.5 3.9v12.7h-8.2v-23.4zM221.2 124v-9.5h-2.8v-6.6h2.8V102h8.2v5.9h5.4v6.6h-5.4v7.9c0 1.6.7 2.3 2.2 2.3 1.1 0 2.1-.3 3.1-.8v6.4c-1.5.8-3.4 1.3-5.7 1.3-4.8.1-7.8-2.1-7.8-7.6zM238.6 99.7h8.2v31.5h-8.2V99.7zM250.8 136.2l2.5-5.7c1.3.8 2.7 1.3 3.6 1.3.8 0 1.4-.2 1.9-1l-9.2-22.9h8.6l4.7 14.1 4.4-14.1h8.4l-8.6 22.8c-2 5.4-4.2 7.6-8.9 7.6-2.8 0-5.3-.9-7.4-2.1z"/><g><path class="st0" d="M22.2 150.4h-2.7V144h2.7v-.5c0-2.7.6-4.7 2-6 1.4-1.4 3.3-2 6.1-2 2.5 0 4.1.3 5.4.6v5.8c-1-.3-1.9-.5-3.1-.5-1.5 0-2.3.7-2.3 2.2v.6h5.4v6.3h-5.2v16.8h-8.2v-16.9zM38 159.1v-15.3h8.2v12.7c0 2.5 1.3 3.9 3.3 3.9 1.9 0 3.4-1.4 3.4-3.9v-12.7h8.2v23.4h-8.2V164c-1.5 1.9-3.7 3.7-7 3.7-4.9 0-7.9-3.3-7.9-8.6zM65.5 143.8h8.2v3.3c1.5-1.9 3.7-3.8 7-3.8 5 0 7.9 3.3 7.9 8.6v15.3h-8.2v-12.7c0-2.5-1.3-3.9-3.3-3.9-2 0-3.5 1.4-3.5 3.9v12.7h-8.2v-23.4zM92.9 143.8h8.2v3.3c1.5-1.9 3.7-3.8 7-3.8 5 0 7.9 3.3 7.9 8.6v15.3h-8.2v-12.7c0-2.5-1.3-3.9-3.3-3.9-2 0-3.5 1.4-3.5 3.9v12.7h-8.2v-23.4zM119.1 172.2l2.5-5.7c1.3.8 2.7 1.3 3.6 1.3.8 0 1.4-.2 1.9-1l-9.2-22.9h8.6l4.7 14.1 4.4-14.1h8.4l-8.6 22.8c-2 5.4-4.2 7.6-8.9 7.6-2.8-.1-5.2-.9-7.4-2.1z"/></g><g><path class="st0" d="M20.7 179.7h8.2v3.1c1.6-1.9 3.6-3.6 7.1-3.6 5.6 0 10.4 4.6 10.4 12.1v.1c0 7.6-4.8 12.2-10.3 12.2-3.5 0-5.6-1.6-7.1-3.4v9.8h-8.2v-30.3zm17.6 11.7c0-3.2-2.1-5.4-4.8-5.4-2.6 0-4.8 2.2-4.8 5.3v.1c0 3.1 2.1 5.3 4.8 5.3 2.7.1 4.8-2.1 4.8-5.3zM49.9 179.7h8.2v4.7c1.3-3.2 3.5-5.3 7.4-5.1v8.6h-.7c-4.3 0-6.7 2.5-6.7 7.9v7.3h-8.2v-23.4zM67 191.5c0-6.7 5.4-12.3 13-12.3 7.5 0 12.9 5.5 12.9 12.1v.1c0 6.7-5.4 12.2-13 12.2-7.5.1-12.9-5.4-12.9-12.1zm17.9 0c0-2.9-2.1-5.4-5-5.4-3 0-4.9 2.4-4.9 5.2v.1c0 2.9 2.1 5.3 5 5.3s4.9-2.4 4.9-5.2zM94.5 200.2l3.1-5c2.7 1.8 5.6 2.7 8 2.7 1.4 0 2.1-.4 2.1-1.3v-.1c0-.9-1.3-1.3-3.8-2-4.6-1.2-8.3-2.8-8.3-7.5 0-5 4-7.7 9.4-7.7 3.4 0 7 1 9.6 2.7l-2.8 5.2c-2.4-1.3-5.1-2.2-6.9-2.2-1.3 0-1.9.5-1.9 1.1v.1c0 .9 1.3 1.3 3.8 2.1 4.6 1.3 8.3 2.9 8.3 7.4v.1c0 5.1-3.8 7.8-9.5 7.8-4 0-7.9-1.1-11.1-3.4zM117.5 191.5c0-6.9 4.9-12.3 11.8-12.3 8.1 0 11.8 5.9 11.8 12.8v1.7h-15.6c.6 2.5 2.5 3.8 5.1 3.8 1.9 0 3.5-.7 5.2-2.4l4.5 3.8c-2.2 2.9-5.5 4.8-10.2 4.8-7.4 0-12.6-4.9-12.6-12.2zm15.9-2c-.3-2.6-1.8-4.2-4.1-4.2-2.2 0-3.6 1.7-4.1 4.2h8.2zM143.6 191.5c0-6.7 5.1-12.3 12.5-12.3 4.8 0 8 2.1 10 5.2l-5.6 4.1c-1.1-1.6-2.4-2.5-4.4-2.5-2.6 0-4.6 2.3-4.6 5.2v.1c0 3 1.9 5.3 4.7 5.3 1.9 0 3.2-.9 4.5-2.4l5.5 4c-2.2 3.2-5.3 5.4-10.4 5.4-7 .1-12.2-5.5-12.2-12.1zM169 195v-15.3h8.2v12.7c0 2.5 1.3 3.9 3.3 3.9 1.9 0 3.4-1.4 3.4-3.9v-12.7h8.2v23.4h-8.2v-3.2c-1.5 1.9-3.7 3.7-7 3.7-4.9 0-7.9-3.3-7.9-8.6zM198 195.8v-9.5h-2.8v-6.6h2.8v-5.9h8.2v5.9h5.4v6.6h-5.4v7.9c0 1.6.7 2.3 2.2 2.3 1.1 0 2.1-.3 3.1-.8v6.4c-1.5.8-3.4 1.3-5.7 1.3-4.9.2-7.8-2-7.8-7.6zM213.6 191.5c0-6.7 5.4-12.3 13-12.3 7.5 0 12.9 5.5 12.9 12.1v.1c0 6.7-5.4 12.2-13 12.2-7.5.1-12.9-5.4-12.9-12.1zm17.9 0c0-2.9-2.1-5.4-5-5.4-3 0-4.9 2.4-4.9 5.2v.1c0 2.9 2.1 5.3 5 5.3 3 0 4.9-2.4 4.9-5.2zM242.9 179.7h8.2v4.7c1.3-3.2 3.5-5.3 7.4-5.1v8.6h-.7c-4.3 0-6.7 2.5-6.7 7.9v7.3h-8.2v-23.4zM258.2 194.7h8.6v8.4h-8.6v-8.4z"/></g></svg>