<svg id="Layer_1" xmlns="http://www.w3.org/2000/svg" viewBox="0 0 336 280"><style>.st0{fill:#490a09}</style><path class="st0" d="M26 90.2h7.2l-7 25.9H19l7-25.9zM35.9 96.1h7l-.6 2.2c1.4-1.4 3.2-2.7 5.6-2.7 2.7 0 4.5 1.4 5.2 3.5 1.9-2.1 4.3-3.5 7.3-3.5 3.8 0 5.9 2.3 5.9 6 0 1.1-.3 2.4-.6 3.6l-2.9 10.9h-7l2.8-10.5c.1-.5.3-1.2.3-1.6 0-1.3-.7-2.1-2.1-2.1-1.9 0-3 1.3-3.7 3.6l-2.9 10.6h-7l2.8-10.5c.1-.5.3-1.2.3-1.6 0-1.3-.7-2.1-2.1-2.1-1.9 0-3 1.3-3.7 3.6l-2.9 10.6h-7l5.3-20zM71.8 96.1h7l-.6 2.2c1.4-1.4 3.2-2.7 5.6-2.7 2.7 0 4.5 1.4 5.2 3.5 1.9-2.1 4.3-3.5 7.3-3.5 3.8 0 5.9 2.3 5.9 6 0 1.1-.3 2.4-.6 3.6l-2.9 10.9h-7l2.8-10.5c.1-.5.3-1.2.3-1.6 0-1.3-.7-2.1-2.1-2.1-1.9 0-3 1.3-3.7 3.6l-2.9 10.6h-7l2.8-10.5c.1-.5.3-1.2.3-1.6 0-1.3-.7-2.1-2.1-2.1-1.9 0-3 1.3-3.7 3.6l-2.9 10.6h-7l5.3-20zM103.1 111.1c0-4.4 3.5-7.1 8.8-7.1 1.8 0 3.5.3 5.1.8l.1-.3c.1-.3.2-.7.2-1.2 0-1.3-1-2.1-3.4-2.1-1.9 0-4 .4-5.4 1l-1-5.1c2.1-.7 5-1.2 7.9-1.2 6 0 8.9 2.4 8.9 6.4 0 .9-.1 1.9-.4 2.9l-3 11H114l.6-2.1c-1.7 1.6-3.4 2.6-5.8 2.6-3.4-.2-5.7-2.3-5.7-5.6zm12.9-2.5l.2-.7c-.8-.3-1.7-.4-2.6-.4-2.2 0-3.7 1.1-3.7 2.9 0 1.1.8 1.9 2 1.9 1.8-.1 3.6-1.7 4.1-3.7zM146.3 96.5h-7.8l1.7-6.3h22.7l-1.7 6.3h-7.8l-5.3 19.6H141l5.3-19.6zM157.3 111.1c0-4.4 3.5-7.1 8.8-7.1 1.8 0 3.5.3 5.1.8l.1-.3c.1-.3.2-.7.2-1.2 0-1.3-1-2.1-3.4-2.1-1.9 0-4 .4-5.4 1l-1-5.1c2.1-.7 5-1.2 7.9-1.2 6 0 8.9 2.4 8.9 6.4 0 .9-.1 1.9-.4 2.9l-3 11h-6.9l.6-2.1c-1.7 1.6-3.4 2.6-5.8 2.6-3.4-.2-5.7-2.3-5.7-5.6zm13-2.5l.2-.7c-.8-.3-1.7-.4-2.6-.4-2.2 0-3.7 1.1-3.7 2.9 0 1.1.8 1.9 2 1.9 1.8-.1 3.5-1.7 4.1-3.7zM181 111.8c0-.8.1-1.7.4-2.6l2-7.4H181l1.5-5.7h2.4l1.4-5.1h7l-1.4 5.1h4.7l-1.5 5.7h-4.7l-1.7 6.3c-.1.5-.2.9-.2 1.2 0 .8.5 1.3 1.6 1.3.8 0 1.6-.2 2.7-.6l-1.6 5.9c-1.3.4-2.7.7-4.1.7-4.1-.1-6.1-1.8-6.1-4.8zM195.2 111.1c0-4.4 3.5-7.1 8.8-7.1 1.8 0 3.5.3 5.1.8l.1-.3c.1-.3.2-.7.2-1.2 0-1.3-1-2.1-3.4-2.1-1.9 0-4 .4-5.4 1l-1-5.1c2.1-.7 5-1.2 7.9-1.2 6 0 8.9 2.4 8.9 6.4 0 .9-.1 1.9-.4 2.9l-3 11h-7l.6-2.1c-1.7 1.6-3.4 2.6-5.8 2.6-3.3-.2-5.6-2.3-5.6-5.6zm12.9-2.5l.2-.7c-.8-.3-1.7-.4-2.6-.4-2.2 0-3.7 1.1-3.7 2.9 0 1.1.8 1.9 2 1.9 1.8-.1 3.6-1.7 4.1-3.7zM221.8 96.1h7l-1.1 4c1.9-2.9 4.3-4.6 7.5-4.4l-2 7.4h-.6c-3.9 0-6.3 2.1-7.6 6.9l-1.6 6h-7l5.4-19.9zM232.6 111.1c0-4.4 3.5-7.1 8.8-7.1 1.8 0 3.5.3 5.1.8l.1-.3c.1-.3.2-.7.2-1.2 0-1.3-1-2.1-3.4-2.1-1.9 0-4 .4-5.4 1l-1-5.1c2.1-.7 5-1.2 7.9-1.2 6 0 8.9 2.4 8.9 6.4 0 .9-.1 1.9-.4 2.9l-3 11h-6.9l.6-2.1c-1.7 1.6-3.4 2.6-5.8 2.6-3.4-.2-5.7-2.3-5.7-5.6zm12.9-2.5l.2-.7c-.8-.3-1.7-.4-2.6-.4-2.2 0-3.7 1.1-3.7 2.9 0 1.1.8 1.9 2 1.9 1.8-.1 3.6-1.7 4.1-3.7zM259.2 96.1h7l-.6 2.3c1.4-1.4 3.4-2.7 5.7-2.7 3.6 0 5.8 2.3 5.8 6 0 1.1-.3 2.3-.6 3.6l-2.9 10.9h-7l2.8-10.5c.1-.5.2-1.2.2-1.6 0-1.3-.8-2.1-2.2-2.1-2 0-3.1 1.3-3.7 3.6l-2.9 10.6h-7l5.4-20.1zM282.6 96.1h7l-.6 2.3c1.4-1.4 3.4-2.7 5.7-2.7 3.6 0 5.8 2.3 5.8 6 0 1.1-.3 2.3-.6 3.6l-2.9 10.9h-7l2.8-10.5c.1-.5.2-1.2.2-1.6 0-1.3-.8-2.1-2.2-2.1-2 0-3.1 1.3-3.7 3.6l-2.9 10.6h-7l5.4-20.1zM306.1 96.1h7l-5.4 20h-7l5.4-20zm1.8-7h7.3l-1.4 5.2h-7.3l1.4-5.2zM313.7 108.9h7.3l-2 7.2h-7.3l2-7.2z"/></svg>