<svg id="Layer_1" xmlns="http://www.w3.org/2000/svg" viewBox="0 0 336 280"><style>.st0{fill:#490a09}</style><path class="st0" d="M17.9 158.5l4-4.8c2.6 2 5.4 3.1 8.4 3.1 1.9 0 3-.7 3-1.8s-.9-1.7-4.4-2.5c-5.5-1.3-9.8-2.8-9.8-8.2v-.1c0-4.8 3.8-8.3 10-8.3 4.4 0 7.9 1.2 10.7 3.4l-3.6 5.1c-2.4-1.7-5-2.6-7.3-2.6-1.7 0-2.6.7-2.6 1.7v.1c0 1.2.9 1.7 4.5 2.5 6 1.3 9.7 3.2 9.7 8.1v.1c0 5.3-4.2 8.4-10.5 8.4-4.5.1-8.9-1.4-12.1-4.2zM42.8 152.4c0-5.9 4.2-10.6 10.1-10.6 6.9 0 10.1 5.1 10.1 11v1.4H49.6c.6 2.2 2.1 3.3 4.3 3.3 1.7 0 3-.6 4.4-2l3.9 3.2c-1.9 2.4-4.7 4.1-8.7 4.1-6.3 0-10.7-4.2-10.7-10.4zm13.6-1.7c-.3-2.2-1.6-3.6-3.5-3.6s-3.1 1.4-3.5 3.6h7zM65 156.6c0-4.2 3.1-6.4 7.9-6.4 1.9 0 3.7.4 4.8.8v-.3c0-2.1-1.3-3.3-4-3.3-2.1 0-3.7.4-5.5 1.1l-1.4-5c2.3-.9 4.7-1.6 8.1-1.6 3.6 0 6 .9 7.6 2.4 1.5 1.5 2.1 3.6 2.1 6.4v11.5h-7v-2.1c-1.4 1.5-3.3 2.5-5.9 2.5-3.8.2-6.7-2-6.7-6zm12.8-1.5v-.9c-.7-.3-1.7-.5-2.7-.5-2 0-3.2 1-3.2 2.5v.1c0 1.4 1 2.2 2.5 2.2 1.9-.1 3.4-1.4 3.4-3.4zM86.7 159.8l2.6-4.3c2.3 1.5 4.8 2.3 6.9 2.3 1.2 0 1.8-.4 1.8-1.1v-.1c0-.8-1.1-1.1-3.2-1.7-4-1-7.1-2.4-7.1-6.4v-.1c0-4.3 3.4-6.6 8-6.6 2.9 0 6 .9 8.3 2.3l-2.4 4.4c-2.1-1.1-4.3-1.9-5.9-1.9-1.1 0-1.6.4-1.6 1v.1c0 .8 1.1 1.1 3.3 1.8 4 1.1 7.1 2.5 7.1 6.4v.1c0 4.4-3.3 6.7-8.2 6.7-3.5.1-6.8-.9-9.6-2.9zM106.4 152.4c0-5.8 4.7-10.6 11.1-10.6 6.4 0 11 4.7 11 10.4v.1c0 5.7-4.7 10.5-11.1 10.5-6.3 0-11-4.7-11-10.4zm15.3 0c0-2.5-1.8-4.6-4.3-4.6-2.6 0-4.2 2-4.2 4.4v.1c0 2.4 1.8 4.5 4.3 4.5 2.6 0 4.2-2 4.2-4.4zM131.6 142.3h7v2.8c1.3-1.7 3.1-3.3 6-3.3 4.3 0 6.8 2.8 6.8 7.4v13.1h-7v-10.9c0-2.2-1.1-3.4-2.8-3.4-1.7 0-3 1.2-3 3.4v10.9h-7v-20zM169.5 142.9l-4.4 1-1.4-5.6 7.6-2.1h5.2v26.1h-7.1v-19.4zM192.5 147.9h-2.3v-5.5h2.3v-.4c0-2.3.5-4 1.7-5.2 1.2-1.2 2.9-1.7 5.2-1.7 2.1 0 3.5.2 4.6.6v5c-.8-.3-1.6-.4-2.6-.4-1.3 0-2 .6-2 1.9v.5h4.6v5.4h-4.5v14.4h-7v-14.6zM206.2 142.3h7v4c1.1-2.7 3-4.5 6.3-4.4v7.4h-.6c-3.7 0-5.7 2.1-5.7 6.7v6.2h-7v-19.9zM220.9 152.4c0-5.9 4.2-10.6 10.1-10.6 6.9 0 10.1 5.1 10.1 11v1.4h-13.4c.6 2.2 2.1 3.3 4.3 3.3 1.7 0 3-.6 4.4-2l3.9 3.2c-1.9 2.4-4.7 4.1-8.7 4.1-6.3 0-10.7-4.2-10.7-10.4zm13.6-1.7c-.3-2.2-1.6-3.6-3.5-3.6s-3.1 1.4-3.5 3.6h7zM243.3 152.4c0-5.9 4.2-10.6 10.1-10.6 6.9 0 10.1 5.1 10.1 11v1.4h-13.4c.6 2.2 2.1 3.3 4.3 3.3 1.7 0 3-.6 4.4-2l3.9 3.2c-1.9 2.4-4.7 4.1-8.7 4.1-6.3 0-10.7-4.2-10.7-10.4zm13.6-1.7c-.3-2.2-1.6-3.6-3.5-3.6s-3.1 1.4-3.5 3.6h7z"/><g><path class="st0" d="M18.6 188.7c0-5.8 4.7-10.6 11.1-10.6 6.4 0 11 4.7 11 10.4v.1c0 5.7-4.7 10.5-11.1 10.5-6.3.1-11-4.6-11-10.4zm15.3 0c0-2.5-1.8-4.6-4.3-4.6-2.6 0-4.2 2-4.2 4.4v.1c0 2.4 1.8 4.5 4.3 4.5 2.6.1 4.2-1.9 4.2-4.4zM43.8 178.6h7v2.8c1.3-1.7 3.1-3.3 6-3.3 4.3 0 6.8 2.8 6.8 7.4v13.1h-7v-10.9c0-2.2-1.1-3.4-2.8-3.4-1.7 0-3 1.2-3 3.4v10.9h-7v-20zM77.9 172.7h7.6l6.2 10 6.2-10h7.6v25.9h-7.2v-14.9l-6.6 10.2h-.1L85 183.8v14.8h-7v-25.9zM110.1 172.7h7.2v9.7h9.2v-9.7h7.2v25.9h-7.2v-9.9h-9.2v9.9h-7.2v-25.9zM137.1 194l9.3-9.8h-8.9v-5.6h18.3v4.6l-9.3 9.8h9.3v5.6h-18.6V194zM168.5 185.8c0-7.6 5.8-13.6 13.7-13.6 5.3 0 8.7 2.2 11 5.4l-5.4 4.2c-1.5-1.9-3.2-3-5.7-3-3.6 0-6.2 3.1-6.2 6.9v.1c0 3.9 2.6 6.9 6.2 6.9 2.7 0 4.3-1.3 5.9-3.1l5.4 3.9c-2.4 3.4-5.7 5.9-11.5 5.9-7.4-.2-13.4-5.9-13.4-13.6zM196 171.6h7v9.7c1.3-1.7 3.1-3.2 6-3.2 4.3 0 6.8 2.8 6.8 7.4v13.1h-7v-10.9c0-2.2-1.1-3.4-2.8-3.4-1.7 0-3 1.2-3 3.4v10.9h-7v-27zM218.7 188.7c0-5.8 4.7-10.6 11.1-10.6 6.4 0 11 4.7 11 10.4v.1c0 5.7-4.7 10.5-11.1 10.5-6.4.1-11-4.6-11-10.4zm15.3 0c0-2.5-1.8-4.6-4.3-4.6-2.6 0-4.2 2-4.2 4.4v.1c0 2.4 1.8 4.5 4.3 4.5 2.6.1 4.2-1.9 4.2-4.4zM243.8 171.6h7.3v5.2h-7.3v-5.2zm.1 7h7v20h-7v-20zM254.1 188.7c0-5.7 4.4-10.5 10.7-10.5 4.1 0 6.9 1.8 8.6 4.5l-4.8 3.6c-1-1.3-2-2.1-3.7-2.1-2.3 0-3.9 2-3.9 4.4v.1c0 2.6 1.6 4.6 4 4.6 1.7 0 2.7-.8 3.9-2.1l4.7 3.4c-1.9 2.7-4.5 4.6-8.9 4.6-6.2 0-10.6-4.8-10.6-10.5zM274.7 188.7c0-5.9 4.2-10.6 10.1-10.6 6.9 0 10.1 5.1 10.1 11v1.4h-13.4c.6 2.2 2.1 3.3 4.3 3.3 1.7 0 3-.6 4.4-2l3.9 3.2c-1.9 2.4-4.7 4.1-8.7 4.1-6.3.1-10.7-4.1-10.7-10.4zm13.6-1.7c-.3-2.2-1.6-3.6-3.5-3.6s-3.1 1.4-3.5 3.6h7zM297.4 191.5h7.3v7.2h-7.3v-7.2z"/></g></svg>