<?xml version="1.0" encoding="utf-8"?>
<!-- Generator: Adobe Illustrator 25.4.1, SVG Export Plug-In . SVG Version: 6.00 Build 0)  -->
<svg version="1.1" id="Layer_1" xmlns="http://www.w3.org/2000/svg" xmlns:xlink="http://www.w3.org/1999/xlink" x="0px" y="0px"
	 viewBox="0 0 300 50" style="enable-background:new 0 0 300 50;" xml:space="preserve">
<style type="text/css">
	.st0{fill:#490A09;}
</style>
<g>
	<path class="st0" d="M12.2,17.4h3.9l3.2,5.1l3.2-5.1h3.9v13.2h-3.7V23l-3.4,5.2h-0.1l-3.4-5.1v7.6h-3.6V17.4z"/>
	<path class="st0" d="M28.3,27.1v-6.7h3.6V26c0,1.1,0.6,1.7,1.5,1.7c0.9,0,1.5-0.6,1.5-1.7v-5.5h3.6v10.2h-3.6v-1.4
		c-0.7,0.9-1.6,1.6-3.1,1.6C29.6,30.9,28.3,29.4,28.3,27.1z"/>
	<path class="st0" d="M40.4,20.4H44v2.1c0.6-1.4,1.5-2.3,3.2-2.2V24h-0.3C45,24,44,25.1,44,27.5v3.2h-3.6V20.4z"/>
	<path class="st0" d="M47.9,25.6L47.9,25.6c0-3.4,2.1-5.4,4.5-5.4c1.6,0,2.5,0.7,3.1,1.5v-4.8h3.6v13.8h-3.6v-1.4
		c-0.7,0.9-1.6,1.6-3.1,1.6C50,30.9,47.9,28.9,47.9,25.6z M55.6,25.5L55.6,25.5c0-1.4-0.9-2.3-2.1-2.3s-2.1,0.9-2.1,2.3v0
		c0,1.4,0.9,2.3,2.1,2.3S55.6,26.9,55.6,25.5z"/>
	<path class="st0" d="M60.7,25.6L60.7,25.6c0-3,2.1-5.4,5.2-5.4c3.5,0,5.2,2.6,5.2,5.6c0,0.2,0,0.5,0,0.7h-6.8
		c0.3,1.1,1.1,1.7,2.2,1.7c0.9,0,1.5-0.3,2.3-1l2,1.6c-1,1.2-2.4,2.1-4.4,2.1C63,30.9,60.7,28.8,60.7,25.6z M67.7,24.7
		c-0.1-1.1-0.8-1.9-1.8-1.9c-0.9,0-1.6,0.7-1.8,1.9H67.7z"/>
	<path class="st0" d="M72.6,20.4h3.6v2.1c0.6-1.4,1.5-2.3,3.2-2.2V24h-0.3c-1.9,0-2.9,1.1-2.9,3.4v3.2h-3.6V20.4z"/>
	<path class="st0" d="M79.9,29.4l1.3-2.2c1.2,0.8,2.5,1.2,3.5,1.2c0.6,0,0.9-0.2,0.9-0.5v0c0-0.4-0.6-0.6-1.6-0.9
		c-2-0.5-3.6-1.2-3.6-3.3v0c0-2.2,1.7-3.4,4.1-3.4c1.5,0,3,0.4,4.2,1.2l-1.2,2.3c-1.1-0.6-2.2-0.9-3-0.9c-0.5,0-0.8,0.2-0.8,0.5v0
		c0,0.4,0.6,0.6,1.7,0.9c2,0.6,3.6,1.3,3.6,3.3v0c0,2.3-1.7,3.4-4.2,3.4C83,30.9,81.3,30.4,79.9,29.4z"/>
</g>
<g>
	<path class="st0" d="M96.2,27.5v-4.2H95v-2.9h1.2v-2.6h3.6v2.6h2.4v2.9h-2.4v3.5c0,0.7,0.3,1,1,1c0.5,0,0.9-0.1,1.4-0.3v2.8
		c-0.6,0.4-1.5,0.6-2.5,0.6C97.5,30.9,96.2,29.9,96.2,27.5z"/>
	<path class="st0" d="M103.1,25.6L103.1,25.6c0-3,2.4-5.4,5.7-5.4c3.3,0,5.6,2.4,5.6,5.3v0c0,2.9-2.4,5.4-5.7,5.4
		C105.4,30.9,103.1,28.5,103.1,25.6z M110.9,25.6L110.9,25.6c0-1.3-0.9-2.3-2.2-2.3c-1.3,0-2.1,1-2.1,2.3v0c0,1.2,0.9,2.3,2.2,2.3
		C110.1,27.8,110.9,26.8,110.9,25.6z"/>
	<path class="st0" d="M120.4,29.4l1.3-2.2c1.2,0.8,2.5,1.2,3.5,1.2c0.6,0,0.9-0.2,0.9-0.5v0c0-0.4-0.6-0.6-1.6-0.9
		c-2-0.5-3.6-1.2-3.6-3.3v0c0-2.2,1.7-3.4,4.1-3.4c1.5,0,3,0.4,4.2,1.2l-1.2,2.3c-1.1-0.6-2.2-0.9-3-0.9c-0.5,0-0.8,0.2-0.8,0.5v0
		c0,0.4,0.6,0.6,1.7,0.9c2,0.6,3.6,1.3,3.6,3.3v0c0,2.3-1.7,3.4-4.2,3.4C123.5,30.9,121.8,30.4,120.4,29.4z"/>
	<path class="st0" d="M130.5,25.6L130.5,25.6c0-3,2.4-5.4,5.7-5.4c3.3,0,5.6,2.4,5.6,5.3v0c0,2.9-2.4,5.4-5.7,5.4
		C132.8,30.9,130.5,28.5,130.5,25.6z M138.3,25.6L138.3,25.6c0-1.3-0.9-2.3-2.2-2.3c-1.3,0-2.1,1-2.1,2.3v0c0,1.2,0.9,2.3,2.2,2.3
		C137.4,27.8,138.3,26.8,138.3,25.6z"/>
	<path class="st0" d="M143.4,16.8h3.6v13.8h-3.6V16.8z"/>
	<path class="st0" d="M148.2,20.4h3.8l2,6l2-6h3.7l-4.1,10.3h-3.3L148.2,20.4z"/>
	<path class="st0" d="M159.8,25.6L159.8,25.6c0-3,2.1-5.4,5.2-5.4c3.5,0,5.2,2.6,5.2,5.6c0,0.2,0,0.5,0,0.7h-6.8
		c0.3,1.1,1.1,1.7,2.2,1.7c0.9,0,1.5-0.3,2.3-1l2,1.6c-1,1.2-2.4,2.1-4.4,2.1C162.1,30.9,159.8,28.8,159.8,25.6z M166.8,24.7
		c-0.1-1.1-0.8-1.9-1.8-1.9c-0.9,0-1.6,0.7-1.8,1.9H166.8z"/>
	<path class="st0" d="M171.4,27h3.7v3.7h-3.7V27z"/>
</g>
</svg>
