<?xml version="1.0" encoding="utf-8"?>
<!-- Generator: Adobe Illustrator 25.4.1, SVG Export Plug-In . SVG Version: 6.00 Build 0)  -->
<svg version="1.1" id="Layer_1" xmlns="http://www.w3.org/2000/svg" xmlns:xlink="http://www.w3.org/1999/xlink" x="0px" y="0px"
	 viewBox="0 0 300 50" style="enable-background:new 0 0 300 50;" xml:space="preserve">
<style type="text/css">
	.st0{fill:#490A09;}
</style>
<g>
	<path class="st0" d="M9.6,23.6h3.9l3.2,5.1l3.2-5.1h3.9v13.2H20v-7.6l-3.4,5.2h-0.1l-3.4-5.1v7.6H9.6V23.6z"/>
	<path class="st0" d="M25.7,33.3v-6.7h3.6v5.5c0,1.1,0.6,1.7,1.5,1.7c0.9,0,1.5-0.6,1.5-1.7v-5.5h3.6v10.2h-3.6v-1.4
		c-0.7,0.9-1.6,1.6-3.1,1.6C27,37,25.7,35.6,25.7,33.3z"/>
	<path class="st0" d="M37.8,26.6h3.6v2.1c0.6-1.4,1.5-2.3,3.2-2.2v3.8h-0.3c-1.9,0-2.9,1.1-2.9,3.4v3.2h-3.6V26.6z"/>
	<path class="st0" d="M45.3,31.7L45.3,31.7c0-3.4,2.1-5.4,4.5-5.4c1.6,0,2.5,0.7,3.1,1.5V23h3.6v13.8H53v-1.4
		c-0.7,0.9-1.6,1.6-3.1,1.6C47.4,37,45.3,35,45.3,31.7z M53,31.7L53,31.7c0-1.4-0.9-2.3-2.1-2.3s-2.1,0.9-2.1,2.3v0
		c0,1.4,0.9,2.3,2.1,2.3S53,33.1,53,31.7z"/>
	<path class="st0" d="M58.1,31.7L58.1,31.7c0-3,2.1-5.4,5.2-5.4c3.5,0,5.2,2.6,5.2,5.6c0,0.2,0,0.5,0,0.7h-6.8
		c0.3,1.1,1.1,1.7,2.2,1.7c0.9,0,1.5-0.3,2.3-1l2,1.6c-1,1.2-2.4,2.1-4.4,2.1C60.3,37.1,58.1,34.9,58.1,31.7z M65,30.9
		c-0.1-1.1-0.8-1.9-1.8-1.9c-0.9,0-1.6,0.7-1.8,1.9H65z"/>
	<path class="st0" d="M69.9,26.6h3.6v2.1c0.6-1.4,1.5-2.3,3.2-2.2v3.8h-0.3c-1.9,0-2.9,1.1-2.9,3.4v3.2h-3.6V26.6z"/>
	<path class="st0" d="M77.3,35.5l1.3-2.2c1.2,0.8,2.5,1.2,3.5,1.2c0.6,0,0.9-0.2,0.9-0.5v0c0-0.4-0.6-0.6-1.6-0.9
		c-2-0.5-3.6-1.2-3.6-3.3v0c0-2.2,1.7-3.4,4.1-3.4c1.5,0,3,0.4,4.2,1.2l-1.2,2.3c-1.1-0.6-2.2-0.9-3-0.9c-0.5,0-0.8,0.2-0.8,0.5v0
		c0,0.4,0.6,0.6,1.7,0.9c2,0.6,3.6,1.3,3.6,3.3v0c0,2.3-1.7,3.4-4.2,3.4C80.4,37,78.7,36.5,77.3,35.5z"/>
</g>
<g>
	<path class="st0" d="M93.6,33.6v-4.2h-1.2v-2.9h1.2V24h3.6v2.6h2.4v2.9h-2.4v3.5c0,0.7,0.3,1,1,1c0.5,0,0.9-0.1,1.4-0.3v2.8
		c-0.6,0.4-1.5,0.6-2.5,0.6C94.9,37,93.6,36.1,93.6,33.6z"/>
	<path class="st0" d="M100.5,31.7L100.5,31.7c0-3,2.4-5.4,5.7-5.4c3.3,0,5.6,2.4,5.6,5.3v0c0,2.9-2.4,5.4-5.7,5.4
		C102.8,37.1,100.5,34.7,100.5,31.7z M108.3,31.7L108.3,31.7c0-1.3-0.9-2.3-2.2-2.3c-1.3,0-2.1,1-2.1,2.3v0c0,1.2,0.9,2.3,2.2,2.3
		C107.5,34,108.3,33,108.3,31.7z"/>
	<path class="st0" d="M117.8,35.5l1.3-2.2c1.2,0.8,2.5,1.2,3.5,1.2c0.6,0,0.9-0.2,0.9-0.5v0c0-0.4-0.6-0.6-1.6-0.9
		c-2-0.5-3.6-1.2-3.6-3.3v0c0-2.2,1.7-3.4,4.1-3.4c1.5,0,3,0.4,4.2,1.2l-1.2,2.3c-1.1-0.6-2.2-0.9-3-0.9c-0.5,0-0.8,0.2-0.8,0.5v0
		c0,0.4,0.6,0.6,1.7,0.9c2,0.6,3.6,1.3,3.6,3.3v0c0,2.3-1.7,3.4-4.2,3.4C120.9,37,119.2,36.5,117.8,35.5z"/>
	<path class="st0" d="M127.9,31.7L127.9,31.7c0-3,2.4-5.4,5.7-5.4c3.3,0,5.6,2.4,5.6,5.3v0c0,2.9-2.4,5.4-5.7,5.4
		C130.2,37.1,127.9,34.7,127.9,31.7z M135.7,31.7L135.7,31.7c0-1.3-0.9-2.3-2.2-2.3c-1.3,0-2.1,1-2.1,2.3v0c0,1.2,0.9,2.3,2.2,2.3
		C134.8,34,135.7,33,135.7,31.7z"/>
	<path class="st0" d="M140.8,23h3.6v13.8h-3.6V23z"/>
	<path class="st0" d="M145.6,26.6h3.8l2,6l2-6h3.7l-4.1,10.3h-3.3L145.6,26.6z"/>
	<path class="st0" d="M157.2,31.7L157.2,31.7c0-3,2.1-5.4,5.2-5.4c3.5,0,5.2,2.6,5.2,5.6c0,0.2,0,0.5,0,0.7h-6.8
		c0.3,1.1,1.1,1.7,2.2,1.7c0.9,0,1.5-0.3,2.3-1l2,1.6c-1,1.2-2.4,2.1-4.4,2.1C159.5,37.1,157.2,34.9,157.2,31.7z M164.1,30.9
		c-0.1-1.1-0.8-1.9-1.8-1.9c-0.9,0-1.6,0.7-1.8,1.9H164.1z"/>
	<path class="st0" d="M168.8,33.1h3.7v3.7h-3.7V33.1z"/>
</g>
</svg>
