<?xml version="1.0" encoding="utf-8"?>
<!-- Generator: Adobe Illustrator 25.4.1, SVG Export Plug-In . SVG Version: 6.00 Build 0)  -->
<svg version="1.1" id="Layer_1" xmlns="http://www.w3.org/2000/svg" xmlns:xlink="http://www.w3.org/1999/xlink" x="0px" y="0px"
	 viewBox="0 0 300 50" style="enable-background:new 0 0 300 50;" xml:space="preserve">
<style type="text/css">
	.st0{fill:#490A09;}
</style>
<g>
	<path class="st0" d="M15.1,9.4h3.7l1.8,5.1l4.5-5.1h4.1l-3.6,13.2h-3.7l2-7.6l-4.7,5.2h-0.1l-1.9-5.1l-2,7.6h-3.6L15.1,9.4z"/>
	<path class="st0" d="M28.6,19.8c0-0.5,0.1-1.2,0.3-1.8l1.5-5.6H34l-1.4,5.4c-0.1,0.3-0.1,0.6-0.1,0.8c0,0.7,0.4,1.1,1.2,1.1
		c1,0,1.6-0.7,1.9-1.9l1.5-5.4h3.6l-2.7,10.2h-3.6l0.3-1.2c-0.7,0.7-1.7,1.4-2.9,1.4C29.8,22.9,28.6,21.7,28.6,19.8z"/>
	<path class="st0" d="M42.5,12.4H46l-0.5,2.1c1-1.5,2.2-2.3,3.8-2.2l-1,3.8H48c-2,0-3.2,1.1-3.9,3.5l-0.8,3.1h-3.6L42.5,12.4z"/>
	<path class="st0" d="M48.7,18.7c0-3.7,2.6-6.5,5.5-6.5c1.5,0,2.5,0.7,3.1,1.6l1.3-5h3.6l-3.7,13.8H55l0.3-1.1
		c-0.8,0.8-1.8,1.3-2.9,1.3C50.3,22.9,48.7,21.3,48.7,18.7z M56.6,17c0-1.1-0.7-1.8-1.8-1.8c-1.3,0-2.5,1.3-2.5,2.9
		c0,1.1,0.7,1.8,1.7,1.8C55.5,19.9,56.6,18.5,56.6,17z"/>
	<path class="st0" d="M66.7,20.2c0.7,0,1.4-0.2,2.2-0.8l1.7,2c-1,0.9-2.4,1.5-4.2,1.5c-3,0-4.9-1.8-4.9-4.5c0-3,2.4-6.2,6.1-6.2
		c3,0,4.4,2,4.4,4.2c0,0.7-0.2,1.4-0.4,2.1h-6.8C64.8,19.5,65.4,20.2,66.7,20.2z M68.7,16.7c0.1-0.2,0.1-0.4,0.1-0.5
		c0-0.7-0.5-1.3-1.4-1.3c-1,0-1.9,0.6-2.3,1.9H68.7z"/>
	<path class="st0" d="M74.6,12.4h3.6l-0.5,2.1c1-1.5,2.2-2.3,3.8-2.2l-1,3.8h-0.3c-2,0-3.2,1.1-3.9,3.5l-0.8,3.1h-3.6L74.6,12.4z"/>
	<path class="st0" d="M89.1,9.4h3.7l-3.6,13.2h-3.7L89.1,9.4z"/>
	<path class="st0" d="M94.2,12.4h3.6l-0.3,1.2c0.7-0.7,1.7-1.4,2.9-1.4c1.9,0,3,1.2,3,3.1c0,0.5-0.1,1.2-0.3,1.8l-1.5,5.6H98
		l1.4-5.4c0.1-0.3,0.1-0.6,0.1-0.8c0-0.7-0.4-1.1-1.1-1.1c-1,0-1.6,0.7-1.9,1.9L95,22.6h-3.6L94.2,12.4z"/>
	<path class="st0" d="M104.4,19h3.7l-1,3.7h-3.7L104.4,19z"/>
	<path class="st0" d="M110.1,19h3.7l-1,3.7h-3.7L110.1,19z"/>
	<path class="st0" d="M115.8,19h3.7l-1,3.7h-3.7L115.8,19z"/>
</g>
</svg>
