<?xml version="1.0" encoding="utf-8"?>
<!-- Generator: Adobe Illustrator 25.4.1, SVG Export Plug-In . SVG Version: 6.00 Build 0)  -->
<svg version="1.1" id="Layer_1" xmlns="http://www.w3.org/2000/svg" xmlns:xlink="http://www.w3.org/1999/xlink" x="0px" y="0px"
	 viewBox="0 0 300 50" style="enable-background:new 0 0 300 50;" xml:space="preserve">
<style type="text/css">
	.st0{fill:#490A09;}
</style>
<g>
	<path class="st0" d="M12.5,33.6L12.5,33.6c0-3.8,3.1-6.9,7.2-6.9s7.1,3,7.1,6.8v0c0,3.8-3.1,6.9-7.2,6.9S12.5,37.4,12.5,33.6z
		 M23,33.6L23,33.6c0-1.9-1.4-3.6-3.4-3.6c-2,0-3.3,1.6-3.3,3.5v0c0,1.9,1.4,3.6,3.4,3.6C21.7,37.2,23,35.5,23,33.6z"/>
	<path class="st0" d="M28.5,30H32v1.4c0.7-0.9,1.6-1.7,3.1-1.7c2.2,0,3.5,1.4,3.5,3.8v6.7H35v-5.5c0-1.1-0.6-1.7-1.4-1.7
		c-0.9,0-1.5,0.6-1.5,1.7v5.5h-3.6V30z"/>
	<path class="st0" d="M40.5,26.4h3.6v13.8h-3.6V26.4z"/>
	<path class="st0" d="M45.9,42.4l1.1-2.5c0.6,0.3,1.2,0.5,1.6,0.5c0.4,0,0.6-0.1,0.8-0.4l-4-10h3.8l2,6.2l1.9-6.2h3.7l-3.7,10
		c-0.9,2.4-1.9,3.3-3.9,3.3C47.9,43.3,46.8,42.9,45.9,42.4z"/>
	<path class="st0" d="M62.8,35.2L62.8,35.2c0-3,2.4-5.4,5.7-5.4c3.3,0,5.6,2.4,5.6,5.3v0c0,2.9-2.4,5.4-5.7,5.4
		C65.2,40.5,62.8,38.1,62.8,35.2z M70.6,35.2L70.6,35.2c0-1.3-0.9-2.3-2.2-2.3c-1.3,0-2.1,1-2.1,2.3v0c0,1.2,0.9,2.3,2.2,2.3
		C69.8,37.4,70.6,36.4,70.6,35.2z"/>
	<path class="st0" d="M75.6,30h3.6v1.4c0.7-0.9,1.6-1.7,3.1-1.7c2.2,0,3.5,1.4,3.5,3.8v6.7h-3.6v-5.5c0-1.1-0.6-1.7-1.4-1.7
		c-0.9,0-1.5,0.6-1.5,1.7v5.5h-3.6V30z"/>
	<path class="st0" d="M93.1,27H97l3.2,5.1l3.2-5.1h3.9v13.2h-3.7v-7.6l-3.4,5.2H100l-3.4-5.1v7.6h-3.6V27z"/>
	<path class="st0" d="M109.5,27h3.7v5h4.7v-5h3.7v13.2h-3.7v-5h-4.7v5h-3.7V27z"/>
	<path class="st0" d="M123.3,37.9l4.7-5h-4.6V30h9.3v2.4l-4.7,5h4.7v2.9h-9.5V37.9z"/>
	<path class="st0" d="M139.3,33.6L139.3,33.6c0-3.9,3-6.9,7-6.9c2.7,0,4.4,1.1,5.6,2.8l-2.8,2.1c-0.8-0.9-1.6-1.6-2.9-1.6
		c-1.9,0-3.2,1.6-3.2,3.5v0c0,2,1.3,3.5,3.2,3.5c1.4,0,2.2-0.6,3-1.6l2.8,2c-1.2,1.7-2.9,3-5.9,3C142.4,40.5,139.3,37.6,139.3,33.6z
		"/>
	<path class="st0" d="M153.4,26.4h3.6v5c0.7-0.9,1.6-1.6,3.1-1.6c2.2,0,3.5,1.4,3.5,3.8v6.7H160v-5.5c0-1.1-0.6-1.7-1.4-1.7
		c-0.9,0-1.5,0.6-1.5,1.7v5.5h-3.6V26.4z"/>
	<path class="st0" d="M165,35.2L165,35.2c0-3,2.4-5.4,5.7-5.4c3.3,0,5.6,2.4,5.6,5.3v0c0,2.9-2.4,5.4-5.7,5.4
		C167.4,40.5,165,38.1,165,35.2z M172.8,35.2L172.8,35.2c0-1.3-0.9-2.3-2.2-2.3c-1.3,0-2.1,1-2.1,2.3v0c0,1.2,0.9,2.3,2.2,2.3
		C172,37.4,172.8,36.4,172.8,35.2z"/>
	<path class="st0" d="M177.8,26.4h3.7v2.6h-3.7V26.4z M177.9,30h3.6v10.2h-3.6V30z"/>
	<path class="st0" d="M183.1,35.2L183.1,35.2c0-2.9,2.3-5.4,5.5-5.4c2.1,0,3.5,0.9,4.4,2.3l-2.4,1.8c-0.5-0.7-1-1.1-1.9-1.1
		c-1.2,0-2,1-2,2.3v0c0,1.3,0.8,2.3,2,2.3c0.9,0,1.4-0.4,2-1.1l2.4,1.7c-0.9,1.4-2.3,2.3-4.6,2.3C185.3,40.5,183.1,38,183.1,35.2z"
		/>
	<path class="st0" d="M193.6,35.2L193.6,35.2c0-3,2.1-5.4,5.2-5.4c3.5,0,5.2,2.6,5.2,5.6c0,0.2,0,0.5,0,0.7H197
		c0.3,1.1,1.1,1.7,2.2,1.7c0.9,0,1.5-0.3,2.3-1l2,1.6c-1,1.2-2.4,2.1-4.4,2.1C195.8,40.5,193.6,38.3,193.6,35.2z M200.5,34.3
		c-0.1-1.1-0.8-1.9-1.8-1.9c-0.9,0-1.6,0.7-1.8,1.9H200.5z"/>
	<path class="st0" d="M205.2,36.5h3.7v3.7h-3.7V36.5z"/>
</g>
</svg>
