<?xml version="1.0" encoding="utf-8"?>
<!-- Generator: Adobe Illustrator 25.4.1, SVG Export Plug-In . SVG Version: 6.00 Build 0)  -->
<svg version="1.1" id="Layer_1" xmlns="http://www.w3.org/2000/svg" xmlns:xlink="http://www.w3.org/1999/xlink" x="0px" y="0px"
	 viewBox="0 0 300 50" style="enable-background:new 0 0 300 50;" xml:space="preserve">
<style type="text/css">
	.st0{clip-path:url(#SVGID_00000126294868541544618670000010386229504103562663_);fill:#AC1F2D;}
	.st1{clip-path:url(#SVGID_00000126294868541544618670000010386229504103562663_);fill:#FFFFFF;}
</style>
<g>
	<defs>
		<rect id="SVGID_1_" x="270.6" y="9.9" width="22.7" height="21.5"/>
	</defs>
	<clipPath id="SVGID_00000145738329594391423270000004615009298469087629_">
		<use xlink:href="#SVGID_1_"  style="overflow:visible;"/>
	</clipPath>
	<path style="clip-path:url(#SVGID_00000145738329594391423270000004615009298469087629_);fill:#AC1F2D;" d="M291.8,20.8
		c0,5.5-4.4,9.9-9.9,9.9c-5.5,0-9.9-4.4-9.9-9.9s4.4-9.9,9.9-9.9C287.4,10.9,291.8,15.3,291.8,20.8"/>
	<path style="clip-path:url(#SVGID_00000145738329594391423270000004615009298469087629_);fill:#FFFFFF;" d="M285.9,19v1.1h1.3
		l-1.5,2.4h3.7v-1.2h-1.6l1.5-2.3H285.9z M278.5,17.6l-1.2,2.7l-1.2-2.7h-1.7v4.9h1.4v-2.6l1.2,2.6h0.6l1.2-2.7v2.7h1.4v-4.9H278.5z
		 M284,17.6v1.7h-1.7v-1.7h-1.5v4.9h1.5v-1.9h1.7v1.9h1.5v-4.9H284z"/>
	<path style="clip-path:url(#SVGID_00000145738329594391423270000004615009298469087629_);fill:#FFFFFF;" d="M285.8,24.5h1.3v-0.4
		h-0.9v-0.3h0.8v-0.4h-0.8v-0.2h0.9v-0.4h-1.3V24.5z M284.7,24.6c0.4,0,0.6-0.2,0.7-0.4l-0.3-0.2c-0.1,0.1-0.2,0.2-0.4,0.2
		c-0.2,0-0.4-0.2-0.4-0.4v0c0-0.2,0.2-0.4,0.4-0.4c0.2,0,0.3,0.1,0.4,0.2l0.3-0.3c-0.1-0.2-0.4-0.3-0.7-0.3c-0.5,0-0.9,0.4-0.9,0.8
		v0C283.9,24.2,284.3,24.6,284.7,24.6 M283.1,24.5h0.5v-1.6h-0.5V24.5z M281.8,24.1c-0.2,0-0.4-0.2-0.4-0.4v0c0-0.2,0.2-0.4,0.4-0.4
		c0.2,0,0.4,0.2,0.4,0.4v0C282.2,23.9,282,24.1,281.8,24.1 M281.8,24.6c0.5,0,0.9-0.4,0.9-0.8v0c0-0.5-0.4-0.8-0.9-0.8
		c-0.5,0-0.9,0.4-0.9,0.8v0C280.9,24.2,281.3,24.6,281.8,24.6 M279.1,24.5h0.5v-0.6h0.6v0.6h0.5v-1.6h-0.5v0.6h-0.6v-0.6h-0.5V24.5z
		 M278,24.6c0.4,0,0.6-0.2,0.7-0.4l-0.3-0.2c-0.1,0.1-0.2,0.2-0.4,0.2c-0.2,0-0.4-0.2-0.4-0.4v0c0-0.2,0.2-0.4,0.4-0.4
		c0.2,0,0.3,0.1,0.4,0.2l0.3-0.3c-0.1-0.2-0.4-0.3-0.7-0.3c-0.5,0-0.9,0.4-0.9,0.8v0C277.2,24.2,277.5,24.6,278,24.6"/>
</g>
</svg>
