<?xml version="1.0" encoding="utf-8"?>
<!-- Generator: Adobe Illustrator 25.4.1, SVG Export Plug-In . SVG Version: 6.00 Build 0)  -->
<svg version="1.1" id="Layer_1" xmlns="http://www.w3.org/2000/svg" xmlns:xlink="http://www.w3.org/1999/xlink" x="0px" y="0px"
	 viewBox="0 0 300 600" style="enable-background:new 0 0 300 600;" xml:space="preserve">
<style type="text/css">
	.st0{fill:#490A09;}
</style>
<g>
	<path class="st0" d="M33.2,199.6h8.7l13.9,32.8H46l-2.4-5.8H31.1l-2.3,5.8h-9.5L33.2,199.6z M41.1,219.6l-3.6-9.3l-3.7,9.3H41.1z"
		/>
</g>
<g>
	<path class="st0" d="M30.2,272.6v3.1h-8.8v-34h8.8v12.2c1.7-2.1,3.9-3.9,7.6-3.9c6,0,11.2,5,11.2,13v0.1c0,8.2-5.2,13.2-11.1,13.2
		C34.1,276.2,31.8,274.5,30.2,272.6z M40.3,263.1L40.3,263.1c0-3.4-2.3-5.8-5.2-5.8c-2.8,0-5.1,2.4-5.1,5.7v0.1
		c0,3.4,2.3,5.7,5.1,5.7C38,268.8,40.3,266.5,40.3,263.1z"/>
	<path class="st0" d="M52.8,250.5h8.8v5.1c1.4-3.4,3.8-5.7,8-5.5v9.3h-0.7c-4.6,0-7.2,2.7-7.2,8.5v7.8h-8.8V250.5z"/>
	<path class="st0" d="M72.8,241.7H82v6.5h-9.2V241.7z M73,250.5h8.8v25.2H73V250.5z"/>
	<path class="st0" d="M86.9,241.7h8.8v34h-8.8V241.7z"/>
	<path class="st0" d="M100.9,241.7h8.8v34h-8.8V241.7z"/>
	<path class="st0" d="M114.7,241.7h9.2v6.5h-9.2V241.7z M114.8,250.5h8.8v25.2h-8.8V250.5z"/>
	<path class="st0" d="M127.4,268.5L127.4,268.5c0-5.3,4-8,9.9-8c2.3,0,4.6,0.5,6.1,1V261c0-2.6-1.6-4.1-5-4.1
		c-2.7,0-4.7,0.5-6.9,1.4l-1.8-6.2c2.8-1.2,5.9-2,10.2-2c4.5,0,7.6,1.1,9.6,3.1c1.9,1.9,2.7,4.5,2.7,8v14.5h-8.8v-2.6
		c-1.7,1.9-4.1,3.2-7.4,3.2C131,276.2,127.4,273.5,127.4,268.5z M143.4,266.5v-1.2c-0.9-0.4-2.1-0.7-3.4-0.7c-2.6,0-4.1,1.3-4.1,3.1
		v0.1c0,1.7,1.3,2.7,3.1,2.7C141.6,270.7,143.4,269.1,143.4,266.5z"/>
	<path class="st0" d="M156.5,250.5h8.8v3.5c1.6-2.1,4-4.1,7.5-4.1c5.4,0,8.6,3.5,8.6,9.3v16.5h-8.8V262c0-2.7-1.4-4.2-3.5-4.2
		c-2.1,0-3.7,1.5-3.7,4.2v13.6h-8.8V250.5z"/>
	<path class="st0" d="M187.6,267.8v-10.2h-3v-7.1h3v-6.4h8.8v6.4h5.9v7.1h-5.9v8.5c0,1.8,0.8,2.5,2.4,2.5c1.2,0,2.3-0.3,3.4-0.8v6.9
		c-1.6,0.9-3.7,1.4-6.1,1.4C190.7,276.2,187.6,273.9,187.6,267.8z"/>
	<path class="st0" d="M206.3,241.7h8.8v34h-8.8V241.7z"/>
	<path class="st0" d="M219.4,281.1l2.7-6.2c1.4,0.8,2.9,1.4,3.9,1.4c0.9,0,1.5-0.2,2-1l-9.9-24.7h9.3l5,15.2l4.7-15.2h9.1l-9.2,24.6
		c-2.2,5.9-4.6,8.2-9.6,8.2C224.4,283.3,221.7,282.4,219.4,281.1z"/>
</g>
<g>
	<path class="st0" d="M23,300.8H20v-6.9H23v-0.6c0-2.9,0.7-5,2.1-6.5c1.5-1.5,3.6-2.2,6.6-2.2c2.7,0,4.4,0.3,5.8,0.7v6.2
		c-1-0.3-2-0.5-3.3-0.5c-1.6,0-2.5,0.7-2.5,2.4v0.6h5.8v6.8h-5.6v18.1H23V300.8z"/>
	<path class="st0" d="M40,310.2v-16.5h8.8v13.6c0,2.7,1.4,4.2,3.6,4.2c2.1,0,3.7-1.5,3.7-4.2v-13.6h8.8v25.2h-8.8v-3.4
		c-1.6,2.1-4,4-7.5,4C43.2,319.4,40,315.9,40,310.2z"/>
	<path class="st0" d="M69.7,293.7h8.8v3.5c1.6-2.1,4-4.1,7.5-4.1c5.4,0,8.6,3.5,8.6,9.3v16.5h-8.8v-13.6c0-2.7-1.4-4.2-3.5-4.2
		c-2.1,0-3.7,1.5-3.7,4.2v13.6h-8.8V293.7z"/>
	<path class="st0" d="M99.2,293.7h8.8v3.5c1.6-2.1,4-4.1,7.5-4.1c5.4,0,8.6,3.5,8.6,9.3v16.5h-8.8v-13.6c0-2.7-1.4-4.2-3.5-4.2
		c-2.1,0-3.7,1.5-3.7,4.2v13.6h-8.8V293.7z"/>
	<path class="st0" d="M127.4,324.3l2.7-6.2c1.4,0.8,2.9,1.3,3.9,1.3c0.9,0,1.5-0.2,2-1l-9.9-24.7h9.3l5,15.2l4.7-15.2h9.1l-9.2,24.6
		c-2.2,5.9-4.6,8.2-9.6,8.2C132.4,326.5,129.7,325.6,127.4,324.3z"/>
</g>
<g>
	<path class="st0" d="M21.4,336.9h8.8v3.4c1.7-2.1,3.9-3.9,7.6-3.9c6,0,11.2,5,11.2,13v0.1c0,8.2-5.2,13.2-11.1,13.2
		c-3.8,0-6.1-1.7-7.7-3.6v10.5h-8.8V336.9z M40.3,349.5L40.3,349.5c0-3.4-2.3-5.8-5.2-5.8c-2.8,0-5.1,2.4-5.1,5.7v0.1
		c0,3.4,2.3,5.7,5.1,5.7C38,355.2,40.3,352.9,40.3,349.5z"/>
	<path class="st0" d="M52.8,336.9h8.8v5.1c1.4-3.4,3.8-5.7,8-5.5v9.3h-0.7c-4.6,0-7.2,2.7-7.2,8.5v7.8h-8.8V336.9z"/>
	<path class="st0" d="M71.3,349.6L71.3,349.6c0-7.3,5.9-13.3,14-13.3c8.1,0,13.9,5.9,13.9,13.1v0.1c0,7.2-5.9,13.2-14,13.2
		C77.1,362.7,71.3,356.8,71.3,349.6z M90.5,349.6L90.5,349.6c0-3.2-2.2-5.8-5.4-5.8c-3.2,0-5.3,2.6-5.3,5.6v0.1
		c0,3.1,2.2,5.7,5.4,5.7C88.5,355.2,90.5,352.6,90.5,349.6z"/>
	<path class="st0" d="M100.9,358.9l3.3-5.4c2.9,1.9,6.1,2.9,8.7,2.9c1.5,0,2.2-0.5,2.2-1.4V355c0-1-1.4-1.4-4.1-2.1
		c-5-1.3-8.9-3-8.9-8.1v-0.1c0-5.4,4.3-8.3,10.1-8.3c3.7,0,7.5,1.1,10.4,2.9l-3,5.6c-2.6-1.4-5.4-2.3-7.4-2.3c-1.4,0-2,0.5-2,1.2
		v0.1c0,1,1.4,1.4,4.1,2.2c5,1.4,8.9,3.1,8.9,8v0.1c0,5.5-4.1,8.4-10.3,8.4C108.6,362.6,104.4,361.4,100.9,358.9z"/>
	<path class="st0" d="M125.7,349.6L125.7,349.6c0-7.4,5.3-13.3,12.7-13.3c8.7,0,12.7,6.4,12.7,13.8c0,0.6,0,1.2,0,1.8h-16.9
		c0.7,2.7,2.7,4.1,5.4,4.1c2.1,0,3.8-0.8,5.6-2.6l4.9,4.1c-2.4,3.1-5.9,5.1-10.9,5.1C131.3,362.7,125.7,357.4,125.7,349.6z
		 M142.9,347.4c-0.3-2.8-2-4.6-4.4-4.6c-2.3,0-3.9,1.8-4.4,4.6H142.9z"/>
	<path class="st0" d="M153.9,349.6L153.9,349.6c0-7.2,5.5-13.2,13.5-13.2c5.2,0,8.6,2.2,10.8,5.6l-6,4.5c-1.2-1.7-2.6-2.7-4.7-2.7
		c-2.8,0-4.9,2.5-4.9,5.6v0.1c0,3.3,2,5.7,5,5.7c2.1,0,3.4-1,4.8-2.6l5.9,4.3c-2.3,3.4-5.7,5.8-11.2,5.8
		C159.5,362.7,153.9,356.7,153.9,349.6z"/>
	<path class="st0" d="M181.2,353.4v-16.5h8.8v13.6c0,2.7,1.4,4.2,3.6,4.2c2.1,0,3.7-1.5,3.7-4.2v-13.6h8.8v25.2h-8.8v-3.4
		c-1.6,2.1-4,4-7.5,4C184.4,362.6,181.2,359.1,181.2,353.4z"/>
	<path class="st0" d="M212.5,354.2V344h-3v-7.1h3v-6.4h8.8v6.4h5.9v7.1h-5.9v8.5c0,1.8,0.8,2.5,2.4,2.5c1.2,0,2.3-0.3,3.4-0.8v6.9
		c-1.6,0.9-3.7,1.4-6.1,1.4C215.6,362.6,212.5,360.2,212.5,354.2z"/>
	<path class="st0" d="M229.3,349.6L229.3,349.6c0-7.3,5.9-13.3,14-13.3c8.1,0,13.9,5.9,13.9,13.1v0.1c0,7.2-5.9,13.2-14,13.2
		C235.1,362.7,229.3,356.8,229.3,349.6z M248.5,349.6L248.5,349.6c0-3.2-2.2-5.8-5.4-5.8c-3.2,0-5.3,2.6-5.3,5.6v0.1
		c0,3.1,2.2,5.7,5.4,5.7C246.5,355.2,248.5,352.6,248.5,349.6z"/>
	<path class="st0" d="M260.9,336.9h8.8v5.1c1.4-3.4,3.8-5.7,8-5.5v9.3h-0.7c-4.6,0-7.2,2.7-7.2,8.5v7.8h-8.8V336.9z"/>
	<path class="st0" d="M277.4,353h9.2v9.1h-9.2V353z"/>
</g>
</svg>
