<?xml version="1.0" encoding="utf-8"?>
<!-- Generator: Adobe Illustrator 25.4.1, SVG Export Plug-In . SVG Version: 6.00 Build 0)  -->
<svg version="1.1" id="Layer_1" xmlns="http://www.w3.org/2000/svg" xmlns:xlink="http://www.w3.org/1999/xlink" x="0px" y="0px"
	 viewBox="0 0 300 600" style="enable-background:new 0 0 300 600;" xml:space="preserve">
<style type="text/css">
	.st0{fill:#490A09;}
</style>
<g>
	<path class="st0" d="M19.4,297l5-6c3.2,2.6,6.8,3.9,10.6,3.9c2.4,0,3.7-0.8,3.7-2.2v-0.1c0-1.4-1.1-2.1-5.5-3.1
		C26.3,287.9,21,286,21,279.3v-0.1c0-6.1,4.8-10.4,12.6-10.4c5.5,0,9.9,1.5,13.4,4.3l-4.5,6.4c-3-2.1-6.2-3.2-9.1-3.2
		c-2.2,0-3.3,0.9-3.3,2.1v0.1c0,1.5,1.1,2.1,5.6,3.2c7.5,1.6,12.2,4.1,12.2,10.1v0.1c0,6.7-5.3,10.6-13.2,10.6
		C28.9,302.4,23.4,300.6,19.4,297z"/>
	<path class="st0" d="M50.7,289.4L50.7,289.4c0-7.4,5.3-13.3,12.7-13.3c8.7,0,12.7,6.4,12.7,13.8c0,0.6,0,1.2,0,1.8H59.2
		c0.7,2.7,2.7,4.1,5.4,4.1c2.1,0,3.8-0.8,5.6-2.6l4.9,4.1c-2.4,3.1-5.9,5.1-10.9,5.1C56.3,302.5,50.7,297.2,50.7,289.4z M67.8,287.2
		c-0.3-2.8-2-4.6-4.4-4.6c-2.3,0-3.9,1.8-4.4,4.6H67.8z"/>
	<path class="st0" d="M78.6,294.7L78.6,294.7c0-5.3,4-8,9.9-8c2.3,0,4.6,0.5,6.1,1v-0.4c0-2.6-1.6-4.1-5-4.1c-2.7,0-4.7,0.5-6.9,1.4
		l-1.8-6.2c2.8-1.2,5.9-2,10.2-2c4.5,0,7.6,1.1,9.6,3.1c1.9,1.9,2.7,4.5,2.7,8v14.5h-8.8v-2.6c-1.7,1.9-4.1,3.2-7.4,3.2
		C82.3,302.4,78.6,299.7,78.6,294.7z M94.6,292.8v-1.2c-0.9-0.4-2.1-0.7-3.4-0.7c-2.6,0-4.1,1.3-4.1,3.1v0.1c0,1.7,1.3,2.7,3.1,2.7
		C92.8,296.9,94.6,295.3,94.6,292.8z"/>
	<path class="st0" d="M105.9,298.7l3.3-5.4c2.9,1.9,6.1,2.9,8.7,2.9c1.5,0,2.2-0.5,2.2-1.4v-0.1c0-1-1.4-1.4-4.1-2.1
		c-5-1.3-8.9-3-8.9-8.1v-0.1c0-5.4,4.3-8.3,10.1-8.3c3.7,0,7.5,1.1,10.4,2.9l-3,5.6c-2.6-1.4-5.4-2.3-7.4-2.3c-1.4,0-2,0.5-2,1.2
		v0.1c0,1,1.4,1.4,4.1,2.2c5,1.4,8.9,3.1,8.9,8v0.1c0,5.5-4.1,8.4-10.3,8.4C113.5,302.4,109.4,301.2,105.9,298.7z"/>
	<path class="st0" d="M130.7,289.4L130.7,289.4c0-7.3,5.9-13.3,14-13.3c8.1,0,13.9,5.9,13.9,13.1v0.1c0,7.2-5.9,13.2-14,13.2
		C136.5,302.5,130.7,296.6,130.7,289.4z M149.9,289.4L149.9,289.4c0-3.2-2.2-5.8-5.4-5.8c-3.2,0-5.3,2.6-5.3,5.6v0.1
		c0,3.1,2.2,5.7,5.4,5.7C147.9,295,149.9,292.4,149.9,289.4z"/>
	<path class="st0" d="M162.2,276.7h8.8v3.5c1.6-2.1,4-4.1,7.5-4.1c5.4,0,8.6,3.5,8.6,9.3v16.5h-8.8v-13.6c0-2.7-1.4-4.2-3.5-4.2
		c-2.1,0-3.7,1.5-3.7,4.2v13.6h-8.8V276.7z"/>
	<path class="st0" d="M209.9,277.5l-5.5,1.3l-1.7-7l9.5-2.7h6.6v32.8h-8.9V277.5z"/>
</g>
<g>
	<path class="st0" d="M23,327H20V320H23v-0.6c0-2.9,0.7-5,2.1-6.5c1.5-1.5,3.6-2.2,6.6-2.2c2.7,0,4.4,0.3,5.8,0.7v6.2
		c-1-0.3-2-0.5-3.3-0.5c-1.6,0-2.5,0.7-2.5,2.4v0.6h5.8v6.8h-5.6v18.1H23V327z"/>
	<path class="st0" d="M40.2,319.9H49v5.1c1.4-3.4,3.8-5.7,8-5.5v9.3h-0.7c-4.6,0-7.2,2.7-7.2,8.5v7.8h-8.8V319.9z"/>
	<path class="st0" d="M58.6,332.6L58.6,332.6c0-7.4,5.3-13.3,12.7-13.3c8.7,0,12.7,6.4,12.7,13.8c0,0.6,0,1.2,0,1.8H67.1
		c0.7,2.7,2.7,4.1,5.4,4.1c2.1,0,3.8-0.8,5.6-2.6l4.9,4.1c-2.4,3.1-5.9,5.1-10.9,5.1C64.2,345.7,58.6,340.4,58.6,332.6z M75.7,330.4
		c-0.3-2.8-2-4.6-4.4-4.6c-2.3,0-3.9,1.8-4.4,4.6H75.7z"/>
	<path class="st0" d="M86.8,332.6L86.8,332.6c0-7.4,5.3-13.3,12.7-13.3c8.7,0,12.7,6.4,12.7,13.8c0,0.6,0,1.2,0,1.8H95.3
		c0.7,2.7,2.7,4.1,5.4,4.1c2.1,0,3.8-0.8,5.6-2.6l4.9,4.1c-2.4,3.1-5.9,5.1-10.9,5.1C92.4,345.7,86.8,340.4,86.8,332.6z
		 M103.9,330.4c-0.3-2.8-2-4.6-4.4-4.6c-2.3,0-3.9,1.8-4.4,4.6H103.9z"/>
	<path class="st0" d="M127.8,332.6L127.8,332.6c0-7.3,5.9-13.3,14-13.3c8.1,0,13.9,5.9,13.9,13.1v0.1c0,7.2-5.9,13.2-14,13.2
		C133.7,345.7,127.8,339.8,127.8,332.6z M147.1,332.6L147.1,332.6c0-3.2-2.2-5.8-5.4-5.8c-3.2,0-5.3,2.6-5.3,5.6v0.1
		c0,3.1,2.2,5.7,5.4,5.7C145,338.2,147.1,335.6,147.1,332.6z"/>
	<path class="st0" d="M159.4,319.9h8.8v3.5c1.6-2.1,4-4.1,7.5-4.1c5.4,0,8.6,3.5,8.6,9.3v16.5h-8.8v-13.6c0-2.7-1.4-4.2-3.5-4.2
		c-2.1,0-3.7,1.5-3.7,4.2v13.6h-8.8V319.9z"/>
</g>
<g>
	<path class="st0" d="M21.9,355.7h9.5l7.8,12.6l7.8-12.6h9.5v32.6h-9v-18.7l-8.3,12.8H39l-8.3-12.7v18.6h-8.8V355.7z"/>
	<path class="st0" d="M62.3,355.7h9v12.2h11.6v-12.2h9v32.6h-9v-12.4H71.3v12.4h-9V355.7z"/>
	<path class="st0" d="M96.3,382.5l11.6-12.3H96.7v-7h23v5.8L108,381.3h11.7v7H96.3V382.5z"/>
</g>
<g>
	<path class="st0" d="M20.8,419.2L20.8,419.2c0-9.6,7.3-17,17.2-17c6.7,0,10.9,2.8,13.8,6.8l-6.8,5.3c-1.9-2.3-4-3.8-7.1-3.8
		c-4.6,0-7.8,3.9-7.8,8.6v0.1c0,4.9,3.2,8.7,7.8,8.7c3.4,0,5.4-1.6,7.4-4l6.8,4.8c-3.1,4.2-7.2,7.4-14.4,7.4
		C28.3,436.1,20.8,429,20.8,419.2z"/>
	<path class="st0" d="M55.4,401.5h8.8v12.2c1.6-2.1,4-4,7.5-4c5.4,0,8.6,3.5,8.6,9.3v16.5h-8.8v-13.6c0-2.7-1.4-4.2-3.5-4.2
		c-2.1,0-3.7,1.5-3.7,4.2v13.6h-8.8V401.5z"/>
	<path class="st0" d="M83.8,423L83.8,423c0-7.3,5.9-13.3,14-13.3c8.1,0,13.9,5.9,13.9,13.1v0.1c0,7.2-5.9,13.2-14,13.2
		C89.7,436,83.8,430.1,83.8,423z M103.1,423L103.1,423c0-3.2-2.2-5.8-5.4-5.8c-3.2,0-5.3,2.6-5.3,5.6v0.1c0,3.1,2.2,5.7,5.4,5.7
		C101,428.6,103.1,426,103.1,423z"/>
	<path class="st0" d="M115.4,401.5h9.2v6.5h-9.2V401.5z M115.6,410.3h8.8v25.2h-8.8V410.3z"/>
	<path class="st0" d="M128.3,423L128.3,423c0-7.2,5.5-13.2,13.5-13.2c5.2,0,8.6,2.2,10.8,5.6l-6,4.5c-1.2-1.7-2.6-2.7-4.7-2.7
		c-2.8,0-4.9,2.5-4.9,5.6v0.1c0,3.3,2,5.7,5,5.7c2.1,0,3.4-1,4.8-2.6l5.9,4.3c-2.3,3.4-5.7,5.8-11.2,5.8
		C133.9,436,128.3,430.1,128.3,423z"/>
	<path class="st0" d="M154.2,423L154.2,423c0-7.4,5.3-13.3,12.7-13.3c8.7,0,12.7,6.4,12.7,13.8c0,0.6,0,1.2,0,1.8h-16.9
		c0.7,2.7,2.7,4.1,5.4,4.1c2.1,0,3.8-0.8,5.6-2.6l4.9,4.1c-2.4,3.1-5.9,5.1-10.9,5.1C159.8,436,154.2,430.8,154.2,423z M171.3,420.8
		c-0.3-2.8-2-4.6-4.4-4.6c-2.3,0-3.9,1.8-4.4,4.6H171.3z"/>
	<path class="st0" d="M182.8,426.4h9.2v9.1h-9.2V426.4z"/>
</g>
</svg>
