<?xml version="1.0" encoding="utf-8"?>
<!-- Generator: Adobe Illustrator 25.4.1, SVG Export Plug-In . SVG Version: 6.00 Build 0)  -->
<svg version="1.1" id="Layer_1" xmlns="http://www.w3.org/2000/svg" xmlns:xlink="http://www.w3.org/1999/xlink" x="0px" y="0px"
	 viewBox="0 0 300 600" style="enable-background:new 0 0 300 600;" xml:space="preserve">
<style type="text/css">
	.st0{fill:#490A09;}
</style>
<g>
	<path class="st0" d="M27.4,162.4h9L27.7,195h-9L27.4,162.4z"/>
	<path class="st0" d="M39.9,169.9h8.8l-0.7,2.8c1.7-1.8,4.1-3.4,7-3.4c3.4,0,5.6,1.8,6.6,4.4c2.4-2.7,5.4-4.4,9.1-4.4
		c4.8,0,7.4,2.9,7.4,7.5c0,1.4-0.3,3-0.7,4.6L73.7,195h-8.8l3.5-13.2c0.2-0.7,0.3-1.5,0.3-2c0-1.7-0.8-2.7-2.7-2.7
		c-2.4,0-3.8,1.7-4.6,4.6L57.9,195H49l3.5-13.2c0.2-0.7,0.3-1.5,0.3-2c0-1.7-0.9-2.7-2.7-2.7c-2.4,0-3.8,1.7-4.6,4.6L42,195h-8.8
		L39.9,169.9z"/>
	<path class="st0" d="M85,169.9h8.8l-0.7,2.8c1.7-1.8,4.1-3.4,7-3.4c3.4,0,5.6,1.8,6.6,4.4c2.4-2.7,5.4-4.4,9.1-4.4
		c4.8,0,7.4,2.9,7.4,7.5c0,1.4-0.3,3-0.7,4.6l-3.7,13.7H110l3.5-13.2c0.2-0.7,0.3-1.5,0.3-2c0-1.7-0.8-2.7-2.7-2.7
		c-2.4,0-3.8,1.7-4.6,4.6l-3.6,13.3h-8.8l3.5-13.2c0.2-0.7,0.3-1.5,0.3-2c0-1.7-0.9-2.7-2.7-2.7c-2.4,0-3.8,1.7-4.6,4.6L87.1,195
		h-8.8L85,169.9z"/>
	<path class="st0" d="M124.3,188.7c0-5.5,4.4-8.9,11.1-8.9c2.3,0,4.4,0.4,6.4,1l0.1-0.3c0.1-0.4,0.2-0.9,0.2-1.5
		c0-1.6-1.3-2.7-4.3-2.7c-2.4,0-5,0.6-6.8,1.3l-1.3-6.4c2.7-0.9,6.3-1.5,9.9-1.5c7.5,0,11.2,3,11.2,8c0,1.2-0.2,2.4-0.5,3.6
		l-3.7,13.9h-8.7l0.7-2.7c-2.1,2-4.3,3.2-7.3,3.2C127.2,195.5,124.3,192.9,124.3,188.7z M140.6,185.5l0.2-0.8
		c-1-0.3-2.1-0.6-3.3-0.6c-2.8,0-4.6,1.4-4.6,3.6c0,1.4,1,2.3,2.5,2.3C137.7,190.1,139.9,188.1,140.6,185.5z"/>
</g>
<g>
	<path class="st0" d="M32.7,213.4h-9.8l2.1-7.9h28.5l-2.1,7.9h-9.8L35.1,238H26L32.7,213.4z"/>
	<path class="st0" d="M46.6,231.7c0-5.5,4.4-8.9,11.1-8.9c2.3,0,4.4,0.4,6.4,1l0.1-0.3c0.1-0.4,0.2-0.9,0.2-1.5
		c0-1.6-1.3-2.7-4.3-2.7c-2.4,0-5,0.6-6.8,1.3l-1.3-6.4c2.7-0.9,6.3-1.5,9.9-1.5c7.5,0,11.2,3,11.2,8c0,1.2-0.2,2.4-0.5,3.6
		L68.9,238h-8.7l0.7-2.7c-2.1,2-4.3,3.2-7.3,3.2C49.4,238.5,46.6,235.9,46.6,231.7z M62.9,228.5l0.2-0.8c-1-0.3-2.1-0.6-3.3-0.6
		c-2.8,0-4.6,1.4-4.6,3.6c0,1.4,1,2.3,2.5,2.3C60,233.1,62.2,231.1,62.9,228.5z"/>
	<path class="st0" d="M76.3,232.6c0-1,0.2-2.1,0.5-3.3l2.5-9.3h-3l1.9-7.1h3l1.7-6.4h8.8l-1.7,6.4h5.9L94,220h-5.9l-2.1,7.9
		c-0.1,0.6-0.2,1.2-0.2,1.5c0,1,0.6,1.6,2,1.6c1,0,2-0.2,3.4-0.7l-2,7.4c-1.6,0.6-3.4,0.9-5.2,0.9C78.9,238.5,76.3,236.3,76.3,232.6
		z"/>
	<path class="st0" d="M96.4,232.6c0-1,0.2-2.1,0.5-3.3l2.5-9.3h-3l1.9-7.1h3l1.7-6.4h8.8l-1.7,6.4h5.9l-1.9,7.1h-5.9l-2.1,7.9
		c-0.1,0.6-0.2,1.2-0.2,1.5c0,1,0.6,1.6,2,1.6c1,0,2-0.2,3.4-0.7l-2,7.4c-1.6,0.6-3.4,0.9-5.2,0.9C98.9,238.5,96.4,236.3,96.4,232.6
		z"/>
	<path class="st0" d="M114.1,231.7c0-5.5,4.4-8.9,11.1-8.9c2.3,0,4.4,0.4,6.4,1l0.1-0.3c0.1-0.4,0.2-0.9,0.2-1.5
		c0-1.6-1.3-2.7-4.3-2.7c-2.4,0-5,0.6-6.8,1.3l-1.3-6.4c2.7-0.9,6.3-1.5,9.9-1.5c7.5,0,11.2,3,11.2,8c0,1.2-0.2,2.4-0.5,3.6
		l-3.7,13.9h-8.7l0.7-2.7c-2.1,2-4.3,3.2-7.3,3.2C117,238.5,114.1,235.9,114.1,231.7z M130.4,228.5l0.2-0.8c-1-0.3-2.1-0.6-3.3-0.6
		c-2.8,0-4.6,1.4-4.6,3.6c0,1.4,1,2.3,2.5,2.3C127.5,233.1,129.7,231.1,130.4,228.5z"/>
	<path class="st0" d="M147.6,212.9h8.8l-1.4,5.1c2.4-3.6,5.4-5.8,9.5-5.5l-2.5,9.3h-0.7c-4.8,0-8,2.7-9.5,8.7l-2,7.6h-8.8
		L147.6,212.9z"/>
	<path class="st0" d="M161.1,231.7c0-5.5,4.4-8.9,11.1-8.9c2.3,0,4.4,0.4,6.4,1l0.1-0.3c0.1-0.4,0.2-0.9,0.2-1.5
		c0-1.6-1.3-2.7-4.3-2.7c-2.4,0-5,0.6-6.8,1.3l-1.3-6.4c2.7-0.9,6.3-1.5,9.9-1.5c7.5,0,11.2,3,11.2,8c0,1.2-0.2,2.4-0.5,3.6
		l-3.7,13.9h-8.7l0.7-2.7c-2.1,2-4.3,3.2-7.3,3.2C164,238.5,161.1,235.9,161.1,231.7z M177.4,228.5l0.2-0.8c-1-0.3-2.1-0.6-3.3-0.6
		c-2.8,0-4.6,1.4-4.6,3.6c0,1.4,1,2.3,2.5,2.3C174.5,233.1,176.7,231.1,177.4,228.5z"/>
	<path class="st0" d="M194.6,212.9h8.8l-0.8,2.9c1.7-1.8,4.2-3.4,7.2-3.4c4.6,0,7.3,2.9,7.3,7.5c0,1.4-0.3,2.9-0.7,4.5l-3.6,13.7
		H204l3.5-13.2c0.2-0.7,0.3-1.5,0.3-2c0-1.7-1-2.7-2.8-2.7c-2.5,0-3.9,1.7-4.7,4.6l-3.6,13.3h-8.8L194.6,212.9z"/>
	<path class="st0" d="M224.1,212.9h8.8l-6.8,25.2h-8.8L224.1,212.9z M226.4,204.1h9.2l-1.8,6.5h-9.2L226.4,204.1z"/>
	<path class="st0" d="M233.7,229h9.2l-2.5,9.1h-9.2L233.7,229z"/>
</g>
</svg>
