<?xml version="1.0" encoding="utf-8"?>
<!-- Generator: Adobe Illustrator 25.4.1, SVG Export Plug-In . SVG Version: 6.00 Build 0)  -->
<svg version="1.1" id="Layer_1" xmlns="http://www.w3.org/2000/svg" xmlns:xlink="http://www.w3.org/1999/xlink" x="0px" y="0px"
	 viewBox="0 0 300 600" style="enable-background:new 0 0 300 600;" xml:space="preserve">
<style type="text/css">
	.st0{fill:#AB1F2D;}
	.st1{fill:#FFFFFF;}
</style>
<path class="st0" d="M36.9,513.7c-9.9,0-17.9,8-17.9,17.9v5.3c0,9.9,8,17.9,17.9,17.9h124.2c9.9,0,17.9-8,17.9-17.9v-5.3
	c0-9.9-8-17.9-17.9-17.9H36.9z"/>
<g>
	<path class="st1" d="M33.1,527.9h3.2l2.8,9.2l3-9.2h2.6l3,9.2l2.8-9.2h3.1l-4.6,13.7h-2.6l-3.1-8.9l-3.1,8.9h-2.6L33.1,527.9z"/>
	<path class="st1" d="M58.9,527.8h2.8l5.8,13.7h-3.1l-1.2-3h-5.7l-1.2,3h-3L58.9,527.8z M62,535.8l-1.8-4.4l-1.8,4.4H62z"/>
	<path class="st1" d="M70.9,530.6h-4.1v-2.8h11.2v2.8h-4.1v10.8h-3V530.6z"/>
	<path class="st1" d="M79.2,534.7L79.2,534.7c0-3.9,2.9-7.1,7.1-7.1c2.6,0,4.1,0.9,5.4,2.1l-1.9,2.2c-1-1-2.1-1.5-3.5-1.5
		c-2.3,0-3.9,1.9-3.9,4.2v0c0,2.3,1.6,4.3,3.9,4.3c1.6,0,2.5-0.6,3.6-1.6l1.9,1.9c-1.4,1.5-2.9,2.4-5.6,2.4
		C82.1,541.7,79.2,538.6,79.2,534.7z"/>
	<path class="st1" d="M94.1,527.9h3v5.4h5.5v-5.4h3v13.6h-3V536h-5.5v5.4h-3V527.9z"/>
	<path class="st1" d="M114.7,527.9h2.8l6.4,8.4v-8.4h2.9v13.6h-2.5l-6.6-8.6v8.6h-2.9V527.9z"/>
	<path class="st1" d="M129.4,534.7L129.4,534.7c0-3.9,3-7.1,7.2-7.1s7.2,3.1,7.2,7v0c0,3.9-3,7-7.2,7S129.4,538.6,129.4,534.7z
		 M140.7,534.7L140.7,534.7c0-2.4-1.7-4.3-4.1-4.3s-4.1,1.9-4.1,4.2v0c0,2.3,1.7,4.3,4.1,4.3S140.7,537,140.7,534.7z"/>
	<path class="st1" d="M144.6,527.9h3.2l2.8,9.2l3-9.2h2.6l3,9.2l2.8-9.2h3.1l-4.6,13.7H158l-3.1-8.9l-3.1,8.9h-2.6L144.6,527.9z"/>
</g>
</svg>
