<svg id="Layer_1" xmlns="http://www.w3.org/2000/svg" viewBox="0 0 300 600"><style>.st0{fill:#490a09}</style><path class="st0" d="M31.8 240.7H19.1v-10.3h37.2v10.3H43.6v32.1H31.8v-32.1zM60.8 228.6h11.5v15.9c2.1-2.7 5.1-5.2 9.8-5.2 7 0 11.1 4.6 11.1 12.1v21.4H81.7v-17.7c0-3.6-1.9-5.5-4.6-5.5-2.8 0-4.8 1.9-4.8 5.5v17.7H60.8v-44.2zM97.8 256.6v-.1c0-9.6 6.8-17.1 16.5-17.1 11.3 0 16.5 8.3 16.5 17.9 0 .7 0 1.6-.1 2.4h-21.9c.9 3.6 3.5 5.4 7.1 5.4 2.7 0 4.9-1 7.3-3.3l6.4 5.3c-3.2 4-7.7 6.7-14.2 6.7-10.3-.2-17.6-7-17.6-17.2zm22.3-2.8c-.4-3.6-2.5-5.9-5.7-5.9-3 0-5.1 2.4-5.7 5.9h11.4zM20.8 295.6h11.5v4.6c2.1-2.7 5.1-5.3 9.8-5.3 7 0 11.1 4.6 11.1 12.1v21.4H41.7v-17.7c0-3.6-1.9-5.5-4.6-5.5-2.8 0-4.8 1.9-4.8 5.5v17.7H20.8v-32.8zM57.8 312.1v-.1c0-9.6 6.8-17.1 16.5-17.1 11.3 0 16.5 8.3 16.5 17.9 0 .7 0 1.6-.1 2.4H68.9c.9 3.6 3.5 5.4 7.1 5.4 2.7 0 4.9-1 7.3-3.3l6.4 5.3c-3.2 4-7.7 6.7-14.2 6.7-10.4-.1-17.7-7-17.7-17.2zm22.3-2.8c-.4-3.6-2.5-5.9-5.7-5.9-3 0-5.1 2.4-5.7 5.9h11.4zM92 295.6h11.3l4.3 16.5 5-16.6h9.5l5.1 16.7 4.4-16.6h11.1l-10.1 33h-9.9l-5.3-17-5.5 17H102l-10-33z"/><g><path class="st0" d="M21.4 344.8h33.9v10.3H33.2v7.2h20.1v9.8H33.2v15.1H21.4v-42.4zM60 354.5h11.5v6.6c1.9-4.5 4.9-7.4 10.4-7.1v12h-1c-6 0-9.4 3.5-9.4 11v10.2H60v-32.7zM84 371v-.1c0-9.6 6.8-17.1 16.5-17.1 11.3 0 16.5 8.3 16.5 17.9 0 .7 0 1.6-.1 2.4H95.1c.9 3.6 3.5 5.4 7.1 5.4 2.7 0 4.9-1 7.3-3.3l6.4 5.3c-3.2 4-7.7 6.7-14.2 6.7-10.4-.2-17.7-7-17.7-17.2zm22.3-2.8c-.4-3.6-2.5-5.9-5.7-5.9-3 0-5.1 2.4-5.7 5.9h11.4zM122 354.5h11.5v4.6c2.1-2.7 5.1-5.3 9.8-5.3 7 0 11.1 4.6 11.1 12.1v21.4H143v-17.7c0-3.6-1.9-5.5-4.6-5.5-2.8 0-4.8 1.9-4.8 5.5v17.7H122v-32.8zM159.1 371v-.1c0-9.3 7.2-17.1 17.6-17.1 6.7 0 11.2 2.9 14 7.3l-7.8 5.8c-1.6-2.2-3.3-3.5-6.1-3.5-3.7 0-6.4 3.3-6.4 7.3v.1c0 4.2 2.7 7.5 6.5 7.5 2.7 0 4.5-1.3 6.3-3.4l7.7 5.6c-3 4.5-7.4 7.5-14.6 7.5-10 0-17.2-7.7-17.2-17zM194.9 343h11.5v16c2.1-2.7 5.1-5.2 9.8-5.2 7 0 11.1 4.6 11.1 12.1v21.4h-11.5v-17.7c0-3.6-1.9-5.5-4.6-5.5-2.8 0-4.8 1.9-4.8 5.5v17.7h-11.5V343z"/></g><g><path class="st0" d="M22.8 436v-13.3h-3.9v-9.3h3.9v-8.3h11.5v8.3h7.6v9.3h-7.6v11.1c0 2.3 1 3.3 3.1 3.3 1.5 0 3-.4 4.4-1.1v9c-2.1 1.2-4.8 1.9-8 1.9-6.9-.1-11-3.1-11-10.9zM46.9 401.9h11.5v15.9c2.1-2.7 5.1-5.2 9.8-5.2 7 0 11.1 4.6 11.1 12.1v21.4H67.8v-17.7c0-3.6-1.9-5.5-4.6-5.5-2.8 0-4.8 1.9-4.8 5.5v17.7H46.9v-44.2zM85.3 413.4h11.5v6.6c1.9-4.5 4.9-7.4 10.4-7.1V425h-1c-6 0-9.4 3.5-9.4 11v10.2H85.3v-32.8zM111.2 401.9h12v8.5h-12v-8.5zm.3 11.5H123v32.8h-11.5v-32.8zM129.6 401.9h11.5v44.2h-11.5v-44.2zM147.8 401.9h11.5v44.2h-11.5v-44.2zM164.4 429.9v-.1c0-9.6 6.8-17.1 16.5-17.1 11.3 0 16.5 8.3 16.5 17.9 0 .7 0 1.6-.1 2.4h-21.9c.9 3.6 3.5 5.4 7.1 5.4 2.7 0 4.9-1 7.3-3.3l6.4 5.3c-3.1 4-7.7 6.7-14.2 6.7-10.3-.2-17.6-7-17.6-17.2zm22.3-2.9c-.4-3.6-2.5-5.9-5.7-5.9-3 0-5.1 2.4-5.7 5.9h11.4zM202.4 413.4h11.5v6.6c1.9-4.5 4.9-7.4 10.4-7.1V425h-1c-6 0-9.4 3.5-9.4 11v10.2h-11.5v-32.8zM223.9 434.3h12v11.8h-12v-11.8z"/></g></svg>