<svg id="Layer_1" xmlns="http://www.w3.org/2000/svg" viewBox="0 0 300 600"><style>.st0{fill:#490a09}</style><path class="st0" d="M20.7 162.2H32v15.3h14.6v-15.3H58v41H46.6v-15.6H32.1v15.6H20.7v-41zM63.3 187.5v-.1c0-9.2 6.6-16.6 16-16.6 10.9 0 16 8 16 17.3 0 .7 0 1.5-.1 2.3H74c.9 3.5 3.4 5.2 6.8 5.2 2.6 0 4.7-1 7-3.2l6.1 5.1c-3 3.9-7.4 6.4-13.7 6.4-9.9 0-16.9-6.6-16.9-16.4zm21.5-2.8c-.4-3.5-2.5-5.7-5.5-5.7-2.9 0-4.9 2.3-5.5 5.7h11zM113.9 171.5h10.9l4.2 15.9 4.9-16h9.2l4.9 16.1 4.3-16H163l-9.8 31.9h-9.6l-5.1-16.4-5.3 16.4h-9.5l-9.8-31.9zM163.6 194.1v-.1c0-6.6 5-9.9 12.4-9.9 2.9 0 5.8.6 7.6 1.2v-.5c0-3.3-2-5.1-6.3-5.1-3.3 0-5.9.6-8.7 1.8l-2.3-7.8c3.6-1.5 7.4-2.5 12.8-2.5 5.7 0 9.5 1.3 12.1 3.9 2.4 2.3 3.4 5.6 3.4 10.1v18.2h-11v-3.3c-2.2 2.4-5.1 4-9.3 4-6.1-.2-10.7-3.7-10.7-10zm20.1-2.4v-1.5c-1.1-.5-2.7-.8-4.3-.8-3.2 0-5.1 1.6-5.1 3.9v.1c0 2.2 1.6 3.5 3.9 3.5 3.2 0 5.5-2.1 5.5-5.2zM197.8 199.2l4.2-6.7c3.6 2.4 7.6 3.6 10.9 3.6 1.9 0 2.8-.6 2.8-1.7v-.1c0-1.2-1.8-1.8-5.1-2.7-6.3-1.6-11.2-3.7-11.2-10.1v-.1c0-6.7 5.4-10.5 12.7-10.5 4.6 0 9.4 1.3 13 3.7l-3.8 7c-3.3-1.8-6.8-2.9-9.4-2.9-1.7 0-2.6.6-2.6 1.5v.1c0 1.2 1.8 1.8 5.1 2.8 6.3 1.8 11.2 3.9 11.2 10.1v.1c0 7-5.2 10.6-12.9 10.6-5.2 0-10.5-1.6-14.9-4.7z"/><g><path class="st0" d="M20.1 216h11.1v15.4c2-2.6 5-5 9.5-5 6.7 0 10.8 4.4 10.8 11.6v20.7H40.3v-17.1c0-3.5-1.8-5.3-4.4-5.3-2.7 0-4.7 1.9-4.7 5.3v17.1H20.1V216zM55.9 243v-.1c0-9.2 6.6-16.6 16-16.6 10.9 0 16 8 16 17.3 0 .7 0 1.5-.1 2.3H66.6c.9 3.5 3.4 5.2 6.8 5.2 2.6 0 4.7-1 7-3.2l6.1 5.1c-3 3.9-7.4 6.4-13.7 6.4-9.9 0-16.9-6.6-16.9-16.4zm21.5-2.8c-.4-3.5-2.5-5.7-5.5-5.7-2.9 0-4.9 2.3-5.5 5.7h11zM92.6 227h11.1v6.4c1.8-4.3 4.7-7.1 10-6.9v11.7h-.9c-5.8 0-9.1 3.3-9.1 10.6v9.8H92.6V227z"/></g><g><path class="st0" d="M20.1 271.5h11.1v15.4c2-2.6 5-5 9.5-5 6.7 0 10.8 4.4 10.8 11.6v20.7H40.3V297c0-3.5-1.8-5.3-4.4-5.3-2.7 0-4.7 1.9-4.7 5.3v17.1H20.1v-42.6zM56.9 303.2v-20.7H68v17.1c0 3.5 1.8 5.3 4.5 5.3 2.6 0 4.6-1.9 4.6-5.3v-17.1h11.1v31.6h-11v-4.3c-2 2.6-5 5-9.5 5-6.7.1-10.8-4.4-10.8-11.6zM91.9 310.2l4.2-6.7c3.6 2.4 7.6 3.6 10.9 3.6 1.9 0 2.8-.6 2.8-1.7v-.1c0-1.2-1.8-1.8-5.1-2.7-6.3-1.6-11.2-3.7-11.2-10.1v-.1c0-6.7 5.4-10.5 12.7-10.5 4.6 0 9.4 1.3 13 3.7l-3.8 7c-3.3-1.8-6.8-2.9-9.4-2.9-1.7 0-2.6.6-2.6 1.5v.1c0 1.2 1.8 1.8 5.1 2.8 6.3 1.8 11.2 3.9 11.2 10.1v.1c0 7-5.2 10.6-12.9 10.6-5.3 0-10.5-1.5-14.9-4.7zM135.4 310.3v3.9h-11.1v-42.7h11.1v15.3c2.2-2.6 4.9-4.9 9.6-4.9 7.5 0 14 6.3 14 16.4v.1c0 10.3-6.5 16.6-14 16.6-4.7-.1-7.5-2.3-9.6-4.7zm12.7-11.9v-.1c0-4.2-2.9-7.1-6.5-7.1s-6.4 3-6.4 7.1v.1c0 4.2 2.9 7.2 6.4 7.2 3.7 0 6.5-2.9 6.5-7.2zM162.3 305.1v-.1c0-6.6 5-9.9 12.4-9.9 2.9 0 5.8.6 7.6 1.2v-.5c0-3.3-2-5.1-6.3-5.1-3.3 0-5.9.6-8.7 1.8l-2.3-7.8c3.6-1.5 7.4-2.5 12.8-2.5 5.7 0 9.5 1.3 12.1 3.9 2.4 2.3 3.4 5.6 3.4 10.1v18.2h-11v-3.3c-2.2 2.4-5.1 4-9.3 4-6.1-.2-10.7-3.7-10.7-10zm20.1-2.4v-1.5c-1.1-.5-2.7-.8-4.3-.8-3.2 0-5.1 1.6-5.1 3.9v.1c0 2.2 1.6 3.5 3.9 3.5 3.2 0 5.5-2 5.5-5.2zM198.9 282.5H210v4.4c2-2.6 5-5.1 9.5-5.1 6.7 0 10.8 4.4 10.8 11.6v20.7h-11.1V297c0-3.5-1.8-5.3-4.4-5.3-2.7 0-4.7 1.9-4.7 5.3v17.1H199v-31.6zM234.8 298.5v-.1c0-10.3 6.4-16.6 13.9-16.6 4.8 0 7.6 2.2 9.7 4.6v-14.9h11.1v42.7h-11.1V310c-2.2 2.6-4.9 4.9-9.7 4.9-7.4 0-13.9-6.3-13.9-16.4zm23.8-.1v-.1c0-4.2-2.9-7.1-6.4-7.1-3.6 0-6.5 2.9-6.5 7.1v.1c0 4.2 2.9 7.2 6.5 7.2s6.4-3 6.4-7.2zM275.1 302.8h11.6v11.4h-11.6v-11.4z"/></g></svg>