<svg id="Layer_1" xmlns="http://www.w3.org/2000/svg" viewBox="0 0 300 600"><style>.st0{fill:#490a09}</style><path class="st0" d="M20.7 174.2c0-13.5 11-25.4 27.2-25.4 8.5 0 14.7 3.5 17.6 7.2l-7.9 7.6c-2.5-2.5-5.9-4.4-10.5-4.4-8.5 0-14.4 6.6-14.4 14.4 0 5.9 4.3 9 9.5 9 2.4 0 4.2-.5 5.6-1.2l1.7-5.7h-8.2l2.2-8.6h19.4L57 188.7c-4.2 2.4-9.6 4.2-15.9 4.2-10.1 0-20.4-5.7-20.4-18.7zM74.7 147.9h11.5l-11.9 44.2H62.8l11.9-44.2zM83.9 177.6c0-9.9 8.3-19 19.3-19 10.1 0 16.1 6.6 16.1 15.2 0 9.9-8.3 19.1-19.3 19.1-10 0-16.1-6.6-16.1-15.3zm24.3-3.4c0-3.7-2.3-6.1-5.7-6.1-4.5 0-7.6 4.8-7.6 9 0 3.8 2.3 6.1 5.7 6.1 4.6.1 7.6-4.7 7.6-9zM128.6 159.3h11.5l-1.8 6.6c3.1-4.7 7-7.5 12.3-7.1l-3.3 12.1h-1c-6.3 0-10.4 3.5-12.4 11.3l-2.7 9.9h-11.5l8.9-32.8zM154.9 159.3h11.5l-8.8 32.8h-11.5l8.8-32.8zm2.9-11.4h12l-2.3 8.5h-12l2.3-8.5zM165.4 183.9c0-7.2 5.8-11.6 14.4-11.6 3 0 5.7.5 8.3 1.3l.1-.4c.1-.5.3-1.2.3-2 0-2.1-1.6-3.5-5.6-3.5-3.1 0-6.5.7-8.8 1.6l-1.6-8.4c3.5-1.2 8.2-2 12.9-2 9.8 0 14.6 3.9 14.6 10.4 0 1.5-.2 3.1-.7 4.7l-4.8 18.1h-11.3l.9-3.5c-2.8 2.6-5.6 4.2-9.5 4.2-5.4 0-9.2-3.5-9.2-8.9zm21.2-4.2l.3-1.1c-1.3-.4-2.7-.7-4.3-.7-3.6 0-6 1.8-6 4.7 0 1.9 1.3 3 3.3 3 3 .1 5.8-2.5 6.7-5.9z"/><g><path class="st0" d="M204.1 180.3h12v11.8h-12v-11.8z"/></g></svg>