<svg id="Layer_1" xmlns="http://www.w3.org/2000/svg" viewBox="0 0 728 90"><style>.st0{fill:#490a09}</style><path class="st0" d="M77.8 57.4h-9v-7.3h26.4v7.3h-9v22.8h-8.3V57.4zM98.3 48.8h8.2v11.3c1.5-1.9 3.7-3.7 7-3.7 4.9 0 7.9 3.3 7.9 8.6v15.2h-8.2V67.6c0-2.5-1.3-3.9-3.3-3.9-2 0-3.4 1.4-3.4 3.9v12.6h-8.2V48.8zM124.6 68.7c0-6.9 4.9-12.3 11.7-12.3 8 0 11.7 5.9 11.7 12.7v1.7h-15.6c.6 2.5 2.5 3.8 5 3.8 1.9 0 3.5-.7 5.2-2.4l4.5 3.7c-2.2 2.8-5.5 4.7-10.1 4.7-7.2.2-12.4-4.7-12.4-11.9zm15.8-2c-.3-2.6-1.8-4.2-4-4.2-2.1 0-3.6 1.7-4 4.2h8zM163.5 57h8.2v3.3c1.5-1.9 3.7-3.8 7-3.8 4.9 0 7.9 3.3 7.9 8.6v15.2h-8.2V67.6c0-2.5-1.3-3.9-3.3-3.9-2 0-3.4 1.4-3.4 3.9v12.6h-8.2V57zM189.8 68.7c0-6.9 4.9-12.3 11.7-12.3 8 0 11.7 5.9 11.7 12.7v1.7h-15.6c.6 2.5 2.5 3.8 5 3.8 1.9 0 3.5-.7 5.2-2.4l4.5 3.7c-2.2 2.8-5.5 4.7-10.1 4.7-7.2.2-12.4-4.7-12.4-11.9zm15.8-2c-.3-2.6-1.8-4.2-4-4.2-2.1 0-3.6 1.7-4 4.2h8zM214.1 57h8l3.1 11.7 3.6-11.8h6.8l3.6 11.9 3.1-11.8h7.9L243 80.4h-7.1L232 68.3l-3.9 12.1h-7l-7-23.4zM265.1 50.1h24.1v7.3h-15.7v5.1h14.2v6.9h-14.2v10.8h-8.3V50.1zM292.5 57h8.2v4.7c1.3-3.2 3.5-5.2 7.4-5.1v8.6h-.7c-4.3 0-6.7 2.5-6.7 7.8v7.2h-8.2V57zM309.6 68.7c0-6.9 4.9-12.3 11.7-12.3 8 0 11.7 5.9 11.7 12.7v1.7h-15.6c.6 2.5 2.5 3.8 5 3.8 1.9 0 3.5-.7 5.2-2.4l4.5 3.7c-2.2 2.8-5.5 4.7-10.1 4.7-7.2.2-12.4-4.7-12.4-11.9zm15.8-2c-.3-2.6-1.8-4.2-4-4.2-2.1 0-3.6 1.7-4 4.2h8zM336.6 57h8.2v3.3c1.5-1.9 3.7-3.8 7-3.8 4.9 0 7.9 3.3 7.9 8.6v15.2h-8.2V67.6c0-2.5-1.3-3.9-3.3-3.9-2 0-3.4 1.4-3.4 3.9v12.6h-8.2V57zM362.9 68.7c0-6.7 5.1-12.2 12.5-12.2 4.8 0 8 2.1 9.9 5.2l-5.5 4.1c-1.1-1.5-2.4-2.5-4.3-2.5-2.6 0-4.6 2.3-4.6 5.2v.1c0 3 1.9 5.3 4.6 5.3 1.9 0 3.2-.9 4.5-2.4l5.5 4c-2.1 3.2-5.2 5.3-10.4 5.3-7.1 0-12.2-5.5-12.2-12.1zM388.3 48.8h8.2v11.3c1.5-1.9 3.7-3.7 7-3.7 4.9 0 7.9 3.3 7.9 8.6v15.2h-8.2V67.6c0-2.5-1.3-3.9-3.3-3.9-2 0-3.4 1.4-3.4 3.9v12.6h-8.2V48.8zM428.9 73v-9.5h-2.8V57h2.8v-5.9h8.2V57h5.4v6.6h-5.4v7.9c0 1.6.7 2.3 2.2 2.3 1.1 0 2.1-.3 3.1-.8v6.4c-1.5.8-3.4 1.3-5.7 1.3-4.9 0-7.8-2.2-7.8-7.7zM446 48.8h8.2v11.3c1.5-1.9 3.7-3.7 7-3.7 4.9 0 7.9 3.3 7.9 8.6v15.2h-8.2V67.6c0-2.5-1.3-3.9-3.3-3.9-2 0-3.4 1.4-3.4 3.9v12.6H446V48.8zM473.3 57h8.2v4.7c1.3-3.2 3.5-5.2 7.4-5.1v8.6h-.7c-4.3 0-6.7 2.5-6.7 7.8v7.2h-8.2V57zM491.7 48.8h8.5v6h-8.5v-6zm.1 8.2h8.2v23.3h-8.2V57zM504.7 48.8h8.2v31.4h-8.2V48.8zM517.6 48.8h8.2v31.4h-8.2V48.8zM529.4 68.7c0-6.9 4.9-12.3 11.7-12.3 8 0 11.7 5.9 11.7 12.7v1.7h-15.6c.6 2.5 2.5 3.8 5 3.8 1.9 0 3.5-.7 5.2-2.4l4.5 3.7c-2.2 2.8-5.5 4.7-10.1 4.7-7.2.2-12.4-4.7-12.4-11.9zm15.8-2c-.3-2.6-1.8-4.2-4-4.2-2.1 0-3.6 1.7-4 4.2h8zM556.4 57h8.2v4.7c1.3-3.2 3.5-5.2 7.4-5.1v8.6h-.7c-4.3 0-6.7 2.5-6.7 7.8v7.2h-8.2V57zM571.7 71.8h8.5v8.4h-8.5v-8.4z"/></svg>