<svg id="Layer_1" xmlns="http://www.w3.org/2000/svg" viewBox="0 0 728 90"><style>.st0{fill:#490a09}</style><path class="st0" d="M69.1 29.5c0-9.6 7.8-18 19.3-18 6 0 10.4 2.5 12.5 5.1L95.3 22c-1.8-1.8-4.2-3.1-7.4-3.1-6.1 0-10.2 4.7-10.2 10.2 0 4.2 3.1 6.4 6.8 6.4 1.7 0 3-.3 4-.8l1.2-4h-5.8l1.6-6.1h13.8L95 39.8c-3 1.7-6.8 3-11.3 3-7.2 0-14.6-4-14.6-13.3zM107.5 10.8h8.2l-8.4 31.4H99l8.5-31.4zM114 31.9c0-7 5.9-13.5 13.7-13.5 7.1 0 11.4 4.7 11.4 10.8 0 7.1-5.9 13.5-13.7 13.5-7.1.1-11.4-4.6-11.4-10.8zm17.3-2.4c0-2.6-1.6-4.3-4-4.3-3.2 0-5.4 3.4-5.4 6.4 0 2.7 1.6 4.3 4 4.3 3.2.1 5.4-3.3 5.4-6.4zM145.7 18.9h8.2l-1.2 4.7c2.2-3.3 4.9-5.3 8.7-5.1l-2.3 8.6h-.7c-4.5 0-7.4 2.5-8.8 8l-1.9 7h-8.2l6.2-23.2zM164.4 18.9h8.2l-6.2 23.3h-8.2l6.2-23.3zm2.1-8.1h8.5l-1.6 6h-8.5l1.6-6zM171.9 36.4c0-5.1 4.1-8.2 10.2-8.2 2.1 0 4 .3 5.9.9l.1-.3c.1-.4.2-.9.2-1.4 0-1.5-1.2-2.5-4-2.5-2.2 0-4.6.5-6.3 1.2l-1.2-5.9c2.5-.9 5.8-1.4 9.2-1.4 7 0 10.4 2.8 10.4 7.4 0 1.1-.2 2.2-.5 3.4l-3.4 12.8h-8l.6-2.5c-2 1.8-4 3-6.7 3-3.9-.2-6.5-2.7-6.5-6.5zm15-3l.2-.8c-.9-.3-1.9-.5-3.1-.5-2.6 0-4.3 1.2-4.3 3.4 0 1.3.9 2.1 2.3 2.1 2.3.1 4.3-1.8 4.9-4.2z"/><g><path class="st0" d="M199.4 33.8h8.5v8.4h-8.5v-8.4z"/></g></svg>