<svg id="Layer_1" xmlns="http://www.w3.org/2000/svg" viewBox="0 0 728 90"><style>.st0{fill:#490a09}</style><path class="st0" d="M68.6 20.4H77v11.3h10.7V20.4H96v30.1h-8.3V39H77v11.4h-8.3v-30zM99.9 38.9c0-6.9 4.9-12.3 11.7-12.3 8 0 11.7 5.9 11.7 12.7V41h-15.6c.6 2.5 2.5 3.8 5 3.8 1.9 0 3.5-.7 5.2-2.4l4.5 3.7c-2.2 2.8-5.5 4.7-10.1 4.7-7.2.2-12.4-4.6-12.4-11.9zm15.8-2c-.3-2.6-1.8-4.2-4-4.2-2.1 0-3.6 1.7-4 4.2h8zM137.1 27.2h8l3.1 11.7 3.6-11.8h6.8l3.6 11.9 3.1-11.8h7.9L166 50.6h-7.1l-3.8-12.1-3.9 12.1h-7l-7.1-23.4zM173.6 43.8c0-4.9 3.7-7.4 9.1-7.4 2.1 0 4.3.4 5.6.9v-.4c0-2.4-1.5-3.8-4.6-3.8-2.5 0-4.3.5-6.4 1.3l-1.7-5.8c2.6-1.1 5.4-1.8 9.4-1.8 4.2 0 7 1 8.9 2.8 1.8 1.7 2.5 4.1 2.5 7.4v13.4h-8.1V48c-1.6 1.8-3.8 2.9-6.8 2.9-4.5.1-7.9-2.5-7.9-7.1zm14.8-1.8v-1c-.8-.3-2-.6-3.2-.6-2.4 0-3.7 1.2-3.7 2.9v.1c0 1.6 1.2 2.5 2.9 2.5 2.3 0 4-1.6 4-3.9zM198.8 47.5l3.1-4.9c2.7 1.8 5.6 2.7 8 2.7 1.4 0 2.1-.4 2.1-1.2V44c0-.9-1.3-1.3-3.7-2-4.6-1.2-8.3-2.8-8.3-7.4v-.1c0-4.9 4-7.7 9.3-7.7 3.4 0 6.9 1 9.6 2.7l-2.8 5.2c-2.4-1.3-5-2.1-6.9-2.1-1.2 0-1.9.5-1.9 1.1v.1c0 .9 1.3 1.3 3.8 2.1 4.6 1.3 8.3 2.9 8.3 7.4v.1c0 5.1-3.8 7.8-9.5 7.8-4-.2-7.9-1.3-11.1-3.7zM234.6 19.1h8.2v11.3c1.5-1.9 3.7-3.7 7-3.7 4.9 0 7.9 3.3 7.9 8.6v15.2h-8.2V37.9c0-2.5-1.3-3.9-3.3-3.9-2 0-3.4 1.4-3.4 3.9v12.6h-8.2V19.1zM260.9 38.9c0-6.9 4.9-12.3 11.7-12.3 8 0 11.7 5.9 11.7 12.7V41h-15.6c.6 2.5 2.5 3.8 5 3.8 1.9 0 3.5-.7 5.2-2.4l4.5 3.7c-2.2 2.8-5.5 4.7-10.1 4.7-7.3.2-12.4-4.6-12.4-11.9zm15.8-2c-.3-2.6-1.8-4.2-4-4.2-2.1 0-3.6 1.7-4 4.2h8zM287.8 27.2h8.2v4.7c1.3-3.2 3.5-5.2 7.4-5.1v8.6h-.7c-4.3 0-6.7 2.5-6.7 7.8v7.2h-8.2V27.2zM318.1 19.1h8.2v11.3c1.5-1.9 3.7-3.7 7-3.7 4.9 0 7.9 3.3 7.9 8.6v15.2H333V37.9c0-2.5-1.3-3.9-3.3-3.9-2 0-3.4 1.4-3.4 3.9v12.6h-8.2V19.1zM345.2 42.4V27.2h8.2v12.6c0 2.5 1.3 3.9 3.3 3.9 1.9 0 3.4-1.4 3.4-3.9V27.2h8.2v23.3h-8.2v-3.2c-1.5 1.9-3.7 3.7-7 3.7-4.9 0-7.9-3.3-7.9-8.6zM370.9 47.5l3.1-4.9c2.7 1.8 5.6 2.7 8 2.7 1.4 0 2.1-.4 2.1-1.2V44c0-.9-1.3-1.3-3.7-2-4.6-1.2-8.3-2.8-8.3-7.4v-.1c0-4.9 4-7.7 9.3-7.7 3.4 0 6.9 1 9.6 2.7l-2.8 5.2c-2.4-1.3-5-2.1-6.9-2.1-1.2 0-1.9.5-1.9 1.1v.1c0 .9 1.3 1.3 3.8 2.1 4.6 1.3 8.3 2.9 8.3 7.4v.1c0 5.1-3.8 7.8-9.5 7.8-4-.2-7.9-1.3-11.1-3.7zM402.9 47.6v2.8h-8.2V19.1h8.2v11.2c1.6-1.9 3.6-3.6 7.1-3.6 5.5 0 10.3 4.6 10.3 12v.1c0 7.6-4.8 12.2-10.3 12.2-3.5 0-5.6-1.6-7.1-3.4zm9.4-8.8c0-3.1-2.1-5.3-4.8-5.3-2.6 0-4.7 2.2-4.7 5.2v.1c0 3.1 2.1 5.3 4.7 5.3 2.7 0 4.8-2.1 4.8-5.3zM422.7 43.8c0-4.9 3.7-7.4 9.1-7.4 2.2 0 4.3.4 5.6.9v-.4c0-2.4-1.5-3.8-4.6-3.8-2.5 0-4.3.5-6.4 1.3l-1.7-5.8c2.6-1.1 5.4-1.8 9.4-1.8 4.2 0 7 1 8.9 2.8 1.8 1.7 2.5 4.1 2.5 7.4v13.4h-8.1V48c-1.6 1.8-3.8 2.9-6.8 2.9-4.5.1-7.9-2.5-7.9-7.1zm14.8-1.8v-1c-.8-.3-2-.6-3.2-.6-2.4 0-3.7 1.2-3.7 2.9v.1c0 1.6 1.2 2.5 2.9 2.5 2.3 0 4-1.6 4-3.9zM449.6 27.2h8.2v3.3c1.5-1.9 3.7-3.8 7-3.8 4.9 0 7.9 3.3 7.9 8.6v15.2h-8.2V37.9c0-2.5-1.3-3.9-3.3-3.9-2 0-3.4 1.4-3.4 3.9v12.6h-8.2V27.2zM476 38.9c0-7.7 4.7-12.3 10.2-12.3 3.5 0 5.6 1.6 7.1 3.4V19h8.2v31.4h-8.2v-3.1c-1.6 1.9-3.6 3.6-7.1 3.6-5.4.1-10.2-4.5-10.2-12zm17.5-.1c0-3.1-2.1-5.3-4.7-5.3s-4.8 2.1-4.8 5.2v.1c0 3.1 2.1 5.3 4.8 5.3s4.7-2.2 4.7-5.3zM505.6 42.1h8.5v8.4h-8.5v-8.4z"/></svg>