<svg id="Layer_1" xmlns="http://www.w3.org/2000/svg" viewBox="0 0 300 250"><style>.st0{fill:#461211}</style><path class="st0" d="M30 88.3h7.7l12.2 28.9h-8.5l-2.1-5.1H28.2l-2.1 5.1h-8.4L30 88.3zm7 17.6l-3.2-8.2-3.2 8.2H37zM71.4 114.5v2.7h-7.8V87.3h7.8V98c1.5-1.8 3.4-3.4 6.7-3.4 5.3 0 9.8 4.4 9.8 11.5v.1c0 7.2-4.6 11.6-9.8 11.6-3.3-.1-5.3-1.6-6.7-3.3zm8.9-8.4c0-3-2-5.1-4.6-5.1-2.5 0-4.5 2.1-4.5 5v.1c0 3 2 5 4.5 5 2.6.1 4.6-2 4.6-5zM91.3 95h7.8v4.5c1.3-3 3.3-5 7-4.8v8.2h-.7c-4.1 0-6.4 2.3-6.4 7.5v6.9h-7.8V95zM108.9 87.3h8.1V93h-8.1v-5.7zm.1 7.7h7.8v22.2H109V95zM121.3 87.3h7.8v29.9h-7.8V87.3zM133.6 87.3h7.8v29.9h-7.8V87.3zM145.8 87.3h8.1V93h-8.1v-5.7zm.1 7.7h7.8v22.2h-7.8V95zM157 110.9c0-4.7 3.5-7.1 8.7-7.1 2.1 0 4.1.4 5.3.9v-.4c0-2.3-1.4-3.6-4.4-3.6-2.3 0-4.1.5-6.1 1.2l-1.6-5.5c2.5-1 5.2-1.7 9-1.7 4 0 6.7.9 8.4 2.7 1.7 1.6 2.4 3.9 2.4 7.1v12.8H171V115c-1.5 1.7-3.6 2.8-6.5 2.8-4.3-.1-7.5-2.5-7.5-6.9zm14.1-1.7v-1c-.8-.3-1.9-.6-3-.6-2.3 0-3.6 1.1-3.6 2.7v.1c0 1.5 1.1 2.4 2.7 2.4 2.3 0 3.9-1.4 3.9-3.6zM182.6 95h7.8v3.1c1.4-1.8 3.5-3.6 6.6-3.6 4.7 0 7.5 3.1 7.5 8.2v14.5h-7.8v-12c0-2.4-1.3-3.7-3.1-3.7-1.9 0-3.3 1.3-3.3 3.7v12h-7.8V95zM210 110.3v-9h-2.6V95h2.6v-5.6h7.8V95h5.2v6.3h-5.2v7.5c0 1.6.7 2.2 2.1 2.2 1 0 2-.3 3-.7v6.1c-1.4.8-3.2 1.3-5.4 1.3-4.7 0-7.5-2.1-7.5-7.4zM226.5 87.3h7.8v29.9h-7.8V87.3zM238 122l2.4-5.5c1.2.7 2.5 1.2 3.4 1.2.8 0 1.3-.2 1.8-.9L237 95h8.2l4.4 13.4 4.2-13.4h8l-8.1 21.7c-1.9 5.2-4 7.2-8.4 7.2-2.9 0-5.2-.8-7.3-1.9z"/><g><path class="st0" d="M21 137.2h-2.6v-6.1H21v-.5c0-2.5.6-4.4 1.9-5.7 1.4-1.4 3.2-1.9 5.8-1.9 2.4 0 3.9.2 5.1.6v5.5c-.9-.3-1.8-.5-2.9-.5-1.4 0-2.2.7-2.2 2.1v.5h5.1v6h-5v16H21v-16zM36 145.5V131h7.8v12c0 2.4 1.3 3.7 3.2 3.7 1.8 0 3.2-1.3 3.2-3.7v-12H58v22.2h-7.8v-3c-1.4 1.8-3.5 3.5-6.6 3.5-4.7-.1-7.6-3.2-7.6-8.2zM62.2 131H70v3.1c1.4-1.8 3.5-3.6 6.6-3.6 4.7 0 7.5 3.1 7.5 8.2v14.5h-7.8v-12c0-2.4-1.3-3.7-3.1-3.7-1.9 0-3.3 1.3-3.3 3.7v12h-7.8V131zM88.2 131H96v3.1c1.4-1.8 3.5-3.6 6.6-3.6 4.7 0 7.5 3.1 7.5 8.2v14.5h-7.8v-12c0-2.4-1.3-3.7-3.1-3.7-1.9 0-3.3 1.3-3.3 3.7v12h-7.8V131zM113.1 157.9l2.4-5.5c1.2.7 2.5 1.2 3.4 1.2.8 0 1.3-.2 1.8-.9L112 131h8.2l4.4 13.4 4.2-13.4h8l-8.1 21.7c-1.9 5.2-4 7.2-8.4 7.2-2.9-.1-5.2-.8-7.2-2z"/></g><g><path class="st0" d="M19.4 166.9h7.8v3c1.5-1.8 3.4-3.4 6.7-3.4 5.3 0 9.8 4.4 9.8 11.5v.1c0 7.2-4.6 11.6-9.8 11.6-3.4 0-5.3-1.5-6.8-3.2v9.3h-7.8v-28.9zM36.1 178c0-3-2-5.1-4.6-5.1-2.5 0-4.5 2.1-4.5 5v.1c0 3 2 5 4.5 5 2.6 0 4.6-2 4.6-5zM47.1 166.9h7.8v4.5c1.3-3 3.3-5 7-4.8v8.2h-.7c-4.1 0-6.4 2.3-6.4 7.5v6.9H47v-22.3zM63.4 178.1c0-6.4 5.2-11.7 12.3-11.7 7.1 0 12.2 5.2 12.2 11.5v.1c0 6.3-5.2 11.6-12.3 11.6-7.1 0-12.2-5.2-12.2-11.5zm16.9 0c0-2.8-2-5.1-4.7-5.1-2.8 0-4.6 2.3-4.6 4.9v.1c0 2.7 2 5 4.7 5 2.8 0 4.6-2.3 4.6-4.9zM89.4 186.3l2.9-4.7c2.5 1.7 5.3 2.5 7.6 2.5 1.4 0 2-.4 2-1.2v-.1c0-.9-1.2-1.2-3.6-1.9-4.4-1.1-7.9-2.6-7.9-7.1v-.1c0-4.7 3.8-7.3 8.9-7.3 3.2 0 6.6.9 9.1 2.6l-2.7 4.9c-2.3-1.3-4.8-2.1-6.6-2.1-1.2 0-1.8.5-1.8 1.1v.1c0 .9 1.3 1.3 3.6 2 4.4 1.2 7.9 2.7 7.9 7.1v.1c0 4.9-3.7 7.4-9.1 7.4-3.5 0-7.2-1.1-10.3-3.3zM111.3 178.1c0-6.6 4.6-11.7 11.2-11.7 7.7 0 11.2 5.6 11.2 12.1v1.6h-14.8c.6 2.4 2.4 3.7 4.8 3.7 1.8 0 3.3-.7 4.9-2.3l4.3 3.6c-2.1 2.7-5.2 4.5-9.6 4.5-7.1 0-12-4.6-12-11.5zm15.1-1.9c-.3-2.5-1.7-4-3.9-4-2.1 0-3.4 1.6-3.9 4h7.8zM136.1 178.1c0-6.4 4.9-11.6 11.9-11.6 4.6 0 7.6 2 9.5 5l-5.3 3.9c-1.1-1.5-2.3-2.3-4.1-2.3-2.5 0-4.3 2.2-4.3 4.9v.1c0 2.9 1.8 5 4.4 5 1.8 0 3-.9 4.3-2.3l5.2 3.8c-2.1 3-5 5.1-9.9 5.1-6.8-.1-11.7-5.3-11.7-11.6zM160.2 181.4v-14.5h7.8v12c0 2.4 1.3 3.7 3.2 3.7 1.8 0 3.2-1.3 3.2-3.7v-12h7.8v22.2h-7.8v-3c-1.4 1.8-3.5 3.5-6.6 3.5-4.8 0-7.6-3.2-7.6-8.2zM187.7 182.2v-9h-2.6v-6.3h2.6v-5.6h7.8v5.6h5.2v6.3h-5.2v7.5c0 1.6.7 2.2 2.1 2.2 1 0 2-.3 3-.7v6.1c-1.4.8-3.2 1.3-5.4 1.3-4.7-.1-7.5-2.1-7.5-7.4zM202.5 178.1c0-6.4 5.2-11.7 12.3-11.7 7.1 0 12.2 5.2 12.2 11.5v.1c0 6.3-5.2 11.6-12.3 11.6-7 0-12.2-5.2-12.2-11.5zm17 0c0-2.8-2-5.1-4.7-5.1-2.8 0-4.6 2.3-4.6 4.9v.1c0 2.7 2 5 4.7 5 2.8 0 4.6-2.3 4.6-4.9zM230.3 166.9h7.8v4.5c1.3-3 3.3-5 7-4.8v8.2h-.7c-4.1 0-6.4 2.3-6.4 7.5v6.9h-7.8v-22.3zM244.9 181.1h8.1v8h-8.1v-8z"/></g></svg>