<svg id="Layer_1" xmlns="http://www.w3.org/2000/svg" viewBox="0 0 300 250"><style>.st0{fill:#461211}</style><path class="st0" d="M22.5 76.8h6.3l-6.1 22.8h-6.3l6.1-22.8zM31.3 82h6.2l-.5 2c1.2-1.2 2.8-2.3 4.9-2.3 2.4 0 3.9 1.2 4.6 3.1 1.7-1.9 3.8-3.1 6.4-3.1 3.4 0 5.2 2 5.2 5.3 0 .9-.2 2.1-.5 3.2L55 99.6h-6.2l2.4-9.2c.1-.5.2-1 .2-1.4 0-1.2-.6-1.9-1.9-1.9-1.7 0-2.7 1.2-3.2 3.2l-2.5 9.3h-6.2l2.5-9.2c.1-.5.2-1 .2-1.4 0-1.2-.6-1.9-1.9-1.9-1.7 0-2.7 1.2-3.2 3.2l-2.5 9.3h-6.2L31.3 82zM62.9 82h6.2l-.5 2c1.2-1.2 2.8-2.3 4.9-2.3 2.4 0 3.9 1.2 4.6 3.1 1.7-1.9 3.8-3.1 6.4-3.1 3.4 0 5.2 2 5.2 5.3 0 .9-.2 2.1-.5 3.2l-2.6 9.6h-6.2l2.4-9.2c.1-.5.2-1 .2-1.4 0-1.2-.6-1.9-1.9-1.9-1.7 0-2.7 1.2-3.2 3.2l-2.5 9.3h-6.2l2.5-9.2c.1-.5.2-1 .2-1.4 0-1.2-.6-1.9-1.9-1.9-1.7 0-2.7 1.2-3.2 3.2l-2.5 9.3h-6.2L62.9 82zM90.4 95.2c0-3.9 3.1-6.2 7.8-6.2 1.6 0 3.1.3 4.5.7l.1-.2c.1-.3.2-.7.2-1.1 0-1.1-.9-1.9-3-1.9-1.7 0-3.5.4-4.8.9l-.9-4.5c1.9-.7 4.4-1.1 6.9-1.1 5.3 0 7.9 2.1 7.9 5.6 0 .8-.1 1.7-.4 2.5l-2.6 9.7H100l.5-1.9c-1.5 1.4-3 2.3-5.1 2.3-2.9 0-5-1.9-5-4.8zm11.5-2.3l.2-.6c-.7-.2-1.5-.4-2.3-.4-2 0-3.2.9-3.2 2.5 0 1 .7 1.6 1.8 1.6 1.4.1 3-1.3 3.5-3.1zM128.5 82.3h-6.9l1.5-5.5h20l-1.5 5.5h-6.9l-4.6 17.3h-6.4l4.8-17.3zM138.2 95.2c0-3.9 3.1-6.2 7.8-6.2 1.6 0 3.1.3 4.5.7l.1-.2c.1-.3.2-.7.2-1.1 0-1.1-.9-1.9-3-1.9-1.7 0-3.5.4-4.8.9l-.9-4.5c1.9-.7 4.4-1.1 6.9-1.1 5.3 0 7.9 2.1 7.9 5.6 0 .8-.1 1.7-.4 2.5l-2.6 9.7h-6.1l.5-1.9c-1.5 1.4-3 2.3-5.1 2.3-2.9 0-5-1.9-5-4.8zm11.5-2.3l.2-.6c-.7-.2-1.5-.4-2.3-.4-2 0-3.2.9-3.2 2.5 0 1 .7 1.6 1.8 1.6 1.4.1 3-1.3 3.5-3.1zM159.1 95.8c0-.7.1-1.5.3-2.3l1.8-6.5h-2.1l1.3-5h2.1l1.2-4.5h6.2l-1.2 4.5h4.1l-1.3 5h-4.1l-1.5 5.5c-.1.4-.2.8-.2 1.1 0 .7.4 1.1 1.4 1.1.7 0 1.4-.2 2.3-.5l-1.4 5.2c-1.1.4-2.4.6-3.7.6-3.4 0-5.2-1.6-5.2-4.2zM171.6 95.2c0-3.9 3.1-6.2 7.8-6.2 1.6 0 3.1.3 4.5.7l.1-.2c.1-.3.2-.7.2-1.1 0-1.1-.9-1.9-3-1.9-1.7 0-3.5.4-4.8.9l-.9-4.5c1.9-.7 4.4-1.1 6.9-1.1 5.3 0 7.9 2.1 7.9 5.6 0 .8-.1 1.7-.4 2.5l-2.6 9.7h-6.1l.5-1.9c-1.5 1.4-3 2.3-5.1 2.3-3 0-5-1.9-5-4.8zm11.4-2.3l.2-.6c-.7-.2-1.5-.4-2.3-.4-2 0-3.2.9-3.2 2.5 0 1 .7 1.6 1.8 1.6 1.4.1 3-1.3 3.5-3.1zM195 82h6.2l-.9 3.6c1.7-2.5 3.8-4 6.6-3.8l-1.8 6.5h-.5c-3.4 0-5.6 1.9-6.7 6.1l-1.4 5.3h-6.2L195 82zM204.5 95.2c0-3.9 3.1-6.2 7.8-6.2 1.6 0 3.1.3 4.5.7l.1-.2c.1-.3.2-.7.2-1.1 0-1.1-.9-1.9-3-1.9-1.7 0-3.5.4-4.8.9l-.9-4.5c1.9-.7 4.4-1.1 6.9-1.1 5.3 0 7.9 2.1 7.9 5.6 0 .8-.1 1.7-.4 2.5l-2.6 9.7h-6.1l.5-1.9c-1.5 1.4-3 2.3-5.1 2.3-2.9 0-5-1.9-5-4.8zm11.5-2.3l.2-.6c-.7-.2-1.5-.4-2.3-.4-2 0-3.2.9-3.2 2.5 0 1 .7 1.6 1.8 1.6 1.4.1 3-1.3 3.5-3.1zM228 82h6.2l-.6 2c1.2-1.3 3-2.4 5.1-2.4 3.2 0 5.1 2 5.1 5.3 0 .9-.2 2.1-.5 3.2l-2.5 9.6h-6.2l2.5-9.2c.1-.5.2-1 .2-1.4 0-1.2-.7-1.9-2-1.9-1.7 0-2.7 1.2-3.3 3.2l-2.5 9.3h-6.2L228 82zM248.6 82h6.2l-.6 2c1.2-1.3 3-2.4 5.1-2.4 3.2 0 5.1 2 5.1 5.3 0 .9-.2 2.1-.5 3.2l-2.5 9.6h-6.2l2.5-9.2c.1-.5.2-1 .2-1.4 0-1.2-.7-1.9-2-1.9-1.7 0-2.7 1.2-3.3 3.2l-2.5 9.3h-6.2l4.7-17.7zM269.3 82h6.2l-4.7 17.6h-6.2l4.7-17.6zm1.5-6.2h6.5l-1.2 4.6h-6.5l1.2-4.6z"/><g><path class="st0" d="M276.2 93.2h6.5v6.4h-6.5v-6.4z"/></g></svg>