<svg id="Layer_1" xmlns="http://www.w3.org/2000/svg" viewBox="0 0 300 250"><style>.st0{fill:#461211}</style><path class="st0" d="M16.9 139.6l3.5-4.2c2.3 1.8 4.8 2.7 7.4 2.7 1.7 0 2.6-.6 2.6-1.6v-.1c0-.9-.8-1.5-3.8-2.2-4.9-1.1-8.6-2.5-8.6-7.2v-.1c0-4.2 3.4-7.3 8.8-7.3 3.9 0 6.9 1 9.4 3l-3.2 4.5c-2.1-1.5-4.4-2.3-6.4-2.3-1.5 0-2.3.7-2.3 1.5v.1c0 1 .8 1.5 3.9 2.2 5.3 1.1 8.5 2.8 8.5 7.1v.1c0 4.7-3.7 7.4-9.2 7.4-3.9.2-7.8-1.1-10.6-3.6zM38.9 134.3c0-5.2 3.7-9.3 8.9-9.3 6.1 0 8.9 4.5 8.9 9.7v1.3H44.8c.5 1.9 1.9 2.9 3.8 2.9 1.5 0 2.6-.6 3.9-1.8l3.4 2.8c-1.7 2.2-4.1 3.6-7.7 3.6-5.4-.1-9.3-3.7-9.3-9.2zm12-1.6c-.2-2-1.4-3.2-3.1-3.2-1.6 0-2.7 1.3-3.1 3.2h6.2zM58.4 138c0-3.7 2.8-5.6 6.9-5.6 1.6 0 3.2.3 4.2.7v-.3c0-1.8-1.1-2.9-3.5-2.9-1.9 0-3.3.4-4.9 1l-1.3-4.4c2-.8 4.1-1.4 7.1-1.4 3.2 0 5.3.8 6.7 2.2 1.3 1.3 1.9 3.1 1.9 5.6V143h-6.1v-1.8c-1.2 1.3-2.9 2.2-5.2 2.2-3.2 0-5.8-1.9-5.8-5.4zm11.3-1.4v-.8c-.6-.3-1.5-.5-2.4-.5-1.8 0-2.8.9-2.8 2.2v.1c0 1.2.9 1.9 2.2 1.9 1.7 0 3-1.1 3-2.9zM77.5 140.8l2.3-3.8c2 1.3 4.2 2 6.1 2 1.1 0 1.6-.3 1.6-.9v-.1c0-.7-1-1-2.8-1.5-3.5-.9-6.3-2.1-6.3-5.6v-.1c0-3.8 3-5.8 7.1-5.8 2.6 0 5.3.8 7.3 2.1l-2.1 3.9c-1.8-1-3.8-1.6-5.2-1.6-.9 0-1.4.4-1.4.8v.1c0 .7 1 1 2.9 1.6 3.5 1 6.3 2.2 6.3 5.6v.1c0 3.9-2.9 5.9-7.2 5.9-3.2-.1-6.1-.9-8.6-2.7zM94.9 134.3c0-5.1 4.1-9.3 9.8-9.3 5.6 0 9.7 4.1 9.7 9.2v.1c0 5-4.1 9.2-9.8 9.2-5.6-.1-9.7-4.2-9.7-9.2zm13.5 0c0-2.2-1.6-4-3.8-4-2.3 0-3.7 1.8-3.7 3.9v.1c0 2.2 1.6 4 3.8 4 2.2-.1 3.7-1.9 3.7-4zM117 125.4h6.2v2.5c1.1-1.5 2.8-2.9 5.3-2.9 3.8 0 6 2.5 6 6.5V143h-6.2v-9.6c0-1.9-1-3-2.5-3s-2.6 1-2.6 3v9.6H117v-17.6zM150.4 125.9l-3.8.9-1.2-4.9 6.7-1.9h4.6v23h-6.2v-17.1zM170.7 130.3h-2.1v-4.9h2.1v-.4c0-2 .5-3.5 1.5-4.6 1.1-1.1 2.5-1.5 4.6-1.5 1.9 0 3.1.2 4 .5v4.4c-.7-.2-1.4-.4-2.3-.4-1.1 0-1.8.5-1.8 1.7v.4h4v4.8h-3.9V143h-6.2v-12.7zM182.7 125.4h6.2v3.6c1-2.4 2.6-4 5.6-3.8v6.5h-.5c-3.2 0-5.1 1.9-5.1 5.9v5.5h-6.2v-17.7zM195.7 134.3c0-5.2 3.7-9.3 8.9-9.3 6.1 0 8.9 4.5 8.9 9.7v1.3h-11.8c.5 1.9 1.9 2.9 3.8 2.9 1.5 0 2.6-.6 3.9-1.8l3.4 2.8c-1.7 2.2-4.1 3.6-7.7 3.6-5.5-.1-9.4-3.7-9.4-9.2zm12-1.6c-.2-2-1.4-3.2-3.1-3.2-1.6 0-2.7 1.3-3.1 3.2h6.2zM215.4 134.3c0-5.2 3.7-9.3 8.9-9.3 6.1 0 8.9 4.5 8.9 9.7v1.3h-11.8c.5 1.9 1.9 2.9 3.8 2.9 1.5 0 2.6-.6 3.9-1.8l3.4 2.8c-1.7 2.2-4.1 3.6-7.7 3.6-5.5-.1-9.4-3.7-9.4-9.2zm12-1.6c-.2-2-1.4-3.2-3.1-3.2-1.6 0-2.7 1.3-3.1 3.2h6.2zM244.2 134.3c0-5.1 4.1-9.3 9.8-9.3 5.6 0 9.7 4.1 9.7 9.2v.1c0 5-4.1 9.2-9.8 9.2-5.6-.1-9.7-4.2-9.7-9.2zm13.5 0c0-2.2-1.6-4-3.8-4-2.3 0-3.7 1.8-3.7 3.9v.1c0 2.2 1.6 4 3.8 4 2.2-.1 3.7-1.9 3.7-4zM266.3 125.4h6.2v2.5c1.1-1.5 2.8-2.9 5.3-2.9 3.8 0 6 2.5 6 6.5V143h-6.2v-9.6c0-1.9-1-3-2.5-3s-2.6 1-2.6 3v9.6h-6.2v-17.6z"/><g><path class="st0" d="M18.7 153.5h6.7l5.4 8.8 5.4-8.8h6.7v22.8h-6.3v-13.1l-5.8 8.9h-.1l-5.8-8.9v13h-6.2v-22.7zM47 153.5h6.3v8.5h8.1v-8.5h6.3v22.8h-6.3v-8.7h-8.1v8.7H47v-22.8zM70.8 172.3l8.2-8.6h-7.9v-4.9h16.1v4.1l-8.2 8.6h8.2v4.9H70.8v-4.1zM98.4 165c0-6.7 5.1-11.9 12-11.9 4.7 0 7.7 2 9.7 4.8l-4.8 3.7c-1.3-1.6-2.8-2.7-5-2.7-3.2 0-5.4 2.7-5.4 6v.1c0 3.4 2.3 6.1 5.4 6.1 2.4 0 3.8-1.1 5.2-2.8l4.8 3.4c-2.2 3-5.1 5.2-10.1 5.2-6.5-.1-11.8-5.1-11.8-11.9zM122.7 152.5h6.2v8.6c1.1-1.5 2.8-2.8 5.3-2.8 3.8 0 6 2.5 6 6.5v11.5H134v-9.6c0-1.9-1-3-2.5-3s-2.6 1-2.6 3v9.6h-6.2v-23.8zM142.6 167.6c0-5.1 4.1-9.3 9.8-9.3 5.6 0 9.7 4.1 9.7 9.2v.1c0 5-4.1 9.2-9.8 9.2-5.6 0-9.7-4.2-9.7-9.2zm13.5 0c0-2.2-1.6-4-3.8-4-2.3 0-3.7 1.8-3.7 3.9v.1c0 2.2 1.6 4 3.8 4 2.3-.1 3.7-1.9 3.7-4zM164.8 152.5h6.5v4.6h-6.5v-4.6zm.1 6.2h6.2v17.6h-6.2v-17.6zM173.8 167.6c0-5.1 3.9-9.3 9.5-9.3 3.6 0 6 1.6 7.5 3.9l-4.2 3.1c-.8-1.2-1.8-1.9-3.3-1.9-2 0-3.5 1.8-3.5 3.9v.1c0 2.3 1.4 4 3.5 4 1.5 0 2.4-.7 3.4-1.8l4.1 3c-1.6 2.4-4 4-7.9 4-5.1.2-9.1-4-9.1-9zM191.9 167.6c0-5.2 3.7-9.3 8.9-9.3 6.1 0 8.9 4.5 8.9 9.7v1.3h-11.8c.5 1.9 1.9 2.9 3.8 2.9 1.5 0 2.6-.6 3.9-1.8l3.4 2.8c-1.7 2.2-4.1 3.6-7.7 3.6-5.4 0-9.4-3.7-9.4-9.2zm12.1-1.5c-.2-2-1.4-3.2-3.1-3.2-1.6 0-2.7 1.3-3.1 3.2h6.2zM212 170h6.5v6.4H212V170z"/></g></svg>