<svg id="Layer_1" xmlns="http://www.w3.org/2000/svg" viewBox="0 0 300 250"><style>.st0{fill:#fff}</style><path class="st0" d="M16.3 148.6l5.1-4.8c1.4 1.7 2.7 2.7 4.5 2.7 2 0 3.3-1.4 3.3-4v-18.2h7.9v18.2c0 3.6-.9 6.2-2.8 8.1-1.9 1.9-4.6 2.9-7.9 2.9-5 0-8.1-2.1-10.1-4.9zM41.2 145.3v-14.5H49v12c0 2.4 1.3 3.7 3.2 3.7 1.8 0 3.2-1.3 3.2-3.7v-12h7.8V153h-7.8v-3c-1.4 1.8-3.5 3.5-6.6 3.5-4.8 0-7.6-3.2-7.6-8.2zM65.7 150.2l2.9-4.7c2.5 1.7 5.3 2.5 7.6 2.5 1.4 0 2-.4 2-1.2v-.1c0-.9-1.2-1.2-3.6-1.9-4.4-1.1-7.9-2.6-7.9-7.1v-.1c0-4.7 3.8-7.3 8.9-7.3 3.2 0 6.6.9 9.1 2.6l-2.7 4.9c-2.3-1.3-4.8-2.1-6.6-2.1-1.2 0-1.8.5-1.8 1.1v.1c0 .9 1.3 1.3 3.6 2 4.4 1.2 7.9 2.7 7.9 7.1v.1c0 4.9-3.7 7.4-9.1 7.4-3.6 0-7.3-1.1-10.3-3.3zM89.4 146.1v-9h-2.6v-6.3h2.6v-5.6h7.8v5.6h5.2v6.3h-5.2v7.5c0 1.6.7 2.2 2.1 2.2 1 0 2-.3 3-.7v6.1c-1.4.8-3.2 1.3-5.4 1.3-4.7-.1-7.5-2.1-7.5-7.4zM116.3 142c0-7.3 4.5-11.7 9.8-11.7 3.4 0 5.3 1.5 6.8 3.2V123h7.8v30h-7.8v-3c-1.5 1.8-3.4 3.4-6.8 3.4-5.3.1-9.8-4.3-9.8-11.4zm16.7-.1c0-3-2-5.1-4.5-5.1s-4.6 2.1-4.6 5v.1c0 3 2.1 5 4.6 5s4.5-2.1 4.5-5zM143.9 142c0-6.4 5.2-11.7 12.3-11.7 7.1 0 12.2 5.2 12.2 11.5v.1c0 6.3-5.2 11.6-12.3 11.6-7.1 0-12.2-5.2-12.2-11.5zm16.9 0c0-2.8-2-5.1-4.7-5.1-2.8 0-4.6 2.3-4.6 4.9v.1c0 2.7 2 5 4.7 5 2.8 0 4.6-2.3 4.6-4.9zM171.7 130.8h7.8v3.1c1.4-1.8 3.5-3.6 6.6-3.6 4.7 0 7.5 3.1 7.5 8.2V153h-7.8v-12c0-2.4-1.3-3.7-3.1-3.7-1.9 0-3.3 1.3-3.3 3.7v12h-7.8v-22.2zM196.6 136.1c2.7-.3 4.2-1.6 4.1-3.9h-3.1v-8h8.1v6.5c0 6.1-3.3 8.2-8.4 8.3l-.7-2.9zM210.7 146.1v-9h-2.6v-6.3h2.6v-5.6h7.8v5.6h5.2v6.3h-5.2v7.5c0 1.6.7 2.2 2.1 2.2 1 0 2-.3 3-.7v6.1c-1.4.8-3.2 1.3-5.4 1.3-4.7-.1-7.5-2.1-7.5-7.4z"/><g><path class="st0" d="M17.3 177.9c0-6.4 4.9-11.6 11.9-11.6 4.6 0 7.6 2 9.5 5l-5.3 3.9c-1.1-1.5-2.3-2.3-4.1-2.3-2.5 0-4.3 2.2-4.3 4.9v.1c0 2.9 1.8 5 4.4 5 1.8 0 3-.9 4.3-2.3l5.2 3.8c-2.1 3-5 5.1-9.9 5.1-6.8-.1-11.7-5.3-11.7-11.6zM41.6 166.7h7.8v4.5c1.3-3 3.3-5 7-4.8v8.2h-.7c-4.1 0-6.4 2.3-6.4 7.5v6.9h-7.8v-22.3zM57.8 177.9c0-6.4 5.2-11.7 12.3-11.7 7.1 0 12.2 5.2 12.2 11.5v.1c0 6.3-5.2 11.6-12.3 11.6-7 0-12.2-5.2-12.2-11.5zm17 0c0-2.8-2-5.1-4.7-5.1-2.8 0-4.6 2.3-4.6 4.9v.1c0 2.7 2 5 4.7 5 2.8 0 4.6-2.2 4.6-4.9zM83.9 186.1l2.9-4.7c2.5 1.7 5.3 2.5 7.6 2.5 1.4 0 2-.4 2-1.2v-.1c0-.9-1.2-1.2-3.6-1.9-4.4-1.1-7.9-2.6-7.9-7.1v-.1c0-4.7 3.8-7.3 8.9-7.3 3.2 0 6.6.9 9.1 2.6l-2.7 4.9c-2.3-1.3-4.8-2.1-6.6-2.1-1.2 0-1.8.5-1.8 1.1v.1c0 .9 1.3 1.3 3.6 2 4.4 1.2 7.9 2.7 7.9 7.1v.1c0 4.9-3.7 7.4-9.1 7.4-3.5 0-7.2-1.1-10.3-3.3zM104.6 186.1l2.9-4.7c2.5 1.7 5.3 2.5 7.6 2.5 1.4 0 2-.4 2-1.2v-.1c0-.9-1.2-1.2-3.6-1.9-4.4-1.1-7.9-2.6-7.9-7.1v-.1c0-4.7 3.8-7.3 8.9-7.3 3.2 0 6.6.9 9.1 2.6l-2.7 4.9c-2.3-1.3-4.8-2.1-6.6-2.1-1.2 0-1.8.5-1.8 1.1v.1c0 .9 1.3 1.3 3.6 2 4.4 1.2 7.9 2.7 7.9 7.1v.1c0 4.9-3.7 7.4-9.1 7.4-3.5 0-7.2-1.1-10.3-3.3zM138.7 158.9h7.8v10.8c1.4-1.8 3.5-3.5 6.6-3.5 4.7 0 7.5 3.1 7.5 8.2v14.5h-7.8v-12c0-2.4-1.3-3.7-3.1-3.7-1.9 0-3.3 1.3-3.3 3.7v12h-7.8v-30zM163.8 177.9c0-6.6 4.6-11.7 11.2-11.7 7.7 0 11.2 5.6 11.2 12.1v1.6h-14.8c.6 2.4 2.4 3.7 4.8 3.7 1.8 0 3.3-.7 4.9-2.3l4.3 3.6c-2.1 2.7-5.2 4.5-9.6 4.5-7 0-12-4.6-12-11.5zm15.1-1.9c-.3-2.5-1.7-4-3.9-4-2.1 0-3.4 1.6-3.9 4h7.8zM189.6 166.7h7.8v4.5c1.3-3 3.3-5 7-4.8v8.2h-.7c-4.1 0-6.4 2.3-6.4 7.5v6.9h-7.8v-22.3zM204.1 180.9h8.1v8h-8.1v-8z"/></g></svg>