<svg id="Layer_1" xmlns="http://www.w3.org/2000/svg" viewBox="0 0 300 250"><style>.st0{fill:#461211}</style><path class="st0" d="M18.1 84.6h8.6l-.3 1.3-2.8.3-1.9 10.1-1.5 8.4 3 .4-.3 1.3h-8.6l.3-1.3 2.8-.3 1.9-10.1 1.5-8.4-3-.4.3-1.3zm18.2 22.1l-.3-.3 2.3-10.7c.1-.5.2-1.1.2-1.6 0-1.1-.4-1.4-1.1-1.4-1.2 0-3 1-5.4 2.9l-.9 4c-.5 2.3-.9 4.5-1.3 6.9l-2.1.3-.3-.3 2.8-13.1-3.3-.2.1-.9 5.5-1.7.4.3-.7 3.4c2.1-2 4.8-3.7 6.8-3.7 1.3 0 2.1.8 2.1 2.3 0 .4-.1.9-.2 1.4 2.1-2 4.5-3.6 6.5-3.6 1.3 0 2.1.8 2.1 2.3 0 1-.3 2.1-.6 3.2l-1.5 6c-.2.9-.4 1.6-.4 1.9 0 .5.3.7.7.7.9 0 1.9-.8 3.2-2.4l.8.6c-1.4 2-3.3 4-5.6 4-1 0-1.6-.6-1.6-1.4 0-.8.2-1.3.5-2.6l1.4-5.8c.3-1.1.5-2.2.5-2.8 0-1.2-.4-1.5-1.1-1.5-1.1 0-2.8 1-5.1 2.9l-.9 4c-.5 2.3-.9 4.5-1.3 6.9h-2.2zm26.7 0l-.3-.3L65 95.8c.1-.5.2-1.1.2-1.6 0-1.1-.4-1.4-1.1-1.4-1.2 0-3 1-5.4 2.9l-.9 4c-.5 2.3-.9 4.5-1.3 6.9l-2.1.3-.3-.3 2.8-13.1-3.3-.2.1-.9 5.5-1.7.4.3-.7 3.4c2.1-2 4.8-3.7 6.8-3.7 1.3 0 2.1.8 2.1 2.3 0 .4-.1.9-.2 1.4 2.1-2 4.5-3.6 6.5-3.6 1.3 0 2.1.8 2.1 2.3 0 1-.3 2.1-.6 3.2l-1.5 6c-.2.9-.4 1.6-.4 1.9 0 .5.3.7.7.7.9 0 1.9-.8 3.2-2.4l.8.6c-1.4 2-3.3 4-5.6 4-1 0-1.6-.6-1.6-1.4 0-.8.2-1.3.5-2.6l1.4-5.8c.3-1.1.5-2.2.5-2.8 0-1.2-.4-1.5-1.1-1.5-1.1 0-2.8 1-5.1 2.9l-.9 4c-.5 2.3-.9 4.5-1.3 6.9l-2.2-.1zm25.3-1.7c0-.7 0-1.2.2-1.8-1.9 2.2-4 3.7-5.7 3.7-1.6 0-3.1-1.1-3.1-3.8 0-5.7 5.9-12.5 10-12.5.7 0 1.3.3 1.9.9l1.5-1.2.6.3L91 102c-.2.8-.3 1.5-.3 1.9 0 .5.4.7.8.7.8 0 2.1-1 3.2-2.4l.8.6c-1.3 1.9-3.3 4-5.5 4-.9 0-1.7-.5-1.7-1.8zm2.2-11.7c-.6-.4-1.3-.6-2-.6-1 0-2.4.7-3.6 1.9-1.6 1.6-2.8 4.2-2.8 7.1 0 2 .8 2.9 2 2.9s2.6-.8 4.8-3.2l1.6-8.1zm16 13.1l.3-1.3 3.1-.3 1.9-10.1c.5-2.8 1-5.7 1.5-8.5h-4.9l-1.5 4.2h-1.6l1.2-5.8h17l-.9 5.8H121v-4.2h-4.7l-1.9 10.1-1.5 8.4 3.3.4-.3 1.3h-9.4zm23.2-1.4c0-.7 0-1.2.2-1.8-1.9 2.2-4 3.7-5.7 3.7-1.6 0-3.1-1.1-3.1-3.8 0-5.7 5.9-12.5 10-12.5.7 0 1.3.3 1.9.9l1.5-1.2.6.3-2.6 11.5c-.2.8-.3 1.5-.3 1.9 0 .5.4.7.8.7.8 0 2.1-1 3.2-2.4l.8.6c-1.3 1.9-3.3 4-5.5 4-1.1-.1-1.8-.6-1.8-1.9zm2.2-11.7c-.6-.4-1.3-.6-2-.6-1 0-2.4.7-3.6 1.9-1.6 1.6-2.8 4.2-2.8 7.1 0 2 .8 2.9 2 2.9s2.6-.8 4.8-3.2l1.6-8.1zm9.9-.7h-3.4l.2-1.3 3.6-.3 1.5-4.4h1.6l-.9 4.4h4.1l-.2 1.8-4.2-.1-2 9.4c-.2.9-.3 1.6-.3 1.9 0 .5.4.8.8.8.9 0 1.9-.8 3.2-2.4l.8.6c-1.4 2-3.3 4-5.5 4-.9 0-1.8-.6-1.8-1.7 0-.5 0-1 .3-2.3l2.2-10.4zm15.4 12.4c0-.7 0-1.2.2-1.8-1.9 2.2-4 3.7-5.7 3.7-1.6 0-3.1-1.1-3.1-3.8 0-5.7 5.9-12.5 10-12.5.7 0 1.3.3 1.9.9l1.5-1.2.6.3-2.6 11.5c-.2.8-.3 1.5-.3 1.9 0 .5.4.7.8.7.8 0 2.1-1 3.2-2.4l.8.6c-1.3 1.9-3.3 4-5.5 4-1-.1-1.8-.6-1.8-1.9zm2.3-11.7c-.6-.4-1.3-.6-2-.6-1 0-2.4.7-3.6 1.9-1.6 1.6-2.8 4.2-2.8 7.1 0 2 .8 2.9 2 2.9s2.6-.8 4.8-3.2l1.6-8.1zm9.9 0l-3.3-.2.1-.9 5.4-1.7.4.3-.7 4.3c1.4-2.4 3.2-4.7 4.9-4.7.9 0 1.7.3 2.2 1 0 1-.6 1.8-1.7 1.8-.6 0-1.3-.3-1.9-.9-1.6 1.3-2.8 3.1-4 5.4l-.4 1.8c-.5 2.3-.9 4.5-1.3 6.9l-2.1.3-.3-.3 2.7-13.1zm16.2 11.7c0-.7 0-1.2.2-1.8-1.9 2.2-4 3.7-5.7 3.7-1.6 0-3.1-1.1-3.1-3.8 0-5.7 5.9-12.5 10-12.5.7 0 1.3.3 1.9.9l1.5-1.2.6.3-2.6 11.5c-.2.8-.3 1.5-.3 1.9 0 .5.4.7.8.7.8 0 2.1-1 3.2-2.4l.8.6c-1.3 1.9-3.3 4-5.5 4-1-.1-1.8-.6-1.8-1.9zm2.2-11.7c-.6-.4-1.3-.6-2-.6-1 0-2.4.7-3.6 1.9-1.6 1.6-2.8 4.2-2.8 7.1 0 2 .8 2.9 2 2.9s2.6-.8 4.8-3.2l1.6-8.1zm7.5 13.4l-.3-.3 2.8-13.1-3.3-.2.1-.9 5.5-1.7.4.3-.7 3.4c2.1-2 4.8-3.7 6.8-3.7 1.4 0 2.1.8 2.1 2.3 0 1-.3 2.1-.6 3.2l-1.5 6c-.2.9-.4 1.6-.4 1.9 0 .5.3.7.7.7.8 0 2.1-.9 3.2-2.4l.8.6c-1.3 1.9-3.4 4-5.6 4-1 0-1.6-.6-1.6-1.4 0-.8.2-1.3.5-2.6l1.4-5.8c.3-1.1.5-2.2.5-2.8 0-1.2-.4-1.5-1.1-1.5-1.2 0-3 1-5.5 2.9l-.9 4c-.5 2.3-.9 4.5-1.3 6.9l-2 .2zm18.3 0l-.3-.3 2.8-13.1-3.3-.2.1-.9 5.5-1.7.4.3-.7 3.4c2.1-2 4.8-3.7 6.8-3.7 1.4 0 2.1.8 2.1 2.3 0 1-.3 2.1-.6 3.2l-1.5 6c-.2.9-.4 1.6-.4 1.9 0 .5.3.7.7.7.8 0 2.1-.9 3.2-2.4l.8.6c-1.3 1.9-3.4 4-5.6 4-1 0-1.6-.6-1.6-1.4 0-.8.2-1.3.5-2.6l1.4-5.8c.3-1.1.5-2.2.5-2.8 0-1.2-.4-1.5-1.1-1.5-1.2 0-3 1-5.5 2.9l-.9 4c-.5 2.3-.9 4.5-1.3 6.9l-2 .2zm18.8-3.9l2-9.5-3.3-.2.1-.9 5.5-1.7.4.3-2.3 11.2c-.2.8-.3 1.5-.3 1.9 0 .5.4.7.7.7.8 0 1.8-.8 3.2-2.4l.8.6c-1.5 2-3.1 4-5.4 4-.9 0-1.7-.6-1.7-1.7 0-.4 0-.9.3-2.3zm2.7-18.6c0-1.1.9-2 1.9-2 1 0 1.8.7 1.8 1.9 0 1-.9 2-1.9 2-1.1 0-1.8-.8-1.8-1.9zM240.5 100.1h6.5v6.4h-6.5v-6.4z"/></svg>