<?xml version="1.0" encoding="utf-8"?>
<!-- Generator: Adobe Illustrator 26.3.1, SVG Export Plug-In . SVG Version: 6.00 Build 0)  -->
<svg version="1.1" id="Layer_1" xmlns="http://www.w3.org/2000/svg" xmlns:xlink="http://www.w3.org/1999/xlink" x="0px" y="0px"
	 viewBox="0 0 300 250" style="enable-background:new 0 0 300 250;" xml:space="preserve">
<style type="text/css">
	.st0{fill:#490A09;}
</style>
<g>
	<path class="st0" d="M17.6,99h13.6c3.3,0,5.7,0.8,7.3,2.4c1.1,1.1,1.7,2.5,1.7,4.3v0.1c0,3.1-1.7,4.9-4.1,5.9
		c3.2,1.1,5.3,2.9,5.3,6.5v0.1c0,4.6-3.7,7.3-10.1,7.3H17.6V99z M29.4,109.6c2.2,0,3.5-0.8,3.5-2.3v-0.1c0-1.4-1.1-2.3-3.3-2.3h-4.8
		v4.7H29.4z M30.5,119.7c2.2,0,3.5-0.9,3.5-2.4v-0.1c0-1.4-1.1-2.4-3.6-2.4h-5.6v4.9H30.5z"/>
	<path class="st0" d="M43.5,115.4L43.5,115.4c0-6.1,4.3-10.8,10.4-10.8c7.1,0,10.4,5.2,10.4,11.2c0,0.5,0,1,0,1.5H50.5
		c0.6,2.2,2.2,3.4,4.4,3.4c1.7,0,3.1-0.6,4.6-2.1l4,3.3c-2,2.5-4.8,4.2-8.9,4.2C48.1,126.1,43.5,121.8,43.5,115.4z M57.5,113.6
		c-0.3-2.3-1.6-3.7-3.6-3.7c-1.9,0-3.2,1.5-3.6,3.7H57.5z"/>
	<path class="st0" d="M67.3,97.9h7.2v10c1.3-1.7,3.2-3.3,6.2-3.3c4.4,0,7,2.9,7,7.6v13.5h-7.2v-11.1c0-2.2-1.2-3.5-2.9-3.5
		c-1.7,0-3,1.2-3,3.5v11.1h-7.2V97.9z"/>
	<path class="st0" d="M91.4,97.9h7.5v5.3h-7.5V97.9z M91.6,105h7.2v20.6h-7.2V105z"/>
	<path class="st0" d="M102.8,105h7.2v2.9c1.3-1.7,3.2-3.3,6.2-3.3c4.4,0,7,2.9,7,7.6v13.5H116v-11.1c0-2.2-1.2-3.5-2.9-3.5
		c-1.7,0-3,1.2-3,3.5v11.1h-7.2V105z"/>
	<path class="st0" d="M126.1,115.4L126.1,115.4c0-6.8,4.2-10.8,9-10.8c3.1,0,4.9,1.4,6.3,3v-9.7h7.2v27.7h-7.2v-2.7
		c-1.4,1.7-3.2,3.2-6.3,3.2C130.4,126,126.1,122,126.1,115.4z M141.6,115.3L141.6,115.3c0-2.8-1.9-4.7-4.2-4.7
		c-2.3,0-4.2,1.9-4.2,4.6v0.1c0,2.7,1.9,4.7,4.2,4.7C139.7,120,141.6,118.1,141.6,115.3z"/>
	<path class="st0" d="M162.3,115.4L162.3,115.4c0-6.1,4.3-10.8,10.4-10.8c7.1,0,10.4,5.2,10.4,11.2c0,0.5,0,1,0,1.5h-13.8
		c0.6,2.2,2.2,3.4,4.4,3.4c1.7,0,3.1-0.6,4.6-2.1l4,3.3c-2,2.5-4.8,4.2-8.9,4.2C166.8,126.1,162.3,121.8,162.3,115.4z M176.3,113.6
		c-0.3-2.3-1.6-3.7-3.6-3.7c-1.9,0-3.2,1.5-3.6,3.7H176.3z"/>
	<path class="st0" d="M183.6,105h7.6l4,12l4-12h7.5l-8.2,20.7h-6.6L183.6,105z"/>
	<path class="st0" d="M206.9,115.4L206.9,115.4c0-6.1,4.3-10.8,10.4-10.8c7.1,0,10.4,5.2,10.4,11.2c0,0.5,0,1,0,1.5h-13.8
		c0.6,2.2,2.2,3.4,4.4,3.4c1.7,0,3.1-0.6,4.6-2.1l4,3.3c-2,2.5-4.8,4.2-8.9,4.2C211.5,126.1,206.9,121.8,206.9,115.4z M220.9,113.6
		c-0.3-2.3-1.6-3.7-3.6-3.7c-1.9,0-3.2,1.5-3.6,3.7H220.9z"/>
	<path class="st0" d="M230.7,105h7.2v4.1c1.2-2.8,3.1-4.6,6.5-4.5v7.6h-0.6c-3.8,0-5.9,2.2-5.9,6.9v6.4h-7.2V105z"/>
	<path class="st0" d="M246.5,130l2.2-5.1c1.1,0.7,2.4,1.1,3.2,1.1c0.7,0,1.2-0.2,1.7-0.8l-8.1-20.2h7.6l4.1,12.4L261,105h7.4
		l-7.5,20.1c-1.8,4.8-3.7,6.7-7.8,6.7C250.5,131.8,248.4,131.1,246.5,130z"/>
</g>
<g>
	<path class="st0" d="M17.2,143h7.2v2.7c1.4-1.7,3.2-3.2,6.2-3.2c4.9,0,9.1,4.1,9.1,10.6v0.1c0,6.7-4.2,10.8-9.1,10.8
		c-3.1,0-4.9-1.4-6.3-3v8.6h-7.2V143z M32.6,153.3L32.6,153.3c0-2.8-1.9-4.7-4.2-4.7c-2.3,0-4.2,1.9-4.2,4.6v0.1
		c0,2.7,1.9,4.7,4.2,4.7C30.8,158,32.6,156.1,32.6,153.3z"/>
	<path class="st0" d="M42,153.4L42,153.4c0-6.1,4.3-10.8,10.4-10.8c7.1,0,10.4,5.2,10.4,11.2c0,0.5,0,1,0,1.5H49
		c0.6,2.2,2.2,3.4,4.4,3.4c1.7,0,3.1-0.6,4.6-2.1l4,3.3c-2,2.5-4.8,4.2-8.9,4.2C46.6,164.1,42,159.8,42,153.4z M56,151.6
		c-0.3-2.3-1.6-3.7-3.6-3.7c-1.9,0-3.2,1.5-3.6,3.7H56z"/>
	<path class="st0" d="M65.8,143h7.2v4.1c1.2-2.8,3.1-4.6,6.5-4.5v7.6h-0.6c-3.8,0-5.9,2.2-5.9,6.9v6.4h-7.2V143z"/>
	<path class="st0" d="M84.2,148.8h-2.4v-5.7h2.4v-0.5c0-2.4,0.5-4.1,1.7-5.3c1.3-1.3,2.9-1.8,5.4-1.8c2.2,0,3.6,0.2,4.7,0.6v5.1
		c-0.8-0.3-1.7-0.4-2.7-0.4c-1.3,0-2.1,0.6-2.1,1.9v0.5h4.7v5.5h-4.6v14.8h-7.2V148.8z"/>
	<path class="st0" d="M97,153.4L97,153.4c0-6.1,4.3-10.8,10.4-10.8c7.1,0,10.4,5.2,10.4,11.2c0,0.5,0,1,0,1.5H104
		c0.6,2.2,2.2,3.4,4.4,3.4c1.7,0,3.1-0.6,4.6-2.1l4,3.3c-2,2.5-4.8,4.2-8.9,4.2C101.6,164.1,97,159.8,97,153.4z M111,151.6
		c-0.3-2.3-1.6-3.7-3.6-3.7c-1.9,0-3.2,1.5-3.6,3.7H111z"/>
	<path class="st0" d="M120,153.4L120,153.4c0-5.9,4.5-10.8,11-10.8c4.2,0,7,1.8,8.8,4.6l-4.9,3.6c-1-1.4-2.1-2.2-3.8-2.2
		c-2.3,0-4,2.1-4,4.6v0.1c0,2.7,1.7,4.7,4.1,4.7c1.7,0,2.8-0.8,4-2.1l4.8,3.5c-1.9,2.8-4.6,4.7-9.2,4.7
		C124.6,164.1,120,159.2,120,153.4z"/>
	<path class="st0" d="M143.7,157.2v-8.4h-2.4V143h2.4v-5.2h7.2v5.2h4.8v5.8H151v7c0,1.4,0.6,2.1,2,2.1c1,0,1.9-0.3,2.7-0.7v5.7
		c-1.3,0.7-3,1.2-5,1.2C146.3,164,143.7,162.1,143.7,157.2z"/>
	<path class="st0" d="M169.5,135.9h7.2v27.7h-7.2V135.9z"/>
	<path class="st0" d="M180.8,135.9h7.5v5.3h-7.5V135.9z M180.9,143h7.2v20.6h-7.2V143z"/>
	<path class="st0" d="M193.5,148.8h-2.4v-5.7h2.4v-0.5c0-2.4,0.5-4.1,1.7-5.3c1.3-1.3,2.9-1.8,5.4-1.8c2.2,0,3.6,0.2,4.7,0.6v5.1
		c-0.8-0.3-1.7-0.4-2.7-0.4c-1.3,0-2.1,0.6-2.1,1.9v0.5h4.7v5.5h-4.6v14.8h-7.2V148.8z"/>
	<path class="st0" d="M206.4,153.4L206.4,153.4c0-6.1,4.3-10.8,10.4-10.8c7.1,0,10.4,5.2,10.4,11.2c0,0.5,0,1,0,1.5h-13.8
		c0.6,2.2,2.2,3.4,4.4,3.4c1.7,0,3.1-0.6,4.6-2.1l4,3.3c-2,2.5-4.8,4.2-8.9,4.2C210.9,164.1,206.4,159.8,206.4,153.4z M220.3,151.6
		c-0.3-2.3-1.6-3.7-3.6-3.7c-1.9,0-3.2,1.5-3.6,3.7H220.3z"/>
</g>
</svg>
