<?xml version="1.0" encoding="utf-8"?>
<!-- Generator: Adobe Illustrator 26.3.1, SVG Export Plug-In . SVG Version: 6.00 Build 0)  -->
<svg version="1.1" id="Layer_1" xmlns="http://www.w3.org/2000/svg" xmlns:xlink="http://www.w3.org/1999/xlink" x="0px" y="0px"
	 viewBox="0 0 300 250" style="enable-background:new 0 0 300 250;" xml:space="preserve">
<style type="text/css">
	.st0{fill:#490A09;}
</style>
<g>
	<path class="st0" d="M18.8,95.3c0-8,6.5-15,16-15c5,0,8.6,2,10.4,4.3l-4.6,4.5c-1.5-1.5-3.5-2.6-6.2-2.6c-5,0-8.5,3.9-8.5,8.5
		c0,3.5,2.5,5.3,5.6,5.3c1.4,0,2.5-0.3,3.3-0.7l1-3.4H31l1.3-5.1h11.5l-3.6,12.6c-2.5,1.4-5.7,2.5-9.4,2.5
		C24.9,106.4,18.8,103,18.8,95.3z"/>
	<path class="st0" d="M50.7,79.8h6.8l-7,26.1h-6.8L50.7,79.8z"/>
	<path class="st0" d="M56.1,97.3c0-5.8,4.9-11.2,11.4-11.2c5.9,0,9.5,3.9,9.5,9c0,5.9-4.9,11.3-11.4,11.3
		C59.7,106.3,56.1,102.4,56.1,97.3z M70.4,95.3c0-2.2-1.4-3.6-3.4-3.6c-2.7,0-4.5,2.8-4.5,5.3c0,2.2,1.4,3.6,3.4,3.6
		C68.6,100.7,70.4,97.8,70.4,95.3z"/>
	<path class="st0" d="M82.4,86.5h6.8l-1,3.9c1.9-2.8,4.1-4.4,7.3-4.2l-1.9,7.1h-0.6c-3.7,0-6.1,2.1-7.3,6.7l-1.6,5.8h-6.8L82.4,86.5
		z"/>
	<path class="st0" d="M97.9,86.5h6.8l-5.2,19.3h-6.8L97.9,86.5z M99.7,79.8h7.1l-1.4,5h-7.1L99.7,79.8z"/>
	<path class="st0" d="M104.2,101c0-4.3,3.4-6.8,8.5-6.8c1.8,0,3.4,0.3,4.9,0.8l0.1-0.2c0.1-0.3,0.2-0.7,0.2-1.2c0-1.3-1-2.1-3.3-2.1
		c-1.8,0-3.9,0.4-5.2,1l-1-4.9c2-0.7,4.8-1.2,7.6-1.2c5.8,0,8.6,2.3,8.6,6.1c0,0.9-0.1,1.8-0.4,2.8l-2.9,10.6h-6.7l0.5-2.1
		c-1.6,1.5-3.3,2.5-5.6,2.5C106.4,106.2,104.2,104.2,104.2,101z M116.7,98.6l0.2-0.6c-0.8-0.2-1.6-0.4-2.5-0.4c-2.1,0-3.5,1-3.5,2.8
		c0,1.1,0.8,1.8,1.9,1.8C114.4,102.1,116.1,100.5,116.7,98.6z"/>
	<path class="st0" d="M126.6,98.9h7.1l-1.9,7h-7L126.6,98.9z"/>
</g>
</svg>
