<?xml version="1.0" encoding="utf-8"?>
<!-- Generator: Adobe Illustrator 26.3.1, SVG Export Plug-In . SVG Version: 6.00 Build 0)  -->
<svg version="1.1" id="Layer_1" xmlns="http://www.w3.org/2000/svg" xmlns:xlink="http://www.w3.org/1999/xlink" x="0px" y="0px"
	 viewBox="0 0 300 250" style="enable-background:new 0 0 300 250;" xml:space="preserve">
<style type="text/css">
	.st0{fill:#490A09;}
</style>
<g>
	<path class="st0" d="M23.7,127.6h-7.5v-6.1h21.9v6.1h-7.5v18.9h-6.9V127.6z"/>
	<path class="st0" d="M40.8,120.5h6.8v9.4c1.2-1.6,3-3.1,5.8-3.1c4.1,0,6.6,2.7,6.6,7.1v12.6h-6.8v-10.5c0-2.1-1.1-3.3-2.7-3.3
		c-1.6,0-2.9,1.1-2.9,3.3v10.5h-6.8V120.5z"/>
	<path class="st0" d="M62.7,137L62.7,137c0-5.7,4-10.2,9.8-10.2c6.7,0,9.8,4.9,9.8,10.6c0,0.4,0,0.9,0,1.4H69.2
		c0.5,2.1,2.1,3.2,4.2,3.2c1.6,0,2.9-0.6,4.3-2l3.8,3.1c-1.9,2.4-4.5,3.9-8.4,3.9C66.9,147,62.7,143,62.7,137z M75.8,135.3
		c-0.2-2.1-1.5-3.5-3.4-3.5c-1.8,0-3,1.4-3.4,3.5H75.8z"/>
	<path class="st0" d="M94.9,127.2h6.8v2.7c1.2-1.6,3-3.1,5.8-3.1c4.1,0,6.6,2.7,6.6,7.1v12.6h-6.8v-10.5c0-2.1-1.1-3.3-2.7-3.3
		c-1.6,0-2.9,1.1-2.9,3.3v10.5h-6.8V127.2z"/>
	<path class="st0" d="M116.8,137L116.8,137c0-5.7,4-10.2,9.8-10.2c6.7,0,9.8,4.9,9.8,10.6c0,0.4,0,0.9,0,1.4h-12.9
		c0.5,2.1,2.1,3.2,4.2,3.2c1.6,0,2.9-0.6,4.3-2l3.8,3.1c-1.9,2.4-4.5,3.9-8.4,3.9C121.1,147,116.8,143,116.8,137z M129.9,135.3
		c-0.2-2.1-1.5-3.5-3.4-3.5c-1.8,0-3,1.4-3.4,3.5H129.9z"/>
	<path class="st0" d="M137,127.2h6.6l2.5,9.7l3-9.8h5.6l3,9.9l2.6-9.8h6.5l-6,19.5H155l-3.1-10l-3.2,10h-5.8L137,127.2z"/>
</g>
<g>
	<path class="st0" d="M17.6,154.5h20v6.1H24.5v4.2h11.8v5.8H24.5v8.9h-6.9V154.5z"/>
	<path class="st0" d="M40.4,160.1h6.8v3.9c1.1-2.6,2.9-4.4,6.1-4.2v7.1h-0.6c-3.5,0-5.5,2-5.5,6.5v6h-6.8V160.1z"/>
	<path class="st0" d="M54.5,169.9L54.5,169.9c0-5.7,4-10.2,9.8-10.2c6.7,0,9.8,4.9,9.8,10.6c0,0.4,0,0.9,0,1.4H61.1
		c0.5,2.1,2.1,3.2,4.2,3.2c1.6,0,2.9-0.6,4.3-2l3.8,3.1c-1.9,2.4-4.5,3.9-8.4,3.9C58.8,179.9,54.5,175.9,54.5,169.9z M67.7,168.2
		c-0.2-2.1-1.5-3.5-3.4-3.5c-1.8,0-3,1.4-3.4,3.5H67.7z"/>
	<path class="st0" d="M76.9,160.1h6.8v2.7c1.2-1.6,3-3.1,5.8-3.1c4.1,0,6.6,2.7,6.6,7.1v12.6h-6.8V169c0-2.1-1.1-3.3-2.7-3.3
		c-1.6,0-2.9,1.1-2.9,3.3v10.5h-6.8V160.1z"/>
	<path class="st0" d="M98.8,169.9L98.8,169.9c0-5.5,4.3-10.1,10.4-10.1c4,0,6.6,1.7,8.3,4.3l-4.6,3.4c-0.9-1.3-2-2-3.6-2
		c-2.2,0-3.8,1.9-3.8,4.3v0.1c0,2.5,1.6,4.4,3.9,4.4c1.6,0,2.6-0.8,3.7-2l4.5,3.3c-1.8,2.6-4.4,4.4-8.6,4.4
		C103.1,179.9,98.8,175.4,98.8,169.9z"/>
	<path class="st0" d="M119.9,153.4h6.8v9.4c1.2-1.6,3-3.1,5.8-3.1c4.1,0,6.6,2.7,6.6,7.1v12.6h-6.8V169c0-2.1-1.1-3.3-2.7-3.3
		c-1.6,0-2.9,1.1-2.9,3.3v10.5h-6.8V153.4z"/>
	<path class="st0" d="M153.6,173.5v-7.9h-2.3v-5.5h2.3v-4.9h6.8v4.9h4.5v5.5h-4.5v6.5c0,1.4,0.6,1.9,1.9,1.9c0.9,0,1.8-0.2,2.6-0.6
		v5.3c-1.2,0.7-2.8,1.1-4.7,1.1C156.1,179.9,153.6,178.1,153.6,173.5z"/>
	<path class="st0" d="M167.8,153.4h6.8v9.4c1.3-1.6,3-3.1,5.8-3.1c4.1,0,6.6,2.7,6.6,7.1v12.6h-6.8V169c0-2.1-1.1-3.3-2.7-3.3
		c-1.6,0-2.9,1.1-2.9,3.3v10.5h-6.8V153.4z"/>
	<path class="st0" d="M190.5,160.1h6.8v3.9c1.1-2.6,2.9-4.4,6.1-4.2v7.1h-0.6c-3.5,0-5.5,2-5.5,6.5v6h-6.8V160.1z"/>
	<path class="st0" d="M205.8,153.4h7.1v5h-7.1V153.4z M205.9,160.1h6.8v19.3h-6.8V160.1z"/>
	<path class="st0" d="M216.6,153.4h6.8v26.1h-6.8V153.4z"/>
	<path class="st0" d="M227.4,153.4h6.8v26.1h-6.8V153.4z"/>
	<path class="st0" d="M237.1,169.9L237.1,169.9c0-5.7,4-10.2,9.8-10.2c6.7,0,9.8,4.9,9.8,10.6c0,0.4,0,0.9,0,1.4h-12.9
		c0.5,2.1,2.1,3.2,4.2,3.2c1.6,0,2.9-0.6,4.3-2l3.8,3.1c-1.9,2.4-4.5,3.9-8.4,3.9C241.4,179.9,237.1,175.9,237.1,169.9z
		 M250.3,168.2c-0.3-2.1-1.5-3.5-3.4-3.5c-1.8,0-3,1.4-3.4,3.5H250.3z"/>
	<path class="st0" d="M259.5,160.1h6.8v3.9c1.1-2.6,2.9-4.4,6.1-4.2v7.1h-0.6c-3.5,0-5.5,2-5.5,6.5v6h-6.8V160.1z"/>
	<path class="st0" d="M272.2,172.5h7.1v7h-7.1V172.5z"/>
</g>
</svg>
