<?xml version="1.0" encoding="utf-8"?>
<!-- Generator: Adobe Illustrator 26.3.1, SVG Export Plug-In . SVG Version: 6.00 Build 0)  -->
<svg version="1.1" id="Layer_1" xmlns="http://www.w3.org/2000/svg" xmlns:xlink="http://www.w3.org/1999/xlink" x="0px" y="0px"
	 viewBox="0 0 300 250" style="enable-background:new 0 0 300 250;" xml:space="preserve">
<style type="text/css">
	.st0{clip-path:url(#SVGID_00000135689631657364393700000001438652329689149619_);fill:#AC1F2D;}
	.st1{clip-path:url(#SVGID_00000135689631657364393700000001438652329689149619_);fill:#FFFFFF;}
</style>
<g>
	<defs>
		<rect id="SVGID_1_" x="17.8" y="10.1" width="47.5" height="51.1"/>
	</defs>
	<clipPath id="SVGID_00000078014442163080539500000003145212988011510173_">
		<use xlink:href="#SVGID_1_"  style="overflow:visible;"/>
	</clipPath>
	<path style="clip-path:url(#SVGID_00000078014442163080539500000003145212988011510173_);fill:#AC1F2D;" d="M62,35.8
		c0,12.1-9.8,22-22,22s-22-9.8-22-22c0-12.1,9.8-22,22-22S62,23.6,62,35.8"/>
	<path style="clip-path:url(#SVGID_00000078014442163080539500000003145212988011510173_);fill:#FFFFFF;" d="M48.8,31.8v2.5h2.9
		l-3.4,5.3h8.3V37H53l3.2-5.2H48.8z M32.5,28.6l-2.6,5.9l-2.6-5.9h-3.7v10.9h3.1v-5.8l2.6,5.8h1.3l2.6-6v6h3.1V28.6H32.5z
		 M44.5,28.6v3.9h-3.9v-3.9h-3.4v10.9h3.4v-4.3h3.9v4.3h3.4V28.6H44.5z"/>
	<path style="clip-path:url(#SVGID_00000078014442163080539500000003145212988011510173_);fill:#FFFFFF;" d="M48.6,44h2.9v-0.9h-1.9
		v-0.6h1.7v-0.8h-1.7v-0.5h1.9v-0.9h-2.9V44z M46.2,44.1c0.8,0,1.3-0.3,1.6-0.8l-0.8-0.5c-0.2,0.3-0.4,0.4-0.8,0.4
		c-0.5,0-0.9-0.4-0.9-1v0c0-0.5,0.4-1,0.9-1c0.3,0,0.6,0.2,0.8,0.4l0.8-0.6c-0.3-0.4-0.8-0.8-1.5-0.8c-1.1,0-1.9,0.8-1.9,1.9v0
		C44.4,43.3,45.2,44.1,46.2,44.1 M42.5,44h1v-3.6h-1V44z M39.7,43.2c-0.5,0-0.9-0.5-0.9-1v0c0-0.5,0.4-1,0.9-1c0.6,0,0.9,0.5,0.9,1
		v0C40.7,42.7,40.3,43.2,39.7,43.2 M39.7,44.1c1.1,0,2-0.8,2-1.9v0c0-1-0.8-1.9-1.9-1.9c-1.1,0-2,0.8-2,1.9v0
		C37.8,43.2,38.6,44.1,39.7,44.1 M33.7,44h1v-1.4H36V44h1v-3.6h-1v1.4h-1.3v-1.4h-1V44z M31.3,44.1c0.8,0,1.3-0.3,1.6-0.8l-0.8-0.5
		c-0.2,0.3-0.4,0.4-0.8,0.4c-0.5,0-0.9-0.4-0.9-1v0c0-0.5,0.4-1,0.9-1c0.3,0,0.6,0.2,0.8,0.4l0.8-0.6c-0.3-0.4-0.8-0.8-1.5-0.8
		c-1.1,0-1.9,0.8-1.9,1.9v0C29.5,43.3,30.3,44.1,31.3,44.1"/>
</g>
</svg>
