<?xml version="1.0" encoding="utf-8"?>
<!-- Generator: Adobe Illustrator 26.3.1, SVG Export Plug-In . SVG Version: 6.00 Build 0)  -->
<svg version="1.1" id="Layer_1" xmlns="http://www.w3.org/2000/svg" xmlns:xlink="http://www.w3.org/1999/xlink" x="0px" y="0px"
	 viewBox="0 0 970 250" style="enable-background:new 0 0 970 250;" xml:space="preserve">
<style type="text/css">
	.st0{fill:#490A09;}
</style>
<g>
	<path class="st0" d="M38.6,53h29.7c7.3,0,12.4,1.8,15.8,5.2c2.3,2.3,3.7,5.4,3.7,9.3v0.2c0,6.7-3.8,10.7-8.9,12.9
		c7,2.3,11.5,6.3,11.5,14.1v0.2c0,9.9-8.1,16-21.9,16H38.6V53z M64.3,76.1c4.9,0,7.6-1.7,7.6-5v-0.2c0-3.1-2.5-5-7.3-5H54.3v10.2
		H64.3z M66.7,98c4.9,0,7.7-1.9,7.7-5.3v-0.2c0-3.1-2.5-5.2-7.9-5.2H54.3V98H66.7z"/>
	<path class="st0" d="M95,88.7v-0.2c0-13.1,9.3-23.4,22.6-23.4c15.5,0,22.6,11.3,22.6,24.5c0,1,0,2.1-0.1,3.2h-29.9
		c1.2,4.9,4.8,7.4,9.7,7.4c3.7,0,6.7-1.4,9.9-4.5l8.7,7.2c-4.3,5.5-10.5,9.1-19.4,9.1C104.9,112,95,102.6,95,88.7z M125.4,84.8
		c-0.6-5-3.5-8.1-7.8-8.1c-4.1,0-6.9,3.2-7.8,8.1H125.4z"/>
	<path class="st0" d="M146.9,50.5h15.7v21.7c2.9-3.7,7-7.1,13.4-7.1c9.5,0,15.2,6.3,15.2,16.5v29.3h-15.7V86.7
		c0-4.9-2.6-7.5-6.3-7.5c-3.8,0-6.6,2.6-6.6,7.5v24.2h-15.7V50.5z"/>
	<path class="st0" d="M199.3,50.5h16.4v11.6h-16.4V50.5z M199.6,66.1h15.7v44.7h-15.7V66.1z"/>
	<path class="st0" d="M224.1,66.1h15.7v6.3c2.9-3.7,7-7.3,13.4-7.3c9.5,0,15.2,6.3,15.2,16.5v29.3h-15.7V86.7c0-4.9-2.6-7.5-6.3-7.5
		c-3.8,0-6.6,2.6-6.6,7.5v24.2h-15.7V66.1z"/>
	<path class="st0" d="M274.8,88.7v-0.2c0-14.6,9.1-23.4,19.7-23.4c6.8,0,10.7,3.1,13.7,6.4V50.5H324v60.4h-15.7v-6
		c-3.1,3.7-6.9,6.9-13.6,6.9C284,111.9,274.8,103,274.8,88.7z M308.5,88.6v-0.2c0-5.9-4.1-10.1-9.1-10.1s-9.2,4.1-9.2,10.1v0.2
		c0,6,4.1,10.2,9.2,10.2S308.5,94.5,308.5,88.6z"/>
	<path class="st0" d="M353.5,88.7v-0.2c0-13.1,9.3-23.4,22.6-23.4c15.5,0,22.6,11.3,22.6,24.5c0,1,0,2.1-0.1,3.2h-29.9
		c1.2,4.9,4.8,7.4,9.7,7.4c3.7,0,6.7-1.4,9.9-4.5l8.7,7.2c-4.3,5.5-10.5,9.1-19.4,9.1C363.4,112,353.5,102.6,353.5,88.7z
		 M383.9,84.8c-0.6-5-3.5-8.1-7.8-8.1c-4.1,0-6.9,3.2-7.8,8.1H383.9z"/>
	<path class="st0" d="M399.9,66.1h16.5l8.6,26.1l8.6-26.1H450l-17.9,45.1h-14.3L399.9,66.1z"/>
	<path class="st0" d="M450.6,88.7v-0.2c0-13.1,9.3-23.4,22.6-23.4c15.5,0,22.6,11.3,22.6,24.5c0,1,0,2.1-0.1,3.2h-29.9
		c1.2,4.9,4.8,7.4,9.7,7.4c3.7,0,6.7-1.4,9.9-4.5l8.7,7.2c-4.3,5.5-10.5,9.1-19.4,9.1C460.5,112,450.6,102.6,450.6,88.7z M481,84.8
		c-0.6-5-3.5-8.1-7.8-8.1c-4.1,0-6.9,3.2-7.8,8.1H481z"/>
	<path class="st0" d="M502.4,66.1h15.7v9c2.6-6.1,6.7-10.1,14.1-9.8v16.5h-1.3c-8.2,0-12.8,4.7-12.8,15v13.9h-15.7V66.1z"/>
	<path class="st0" d="M536.6,120.5l4.9-11c2.5,1.5,5.1,2.4,6.9,2.4c1.6,0,2.6-0.4,3.6-1.8l-17.5-43.9h16.5l8.9,27l8.4-27h16.1
		L568,109.8c-3.9,10.4-8.1,14.6-17,14.6C545.5,124.4,540.8,122.8,536.6,120.5z"/>
</g>
<g>
	<path class="st0" d="M37.7,141.9h15.7v6c3.1-3.7,6.9-6.9,13.6-6.9c10.7,0,19.8,8.8,19.8,23.2v0.2c0,14.6-9.2,23.4-19.8,23.4
		c-6.8,0-10.7-3.1-13.6-6.4v18.7H37.7V141.9z M71.4,164.3v-0.2c0-5.9-4.1-10.1-9.2-10.1c-5,0-9.1,4.2-9.1,10.1v0.2
		c0,6,4.1,10.2,9.1,10.2C67.3,174.5,71.4,170.4,71.4,164.3z"/>
	<path class="st0" d="M91.8,164.5v-0.2c0-13.1,9.3-23.4,22.6-23.4c15.5,0,22.6,11.3,22.6,24.5c0,1,0,2.2-0.1,3.2h-29.9
		c1.2,4.9,4.8,7.4,9.7,7.4c3.7,0,6.7-1.4,9.9-4.5l8.7,7.2c-4.3,5.5-10.5,9.1-19.4,9.1C101.7,187.7,91.8,178.4,91.8,164.5z
		 M122.2,160.6c-0.6-5-3.5-8.1-7.8-8.1c-4.1,0-6.9,3.2-7.8,8.1H122.2z"/>
	<path class="st0" d="M143.6,141.9h15.7v9c2.6-6.1,6.7-10.1,14.1-9.8v16.5h-1.3c-8.2,0-12.8,4.7-12.8,15v13.9h-15.7V141.9z"/>
	<path class="st0" d="M185.1,154.5h-5.2v-12.3h5.2v-1c0-5.1,1.2-8.9,3.8-11.6c2.7-2.7,6.4-3.9,11.7-3.9c4.8,0,7.8,0.5,10.3,1.2v11.1
		c-1.8-0.6-3.6-0.9-5.9-0.9c-2.9,0-4.5,1.3-4.5,4.2v1.1h10.3v12.1h-10v32.2h-15.6V154.5z"/>
	<path class="st0" d="M213.2,164.5v-0.2c0-13.1,9.3-23.4,22.6-23.4c15.5,0,22.6,11.3,22.6,24.5c0,1,0,2.2-0.1,3.2h-29.9
		c1.2,4.9,4.8,7.4,9.7,7.4c3.7,0,6.7-1.4,9.9-4.5l8.7,7.2c-4.3,5.5-10.5,9.1-19.4,9.1C223.1,187.7,213.2,178.4,213.2,164.5z
		 M243.6,160.6c-0.6-5-3.5-8.1-7.8-8.1c-4.1,0-6.9,3.2-7.8,8.1H243.6z"/>
	<path class="st0" d="M263.2,164.5v-0.2c0-12.7,9.8-23.3,24-23.3c9.2,0,15.3,4,19.1,10l-10.7,7.9c-2.1-3-4.5-4.7-8.4-4.7
		c-5,0-8.8,4.5-8.8,9.9v0.2c0,5.8,3.6,10.2,8.9,10.2c3.7,0,6.1-1.7,8.6-4.6l10.5,7.6c-4.1,6.1-10.1,10.3-19.9,10.3
		C273.1,187.7,263.2,177.2,263.2,164.5z"/>
	<path class="st0" d="M314.8,172.8v-18.2h-5.3v-12.7h5.3v-11.3h15.7v11.3h10.4v12.7h-10.4v15.1c0,3.1,1.4,4.5,4.3,4.5
		c2.1,0,4.1-0.6,6-1.5V185c-2.8,1.6-6.5,2.6-10.9,2.6C320.4,187.6,314.8,183.4,314.8,172.8z"/>
</g>
<g>
	<path class="st0" d="M370.8,126.3h15.7v60.4h-15.7V126.3z"/>
	<path class="st0" d="M395.3,126.3h16.4v11.6h-16.4V126.3z M395.7,141.9h15.7v44.7h-15.7V141.9z"/>
	<path class="st0" d="M422.9,154.5h-5.2v-12.3h5.2v-1c0-5.1,1.2-8.9,3.8-11.6c2.7-2.7,6.4-3.9,11.7-3.9c4.8,0,7.8,0.5,10.3,1.2v11.1
		c-1.8-0.6-3.6-0.9-5.9-0.9c-2.9,0-4.5,1.3-4.5,4.2v1.1h10.3v12.1h-10v32.2h-15.6V154.5z"/>
	<path class="st0" d="M451,164.5v-0.2c0-13.1,9.3-23.4,22.6-23.4c15.5,0,22.6,11.3,22.6,24.5c0,1,0,2.2-0.1,3.2h-29.9
		c1.2,4.9,4.8,7.4,9.7,7.4c3.7,0,6.7-1.4,9.9-4.5l8.7,7.2c-4.3,5.5-10.5,9.1-19.4,9.1C460.9,187.7,451,178.4,451,164.5z
		 M481.4,160.6c-0.6-5-3.5-8.1-7.8-8.1c-4.1,0-6.9,3.2-7.8,8.1H481.4z"/>
</g>
</svg>
