<?xml version="1.0" encoding="utf-8"?>
<!-- Generator: Adobe Illustrator 26.3.1, SVG Export Plug-In . SVG Version: 6.00 Build 0)  -->
<svg version="1.1" id="Layer_1" xmlns="http://www.w3.org/2000/svg" xmlns:xlink="http://www.w3.org/1999/xlink" x="0px" y="0px"
	 viewBox="0 0 970 250" style="enable-background:new 0 0 970 250;" xml:space="preserve">
<style type="text/css">
	.st0{fill:#490A09;}
</style>
<g>
	<path class="st0" d="M53.3,137.4h-14V126h41v11.4h-14v35.4h-13V137.4z"/>
	<path class="st0" d="M85.3,124h12.7v17.6c2.3-3,5.7-5.7,10.8-5.7c7.7,0,12.3,5.1,12.3,13.3v23.6h-12.7v-19.6c0-3.9-2.1-6.1-5.1-6.1
		c-3.1,0-5.3,2.1-5.3,6.1v19.6H85.3V124z"/>
	<path class="st0" d="M126.1,154.9v-0.1c0-10.6,7.5-18.9,18.2-18.9c12.5,0,18.2,9.2,18.2,19.8c0,0.8,0,1.7-0.1,2.6h-24.2
		c1,3.9,3.9,5.9,7.8,5.9c3,0,5.4-1.1,8-3.7l7,5.8c-3.5,4.4-8.5,7.3-15.7,7.3C134.1,173.6,126.1,166.1,126.1,154.9z M150.7,151.7
		c-0.5-4-2.8-6.5-6.3-6.5c-3.3,0-5.6,2.6-6.3,6.5H150.7z"/>
	<path class="st0" d="M186.5,136.6h12.7v5.1c2.3-3,5.7-5.9,10.8-5.9c7.7,0,12.3,5.1,12.3,13.3v23.6h-12.7v-19.6
		c0-3.9-2.1-6.1-5.1-6.1c-3.1,0-5.3,2.1-5.3,6.1v19.6h-12.7V136.6z"/>
	<path class="st0" d="M227.4,154.9v-0.1c0-10.6,7.5-18.9,18.2-18.9c12.5,0,18.2,9.2,18.2,19.8c0,0.8,0,1.7-0.1,2.6h-24.2
		c1,3.9,3.9,5.9,7.8,5.9c3,0,5.4-1.1,8-3.7l7,5.8c-3.5,4.4-8.5,7.3-15.7,7.3C235.4,173.6,227.4,166.1,227.4,154.9z M252,151.7
		c-0.5-4-2.8-6.5-6.3-6.5c-3.3,0-5.6,2.6-6.3,6.5H252z"/>
	<path class="st0" d="M265,136.6h12.4l4.7,18.2l5.5-18.3h10.5l5.6,18.4l4.9-18.3h12.2L309.8,173h-11l-5.9-18.8l-6,18.8H276
		L265,136.6z"/>
	<path class="st0" d="M344.4,126h37.4v11.4h-24.4v7.9h22.1v10.8h-22.1v16.7h-13V126z"/>
	<path class="st0" d="M386.9,136.6h12.7v7.3c2.1-4.9,5.4-8.2,11.4-7.9v13.4H410c-6.6,0-10.4,3.8-10.4,12.2v11.2h-12.7V136.6z"/>
	<path class="st0" d="M413.4,154.9v-0.1c0-10.6,7.5-18.9,18.2-18.9c12.5,0,18.2,9.2,18.2,19.8c0,0.8,0,1.7-0.1,2.6h-24.2
		c1,3.9,3.9,5.9,7.8,5.9c3,0,5.4-1.1,8-3.7l7,5.8c-3.5,4.4-8.5,7.3-15.7,7.3C421.4,173.6,413.4,166.1,413.4,154.9z M438,151.7
		c-0.5-4-2.8-6.5-6.3-6.5c-3.3,0-5.6,2.6-6.3,6.5H438z"/>
	<path class="st0" d="M455.3,136.6H468v5.1c2.3-3,5.7-5.9,10.8-5.9c7.7,0,12.3,5.1,12.3,13.3v23.6h-12.7v-19.6
		c0-3.9-2.1-6.1-5.1-6.1c-3.1,0-5.3,2.1-5.3,6.1v19.6h-12.7V136.6z"/>
	<path class="st0" d="M496.2,154.9v-0.1c0-10.2,7.9-18.8,19.4-18.8c7.4,0,12.4,3.2,15.4,8.1l-8.6,6.4c-1.7-2.4-3.7-3.8-6.7-3.8
		c-4.1,0-7.1,3.6-7.1,8v0.1c0,4.7,2.9,8.2,7.2,8.2c3,0,4.9-1.4,6.9-3.7l8.5,6.1c-3.3,4.9-8.2,8.3-16.1,8.3
		C504.2,173.6,496.2,165.1,496.2,154.9z"/>
	<path class="st0" d="M535.7,124h12.7v17.6c2.3-3,5.7-5.7,10.8-5.7c7.7,0,12.3,5.1,12.3,13.3v23.6h-12.7v-19.6
		c0-3.9-2.1-6.1-5.1-6.1c-3.1,0-5.3,2.1-5.3,6.1v19.6h-12.7V124z"/>
	<path class="st0" d="M598.7,161.5v-14.7h-4.3v-10.2h4.3v-9.2h12.7v9.2h8.4v10.2h-8.4v12.2c0,2.5,1.1,3.6,3.5,3.6
		c1.7,0,3.3-0.5,4.8-1.2v10c-2.3,1.3-5.3,2.1-8.8,2.1C603.3,173.5,598.7,170.2,598.7,161.5z"/>
	<path class="st0" d="M625.3,124H638v17.6c2.3-3,5.7-5.7,10.8-5.7c7.7,0,12.3,5.1,12.3,13.3v23.6h-12.7v-19.6c0-3.9-2.1-6.1-5.1-6.1
		c-3.1,0-5.3,2.1-5.3,6.1v19.6h-12.7V124z"/>
	<path class="st0" d="M667.6,136.6h12.7v7.3c2.1-4.9,5.4-8.2,11.4-7.9v13.4h-1.1c-6.6,0-10.4,3.8-10.4,12.2v11.2h-12.7V136.6z"/>
	<path class="st0" d="M696.2,124h13.2v9.4h-13.2V124z M696.5,136.6h12.7v36.1h-12.7V136.6z"/>
	<path class="st0" d="M716.5,124h12.7v48.8h-12.7V124z"/>
	<path class="st0" d="M736.6,124h12.7v48.8h-12.7V124z"/>
	<path class="st0" d="M754.9,154.9v-0.1c0-10.6,7.5-18.9,18.2-18.9c12.5,0,18.2,9.2,18.2,19.8c0,0.8,0,1.7-0.1,2.6h-24.2
		c1,3.9,3.9,5.9,7.8,5.9c3,0,5.4-1.1,8-3.7l7,5.8c-3.5,4.4-8.5,7.3-15.7,7.3C762.9,173.6,754.9,166.1,754.9,154.9z M779.5,151.7
		c-0.5-4-2.8-6.5-6.3-6.5c-3.3,0-5.6,2.6-6.3,6.5H779.5z"/>
	<path class="st0" d="M796.8,136.6h12.7v7.3c2.1-4.9,5.4-8.2,11.4-7.9v13.4h-1.1c-6.6,0-10.4,3.8-10.4,12.2v11.2h-12.7V136.6z"/>
	<path class="st0" d="M820.5,159.7h13.2v13h-13.2V159.7z"/>
</g>
</svg>
