<?xml version="1.0" encoding="utf-8"?>
<!-- Generator: Adobe Illustrator 26.3.1, SVG Export Plug-In . SVG Version: 6.00 Build 0)  -->
<svg version="1.1" id="Layer_1" xmlns="http://www.w3.org/2000/svg" xmlns:xlink="http://www.w3.org/1999/xlink" x="0px" y="0px"
	 viewBox="0 0 970 250" style="enable-background:new 0 0 970 250;" xml:space="preserve">
<style type="text/css">
	.st0{fill:#AB1F2D;}
	.st1{fill:#FFFFFF;}
</style>
<path class="st0" d="M800,185.7c-9.3,0-16.9,7.6-16.9,16.9v5c0,9.3,7.6,16.9,16.9,16.9h117.1c9.3,0,16.9-7.6,16.9-16.9v-5
	c0-9.3-7.6-16.9-16.9-16.9H800z"/>
<g>
	<path class="st1" d="M793.2,199.4h3.2l2.8,9.1l3-9.2h2.5l3,9.2l2.8-9.1h3.1L809,213h-2.6l-3-8.8l-3,8.8h-2.6L793.2,199.4z"/>
	<path class="st1" d="M818.7,199.3h2.7l5.8,13.6h-3.1l-1.2-3h-5.7l-1.2,3h-3L818.7,199.3z M821.8,207.2l-1.8-4.4l-1.8,4.4H821.8z"/>
	<path class="st1" d="M830.7,202.1h-4.1v-2.7h11.2v2.7h-4.1v10.7h-3V202.1z"/>
	<path class="st1" d="M838.9,206.2L838.9,206.2c0-3.9,2.9-7,7-7c2.5,0,4.1,0.8,5.3,2.1l-1.9,2.2c-1-0.9-2.1-1.5-3.4-1.5
		c-2.3,0-3.9,1.9-3.9,4.2v0c0,2.3,1.6,4.2,3.9,4.2c1.5,0,2.5-0.6,3.5-1.6l1.9,1.9c-1.4,1.5-2.9,2.4-5.5,2.4
		C841.8,213.1,838.9,210,838.9,206.2z"/>
	<path class="st1" d="M853.7,199.4h3v5.3h5.5v-5.3h3v13.5h-3v-5.4h-5.5v5.4h-3V199.4z"/>
	<path class="st1" d="M874.1,199.4h2.7l6.3,8.3v-8.3h2.9v13.5h-2.5l-6.5-8.6v8.6h-2.9V199.4z"/>
	<path class="st1" d="M888.7,206.2L888.7,206.2c0-3.9,3-7,7.2-7c4.2,0,7.1,3.1,7.1,6.9v0c0,3.8-3,7-7.2,7S888.7,210,888.7,206.2z
		 M899.9,206.2L899.9,206.2c0-2.3-1.7-4.3-4.1-4.3s-4,1.9-4,4.2v0c0,2.3,1.7,4.2,4.1,4.2C898.2,210.4,899.9,208.5,899.9,206.2z"/>
	<path class="st1" d="M903.8,199.4h3.2l2.8,9.1l3-9.2h2.5l3,9.2l2.8-9.1h3.1l-4.6,13.6h-2.6l-3-8.8l-3,8.8h-2.6L903.8,199.4z"/>
</g>
</svg>
