<svg id="Layer_1" xmlns="http://www.w3.org/2000/svg" viewBox="0 0 970 250"><style>.st0{fill:#490a09}</style><path class="st0" d="M63.5 57.8h16.6l26.4 62.5H88l-4.5-11.1h-24l-4.4 11.1H37l26.5-62.5zm15.1 38.1l-6.9-17.7-7 17.7h13.9zM153 114.5v5.9h-16.9V55.6H153v23.2c3.3-4 7.4-7.5 14.5-7.5 11.4 0 21.3 9.5 21.3 24.8v.2c0 15.6-9.8 25.1-21.2 25.1-7.3 0-11.5-3.3-14.6-6.9zm19.2-18.1v-.2c0-6.3-4.3-10.8-9.8-10.8-5.4 0-9.8 4.5-9.8 10.8v.2c0 6.4 4.3 10.9 9.8 10.9 5.5 0 9.8-4.4 9.8-10.9zM196.1 72.4H213V82c2.8-6.6 7.2-10.8 15.2-10.5v17.7h-1.4c-8.8 0-13.8 5.1-13.8 16.1v14.9h-16.9V72.4zM234.1 55.6h17.6V68h-17.6V55.6zm.3 16.8h16.9v48h-16.9v-48zM261 55.6h16.9v64.8H261V55.6zM287.6 55.6h16.9v64.8h-16.9V55.6zM313.9 55.6h17.6V68h-17.6V55.6zm.4 16.8h16.9v48h-16.9v-48zM338.1 106.6v-.2c0-9.9 7.5-15.1 18.8-15.1 4.4 0 8.8.9 11.5 1.9v-.8c0-5-3.1-7.8-9.6-7.8-5.1 0-9 1-13.2 2.7l-3.5-11.9c5.4-2.2 11.2-3.7 19.4-3.7 8.6 0 14.5 2 18.3 5.9 3.6 3.5 5.1 8.5 5.1 15.3v27.6h-16.7v-5c-3.3 3.6-7.8 6-14.1 6-9-.1-16-5.3-16-14.9zm30.5-3.6v-2.2c-1.7-.7-4.1-1.2-6.6-1.2-4.9 0-7.7 2.4-7.7 5.9v.2c0 3.3 2.5 5.2 5.9 5.2 5 0 8.4-3.1 8.4-7.9zM393.6 72.4h16.9v6.7c3.1-4 7.5-7.8 14.4-7.8 10.2 0 16.3 6.7 16.3 17.7v31.4h-16.9v-26c0-5.2-2.8-8.1-6.7-8.1-4.1 0-7.1 2.8-7.1 8.1v26h-16.9v-48zM452.8 105.5V85.9h-5.7V72.4h5.7V60.2h16.9v12.2h11.2V86h-11.2v16.2c0 3.4 1.5 4.8 4.6 4.8 2.2 0 4.3-.6 6.4-1.6v13.2c-3 1.7-7 2.8-11.7 2.8-10.1-.1-16.2-4.5-16.2-15.9zM488.5 55.6h16.9v64.8h-16.9V55.6zM513.5 130.7l5.2-11.8c2.7 1.6 5.5 2.6 7.4 2.6 1.7 0 2.8-.4 3.9-2l-18.8-47.1h17.7l9.6 28.9 9-28.9h17.3l-17.6 46.8c-4.2 11.2-8.7 15.6-18.3 15.6-5.9 0-11-1.7-15.4-4.1z"/><g><path class="st0" d="M44 160.6h-5.6v-13.2H44v-1.1c0-5.5 1.2-9.6 4.1-12.4 2.9-2.9 6.8-4.2 12.5-4.2 5.1 0 8.3.5 11 1.3v12c-2-.6-3.9-1-6.3-1-3.1 0-4.8 1.4-4.8 4.5v1.2h11v13H60.8v34.5H44v-34.6zM76.5 178.6v-31.4h16.9v26c0 5.2 2.8 8.1 6.8 8.1s7-2.8 7-8.1v-26h16.9v48h-16.9v-6.6c-3.1 4-7.5 7.6-14.4 7.6-10.2 0-16.3-6.7-16.3-17.6zM133.1 147.1H150v6.7c3.1-4 7.5-7.8 14.4-7.8 10.2 0 16.3 6.7 16.3 17.7v31.4h-16.9v-26c0-5.2-2.8-8.1-6.7-8.1-4.1 0-7.1 2.8-7.1 8.1v26h-16.9v-48zM189.3 147.1h16.9v6.7c3.1-4 7.5-7.8 14.4-7.8 10.2 0 16.3 6.7 16.3 17.7v31.4H220v-26c0-5.2-2.8-8.1-6.7-8.1-4.1 0-7.1 2.8-7.1 8.1v26h-16.9v-48zM243.1 205.4l5.2-11.8c2.7 1.6 5.5 2.6 7.4 2.6 1.7 0 2.8-.4 3.9-2l-18.8-47.1h17.7l9.6 28.9 9-28.9h17.3L276.8 194c-4.2 11.2-8.7 15.6-18.3 15.6-5.9 0-11-1.7-15.4-4.2zM324.5 147.1h16.9v6.4c3.3-4 7.4-7.5 14.5-7.5 11.4 0 21.3 9.5 21.3 24.8v.2c0 15.6-9.8 25.1-21.2 25.1-7.3 0-11.5-3.3-14.6-6.9v20h-16.9v-62.1zm36.1 24.1v-.2c0-6.3-4.3-10.8-9.8-10.8-5.4 0-9.8 4.5-9.8 10.8v.2c0 6.4 4.3 10.9 9.8 10.9 5.4 0 9.8-4.4 9.8-10.9zM384.4 147.1h16.9v9.7c2.8-6.6 7.2-10.8 15.2-10.5V164H415c-8.8 0-13.8 5.1-13.8 16.1V195h-16.9v-47.9zM419.6 171.4v-.2c0-13.7 11.2-25.1 26.6-25.1 15.3 0 26.4 11.3 26.4 24.9v.2c0 13.7-11.2 25.1-26.6 25.1-15.4 0-26.4-11.3-26.4-24.9zm36.6 0v-.2c0-5.9-4.3-10.8-10.2-10.8-6.1 0-10 4.9-10 10.6v.2c0 5.9 4.3 10.8 10.2 10.8 6.1 0 10-4.9 10-10.6zM476 189.1l6.3-10.2c5.5 3.6 11.5 5.5 16.5 5.5 2.9 0 4.3-.9 4.3-2.6v-.2c0-1.9-2.7-2.7-7.7-4.1-9.5-2.5-17-5.7-17-15.3v-.2c0-10.2 8.2-15.9 19.3-15.9 7 0 14.3 2 19.8 5.6l-5.8 10.6c-5-2.8-10.4-4.4-14.2-4.4-2.6 0-3.9 1-3.9 2.3v.2c0 1.9 2.8 2.8 7.8 4.3 9.5 2.7 17 5.9 17 15.3v.2c0 10.6-7.9 16.1-19.6 16.1-8.2-.1-16.2-2.4-22.8-7.2zM523.3 171.4v-.2c0-14 10-25.1 24.2-25.1 16.6 0 24.2 12.2 24.2 26.3 0 1.1 0 2.3-.1 3.5h-32.1c1.3 5.2 5.1 7.9 10.4 7.9 4 0 7.2-1.5 10.6-4.9l9.3 7.7c-4.6 5.9-11.3 9.8-20.8 9.8-15.1-.1-25.7-10.1-25.7-25zm32.6-4.2c-.6-5.3-3.7-8.7-8.3-8.7-4.4 0-7.5 3.5-8.3 8.7h16.6zM576.9 171.4v-.2c0-13.6 10.6-25 25.7-25 9.8 0 16.4 4.3 20.5 10.7l-11.4 8.5c-2.3-3.2-4.9-5.1-9-5.1-5.4 0-9.4 4.8-9.4 10.6v.2c0 6.2 3.9 10.9 9.6 10.9 4 0 6.6-1.9 9.2-5l11.3 8.2c-4.4 6.6-10.8 11-21.4 11-14.4.1-25.1-11.3-25.1-24.8zM629 178.6v-31.4h16.9v26c0 5.2 2.8 8.1 6.8 8.1s7-2.8 7-8.1v-26h16.9v48h-16.9v-6.6c-3.1 4-7.5 7.6-14.4 7.6-10.2 0-16.3-6.7-16.3-17.6zM688.5 180.2v-19.5h-5.7v-13.6h5.7V135h16.9v12.2h11.2v13.6h-11.2V177c0 3.4 1.5 4.8 4.6 4.8 2.2 0 4.3-.6 6.4-1.6v13.2c-3 1.7-7 2.8-11.7 2.8-10.1-.1-16.2-4.5-16.2-16zM720.6 171.4v-.2c0-13.7 11.2-25.1 26.6-25.1 15.3 0 26.4 11.3 26.4 24.9v.2c0 13.7-11.2 25.1-26.6 25.1-15.3 0-26.4-11.3-26.4-24.9zm36.7 0v-.2c0-5.9-4.3-10.8-10.2-10.8-6.1 0-10 4.9-10 10.6v.2c0 5.9 4.3 10.8 10.2 10.8 6.1 0 10-4.9 10-10.6zM780.8 147.1h16.9v9.7c2.8-6.6 7.2-10.8 15.2-10.5V164h-1.4c-8.8 0-13.8 5.1-13.8 16.1V195h-16.9v-47.9zM812.4 177.8H830v17.3h-17.6v-17.3z"/></g></svg>