<svg id="Layer_1" xmlns="http://www.w3.org/2000/svg" viewBox="0 0 970 250"><style>.st0{fill:#490a09}</style><path class="st0" d="M48.8 30.3h13.5l-13 48.9H35.7l13.1-48.9zM67.5 41.4h13.3l-1.1 4.2c2.6-2.7 6.1-5 10.5-5 5.2 0 8.4 2.7 9.8 6.6 3.6-4 8.2-6.6 13.7-6.6 7.2 0 11.2 4.3 11.2 11.2 0 2-.5 4.5-1.1 6.8l-5.5 20.5h-13.2l5.2-19.8c.3-1 .5-2.2.5-3.1 0-2.5-1.3-4-4-4-3.6 0-5.7 2.5-6.9 6.8l-5.4 20H81.2l5.3-19.8c.3-1 .5-2.2.5-3.1 0-2.5-1.3-4-4-4-3.6 0-5.7 2.5-6.9 6.8l-5.4 20H57.4l10.1-37.5zM135.1 41.4h13.3l-1.1 4.2c2.6-2.7 6.1-5 10.5-5 5.2 0 8.4 2.7 9.8 6.6 3.6-4 8.2-6.6 13.7-6.6 7.2 0 11.2 4.3 11.2 11.2 0 2-.5 4.5-1.1 6.8l-5.5 20.5h-13.2l5.2-19.8c.3-1 .5-2.2.5-3.1 0-2.5-1.3-4-4-4-3.6 0-5.7 2.5-6.9 6.8l-5.4 20h-13.3l5.3-19.8c.3-1 .5-2.2.5-3.1 0-2.5-1.3-4-4-4-3.6 0-5.7 2.5-6.9 6.8l-5.4 20H125l10.1-37.5zM194.1 69.7c0-8.3 6.6-13.3 16.6-13.3 3.4 0 6.6.6 9.6 1.5l.1-.5c.1-.6.3-1.4.3-2.3 0-2.4-1.9-4-6.5-4-3.6 0-7.5.8-10.2 1.9l-1.9-9.6c4-1.4 9.4-2.3 14.9-2.3 11.3 0 16.8 4.5 16.8 12 0 1.7-.3 3.6-.8 5.4l-5.6 20.8h-13.1l1-4c-3.2 3-6.5 4.8-10.9 4.8-6-.1-10.3-4.1-10.3-10.4zm24.4-4.8l.3-1.3c-1.5-.5-3.1-.8-5-.8-4.2 0-6.9 2-6.9 5.4 0 2.2 1.5 3.5 3.8 3.5 3.5.1 6.8-2.9 7.8-6.8zM275.6 42.2h-14.7l3.2-11.9h42.8l-3.1 11.9h-14.7l-9.9 37h-13.6l10-37zM296.3 69.7c0-8.3 6.6-13.3 16.6-13.3 3.4 0 6.6.6 9.6 1.5l.1-.5c.1-.6.3-1.4.3-2.3 0-2.4-1.9-4-6.5-4-3.6 0-7.5.8-10.2 1.9l-1.9-9.6c4-1.4 9.4-2.3 14.9-2.3 11.3 0 16.8 4.5 16.8 12 0 1.7-.3 3.6-.8 5.4l-5.6 20.8h-13.1l1-4c-3.2 3-6.5 4.8-10.9 4.8-6-.1-10.3-4.1-10.3-10.4zm24.4-4.8l.3-1.3c-1.5-.5-3.1-.8-5-.8-4.2 0-6.9 2-6.9 5.4 0 2.2 1.5 3.5 3.8 3.5 3.5.1 6.8-2.9 7.8-6.8zM341 71c0-1.5.3-3.1.7-5l3.8-14H341l2.9-10.7h4.5l2.6-9.6h13.3l-2.6 9.6h8.8L367.6 52h-8.8l-3.3 12c-.2.9-.3 1.7-.3 2.3 0 1.5.9 2.4 3 2.4 1.5 0 3.1-.3 5-1l-2.9 11c-2.4.8-5.1 1.3-7.8 1.3-7.8 0-11.5-3.4-11.5-9zM371 71c0-1.5.3-3.1.7-5l3.8-14H371l2.9-10.7h4.5l2.6-9.6h13.3l-2.6 9.6h8.8L397.6 52h-8.8l-3.3 12c-.2.9-.3 1.7-.3 2.3 0 1.5.9 2.4 3 2.4 1.5 0 3.1-.3 5-1l-2.9 11c-2.4.8-5.1 1.3-7.8 1.3-7.7 0-11.5-3.4-11.5-9zM397.6 69.7c0-8.3 6.6-13.3 16.6-13.3 3.4 0 6.6.6 9.6 1.5l.1-.5c.1-.6.3-1.4.3-2.3 0-2.4-1.9-4-6.5-4-3.6 0-7.5.8-10.2 1.9l-1.9-9.6c4-1.4 9.4-2.3 14.9-2.3 11.3 0 16.8 4.5 16.8 12 0 1.7-.3 3.6-.8 5.4L431 79.2h-13l1-4c-3.2 3-6.5 4.8-10.9 4.8-6.2 0-10.5-4-10.5-10.3zm24.4-4.8l.3-1.3c-1.5-.5-3.1-.8-5-.8-4.2 0-6.9 2-6.9 5.4 0 2.2 1.5 3.5 3.8 3.5 3.5.1 6.8-2.9 7.8-6.8zM447.9 41.4h13.3l-2 7.6c3.6-5.4 8-8.7 14.2-8.2l-3.8 14h-1.1c-7.3 0-11.9 4-14.3 13.1L451 79.2h-13.3l10.2-37.8zM468.1 69.7c0-8.3 6.6-13.3 16.6-13.3 3.4 0 6.6.6 9.6 1.5l.1-.5c.1-.6.3-1.4.3-2.3 0-2.4-1.9-4-6.5-4-3.6 0-7.5.8-10.2 1.9l-1.9-9.6c4-1.4 9.4-2.3 14.9-2.3 11.3 0 16.8 4.5 16.8 12 0 1.7-.3 3.6-.8 5.4l-5.6 20.8h-13.1l1-4c-3.2 3-6.5 4.8-10.9 4.8-6-.1-10.3-4.1-10.3-10.4zm24.4-4.8l.3-1.3c-1.5-.5-3.1-.8-5-.8-4.2 0-6.9 2-6.9 5.4 0 2.2 1.5 3.5 3.8 3.5 3.5.1 6.8-2.9 7.8-6.8zM518.4 41.4h13.3l-1.2 4.3c2.6-2.7 6.4-5.2 10.8-5.2 6.8 0 11 4.3 11 11.3 0 2-.5 4.4-1.1 6.8l-5.4 20.5h-13.3l5.3-19.8c.3-1 .4-2.2.4-3.1 0-2.5-1.5-4-4.2-4-3.7 0-5.9 2.5-7.1 6.8l-5.4 20h-13.3l10.2-37.6zM562.6 41.4h13.3l-10.1 37.8h-13.3l10.1-37.8zm3.4-13.2h13.8l-2.7 9.8h-13.8l2.7-9.8zM576.9 65.6h13.8L587 79.2h-13.8l3.7-13.6z"/></svg>