<svg id="Layer_1" xmlns="http://www.w3.org/2000/svg" viewBox="0 0 970 250"><style>.st0{fill:#490a09}</style><path class="st0" d="M36.8 150.4l7.5-9c4.8 3.8 10.2 5.9 15.8 5.9 3.6 0 5.6-1.3 5.6-3.4v-.1c0-2-1.6-3.1-8.2-4.7-10.4-2.4-18.4-5.3-18.4-15.4v-.1c0-9.1 7.2-15.6 18.9-15.6 8.3 0 14.8 2.2 20.1 6.5l-6.8 9.6c-4.5-3.1-9.4-4.8-13.7-4.8-3.3 0-4.9 1.4-4.9 3.1v.1c0 2.2 1.7 3.2 8.4 4.7 11.2 2.4 18.2 6.1 18.2 15.2v.1c0 10-7.9 15.9-19.8 15.9-8.4.1-16.7-2.6-22.7-8zM83.7 138.9v-.1c0-11 7.9-19.8 19.1-19.8 13.1 0 19.1 9.6 19.1 20.7 0 .8 0 1.8-.1 2.7H96.5c1 4.1 4 6.2 8.2 6.2 3.1 0 5.7-1.2 8.4-3.8l7.3 6.1c-3.6 4.6-8.9 7.7-16.4 7.7-11.9 0-20.3-7.9-20.3-19.7zm25.7-3.2c-.5-4.2-2.9-6.8-6.6-6.8-3.5 0-5.9 2.7-6.6 6.8h13.2zM125.6 146.8v-.1c0-7.8 5.9-11.9 14.8-11.9 3.5 0 6.9.7 9.1 1.5v-.6c0-3.9-2.4-6.1-7.5-6.1-4 0-7.1.8-10.4 2.1l-2.7-9.4c4.3-1.7 8.8-2.9 15.3-2.9 6.8 0 11.4 1.6 14.4 4.6 2.9 2.8 4 6.7 4 12v21.7h-13.1v-3.9c-2.6 2.9-6.1 4.7-11.1 4.7-7.3 0-12.8-4.1-12.8-11.7zm24-2.8v-1.7c-1.3-.6-3.2-1-5.2-1-3.8 0-6.1 1.9-6.1 4.7v.1c0 2.6 2 4.1 4.7 4.1 3.9 0 6.6-2.5 6.6-6.2zM166.5 152.9l5-8c4.3 2.9 9.1 4.3 13 4.3 2.3 0 3.4-.7 3.4-2v-.2c0-1.5-2.1-2.1-6.1-3.2-7.5-2-13.4-4.5-13.4-12.1v-.1c0-8 6.4-12.5 15.1-12.5 5.5 0 11.2 1.6 15.6 4.4l-4.5 8.4c-3.9-2.2-8.2-3.5-11.2-3.5-2 0-3.1.8-3.1 1.8v.1c0 1.5 2.2 2.2 6.1 3.4 7.5 2.1 13.4 4.7 13.4 12v.1c0 8.3-6.2 12.6-15.4 12.6-6.4.1-12.7-1.7-17.9-5.5zM203.7 138.9v-.1c0-10.8 8.8-19.8 20.9-19.8 12.1 0 20.8 8.9 20.8 19.6v.1c0 10.8-8.8 19.8-20.9 19.8-12.1.1-20.8-8.8-20.8-19.6zm28.8 0v-.1c0-4.6-3.4-8.5-8-8.5-4.8 0-7.9 3.8-7.9 8.4v.1c0 4.6 3.4 8.5 8 8.5 4.8 0 7.9-3.8 7.9-8.4zM251 119.9h13.3v5.3c2.4-3.1 5.9-6.1 11.3-6.1 8 0 12.8 5.3 12.8 13.9v24.7h-13.3v-20.5c0-4.1-2.2-6.4-5.3-6.4-3.2 0-5.6 2.2-5.6 6.4v20.5H251v-37.8zM322.4 121.1l-8.2 1.9-2.6-10.5 14.3-4h9.8v49.2h-13.3v-36.6zM365.8 130.5h-4.4v-10.4h4.4v-.8c0-4.3 1-7.5 3.2-9.8 2.3-2.3 5.4-3.3 9.8-3.3 4 0 6.6.4 8.7 1v9.4c-1.5-.5-3.1-.8-5-.8-2.4 0-3.8 1.1-3.8 3.6v.9h8.7v10.2H379v27.2h-13.2v-27.2zM391.6 119.9h13.3v7.6c2.2-5.2 5.7-8.5 11.9-8.2v14h-1.1c-6.9 0-10.8 4-10.8 12.7v11.7h-13.3v-37.8zM419.3 138.9v-.1c0-11 7.9-19.8 19.1-19.8 13.1 0 19.1 9.6 19.1 20.7 0 .8 0 1.8-.1 2.7h-25.3c1 4.1 4 6.2 8.2 6.2 3.1 0 5.7-1.2 8.4-3.8l7.3 6.1c-3.6 4.6-8.9 7.7-16.4 7.7-11.9 0-20.3-7.9-20.3-19.7zm25.7-3.2c-.5-4.2-2.9-6.8-6.6-6.8-3.5 0-5.9 2.7-6.6 6.8H445zM461.5 138.9v-.1c0-11 7.9-19.8 19.1-19.8 13.1 0 19.1 9.6 19.1 20.7 0 .8 0 1.8-.1 2.7h-25.3c1 4.1 4 6.2 8.2 6.2 3.1 0 5.7-1.2 8.4-3.8l7.3 6.1c-3.6 4.6-8.9 7.7-16.4 7.7-11.9 0-20.3-7.9-20.3-19.7zm25.7-3.2c-.5-4.2-2.9-6.8-6.6-6.8-3.5 0-5.9 2.7-6.6 6.8h13.2zM523.1 138.9v-.1c0-10.8 8.8-19.8 20.9-19.8 12.1 0 20.8 8.9 20.8 19.6v.1c0 10.8-8.8 19.8-20.9 19.8-12.1.1-20.8-8.8-20.8-19.6zm28.8 0v-.1c0-4.6-3.4-8.5-8-8.5-4.8 0-7.9 3.8-7.9 8.4v.1c0 4.6 3.4 8.5 8 8.5 4.9 0 7.9-3.8 7.9-8.4zM570.4 119.9h13.3v5.3c2.4-3.1 5.9-6.1 11.3-6.1 8 0 12.8 5.3 12.8 13.9v24.7h-13.3v-20.5c0-4.1-2.2-6.4-5.3-6.4-3.2 0-5.6 2.2-5.6 6.4v20.5h-13.3v-37.8z"/><g><path class="st0" d="M40.5 174h14.3l11.7 18.9L78.2 174h14.3v48.9H79v-28.1l-12.5 19.1h-.3l-12.4-19v27.9H40.5V174zM101.1 174h13.5v18.3H132V174h13.5v48.9H132v-18.6h-17.4v18.6h-13.5V174zM152.2 214.1l17.5-18.5h-16.8v-10.5h34.4v8.7l-17.5 18.5h17.5v10.5h-35v-8.7zM211.2 198.6v-.1c0-14.2 11-25.4 25.8-25.4 10 0 16.4 4.2 20.7 10.2l-10.2 7.9c-2.8-3.5-6-5.7-10.7-5.7-6.8 0-11.7 5.8-11.7 12.9v.1c0 7.3 4.8 13.1 11.7 13.1 5.1 0 8.1-2.4 11-5.9L258 213c-4.6 6.4-10.8 11-21.6 11-14-.2-25.2-10.9-25.2-25.4zM263.1 171.9h13.3v18.4c2.4-3.1 5.9-6 11.3-6 8 0 12.8 5.3 12.8 13.9v24.7h-13.3v-20.5c0-4.1-2.2-6.4-5.3-6.4-3.2 0-5.6 2.2-5.6 6.4v20.5H263v-51zM305.8 204.1v-.1c0-10.8 8.8-19.8 20.9-19.8 12.1 0 20.8 8.9 20.8 19.6v.1c0 10.8-8.8 19.8-20.9 19.8-12.1.1-20.8-8.8-20.8-19.6zm28.8 0v-.1c0-4.6-3.4-8.5-8-8.5-4.8 0-7.9 3.8-7.9 8.4v.1c0 4.6 3.4 8.5 8 8.5 4.9 0 7.9-3.8 7.9-8.4zM353.1 171.9h13.8v9.8h-13.8v-9.8zm.3 13.2h13.3v37.8h-13.3v-37.8zM372.5 204.1v-.1c0-10.7 8.3-19.7 20.2-19.7 7.7 0 12.9 3.4 16.1 8.4l-9 6.7c-1.8-2.5-3.8-4-7.1-4-4.3 0-7.4 3.8-7.4 8.4v.1c0 4.9 3.1 8.6 7.5 8.6 3.1 0 5.2-1.5 7.3-3.9l8.9 6.4c-3.5 5.2-8.5 8.7-16.8 8.7-11.3.1-19.7-8.9-19.7-19.6zM411.3 204.1v-.1c0-11 7.9-19.8 19.1-19.8 13.1 0 19.1 9.6 19.1 20.7 0 .8 0 1.8-.1 2.7H424c1 4.1 4 6.2 8.2 6.2 3.1 0 5.7-1.2 8.4-3.8l7.3 6.1c-3.6 4.6-8.9 7.7-16.4 7.7-11.8 0-20.2-7.9-20.2-19.7zm25.7-3.2c-.5-4.2-2.9-6.8-6.6-6.8-3.5 0-5.9 2.7-6.6 6.8H437zM454.2 209.2H468v13.6h-13.8v-13.6z"/></g></svg>