<svg id="Layer_1" xmlns="http://www.w3.org/2000/svg" viewBox="0 0 970 250"><style>.st0{fill:#ab1f2d}.st1{fill:#fff}</style><path class="st0" d="M800.2 186c-9.3 0-16.9 7.6-16.9 16.9v5c0 9.3 7.6 16.9 16.9 16.9h117.1c9.3 0 16.9-7.6 16.9-16.9v-5c0-9.3-7.6-16.9-16.9-16.9H800.2z"/><path class="st1" d="M793.4 199.7h3.2l2.8 9.1 3-9.2h2.5l3 9.2 2.8-9.1h3.1l-4.6 13.6h-2.6l-3-8.8-3 8.8H798l-4.6-13.6zM818.9 199.6h2.7l5.8 13.6h-3.1l-1.2-3h-5.7l-1.2 3h-3l5.7-13.6zm3.1 8l-1.8-4.4-1.8 4.4h3.6zM830.9 202.5h-4.1v-2.7H838v2.7h-4.1v10.7h-3v-10.7zM839.1 206.5c0-3.9 2.9-7 7-7 2.5 0 4.1.8 5.3 2.1l-1.9 2.2c-1-.9-2.1-1.5-3.4-1.5-2.3 0-3.9 1.9-3.9 4.2 0 2.3 1.6 4.2 3.9 4.2 1.5 0 2.5-.6 3.5-1.6l1.9 1.9c-1.4 1.5-2.9 2.4-5.5 2.4-4 0-6.9-3-6.9-6.9zM853.9 199.7h3v5.3h5.5v-5.3h3v13.5h-3v-5.4h-5.5v5.4h-3v-13.5zM874.3 199.7h2.7l6.3 8.3v-8.3h2.9v13.5h-2.5l-6.5-8.6v8.6h-2.9v-13.5zM888.9 206.5c0-3.9 3-7 7.2-7s7.1 3.1 7.1 6.9c0 3.8-3 7-7.2 7s-7.1-3.1-7.1-6.9zm11.2 0c0-2.3-1.7-4.3-4.1-4.3s-4 1.9-4 4.2c0 2.3 1.7 4.2 4.1 4.2 2.4.1 4-1.8 4-4.1zM904.1 199.7h3.2l2.8 9.1 3-9.2h2.5l3 9.2 2.8-9.1h3.1l-4.6 13.6h-2.6l-3-8.8-3 8.8h-2.6l-4.6-13.6z"/></svg>