<svg id="Layer_1" xmlns="http://www.w3.org/2000/svg" xmlns:xlink="http://www.w3.org/1999/xlink" viewBox="0 0 970 250"><style>.st0,.st1{clip-path:url(#SVGID_00000074414223270302213780000017310432448484539798_);fill:#ac1f2d}.st1{fill:#fff}</style><defs><path id="SVGID_1_" d="M843.9 11h106v100.3h-106z"/></defs><clipPath id="SVGID_00000108303138020516424720000014437352007671616910_"><use xlink:href="#SVGID_1_" overflow="visible"/></clipPath><path d="M943.1 62c0 25.5-20.7 46.2-46.2 46.2-25.5 0-46.2-20.7-46.2-46.2s20.7-46.2 46.2-46.2c25.5 0 46.2 20.7 46.2 46.2" clip-path="url(#SVGID_00000108303138020516424720000014437352007671616910_)" fill="#ac1f2d"/><path d="M915.3 53.6v5.3h6L914.2 70h17.5v-5.4h-7.5l6.8-10.9h-15.7zM881 46.9l-5.6 12.5-5.5-12.5h-7.8v23h6.4V57.7l5.6 12.2h2.8l5.5-12.6v12.6h6.5v-23H881zm25.3 0V55h-8.1v-8.1h-7.1v23h7.1v-9.1h8.1v9.1h7.1v-23h-7.1zM914.9 79.3h6.2v-1.8H917v-1.2h3.6v-1.7H917v-1.1h4v-1.8h-6.1v7.6zm-5 .2c1.7 0 2.6-.7 3.4-1.7l-1.6-1.1c-.5.6-.9.9-1.7.9-1.1 0-1.8-.9-1.8-2s.7-2 1.8-2c.7 0 1.2.3 1.7.9l1.6-1.2c-.7-.9-1.7-1.6-3.2-1.6-2.3 0-4 1.7-4 3.9-.1 2.2 1.7 3.9 3.8 3.9m-7.8-.2h2.1v-7.6h-2.1v7.6zm-5.8-1.7c-1.1 0-1.9-1-1.9-2.1s.8-2 1.9-2c1.2 0 2 1 2 2-.1 1.1-.9 2.1-2 2.1m0 1.9c2.3 0 4.1-1.8 4.1-3.9 0-2.2-1.7-3.9-4.1-3.9-2.3 0-4.1 1.8-4.1 3.9 0 2.1 1.7 3.9 4.1 3.9m-12.8-.2h2.1v-2.9h2.7v2.9h2.1v-7.6h-2.1v2.8h-2.7v-2.8h-2.1v7.6zm-4.9.2c1.7 0 2.6-.7 3.4-1.7l-1.6-1.1c-.5.6-.9.9-1.7.9-1.1 0-1.8-.9-1.8-2s.7-2 1.8-2c.7 0 1.2.3 1.7.9l1.6-1.2c-.7-.9-1.7-1.6-3.2-1.6-2.3 0-4 1.7-4 3.9-.1 2.2 1.6 3.9 3.8 3.9" clip-path="url(#SVGID_00000108303138020516424720000014437352007671616910_)" fill="#fff"/></svg>