<?xml version="1.0" encoding="utf-8"?>
<!-- Generator: Adobe Illustrator 26.3.1, SVG Export Plug-In . SVG Version: 6.00 Build 0)  -->
<svg version="1.1" id="Layer_1" xmlns="http://www.w3.org/2000/svg" xmlns:xlink="http://www.w3.org/1999/xlink" x="0px" y="0px"
	 viewBox="0 0 336 280" style="enable-background:new 0 0 336 280;" xml:space="preserve">
<style type="text/css">
	.st0{clip-path:url(#SVGID_00000049205697767778024240000012046265235377756049_);fill:#AC1F2D;}
	.st1{clip-path:url(#SVGID_00000049205697767778024240000012046265235377756049_);fill:#FFFFFF;}
</style>
<g>
	<defs>
		<rect id="SVGID_1_" x="13.5" y="10" width="54.7" height="55.2"/>
	</defs>
	<clipPath id="SVGID_00000071524322674719476350000003224637515006405266_">
		<use xlink:href="#SVGID_1_"  style="overflow:visible;"/>
	</clipPath>
	<path style="clip-path:url(#SVGID_00000071524322674719476350000003224637515006405266_);fill:#AC1F2D;" d="M64.7,37
		c0,12.8-10.4,23.2-23.2,23.2S18.4,49.8,18.4,37c0-12.8,10.4-23.2,23.2-23.2S64.7,24.2,64.7,37"/>
	<path style="clip-path:url(#SVGID_00000071524322674719476350000003224637515006405266_);fill:#FFFFFF;" d="M50.8,32.8v2.6h3
		L50.3,41H59v-2.7h-3.8l3.4-5.5H50.8z M33.6,29.5l-2.8,6.3L28,29.5h-3.9V41h3.2v-6.1l2.8,6.1h1.4l2.8-6.3V41h3.2V29.5H33.6z
		 M46.3,29.5v4.1h-4.1v-4.1h-3.6V41h3.6v-4.6h4.1V41h3.6V29.5H46.3z"/>
	<path style="clip-path:url(#SVGID_00000071524322674719476350000003224637515006405266_);fill:#FFFFFF;" d="M50.6,45.7h3.1v-0.9h-2
		v-0.6h1.8v-0.8h-1.8v-0.6h2v-0.9h-3.1V45.7z M48.1,45.8c0.8,0,1.3-0.4,1.7-0.9L49,44.4c-0.2,0.3-0.5,0.5-0.9,0.5
		c-0.5,0-0.9-0.4-0.9-1v0c0-0.6,0.4-1,0.9-1c0.4,0,0.6,0.2,0.8,0.4l0.8-0.6c-0.3-0.5-0.8-0.8-1.6-0.8c-1.2,0-2,0.9-2,2v0
		C46.1,45,47,45.8,48.1,45.8 M44.2,45.7h1.1v-3.8h-1.1V45.7z M41.2,44.8c-0.6,0-1-0.5-1-1v0c0-0.6,0.4-1,1-1c0.6,0,1,0.5,1,1v0
		C42.2,44.4,41.8,44.8,41.2,44.8 M41.2,45.8c1.2,0,2.1-0.9,2.1-2v0c0-1.1-0.9-2-2-2c-1.2,0-2.1,0.9-2.1,2v0
		C39.2,44.9,40,45.8,41.2,45.8 M34.8,45.7h1.1v-1.4h1.4v1.4h1.1v-3.8h-1.1v1.4h-1.4v-1.4h-1.1V45.7z M32.4,45.8
		c0.8,0,1.3-0.4,1.7-0.9l-0.8-0.6c-0.2,0.3-0.5,0.5-0.9,0.5c-0.5,0-0.9-0.4-0.9-1v0c0-0.6,0.4-1,0.9-1c0.4,0,0.6,0.2,0.8,0.4
		l0.8-0.6c-0.3-0.5-0.8-0.8-1.6-0.8c-1.2,0-2,0.9-2,2v0C30.4,45,31.3,45.8,32.4,45.8"/>
</g>
</svg>
