<svg id="Layer_1" xmlns="http://www.w3.org/2000/svg" viewBox="0 0 160 600"><style>.st0{fill:#490a09}</style><path class="st0" d="M15.2 293.5c0-6.7 5.3-12.1 12.5-12.1s12.3 5.4 12.3 12v.1c0 6.6-5.3 12-12.5 12s-12.3-5.3-12.3-12zm18.3 0c0-3.4-2.4-6.3-5.9-6.3-3.5 0-5.8 2.8-5.8 6.2v.1c0 3.3 2.4 6.2 5.9 6.2 3.5 0 5.8-2.8 5.8-6.2zM43 287.2h6.3v2.5c1.2-1.5 2.8-2.9 5.3-2.9 3.8 0 6.1 2.5 6.1 6.6V305h-6.3v-9.7c0-1.9-1-3-2.5-3s-2.6 1.1-2.6 3v9.7H43v-17.8zM64.1 280.9h6.3V305h-6.3v-24.1zM73.4 308.9l1.9-4.4c1 .6 2 1 2.7 1 .6 0 1.1-.2 1.5-.7l-7-17.5h6.6l3.6 10.8 3.4-10.8h6.4L86 304.7c-1.6 4.2-3.2 5.8-6.8 5.8-2.3-.1-4.2-.7-5.8-1.6z"/><g><path class="st0" d="M13.3 327.2c0-5.1 4.2-9.4 9.9-9.4s9.8 4.2 9.8 9.3v.1c0 5.1-4.2 9.3-9.9 9.3-5.6-.1-9.8-4.2-9.8-9.3zm13.7 0c0-2.2-1.6-4.1-3.8-4.1-2.3 0-3.7 1.8-3.7 4v.1c0 2.2 1.6 4 3.8 4 2.2-.1 3.7-1.9 3.7-4zM35.7 318.2H42v2.5c1.2-1.5 2.8-2.9 5.3-2.9 3.8 0 6.1 2.5 6.1 6.6V336h-6.3v-9.7c0-1.9-1-3-2.5-3s-2.6 1.1-2.6 3v9.7h-6.3v-17.8z"/></g><g><path class="st0" d="M14.4 343.9h6.8l5.5 8.9 5.5-8.9H39V367h-6.4v-13.3l-5.9 9h-.1l-5.9-9V367h-6.3v-23.1zM43.1 343.9h6.4v8.6h8.2v-8.6h6.4V367h-6.4v-8.8h-8.2v8.8h-6.4v-23.1zM67.2 362.9l8.3-8.7h-8v-5h16.3v4.1l-8.3 8.7h8.3v5H67.2v-4.1z"/></g><g><path class="st0" d="M13.6 387.4c0-6.8 5.2-12.1 12.2-12.1 4.7 0 7.8 2 9.8 4.8l-4.8 3.7c-1.3-1.6-2.8-2.7-5-2.7-3.2 0-5.5 2.7-5.5 6.1v.1c0 3.5 2.3 6.2 5.5 6.2 2.4 0 3.8-1.1 5.2-2.8l4.8 3.4c-2.2 3-5.1 5.2-10.2 5.2-6.7 0-12-5-12-11.9zM38.2 374.8h6.3v8.7c1.2-1.5 2.8-2.8 5.3-2.8 3.8 0 6.1 2.5 6.1 6.6V399h-6.3v-9.7c0-1.9-1-3-2.5-3s-2.6 1.1-2.6 3v9.7h-6.3v-24.2zM58.3 390c0-5.1 4.2-9.4 9.9-9.4s9.8 4.2 9.8 9.3v.1c0 5.1-4.2 9.3-9.9 9.3-5.6 0-9.8-4.2-9.8-9.3zm13.7 0c0-2.2-1.6-4.1-3.8-4.1-2.3 0-3.7 1.8-3.7 4v.1c0 2.2 1.6 4 3.8 4 2.2 0 3.7-1.8 3.7-4zM80.7 374.8h6.5v4.6h-6.5v-4.6zm.2 6.2h6.3v17.9h-6.3V381zM89.9 390c0-5.1 3.9-9.4 9.6-9.4 3.7 0 6.1 1.6 7.6 4l-4.3 3.2c-.9-1.2-1.8-1.9-3.3-1.9-2 0-3.5 1.8-3.5 4v.1c0 2.3 1.5 4.1 3.6 4.1 1.5 0 2.4-.7 3.4-1.8l4.2 3c-1.7 2.4-4 4.1-8 4.1-5.3-.1-9.3-4.3-9.3-9.4zM108.2 390c0-5.3 3.7-9.4 9-9.4 6.2 0 9 4.5 9 9.8v1.3h-11.9c.5 1.9 1.9 2.9 3.9 2.9 1.5 0 2.7-.6 4-1.8l3.5 2.9c-1.7 2.2-4.2 3.6-7.8 3.6-5.7 0-9.7-3.7-9.7-9.3zm12.2-1.5c-.2-2-1.4-3.2-3.1-3.2-1.6 0-2.8 1.3-3.1 3.2h6.2zM128.5 392.5h6.5v6.4h-6.5v-6.4z"/></g></svg>