<svg id="Layer_1" xmlns="http://www.w3.org/2000/svg" viewBox="0 0 160 600"><style>.st0{fill:#490a09}</style><path class="st0" d="M19.7 204.9h6.5l3.1 8.9 7.9-8.9h7.2L38.1 228h-6.4l3.5-13.3-8.3 9h-.1l-3.4-9-3.6 13.3h-6.3l6.2-23.1zM43.3 223.1c0-1 .2-2.1.5-3.2l2.6-9.7h6.3l-2.5 9.3c-.1.5-.2 1.1-.2 1.5 0 1.2.7 1.9 2 1.9 1.7 0 2.8-1.2 3.3-3.2l2.5-9.4h6.3L59.3 228H53l.5-2c-1.2 1.3-3 2.4-5.1 2.4-3.1 0-5.1-2-5.1-5.3zM67.4 210.2h6.3l-1 3.6c1.7-2.5 3.8-4.1 6.7-3.9l-1.8 6.6h-.5c-3.4 0-5.6 1.9-6.8 6.2l-1.5 5.4h-6.3l4.9-17.9zM78.4 221.1c0-6.4 4.5-11.3 9.6-11.3 2.7 0 4.3 1.2 5.4 2.8l2.3-8.7h6.3L95.6 228h-6.3l.5-1.9c-1.4 1.4-3.1 2.3-5.1 2.3-3.5 0-6.3-2.7-6.3-7.3zm13.8-2.9c0-1.9-1.3-3.2-3.1-3.2-2.3 0-4.4 2.3-4.4 5.1 0 1.9 1.2 3.1 3 3.1 2.5.1 4.5-2.3 4.5-5zM109.7 223.8c1.3 0 2.4-.4 3.8-1.4l2.9 3.4c-1.8 1.6-4.2 2.7-7.3 2.7-5.3 0-8.5-3.1-8.5-7.9 0-5.3 4.1-10.8 10.7-10.8 5.3 0 7.6 3.5 7.6 7.4 0 1.2-.3 2.5-.7 3.7h-11.8c.1 1.7 1.2 2.9 3.3 2.9zm3.5-6.2c.1-.3.2-.6.2-1 0-1.2-.8-2.3-2.4-2.3-1.7 0-3.3 1.1-4.1 3.2h6.3zM123.6 210.2h6.3l-1 3.6c1.7-2.5 3.8-4.1 6.7-3.9l-1.8 6.6h-.5c-3.4 0-5.6 1.9-6.8 6.2l-1.5 5.4h-6.3l4.9-17.9z"/><g><path class="st0" d="M18.4 235.9h6.4L18.6 259h-6.4l6.2-23.1zM27.2 241.2h6.3l-.6 2c1.2-1.3 3-2.4 5.1-2.4 3.2 0 5.2 2 5.2 5.3 0 1-.2 2.1-.5 3.2l-2.6 9.7h-6.3l2.5-9.3c.1-.5.2-1.1.2-1.5 0-1.2-.7-1.9-2-1.9-1.7 0-2.8 1.2-3.3 3.2l-2.5 9.4h-6.3l4.8-17.7zM44.9 252.6h6.5l-1.7 6.4h-6.5l1.7-6.4zM54.9 252.6h6.5l-1.7 6.4h-6.5l1.7-6.4zM64.9 252.6h6.5l-1.7 6.4h-6.5l1.7-6.4z"/></g></svg>