<svg id="Layer_1" xmlns="http://www.w3.org/2000/svg" viewBox="0 0 160 600"><style>.st0{fill:#490a09}</style><path class="st0" d="M12.6 260.6h6.6l5.4 8.8 5.4-8.8h6.6v22.7h-6.2v-13l-5.8 8.9h-.1l-5.8-8.8v12.9h-6.1v-22.7zM40.2 277.2v-11.5h6.1v9.5c0 1.9 1 2.9 2.5 2.9s2.6-1 2.6-2.9v-9.5h6.1v17.5h-6.1v-2.4c-1.1 1.5-2.8 2.8-5.2 2.8-3.7 0-6-2.4-6-6.4zM60.9 265.7H67v3.5c1-2.4 2.6-3.9 5.5-3.8v6.5H72c-3.2 0-5 1.8-5 5.9v5.4h-6.1v-17.5zM73.8 274.6c0-5.8 3.6-9.2 7.7-9.2 2.7 0 4.2 1.2 5.4 2.5v-8.3H93v23.6h-6.1v-2.3c-1.2 1.5-2.7 2.7-5.3 2.7-4.2 0-7.8-3.4-7.8-9zm13.2-.1c0-2.4-1.6-4-3.6-4s-3.6 1.6-3.6 3.9v.1c0 2.3 1.6 4 3.6 4s3.6-1.7 3.6-4zM95.6 274.6c0-5.2 3.7-9.2 8.8-9.2 6.1 0 8.8 4.4 8.8 9.6v1.3h-11.7c.5 1.9 1.9 2.9 3.8 2.9 1.5 0 2.6-.6 3.9-1.8l3.4 2.8c-1.7 2.1-4.1 3.6-7.6 3.6-5.5-.2-9.4-3.8-9.4-9.2zm11.9-1.6c-.2-1.9-1.4-3.2-3-3.2s-2.7 1.3-3 3.2h6zM115.9 265.7h6.1v3.5c1-2.4 2.6-3.9 5.5-3.8v6.5h-.5c-3.2 0-5 1.8-5 5.9v5.4h-6.1v-17.5zM128.4 281l2.3-3.7c2 1.3 4.2 2 6 2 1.1 0 1.6-.3 1.6-.9v-.1c0-.7-1-1-2.8-1.5-3.5-.9-6.2-2.1-6.2-5.6v-.1c0-3.7 3-5.8 7-5.8 2.6 0 5.2.7 7.2 2l-2.1 3.9c-1.8-1-3.8-1.6-5.2-1.6-.9 0-1.4.4-1.4.8v.1c0 .7 1 1 2.8 1.6 3.5 1 6.2 2.2 6.2 5.6v.1c0 3.9-2.9 5.9-7.2 5.9-2.8-.1-5.7-.9-8.2-2.7z"/><g><path class="st0" d="M13.4 307.8v-7.1h-2.1v-5h2.1v-4.4h6.1v4.4h4.1v5h-4.1v5.9c0 1.2.6 1.7 1.7 1.7.8 0 1.6-.2 2.3-.6v4.8c-1.1.6-2.6 1-4.3 1-3.6.1-5.8-1.5-5.8-5.7zM25.1 304.6c0-5 4.1-9.2 9.7-9.2s9.6 4.1 9.6 9.1v.1c0 5-4.1 9.2-9.7 9.2-5.6-.2-9.6-4.3-9.6-9.2zm13.3 0c0-2.2-1.6-4-3.7-4-2.2 0-3.7 1.8-3.7 3.9v.1c0 2.1 1.6 3.9 3.7 3.9 2.3-.1 3.7-1.8 3.7-3.9zM54.6 311l2.3-3.7c2 1.3 4.2 2 6 2 1.1 0 1.6-.3 1.6-.9v-.1c0-.7-1-1-2.8-1.5-3.5-.9-6.2-2.1-6.2-5.6v-.1c0-3.7 3-5.8 7-5.8 2.6 0 5.2.7 7.2 2l-2.1 3.9c-1.8-1-3.8-1.6-5.2-1.6-.9 0-1.4.4-1.4.8v.1c0 .7 1 1 2.8 1.6 3.5 1 6.2 2.2 6.2 5.6v.1c0 3.9-2.9 5.9-7.2 5.9-2.8-.1-5.7-.9-8.2-2.7zM71.9 304.6c0-5 4.1-9.2 9.7-9.2s9.6 4.1 9.6 9.1v.1c0 5-4.1 9.2-9.7 9.2-5.6-.2-9.6-4.3-9.6-9.2zm13.4 0c0-2.2-1.6-4-3.7-4-2.2 0-3.7 1.8-3.7 3.9v.1c0 2.1 1.6 3.9 3.7 3.9 2.2-.1 3.7-1.8 3.7-3.9zM94 289.6h6.1v23.6H94v-23.6zM102.2 295.7h6.5l3.4 10.2 3.4-10.2h6.4l-7 17.6h-5.6l-7.1-17.6zM122 304.6c0-5.2 3.7-9.2 8.8-9.2 6.1 0 8.8 4.4 8.8 9.6v1.3h-11.7c.5 1.9 1.9 2.9 3.8 2.9 1.5 0 2.6-.6 3.9-1.8l3.4 2.8c-1.7 2.1-4.1 3.6-7.6 3.6-5.5-.2-9.4-3.8-9.4-9.2zm11.9-1.6c-.2-1.9-1.4-3.2-3-3.2s-2.7 1.3-3 3.2h6zM141.9 306.9h6.4v6.3h-6.4v-6.3z"/></g></svg>