<svg id="Layer_1" xmlns="http://www.w3.org/2000/svg" viewBox="0 0 160 600"><style>.st0{fill:#ab1f2d}.st1{fill:#fff}</style><path class="st0" d="M26.8 532.5c-7.5 0-13.7 6.1-13.7 13.7v4c0 7.5 6.1 13.7 13.7 13.7h94.8c7.5 0 13.7-6.1 13.7-13.7v-4c0-7.5-6.1-13.7-13.7-13.7H26.8z"/><path class="st1" d="M23.9 543.3h2.4l2.1 7 2.3-7h2l2.3 7 2.1-7h2.4L36 553.7h-2l-2.3-6.8-2.3 6.8h-2l-3.5-10.4zM43.6 543.3h2.1l4.4 10.4h-2.4l-.9-2.3h-4.4l-.9 2.3h-2.3l4.4-10.4zm2.4 6l-1.4-3.4-1.4 3.4H46zM52.8 545.4h-3.1v-2.1h8.6v2.1h-3.1v8.2h-2.3v-8.2zM59 548.5c0-3 2.2-5.4 5.4-5.4 2 0 3.1.7 4.1 1.6l-1.4 1.7c-.8-.7-1.6-1.2-2.6-1.2-1.7 0-3 1.4-3 3.2 0 1.8 1.2 3.3 3 3.3 1.2 0 1.9-.5 2.7-1.2l1.4 1.5c-1.1 1.1-2.2 1.8-4.2 1.8-3.1.1-5.4-2.3-5.4-5.3zM70.4 543.3h2.3v4.1h4.2v-4.1h2.3v10.3h-2.3v-4.2h-4.2v4.2h-2.3v-10.3zM86.1 543.3h2.1l4.8 6.4v-6.4h2.2v10.3h-1.9l-5-6.6v6.6h-2.2v-10.3zM97.3 548.5c0-3 2.3-5.4 5.5-5.4s5.5 2.4 5.5 5.3-2.3 5.4-5.5 5.4c-3.2.1-5.5-2.3-5.5-5.3zm8.6 0c0-1.8-1.3-3.3-3.1-3.3s-3.1 1.4-3.1 3.2c0 1.8 1.3 3.3 3.1 3.3 1.9.1 3.1-1.4 3.1-3.2zM109 543.3h2.4l2.1 7 2.3-7h2l2.3 7 2.1-7h2.4l-3.5 10.4h-2l-2.3-6.8-2.3 6.8h-2l-3.5-10.4z"/></svg>