<svg id="Layer_1" xmlns="http://www.w3.org/2000/svg" xmlns:xlink="http://www.w3.org/1999/xlink" viewBox="0 0 160 600"><style>.st0,.st1{clip-path:url(#SVGID_00000062891152522395828040000017335769839085272973_);fill:#ac1f2d}.st1{fill:#fff}</style><defs><path id="SVGID_1_" d="M11.5 4.9h63.6V75H11.5z"/></defs><clipPath id="SVGID_00000167380774117340778630000017290491079018907068_"><use xlink:href="#SVGID_1_" overflow="visible"/></clipPath><path d="M70.7 39.2c0 16.3-13.2 29.4-29.4 29.4S11.8 55.5 11.8 39.2C11.8 23 25 9.8 41.3 9.8S70.7 23 70.7 39.2" clip-path="url(#SVGID_00000167380774117340778630000017290491079018907068_)" fill="#ac1f2d"/><path d="M53 33.9v3.4h3.8l-4.5 7.1h11.1V41h-4.8l4.3-7H53zm-21.9-4.3l-3.5 8-3.5-8h-5v14.6h4.1v-7.8l3.5 7.8h1.8l3.5-8v8h4.1V29.6h-5zm16.2 0v5.2h-5.2v-5.2h-4.5v14.6h4.5v-5.8h5.2v5.8h4.5V29.6h-4.5zM52.7 50.3h3.9v-1.1H54v-.8h2.3v-1.1H54v-.7h2.6v-1.1h-3.9v4.8zm-3.1.1c1.1 0 1.7-.5 2.1-1.1l-1-.7c-.3.4-.6.6-1.1.6-.7 0-1.2-.6-1.2-1.3 0-.7.5-1.3 1.2-1.3.5 0 .8.2 1.1.6l1-.8c-.4-.6-1.1-1-2.1-1-1.5 0-2.6 1.1-2.6 2.5.1 1.4 1.2 2.5 2.6 2.5m-5-.1H46v-4.8h-1.3v4.8zm-3.7-1.1c-.7 0-1.2-.6-1.2-1.3 0-.7.5-1.3 1.2-1.3s1.2.6 1.2 1.3c0 .7-.5 1.3-1.2 1.3m0 1.2c1.5 0 2.6-1.1 2.6-2.5s-1.1-2.5-2.6-2.5-2.6 1.1-2.6 2.5 1.1 2.5 2.6 2.5m-8.2-.1H34v-1.8h1.7v1.8H37v-4.8h-1.3v1.8H34v-1.8h-1.3v4.8zm-3.1.1c1.1 0 1.7-.5 2.1-1.1l-1-.7c-.3.4-.6.6-1.1.6-.7 0-1.2-.6-1.2-1.3 0-.7.5-1.3 1.2-1.3.5 0 .8.2 1.1.6l1-.8c-.4-.6-1.1-1-2.1-1-1.5 0-2.6 1.1-2.6 2.5.1 1.4 1.2 2.5 2.6 2.5" clip-path="url(#SVGID_00000167380774117340778630000017290491079018907068_)" fill="#fff"/></svg>