<svg id="Layer_1" xmlns="http://www.w3.org/2000/svg" viewBox="0 0 300 50"><style>.st0{fill:#490a09}</style><path class="st0" d="M15.1 9.4h3.7l1.8 5.1 4.5-5.1h4.1l-3.6 13.2h-3.7l2-7.6-4.7 5.2h-.1l-1.9-5.1-2 7.6h-3.6l3.5-13.3zM28.6 19.8c0-.5.1-1.2.3-1.8l1.5-5.6H34l-1.4 5.4c-.1.3-.1.6-.1.8 0 .7.4 1.1 1.2 1.1 1 0 1.6-.7 1.9-1.9l1.5-5.4h3.6L38 22.6h-3.6l.3-1.2c-.7.7-1.7 1.4-2.9 1.4-2 .1-3.2-1.1-3.2-3zM42.5 12.4H46l-.5 2.1c1-1.5 2.2-2.3 3.8-2.2l-1 3.8H48c-2 0-3.2 1.1-3.9 3.5l-.8 3.1h-3.6l2.8-10.3zM48.7 18.7c0-3.7 2.6-6.5 5.5-6.5 1.5 0 2.5.7 3.1 1.6l1.3-5h3.6l-3.7 13.8H55l.3-1.1c-.8.8-1.8 1.3-2.9 1.3-2.1.1-3.7-1.5-3.7-4.1zm7.9-1.7c0-1.1-.7-1.8-1.8-1.8-1.3 0-2.5 1.3-2.5 2.9 0 1.1.7 1.8 1.7 1.8 1.5 0 2.6-1.4 2.6-2.9zM66.7 20.2c.7 0 1.4-.2 2.2-.8l1.7 2c-1 .9-2.4 1.5-4.2 1.5-3 0-4.9-1.8-4.9-4.5 0-3 2.4-6.2 6.1-6.2 3 0 4.4 2 4.4 4.2 0 .7-.2 1.4-.4 2.1h-6.8c0 1 .6 1.7 1.9 1.7zm2-3.5c.1-.2.1-.4.1-.5 0-.7-.5-1.3-1.4-1.3-1 0-1.9.6-2.3 1.9h3.6zM74.6 12.4h3.6l-.5 2.1c1-1.5 2.2-2.3 3.8-2.2l-1 3.8h-.3c-2 0-3.2 1.1-3.9 3.5l-.8 3.1h-3.6l2.7-10.3zM89.1 9.4h3.7l-3.6 13.2h-3.7l3.6-13.2zM94.2 12.4h3.6l-.3 1.2c.7-.7 1.7-1.4 2.9-1.4 1.9 0 3 1.2 3 3.1 0 .5-.1 1.2-.3 1.8l-1.5 5.6H98l1.4-5.4c.1-.3.1-.6.1-.8 0-.7-.4-1.1-1.1-1.1-1 0-1.6.7-1.9 1.9L95 22.6h-3.6l2.8-10.2zM104.4 19h3.7l-1 3.7h-3.7l1-3.7zM110.1 19h3.7l-1 3.7h-3.7l1-3.7zM115.8 19h3.7l-1 3.7h-3.7l1-3.7z"/></svg>