<svg id="Layer_1" xmlns="http://www.w3.org/2000/svg" viewBox="0 0 300 50"><style>.st0{fill:#490a09}</style><path class="st0" d="M12.5 33.6c0-3.8 3.1-6.9 7.2-6.9s7.1 3 7.1 6.8-3.1 6.9-7.2 6.9-7.1-3-7.1-6.8zm10.5 0c0-1.9-1.4-3.6-3.4-3.6s-3.3 1.6-3.3 3.5 1.4 3.6 3.4 3.6c2 .1 3.3-1.6 3.3-3.5zM28.5 30H32v1.4c.7-.9 1.6-1.7 3.1-1.7 2.2 0 3.5 1.4 3.5 3.8v6.7H35v-5.5c0-1.1-.6-1.7-1.4-1.7-.9 0-1.5.6-1.5 1.7v5.5h-3.6V30zM40.5 26.4h3.6v13.8h-3.6V26.4zM45.9 42.4l1.1-2.5c.6.3 1.2.5 1.6.5.4 0 .6-.1.8-.4l-4-10h3.8l2 6.2 1.9-6.2h3.7l-3.7 10c-.9 2.4-1.9 3.3-3.9 3.3-1.3 0-2.4-.4-3.3-.9zM62.8 35.2c0-3 2.4-5.4 5.7-5.4 3.3 0 5.6 2.4 5.6 5.3s-2.4 5.4-5.7 5.4c-3.2 0-5.6-2.4-5.6-5.3zm7.8 0c0-1.3-.9-2.3-2.2-2.3-1.3 0-2.1 1-2.1 2.3 0 1.2.9 2.3 2.2 2.3 1.3-.1 2.1-1.1 2.1-2.3zM75.6 30h3.6v1.4c.7-.9 1.6-1.7 3.1-1.7 2.2 0 3.5 1.4 3.5 3.8v6.7h-3.6v-5.5c0-1.1-.6-1.7-1.4-1.7-.9 0-1.5.6-1.5 1.7v5.5h-3.6V30zM93.1 27H97l3.2 5.1 3.2-5.1h3.9v13.2h-3.7v-7.6l-3.4 5.2h-.2l-3.4-5.1v7.6H93V27zM109.5 27h3.7v5h4.7v-5h3.7v13.2h-3.7v-5h-4.7v5h-3.7V27zM123.3 37.9l4.7-5h-4.6V30h9.3v2.4l-4.7 5h4.7v2.9h-9.5v-2.4zM139.3 33.6c0-3.9 3-6.9 7-6.9 2.7 0 4.4 1.1 5.6 2.8l-2.8 2.1c-.8-.9-1.6-1.6-2.9-1.6-1.9 0-3.2 1.6-3.2 3.5 0 2 1.3 3.5 3.2 3.5 1.4 0 2.2-.6 3-1.6l2.8 2c-1.2 1.7-2.9 3-5.9 3-3.7.1-6.8-2.8-6.8-6.8zM153.4 26.4h3.6v5c.7-.9 1.6-1.6 3.1-1.6 2.2 0 3.5 1.4 3.5 3.8v6.7H160v-5.5c0-1.1-.6-1.7-1.4-1.7-.9 0-1.5.6-1.5 1.7v5.5h-3.6V26.4zM165 35.2c0-3 2.4-5.4 5.7-5.4 3.3 0 5.6 2.4 5.6 5.3s-2.4 5.4-5.7 5.4c-3.2 0-5.6-2.4-5.6-5.3zm7.8 0c0-1.3-.9-2.3-2.2-2.3-1.3 0-2.1 1-2.1 2.3 0 1.2.9 2.3 2.2 2.3 1.3-.1 2.1-1.1 2.1-2.3zM177.8 26.4h3.7V29h-3.7v-2.6zm.1 3.6h3.6v10.2h-3.6V30zM183.1 35.2c0-2.9 2.3-5.4 5.5-5.4 2.1 0 3.5.9 4.4 2.3l-2.4 1.8c-.5-.7-1-1.1-1.9-1.1-1.2 0-2 1-2 2.3 0 1.3.8 2.3 2 2.3.9 0 1.4-.4 2-1.1l2.4 1.7c-.9 1.4-2.3 2.3-4.6 2.3-3.2.2-5.4-2.3-5.4-5.1zM193.6 35.2c0-3 2.1-5.4 5.2-5.4 3.5 0 5.2 2.6 5.2 5.6v.7h-7c.3 1.1 1.1 1.7 2.2 1.7.9 0 1.5-.3 2.3-1l2 1.6c-1 1.2-2.4 2.1-4.4 2.1-3.3 0-5.5-2.2-5.5-5.3zm6.9-.9c-.1-1.1-.8-1.9-1.8-1.9-.9 0-1.6.7-1.8 1.9h3.6zM205.2 36.5h3.7v3.7h-3.7v-3.7z"/></svg>