<svg id="Layer_1" xmlns="http://www.w3.org/2000/svg" viewBox="0 0 300 50"><style>.st0{fill:#490a09}</style><path class="st0" d="M12.2 17.4h3.9l3.2 5.1 3.2-5.1h3.9v13.2h-3.7V23l-3.4 5.2h-.1l-3.4-5.1v7.6h-3.6V17.4zM28.3 27.1v-6.7h3.6V26c0 1.1.6 1.7 1.5 1.7s1.5-.6 1.5-1.7v-5.5h3.6v10.2h-3.6v-1.4c-.7.9-1.6 1.6-3.1 1.6-2.2 0-3.5-1.5-3.5-3.8zM40.4 20.4H44v2.1c.6-1.4 1.5-2.3 3.2-2.2V24h-.3C45 24 44 25.1 44 27.5v3.2h-3.6V20.4zM47.9 25.6c0-3.4 2.1-5.4 4.5-5.4 1.6 0 2.5.7 3.1 1.5v-4.8h3.6v13.8h-3.6v-1.4c-.7.9-1.6 1.6-3.1 1.6-2.4 0-4.5-2-4.5-5.3zm7.7-.1c0-1.4-.9-2.3-2.1-2.3s-2.1.9-2.1 2.3.9 2.3 2.1 2.3 2.1-.9 2.1-2.3zM60.7 25.6c0-3 2.1-5.4 5.2-5.4 3.5 0 5.2 2.6 5.2 5.6v.7h-6.8c.3 1.1 1.1 1.7 2.2 1.7.9 0 1.5-.3 2.3-1l2 1.6c-1 1.2-2.4 2.1-4.4 2.1-3.4 0-5.7-2.1-5.7-5.3zm7-.9c-.1-1.1-.8-1.9-1.8-1.9-.9 0-1.6.7-1.8 1.9h3.6zM72.6 20.4h3.6v2.1c.6-1.4 1.5-2.3 3.2-2.2V24h-.3c-1.9 0-2.9 1.1-2.9 3.4v3.2h-3.6V20.4zM79.9 29.4l1.3-2.2c1.2.8 2.5 1.2 3.5 1.2.6 0 .9-.2.9-.5 0-.4-.6-.6-1.6-.9-2-.5-3.6-1.2-3.6-3.3 0-2.2 1.7-3.4 4.1-3.4 1.5 0 3 .4 4.2 1.2l-1.2 2.3c-1.1-.6-2.2-.9-3-.9-.5 0-.8.2-.8.5 0 .4.6.6 1.7.9 2 .6 3.6 1.3 3.6 3.3 0 2.3-1.7 3.4-4.2 3.4-1.8-.1-3.5-.6-4.9-1.6z"/><g><path class="st0" d="M96.2 27.5v-4.2H95v-2.9h1.2v-2.6h3.6v2.6h2.4v2.9h-2.4v3.5c0 .7.3 1 1 1 .5 0 .9-.1 1.4-.3v2.8c-.6.4-1.5.6-2.5.6-2.2 0-3.5-1-3.5-3.4zM103.1 25.6c0-3 2.4-5.4 5.7-5.4 3.3 0 5.6 2.4 5.6 5.3s-2.4 5.4-5.7 5.4c-3.3 0-5.6-2.4-5.6-5.3zm7.8 0c0-1.3-.9-2.3-2.2-2.3-1.3 0-2.1 1-2.1 2.3 0 1.2.9 2.3 2.2 2.3 1.3-.1 2.1-1.1 2.1-2.3zM120.4 29.4l1.3-2.2c1.2.8 2.5 1.2 3.5 1.2.6 0 .9-.2.9-.5 0-.4-.6-.6-1.6-.9-2-.5-3.6-1.2-3.6-3.3 0-2.2 1.7-3.4 4.1-3.4 1.5 0 3 .4 4.2 1.2l-1.2 2.3c-1.1-.6-2.2-.9-3-.9-.5 0-.8.2-.8.5 0 .4.6.6 1.7.9 2 .6 3.6 1.3 3.6 3.3 0 2.3-1.7 3.4-4.2 3.4-1.8-.1-3.5-.6-4.9-1.6zM130.5 25.6c0-3 2.4-5.4 5.7-5.4 3.3 0 5.6 2.4 5.6 5.3s-2.4 5.4-5.7 5.4c-3.3 0-5.6-2.4-5.6-5.3zm7.8 0c0-1.3-.9-2.3-2.2-2.3-1.3 0-2.1 1-2.1 2.3 0 1.2.9 2.3 2.2 2.3 1.2-.1 2.1-1.1 2.1-2.3zM143.4 16.8h3.6v13.8h-3.6V16.8zM148.2 20.4h3.8l2 6 2-6h3.7l-4.1 10.3h-3.3l-4.1-10.3zM159.8 25.6c0-3 2.1-5.4 5.2-5.4 3.5 0 5.2 2.6 5.2 5.6v.7h-6.8c.3 1.1 1.1 1.7 2.2 1.7.9 0 1.5-.3 2.3-1l2 1.6c-1 1.2-2.4 2.1-4.4 2.1-3.4 0-5.7-2.1-5.7-5.3zm7-.9c-.1-1.1-.8-1.9-1.8-1.9-.9 0-1.6.7-1.8 1.9h3.6zM171.4 27h3.7v3.7h-3.7V27z"/></g></svg>