<svg id="Layer_1" xmlns="http://www.w3.org/2000/svg" xmlns:xlink="http://www.w3.org/1999/xlink" viewBox="0 0 300 50"><style>.st0,.st1{clip-path:url(#SVGID_00000126294868541544618670000010386229504103562663_);fill:#ac1f2d}.st1{fill:#fff}</style><defs><path id="SVGID_1_" d="M270.6 9.9h22.7v21.5h-22.7z"/></defs><clipPath id="SVGID_00000145738329594391423270000004615009298469087629_"><use xlink:href="#SVGID_1_" overflow="visible"/></clipPath><path d="M291.8 20.8c0 5.5-4.4 9.9-9.9 9.9s-9.9-4.4-9.9-9.9 4.4-9.9 9.9-9.9 9.9 4.4 9.9 9.9" clip-path="url(#SVGID_00000145738329594391423270000004615009298469087629_)" fill="#ac1f2d"/><path d="M285.9 19v1.1h1.3l-1.5 2.4h3.7v-1.2h-1.6l1.5-2.3h-3.4zm-7.4-1.4l-1.2 2.7-1.2-2.7h-1.7v4.9h1.4v-2.6l1.2 2.6h.6l1.2-2.7v2.7h1.4v-4.9h-1.7zm5.5 0v1.7h-1.7v-1.7h-1.5v4.9h1.5v-1.9h1.7v1.9h1.5v-4.9H284zM285.8 24.5h1.3v-.4h-.9v-.3h.8v-.4h-.8v-.2h.9v-.4h-1.3v1.7zm-1.1.1c.4 0 .6-.2.7-.4l-.3-.2c-.1.1-.2.2-.4.2s-.4-.2-.4-.4.2-.4.4-.4.3.1.4.2l.3-.3c-.1-.2-.4-.3-.7-.3-.5 0-.9.4-.9.8.1.4.5.8.9.8m-1.6-.1h.5v-1.6h-.5v1.6zm-1.3-.4c-.2 0-.4-.2-.4-.4s.2-.4.4-.4.4.2.4.4-.2.4-.4.4m0 .5c.5 0 .9-.4.9-.8 0-.5-.4-.8-.9-.8s-.9.4-.9.8.4.8.9.8m-2.7-.1h.5v-.6h.6v.6h.5v-1.6h-.5v.6h-.6v-.6h-.5v1.6zm-1.1.1c.4 0 .6-.2.7-.4l-.3-.2c-.1.1-.2.2-.4.2s-.4-.2-.4-.4.2-.4.4-.4.3.1.4.2l.3-.3c-.1-.2-.4-.3-.7-.3-.5 0-.9.4-.9.8.1.4.4.8.9.8" clip-path="url(#SVGID_00000145738329594391423270000004615009298469087629_)" fill="#fff"/></svg>