<svg id="Layer_1" xmlns="http://www.w3.org/2000/svg" viewBox="0 0 160 600"><style>.st0{fill:#490a09}</style><path class="st0" d="M13.2 151.6h12.9c3.2 0 5.4.8 6.9 2.3 1 1 1.6 2.3 1.6 4.1v.1c0 2.9-1.7 4.6-3.9 5.6 3.1 1 5 2.7 5 6.2v.1c0 4.3-3.5 6.9-9.5 6.9h-13v-25.3zm11.2 10c2.1 0 3.3-.7 3.3-2.2v-.1c0-1.4-1.1-2.2-3.2-2.2H20v4.4h4.4zm1 9.6c2.1 0 3.3-.8 3.3-2.3v-.1c0-1.4-1.1-2.3-3.4-2.3H20v4.6h5.4zM37.8 167.1c0-5.8 4.1-10.3 9.8-10.3 6.7 0 9.8 4.9 9.8 10.7v1.4h-13c.5 2.1 2.1 3.2 4.2 3.2 1.6 0 2.9-.6 4.3-2l3.8 3.1c-1.9 2.4-4.6 4-8.5 4-6.1 0-10.4-4-10.4-10.1zm13.2-1.7c-.3-2.2-1.5-3.5-3.4-3.5-1.8 0-3 1.4-3.4 3.5H51zM60.4 150.5h6.8v9.5c1.3-1.6 3.1-3.1 5.8-3.1 4.1 0 6.6 2.7 6.6 7.2v12.7h-6.8v-10.5c0-2.1-1.1-3.3-2.7-3.3-1.7 0-2.9 1.2-2.9 3.3v10.5h-6.8v-26.3zM83.2 150.5h7.1v5h-7.1v-5zm.1 6.8h6.8v19.5h-6.8v-19.5zM94 157.3h6.8v2.7c1.3-1.6 3.1-3.2 5.8-3.2 4.1 0 6.6 2.7 6.6 7.2v12.7h-6.8v-10.5c0-2.1-1.1-3.3-2.7-3.3-1.7 0-2.9 1.2-2.9 3.3v10.5H94v-19.4zM116.1 167.1c0-6.4 4-10.3 8.6-10.3 3 0 4.7 1.3 6 2.8v-9.2h6.8v26.3h-6.8v-2.6c-1.3 1.6-3 3-5.9 3-4.7.1-8.7-3.7-8.7-10zm14.6 0c0-2.6-1.8-4.5-4-4.5s-4 1.8-4 4.4v.1c0 2.6 1.8 4.4 4 4.4 2.3 0 4-1.9 4-4.4z"/><g><path class="st0" d="M12 202.1c0-5.8 4.1-10.3 9.8-10.3 6.7 0 9.8 4.9 9.8 10.7v1.4h-13c.5 2.1 2.1 3.2 4.2 3.2 1.6 0 2.9-.6 4.3-2l3.8 3.1c-1.9 2.4-4.6 4-8.5 4-6 0-10.4-4-10.4-10.1zm13.3-1.7c-.3-2.2-1.5-3.5-3.4-3.5-1.8 0-3 1.4-3.4 3.5h6.8zM32.3 192.3h7.2l3.7 11.4 3.7-11.4H54l-7.8 19.6H40l-7.7-19.6zM54.3 202.1c0-5.8 4.1-10.3 9.8-10.3 6.7 0 9.8 4.9 9.8 10.7v1.4h-13c.5 2.1 2.1 3.2 4.2 3.2 1.6 0 2.9-.6 4.3-2l3.8 3.1c-1.9 2.4-4.6 4-8.5 4-6.1 0-10.4-4-10.4-10.1zm13.3-1.7c-.3-2.2-1.5-3.5-3.4-3.5-1.8 0-3 1.4-3.4 3.5h6.8zM76.9 192.3h6.8v3.9c1.1-2.7 2.9-4.4 6.2-4.2v7.2h-.6c-3.6 0-5.6 2.1-5.6 6.6v6h-6.8v-19.5zM91.8 215.9l2.1-4.8c1.1.6 2.2 1 3 1 .7 0 1.2-.2 1.6-.8l-7.6-19.1H98l3.9 11.7 3.7-11.7h7l-7.1 19c-1.7 4.5-3.5 6.3-7.4 6.3-2.5.1-4.5-.6-6.3-1.6z"/></g><g><path class="st0" d="M12.8 227.3h6.8v2.6c1.3-1.6 3-3 5.9-3 4.6 0 8.6 3.9 8.6 10.1v.1c0 6.3-4 10.2-8.6 10.2-3 0-4.7-1.3-5.9-2.8v8.1h-6.8v-25.3zm14.7 9.7c0-2.6-1.8-4.5-4-4.5s-4 1.8-4 4.4v.1c0 2.6 1.8 4.4 4 4.4 2.2.1 4-1.7 4-4.4zM36.4 237.1c0-5.8 4.1-10.3 9.8-10.3 6.7 0 9.8 4.9 9.8 10.7v1.4H43c.5 2.1 2.1 3.2 4.2 3.2 1.6 0 2.9-.6 4.3-2l3.8 3.1c-1.9 2.4-4.6 4-8.5 4-6.1 0-10.4-4-10.4-10.1zm13.2-1.7c-.3-2.2-1.5-3.5-3.4-3.5-1.8 0-3 1.4-3.4 3.5h6.8zM59 227.3h6.8v3.9c1.1-2.7 2.9-4.4 6.2-4.2v7.2h-.6c-3.6 0-5.6 2.1-5.6 6.6v6H59v-19.5zM77 232.8h-2.3v-5.4H77v-.4c0-2.2.5-3.9 1.7-5 1.2-1.2 2.8-1.7 5.1-1.7 2.1 0 3.4.2 4.5.5v4.8c-.8-.3-1.6-.4-2.6-.4-1.3 0-1.9.6-1.9 1.8v.5h4.5v5.3h-4.4v14H77v-14zM89.2 237.1c0-5.8 4.1-10.3 9.8-10.3 6.7 0 9.8 4.9 9.8 10.7v1.4h-13c.5 2.1 2.1 3.2 4.2 3.2 1.6 0 2.9-.6 4.3-2l3.8 3.1c-1.9 2.4-4.6 4-8.5 4-6.1 0-10.4-4-10.4-10.1zm13.3-1.7c-.3-2.2-1.5-3.5-3.4-3.5-1.8 0-3 1.4-3.4 3.5h6.8zM111 237.1c0-5.6 4.3-10.2 10.4-10.2 4 0 6.7 1.7 8.3 4.4l-4.6 3.5c-.9-1.3-2-2.1-3.6-2.1-2.2 0-3.8 1.9-3.8 4.3v.1c0 2.5 1.6 4.4 3.9 4.4 1.6 0 2.7-.8 3.7-2l4.6 3.3c-1.8 2.7-4.4 4.5-8.7 4.5-5.9-.1-10.2-4.7-10.2-10.2zM133.5 240.7v-7.9h-2.3v-5.5h2.3v-4.9h6.8v4.9h4.5v5.5h-4.5v6.6c0 1.4.6 1.9 1.9 1.9.9 0 1.8-.3 2.6-.6v5.4c-1.2.7-2.8 1.1-4.8 1.1-4.1 0-6.5-1.8-6.5-6.5z"/></g><g><path class="st0" d="M13 263.5h6.8v26.3H13v-26.3zM23.6 263.5h7.1v5h-7.1v-5zm.2 6.8h6.8v19.5h-6.8v-19.5zM35.7 275.7h-2.3v-5.4h2.3v-.4c0-2.2.5-3.9 1.7-5 1.2-1.2 2.8-1.7 5.1-1.7 2.1 0 3.4.2 4.5.5v4.8c-.8-.3-1.6-.4-2.6-.4-1.3 0-1.9.6-1.9 1.8v.5H47v5.3h-4.4v14h-6.8v-14zM47.9 280.1c0-5.8 4.1-10.3 9.8-10.3 6.7 0 9.8 4.9 9.8 10.7v1.4h-13c.5 2.1 2.1 3.2 4.2 3.2 1.6 0 2.9-.6 4.3-2l3.8 3.1c-1.9 2.4-4.6 4-8.5 4-6.1 0-10.4-4.1-10.4-10.1zm13.2-1.7c-.3-2.2-1.5-3.5-3.4-3.5-1.8 0-3 1.4-3.4 3.5h6.8z"/></g></svg>