<svg id="Layer_1" xmlns="http://www.w3.org/2000/svg" xmlns:xlink="http://www.w3.org/1999/xlink" viewBox="0 0 160 600"><style>.st0,.st1{clip-path:url(#SVGID_00000183243718302958633260000015255043670339219379_);fill:#ac1f2d}.st1{fill:#fff}</style><defs><path id="SVGID_1_" d="M11.9 5.4h63.6v70.1H11.9z"/></defs><clipPath id="SVGID_00000105428126714294025560000006727079176989339028_"><use xlink:href="#SVGID_1_" overflow="visible"/></clipPath><path d="M71.1 39.8c0 16.3-13.2 29.4-29.4 29.4S12.2 56 12.2 39.8c0-16.3 13.2-29.4 29.4-29.4s29.5 13.1 29.5 29.4" clip-path="url(#SVGID_00000105428126714294025560000006727079176989339028_)" fill="#ac1f2d"/><path d="M53.4 34.4v3.4h3.8l-4.5 7.1h11.1v-3.4H59l4.3-7h-9.9zm-21.9-4.2l-3.5 8-3.5-8h-5v14.6h4.1V37l3.5 7.8h1.8l3.5-8v8h4.1V30.2h-5zm16.1 0v5.2h-5.2v-5.2h-4.5v14.6h4.5V39h5.2v5.8h4.5V30.2h-4.5zM53.1 50.8H57v-1.1h-2.6v-.8h2.3v-1.1h-2.3v-.7H57V46h-3.9v4.8zm-3.2.1c1.1 0 1.7-.5 2.1-1.1l-1-.7c-.3.4-.6.6-1.1.6-.7 0-1.2-.6-1.2-1.3 0-.7.5-1.3 1.2-1.3.5 0 .8.2 1.1.6l1-.8c-.4-.6-1.1-1-2.1-1-1.5 0-2.6 1.1-2.6 2.5.2 1.4 1.3 2.5 2.6 2.5m-4.9-.1h1.3V46H45v4.8zm-3.8-1.1c-.7 0-1.2-.6-1.2-1.3 0-.7.5-1.3 1.2-1.3s1.2.6 1.2 1.3c.1.7-.4 1.3-1.2 1.3m0 1.2c1.5 0 2.6-1.1 2.6-2.5s-1.1-2.5-2.6-2.5-2.6 1.1-2.6 2.5 1.1 2.5 2.6 2.5m-8.1-.1h1.3V49h1.7v1.8h1.3V46h-1.3v1.8h-1.7V46h-1.3v4.8zm-3.1.1c1.1 0 1.7-.5 2.1-1.1l-1-.7c-.3.4-.6.6-1.1.6-.7 0-1.2-.6-1.2-1.3 0-.7.5-1.3 1.2-1.3.5 0 .8.2 1.1.6l1-.8c-.4-.6-1.1-1-2.1-1-1.5 0-2.6 1.1-2.6 2.5.1 1.4 1.2 2.5 2.6 2.5" clip-path="url(#SVGID_00000105428126714294025560000006727079176989339028_)" fill="#fff"/></svg>