<svg id="Layer_1" xmlns="http://www.w3.org/2000/svg" viewBox="0 0 320 50"><style>.st0{fill:#490a09}</style><path class="st0" d="M16.3 30h-4.1v-3.3h12.1V30h-4.1v10.4h-3.8V30zM25.7 26.1h3.7v5.2c.7-.9 1.7-1.7 3.2-1.7 2.3 0 3.6 1.5 3.6 3.9v7h-3.7v-5.8c0-1.2-.6-1.8-1.5-1.8s-1.6.6-1.6 1.8v5.8h-3.7V26.1zM37.7 35.2c0-3.1 2.2-5.6 5.4-5.6 3.7 0 5.4 2.7 5.4 5.8v.8h-7.1c.3 1.2 1.1 1.7 2.3 1.7.9 0 1.6-.3 2.4-1.1l2.1 1.7c-1 1.3-2.5 2.2-4.6 2.2-3.5 0-5.9-2.2-5.9-5.5zm7.3-1c-.1-1.2-.8-1.9-1.8-1.9s-1.6.8-1.8 1.9H45zM55.5 29.8h3.7v1.5c.7-.9 1.7-1.7 3.2-1.7 2.3 0 3.6 1.5 3.6 3.9v7h-3.7v-5.8c0-1.2-.6-1.8-1.5-1.8s-1.6.6-1.6 1.8v5.8h-3.7V29.8zM67.5 35.2c0-3.1 2.2-5.6 5.4-5.6 3.7 0 5.4 2.7 5.4 5.8v.8h-7.1c.3 1.2 1.1 1.7 2.3 1.7.9 0 1.6-.3 2.4-1.1l2.1 1.7c-1 1.3-2.5 2.2-4.6 2.2-3.5 0-5.9-2.2-5.9-5.5zm7.2-1c-.1-1.2-.8-1.9-1.8-1.9s-1.6.8-1.8 1.9h3.6zM78.6 29.8h3.7l1.4 5.3 1.6-5.4h3.1l1.6 5.4 1.4-5.4H95l-3.3 10.7h-3.2L86.8 35 85 40.5h-3.2l-3.2-10.7zM101.9 26.7h11V30h-7.2v2.3h6.5v3.2h-6.5v4.9h-3.8V26.7zM114.4 29.8h3.7v2.1c.6-1.5 1.6-2.4 3.4-2.3v3.9h-.3c-1.9 0-3 1.1-3 3.6v3.3h-3.7V29.8zM122.2 35.2c0-3.1 2.2-5.6 5.4-5.6 3.7 0 5.4 2.7 5.4 5.8v.8h-7.1c.3 1.2 1.1 1.7 2.3 1.7.9 0 1.6-.3 2.4-1.1l2.1 1.7c-1 1.3-2.5 2.2-4.6 2.2-3.5 0-5.9-2.2-5.9-5.5zm7.2-1c-.1-1.2-.8-1.9-1.8-1.9s-1.6.8-1.8 1.9h3.6zM134.5 29.8h3.7v1.5c.7-.9 1.7-1.7 3.2-1.7 2.3 0 3.6 1.5 3.6 3.9v7h-3.7v-5.8c0-1.2-.6-1.8-1.5-1.8s-1.6.6-1.6 1.8v5.8h-3.7V29.8zM146.5 35.2c0-3 2.3-5.6 5.7-5.6 2.2 0 3.6.9 4.5 2.4l-2.5 1.9c-.5-.7-1.1-1.1-2-1.1-1.2 0-2.1 1.1-2.1 2.4 0 1.4.9 2.4 2.1 2.4.9 0 1.5-.4 2-1.1l2.5 1.8c-1 1.5-2.4 2.4-4.7 2.4-3.1 0-5.5-2.5-5.5-5.5zM158.1 26.1h3.7v5.2c.7-.9 1.7-1.7 3.2-1.7 2.3 0 3.6 1.5 3.6 3.9v7h-3.7v-5.8c0-1.2-.6-1.8-1.5-1.8s-1.6.6-1.6 1.8v5.8h-3.7V26.1zM176.7 37.1v-4.3h-1.3v-3h1.3v-2.7h3.7v2.7h2.5v3h-2.5v3.6c0 .7.3 1.1 1 1.1.5 0 1-.1 1.4-.4V40c-.7.4-1.6.6-2.6.6-2.2 0-3.5-1-3.5-3.5zM184.5 26.1h3.7v5.2c.7-.9 1.7-1.7 3.2-1.7 2.3 0 3.6 1.5 3.6 3.9v7h-3.7v-5.8c0-1.2-.6-1.8-1.5-1.8s-1.6.6-1.6 1.8v5.8h-3.7V26.1zM196.9 29.8h3.7v2.1c.6-1.5 1.6-2.4 3.4-2.3v3.9h-.3c-1.9 0-3 1.1-3 3.6v3.3H197V29.8zM205.3 26.1h3.9v2.7h-3.9v-2.7zm.1 3.7h3.7v10.6h-3.7V29.8zM211.3 26.1h3.7v14.3h-3.7V26.1zM217.2 26.1h3.7v14.3h-3.7V26.1zM222.6 35.2c0-3.1 2.2-5.6 5.4-5.6 3.7 0 5.4 2.7 5.4 5.8v.8h-7.1c.3 1.2 1.1 1.7 2.3 1.7.9 0 1.6-.3 2.4-1.1l2.1 1.7c-1 1.3-2.5 2.2-4.6 2.2-3.6 0-5.9-2.2-5.9-5.5zm7.2-1c-.1-1.2-.8-1.9-1.8-1.9s-1.6.8-1.8 1.9h3.6zM234.9 29.8h3.7v2.1c.6-1.5 1.6-2.4 3.4-2.3v3.9h-.3c-1.9 0-3 1.1-3 3.6v3.3H235V29.8zM241.9 36.6h3.9v3.8h-3.9v-3.8z"/></svg>