<svg id="Layer_1" xmlns="http://www.w3.org/2000/svg" viewBox="0 0 320 50"><style>.st0{fill:#490a09}</style><path class="st0" d="M12.4 17.5c0-4.4 3.6-8.2 8.8-8.2 2.7 0 4.8 1.1 5.7 2.3l-2.6 2.5c-.8-.8-1.9-1.4-3.4-1.4-2.8 0-4.7 2.1-4.7 4.7 0 1.9 1.4 2.9 3.1 2.9.8 0 1.4-.2 1.8-.4l.5-1.8h-2.7l.7-2.8h6.3l-2 6.9c-1.1.8-2.9 1.4-4.9 1.4-3.3 0-6.6-1.9-6.6-6.1zM29.9 9h3.7l-3.8 14.3h-3.7L29.9 9zM32.9 18.6c0-3.2 2.7-6.2 6.2-6.2 3.3 0 5.2 2.1 5.2 4.9 0 3.2-2.7 6.2-6.3 6.2-3.1.1-5.1-2.1-5.1-4.9zm7.9-1.1c0-1.2-.7-2-1.8-2-1.5 0-2.5 1.6-2.5 2.9 0 1.2.7 2 1.8 2 1.5.1 2.5-1.5 2.5-2.9zM47.4 12.7h3.7l-.6 2.1c1-1.5 2.3-2.4 4-2.3l-1.1 3.9h-.3c-2 0-3.4 1.1-4 3.7l-.9 3.2h-3.7l2.9-10.6zM55.9 12.7h3.7l-2.8 10.6h-3.7l2.8-10.6zm.9-3.7h3.9l-.7 2.7h-3.9l.7-2.7zM59.3 20.6c0-2.3 1.9-3.8 4.7-3.8 1 0 1.8.2 2.7.4v-.1c0-.2.1-.4.1-.6 0-.7-.5-1.1-1.8-1.1-1 0-2.1.2-2.9.5l-.5-2.7c1.1-.4 2.7-.6 4.2-.6 3.2 0 4.7 1.3 4.7 3.4 0 .5-.1 1-.2 1.5l-1.6 5.9H65l.3-1.1c-.9.8-1.8 1.4-3.1 1.4-1.7-.2-2.9-1.3-2.9-3.1zm6.9-1.3l.1-.4c-.4-.1-.9-.2-1.4-.2-1.2 0-1.9.6-1.9 1.5 0 .6.4 1 1.1 1 .9 0 1.8-.8 2.1-1.9z"/><g><path class="st0" d="M71.9 19.5h3.9v3.8h-3.9v-3.8z"/></g></svg>