<svg id="Layer_1" xmlns="http://www.w3.org/2000/svg" viewBox="0 0 320 50"><style>.st0{fill:#490a09}</style><path class="st0" d="M12.3 17.6h7.4c1.8 0 3.1.5 3.9 1.3.6.6.9 1.3.9 2.3 0 1.7-1 2.7-2.2 3.2 1.8.6 2.9 1.6 2.9 3.5 0 2.5-2 4-5.5 4h-7.5V17.6zm6.4 5.8c1.2 0 1.9-.4 1.9-1.3 0-.8-.6-1.2-1.8-1.2h-2.6v2.5h2.5zm.6 5.5c1.2 0 1.9-.5 1.9-1.3s-.6-1.3-2-1.3h-3.1V29h3.2zM26.4 26.6c0-3.3 2.3-5.9 5.6-5.9 3.9 0 5.6 2.8 5.6 6.1v.8h-7.5c.3 1.2 1.2 1.8 2.4 1.8.9 0 1.7-.4 2.5-1.1l2.2 1.8c-1.1 1.4-2.6 2.3-4.9 2.3-3.4 0-5.9-2.4-5.9-5.8zm7.6-1c-.1-1.2-.9-2-1.9-2-1 0-1.7.8-1.9 2H34zM39.3 17h3.9v5.4c.7-.9 1.8-1.8 3.3-1.8 2.4 0 3.8 1.6 3.8 4.1V32h-3.9v-6c0-1.2-.6-1.9-1.6-1.9s-1.7.7-1.7 1.9v6.1h-3.9V17zM52.4 17h4.1v2.9h-4.1V17zm.1 3.9h3.9v11.2h-3.9V20.9zM58.6 20.9h3.9v1.6c.7-.9 1.8-1.8 3.3-1.8 2.4 0 3.8 1.6 3.8 4.1v7.3h-3.9V26c0-1.2-.6-1.9-1.6-1.9s-1.7.7-1.7 1.9v6.1h-3.9V20.9zM71.3 26.6c0-3.7 2.3-5.9 4.9-5.9 1.7 0 2.7.8 3.4 1.6V17h3.9v15.1h-3.9v-1.5c-.8.9-1.7 1.7-3.4 1.7-2.6 0-4.9-2.2-4.9-5.7zm8.5-.1c0-1.5-1-2.6-2.3-2.6s-2.3 1-2.3 2.5 1 2.5 2.3 2.5 2.3-.9 2.3-2.4zM91 26.6c0-3.3 2.3-5.9 5.6-5.9 3.9 0 5.6 2.8 5.6 6.1v.8h-7.5c.3 1.2 1.2 1.8 2.4 1.8.9 0 1.7-.4 2.5-1.1l2.2 1.8c-1.1 1.4-2.6 2.3-4.9 2.3-3.4 0-5.9-2.4-5.9-5.8zm7.6-1c-.1-1.2-.9-2-1.9-2-1 0-1.7.8-1.9 2h3.8zM102.6 20.9h4.1l2.2 6.5 2.2-6.5h4.1l-4.5 11.3h-3.6l-4.5-11.3zM115.3 26.6c0-3.3 2.3-5.9 5.6-5.9 3.9 0 5.6 2.8 5.6 6.1v.8H119c.3 1.2 1.2 1.8 2.4 1.8.9 0 1.7-.4 2.5-1.1l2.2 1.8c-1.1 1.4-2.6 2.3-4.9 2.3-3.5 0-5.9-2.4-5.9-5.8zm7.6-1c-.1-1.2-.9-2-1.9-2-1 0-1.7.8-1.9 2h3.8zM128.2 20.9h3.9v2.3c.6-1.5 1.7-2.5 3.5-2.4v4.1h-.3c-2 0-3.2 1.2-3.2 3.8v3.5h-3.9V20.9zM136.8 34.5l1.2-2.8c.6.4 1.3.6 1.7.6.4 0 .7-.1.9-.5l-4.4-11h4.1l2.2 6.7 2.1-6.7h4l-4.1 10.9c-1 2.6-2 3.6-4.3 3.6-1.2.2-2.4-.2-3.4-.8zM155.7 20.9h3.9v1.5c.8-.9 1.7-1.7 3.4-1.7 2.7 0 5 2.2 5 5.8 0 3.6-2.3 5.9-4.9 5.9-1.7 0-2.7-.8-3.4-1.6v4.7h-3.9V20.9zm8.5 5.6c0-1.5-1-2.6-2.3-2.6-1.3 0-2.3 1.1-2.3 2.5 0 1.5 1 2.5 2.3 2.5 1.2.2 2.3-.9 2.3-2.4zM169.3 26.6c0-3.3 2.3-5.9 5.6-5.9 3.9 0 5.6 2.8 5.6 6.1v.8H173c.3 1.2 1.2 1.8 2.4 1.8.9 0 1.7-.4 2.5-1.1l2.2 1.8c-1.1 1.4-2.6 2.3-4.9 2.3-3.5 0-5.9-2.4-5.9-5.8zm7.6-1c-.1-1.2-.9-2-1.9-2-1 0-1.7.8-1.9 2h3.8zM182.2 20.9h3.9v2.3c.6-1.5 1.7-2.5 3.5-2.4v4.1h-.3c-2 0-3.2 1.2-3.2 3.8v3.5h-3.9V20.9zM192.6 24.1h-1.3V21h1.3v-.2c0-1.3.3-2.2 1-2.9.7-.7 1.6-1 2.9-1 1.2 0 1.9.1 2.6.3V20c-.5-.1-.9-.2-1.5-.2-.7 0-1.1.3-1.1 1.1v.1h2.6v3h-2.5v8h-3.9v-7.9zM199.6 26.6c0-3.3 2.3-5.9 5.6-5.9 3.9 0 5.6 2.8 5.6 6.1v.8h-7.5c.3 1.2 1.2 1.8 2.4 1.8.9 0 1.7-.4 2.5-1.1l2.2 1.8c-1.1 1.4-2.6 2.3-4.9 2.3-3.4 0-5.9-2.4-5.9-5.8zm7.6-1c-.1-1.2-.9-2-1.9-2-1 0-1.7.8-1.9 2h3.8zM212.1 26.6c0-3.2 2.5-5.9 6-5.9 2.3 0 3.8 1 4.8 2.5l-2.7 2c-.5-.7-1.1-1.2-2.1-1.2-1.3 0-2.2 1.1-2.2 2.5s.9 2.5 2.2 2.5c.9 0 1.5-.4 2.2-1.2l2.6 1.9c-1 1.5-2.5 2.6-5 2.6-3.3.1-5.8-2.6-5.8-5.7zM225 28.6v-4.5h-1.3v-3.2h1.3v-2.8h3.9v2.8h2.6v3.2h-2.6v3.8c0 .8.4 1.1 1.1 1.1.5 0 1-.1 1.5-.4v3.1c-.7.4-1.6.6-2.7.6-2.4 0-3.8-1-3.8-3.7z"/><g><path class="st0" d="M239 17h3.9v15.1H239V17zM245.1 17h4.1v2.9h-4.1V17zm.1 3.9h3.9v11.2h-3.9V20.9zM252 24.1h-1.3V21h1.3v-.2c0-1.3.3-2.2 1-2.9.7-.7 1.6-1 2.9-1 1.2 0 1.9.1 2.6.3V20c-.5-.1-.9-.2-1.5-.2-.7 0-1.1.3-1.1 1.1v.1h2.6v3H256v8h-4v-7.9zM259 26.6c0-3.3 2.3-5.9 5.6-5.9 3.9 0 5.6 2.8 5.6 6.1v.8h-7.5c.3 1.2 1.2 1.8 2.4 1.8.9 0 1.7-.4 2.5-1.1l2.2 1.8c-1.1 1.4-2.6 2.3-4.9 2.3-3.4 0-5.9-2.4-5.9-5.8zm7.6-1c-.1-1.2-.9-2-1.9-2-1 0-1.7.8-1.9 2h3.8z"/></g></svg>