<svg id="Layer_1" xmlns="http://www.w3.org/2000/svg" viewBox="0 0 970 250"><style>.st0{fill:#490a09}</style><path class="st0" d="M37.1 100.2h14.8l8.8 29.2 9.7-29.4h12l9.7 29.4 8.8-29.2h14.5L98.6 151H86.4l-10.2-29.1L66.1 151H54l-16.9-50.8zM113.9 131.3v-.1c0-11.4 8.1-20.4 19.7-20.4 13.5 0 19.7 9.9 19.7 21.3 0 .9 0 1.9-.1 2.8h-26.1c1.1 4.3 4.2 6.4 8.4 6.4 3.2 0 5.8-1.2 8.7-4l7.6 6.3c-3.8 4.8-9.2 7.9-16.9 7.9-12.4.1-21-8.1-21-20.2zm26.5-3.4c-.5-4.3-3-7.1-6.8-7.1-3.6 0-6.1 2.8-6.8 7.1h13.6zM179.1 98h13.7v19c2.5-3.2 6.1-6.2 11.7-6.2 8.3 0 13.3 5.5 13.3 14.4v25.5H204v-21.1c0-4.3-2.2-6.6-5.5-6.6s-5.8 2.3-5.8 6.6v21.1H179V98zM222.9 139.5v-.1c0-8.1 6.1-12.3 15.3-12.3 3.6 0 7.1.7 9.4 1.5v-.6c0-4-2.5-6.3-7.8-6.3-4.1 0-7.3.8-10.7 2.2l-2.8-9.7c4.4-1.8 9.1-3 15.8-3 7 0 11.8 1.7 14.9 4.8 3 2.9 4.2 6.9 4.2 12.4v22.4h-13.6v-4c-2.7 3-6.3 4.9-11.5 4.9-7.5-.2-13.2-4.4-13.2-12.2zm24.8-3v-1.8c-1.4-.6-3.3-1-5.3-1-4 0-6.3 1.9-6.3 4.8v.1c0 2.7 2 4.3 4.8 4.3 4 0 6.8-2.5 6.8-6.4zM263.1 111.6h14.4l7.5 22.8 7.5-22.8h14.2l-15.6 39.3h-12.5l-15.5-39.3zM307.3 131.3v-.1c0-11.4 8.1-20.4 19.7-20.4 13.5 0 19.7 9.9 19.7 21.3 0 .9 0 1.9-.1 2.8h-26.1c1.1 4.3 4.2 6.4 8.4 6.4 3.2 0 5.8-1.2 8.7-4l7.6 6.3c-3.8 4.8-9.2 7.9-16.9 7.9-12.3.1-21-8.1-21-20.2zm26.5-3.4c-.5-4.3-3-7.1-6.8-7.1-3.6 0-6.1 2.8-6.8 7.1h13.6zM371.5 159l4.3-9.6c2.2 1.3 4.5 2.1 6 2.1 1.4 0 2.3-.4 3.2-1.6l-15.3-38.3H384l7.8 23.5 7.4-23.5h14.1L399 149.7c-3.4 9.1-7.1 12.7-14.9 12.7-4.9 0-9-1.4-12.6-3.4zM413.9 131.3v-.1c0-11.1 9.1-20.4 21.6-20.4 12.5 0 21.5 9.2 21.5 20.3v.1c0 11.1-9.1 20.4-21.6 20.4-12.5 0-21.5-9.2-21.5-20.3zm29.8 0v-.1c0-4.8-3.5-8.8-8.3-8.8-5 0-8.1 4-8.1 8.7v.1c0 4.8 3.5 8.8 8.3 8.8 4.9 0 8.1-4 8.1-8.7zM462.5 137.2v-25.5h13.7v21.1c0 4.3 2.2 6.6 5.6 6.6 3.2 0 5.7-2.3 5.7-6.6v-21.1h13.7v39h-13.7v-5.3c-2.5 3.2-6.1 6.2-11.7 6.2-8.3-.1-13.3-5.6-13.3-14.4zM508.5 111.6h13.7v7.9c2.2-5.3 5.8-8.8 12.3-8.5v14.4h-1.2c-7.1 0-11.2 4.1-11.2 13.1v12.1h-13.7v-39zM572.5 112.4h-15.1v-12.3h44.3v12.3h-15.1v38.2h-14v-38.2zM603.7 100.2h15.6l11.5 31.9 11.5-31.9h15.4L637.2 151h-13l-20.5-50.8zM652.5 136.6h14.3v14.1h-14.3v-14.1z"/></svg>