<svg id="Layer_1" xmlns="http://www.w3.org/2000/svg" viewBox="0 0 970 250"><style>.st0{fill:#490a09}</style><path class="st0" d="M36.9 98.4h40.4v12.3H50.9v8.6h23.9v11.6H50.9v18h-14V98.4zM82.8 109.9h13.7v7.9c2.2-5.3 5.8-8.8 12.3-8.5v14.4h-1.2c-7.1 0-11.2 4.1-11.2 13.1v12.1H82.8v-39zM110 137.7v-.1c0-8.1 6.1-12.3 15.3-12.3 3.6 0 7.1.7 9.4 1.5v-.6c0-4-2.5-6.3-7.8-6.3-4.1 0-7.3.8-10.7 2.2l-2.8-9.7c4.4-1.8 9.1-3 15.8-3 7 0 11.8 1.7 14.9 4.8 3 2.9 4.2 6.9 4.2 12.4V149h-13.6v-4c-2.7 3-6.3 4.9-11.5 4.9-7.5-.2-13.2-4.4-13.2-12.2zm24.8-3v-1.8c-1.4-.6-3.3-1-5.3-1-4 0-6.3 1.9-6.3 4.8v.1c0 2.7 2 4.3 4.8 4.3 4 .1 6.8-2.5 6.8-6.4zM155.2 109.9h13.7v5.5c2.5-3.2 6.1-6.3 11.7-6.3 8.3 0 13.3 5.5 13.3 14.4V149h-13.7v-21.1c0-4.3-2.2-6.6-5.5-6.6s-5.8 2.3-5.8 6.6V149h-13.7v-39.1zM199.3 129.5v-.1c0-11 8.6-20.3 20.9-20.3 8 0 13.3 3.5 16.7 8.7l-9.3 6.9c-1.9-2.6-4-4.1-7.3-4.1-4.4 0-7.6 3.9-7.6 8.7v.1c0 5 3.2 8.9 7.8 8.9 3.2 0 5.3-1.5 7.5-4l9.2 6.6c-3.6 5.3-8.8 8.9-17.4 8.9-11.8 0-20.5-9.2-20.5-20.3zM239.3 129.5v-.1c0-11.1 9.1-20.4 21.6-20.4 12.5 0 21.5 9.2 21.5 20.3v.1c0 11.1-9.1 20.4-21.6 20.4-12.4 0-21.5-9.1-21.5-20.3zm29.8 0v-.1c0-4.8-3.5-8.8-8.3-8.8-5 0-8.1 4-8.1 8.7v.1c0 4.8 3.5 8.8 8.3 8.8 4.9 0 8.1-4 8.1-8.7zM288.2 109.9h13.7v5.2c2.7-3.2 6-6.1 11.8-6.1 9.3 0 17.3 7.7 17.3 20.2v.1c0 12.7-8 20.4-17.2 20.4-5.9 0-9.4-2.7-11.9-5.6v16.3h-13.7v-50.5zm29.4 19.5v-.1c0-5.1-3.5-8.8-8-8.8-4.4 0-7.9 3.7-7.9 8.8v.1c0 5.2 3.5 8.9 7.9 8.9 4.5 0 8-3.6 8-8.9zM337 96.2h13.7v19c2.5-3.2 6.1-6.2 11.7-6.2 8.3 0 13.3 5.5 13.3 14.4v25.5H362v-21.1c0-4.3-2.2-6.6-5.5-6.6s-5.8 2.3-5.8 6.6v21.1H337V96.2zM382.7 96.2H397v10.1h-14.3V96.2zm.3 13.7h13.7v39H383v-39zM404.6 96.2h13.7v52.6h-13.7V96.2zM424.4 129.5v-.1c0-11.4 8.1-20.4 19.7-20.4 13.5 0 19.7 9.9 19.7 21.3 0 .9 0 1.9-.1 2.8h-26.1c1.1 4.3 4.2 6.4 8.4 6.4 3.2 0 5.8-1.2 8.7-4l7.6 6.3c-3.8 4.8-9.2 7.9-16.9 7.9-12.4.1-21-8-21-20.2zm26.5-3.3c-.5-4.3-3-7.1-6.8-7.1-3.6 0-6.1 2.8-6.8 7.1h13.6zM468.7 134.8H483v14.1h-14.3v-14.1z"/></svg>