<svg id="Layer_1" xmlns="http://www.w3.org/2000/svg" viewBox="0 0 970 250"><style>.st0{fill:#490a09}</style><path class="st0" d="M36.9 171h40.6v11.9H50.7v7.6H75v11H50.7v8h27.1v11.9h-41V171zM83.9 208v-25.5h13.7v21.1c0 4.3 2.2 6.6 5.6 6.6 3.2 0 5.7-2.3 5.7-6.6v-21.1h13.7v39h-13.7v-5.3c-2.5 3.2-6.1 6.2-11.7 6.2-8.3 0-13.3-5.5-13.3-14.4zM129.9 182.5h13.7v7.9c2.2-5.3 5.8-8.8 12.3-8.5v14.4h-1.2c-7.1 0-11.2 4.1-11.2 13.1v12.1h-13.7v-39zM158.5 202.2v-.2c0-11.1 9.1-20.4 21.6-20.4 12.5 0 21.5 9.2 21.5 20.3v.1c0 11.1-9.1 20.4-21.6 20.4-12.5.1-21.5-9.1-21.5-20.2zm29.8 0v-.2c0-4.8-3.5-8.8-8.3-8.8-5 0-8.1 4-8.1 8.7v.1c0 4.8 3.5 8.8 8.3 8.8 4.9 0 8.1-3.9 8.1-8.6zM207.4 182.5h13.7v5.2c2.7-3.2 6-6.1 11.8-6.1 9.3 0 17.3 7.7 17.3 20.2v.1c0 12.7-8 20.4-17.2 20.4-5.9 0-9.4-2.7-11.9-5.6V233h-13.7v-50.5zm29.3 19.5v-.1c0-5.1-3.5-8.8-8-8.8-4.4 0-7.9 3.7-7.9 8.8v.1c0 5.2 3.5 8.9 7.9 8.9 4.5 0 8-3.6 8-8.9zM256.1 168.9h13.7v19c2.5-3.2 6.1-6.2 11.7-6.2 8.3 0 13.3 5.5 13.3 14.4v25.5h-13.7v-21.1c0-4.3-2.2-6.6-5.5-6.6s-5.8 2.3-5.8 6.6v21.1h-13.7v-52.7zM301.9 168.9h14.3V179h-14.3v-10.1zm.3 13.6h13.7v39h-13.7v-39zM323.8 168.9h13.7v52.6h-13.7v-52.6zM343.5 202.2v-.2c0-11.4 8.1-20.4 19.7-20.4 13.5 0 19.7 9.9 19.7 21.3 0 .9 0 1.9-.1 2.8h-26.1c1.1 4.3 4.2 6.4 8.4 6.4 3.2 0 5.8-1.2 8.7-4l7.6 6.3c-3.8 4.8-9.2 7.9-16.9 7.9-12.3.2-21-8-21-20.1zm26.6-3.4c-.5-4.3-3-7.1-6.8-7.1-3.6 0-6.1 2.8-6.8 7.1h13.6zM387.9 207.5h14.3v14.1h-14.3v-14.1z"/></svg>