<svg id="Layer_1" xmlns="http://www.w3.org/2000/svg" viewBox="0 0 970 250"><style>.st0{fill:#fff}</style><path class="st0" d="M52.8 75.4H37.7V63.2H82v12.3H66.8v38.2h-14V75.4zM87.3 61H101v19c2.5-3.2 6.1-6.2 11.7-6.2 8.3 0 13.3 5.5 13.3 14.4v25.5h-13.7V92.5c0-4.3-2.2-6.6-5.5-6.6s-5.8 2.3-5.8 6.6v21.1H87.3V61zM131.4 94.3v-.1c0-11.4 8.1-20.4 19.7-20.4 13.5 0 19.7 9.9 19.7 21.3 0 .9 0 1.9-.1 2.8h-26.1c1.1 4.3 4.2 6.4 8.4 6.4 3.2 0 5.8-1.2 8.7-4l7.6 6.3c-3.8 4.8-9.2 7.9-16.9 7.9-12.3.1-21-8.1-21-20.2zm26.5-3.4c-.5-4.3-3-7.1-6.8-7.1-3.6 0-6.1 2.8-6.8 7.1h13.6zM194 63.2h14.8l8.8 29.2 9.7-29.4h12l9.7 29.4 8.8-29.2h14.5L255.5 114h-12.2l-10.2-29.1-10 29.1h-12.2L194 63.2zM270.8 94.3v-.1c0-11.1 9.1-20.4 21.6-20.4 12.5 0 21.5 9.2 21.5 20.3v.1c0 11.1-9.1 20.4-21.6 20.4-12.5 0-21.5-9.2-21.5-20.3zm29.8 0v-.1c0-4.8-3.5-8.8-8.3-8.8-5 0-8.1 4-8.1 8.7v.1c0 4.8 3.5 8.8 8.3 8.8 4.9 0 8.1-4 8.1-8.7zM319.7 74.6h13.7v7.9c2.2-5.3 5.8-8.8 12.3-8.5v14.4h-1.2c-7.1 0-11.2 4.1-11.2 13.1v12.1h-13.7v-39zM350.9 61h13.7v52.6h-13.7V61zM370.8 94.3v-.1c0-12.7 7.9-20.4 17.2-20.4 5.9 0 9.4 2.7 12 5.6V61h13.7v52.6H400v-5.2c-2.7 3.2-6.1 6.1-11.9 6.1-9.3 0-17.3-7.7-17.3-20.2zm29.3-.1V94c0-5.1-3.5-8.8-7.9-8.8s-8 3.6-8 8.8v.1c0 5.2 3.6 8.9 8 8.9s7.9-3.6 7.9-8.8zM418.9 84c4.8-.5 7.4-2.9 7.2-6.8h-5.5v-14h14.2v11.5c0 10.7-5.8 14.4-14.8 14.6l-1.1-5.3zM438 108.7l5.1-8.3c4.5 3 9.4 4.5 13.4 4.5 2.4 0 3.5-.7 3.5-2.1v-.1c0-1.5-2.2-2.2-6.3-3.3-7.7-2-13.8-4.6-13.8-12.5v-.1c0-8.3 6.6-12.9 15.6-12.9 5.7 0 11.6 1.7 16.1 4.5l-4.7 8.7c-4-2.2-8.4-3.6-11.5-3.6-2.1 0-3.2.8-3.2 1.9v.1c0 1.5 2.2 2.2 6.3 3.5 7.7 2.2 13.8 4.8 13.8 12.4v.1c0 8.6-6.4 13.1-15.9 13.1-6.5-.1-13-2-18.4-5.9zM498.8 63.2h25.9c6.3 0 10.8 1.6 13.8 4.5 2 2 3.2 4.7 3.2 8.1v.2c0 5.8-3.3 9.3-7.8 11.2 6.1 2 10 5.5 10 12.3v.1c0 8.7-7.1 13.9-19.1 13.9h-26V63.2zm22.4 20.1c4.3 0 6.6-1.4 6.6-4.4v-.1c0-2.7-2.2-4.3-6.3-4.3h-9.1v8.9h8.8zm2 19.1c4.3 0 6.7-1.7 6.7-4.6v-.1c0-2.7-2.2-4.5-6.9-4.5h-10.7v9.3h10.9zM548 94.3v-.1c0-11.4 8.1-20.4 19.7-20.4 13.5 0 19.7 9.9 19.7 21.3 0 .9 0 1.9-.1 2.8h-26.1c1.1 4.3 4.2 6.4 8.4 6.4 3.2 0 5.8-1.2 8.7-4l7.6 6.3c-3.7 4.8-9.2 7.9-16.9 7.9-12.4.1-21-8.1-21-20.2zm26.5-3.4c-.5-4.3-3-7.1-6.8-7.1-3.6 0-6.1 2.8-6.8 7.1h13.6zM590.2 108.7l5.1-8.3c4.5 3 9.4 4.5 13.4 4.5 2.4 0 3.5-.7 3.5-2.1v-.1c0-1.5-2.2-2.2-6.3-3.3-7.7-2-13.8-4.6-13.8-12.5v-.1c0-8.3 6.6-12.9 15.6-12.9 5.7 0 11.6 1.7 16.1 4.5l-4.7 8.7c-4-2.2-8.4-3.6-11.5-3.6-2.1 0-3.2.8-3.2 1.9v.1c0 1.5 2.2 2.2 6.3 3.5 7.7 2.2 13.8 4.8 13.8 12.4v.1c0 8.6-6.4 13.1-15.9 13.1-6.5-.1-13-2-18.4-5.9zM632 101.5V85.7h-4.6v-11h4.6v-9.9h13.7v9.9h9.1v11h-9.1v13.2c0 2.7 1.2 3.9 3.8 3.9 1.8 0 3.5-.5 5.2-1.3v10.7c-2.5 1.4-5.7 2.2-9.5 2.2-8.3 0-13.2-3.6-13.2-12.9z"/><g><path class="st0" d="M52.8 142.4H37.7v-12.3H82v12.3H66.8v38.2h-14v-38.2zM84 130.2h15.6l11.5 31.9 11.5-31.9H138L117.5 181h-13L84 130.2zM162.4 128h13.7v52.6h-13.7V128zM183.7 128H198v10.1h-14.3V128zm.3 13.6h13.7v39H184v-39zM202.4 141.6h14.4l7.5 22.8 7.5-22.8H246l-15.6 39.3H218l-15.6-39.3zM246.6 161.3v-.1c0-11.4 8.1-20.4 19.7-20.4 13.5 0 19.7 9.9 19.7 21.3 0 .9 0 1.9-.1 2.8h-26.1c1.1 4.3 4.2 6.4 8.4 6.4 3.2 0 5.8-1.2 8.7-4l7.6 6.3c-3.8 4.8-9.2 7.9-16.9 7.9-12.4.1-21-8.1-21-20.2zm26.5-3.4c-.5-4.3-3-7.1-6.8-7.1-3.6 0-6.1 2.8-6.8 7.1h13.6zM288.8 175.7l5.1-8.3c4.5 3 9.4 4.5 13.4 4.5 2.4 0 3.5-.7 3.5-2.1v-.1c0-1.5-2.2-2.2-6.3-3.3-7.7-2-13.8-4.6-13.8-12.5v-.1c0-8.3 6.6-12.9 15.6-12.9 5.7 0 11.6 1.7 16.1 4.5l-4.7 8.7c-4-2.2-8.4-3.6-11.5-3.6-2.1 0-3.2.8-3.2 1.9v.1c0 1.5 2.2 2.2 6.3 3.5 7.7 2.2 13.8 4.8 13.8 12.4v.1c0 8.6-6.4 13.1-15.9 13.1-6.5-.1-12.9-2-18.4-5.9zM348.8 128h13.7v19c2.5-3.2 6.1-6.2 11.7-6.2 8.3 0 13.3 5.5 13.3 14.4v25.5h-13.7v-21.1c0-4.3-2.2-6.6-5.5-6.6s-5.8 2.3-5.8 6.6v21.1h-13.7V128zM393 161.3v-.1c0-11.4 8.1-20.4 19.7-20.4 13.5 0 19.7 9.9 19.7 21.3 0 .9 0 1.9-.1 2.8h-26.1c1.1 4.3 4.2 6.4 8.4 6.4 3.2 0 5.8-1.2 8.7-4l7.6 6.3c-3.8 4.8-9.2 7.9-16.9 7.9-12.4.1-21-8.1-21-20.2zm26.5-3.4c-.5-4.3-3-7.1-6.8-7.1-3.6 0-6.1 2.8-6.8 7.1h13.6zM438.2 141.6h13.7v7.9c2.2-5.3 5.8-8.8 12.3-8.5v14.4H463c-7.1 0-11.2 4.1-11.2 13.1v12.1h-13.7v-39zM466.8 161.3v-.1c0-11.4 8.1-20.4 19.7-20.4 13.5 0 19.7 9.9 19.7 21.3 0 .9 0 1.9-.1 2.8H480c1.1 4.3 4.2 6.4 8.4 6.4 3.2 0 5.8-1.2 8.7-4l7.6 6.3c-3.7 4.8-9.2 7.9-16.9 7.9-12.4.1-21-8.1-21-20.2zm26.5-3.4c-.5-4.3-3-7.1-6.8-7.1-3.6 0-6.1 2.8-6.8 7.1h13.6zM511.1 166.6h14.3v14.1h-14.3v-14.1z"/></g></svg>