<svg id="Layer_1" xmlns="http://www.w3.org/2000/svg" viewBox="0 0 970 250"><style>.st0{fill:#490a09}</style><path class="st0" d="M37.2 28.8h14.1v50.5H37.2V28.8zM62.1 67.2V51.3h-4.6v-11h4.6v-9.9h13.7v9.9h9.1v11h-9.1v13.2c0 2.7 1.2 3.9 3.8 3.9 1.8 0 3.5-.5 5.2-1.3v10.7c-2.5 1.4-5.7 2.2-9.5 2.2-8.3.1-13.2-3.5-13.2-12.8zM88.8 68.1V68c0-8.1 6.1-12.3 15.3-12.3 3.6 0 7.1.7 9.4 1.5v-.6c0-4-2.5-6.3-7.8-6.3-4.1 0-7.3.8-10.7 2.2l-2.8-9.7c4.4-1.8 9.1-3 15.8-3 7 0 11.8 1.7 14.9 4.8 3 2.9 4.2 6.9 4.2 12.4v22.4h-13.6v-4c-2.7 3-6.3 4.9-11.5 4.9-7.5-.1-13.2-4.4-13.2-12.2zm24.8-2.9v-1.8c-1.4-.6-3.3-1-5.3-1-4 0-6.3 1.9-6.3 4.8v.1c0 2.7 2 4.3 4.8 4.3 4 0 6.8-2.5 6.8-6.4zM134.3 26.7H148v52.6h-13.7V26.7zM154 60v-.1c0-11.1 9.1-20.4 21.6-20.4 12.5 0 21.5 9.2 21.5 20.3v.1c0 11.1-9.1 20.4-21.6 20.4C163 80.2 154 71.1 154 60zm29.8 0v-.1c0-4.8-3.5-8.8-8.3-8.8-5 0-8.1 4-8.1 8.7v.1c0 4.8 3.5 8.8 8.3 8.8 4.9-.1 8.1-4 8.1-8.7zM202.9 40.3h13.7v5.2c2.7-3.2 6-6.1 11.8-6.1 9.3 0 17.3 7.7 17.3 20.2v.1c0 12.7-8 20.4-17.2 20.4-5.9 0-9.4-2.7-11.9-5.6v16.3h-13.7V40.3zm29.4 19.5v-.1c0-5.1-3.5-8.8-8-8.8-4.4 0-7.9 3.7-7.9 8.8v.1c0 5.2 3.5 8.9 7.9 8.9s8-3.6 8-8.9zM251.7 26.7h13.7v19c2.5-3.2 6.1-6.2 11.7-6.2 8.3 0 13.3 5.5 13.3 14.4v25.5h-13.7V58.2c0-4.3-2.2-6.6-5.5-6.6s-5.8 2.3-5.8 6.6v21.1h-13.7V26.7zM297.4 26.7h14.3v10.1h-14.3V26.7zm.3 13.6h13.7v39h-13.7v-39zM319.3 26.7H333v52.6h-13.7V26.7zM339.1 60v-.1c0-11.4 8.1-20.4 19.7-20.4 13.5 0 19.7 9.9 19.7 21.3 0 .9 0 1.9-.1 2.8h-26.1c1.1 4.3 4.2 6.4 8.4 6.4 3.2 0 5.8-1.2 8.7-4l7.6 6.3c-3.8 4.8-9.2 7.9-16.9 7.9-12.4 0-21-8.1-21-20.2zm26.5-3.4c-.5-4.3-3-7.1-6.8-7.1-3.6 0-6.1 2.8-6.8 7.1h13.6zM383.4 65.2h14.3v14.1h-14.3V65.2z"/></svg>