<svg id="Layer_1" xmlns="http://www.w3.org/2000/svg" xmlns:xlink="http://www.w3.org/1999/xlink" viewBox="0 0 970 250"><style>.st0,.st1{clip-path:url(#SVGID_00000120527157616246376330000008851885001956560306_);fill:#ac1f2d}.st1{fill:#fff}</style><defs><path id="SVGID_1_" d="M843.8 11.2h106v100.3h-106z"/></defs><clipPath id="SVGID_00000078760744291830782380000017386037684522821522_"><use xlink:href="#SVGID_1_" overflow="visible"/></clipPath><path d="M943 62.2c0 25.5-20.7 46.2-46.2 46.2-25.5 0-46.2-20.7-46.2-46.2S871.3 16 896.8 16c25.6 0 46.2 20.7 46.2 46.2" clip-path="url(#SVGID_00000078760744291830782380000017386037684522821522_)" fill="#ac1f2d"/><path d="M915.2 53.8V59h6l-7.1 11.1h17.5v-5.4h-7.5l6.8-10.9h-15.7zm-34.3-6.7l-5.6 12.5-5.5-12.5H862v23h6.4V57.9l5.6 12.2h2.8l5.5-12.6v12.6h6.5v-23h-7.9zm25.3 0v8.1h-8.1v-8.1H891v23h7.1V61h8.1v9.1h7.1v-23h-7.1zM914.8 79.5h6.2v-1.8h-4.1v-1.2h3.6v-1.7h-3.6v-1.1h4v-1.8h-6.1v7.6zm-4.9.2c1.7 0 2.6-.7 3.4-1.7l-1.6-1.1c-.5.6-.9.9-1.7.9-1.1 0-1.8-.9-1.8-2s.7-2 1.8-2c.7 0 1.2.3 1.7.9l1.6-1.2c-.7-.9-1.7-1.6-3.2-1.6-2.3 0-4 1.7-4 3.9-.1 2.2 1.6 3.9 3.8 3.9m-7.8-.2h2.1v-7.6h-2.1v7.6zm-5.9-1.7c-1.1 0-1.9-1-1.9-2.1s.8-2 1.9-2c1.2 0 2 1 2 2-.1 1.1-.8 2.1-2 2.1m0 1.9c2.3 0 4.1-1.8 4.1-3.9 0-2.2-1.7-3.9-4.1-3.9-2.3 0-4.1 1.8-4.1 3.9 0 2.1 1.7 3.9 4.1 3.9m-12.7-.2h2.1v-2.9h2.7v2.9h2.1v-7.6h-2.1v2.8h-2.7v-2.8h-2.1v7.6zm-5 .2c1.7 0 2.6-.7 3.4-1.7l-1.6-1.1c-.5.6-.9.9-1.7.9-1.1 0-1.8-.9-1.8-2s.7-2 1.8-2c.7 0 1.2.3 1.7.9l1.6-1.2c-.7-.9-1.7-1.6-3.2-1.6-2.3 0-4 1.7-4 3.9-.1 2.2 1.7 3.9 3.8 3.9" clip-path="url(#SVGID_00000078760744291830782380000017386037684522821522_)" fill="#fff"/></svg>