<?xml version="1.0" encoding="utf-8"?>
<!-- Generator: Adobe Illustrator 25.4.1, SVG Export Plug-In . SVG Version: 6.00 Build 0)  -->
<svg version="1.1" id="Layer_1" xmlns="http://www.w3.org/2000/svg" xmlns:xlink="http://www.w3.org/1999/xlink" x="0px" y="0px"
	 viewBox="0 0 336 280" style="enable-background:new 0 0 336 280;" xml:space="preserve">
<style type="text/css">
	.st0{fill:#490A09;}
</style>
<g>
	<path class="st0" d="M29.4,164.6H19.1v-8.3h30.1v8.3H38.9v26h-9.5V164.6z"/>
	<path class="st0" d="M50.7,156.2h10.6l7.8,21.7l7.8-21.7h10.4l-13.9,34.6h-8.8L50.7,156.2z"/>
	<path class="st0" d="M102.7,177.4L102.7,177.4c0-7.6,5.8-13.9,14.2-13.9c5.4,0,9.1,2.4,11.3,5.9l-6.3,4.7c-1.3-1.8-2.7-2.8-5-2.8
		c-3,0-5.2,2.6-5.2,5.9v0.1c0,3.4,2.2,6,5.3,6c2.2,0,3.6-1,5.1-2.7l6.2,4.5c-2.5,3.6-6,6.1-11.8,6.1
		C108.6,191.2,102.7,184.9,102.7,177.4z"/>
	<path class="st0" d="M131.7,164h9.3v5.3c1.5-3.6,4-6,8.4-5.8v9.8h-0.8c-4.9,0-7.6,2.8-7.6,8.9v8.2h-9.3V164z"/>
	<path class="st0" d="M152.7,154.8h9.7v6.9h-9.7V154.8z M152.9,164h9.3v26.5h-9.3V164z"/>
	<path class="st0" d="M169,182.3v-10.8h-3.1V164h3.1v-6.7h9.3v6.7h6.2v7.5h-6.2v9c0,1.9,0.8,2.6,2.6,2.6c1.2,0,2.4-0.3,3.5-0.9v7.3
		c-1.7,0.9-3.9,1.5-6.5,1.5C172.3,191.1,169,188.7,169,182.3z"/>
	<path class="st0" d="M188.5,154.8h9.7v6.9h-9.7V154.8z M188.7,164h9.3v26.5h-9.3V164z"/>
	<path class="st0" d="M202.2,177.4L202.2,177.4c0-7.6,5.8-13.9,14.2-13.9c5.4,0,9.1,2.4,11.3,5.9l-6.3,4.7c-1.3-1.8-2.7-2.8-5-2.8
		c-3,0-5.2,2.6-5.2,5.9v0.1c0,3.4,2.2,6,5.3,6c2.2,0,3.6-1,5.1-2.7l6.2,4.5c-2.5,3.6-6,6.1-11.8,6.1
		C208.1,191.2,202.2,184.9,202.2,177.4z"/>
	<path class="st0" d="M229.1,187.2l3.5-5.6c3,2,6.4,3,9.1,3c1.6,0,2.4-0.5,2.4-1.4v-0.1c0-1-1.5-1.5-4.3-2.3
		c-5.2-1.4-9.4-3.1-9.4-8.5v-0.1c0-5.6,4.5-8.8,10.6-8.8c3.9,0,7.9,1.1,10.9,3.1l-3.2,5.9c-2.7-1.5-5.7-2.5-7.8-2.5
		c-1.4,0-2.2,0.5-2.2,1.3v0.1c0,1,1.5,1.5,4.3,2.4c5.2,1.5,9.4,3.3,9.4,8.4v0.1c0,5.8-4.4,8.9-10.8,8.9
		C237.2,191.2,232.8,189.9,229.1,187.2z"/>
</g>
<g>
	<path class="st0" d="M19.4,219.4L19.4,219.4c0-7.6,5.8-13.9,14.2-13.9c5.4,0,9.1,2.4,11.3,5.9l-6.3,4.7c-1.3-1.8-2.7-2.8-5-2.8
		c-3,0-5.2,2.6-5.2,5.9v0.1c0,3.4,2.2,6,5.3,6c2.2,0,3.6-1,5.1-2.7l6.2,4.5c-2.5,3.6-6,6.1-11.8,6.1
		C25.3,233.2,19.4,226.9,19.4,219.4z"/>
	<path class="st0" d="M48.4,196.8h9.3v12.9c1.7-2.2,4.2-4.2,7.9-4.2c5.6,0,9,3.7,9,9.8v17.4h-9.3v-14.4c0-2.9-1.5-4.5-3.7-4.5
		c-2.3,0-3.9,1.6-3.9,4.5v14.4h-9.3V196.8z"/>
	<path class="st0" d="M78.4,219.4L78.4,219.4c0-7.8,5.5-14,13.4-14c9.2,0,13.4,6.7,13.4,14.5c0,0.6,0,1.3,0,1.9H87.4
		c0.7,2.9,2.8,4.4,5.7,4.4c2.2,0,4-0.8,5.9-2.7l5.2,4.3c-2.6,3.2-6.2,5.4-11.5,5.4C84.3,233.2,78.4,227.7,78.4,219.4z M96.5,217.1
		c-0.3-2.9-2.1-4.8-4.6-4.8c-2.5,0-4.1,1.9-4.6,4.8H96.5z"/>
	<path class="st0" d="M108.1,219.4L108.1,219.4c0-7.8,5.5-14,13.4-14c9.2,0,13.4,6.7,13.4,14.5c0,0.6,0,1.3,0,1.9h-17.8
		c0.7,2.9,2.8,4.4,5.7,4.4c2.2,0,4-0.8,5.9-2.7l5.2,4.3c-2.6,3.2-6.2,5.4-11.5,5.4C114,233.2,108.1,227.7,108.1,219.4z M126.2,217.1
		c-0.3-2.9-2.1-4.8-4.6-4.8c-2.5,0-4.1,1.9-4.6,4.8H126.2z"/>
	<path class="st0" d="M138.9,206h9.3v5.3c1.5-3.6,4-6,8.4-5.8v9.8h-0.8c-4.9,0-7.6,2.8-7.6,8.9v8.2h-9.3V206z"/>
	<path class="st0" d="M158.3,219.4L158.3,219.4c0-7.8,5.5-14,13.4-14c9.2,0,13.4,6.7,13.4,14.5c0,0.6,0,1.3,0,1.9h-17.8
		c0.7,2.9,2.8,4.4,5.7,4.4c2.2,0,4-0.8,5.9-2.7l5.2,4.3c-2.6,3.2-6.2,5.4-11.5,5.4C164.2,233.2,158.3,227.7,158.3,219.4z
		 M176.4,217.1c-0.3-2.9-2.1-4.8-4.6-4.8c-2.5,0-4.1,1.9-4.6,4.8H176.4z"/>
	<path class="st0" d="M188.1,219.4L188.1,219.4c0-8.7,5.4-14,11.7-14c4,0,6.4,1.8,8.1,3.8v-12.5h9.3v35.8h-9.3V229
		c-1.8,2.2-4.1,4.1-8.1,4.1C193.5,233.2,188.1,227.9,188.1,219.4z M208.1,219.3L208.1,219.3c0-3.6-2.4-6.1-5.4-6.1s-5.4,2.5-5.4,6
		v0.1c0,3.5,2.5,6,5.4,6S208.1,222.9,208.1,219.3z"/>
	<path class="st0" d="M221.8,223h9.7v9.6h-9.7V223z"/>
</g>
</svg>
