<?xml version="1.0" encoding="utf-8"?>
<!-- Generator: Adobe Illustrator 25.4.1, SVG Export Plug-In . SVG Version: 6.00 Build 0)  -->
<svg version="1.1" id="Layer_1" xmlns="http://www.w3.org/2000/svg" xmlns:xlink="http://www.w3.org/1999/xlink" x="0px" y="0px"
	 viewBox="0 0 336 280" style="enable-background:new 0 0 336 280;" xml:space="preserve">
<style type="text/css">
	.st0{fill:#490A09;}
</style>
<g>
	<path class="st0" d="M32.3,138.2h6.5l3.7,24.2h-7l-0.6-4.3h-9.3l-2.9,4.3h-7.2L32.3,138.2z M34.4,152.9l-0.9-6.9l-4.5,6.9H34.4z"/>
	<path class="st0" d="M60.2,138.4h19.2l-1.6,5.8H65.3l-1.1,4.1h11.3l-1.5,5.5H62.8l-2.3,8.6h-6.7L60.2,138.4z"/>
	<path class="st0" d="M80.8,143.8h6.5l-1,3.7c1.8-2.6,3.9-4.3,7-4l-1.9,6.9h-0.5c-3.6,0-5.9,2-7,6.4l-1.5,5.6h-6.5L80.8,143.8z"/>
	<path class="st0" d="M101.7,158c1.3,0,2.5-0.4,3.9-1.5l3,3.6c-1.9,1.6-4.4,2.8-7.6,2.8c-5.5,0-8.9-3.2-8.9-8.2
		c0-5.5,4.3-11.2,11.1-11.2c5.5,0,7.9,3.7,7.9,7.7c0,1.3-0.3,2.6-0.7,3.8H98.3C98.4,156.8,99.5,158,101.7,158z M105.3,151.6
		c0.1-0.3,0.2-0.7,0.2-1c0-1.3-0.8-2.4-2.5-2.4c-1.7,0-3.5,1.1-4.3,3.4H105.3z"/>
	<path class="st0" d="M116.2,143.8h6.5l-0.6,2.1c1.3-1.3,3.1-2.5,5.3-2.5c3.4,0,5.4,2.1,5.4,5.6c0,1-0.2,2.2-0.5,3.3l-2.7,10.1h-6.5
		l2.6-9.7c0.1-0.5,0.2-1.1,0.2-1.5c0-1.2-0.7-2-2.1-2c-1.8,0-2.9,1.2-3.5,3.4l-2.6,9.8h-6.5L116.2,143.8z"/>
	<path class="st0" d="M134.5,154.7c0-6.2,5-11.3,11.1-11.3c4.3,0,6.9,2.2,7.9,5.1l-5.1,2.6c-0.6-1.4-1.5-2.3-3.2-2.3
		c-2.5,0-4.5,2.7-4.5,5.5c0,1.9,1.2,3.1,2.8,3.1c1.4,0,2.4-0.6,3.5-1.7l4,3.5c-1.9,2.2-4.2,3.6-7.9,3.6
		C138.2,162.8,134.5,159.7,134.5,154.7z"/>
	<path class="st0" d="M158.8,137.4h6.5L163,146c1.3-1.3,3.1-2.5,5.3-2.5c3.4,0,5.4,2.1,5.4,5.6c0,1-0.2,2.2-0.5,3.3l-2.7,10.1H164
		l2.6-9.7c0.1-0.5,0.2-1.1,0.2-1.5c0-1.2-0.7-2-2.1-2c-1.8,0-2.9,1.2-3.5,3.4l-2.6,9.8h-6.5L158.8,137.4z"/>
	<path class="st0" d="M187.8,138.4h7.3l1.3,15.1l9.4-15.1h7.5l-16.2,24.2H191L187.8,138.4z"/>
	<path class="st0" d="M213.4,143.8h6.5l-5,18.6h-6.5L213.4,143.8z M215.1,137.4h6.8l-1.3,4.8h-6.8L215.1,137.4z"/>
	<path class="st0" d="M225.5,137.4h6.5l-6.7,25h-6.5L225.5,137.4z"/>
	<path class="st0" d="M235.8,137.4h6.5l-6.7,25h-6.5L235.8,137.4z"/>
	<path class="st0" d="M240.1,157.7c0-4.1,3.3-6.6,8.2-6.6c1.7,0,3.2,0.3,4.7,0.7l0.1-0.2c0.1-0.3,0.2-0.7,0.2-1.1c0-1.2-0.9-2-3.2-2
		c-1.7,0-3.7,0.4-5,0.9l-0.9-4.7c2-0.7,4.6-1.1,7.3-1.1c5.6,0,8.3,2.2,8.3,5.9c0,0.9-0.1,1.7-0.4,2.7l-2.7,10.2h-6.4l0.5-2
		c-1.6,1.5-3.2,2.4-5.4,2.4C242.2,162.8,240.1,160.8,240.1,157.7z M252.1,155.4l0.2-0.6c-0.7-0.2-1.5-0.4-2.4-0.4
		c-2.1,0-3.4,1-3.4,2.7c0,1.1,0.8,1.7,1.9,1.7C249.9,158.8,251.5,157.3,252.1,155.4z"/>
	<path class="st0" d="M258.9,165.4l2.9-4.1c2.1,1.3,4.5,1.9,6.6,1.9c1.7,0,2.9-0.4,3.8-1.4c0.7-0.7,1.2-1.6,1.5-3l0.1-0.4
		c-1.6,1.5-3.4,2.3-5.6,2.3c-3.4,0-6.6-2.3-6.6-6.4c0-5.8,4.2-10.9,9.7-10.9c2.8,0,4.6,1.4,5.6,3l0.7-2.6h6.5l-3.9,14.8
		c-0.9,3.3-1.8,5.1-3.3,6.7c-1.9,1.8-4.4,2.7-8.3,2.7C265.1,168,261.3,166.9,258.9,165.4z M275.5,151.6c0-1.7-1.2-2.9-3.1-2.9
		c-2.5,0-4.3,2.2-4.3,4.6c0,1.8,1.2,2.8,3,2.8C273.6,156,275.5,153.9,275.5,151.6z"/>
	<path class="st0" d="M293.8,158c1.3,0,2.5-0.4,3.9-1.5l3,3.6c-1.9,1.6-4.4,2.8-7.6,2.8c-5.5,0-8.9-3.2-8.9-8.2
		c0-5.5,4.3-11.2,11.1-11.2c5.5,0,7.9,3.7,7.9,7.7c0,1.3-0.3,2.6-0.7,3.8h-12.3C290.5,156.8,291.6,158,293.8,158z M297.5,151.6
		c0.1-0.3,0.2-0.7,0.2-1c0-1.3-0.8-2.4-2.5-2.4c-1.8,0-3.5,1.1-4.3,3.4H297.5z"/>
</g>
<g>
	<path class="st0" d="M301.9,165.8c2.8-0.2,4.1-1.4,4.5-3.4h-2.1l1.5-5.5h5.6l-1.2,4.6c-1.2,4.5-3.7,6.3-7.8,6.4L301.9,165.8z"/>
</g>
<g>
	<path class="st0" d="M19.1,186.8L19.1,186.8c0-5.4,4.3-9.8,10.3-9.8c5.9,0,10.2,4.4,10.2,9.6v0.1c0,5.3-4.3,9.7-10.3,9.7
		C23.4,196.5,19.1,192.1,19.1,186.8z M33.2,186.8L33.2,186.8c0-2.3-1.6-4.3-3.9-4.3c-2.4,0-3.9,1.9-3.9,4.1v0.1
		c0,2.3,1.6,4.2,3.9,4.2C31.7,191,33.2,189.1,33.2,186.8z"/>
	<path class="st0" d="M42.3,177.5h6.5v2.6c1.2-1.5,2.9-3,5.6-3c3.9,0,6.3,2.6,6.3,6.8V196h-6.5V186c0-2-1.1-3.1-2.6-3.1
		c-1.6,0-2.7,1.1-2.7,3.1V196h-6.5V177.5z"/>
	<path class="st0" d="M74,172h7l5.7,9.3l5.7-9.3h7v24h-6.6v-13.8l-6.1,9.4h-0.1l-6.1-9.3V196H74V172z"/>
	<path class="st0" d="M103.8,172h6.7v9h8.5v-9h6.7v24h-6.7v-9.1h-8.5v9.1h-6.7V172z"/>
	<path class="st0" d="M128.8,191.8l8.6-9.1h-8.3v-5.2H146v4.3l-8.6,9.1h8.6v5.2h-17.2V191.8z"/>
	<path class="st0" d="M157.9,184.1L157.9,184.1c0-7.1,5.4-12.6,12.7-12.6c4.9,0,8.1,2.1,10.2,5l-5,3.9c-1.4-1.7-3-2.8-5.2-2.8
		c-3.4,0-5.7,2.8-5.7,6.3v0.1c0,3.6,2.4,6.4,5.7,6.4c2.5,0,4-1.2,5.4-2.9l5,3.6c-2.3,3.1-5.3,5.4-10.6,5.4
		C163.4,196.5,157.9,191.3,157.9,184.1z"/>
	<path class="st0" d="M183.3,171h6.5v9c1.2-1.5,2.9-3,5.6-3c3.9,0,6.3,2.6,6.3,6.8V196h-6.5V186c0-2-1.1-3.1-2.6-3.1
		c-1.6,0-2.7,1.1-2.7,3.1V196h-6.5V171z"/>
	<path class="st0" d="M204.3,186.8L204.3,186.8c0-5.4,4.3-9.8,10.3-9.8c5.9,0,10.2,4.4,10.2,9.6v0.1c0,5.3-4.3,9.7-10.3,9.7
		C208.6,196.5,204.3,192.1,204.3,186.8z M218.5,186.8L218.5,186.8c0-2.3-1.6-4.3-3.9-4.3c-2.4,0-3.9,1.9-3.9,4.1v0.1
		c0,2.3,1.6,4.2,3.9,4.2C217,191,218.5,189.1,218.5,186.8z"/>
	<path class="st0" d="M227.6,171h6.8v4.8h-6.8V171z M227.7,177.5h6.5V196h-6.5V177.5z"/>
	<path class="st0" d="M237.1,186.8L237.1,186.8c0-5.3,4.1-9.7,9.9-9.7c3.8,0,6.3,1.6,7.9,4.2l-4.4,3.3c-0.9-1.2-1.9-2-3.5-2
		c-2.1,0-3.6,1.9-3.6,4.1v0.1c0,2.4,1.5,4.2,3.7,4.2c1.5,0,2.5-0.7,3.6-1.9l4.4,3.2c-1.7,2.5-4.2,4.3-8.3,4.3
		C241.3,196.5,237.1,192.1,237.1,186.8z"/>
	<path class="st0" d="M256.2,186.8L256.2,186.8c0-5.5,3.9-9.8,9.4-9.8c6.4,0,9.4,4.7,9.4,10.2c0,0.4,0,0.9,0,1.3h-12.4
		c0.5,2,2,3.1,4,3.1c1.5,0,2.8-0.6,4.1-1.9l3.6,3c-1.8,2.3-4.4,3.8-8.1,3.8C260.3,196.5,256.2,192.6,256.2,186.8z M268.8,185.2
		c-0.2-2.1-1.4-3.4-3.2-3.4c-1.7,0-2.9,1.3-3.2,3.4H268.8z"/>
	<path class="st0" d="M277.3,189.4h6.8v6.7h-6.8V189.4z"/>
</g>
</svg>
