<?xml version="1.0" encoding="utf-8"?>
<!-- Generator: Adobe Illustrator 25.4.1, SVG Export Plug-In . SVG Version: 6.00 Build 0)  -->
<svg version="1.1" id="Layer_1" xmlns="http://www.w3.org/2000/svg" xmlns:xlink="http://www.w3.org/1999/xlink" x="0px" y="0px"
	 viewBox="0 0 336 280" style="enable-background:new 0 0 336 280;" xml:space="preserve">
<style type="text/css">
	.st0{clip-path:url(#SVGID_00000119815155358019179450000015963004793072031919_);fill:#AC1F2D;}
	.st1{clip-path:url(#SVGID_00000119815155358019179450000015963004793072031919_);fill:#FFFFFF;}
</style>
<g>
	<defs>
		<rect id="SVGID_1_" x="13.6" y="10.3" width="53.7" height="55.2"/>
	</defs>
	<clipPath id="SVGID_00000034797555787730835740000008567870597331274430_">
		<use xlink:href="#SVGID_1_"  style="overflow:visible;"/>
	</clipPath>
	<path style="clip-path:url(#SVGID_00000034797555787730835740000008567870597331274430_);fill:#AC1F2D;" d="M63.8,37.4
		c0,12.8-10.4,23.2-23.2,23.2S17.5,50.2,17.5,37.4c0-12.8,10.4-23.2,23.2-23.2S63.8,24.6,63.8,37.4"/>
	<path style="clip-path:url(#SVGID_00000034797555787730835740000008567870597331274430_);fill:#FFFFFF;" d="M49.9,33.1v2.6h3
		l-3.5,5.6h8.8v-2.7h-3.8l3.4-5.5H49.9z M32.7,29.8l-2.8,6.3l-2.8-6.3h-3.9v11.5h3.2v-6.1l2.8,6.1h1.4l2.8-6.3v6.3h3.2V29.8H32.7z
		 M45.4,29.8v4.1h-4.1v-4.1h-3.6v11.5h3.6v-4.6h4.1v4.6h3.6V29.8H45.4z"/>
	<path style="clip-path:url(#SVGID_00000034797555787730835740000008567870597331274430_);fill:#FFFFFF;" d="M49.7,46h3.1v-0.9h-2
		v-0.6h1.8v-0.8h-1.8v-0.6h2v-0.9h-3.1V46z M47.2,46.1c0.8,0,1.3-0.4,1.7-0.9l-0.8-0.6c-0.2,0.3-0.5,0.5-0.9,0.5
		c-0.5,0-0.9-0.4-0.9-1v0c0-0.6,0.4-1,0.9-1c0.4,0,0.6,0.2,0.8,0.4l0.8-0.6c-0.3-0.5-0.8-0.8-1.6-0.8c-1.2,0-2,0.9-2,2v0
		C45.2,45.3,46.1,46.1,47.2,46.1 M43.3,46h1.1v-3.8h-1.1V46z M40.3,45.2c-0.6,0-1-0.5-1-1v0c0-0.6,0.4-1,1-1c0.6,0,1,0.5,1,1v0
		C41.3,44.7,40.9,45.2,40.3,45.2 M40.3,46.1c1.2,0,2.1-0.9,2.1-2v0c0-1.1-0.9-2-2-2c-1.2,0-2.1,0.9-2.1,2v0
		C38.3,45.2,39.1,46.1,40.3,46.1 M33.9,46H35v-1.4h1.4V46h1.1v-3.8h-1.1v1.4H35v-1.4h-1.1V46z M31.5,46.1c0.8,0,1.3-0.4,1.7-0.9
		l-0.8-0.6c-0.2,0.3-0.5,0.5-0.9,0.5c-0.5,0-0.9-0.4-0.9-1v0c0-0.6,0.4-1,0.9-1c0.4,0,0.6,0.2,0.8,0.4l0.8-0.6
		c-0.3-0.5-0.8-0.8-1.6-0.8c-1.2,0-2,0.9-2,2v0C29.5,45.3,30.4,46.1,31.5,46.1"/>
</g>
</svg>
