<?xml version="1.0" encoding="utf-8"?>
<!-- Generator: Adobe Illustrator 26.3.1, SVG Export Plug-In . SVG Version: 6.00 Build 0)  -->
<svg version="1.1" id="Layer_1" xmlns="http://www.w3.org/2000/svg" xmlns:xlink="http://www.w3.org/1999/xlink" x="0px" y="0px"
	 viewBox="0 0 300 50" style="enable-background:new 0 0 300 50;" xml:space="preserve">
<style type="text/css">
	.st0{fill:#490A09;}
</style>
<g>
	<path class="st0" d="M8.9,17.5c0-4.2,3.4-7.8,8.4-7.8c2.6,0,4.5,1.1,5.4,2.2l-2.4,2.4c-0.8-0.8-1.8-1.3-3.2-1.3
		c-2.6,0-4.4,2-4.4,4.4c0,1.8,1.3,2.8,2.9,2.8c0.7,0,1.3-0.1,1.7-0.4l0.5-1.8h-2.5l0.7-2.6h6L20.1,22c-1.3,0.7-3,1.3-4.9,1.3
		C12.1,23.3,8.9,21.5,8.9,17.5z"/>
	<path class="st0" d="M25.6,9.4h3.5L25.4,23h-3.5L25.6,9.4z"/>
	<path class="st0" d="M28.4,18.6c0-3,2.6-5.9,5.9-5.9c3.1,0,5,2,5,4.7c0,3.1-2.6,5.9-6,5.9C30.3,23.3,28.4,21.2,28.4,18.6z
		 M35.9,17.5c0-1.1-0.7-1.9-1.8-1.9c-1.4,0-2.4,1.5-2.4,2.8c0,1.2,0.7,1.9,1.8,1.9C34.9,20.3,35.9,18.8,35.9,17.5z"/>
	<path class="st0" d="M42.2,12.9h3.5l-0.5,2c1-1.4,2.1-2.3,3.8-2.2l-1,3.7h-0.3c-1.9,0-3.2,1.1-3.8,3.5L43,23h-3.5L42.2,12.9z"/>
	<path class="st0" d="M50.3,12.9h3.5L51.1,23h-3.5L50.3,12.9z M51.2,9.4h3.7L54.1,12h-3.7L51.2,9.4z"/>
	<path class="st0" d="M53.5,20.5c0-2.2,1.8-3.6,4.4-3.6c0.9,0,1.8,0.1,2.6,0.4l0-0.1c0-0.2,0.1-0.4,0.1-0.6c0-0.7-0.5-1.1-1.7-1.1
		c-1,0-2,0.2-2.7,0.5l-0.5-2.6c1.1-0.4,2.5-0.6,4-0.6c3,0,4.5,1.2,4.5,3.2c0,0.5-0.1,1-0.2,1.5L62.4,23h-3.5l0.3-1.1
		c-0.9,0.8-1.7,1.3-2.9,1.3C54.7,23.2,53.5,22.2,53.5,20.5z M60,19.2l0.1-0.3c-0.4-0.1-0.8-0.2-1.3-0.2c-1.1,0-1.8,0.5-1.8,1.5
		c0,0.6,0.4,0.9,1,0.9C58.9,21,59.8,20.2,60,19.2z"/>
</g>
<g>
	<path class="st0" d="M65.4,19.4h3.7V23h-3.7V19.4z"/>
</g>
</svg>
