<?xml version="1.0" encoding="utf-8"?>
<!-- Generator: Adobe Illustrator 26.3.1, SVG Export Plug-In . SVG Version: 6.00 Build 0)  -->
<svg version="1.1" id="Layer_1" xmlns="http://www.w3.org/2000/svg" xmlns:xlink="http://www.w3.org/1999/xlink" x="0px" y="0px"
	 viewBox="0 0 300 50" style="enable-background:new 0 0 300 50;" xml:space="preserve">
<style type="text/css">
	.st0{fill:#490A09;}
</style>
<g>
	<path class="st0" d="M12.7,29.4H8.7v-3.2h11.5v3.2h-3.9v9.9h-3.6V29.4z"/>
	<path class="st0" d="M21.6,25.6h3.5v4.9c0.7-0.8,1.6-1.6,3-1.6c2.1,0,3.4,1.4,3.4,3.7v6.6H28v-5.5c0-1.1-0.6-1.7-1.4-1.7
		c-0.9,0-1.5,0.6-1.5,1.7v5.5h-3.5V25.6z"/>
	<path class="st0" d="M33,34.3L33,34.3c0-3,2.1-5.3,5.1-5.3c3.5,0,5.1,2.6,5.1,5.5c0,0.2,0,0.5,0,0.7h-6.8c0.3,1.1,1.1,1.7,2.2,1.7
		c0.8,0,1.5-0.3,2.2-1l2,1.6c-1,1.2-2.4,2.1-4.4,2.1C35.2,39.5,33,37.4,33,34.3z M39.9,33.4c-0.1-1.1-0.8-1.8-1.8-1.8
		c-0.9,0-1.6,0.7-1.8,1.8H39.9z"/>
	<path class="st0" d="M49.9,29.2h3.5v1.4c0.7-0.8,1.6-1.6,3-1.6c2.1,0,3.4,1.4,3.4,3.7v6.6h-3.5v-5.5c0-1.1-0.6-1.7-1.4-1.7
		c-0.9,0-1.5,0.6-1.5,1.7v5.5h-3.5V29.2z"/>
	<path class="st0" d="M61.3,34.3L61.3,34.3c0-3,2.1-5.3,5.1-5.3c3.5,0,5.1,2.6,5.1,5.5c0,0.2,0,0.5,0,0.7h-6.8
		c0.3,1.1,1.1,1.7,2.2,1.7c0.8,0,1.5-0.3,2.2-1l2,1.6c-1,1.2-2.4,2.1-4.4,2.1C63.5,39.5,61.3,37.4,61.3,34.3z M68.1,33.4
		c-0.1-1.1-0.8-1.8-1.8-1.8c-0.9,0-1.6,0.7-1.8,1.8H68.1z"/>
	<path class="st0" d="M71.8,29.2h3.5l1.3,5.1l1.5-5.1h2.9l1.6,5.2l1.4-5.1h3.4l-3.1,10.2h-3.1l-1.6-5.2l-1.7,5.2h-3L71.8,29.2z"/>
	<path class="st0" d="M93.9,26.2h10.5v3.2h-6.8v2.2h6.2v3h-6.2v4.7h-3.6V26.2z"/>
	<path class="st0" d="M105.8,29.2h3.5v2c0.6-1.4,1.5-2.3,3.2-2.2v3.7h-0.3c-1.8,0-2.9,1.1-2.9,3.4v3.1h-3.5V29.2z"/>
	<path class="st0" d="M113.2,34.3L113.2,34.3c0-3,2.1-5.3,5.1-5.3c3.5,0,5.1,2.6,5.1,5.5c0,0.2,0,0.5,0,0.7h-6.8
		c0.3,1.1,1.1,1.7,2.2,1.7c0.8,0,1.5-0.3,2.2-1l2,1.6c-1,1.2-2.4,2.1-4.4,2.1C115.5,39.5,113.2,37.4,113.2,34.3z M120.1,33.4
		c-0.1-1.1-0.8-1.8-1.8-1.8c-0.9,0-1.6,0.7-1.8,1.8H120.1z"/>
	<path class="st0" d="M124.9,29.2h3.5v1.4c0.7-0.8,1.6-1.6,3-1.6c2.1,0,3.4,1.4,3.4,3.7v6.6h-3.5v-5.5c0-1.1-0.6-1.7-1.4-1.7
		c-0.9,0-1.5,0.6-1.5,1.7v5.5h-3.5V29.2z"/>
	<path class="st0" d="M136.3,34.3L136.3,34.3c0-2.9,2.2-5.3,5.4-5.3c2.1,0,3.5,0.9,4.3,2.3l-2.4,1.8c-0.5-0.7-1-1.1-1.9-1.1
		c-1.1,0-2,1-2,2.2v0c0,1.3,0.8,2.3,2,2.3c0.8,0,1.4-0.4,1.9-1l2.4,1.7c-0.9,1.4-2.3,2.3-4.5,2.3C138.6,39.5,136.3,37.1,136.3,34.3z
		"/>
	<path class="st0" d="M147.4,25.6h3.5v4.9c0.7-0.8,1.6-1.6,3-1.6c2.1,0,3.4,1.4,3.4,3.7v6.6h-3.5v-5.5c0-1.1-0.6-1.7-1.4-1.7
		c-0.9,0-1.5,0.6-1.5,1.7v5.5h-3.5V25.6z"/>
	<path class="st0" d="M165,36.1V32h-1.2v-2.9h1.2v-2.6h3.5v2.6h2.4V32h-2.4v3.4c0,0.7,0.3,1,1,1c0.5,0,0.9-0.1,1.3-0.3v2.8
		c-0.6,0.4-1.5,0.6-2.5,0.6C166.3,39.5,165,38.5,165,36.1z"/>
	<path class="st0" d="M172.4,25.6h3.5v4.9c0.7-0.8,1.6-1.6,3-1.6c2.1,0,3.4,1.4,3.4,3.7v6.6h-3.5v-5.5c0-1.1-0.6-1.7-1.4-1.7
		c-0.9,0-1.5,0.6-1.5,1.7v5.5h-3.5V25.6z"/>
	<path class="st0" d="M184.2,29.2h3.5v2c0.6-1.4,1.5-2.3,3.2-2.2v3.7h-0.3c-1.8,0-2.9,1.1-2.9,3.4v3.1h-3.5V29.2z"/>
	<path class="st0" d="M192.2,25.6h3.7v2.6h-3.7V25.6z M192.3,29.2h3.5v10.1h-3.5V29.2z"/>
	<path class="st0" d="M197.9,25.6h3.5v13.6h-3.5V25.6z"/>
	<path class="st0" d="M203.5,25.6h3.5v13.6h-3.5V25.6z"/>
	<path class="st0" d="M208.6,34.3L208.6,34.3c0-3,2.1-5.3,5.1-5.3c3.5,0,5.1,2.6,5.1,5.5c0,0.2,0,0.5,0,0.7H212
		c0.3,1.1,1.1,1.7,2.2,1.7c0.8,0,1.5-0.3,2.2-1l2,1.6c-1,1.2-2.4,2.1-4.4,2.1C210.8,39.5,208.6,37.4,208.6,34.3z M215.5,33.4
		c-0.1-1.1-0.8-1.8-1.8-1.8c-0.9,0-1.6,0.7-1.8,1.8H215.5z"/>
	<path class="st0" d="M220.3,29.2h3.5v2c0.6-1.4,1.5-2.3,3.2-2.2v3.7h-0.3c-1.8,0-2.9,1.1-2.9,3.4v3.1h-3.5V29.2z"/>
	<path class="st0" d="M226.9,35.6h3.7v3.6h-3.7V35.6z"/>
</g>
</svg>
