<?xml version="1.0" encoding="utf-8"?>
<!-- Generator: Adobe Illustrator 26.3.1, SVG Export Plug-In . SVG Version: 6.00 Build 0)  -->
<svg version="1.1" id="Layer_1" xmlns="http://www.w3.org/2000/svg" xmlns:xlink="http://www.w3.org/1999/xlink" x="0px" y="0px"
	 viewBox="0 0 300 50" style="enable-background:new 0 0 300 50;" xml:space="preserve">
<style type="text/css">
	.st0{fill:#490A09;}
</style>
<g>
	<path class="st0" d="M9.5,16.9h4.3v5.8h5.5v-5.8h4.3v15.4h-4.3v-5.9h-5.5v5.9H9.5V16.9z"/>
	<path class="st0" d="M25.6,26.4L25.6,26.4c0-3.5,2.5-6.3,6-6.3c4.1,0,6,3,6,6.5c0,0.3,0,0.6,0,0.9h-8c0.3,1.3,1.3,2,2.6,2
		c1,0,1.8-0.4,2.6-1.2l2.3,1.9c-1.1,1.5-2.8,2.4-5.2,2.4C28.2,32.6,25.6,30.1,25.6,26.4z M33.7,25.4c-0.2-1.3-0.9-2.2-2.1-2.2
		c-1.1,0-1.9,0.9-2.1,2.2H33.7z"/>
	<path class="st0" d="M44.7,20.4h4.1l1.6,6l1.8-6h3.5l1.9,6.1l1.6-6h4l-3.7,12h-3.6l-1.9-6.2l-2,6.2h-3.6L44.7,20.4z"/>
	<path class="st0" d="M63.4,28.9L63.4,28.9c0-2.5,1.9-3.8,4.7-3.8c1.1,0,2.2,0.2,2.9,0.5v-0.2c0-1.2-0.8-1.9-2.4-1.9
		c-1.3,0-2.2,0.2-3.3,0.7l-0.9-3c1.3-0.6,2.8-0.9,4.8-0.9c2.1,0,3.6,0.5,4.5,1.5c0.9,0.9,1.3,2.1,1.3,3.8v6.9h-4.1v-1.2
		c-0.8,0.9-1.9,1.5-3.5,1.5C65.1,32.6,63.4,31.3,63.4,28.9z M71,28v-0.6c-0.4-0.2-1-0.3-1.6-0.3c-1.2,0-1.9,0.6-1.9,1.5v0
		c0,0.8,0.6,1.3,1.5,1.3C70.1,30,71,29.2,71,28z"/>
	<path class="st0" d="M76.3,30.8l1.6-2.5c1.4,0.9,2.9,1.4,4.1,1.4c0.7,0,1.1-0.2,1.1-0.6v0c0-0.5-0.7-0.7-1.9-1
		c-2.4-0.6-4.2-1.4-4.2-3.8v0c0-2.5,2-3.9,4.8-3.9c1.7,0,3.6,0.5,4.9,1.4l-1.4,2.6c-1.2-0.7-2.6-1.1-3.5-1.1c-0.6,0-1,0.2-1,0.6v0
		c0,0.5,0.7,0.7,1.9,1.1c2.4,0.7,4.2,1.5,4.2,3.8v0c0,2.6-2,4-4.9,4C79.9,32.6,78,32,76.3,30.8z"/>
	<path class="st0" d="M94.7,16.2h4.2V22c0.8-1,1.9-1.9,3.6-1.9c2.5,0,4.1,1.7,4.1,4.4v7.8h-4.2v-6.5c0-1.3-0.7-2-1.7-2
		c-1,0-1.8,0.7-1.8,2v6.5h-4.2V16.2z"/>
	<path class="st0" d="M108.2,26.4L108.2,26.4c0-3.5,2.5-6.3,6-6.3c4.1,0,6,3,6,6.5c0,0.3,0,0.6,0,0.9h-8c0.3,1.3,1.3,2,2.6,2
		c1,0,1.8-0.4,2.6-1.2l2.3,1.9c-1.1,1.5-2.8,2.4-5.2,2.4C110.8,32.6,108.2,30.1,108.2,26.4z M116.3,25.4c-0.2-1.3-0.9-2.2-2.1-2.2
		c-1.1,0-1.9,0.9-2.1,2.2H116.3z"/>
	<path class="st0" d="M122,20.4h4.2v2.4c0.7-1.6,1.8-2.7,3.8-2.6v4.4h-0.4c-2.2,0-3.4,1.3-3.4,4v3.7H122V20.4z"/>
	<path class="st0" d="M137.5,16.2h4.2V22c0.8-1,1.9-1.9,3.6-1.9c2.5,0,4.1,1.7,4.1,4.4v7.8h-4.2v-6.5c0-1.3-0.7-2-1.7-2
		c-1,0-1.8,0.7-1.8,2v6.5h-4.2V16.2z"/>
	<path class="st0" d="M151.4,28.2v-7.8h4.2v6.5c0,1.3,0.7,2,1.7,2c1,0,1.7-0.7,1.7-2v-6.5h4.2v11.9h-4.2v-1.6
		c-0.8,1-1.9,1.9-3.6,1.9C153,32.6,151.4,30.9,151.4,28.2z"/>
	<path class="st0" d="M164.6,30.8l1.6-2.5c1.4,0.9,2.9,1.4,4.1,1.4c0.7,0,1.1-0.2,1.1-0.6v0c0-0.5-0.7-0.7-1.9-1
		c-2.4-0.6-4.2-1.4-4.2-3.8v0c0-2.5,2-3.9,4.8-3.9c1.7,0,3.6,0.5,4.9,1.4l-1.4,2.6c-1.2-0.7-2.6-1.1-3.5-1.1c-0.6,0-1,0.2-1,0.6v0
		c0,0.5,0.7,0.7,1.9,1.1c2.4,0.7,4.2,1.5,4.2,3.8v0c0,2.6-2,4-4.9,4C168.3,32.6,166.3,32,164.6,30.8z"/>
	<path class="st0" d="M181,30.9v1.5h-4.2V16.2h4.2V22c0.8-1,1.8-1.9,3.6-1.9c2.8,0,5.3,2.4,5.3,6.2v0c0,3.9-2.4,6.2-5.3,6.2
		C182.9,32.6,181.8,31.8,181,30.9z M185.8,26.4L185.8,26.4c0-1.6-1.1-2.7-2.4-2.7c-1.3,0-2.4,1.1-2.4,2.7v0c0,1.6,1.1,2.7,2.4,2.7
		C184.8,29.1,185.8,28,185.8,26.4z"/>
	<path class="st0" d="M191.2,28.9L191.2,28.9c0-2.5,1.9-3.8,4.7-3.8c1.1,0,2.2,0.2,2.9,0.5v-0.2c0-1.2-0.8-1.9-2.4-1.9
		c-1.3,0-2.2,0.2-3.3,0.7l-0.9-3c1.3-0.6,2.8-0.9,4.8-0.9c2.1,0,3.6,0.5,4.5,1.5c0.9,0.9,1.3,2.1,1.3,3.8v6.9h-4.1v-1.2
		c-0.8,0.9-1.9,1.5-3.5,1.5C192.9,32.6,191.2,31.3,191.2,28.9z M198.8,28v-0.6c-0.4-0.2-1-0.3-1.6-0.3c-1.2,0-1.9,0.6-1.9,1.5v0
		c0,0.8,0.6,1.3,1.5,1.3C197.9,30,198.8,29.2,198.8,28z"/>
	<path class="st0" d="M205,20.4h4.2v1.7c0.8-1,1.9-1.9,3.6-1.9c2.5,0,4.1,1.7,4.1,4.4v7.8h-4.2v-6.5c0-1.3-0.7-2-1.7-2
		c-1,0-1.8,0.7-1.8,2v6.5H205V20.4z"/>
	<path class="st0" d="M218.5,26.4L218.5,26.4c0-3.9,2.4-6.3,5.3-6.3c1.8,0,2.9,0.8,3.7,1.7v-5.6h4.2v16.1h-4.2v-1.6
		c-0.8,1-1.9,1.9-3.6,1.9C221,32.6,218.5,30.2,218.5,26.4z M227.5,26.4L227.5,26.4c0-1.6-1.1-2.7-2.4-2.7s-2.4,1.1-2.4,2.7v0
		c0,1.6,1.1,2.7,2.4,2.7S227.5,28,227.5,26.4z"/>
	<path class="st0" d="M233.7,28h4.4v4.3h-4.4V28z"/>
</g>
</svg>
