<?xml version="1.0" encoding="utf-8"?>
<!-- Generator: Adobe Illustrator 26.3.1, SVG Export Plug-In . SVG Version: 6.00 Build 0)  -->
<svg version="1.1" id="Layer_1" xmlns="http://www.w3.org/2000/svg" xmlns:xlink="http://www.w3.org/1999/xlink" x="0px" y="0px"
	 viewBox="0 0 300 50" style="enable-background:new 0 0 300 50;" xml:space="preserve">
<style type="text/css">
	.st0{fill:#AB1F2D;}
	.st1{fill:#FFFFFF;}
</style>
<path class="st0" d="M253.2,33c-3,0-5.5,2.5-5.5,5.5v1.6c0,3,2.5,5.5,5.5,5.5h38c3,0,5.5-2.5,5.5-5.5v-1.6c0-3-2.4-5.5-5.5-5.5
	H253.2z"/>
<g>
	<path class="st1" d="M251,37.4h1l0.9,3l1-3h0.8l1,3l0.9-3h1l-1.5,4.4h-0.8l-1-2.9l-1,2.9h-0.8L251,37.4z"/>
	<path class="st1" d="M259.3,37.4h0.9l1.9,4.4h-1l-0.4-1h-1.8l-0.4,1h-1L259.3,37.4z M260.3,40l-0.6-1.4l-0.6,1.4H260.3z"/>
	<path class="st1" d="M263.2,38.3h-1.3v-0.9h3.6v0.9h-1.3v3.5h-1V38.3z"/>
	<path class="st1" d="M265.8,39.6L265.8,39.6c0-1.3,0.9-2.3,2.3-2.3c0.8,0,1.3,0.3,1.7,0.7l-0.6,0.7c-0.3-0.3-0.7-0.5-1.1-0.5
		c-0.7,0-1.3,0.6-1.3,1.4v0c0,0.7,0.5,1.4,1.3,1.4c0.5,0,0.8-0.2,1.1-0.5l0.6,0.6c-0.4,0.5-0.9,0.8-1.8,0.8
		C266.8,41.9,265.8,40.9,265.8,39.6z"/>
	<path class="st1" d="M270.6,37.4h1v1.7h1.8v-1.7h1v4.4h-1v-1.8h-1.8v1.8h-1V37.4z"/>
	<path class="st1" d="M277.2,37.4h0.9l2,2.7v-2.7h0.9v4.4h-0.8l-2.1-2.8v2.8h-0.9V37.4z"/>
	<path class="st1" d="M282,39.6L282,39.6c0-1.3,1-2.3,2.3-2.3c1.3,0,2.3,1,2.3,2.2v0c0,1.2-1,2.3-2.3,2.3
		C282.9,41.9,282,40.9,282,39.6z M285.6,39.6L285.6,39.6c0-0.8-0.5-1.4-1.3-1.4c-0.8,0-1.3,0.6-1.3,1.4v0c0,0.7,0.5,1.4,1.3,1.4
		C285.1,41,285.6,40.4,285.6,39.6z"/>
	<path class="st1" d="M286.9,37.4h1l0.9,3l1-3h0.8l1,3l0.9-3h1l-1.5,4.4h-0.8l-1-2.9l-1,2.9h-0.8L286.9,37.4z"/>
</g>
</svg>
