<?xml version="1.0" encoding="utf-8"?>
<!-- Generator: Adobe Illustrator 26.3.1, SVG Export Plug-In . SVG Version: 6.00 Build 0)  -->
<svg version="1.1" id="Layer_1" xmlns="http://www.w3.org/2000/svg" xmlns:xlink="http://www.w3.org/1999/xlink" x="0px" y="0px"
	 viewBox="0 0 728 90" style="enable-background:new 0 0 728 90;" xml:space="preserve">
<style type="text/css">
	.st0{fill:#490A09;}
</style>
<g>
	<path class="st0" d="M68.7,20.5h15.4c3.8,0,6.5,0.9,8.2,2.7c1.2,1.2,1.9,2.8,1.9,4.9v0.1c0,3.5-2,5.5-4.6,6.7c3.7,1.2,6,3.3,6,7.4
		v0.1c0,5.2-4.2,8.3-11.4,8.3H68.7V20.5z M82,32.5c2.5,0,4-0.9,4-2.6v-0.1c0-1.6-1.3-2.6-3.8-2.6h-5.4v5.3H82z M83.2,43.9
		c2.5,0,4-1,4-2.8V41c0-1.6-1.3-2.7-4.1-2.7h-6.4v5.5H83.2z"/>
	<path class="st0" d="M98,39L98,39c0-6.9,4.9-12.3,11.7-12.3c8,0,11.7,5.9,11.7,12.7c0,0.5,0,1.1,0,1.7h-15.6c0.6,2.5,2.5,3.8,5,3.8
		c1.9,0,3.5-0.7,5.2-2.4l4.5,3.7c-2.2,2.8-5.5,4.7-10.1,4.7C103.2,51.1,98,46.3,98,39z M113.8,37c-0.3-2.6-1.8-4.2-4-4.2
		c-2.1,0-3.6,1.7-4,4.2H113.8z"/>
	<path class="st0" d="M125,19.2h8.2v11.3c1.5-1.9,3.7-3.7,7-3.7c4.9,0,7.9,3.3,7.9,8.6v15.2h-8.2V38c0-2.5-1.3-3.9-3.3-3.9
		c-2,0-3.4,1.4-3.4,3.9v12.6H125V19.2z"/>
	<path class="st0" d="M152.2,19.2h8.5v6h-8.5V19.2z M152.4,27.3h8.2v23.3h-8.2V27.3z"/>
	<path class="st0" d="M165.1,27.3h8.2v3.3c1.5-1.9,3.7-3.8,7-3.8c4.9,0,7.9,3.3,7.9,8.6v15.2H180V38c0-2.5-1.3-3.9-3.3-3.9
		c-2,0-3.4,1.4-3.4,3.9v12.6h-8.2V27.3z"/>
	<path class="st0" d="M191.5,39L191.5,39c0-7.7,4.7-12.3,10.2-12.3c3.5,0,5.6,1.6,7.1,3.4v-11h8.2v31.4h-8.2v-3.1
		c-1.6,1.9-3.6,3.6-7.1,3.6C196.3,51.1,191.5,46.5,191.5,39z M209,39L209,39c0-3.1-2.1-5.3-4.7-5.3c-2.6,0-4.8,2.1-4.8,5.2V39
		c0,3.1,2.1,5.3,4.8,5.3C206.9,44.2,209,42,209,39z"/>
	<path class="st0" d="M232.4,39L232.4,39c0-6.9,4.9-12.3,11.7-12.3c8,0,11.7,5.9,11.7,12.7c0,0.5,0,1.1,0,1.7h-15.6
		c0.6,2.5,2.5,3.8,5,3.8c1.9,0,3.5-0.7,5.2-2.4l4.5,3.7c-2.2,2.8-5.5,4.7-10.1,4.7C237.6,51.1,232.4,46.3,232.4,39z M248.2,37
		c-0.3-2.6-1.8-4.2-4-4.2c-2.1,0-3.6,1.7-4,4.2H248.2z"/>
	<path class="st0" d="M256.5,27.3h8.6l4.5,13.6l4.5-13.6h8.5l-9.3,23.4h-7.4L256.5,27.3z"/>
	<path class="st0" d="M282.9,39L282.9,39c0-6.9,4.9-12.3,11.7-12.3c8,0,11.7,5.9,11.7,12.7c0,0.5,0,1.1,0,1.7h-15.6
		c0.6,2.5,2.5,3.8,5,3.8c1.9,0,3.5-0.7,5.2-2.4l4.5,3.7c-2.2,2.8-5.5,4.7-10.1,4.7C288,51.1,282.9,46.3,282.9,39z M298.7,37
		c-0.3-2.6-1.8-4.2-4-4.2c-2.1,0-3.6,1.7-4,4.2H298.7z"/>
	<path class="st0" d="M309.9,27.3h8.2V32c1.3-3.2,3.5-5.2,7.4-5.1v8.6h-0.7c-4.3,0-6.7,2.5-6.7,7.8v7.2h-8.2V27.3z"/>
	<path class="st0" d="M327.7,55.5l2.5-5.7c1.3,0.8,2.7,1.2,3.6,1.2c0.8,0,1.4-0.2,1.9-0.9l-9.1-22.8h8.6l4.6,14l4.4-14h8.4L344,50
		c-2,5.4-4.2,7.6-8.9,7.6C332.3,57.6,329.8,56.8,327.7,55.5z"/>
	<path class="st0" d="M367.1,27.3h8.2v3.1c1.6-1.9,3.6-3.6,7.1-3.6c5.5,0,10.3,4.6,10.3,12v0.1c0,7.6-4.8,12.2-10.3,12.2
		c-3.5,0-5.6-1.6-7.1-3.4v9.7h-8.2V27.3z M384.6,39L384.6,39c0-3.1-2.1-5.3-4.8-5.3c-2.6,0-4.7,2.2-4.7,5.2V39
		c0,3.1,2.1,5.3,4.7,5.3C382.5,44.2,384.6,42.1,384.6,39z"/>
	<path class="st0" d="M395.2,39L395.2,39c0-6.9,4.9-12.3,11.7-12.3c8,0,11.7,5.9,11.7,12.7c0,0.5,0,1.1,0,1.7h-15.6
		c0.6,2.5,2.5,3.8,5,3.8c1.9,0,3.5-0.7,5.2-2.4l4.5,3.7c-2.2,2.8-5.5,4.7-10.1,4.7C400.4,51.1,395.2,46.3,395.2,39z M411,37
		c-0.3-2.6-1.8-4.2-4-4.2c-2.1,0-3.6,1.7-4,4.2H411z"/>
	<path class="st0" d="M422.2,27.3h8.2V32c1.3-3.2,3.5-5.2,7.4-5.1v8.6H437c-4.3,0-6.7,2.5-6.7,7.8v7.2h-8.2V27.3z"/>
	<path class="st0" d="M442,33.8h-2.7v-6.4h2.7v-0.5c0-2.7,0.6-4.6,2-6c1.4-1.4,3.3-2,6.1-2c2.5,0,4,0.3,5.3,0.6v5.8
		c-0.9-0.3-1.9-0.5-3.1-0.5c-1.5,0-2.3,0.7-2.3,2.2v0.6h5.3v6.3h-5.2v16.7H442V33.8z"/>
	<path class="st0" d="M456.6,39L456.6,39c0-6.9,4.9-12.3,11.7-12.3c8,0,11.7,5.9,11.7,12.7c0,0.5,0,1.1,0,1.7h-15.6
		c0.6,2.5,2.5,3.8,5,3.8c1.9,0,3.5-0.7,5.2-2.4l4.5,3.7c-2.2,2.8-5.5,4.7-10.1,4.7C461.8,51.1,456.6,46.3,456.6,39z M472.4,37
		c-0.3-2.6-1.8-4.2-4-4.2c-2.1,0-3.6,1.7-4,4.2H472.4z"/>
	<path class="st0" d="M482.6,39L482.6,39c0-6.7,5.1-12.2,12.5-12.2c4.8,0,8,2.1,9.9,5.2l-5.5,4.1c-1.1-1.5-2.4-2.5-4.3-2.5
		c-2.6,0-4.6,2.3-4.6,5.2V39c0,3,1.9,5.3,4.6,5.3c1.9,0,3.2-0.9,4.5-2.4l5.5,4c-2.1,3.2-5.2,5.3-10.4,5.3
		C487.8,51.1,482.6,45.6,482.6,39z"/>
	<path class="st0" d="M509.5,43.3v-9.5h-2.8v-6.6h2.8v-5.9h8.2v5.9h5.4v6.6h-5.4v7.9c0,1.6,0.7,2.3,2.2,2.3c1.1,0,2.1-0.3,3.1-0.8
		v6.4c-1.5,0.8-3.4,1.3-5.7,1.3C512.4,51,509.5,48.9,509.5,43.3z"/>
</g>
<g>
	<path class="st0" d="M538.6,19.2h8.2v31.4h-8.2V19.2z"/>
	<path class="st0" d="M551.3,19.2h8.5v6h-8.5V19.2z M551.5,27.3h8.2v23.3h-8.2V27.3z"/>
	<path class="st0" d="M565.7,33.8h-2.7v-6.4h2.7v-0.5c0-2.7,0.6-4.6,2-6c1.4-1.4,3.3-2,6.1-2c2.5,0,4,0.3,5.3,0.6v5.8
		c-0.9-0.3-1.9-0.5-3.1-0.5c-1.5,0-2.3,0.7-2.3,2.2v0.6h5.3v6.3h-5.2v16.7h-8.1V33.8z"/>
	<path class="st0" d="M580.2,39L580.2,39c0-6.9,4.9-12.3,11.7-12.3c8,0,11.7,5.9,11.7,12.7c0,0.5,0,1.1,0,1.7h-15.6
		c0.6,2.5,2.5,3.8,5,3.8c1.9,0,3.5-0.7,5.2-2.4l4.5,3.7c-2.2,2.8-5.5,4.7-10.1,4.7C585.4,51.1,580.2,46.3,580.2,39z M596,37
		c-0.3-2.6-1.8-4.2-4-4.2c-2.1,0-3.6,1.7-4,4.2H596z"/>
</g>
</svg>
