<?xml version="1.0" encoding="utf-8"?>
<!-- Generator: Adobe Illustrator 26.3.1, SVG Export Plug-In . SVG Version: 6.00 Build 0)  -->
<svg version="1.1" id="Layer_1" xmlns="http://www.w3.org/2000/svg" xmlns:xlink="http://www.w3.org/1999/xlink" x="0px" y="0px"
	 viewBox="0 0 728 90" style="enable-background:new 0 0 728 90;" xml:space="preserve">
<style type="text/css">
	.st0{fill:#490A09;}
</style>
<g>
	<path class="st0" d="M69,28.9c0-8.9,7.3-16.8,18-16.8c5.6,0,9.7,2.3,11.6,4.8l-5.2,5c-1.6-1.6-3.9-2.9-6.9-2.9
		c-5.6,0-9.5,4.4-9.5,9.5c0,3.9,2.8,6,6.3,6c1.6,0,2.8-0.3,3.7-0.8l1.1-3.8h-5.4l1.5-5.7H97l-4,14.1c-2.8,1.6-6.4,2.8-10.5,2.8
		C75.8,41.3,69,37.5,69,28.9z"/>
	<path class="st0" d="M104.6,11.5h7.6l-7.8,29.2h-7.6L104.6,11.5z"/>
	<path class="st0" d="M110.7,31.2c0-6.5,5.5-12.6,12.7-12.6c6.6,0,10.6,4.4,10.6,10c0,6.6-5.5,12.6-12.8,12.6
		C114.7,41.2,110.7,36.9,110.7,31.2z M126.8,28.9c0-2.4-1.5-4-3.8-4c-3,0-5,3.2-5,6c0,2.5,1.5,4,3.8,4
		C124.8,34.9,126.8,31.8,126.8,28.9z"/>
	<path class="st0" d="M140.2,19.1h7.6l-1.2,4.4c2.1-3.1,4.6-5,8.1-4.7l-2.2,8H152c-4.2,0-6.8,2.3-8.2,7.5l-1.8,6.5h-7.6L140.2,19.1z
		"/>
	<path class="st0" d="M157.6,19.1h7.6l-5.8,21.6h-7.6L157.6,19.1z M159.5,11.5h7.9l-1.5,5.6H158L159.5,11.5z"/>
	<path class="st0" d="M164.6,35.3c0-4.8,3.8-7.6,9.5-7.6c2,0,3.8,0.3,5.5,0.8l0.1-0.3c0.1-0.4,0.2-0.8,0.2-1.3
		c0-1.4-1.1-2.3-3.7-2.3c-2,0-4.3,0.5-5.8,1.1l-1.1-5.5c2.3-0.8,5.4-1.3,8.5-1.3c6.5,0,9.6,2.6,9.6,6.9c0,1-0.2,2-0.4,3.1l-3.2,11.9
		h-7.5l0.6-2.3c-1.8,1.7-3.7,2.8-6.2,2.8C167,41.2,164.6,38.9,164.6,35.3z M178.6,32.6l0.2-0.7c-0.8-0.3-1.8-0.5-2.8-0.5
		c-2.4,0-4,1.2-4,3.1c0,1.2,0.9,2,2.2,2C176.1,36.5,178,34.8,178.6,32.6z"/>
</g>
<g>
	<path class="st0" d="M190.1,32.9h7.9v7.8h-7.9V32.9z"/>
</g>
</svg>
