<?xml version="1.0" encoding="utf-8"?>
<!-- Generator: Adobe Illustrator 26.3.1, SVG Export Plug-In . SVG Version: 6.00 Build 0)  -->
<svg version="1.1" id="Layer_1" xmlns="http://www.w3.org/2000/svg" xmlns:xlink="http://www.w3.org/1999/xlink" x="0px" y="0px"
	 viewBox="0 0 728 90" style="enable-background:new 0 0 728 90;" xml:space="preserve">
<style type="text/css">
	.st0{fill:#490A09;}
</style>
<g>
	<path class="st0" d="M77,55.5h-8.4v-6.8h24.6v6.8h-8.4v21.2H77V55.5z"/>
	<path class="st0" d="M96.1,47.5h7.6v10.5c1.4-1.8,3.4-3.4,6.5-3.4c4.6,0,7.4,3,7.4,8v14.2H110V65c0-2.4-1.2-3.6-3-3.6
		c-1.8,0-3.2,1.3-3.2,3.6v11.7h-7.6V47.5z"/>
	<path class="st0" d="M120.6,66L120.6,66c0-6.4,4.5-11.4,10.9-11.4c7.5,0,10.9,5.5,10.9,11.8c0,0.5,0,1,0,1.6h-14.5
		c0.6,2.4,2.3,3.6,4.7,3.6c1.8,0,3.2-0.7,4.8-2.2l4.2,3.5c-2.1,2.6-5.1,4.4-9.4,4.4C125.4,77.2,120.6,72.7,120.6,66z M135.3,64.1
		c-0.3-2.4-1.7-3.9-3.8-3.9c-2,0-3.4,1.6-3.8,3.9H135.3z"/>
	<path class="st0" d="M156.8,55.1h7.6v3c1.4-1.8,3.4-3.5,6.5-3.5c4.6,0,7.4,3,7.4,8v14.2h-7.6V65c0-2.4-1.2-3.6-3-3.6
		c-1.8,0-3.2,1.3-3.2,3.6v11.7h-7.6V55.1z"/>
	<path class="st0" d="M181.2,66L181.2,66c0-6.4,4.5-11.4,10.9-11.4c7.5,0,10.9,5.5,10.9,11.8c0,0.5,0,1,0,1.6h-14.5
		c0.6,2.4,2.3,3.6,4.7,3.6c1.8,0,3.2-0.7,4.8-2.2l4.2,3.5c-2.1,2.6-5.1,4.4-9.4,4.4C186,77.2,181.2,72.7,181.2,66z M196,64.1
		c-0.3-2.4-1.7-3.9-3.8-3.9c-2,0-3.4,1.6-3.8,3.9H196z"/>
	<path class="st0" d="M203.8,55.1h7.4L214,66l3.3-11h6.3l3.4,11l2.9-11h7.3l-6.7,21.8H224l-3.5-11.2l-3.6,11.2h-6.5L203.8,55.1z"/>
	<path class="st0" d="M251.3,48.7h22.4v6.8H259v4.8h13.2v6.4H259v10h-7.8V48.7z"/>
	<path class="st0" d="M276.8,55.1h7.6v4.4c1.2-3,3.2-4.9,6.8-4.7v8h-0.6c-4,0-6.2,2.3-6.2,7.3v6.7h-7.6V55.1z"/>
	<path class="st0" d="M292.6,66L292.6,66c0-6.4,4.5-11.4,10.9-11.4c7.5,0,10.9,5.5,10.9,11.8c0,0.5,0,1,0,1.6H300
		c0.6,2.4,2.3,3.6,4.7,3.6c1.8,0,3.2-0.7,4.8-2.2l4.2,3.5c-2.1,2.6-5.1,4.4-9.4,4.4C297.4,77.2,292.6,72.7,292.6,66z M307.4,64.1
		c-0.3-2.4-1.7-3.9-3.8-3.9c-2,0-3.4,1.6-3.8,3.9H307.4z"/>
	<path class="st0" d="M317.7,55.1h7.6v3c1.4-1.8,3.4-3.5,6.5-3.5c4.6,0,7.4,3,7.4,8v14.2h-7.6V65c0-2.4-1.2-3.6-3-3.6
		c-1.8,0-3.2,1.3-3.2,3.6v11.7h-7.6V55.1z"/>
	<path class="st0" d="M342.2,66L342.2,66c0-6.2,4.8-11.4,11.6-11.4c4.4,0,7.4,1.9,9.2,4.8l-5.2,3.8c-1-1.4-2.2-2.3-4-2.3
		c-2.4,0-4.2,2.2-4.2,4.8v0.1c0,2.8,1.8,4.9,4.3,4.9c1.8,0,3-0.8,4.2-2.2l5.1,3.7c-2,3-4.9,5-9.6,5C347,77.2,342.2,72.1,342.2,66z"
		/>
	<path class="st0" d="M365.8,47.5h7.6v10.5c1.4-1.8,3.4-3.4,6.5-3.4c4.6,0,7.4,3,7.4,8v14.2h-7.6V65c0-2.4-1.2-3.6-3-3.6
		c-1.8,0-3.2,1.3-3.2,3.6v11.7h-7.6V47.5z"/>
	<path class="st0" d="M403.6,70v-8.8H401v-6.1h2.6v-5.5h7.6v5.5h5v6.1h-5v7.3c0,1.5,0.7,2.2,2.1,2.2c1,0,2-0.3,2.9-0.7v6
		c-1.4,0.8-3.2,1.2-5.3,1.2C406.3,77.2,403.6,75.2,403.6,70z"/>
	<path class="st0" d="M419.5,47.5h7.6v10.5c1.4-1.8,3.4-3.4,6.5-3.4c4.6,0,7.4,3,7.4,8v14.2h-7.6V65c0-2.4-1.2-3.6-3-3.6
		c-1.8,0-3.2,1.3-3.2,3.6v11.7h-7.6V47.5z"/>
	<path class="st0" d="M444.9,55.1h7.6v4.4c1.2-3,3.2-4.9,6.8-4.7v8h-0.6c-4,0-6.2,2.3-6.2,7.3v6.7h-7.6V55.1z"/>
	<path class="st0" d="M462,47.5h7.9v5.6H462V47.5z M462.2,55.1h7.6v21.6h-7.6V55.1z"/>
	<path class="st0" d="M474.2,47.5h7.6v29.2h-7.6V47.5z"/>
	<path class="st0" d="M486.2,47.5h7.6v29.2h-7.6V47.5z"/>
	<path class="st0" d="M497.1,66L497.1,66c0-6.4,4.5-11.4,10.9-11.4c7.5,0,10.9,5.5,10.9,11.8c0,0.5,0,1,0,1.6h-14.5
		c0.6,2.4,2.3,3.6,4.7,3.6c1.8,0,3.2-0.7,4.8-2.2l4.2,3.5c-2.1,2.6-5.1,4.4-9.4,4.4C501.9,77.2,497.1,72.7,497.1,66z M511.8,64.1
		c-0.3-2.4-1.7-3.9-3.8-3.9c-2,0-3.4,1.6-3.8,3.9H511.8z"/>
	<path class="st0" d="M522.2,55.1h7.6v4.4c1.2-3,3.2-4.9,6.8-4.7v8H536c-4,0-6.2,2.3-6.2,7.3v6.7h-7.6V55.1z"/>
	<path class="st0" d="M536.4,68.9h7.9v7.8h-7.9V68.9z"/>
</g>
</svg>
