<svg id="Layer_1" xmlns="http://www.w3.org/2000/svg" xmlns:xlink="http://www.w3.org/1999/xlink" viewBox="0 0 336 280"><style>.st0,.st1{clip-path:url(#SVGID_00000086674723230837225930000010519003604503340700_);fill:#ac1f2d}.st1{fill:#fff}</style><defs><path id="SVGID_1_" d="M12.9 10.3h54.7v55.2H12.9z"/></defs><clipPath id="SVGID_00000016061631087485408160000003115751393122815643_"><use xlink:href="#SVGID_1_" overflow="visible"/></clipPath><path d="M64.1 37.4c0 12.8-10.4 23.2-23.2 23.2S17.7 50.2 17.7 37.4c0-12.8 10.4-23.2 23.2-23.2s23.2 10.4 23.2 23.2" clip-path="url(#SVGID_00000016061631087485408160000003115751393122815643_)" fill="#ac1f2d"/><path d="M50.2 33.1v2.6h3l-3.5 5.6h8.8v-2.7h-3.8l3.4-5.5h-7.9zm-17.3-3.3l-2.8 6.3-2.8-6.3h-3.9v11.5h3.2v-6.1l2.8 6.1h1.4l2.8-6.3v6.3h3.2V29.8h-3.9zm12.7 0v4.1h-4.1v-4.1H38v11.5h3.6v-4.6h4.1v4.6h3.6V29.8h-3.7zM49.9 46H53v-.9h-2v-.6h1.8v-.8H51v-.6h2v-.9h-3.1V46zm-2.4.1c.8 0 1.3-.4 1.7-.9l-.8-.6c-.2.3-.5.5-.9.5-.5 0-.9-.4-.9-1s.4-1 .9-1c.4 0 .6.2.8.4l.8-.6c-.3-.5-.8-.8-1.6-.8-1.2 0-2 .9-2 2 0 1.2.9 2 2 2m-4-.1h1.1v-3.8h-1.1V46zm-2.9-.8c-.6 0-1-.5-1-1 0-.6.4-1 1-1s1 .5 1 1-.4 1-1 1m0 .9c1.2 0 2.1-.9 2.1-2s-.9-2-2-2c-1.2 0-2.1.9-2.1 2-.1 1.1.8 2 2 2m-6.4-.1h1.1v-1.4h1.4V46h1.1v-3.8h-1.1v1.4h-1.4v-1.4h-1.1V46zm-2.5.1c.8 0 1.3-.4 1.7-.9l-.8-.6c-.2.3-.5.5-.9.5-.5 0-.9-.4-.9-1s.4-1 .9-1c.4 0 .6.2.8.4l.8-.6c-.3-.5-.8-.8-1.6-.8-1.2 0-2 .9-2 2 .1 1.2 1 2 2 2" clip-path="url(#SVGID_00000016061631087485408160000003115751393122815643_)" fill="#fff"/></svg>