<?xml version="1.0" encoding="utf-8"?>
<!-- Generator: Adobe Illustrator 26.3.1, SVG Export Plug-In . SVG Version: 6.00 Build 0)  -->
<svg version="1.1" id="Layer_1" xmlns="http://www.w3.org/2000/svg" xmlns:xlink="http://www.w3.org/1999/xlink" x="0px" y="0px"
	 viewBox="0 0 300 50" style="enable-background:new 0 0 300 50;" xml:space="preserve">
<style type="text/css">
	.st0{fill:#490A09;}
</style>
<g>
	<path class="st0" d="M13.7,29.9H9.7v-3.2h11.5v3.2h-3.9v9.9h-3.6V29.9z"/>
	<path class="st0" d="M22.6,26.1h3.5v4.9c0.7-0.8,1.6-1.6,3-1.6c2.1,0,3.4,1.4,3.4,3.7v6.6H29v-5.5c0-1.1-0.6-1.7-1.4-1.7
		c-0.9,0-1.5,0.6-1.5,1.7v5.5h-3.5V26.1z"/>
	<path class="st0" d="M34,34.8L34,34.8c0-3,2.1-5.3,5.1-5.3c3.5,0,5.1,2.6,5.1,5.5c0,0.2,0,0.5,0,0.7h-6.8c0.3,1.1,1.1,1.7,2.2,1.7
		c0.8,0,1.5-0.3,2.2-1l2,1.6c-1,1.2-2.4,2.1-4.4,2.1C36.2,40,34,37.9,34,34.8z M40.9,33.9c-0.1-1.1-0.8-1.8-1.8-1.8
		c-0.9,0-1.6,0.7-1.8,1.8H40.9z"/>
	<path class="st0" d="M50.9,29.7h3.5v1.4c0.7-0.8,1.6-1.6,3-1.6c2.1,0,3.4,1.4,3.4,3.7v6.6h-3.5v-5.5c0-1.1-0.6-1.7-1.4-1.7
		c-0.9,0-1.5,0.6-1.5,1.7v5.5h-3.5V29.7z"/>
	<path class="st0" d="M62.3,34.8L62.3,34.8c0-3,2.1-5.3,5.1-5.3c3.5,0,5.1,2.6,5.1,5.5c0,0.2,0,0.5,0,0.7h-6.8
		c0.3,1.1,1.1,1.7,2.2,1.7c0.8,0,1.5-0.3,2.2-1l2,1.6c-1,1.2-2.4,2.1-4.4,2.1C64.5,40,62.3,37.9,62.3,34.8z M69.1,33.9
		c-0.1-1.1-0.8-1.8-1.8-1.8c-0.9,0-1.6,0.7-1.8,1.8H69.1z"/>
	<path class="st0" d="M72.8,29.7h3.5l1.3,5.1l1.5-5.1h2.9l1.6,5.2l1.4-5.1h3.4l-3.1,10.2h-3.1l-1.6-5.2l-1.7,5.2h-3L72.8,29.7z"/>
	<path class="st0" d="M94.9,26.7h10.5v3.2h-6.8v2.2h6.2v3h-6.2v4.7h-3.6V26.7z"/>
	<path class="st0" d="M106.8,29.7h3.5v2c0.6-1.4,1.5-2.3,3.2-2.2v3.7h-0.3c-1.8,0-2.9,1.1-2.9,3.4v3.1h-3.5V29.7z"/>
	<path class="st0" d="M114.2,34.8L114.2,34.8c0-3,2.1-5.3,5.1-5.3c3.5,0,5.1,2.6,5.1,5.5c0,0.2,0,0.5,0,0.7h-6.8
		c0.3,1.1,1.1,1.7,2.2,1.7c0.8,0,1.5-0.3,2.2-1l2,1.6c-1,1.2-2.4,2.1-4.4,2.1C116.5,40,114.2,37.9,114.2,34.8z M121.1,33.9
		c-0.1-1.1-0.8-1.8-1.8-1.8c-0.9,0-1.6,0.7-1.8,1.8H121.1z"/>
	<path class="st0" d="M125.9,29.7h3.5v1.4c0.7-0.8,1.6-1.6,3-1.6c2.1,0,3.4,1.4,3.4,3.7v6.6h-3.5v-5.5c0-1.1-0.6-1.7-1.4-1.7
		c-0.9,0-1.5,0.6-1.5,1.7v5.5h-3.5V29.7z"/>
	<path class="st0" d="M137.3,34.8L137.3,34.8c0-2.9,2.2-5.3,5.4-5.3c2.1,0,3.5,0.9,4.3,2.3l-2.4,1.8c-0.5-0.7-1-1.1-1.9-1.1
		c-1.1,0-2,1-2,2.2v0c0,1.3,0.8,2.3,2,2.3c0.8,0,1.4-0.4,1.9-1l2.4,1.7c-0.9,1.4-2.3,2.3-4.5,2.3C139.6,40,137.3,37.6,137.3,34.8z"
		/>
	<path class="st0" d="M148.4,26.1h3.5v4.9c0.7-0.8,1.6-1.6,3-1.6c2.1,0,3.4,1.4,3.4,3.7v6.6h-3.5v-5.5c0-1.1-0.6-1.7-1.4-1.7
		c-0.9,0-1.5,0.6-1.5,1.7v5.5h-3.5V26.1z"/>
	<path class="st0" d="M166,36.6v-4.1h-1.2v-2.9h1.2v-2.6h3.5v2.6h2.4v2.9h-2.4v3.4c0,0.7,0.3,1,1,1c0.5,0,0.9-0.1,1.3-0.3v2.8
		c-0.6,0.4-1.5,0.6-2.5,0.6C167.3,40,166,39,166,36.6z"/>
	<path class="st0" d="M173.4,26.1h3.5v4.9c0.7-0.8,1.6-1.6,3-1.6c2.1,0,3.4,1.4,3.4,3.7v6.6h-3.5v-5.5c0-1.1-0.6-1.7-1.4-1.7
		c-0.9,0-1.5,0.6-1.5,1.7v5.5h-3.5V26.1z"/>
	<path class="st0" d="M185.2,29.7h3.5v2c0.6-1.4,1.5-2.3,3.2-2.2v3.7h-0.3c-1.8,0-2.9,1.1-2.9,3.4v3.1h-3.5V29.7z"/>
	<path class="st0" d="M193.2,26.1h3.7v2.6h-3.7V26.1z M193.3,29.7h3.5v10.1h-3.5V29.7z"/>
	<path class="st0" d="M198.9,26.1h3.5v13.6h-3.5V26.1z"/>
	<path class="st0" d="M204.5,26.1h3.5v13.6h-3.5V26.1z"/>
	<path class="st0" d="M209.6,34.8L209.6,34.8c0-3,2.1-5.3,5.1-5.3c3.5,0,5.1,2.6,5.1,5.5c0,0.2,0,0.5,0,0.7H213
		c0.3,1.1,1.1,1.7,2.2,1.7c0.8,0,1.5-0.3,2.2-1l2,1.6c-1,1.2-2.4,2.1-4.4,2.1C211.8,40,209.6,37.9,209.6,34.8z M216.5,33.9
		c-0.1-1.1-0.8-1.8-1.8-1.8c-0.9,0-1.6,0.7-1.8,1.8H216.5z"/>
	<path class="st0" d="M221.3,29.7h3.5v2c0.6-1.4,1.5-2.3,3.2-2.2v3.7h-0.3c-1.8,0-2.9,1.1-2.9,3.4v3.1h-3.5V29.7z"/>
	<path class="st0" d="M227.9,36.1h3.7v3.6h-3.7V36.1z"/>
</g>
</svg>
