<?xml version="1.0" encoding="utf-8"?>
<!-- Generator: Adobe Illustrator 26.3.1, SVG Export Plug-In . SVG Version: 6.00 Build 0)  -->
<svg version="1.1" id="Layer_1" xmlns="http://www.w3.org/2000/svg" xmlns:xlink="http://www.w3.org/1999/xlink" x="0px" y="0px"
	 viewBox="0 0 300 50" style="enable-background:new 0 0 300 50;" xml:space="preserve">
<style type="text/css">
	.st0{fill:#490A09;}
	.st1{font-family:'Gotham-Black';}
	.st2{font-size:20.6709px;}
	.st3{fill:#373535;}
	.st4{font-size:10.0585px;}
</style>
<g>
	<path class="st0" d="M9.8,17.1h7.4c1.8,0,3.1,0.5,3.9,1.3c0.6,0.6,0.9,1.3,0.9,2.3v0c0,1.7-1,2.7-2.2,3.2c1.8,0.6,2.9,1.6,2.9,3.5
		v0c0,2.5-2,4-5.5,4H9.8V17.1z M16.2,22.9c1.2,0,1.9-0.4,1.9-1.3v0c0-0.8-0.6-1.2-1.8-1.2h-2.6v2.5H16.2z M16.8,28.4
		c1.2,0,1.9-0.5,1.9-1.3v0c0-0.8-0.6-1.3-2-1.3h-3.1v2.7H16.8z"/>
	<path class="st0" d="M23.9,26.1L23.9,26.1c0-3.3,2.3-5.9,5.6-5.9c3.9,0,5.6,2.8,5.6,6.1c0,0.2,0,0.5,0,0.8h-7.5
		c0.3,1.2,1.2,1.8,2.4,1.8c0.9,0,1.7-0.4,2.5-1.1l2.2,1.8c-1.1,1.4-2.6,2.3-4.9,2.3C26.4,31.9,23.9,29.5,23.9,26.1z M31.5,25.1
		c-0.1-1.2-0.9-2-1.9-2c-1,0-1.7,0.8-1.9,2H31.5z"/>
	<path class="st0" d="M36.8,16.5h3.9v5.4c0.7-0.9,1.8-1.8,3.3-1.8c2.4,0,3.8,1.6,3.8,4.1v7.3H44v-6.1c0-1.2-0.6-1.9-1.6-1.9
		c-1,0-1.7,0.7-1.7,1.9v6.1h-3.9V16.5z"/>
	<path class="st0" d="M49.9,16.5H54v2.9h-4.1V16.5z M50,20.4H54v11.2H50V20.4z"/>
	<path class="st0" d="M56.1,20.4h3.9V22c0.7-0.9,1.8-1.8,3.3-1.8c2.4,0,3.8,1.6,3.8,4.1v7.3h-3.9v-6.1c0-1.2-0.6-1.9-1.6-1.9
		c-1,0-1.7,0.7-1.7,1.9v6.1h-3.9V20.4z"/>
	<path class="st0" d="M68.8,26.1L68.8,26.1c0-3.7,2.3-5.9,4.9-5.9c1.7,0,2.7,0.8,3.4,1.6v-5.3h3.9v15.1h-3.9v-1.5
		c-0.8,0.9-1.7,1.7-3.4,1.7C71.1,31.8,68.8,29.6,68.8,26.1z M77.3,26L77.3,26c0-1.5-1-2.6-2.3-2.6s-2.3,1-2.3,2.5v0
		c0,1.5,1,2.5,2.3,2.5S77.3,27.5,77.3,26z"/>
	<path class="st0" d="M88.5,26.1L88.5,26.1c0-3.3,2.3-5.9,5.6-5.9c3.9,0,5.6,2.8,5.6,6.1c0,0.2,0,0.5,0,0.8h-7.5
		c0.3,1.2,1.2,1.8,2.4,1.8c0.9,0,1.7-0.4,2.5-1.1l2.2,1.8c-1.1,1.4-2.6,2.3-4.9,2.3C91,31.9,88.5,29.5,88.5,26.1z M96.1,25.1
		c-0.1-1.2-0.9-2-1.9-2c-1,0-1.7,0.8-1.9,2H96.1z"/>
	<path class="st0" d="M100.1,20.4h4.1l2.2,6.5l2.2-6.5h4.1l-4.5,11.3h-3.6L100.1,20.4z"/>
	<path class="st0" d="M112.8,26.1L112.8,26.1c0-3.3,2.3-5.9,5.6-5.9c3.9,0,5.6,2.8,5.6,6.1c0,0.2,0,0.5,0,0.8h-7.5
		c0.3,1.2,1.2,1.8,2.4,1.8c0.9,0,1.7-0.4,2.5-1.1l2.2,1.8c-1.1,1.4-2.6,2.3-4.9,2.3C115.2,31.9,112.8,29.5,112.8,26.1z M120.4,25.1
		c-0.1-1.2-0.9-2-1.9-2c-1,0-1.7,0.8-1.9,2H120.4z"/>
	<path class="st0" d="M125.7,20.4h3.9v2.3c0.6-1.5,1.7-2.5,3.5-2.4v4.1h-0.3c-2,0-3.2,1.2-3.2,3.8v3.5h-3.9V20.4z"/>
	<path class="st0" d="M134.3,34l1.2-2.8c0.6,0.4,1.3,0.6,1.7,0.6c0.4,0,0.7-0.1,0.9-0.5l-4.4-11h4.1l2.2,6.7l2.1-6.7h4l-4.1,10.9
		c-1,2.6-2,3.6-4.3,3.6C136.5,35,135.3,34.6,134.3,34z"/>
	<path class="st0" d="M153.2,20.4h3.9v1.5c0.8-0.9,1.7-1.7,3.4-1.7c2.7,0,5,2.2,5,5.8v0c0,3.6-2.3,5.9-4.9,5.9
		c-1.7,0-2.7-0.8-3.4-1.6v4.7h-3.9V20.4z M161.7,26L161.7,26c0-1.5-1-2.6-2.3-2.6c-1.3,0-2.3,1.1-2.3,2.5v0c0,1.5,1,2.5,2.3,2.5
		C160.6,28.6,161.7,27.5,161.7,26z"/>
	<path class="st0" d="M166.8,26.1L166.8,26.1c0-3.3,2.3-5.9,5.6-5.9c3.9,0,5.6,2.8,5.6,6.1c0,0.2,0,0.5,0,0.8h-7.5
		c0.3,1.2,1.2,1.8,2.4,1.8c0.9,0,1.7-0.4,2.5-1.1l2.2,1.8c-1.1,1.4-2.6,2.3-4.9,2.3C169.2,31.9,166.8,29.5,166.8,26.1z M174.4,25.1
		c-0.1-1.2-0.9-2-1.9-2c-1,0-1.7,0.8-1.9,2H174.4z"/>
	<path class="st0" d="M179.7,20.4h3.9v2.3c0.6-1.5,1.7-2.5,3.5-2.4v4.1h-0.3c-2,0-3.2,1.2-3.2,3.8v3.5h-3.9V20.4z"/>
	<path class="st0" d="M190.1,23.6h-1.3v-3.1h1.3v-0.2c0-1.3,0.3-2.2,1-2.9c0.7-0.7,1.6-1,2.9-1c1.2,0,1.9,0.1,2.6,0.3v2.8
		c-0.5-0.1-0.9-0.2-1.5-0.2c-0.7,0-1.1,0.3-1.1,1.1v0.3h2.6v3H194v8h-3.9V23.6z"/>
	<path class="st0" d="M197.1,26.1L197.1,26.1c0-3.3,2.3-5.9,5.6-5.9c3.9,0,5.6,2.8,5.6,6.1c0,0.2,0,0.5,0,0.8h-7.5
		c0.3,1.2,1.2,1.8,2.4,1.8c0.9,0,1.7-0.4,2.5-1.1l2.2,1.8c-1.1,1.4-2.6,2.3-4.9,2.3C199.6,31.9,197.1,29.5,197.1,26.1z M204.7,25.1
		c-0.1-1.2-0.9-2-1.9-2c-1,0-1.7,0.8-1.9,2H204.7z"/>
	<path class="st0" d="M209.6,26.1L209.6,26.1c0-3.2,2.5-5.9,6-5.9c2.3,0,3.8,1,4.8,2.5l-2.7,2c-0.5-0.7-1.1-1.2-2.1-1.2
		c-1.3,0-2.2,1.1-2.2,2.5v0c0,1.4,0.9,2.5,2.2,2.5c0.9,0,1.5-0.4,2.2-1.2l2.6,1.9c-1,1.5-2.5,2.6-5,2.6
		C212.1,31.9,209.6,29.2,209.6,26.1z"/>
	<path class="st0" d="M222.5,28.1v-4.5h-1.3v-3.2h1.3v-2.8h3.9v2.8h2.6v3.2h-2.6v3.8c0,0.8,0.4,1.1,1.1,1.1c0.5,0,1-0.1,1.5-0.4v3.1
		c-0.7,0.4-1.6,0.6-2.7,0.6C223.9,31.8,222.5,30.8,222.5,28.1z"/>
</g>
<text transform="matrix(1 0 0 1 229.6387 31.5947)" class="st0 st1 st2"> </text>
<g>
	<path class="st0" d="M236.5,16.5h3.9v15.1h-3.9V16.5z"/>
	<path class="st0" d="M242.6,16.5h4.1v2.9h-4.1V16.5z M242.7,20.4h3.9v11.2h-3.9V20.4z"/>
	<path class="st0" d="M249.5,23.6h-1.3v-3.1h1.3v-0.2c0-1.3,0.3-2.2,1-2.9c0.7-0.7,1.6-1,2.9-1c1.2,0,1.9,0.1,2.6,0.3v2.8
		c-0.5-0.1-0.9-0.2-1.5-0.2c-0.7,0-1.1,0.3-1.1,1.1v0.3h2.6v3h-2.5v8h-3.9V23.6z"/>
	<path class="st0" d="M256.5,26.1L256.5,26.1c0-3.3,2.3-5.9,5.6-5.9c3.9,0,5.6,2.8,5.6,6.1c0,0.2,0,0.5,0,0.8h-7.5
		c0.3,1.2,1.2,1.8,2.4,1.8c0.9,0,1.7-0.4,2.5-1.1l2.2,1.8c-1.1,1.4-2.6,2.3-4.9,2.3C259,31.9,256.5,29.5,256.5,26.1z M264.1,25.1
		c-0.1-1.2-0.9-2-1.9-2c-1,0-1.7,0.8-1.9,2H264.1z"/>
</g>
<text transform="matrix(1 0 0 1 268.4141 31.5947)" class="st3 st1 st4"> </text>
</svg>
