<?xml version="1.0" encoding="utf-8"?>
<!-- Generator: Adobe Illustrator 26.3.1, SVG Export Plug-In . SVG Version: 6.00 Build 0)  -->
<svg version="1.1" id="Layer_1" xmlns="http://www.w3.org/2000/svg" xmlns:xlink="http://www.w3.org/1999/xlink" x="0px" y="0px"
	 viewBox="0 0 300 50" style="enable-background:new 0 0 300 50;" xml:space="preserve">
<style type="text/css">
	.st0{fill:#490A09;}
</style>
<g>
	<path class="st0" d="M9.9,18c0-4.2,3.4-7.8,8.4-7.8c2.6,0,4.5,1.1,5.4,2.2l-2.4,2.4c-0.8-0.8-1.8-1.3-3.2-1.3c-2.6,0-4.4,2-4.4,4.4
		c0,1.8,1.3,2.8,2.9,2.8c0.7,0,1.3-0.1,1.7-0.4l0.5-1.8h-2.5l0.7-2.6h6l-1.9,6.6c-1.3,0.7-3,1.3-4.9,1.3C13.1,23.8,9.9,22,9.9,18z"
		/>
	<path class="st0" d="M26.6,9.9h3.5l-3.7,13.6h-3.5L26.6,9.9z"/>
	<path class="st0" d="M29.4,19.1c0-3,2.6-5.9,5.9-5.9c3.1,0,5,2,5,4.7c0,3.1-2.6,5.9-6,5.9C31.3,23.8,29.4,21.7,29.4,19.1z M36.9,18
		c0-1.1-0.7-1.9-1.8-1.9c-1.4,0-2.4,1.5-2.4,2.8c0,1.2,0.7,1.9,1.8,1.9C35.9,20.8,36.9,19.3,36.9,18z"/>
	<path class="st0" d="M43.2,13.4h3.5l-0.5,2c1-1.4,2.1-2.3,3.8-2.2l-1,3.7h-0.3c-1.9,0-3.2,1.1-3.8,3.5l-0.8,3h-3.5L43.2,13.4z"/>
	<path class="st0" d="M51.3,13.4h3.5l-2.7,10.1h-3.5L51.3,13.4z M52.2,9.9h3.7l-0.7,2.6h-3.7L52.2,9.9z"/>
	<path class="st0" d="M54.5,21c0-2.2,1.8-3.6,4.4-3.6c0.9,0,1.8,0.1,2.6,0.4l0-0.1c0-0.2,0.1-0.4,0.1-0.6c0-0.7-0.5-1.1-1.7-1.1
		c-1,0-2,0.2-2.7,0.5l-0.5-2.6c1.1-0.4,2.5-0.6,4-0.6c3,0,4.5,1.2,4.5,3.2c0,0.5-0.1,1-0.2,1.5l-1.5,5.6h-3.5l0.3-1.1
		c-0.9,0.8-1.7,1.3-2.9,1.3C55.7,23.7,54.5,22.7,54.5,21z M61,19.7l0.1-0.3c-0.4-0.1-0.8-0.2-1.3-0.2c-1.1,0-1.8,0.5-1.8,1.5
		c0,0.6,0.4,0.9,1,0.9C59.9,21.5,60.8,20.7,61,19.7z"/>
</g>
<g>
	<path class="st0" d="M66.4,19.9h3.7v3.6h-3.7V19.9z"/>
</g>
</svg>
