<?xml version="1.0" encoding="utf-8"?>
<!-- Generator: Adobe Illustrator 26.3.1, SVG Export Plug-In . SVG Version: 6.00 Build 0)  -->
<svg version="1.1" id="Layer_1" xmlns="http://www.w3.org/2000/svg" xmlns:xlink="http://www.w3.org/1999/xlink" x="0px" y="0px"
	 viewBox="0 0 300 50" style="enable-background:new 0 0 300 50;" xml:space="preserve">
<style type="text/css">
	.st0{clip-path:url(#SVGID_00000106837910685897671480000002486539425134022805_);fill:#AC1F2D;}
	.st1{clip-path:url(#SVGID_00000106837910685897671480000002486539425134022805_);fill:#FFFFFF;}
</style>
<g>
	<defs>
		<rect id="SVGID_1_" x="274.7" y="3.2" width="22.7" height="21.5"/>
	</defs>
	<clipPath id="SVGID_00000171709001491179496160000011140918009519339392_">
		<use xlink:href="#SVGID_1_"  style="overflow:visible;"/>
	</clipPath>
	<path style="clip-path:url(#SVGID_00000171709001491179496160000011140918009519339392_);fill:#AC1F2D;" d="M296,14.1
		c0,5.5-4.4,9.9-9.9,9.9c-5.5,0-9.9-4.4-9.9-9.9s4.4-9.9,9.9-9.9C291.5,4.2,296,8.7,296,14.1"/>
	<path style="clip-path:url(#SVGID_00000171709001491179496160000011140918009519339392_);fill:#FFFFFF;" d="M290,12.3v1.1h1.3
		l-1.5,2.4h3.7v-1.2h-1.6l1.5-2.3H290z M282.6,10.9l-1.2,2.7l-1.2-2.7h-1.7v4.9h1.4v-2.6l1.2,2.6h0.6l1.2-2.7v2.7h1.4v-4.9H282.6z
		 M288.1,10.9v1.7h-1.7v-1.7h-1.5v4.9h1.5v-1.9h1.7v1.9h1.5v-4.9H288.1z"/>
	<path style="clip-path:url(#SVGID_00000171709001491179496160000011140918009519339392_);fill:#FFFFFF;" d="M289.9,17.9h1.3v-0.4
		h-0.9v-0.3h0.8v-0.4h-0.8v-0.2h0.9v-0.4h-1.3V17.9z M288.8,17.9c0.4,0,0.6-0.2,0.7-0.4l-0.3-0.2c-0.1,0.1-0.2,0.2-0.4,0.2
		c-0.2,0-0.4-0.2-0.4-0.4v0c0-0.2,0.2-0.4,0.4-0.4c0.2,0,0.3,0.1,0.4,0.2l0.3-0.3c-0.1-0.2-0.4-0.3-0.7-0.3c-0.5,0-0.9,0.4-0.9,0.8
		v0C288,17.5,288.4,17.9,288.8,17.9 M287.2,17.9h0.5v-1.6h-0.5V17.9z M285.9,17.5c-0.2,0-0.4-0.2-0.4-0.4v0c0-0.2,0.2-0.4,0.4-0.4
		c0.2,0,0.4,0.2,0.4,0.4v0C286.3,17.3,286.2,17.5,285.9,17.5 M285.9,17.9c0.5,0,0.9-0.4,0.9-0.8v0c0-0.5-0.4-0.8-0.9-0.8
		c-0.5,0-0.9,0.4-0.9,0.8v0C285,17.5,285.4,17.9,285.9,17.9 M283.2,17.9h0.5v-0.6h0.6v0.6h0.5v-1.6h-0.5v0.6h-0.6v-0.6h-0.5V17.9z
		 M282.1,17.9c0.4,0,0.6-0.2,0.7-0.4l-0.3-0.2c-0.1,0.1-0.2,0.2-0.4,0.2c-0.2,0-0.4-0.2-0.4-0.4v0c0-0.2,0.2-0.4,0.4-0.4
		c0.2,0,0.3,0.1,0.4,0.2l0.3-0.3c-0.1-0.2-0.4-0.3-0.7-0.3c-0.5,0-0.9,0.4-0.9,0.8v0C281.3,17.5,281.7,17.9,282.1,17.9"/>
</g>
</svg>
