<svg id="Layer_1" xmlns="http://www.w3.org/2000/svg" viewBox="0 0 300 50"><style>.st0{fill:#490a09}.st1{font-family:&apos;Gotham-Black&apos;}.st2{font-size:20.6709px}.st3{fill:#373535}.st4{font-size:10.0585px}</style><path class="st0" d="M9.8 17.1h7.4c1.8 0 3.1.5 3.9 1.3.6.6.9 1.3.9 2.3 0 1.7-1 2.7-2.2 3.2 1.8.6 2.9 1.6 2.9 3.5 0 2.5-2 4-5.5 4H9.8V17.1zm6.4 5.8c1.2 0 1.9-.4 1.9-1.3 0-.8-.6-1.2-1.8-1.2h-2.6v2.5h2.5zm.6 5.5c1.2 0 1.9-.5 1.9-1.3s-.6-1.3-2-1.3h-3.1v2.7h3.2zM23.9 26.1c0-3.3 2.3-5.9 5.6-5.9 3.9 0 5.6 2.8 5.6 6.1v.8h-7.5c.3 1.2 1.2 1.8 2.4 1.8.9 0 1.7-.4 2.5-1.1l2.2 1.8c-1.1 1.4-2.6 2.3-4.9 2.3-3.4 0-5.9-2.4-5.9-5.8zm7.6-1c-.1-1.2-.9-2-1.9-2-1 0-1.7.8-1.9 2h3.8zM36.8 16.5h3.9v5.4c.7-.9 1.8-1.8 3.3-1.8 2.4 0 3.8 1.6 3.8 4.1v7.3H44v-6.1c0-1.2-.6-1.9-1.6-1.9s-1.7.7-1.7 1.9v6.1h-3.9v-15zM49.9 16.5H54v2.9h-4.1v-2.9zm.1 3.9h4v11.2h-4V20.4zM56.1 20.4H60V22c.7-.9 1.8-1.8 3.3-1.8 2.4 0 3.8 1.6 3.8 4.1v7.3h-3.9v-6.1c0-1.2-.6-1.9-1.6-1.9s-1.7.7-1.7 1.9v6.1H56V20.4zM68.8 26.1c0-3.7 2.3-5.9 4.9-5.9 1.7 0 2.7.8 3.4 1.6v-5.3H81v15.1h-3.9v-1.5c-.8.9-1.7 1.7-3.4 1.7-2.6 0-4.9-2.2-4.9-5.7zm8.5-.1c0-1.5-1-2.6-2.3-2.6s-2.3 1-2.3 2.5 1 2.5 2.3 2.5 2.3-.9 2.3-2.4zM88.5 26.1c0-3.3 2.3-5.9 5.6-5.9 3.9 0 5.6 2.8 5.6 6.1v.8h-7.5c.3 1.2 1.2 1.8 2.4 1.8.9 0 1.7-.4 2.5-1.1l2.2 1.8c-1.1 1.4-2.6 2.3-4.9 2.3-3.4 0-5.9-2.4-5.9-5.8zm7.6-1c-.1-1.2-.9-2-1.9-2-1 0-1.7.8-1.9 2h3.8zM100.1 20.4h4.1l2.2 6.5 2.2-6.5h4.1l-4.5 11.3h-3.6l-4.5-11.3zM112.8 26.1c0-3.3 2.3-5.9 5.6-5.9 3.9 0 5.6 2.8 5.6 6.1v.8h-7.5c.3 1.2 1.2 1.8 2.4 1.8.9 0 1.7-.4 2.5-1.1l2.2 1.8c-1.1 1.4-2.6 2.3-4.9 2.3-3.5 0-5.9-2.4-5.9-5.8zm7.6-1c-.1-1.2-.9-2-1.9-2-1 0-1.7.8-1.9 2h3.8zM125.7 20.4h3.9v2.3c.6-1.5 1.7-2.5 3.5-2.4v4.1h-.3c-2 0-3.2 1.2-3.2 3.8v3.5h-3.9V20.4zM134.3 34l1.2-2.8c.6.4 1.3.6 1.7.6.4 0 .7-.1.9-.5l-4.4-11h4.1L140 27l2.1-6.7h4L142 31.2c-1 2.6-2 3.6-4.3 3.6-1.2.2-2.4-.2-3.4-.8zM153.2 20.4h3.9v1.5c.8-.9 1.7-1.7 3.4-1.7 2.7 0 5 2.2 5 5.8 0 3.6-2.3 5.9-4.9 5.9-1.7 0-2.7-.8-3.4-1.6V35h-3.9V20.4zm8.5 5.6c0-1.5-1-2.6-2.3-2.6-1.3 0-2.3 1.1-2.3 2.5 0 1.5 1 2.5 2.3 2.5 1.2.2 2.3-.9 2.3-2.4zM166.8 26.1c0-3.3 2.3-5.9 5.6-5.9 3.9 0 5.6 2.8 5.6 6.1v.8h-7.5c.3 1.2 1.2 1.8 2.4 1.8.9 0 1.7-.4 2.5-1.1l2.2 1.8c-1.1 1.4-2.6 2.3-4.9 2.3-3.5 0-5.9-2.4-5.9-5.8zm7.6-1c-.1-1.2-.9-2-1.9-2-1 0-1.7.8-1.9 2h3.8zM179.7 20.4h3.9v2.3c.6-1.5 1.7-2.5 3.5-2.4v4.1h-.3c-2 0-3.2 1.2-3.2 3.8v3.5h-3.9V20.4zM190.1 23.6h-1.3v-3.1h1.3v-.2c0-1.3.3-2.2 1-2.9.7-.7 1.6-1 2.9-1 1.2 0 1.9.1 2.6.3v2.8c-.5-.1-.9-.2-1.5-.2-.7 0-1.1.3-1.1 1.1v.3h2.6v3H194v8h-3.9v-8.1zM197.1 26.1c0-3.3 2.3-5.9 5.6-5.9 3.9 0 5.6 2.8 5.6 6.1v.8h-7.5c.3 1.2 1.2 1.8 2.4 1.8.9 0 1.7-.4 2.5-1.1l2.2 1.8c-1.1 1.4-2.6 2.3-4.9 2.3-3.4 0-5.9-2.4-5.9-5.8zm7.6-1c-.1-1.2-.9-2-1.9-2-1 0-1.7.8-1.9 2h3.8zM209.6 26.1c0-3.2 2.5-5.9 6-5.9 2.3 0 3.8 1 4.8 2.5l-2.7 2c-.5-.7-1.1-1.2-2.1-1.2-1.3 0-2.2 1.1-2.2 2.5s.9 2.5 2.2 2.5c.9 0 1.5-.4 2.2-1.2l2.6 1.9c-1 1.5-2.5 2.6-5 2.6-3.3.1-5.8-2.6-5.8-5.7zM222.5 28.1v-4.5h-1.3v-3.2h1.3v-2.8h3.9v2.8h2.6v3.2h-2.6v3.8c0 .8.4 1.1 1.1 1.1.5 0 1-.1 1.5-.4v3.1c-.7.4-1.6.6-2.7.6-2.4 0-3.8-1-3.8-3.7z"/><text transform="translate(229.639 31.595)" class="st0 st1 st2"></text><g><path class="st0" d="M236.5 16.5h3.9v15.1h-3.9V16.5zM242.6 16.5h4.1v2.9h-4.1v-2.9zm.1 3.9h3.9v11.2h-3.9V20.4zM249.5 23.6h-1.3v-3.1h1.3v-.2c0-1.3.3-2.2 1-2.9.7-.7 1.6-1 2.9-1 1.2 0 1.9.1 2.6.3v2.8c-.5-.1-.9-.2-1.5-.2-.7 0-1.1.3-1.1 1.1v.3h2.6v3h-2.5v8h-3.9v-8.1zM256.5 26.1c0-3.3 2.3-5.9 5.6-5.9 3.9 0 5.6 2.8 5.6 6.1v.8h-7.5c.3 1.2 1.2 1.8 2.4 1.8.9 0 1.7-.4 2.5-1.1l2.2 1.8c-1.1 1.4-2.6 2.3-4.9 2.3-3.4 0-5.9-2.4-5.9-5.8zm7.6-1c-.1-1.2-.9-2-1.9-2-1 0-1.7.8-1.9 2h3.8z"/></g><text transform="translate(268.414 31.595)" class="st3 st1 st4"></text></svg>