<svg id="Layer_1" xmlns="http://www.w3.org/2000/svg" viewBox="0 0 300 50"><style>.st0{fill:#490a09}</style><path class="st0" d="M13.7 29.9h-4v-3.2h11.5v3.2h-3.9v9.9h-3.6v-9.9zM22.6 26.1h3.5V31c.7-.8 1.6-1.6 3-1.6 2.1 0 3.4 1.4 3.4 3.7v6.6H29v-5.5c0-1.1-.6-1.7-1.4-1.7-.9 0-1.5.6-1.5 1.7v5.5h-3.5V26.1zM34 34.8c0-3 2.1-5.3 5.1-5.3 3.5 0 5.1 2.6 5.1 5.5v.7h-6.8c.3 1.1 1.1 1.7 2.2 1.7.8 0 1.5-.3 2.2-1l2 1.6c-1 1.2-2.4 2.1-4.4 2.1-3.2-.1-5.4-2.2-5.4-5.3zm6.9-.9c-.1-1.1-.8-1.8-1.8-1.8-.9 0-1.6.7-1.8 1.8h3.6zM50.9 29.7h3.5v1.4c.7-.8 1.6-1.6 3-1.6 2.1 0 3.4 1.4 3.4 3.7v6.6h-3.5v-5.5c0-1.1-.6-1.7-1.4-1.7-.9 0-1.5.6-1.5 1.7v5.5h-3.5V29.7zM62.3 34.8c0-3 2.1-5.3 5.1-5.3 3.5 0 5.1 2.6 5.1 5.5v.7h-6.8c.3 1.1 1.1 1.7 2.2 1.7.8 0 1.5-.3 2.2-1l2 1.6c-1 1.2-2.4 2.1-4.4 2.1-3.2-.1-5.4-2.2-5.4-5.3zm6.8-.9c-.1-1.1-.8-1.8-1.8-1.8-.9 0-1.6.7-1.8 1.8h3.6zM72.8 29.7h3.5l1.3 5.1 1.5-5.1H82l1.6 5.2 1.4-5.1h3.4L85.3 40h-3.1l-1.6-5.2-1.7 5.2h-3l-3.1-10.3zM94.9 26.7h10.5v3.2h-6.8v2.2h6.2v3h-6.2v4.7H95V26.7zM106.8 29.7h3.5v2c.6-1.4 1.5-2.3 3.2-2.2v3.7h-.3c-1.8 0-2.9 1.1-2.9 3.4v3.1h-3.5v-10zM114.2 34.8c0-3 2.1-5.3 5.1-5.3 3.5 0 5.1 2.6 5.1 5.5v.7h-6.8c.3 1.1 1.1 1.7 2.2 1.7.8 0 1.5-.3 2.2-1l2 1.6c-1 1.2-2.4 2.1-4.4 2.1-3.1-.1-5.4-2.2-5.4-5.3zm6.9-.9c-.1-1.1-.8-1.8-1.8-1.8-.9 0-1.6.7-1.8 1.8h3.6zM125.9 29.7h3.5v1.4c.7-.8 1.6-1.6 3-1.6 2.1 0 3.4 1.4 3.4 3.7v6.6h-3.5v-5.5c0-1.1-.6-1.7-1.4-1.7-.9 0-1.5.6-1.5 1.7v5.5h-3.5V29.7zM137.3 34.8c0-2.9 2.2-5.3 5.4-5.3 2.1 0 3.5.9 4.3 2.3l-2.4 1.8c-.5-.7-1-1.1-1.9-1.1-1.1 0-2 1-2 2.2 0 1.3.8 2.3 2 2.3.8 0 1.4-.4 1.9-1l2.4 1.7c-.9 1.4-2.3 2.3-4.5 2.3-2.9 0-5.2-2.4-5.2-5.2zM148.4 26.1h3.5V31c.7-.8 1.6-1.6 3-1.6 2.1 0 3.4 1.4 3.4 3.7v6.6h-3.5v-5.5c0-1.1-.6-1.7-1.4-1.7-.9 0-1.5.6-1.5 1.7v5.5h-3.5V26.1zM166 36.6v-4.1h-1.2v-2.9h1.2V27h3.5v2.6h2.4v2.9h-2.4v3.4c0 .7.3 1 1 1 .5 0 .9-.1 1.3-.3v2.8c-.6.4-1.5.6-2.5.6-2 0-3.3-1-3.3-3.4zM173.4 26.1h3.5V31c.7-.8 1.6-1.6 3-1.6 2.1 0 3.4 1.4 3.4 3.7v6.6h-3.5v-5.5c0-1.1-.6-1.7-1.4-1.7-.9 0-1.5.6-1.5 1.7v5.5h-3.5V26.1zM185.2 29.7h3.5v2c.6-1.4 1.5-2.3 3.2-2.2v3.7h-.3c-1.8 0-2.9 1.1-2.9 3.4v3.1h-3.5v-10zM193.2 26.1h3.7v2.6h-3.7v-2.6zm.1 3.6h3.5v10.1h-3.5V29.7zM198.9 26.1h3.5v13.6h-3.5V26.1zM204.5 26.1h3.5v13.6h-3.5V26.1zM209.6 34.8c0-3 2.1-5.3 5.1-5.3 3.5 0 5.1 2.6 5.1 5.5v.7H213c.3 1.1 1.1 1.7 2.2 1.7.8 0 1.5-.3 2.2-1l2 1.6c-1 1.2-2.4 2.1-4.4 2.1-3.2-.1-5.4-2.2-5.4-5.3zm6.9-.9c-.1-1.1-.8-1.8-1.8-1.8-.9 0-1.6.7-1.8 1.8h3.6zM221.3 29.7h3.5v2c.6-1.4 1.5-2.3 3.2-2.2v3.7h-.3c-1.8 0-2.9 1.1-2.9 3.4v3.1h-3.5v-10zM227.9 36.1h3.7v3.6h-3.7v-3.6z"/></svg>