<svg id="Layer_1" xmlns="http://www.w3.org/2000/svg" viewBox="0 0 160 600"><style>.st0{fill:#490a09}</style><path class="st0" d="M13.9 174.2c0-8 6.6-15.1 16.2-15.1 5 0 8.7 2.1 10.4 4.3l-4.7 4.5c-1.5-1.5-3.5-2.6-6.2-2.6-5.1 0-8.6 3.9-8.6 8.6 0 3.5 2.6 5.4 5.7 5.4 1.4 0 2.5-.3 3.3-.7l1-3.4h-4.9l1.3-5.1H39l-3.6 12.7c-2.5 1.4-5.7 2.5-9.4 2.5-5.9 0-12.1-3.4-12.1-11.1zM46 158.5h6.8l-7.1 26.3H39l7-26.3zM51.5 176.2c0-5.9 4.9-11.3 11.4-11.3 6 0 9.6 3.9 9.6 9 0 5.9-4.9 11.3-11.5 11.3-5.9 0-9.5-3.9-9.5-9zm14.5-2c0-2.2-1.4-3.6-3.4-3.6-2.7 0-4.5 2.8-4.5 5.4 0 2.2 1.4 3.6 3.4 3.6 2.6 0 4.5-2.9 4.5-5.4zM78.1 165.3h6.8l-1 3.9c1.9-2.8 4.1-4.5 7.3-4.2l-1.9 7.2h-.6c-3.7 0-6.2 2.1-7.4 6.7l-1.6 5.9h-6.8l5.2-19.5zM93.7 165.3h6.8l-5.2 19.5h-6.8l5.2-19.5zm1.7-6.8h7.1l-1.4 5H94l1.4-5zM99.9 179.9c0-4.3 3.4-6.9 8.6-6.9 1.8 0 3.4.3 4.9.8l.1-.3c.1-.3.2-.7.2-1.2 0-1.3-1-2.1-3.3-2.1-1.8 0-3.9.4-5.3 1l-1-5c2.1-.7 4.9-1.2 7.7-1.2 5.8 0 8.7 2.3 8.7 6.2 0 .9-.1 1.8-.4 2.8l-2.9 10.7h-6.7l.5-2.1c-1.7 1.5-3.3 2.5-5.6 2.5-3.2.1-5.5-2-5.5-5.2zm12.6-2.5l.2-.6c-.8-.3-1.6-.4-2.6-.4-2.2 0-3.6 1-3.6 2.8 0 1.1.8 1.8 1.9 1.8 1.9 0 3.6-1.6 4.1-3.6z"/><g><path class="st0" d="M123 177.8h7.1v7H123v-7z"/></g></svg>