<svg id="Layer_1" xmlns="http://www.w3.org/2000/svg" viewBox="0 0 160 600"><style>.st0{fill:#490a09}</style><path class="st0" d="M12.9 160.9h6v8.1h7.7v-8.1h6v21.7h-6v-8.2h-7.7v8.2h-6v-21.7zM35.5 174.3c0-5 3.5-8.8 8.5-8.8 5.8 0 8.5 4.2 8.5 9.2v1.2H41.2c.5 1.8 1.8 2.8 3.6 2.8 1.4 0 2.5-.5 3.7-1.7l3.3 2.7c-1.6 2-3.9 3.4-7.3 3.4-5.3-.1-9-3.6-9-8.8zm11.4-1.4c-.2-1.9-1.3-3-2.9-3-1.5 0-2.6 1.2-2.9 3h5.8zM62.3 165.9h5.8l2.2 8.4 2.6-8.5h4.9l2.6 8.6 2.3-8.5h5.7l-5.2 16.9H78l-2.7-8.7-2.8 8.7h-5.1l-5.1-16.9zM88.6 177.8c0-3.5 2.6-5.3 6.6-5.3 1.5 0 3.1.3 4 .7v-.3c0-1.7-1.1-2.7-3.3-2.7-1.8 0-3.1.3-4.6.9l-1.2-4.2c1.9-.8 3.9-1.3 6.8-1.3 3 0 5.1.7 6.4 2 1.3 1.2 1.8 3 1.8 5.3v9.6h-5.8v-1.7c-1.1 1.3-2.7 2.1-4.9 2.1-3.3.1-5.8-1.7-5.8-5.1zm10.7-1.2v-.8c-.6-.2-1.4-.4-2.3-.4-1.7 0-2.7.8-2.7 2.1v.1c0 1.1.9 1.8 2.1 1.8 1.7-.1 2.9-1.2 2.9-2.8zM106.8 180.5l2.2-3.6c1.9 1.3 4 1.9 5.8 1.9 1 0 1.5-.3 1.5-.9v-.1c0-.7-.9-.9-2.7-1.4-3.3-.9-6-2-6-5.4v-.1c0-3.6 2.9-5.5 6.7-5.5 2.4 0 5 .7 6.9 2l-2 3.7c-1.7-1-3.6-1.5-5-1.5-.9 0-1.4.3-1.4.8v.1c0 .7 1 1 2.7 1.5 3.3.9 6 2.1 6 5.3v.1c0 3.7-2.8 5.6-6.9 5.6-2.7 0-5.5-.8-7.8-2.5z"/><g><path class="st0" d="M12.6 190.6h5.9v8.2c1.1-1.4 2.6-2.7 5-2.7 3.6 0 5.7 2.4 5.7 6.2v11h-5.9v-9.1c0-1.8-1-2.8-2.4-2.8s-2.5 1-2.5 2.8v9.1h-5.9v-22.7zM31.6 204.9c0-5 3.5-8.8 8.5-8.8 5.8 0 8.5 4.2 8.5 9.2v1.2H37.2c.5 1.8 1.8 2.8 3.6 2.8 1.4 0 2.5-.5 3.7-1.7l3.3 2.7c-1.6 2-3.9 3.4-7.3 3.4-5.2-.1-8.9-3.6-8.9-8.8zm11.4-1.4c-.2-1.9-1.3-3-2.9-3-1.6 0-2.6 1.2-2.9 3H43zM51 196.5h5.9v3.4c1-2.3 2.5-3.8 5.3-3.7v6.2h-.5c-3.1 0-4.8 1.8-4.8 5.6v5.2H51v-16.7z"/></g><g><path class="st0" d="M12.6 221.2h5.9v8.2c1.1-1.4 2.6-2.7 5-2.7 3.6 0 5.7 2.4 5.7 6.2v11h-5.9v-9.1c0-1.8-1-2.8-2.4-2.8s-2.5 1-2.5 2.8v9.1h-5.9v-22.7zM32.1 238v-11H38v9.1c0 1.8 1 2.8 2.4 2.8s2.4-1 2.4-2.8V227h5.9v16.8h-5.9v-2.3c-1.1 1.4-2.6 2.7-5 2.7-3.5 0-5.7-2.4-5.7-6.2zM50.6 241.7l2.2-3.6c1.9 1.3 4 1.9 5.8 1.9 1 0 1.5-.3 1.5-.9v-.1c0-.7-.9-.9-2.7-1.4-3.3-.9-6-2-6-5.4v-.1c0-3.6 2.9-5.5 6.7-5.5 2.4 0 5 .7 6.9 2l-2 3.7c-1.7-1-3.6-1.5-5-1.5-.9 0-1.4.3-1.4.8v.1c0 .7 1 1 2.7 1.5 3.3.9 6 2.1 6 5.3v.1c0 3.7-2.8 5.6-6.9 5.6-2.7 0-5.5-.8-7.8-2.5zM73.7 241.8v2h-5.9v-22.6h5.9v8.1c1.1-1.4 2.6-2.6 5.1-2.6 4 0 7.4 3.3 7.4 8.7v.1c0 5.5-3.4 8.8-7.4 8.8-2.5-.1-4-1.2-5.1-2.5zm6.7-6.3c0-2.3-1.5-3.8-3.4-3.8s-3.4 1.6-3.4 3.8v.1c0 2.2 1.5 3.8 3.4 3.8 1.9-.1 3.4-1.7 3.4-3.9zM87.9 239c0-3.5 2.6-5.3 6.6-5.3 1.5 0 3.1.3 4 .7v-.3c0-1.7-1.1-2.7-3.3-2.7-1.8 0-3.1.3-4.6.9l-1.2-4.2c1.9-.8 3.9-1.3 6.8-1.3 3 0 5.1.7 6.4 2 1.3 1.2 1.8 3 1.8 5.3v9.6h-5.8V242c-1.1 1.3-2.7 2.1-4.9 2.1-3.3.1-5.8-1.7-5.8-5.1zm10.7-1.2v-.8c-.6-.2-1.4-.4-2.3-.4-1.7 0-2.7.8-2.7 2.1v.1c0 1.1.9 1.8 2.1 1.8 1.7-.1 2.9-1.2 2.9-2.8zM107.3 227.1h5.9v2.4c1.1-1.4 2.6-2.7 5-2.7 3.6 0 5.7 2.4 5.7 6.2v11H118v-9.1c0-1.8-1-2.8-2.4-2.8s-2.5 1-2.5 2.8v9.1h-5.9v-16.9zM126.4 235.5c0-5.5 3.4-8.8 7.4-8.8 2.5 0 4 1.1 5.1 2.4v-7.9h5.9v22.6h-5.9v-2.2c-1.1 1.4-2.6 2.6-5.1 2.6-4 0-7.4-3.3-7.4-8.7zm12.6 0c0-2.3-1.5-3.8-3.4-3.8s-3.4 1.6-3.4 3.8v.1c0 2.2 1.5 3.8 3.4 3.8s3.4-1.7 3.4-3.9zM147.7 237.8h6.1v6h-6.1v-6z"/></g></svg>