<svg id="Layer_1" xmlns="http://www.w3.org/2000/svg" viewBox="0 0 160 600"><style>.st0{fill:#490a09}</style><path class="st0" d="M20.5 213.7H13v-6.1h22.1v6.1h-7.6v19.1h-7v-19.1zM37.7 206.5h6.8v9.5c1.3-1.6 3.1-3.1 5.8-3.1 4.1 0 6.6 2.7 6.6 7.2v12.7h-6.8v-10.5c0-2.1-1.1-3.3-2.7-3.3-1.7 0-2.9 1.2-2.9 3.3v10.5h-6.8v-26.3zM59.8 223.1c0-5.8 4.1-10.3 9.8-10.3 6.7 0 9.8 4.9 9.8 10.7v1.4h-13c.5 2.1 2.1 3.2 4.2 3.2 1.6 0 2.9-.6 4.3-2l3.8 3.1c-1.9 2.4-4.6 4-8.5 4-6.1 0-10.4-4-10.4-10.1zm13.2-1.7c-.3-2.2-1.5-3.5-3.4-3.5-1.8 0-3 1.4-3.4 3.5H73zM14 246.3h6.8v2.7c1.3-1.6 3.1-3.2 5.8-3.2 4.1 0 6.6 2.7 6.6 7.2v12.7h-6.8v-10.5c0-2.1-1.1-3.3-2.7-3.3-1.7 0-2.9 1.2-2.9 3.3v10.5H14v-19.4zM36 256.1c0-5.8 4.1-10.3 9.8-10.3 6.7 0 9.8 4.9 9.8 10.7v1.4h-13c.5 2.1 2.1 3.2 4.2 3.2 1.6 0 2.9-.6 4.3-2l3.8 3.1c-1.9 2.4-4.6 4-8.5 4-6.1 0-10.4-4-10.4-10.1zm13.3-1.7c-.3-2.2-1.5-3.5-3.4-3.5-1.8 0-3 1.4-3.4 3.5h6.8zM56.3 246.3H63l2.6 9.8 3-9.9h5.7l3 9.9 2.6-9.9h6.6l-6 19.6h-5.9l-3.2-10.1-3.2 10.1h-5.9l-6-19.5z"/><g><path class="st0" d="M14.4 275.6h20.2v6.1H21.4v4.3h11.9v5.8H21.4v9h-7v-25.2zM37.3 281.3h6.8v3.9c1.1-2.7 2.9-4.4 6.2-4.2v7.2h-.6c-3.6 0-5.6 2.1-5.6 6.6v6h-6.8v-19.5zM51.6 291.1c0-5.8 4.1-10.3 9.8-10.3 6.7 0 9.8 4.9 9.8 10.7v1.4h-13c.5 2.1 2.1 3.2 4.2 3.2 1.6 0 2.9-.6 4.3-2l3.8 3.1c-1.9 2.4-4.6 4-8.5 4-6.1 0-10.4-4-10.4-10.1zm13.2-1.7c-.3-2.2-1.5-3.5-3.4-3.5-1.8 0-3 1.4-3.4 3.5h6.8zM74.1 281.3H81v2.7c1.3-1.6 3.1-3.2 5.8-3.2 4.1 0 6.6 2.7 6.6 7.2v12.7h-6.8v-10.5c0-2.1-1.1-3.3-2.7-3.3-1.7 0-2.9 1.2-2.9 3.3v10.5h-6.8v-19.4zM96.2 291.1c0-5.6 4.3-10.2 10.4-10.2 4 0 6.7 1.7 8.3 4.4l-4.6 3.5c-.9-1.3-2-2.1-3.6-2.1-2.2 0-3.8 1.9-3.8 4.3v.1c0 2.5 1.6 4.4 3.9 4.4 1.6 0 2.7-.8 3.7-2l4.6 3.3c-1.8 2.7-4.4 4.5-8.7 4.5-5.9-.1-10.2-4.7-10.2-10.2zM117.4 274.5h6.8v9.5c1.3-1.6 3.1-3.1 5.8-3.1 4.1 0 6.6 2.7 6.6 7.2v12.7h-6.8v-10.5c0-2.1-1.1-3.3-2.7-3.3-1.7 0-2.9 1.2-2.9 3.3v10.5h-6.8v-26.3z"/></g><g><path class="st0" d="M15.2 329.7v-7.9h-2.3v-5.5h2.3v-4.9H22v4.9h4.5v5.5H22v6.6c0 1.4.6 1.9 1.9 1.9.9 0 1.8-.3 2.6-.6v5.4c-1.2.7-2.8 1.1-4.8 1.1-4.1 0-6.5-1.8-6.5-6.5zM29.5 309.5h6.8v9.5c1.3-1.6 3.1-3.1 5.8-3.1 4.1 0 6.6 2.7 6.6 7.2v12.7H42v-10.5c0-2.1-1.1-3.3-2.7-3.3-1.7 0-2.9 1.2-2.9 3.3v10.5h-6.8v-26.3zM52.3 316.3h6.8v3.9c1.1-2.7 2.9-4.4 6.2-4.2v7.2h-.6c-3.6 0-5.6 2.1-5.6 6.6v6h-6.8v-19.5zM67.7 309.5h7.1v5h-7.1v-5zm.2 6.8h6.8v19.5h-6.8v-19.5zM78.7 309.5h6.8v26.3h-6.8v-26.3zM89.5 309.5h6.8v26.3h-6.8v-26.3zM99.3 326.1c0-5.8 4.1-10.3 9.8-10.3 6.7 0 9.8 4.9 9.8 10.7v1.4h-13c.5 2.1 2.1 3.2 4.2 3.2 1.6 0 2.9-.6 4.3-2l3.8 3.1c-1.9 2.4-4.6 4-8.5 4-6 0-10.4-4-10.4-10.1zm13.3-1.7c-.3-2.2-1.5-3.5-3.4-3.5-1.8 0-3 1.4-3.4 3.5h6.8zM121.9 316.3h6.8v3.9c1.1-2.7 2.9-4.4 6.2-4.2v7.2h-.6c-3.6 0-5.6 2.1-5.6 6.6v6h-6.8v-19.5zM134.7 328.7h7.1v7h-7.1v-7z"/></g></svg>