<svg id="Layer_1" xmlns="http://www.w3.org/2000/svg" viewBox="0 0 300 250"><style>.st0{fill:#461211}</style><path class="st0" d="M18.4 135.3c0-7.9 6.3-14.3 14.7-14.3s14.7 6.3 14.7 14.1v.1c0 7.8-6.3 14.2-14.7 14.2s-14.7-6.2-14.7-14.1zm21.7 0c0-4-2.8-7.5-7-7.5-4.1 0-6.9 3.4-6.9 7.3v.1c0 3.9 2.8 7.4 7 7.4 4.1 0 6.9-3.3 6.9-7.3zM51.4 127.8h7.4v3c1.4-1.8 3.3-3.4 6.3-3.4 4.5 0 7.2 3 7.2 7.8V149h-7.4v-11.4c0-2.3-1.2-3.6-3-3.6s-3.1 1.2-3.1 3.6V149h-7.4v-21.2zM76.2 120.4h7.4v28.5h-7.4v-28.5zM87.3 153.5l2.3-5.2c1.2.7 2.4 1.1 3.2 1.1.7 0 1.2-.2 1.7-.9l-8.3-20.7H94l4.2 12.7 4-12.7h7.6l-7.7 20.6c-1.8 4.9-3.8 6.9-8 6.9-2.7 0-4.9-.8-6.8-1.8zM122.2 138.5c0-6.1 4.9-11.1 11.7-11.1 6.8 0 11.6 5 11.6 11v.1c0 6-4.9 11-11.7 11-6.8-.1-11.6-5-11.6-11zm16.1 0c0-2.7-1.9-4.8-4.5-4.8-2.7 0-4.4 2.1-4.4 4.7v.1c0 2.6 1.9 4.8 4.5 4.8 2.7-.1 4.4-2.3 4.4-4.8zM148.6 127.8h7.4v3c1.4-1.8 3.3-3.4 6.3-3.4 4.5 0 7.2 3 7.2 7.8V149h-7.4v-11.4c0-2.3-1.2-3.6-3-3.6s-3.1 1.2-3.1 3.6V149h-7.4v-21.2z"/><g><path class="st0" d="M19.4 156.8h8l6.5 10.6 6.5-10.6h8v27.3h-7.5v-15.7l-7 10.7h-.2l-6.9-10.6v15.6h-7.4v-27.3zM53.2 156.8h7.6V167h9.7v-10.2h7.6v27.3h-7.6v-10.4h-9.7v10.4h-7.6v-27.3zM81.7 179.2l9.8-10.3h-9.4V163h19.2v4.9l-9.8 10.3h9.8v5.9H81.7v-4.9zM114.8 170.5c0-8 6.1-14.3 14.4-14.3 5.6 0 9.2 2.3 11.6 5.7l-5.7 4.4c-1.6-2-3.4-3.2-6-3.2-3.8 0-6.5 3.2-6.5 7.2v.1c0 4.1 2.7 7.3 6.5 7.3 2.8 0 4.5-1.3 6.2-3.3l5.7 4.1c-2.6 3.5-6 6.2-12.1 6.2-7.9-.1-14.1-6.1-14.1-14.2zM143.7 155.6h7.4v10.3c1.4-1.8 3.3-3.4 6.3-3.4 4.5 0 7.2 3 7.2 7.8v13.8h-7.4v-11.4c0-2.3-1.2-3.6-3-3.6s-3.1 1.2-3.1 3.6v11.4h-7.4v-28.5zM167.6 173.6c0-6.1 4.9-11.1 11.7-11.1 6.7 0 11.6 5 11.6 11v.1c0 6-4.9 11-11.7 11-6.7 0-11.6-5-11.6-11zm16.1 0c0-2.7-1.9-4.8-4.5-4.8-2.7 0-4.4 2.1-4.4 4.7v.1c0 2.6 1.9 4.8 4.5 4.8 2.7-.1 4.4-2.2 4.4-4.8zM194.1 155.6h7.7v5.5h-7.7v-5.5zm.1 7.4h7.4v21.1h-7.4V163zM204.9 173.6c0-6 4.6-11.1 11.3-11.1 4.3 0 7.2 1.9 9 4.7l-5 3.7c-1-1.4-2.1-2.2-3.9-2.2-2.4 0-4.1 2.1-4.1 4.7v.1c0 2.7 1.7 4.8 4.2 4.8 1.8 0 2.9-.8 4.1-2.2l5 3.6c-2 2.9-4.8 4.8-9.4 4.8-6.5.1-11.2-4.9-11.2-10.9zM226.6 173.6c0-6.2 4.4-11.1 10.7-11.1 7.3 0 10.7 5.3 10.7 11.5v1.5h-14.1c.6 2.3 2.3 3.5 4.6 3.5 1.8 0 3.2-.7 4.7-2.1l4.1 3.4c-2 2.6-5 4.3-9.2 4.3-6.8 0-11.5-4.4-11.5-11zm14.3-1.8c-.3-2.3-1.6-3.8-3.7-3.8-2 0-3.3 1.5-3.7 3.8h7.4zM250.6 176.5h7.7v7.6h-7.7v-7.6z"/></g></svg>