<svg id="Layer_1" xmlns="http://www.w3.org/2000/svg" viewBox="0 0 300 250"><style>.st0{fill:#461211}</style><path class="st0" d="M23.8 88.4h7.6L35.1 99l9.3-10.6h8.5l-7.3 27.3H38l4.2-15.7-9.8 10.7h-.2l-4-10.6-4.2 15.6h-7.5l7.3-27.3zM51.7 109.9c0-1.1.2-2.5.6-3.8l3.1-11.5h7.4l-3 11c-.2.5-.3 1.2-.3 1.7 0 1.4.8 2.2 2.4 2.2 2.1 0 3.3-1.4 3.9-3.8l3-11.2h7.4l-5.6 21.1h-7.4l.6-2.4c-1.4 1.5-3.5 2.9-6 2.9-3.8.1-6.1-2.4-6.1-6.2zM80.2 94.6h7.4l-1.1 4.3c2-3 4.5-4.8 7.9-4.6l-2.1 7.8h-.6c-4.1 0-6.7 2.3-8 7.3l-1.7 6.4h-7.4l5.6-21.2zM93.2 107.5c0-7.6 5.3-13.4 11.4-13.4 3.2 0 5.1 1.4 6.4 3.4l2.7-10.3h7.4l-7.6 28.5h-7.4l.6-2.2c-1.7 1.6-3.7 2.7-6 2.7-4.2 0-7.5-3.2-7.5-8.7zm16.3-3.5c0-2.3-1.5-3.7-3.7-3.7-2.8 0-5.2 2.7-5.2 6 0 2.3 1.4 3.7 3.6 3.7 2.9.1 5.3-2.8 5.3-6zM130.2 110.7c1.5 0 2.9-.5 4.5-1.7l3.4 4.1c-2.1 1.9-5 3.2-8.6 3.2-6.2 0-10.1-3.7-10.1-9.4 0-6.2 4.9-12.7 12.7-12.7 6.2 0 9 4.2 9 8.7 0 1.4-.3 3-.8 4.3h-14c.1 2.1 1.4 3.5 3.9 3.5zm4.1-7.3c.1-.4.2-.7.2-1.1 0-1.4-.9-2.7-2.9-2.7s-3.9 1.3-4.8 3.8h7.5zM146.6 94.6h7.4l-1.1 4.3c2-3 4.5-4.8 7.9-4.6l-2.1 7.8h-.6c-4.1 0-6.7 2.3-8 7.3l-1.7 6.4H141l5.6-21.2zM176.4 88.4h7.6l-7.3 27.3h-7.6l7.3-27.3zM186.9 94.6h7.4l-.7 2.4c1.4-1.5 3.6-2.9 6-2.9 3.8 0 6.1 2.4 6.1 6.3 0 1.1-.3 2.5-.6 3.8l-3 11.5h-7.4l3-11c.2-.5.2-1.2.2-1.7 0-1.4-.8-2.2-2.3-2.2-2.1 0-3.3 1.4-3.9 3.8l-3 11.2h-7.4l5.6-21.2zM207.9 108.1h7.7l-2.1 7.6h-7.7l2.1-7.6zM219.7 108.1h7.7l-2.1 7.6h-7.7l2.1-7.6zM231.5 108.1h7.7l-2.1 7.6h-7.7l2.1-7.6z"/></svg>