<svg id="Layer_1" xmlns="http://www.w3.org/2000/svg" viewBox="0 0 300 250"><style>.st0{fill:#fff}</style><path class="st0" d="M17.7 87.5h8l4.7 15.7 5.2-15.8h6.5l5.2 15.8L52 87.5h7.8l-9.1 27.4h-6.6l-5.5-15.6-5.4 15.6h-6.6l-8.9-27.4zM62.5 86.3h7.4v10.2c1.4-1.7 3.3-3.3 6.3-3.3 4.5 0 7.1 2.9 7.1 7.7v13.7h-7.4v-11.4c0-2.3-1.2-3.5-2.9-3.5-1.8 0-3.1 1.2-3.1 3.5v11.4h-7.4V86.3zM86 108.7c0-4.4 3.3-6.7 8.2-6.7 1.9 0 3.8.4 5 .8v-.3c0-2.2-1.4-3.4-4.2-3.4-2.2 0-3.9.4-5.8 1.2L87.8 95c2.4-1 4.9-1.6 8.5-1.6 3.8 0 6.3.9 8 2.6 1.6 1.6 2.3 3.7 2.3 6.7v12.1h-7.3v-2.2c-1.4 1.6-3.4 2.6-6.2 2.6-4-.1-7.1-2.4-7.1-6.5zm13.4-1.6v-1c-.7-.3-1.8-.5-2.9-.5-2.1 0-3.4 1-3.4 2.6v.1c0 1.4 1.1 2.3 2.6 2.3 2.2-.1 3.7-1.4 3.7-3.5zM111.4 108.1v-8.5h-2.5v-5.9h2.5v-5.3h7.4v5.3h4.9v5.9h-4.9v7.1c0 1.5.7 2.1 2 2.1 1 0 1.9-.3 2.8-.7v5.8c-1.3.7-3.1 1.2-5.1 1.2-4.4 0-7.1-1.9-7.1-7zM136.6 108.7c0-4.4 3.3-6.7 8.2-6.7 1.9 0 3.8.4 5 .8v-.3c0-2.2-1.4-3.4-4.2-3.4-2.2 0-3.9.4-5.8 1.2l-1.5-5.2c2.4-1 4.9-1.6 8.5-1.6 3.8 0 6.3.9 8 2.6 1.6 1.6 2.2 3.7 2.2 6.7v12.1h-7.3v-2.2c-1.4 1.6-3.4 2.6-6.2 2.6-3.9-.2-6.9-2.5-6.9-6.6zm13.3-1.6v-1c-.7-.3-1.8-.5-2.9-.5-2.1 0-3.4 1-3.4 2.6v.1c0 1.4 1.1 2.3 2.6 2.3 2.2-.1 3.7-1.4 3.7-3.5z"/><g><path class="st0" d="M18.9 153.7l2.4-4.9c2.3 1.2 4.5 2 7.3 2 3.7 0 5.5-1.8 5.5-5.2v-.8c-1.5 1.7-3.4 3.1-6.5 3.1-5.2 0-9.3-3.7-9.3-9.7v-.1c0-6.1 4.2-9.8 9.1-9.8 3.1 0 5 1.3 6.6 2.9v-2.5h7.4v15.9c0 3.8-.9 6.5-2.7 8.4-1.9 1.9-4.9 2.9-9.2 2.9-4.1.2-7.5-.6-10.6-2.2zm15.2-15.5c0-2.4-1.8-4.1-4.3-4.1s-4.3 1.7-4.3 4.1v.1c0 2.3 1.8 4 4.3 4 2.6 0 4.3-1.8 4.3-4.1zM45.4 128.8h7.4v4.2c1.2-2.9 3.1-4.7 6.6-4.6v7.8h-.6c-3.8 0-6 2.2-6 7.1v6.5h-7.4v-21zM60.7 139.4c0-6.2 4.4-11.1 10.6-11.1 7.3 0 10.6 5.3 10.6 11.5v1.5h-14c.6 2.3 2.3 3.5 4.5 3.5 1.7 0 3.1-.7 4.7-2.1l4.1 3.4c-2 2.6-4.9 4.3-9.1 4.3-6.7-.1-11.4-4.5-11.4-11zm14.3-1.8c-.3-2.3-1.6-3.8-3.6-3.8-1.9 0-3.3 1.5-3.6 3.8H75zM84 143.8c0-4.4 3.3-6.7 8.2-6.7 1.9 0 3.8.4 5 .8v-.3c0-2.2-1.4-3.4-4.2-3.4-2.2 0-3.9.4-5.8 1.2l-1.5-5.2c2.4-1 4.9-1.6 8.5-1.6 3.8 0 6.3.9 8 2.6 1.6 1.6 2.3 3.7 2.3 6.7V150h-7.3v-2.2c-1.4 1.6-3.4 2.6-6.2 2.6-3.9-.1-7-2.4-7-6.6zm13.3-1.6v-1c-.7-.3-1.8-.5-2.9-.5-2.1 0-3.4 1-3.4 2.6v.1c0 1.4 1.1 2.3 2.6 2.3 2.2 0 3.7-1.4 3.7-3.5zM109.4 143.3v-8.5h-2.5v-5.9h2.5v-5.3h7.4v5.3h4.9v5.9h-4.9v7.1c0 1.5.7 2.1 2 2.1 1 0 1.9-.3 2.8-.7v5.8c-1.3.7-3.1 1.2-5.1 1.2-4.4 0-7.1-2-7.1-7zM134.8 139.4c0-6.2 4.4-11.1 10.6-11.1 7.3 0 10.6 5.3 10.6 11.5v1.5h-14c.6 2.3 2.3 3.5 4.5 3.5 1.7 0 3.1-.7 4.7-2.1l4.1 3.4c-2 2.6-4.9 4.3-9.1 4.3-6.8-.1-11.4-4.5-11.4-11zm14.2-1.8c-.3-2.3-1.6-3.8-3.6-3.8-1.9 0-3.3 1.5-3.6 3.8h7.2zM163.3 139.2l-6.9-10.4h8l3.1 5.2 3.1-5.2h7.8l-6.9 10.4 7.1 10.6h-7.9l-3.3-5.4-3.3 5.4h-7.8l7-10.6zM178.6 139.4c0-6 4.6-11 11.3-11 4.3 0 7.2 1.9 9 4.7l-5 3.7c-1-1.4-2.1-2.2-3.9-2.2-2.4 0-4.1 2.1-4.1 4.7v.1c0 2.7 1.7 4.8 4.2 4.8 1.7 0 2.9-.8 4-2.2l4.9 3.6c-1.9 2.9-4.7 4.8-9.4 4.8-6.3-.1-11-5-11-11zM201.4 142.6v-13.7h7.4v11.4c0 2.3 1.2 3.5 3 3.5 1.7 0 3.1-1.2 3.1-3.5v-11.4h7.4v21h-7.4V147c-1.4 1.7-3.3 3.3-6.3 3.3-4.5 0-7.2-3-7.2-7.7zM224.5 147.2l2.8-4.5c2.4 1.6 5 2.4 7.2 2.4 1.3 0 1.9-.4 1.9-1.1v-.1c0-.8-1.2-1.2-3.4-1.8-4.2-1.1-7.5-2.5-7.5-6.7v-.1c0-4.5 3.6-6.9 8.4-6.9 3.1 0 6.2.9 8.7 2.4l-2.5 4.7c-2.2-1.2-4.5-1.9-6.2-1.9-1.1 0-1.7.4-1.7 1v.1c0 .8 1.2 1.2 3.4 1.9 4.2 1.2 7.5 2.6 7.5 6.7v.1c0 4.6-3.5 7-8.6 7-3.6-.1-7-1.1-10-3.2zM245.2 139.4c0-6.2 4.4-11.1 10.6-11.1 7.3 0 10.6 5.3 10.6 11.5v1.5h-14c.6 2.3 2.2 3.5 4.5 3.5 1.7 0 3.1-.7 4.7-2.1l4.1 3.4c-2 2.6-4.9 4.3-9.1 4.3-6.7-.1-11.4-4.5-11.4-11zm14.3-1.8c-.3-2.3-1.6-3.8-3.6-3.8-1.9 0-3.3 1.5-3.6 3.8h7.2z"/></g><g><path class="st0" d="M20.4 182.1v-8.5h-2.5v-5.9h2.5v-5.3h7.4v5.3h4.9v5.9h-4.9v7.1c0 1.5.7 2.1 2 2.1 1 0 1.9-.3 2.8-.7v5.8c-1.3.7-3.1 1.2-5.1 1.2-4.5 0-7.1-2-7.1-7zM34.4 178.2c0-6.1 4.9-11.1 11.6-11.1 6.7 0 11.6 4.9 11.6 10.9v.1c0 6-4.9 11-11.6 11-6.7 0-11.6-4.9-11.6-10.9zm16.1 0c0-2.6-1.9-4.8-4.5-4.8-2.7 0-4.4 2.1-4.4 4.7v.1c0 2.6 1.9 4.7 4.5 4.7 2.7 0 4.4-2.1 4.4-4.7zM69.9 186l2.8-4.5c2.4 1.6 5 2.4 7.2 2.4 1.3 0 1.9-.4 1.9-1.1v-.1c0-.8-1.2-1.2-3.4-1.8-4.2-1.1-7.5-2.5-7.5-6.7v-.1c0-4.5 3.6-6.9 8.4-6.9 3.1 0 6.2.9 8.7 2.4l-2.5 4.7c-2.2-1.2-4.5-1.9-6.2-1.9-1.1 0-1.7.4-1.7 1v.1c0 .8 1.2 1.2 3.4 1.9 4.2 1.2 7.5 2.6 7.5 6.7v.1c0 4.6-3.5 7-8.6 7-3.6-.1-7.1-1.1-10-3.2zM90.6 178.2c0-6.2 4.4-11.1 10.6-11.1 7.3 0 10.6 5.3 10.6 11.5v1.5h-14c.6 2.3 2.3 3.5 4.5 3.5 1.7 0 3.1-.7 4.7-2.1l4.1 3.4c-2 2.6-4.9 4.3-9.1 4.3-6.7-.1-11.4-4.5-11.4-11zm14.3-1.8c-.3-2.3-1.6-3.8-3.6-3.8-1.9 0-3.3 1.5-3.6 3.8h7.2zM114.1 178.2c0-6.2 4.4-11.1 10.6-11.1 7.3 0 10.6 5.3 10.6 11.5v1.5h-14c.6 2.3 2.3 3.5 4.5 3.5 1.7 0 3.1-.7 4.7-2.1l4.1 3.4c-2 2.6-4.9 4.3-9.1 4.3-6.8-.1-11.4-4.5-11.4-11zm14.2-1.8c-.3-2.3-1.6-3.8-3.6-3.8-1.9 0-3.3 1.5-3.6 3.8h7.2zM149.6 161.5h21.7v6.6h-14.2v4.6h12.8v6.2h-12.8v9.7h-7.5v-27.1zM174.3 167.6h7.4v4.2c1.2-2.9 3.1-4.7 6.6-4.6v7.8h-.6c-3.8 0-6 2.2-6 7.1v6.5h-7.4v-21zM188.9 182.6c0-4.4 3.3-6.7 8.2-6.7 1.9 0 3.8.4 5 .8v-.3c0-2.2-1.4-3.4-4.2-3.4-2.2 0-3.9.4-5.8 1.2l-1.5-5.2c2.4-1 4.9-1.6 8.5-1.6 3.8 0 6.3.9 8 2.6 1.6 1.6 2.2 3.7 2.2 6.7v12.1H202v-2.2c-1.4 1.6-3.4 2.6-6.2 2.6-3.8-.1-6.9-2.4-6.9-6.6zm13.4-1.6v-1c-.7-.3-1.8-.5-2.9-.5-2.1 0-3.4 1-3.4 2.6v.1c0 1.4 1.1 2.3 2.6 2.3 2.2 0 3.7-1.4 3.7-3.5zM213.2 167.6h7.4v2.9c1.4-1.7 3.3-3.4 6.3-3.4 4.5 0 7.1 2.9 7.1 7.7v13.7h-7.4v-11.4c0-2.3-1.2-3.5-2.9-3.5-1.8 0-3.1 1.2-3.1 3.5v11.4h-7.4v-20.9zM237 178.2c0-6 4.6-11 11.3-11 4.3 0 7.2 1.9 9 4.7l-5 3.7c-1-1.4-2.1-2.2-3.9-2.2-2.4 0-4.1 2.1-4.1 4.7v.1c0 2.7 1.7 4.8 4.2 4.8 1.7 0 2.9-.8 4-2.2l4.9 3.6c-1.9 2.9-4.7 4.8-9.4 4.8-6.4-.1-11-5-11-11zM258.5 178.2c0-6.2 4.4-11.1 10.6-11.1 7.3 0 10.6 5.3 10.6 11.5v1.5h-14c.6 2.3 2.2 3.5 4.5 3.5 1.7 0 3.1-.7 4.7-2.1l4.1 3.4c-2 2.6-4.9 4.3-9.1 4.3-6.7-.1-11.4-4.5-11.4-11zm14.3-1.8c-.3-2.3-1.6-3.8-3.6-3.8-1.9 0-3.3 1.5-3.6 3.8h7.2zM282.4 181.1h7.7v7.6h-7.7v-7.6z"/></g></svg>