<svg id="Layer_1" xmlns="http://www.w3.org/2000/svg" viewBox="0 0 300 250"><style>.st0{fill:#461211}</style><path class="st0" d="M18.4 76.4h8L32.9 87l6.5-10.6h8v27.3h-7.5V88l-7 10.7h-.2l-6.9-10.6v15.6h-7.4V76.4zM51.6 96.4V82.6H59V94c0 2.3 1.2 3.6 3 3.6s3.1-1.2 3.1-3.6V82.6h7.4v21.1h-7.4v-2.9c-1.4 1.8-3.3 3.4-6.3 3.4-4.5 0-7.2-3-7.2-7.8zM76.5 82.6h7.4v4.3c1.2-2.9 3.2-4.8 6.7-4.6v7.8H90c-3.9 0-6 2.2-6 7.1v6.6h-7.4V82.6zM92.1 93.3c0-6.9 4.3-11.1 9.3-11.1 3.2 0 5.1 1.4 6.5 3v-9.9h7.4v28.5h-7.4V101c-1.4 1.8-3.3 3.3-6.4 3.3-5.1-.1-9.4-4.3-9.4-11zm15.9-.1c0-2.8-1.9-4.8-4.3-4.8s-4.3 2-4.3 4.8v.1c0 2.8 2 4.8 4.3 4.8 2.4-.1 4.3-2.1 4.3-4.9zM118.4 93.3c0-6.2 4.4-11.1 10.7-11.1 7.3 0 10.7 5.3 10.7 11.5v1.5h-14.1c.6 2.3 2.3 3.5 4.6 3.5 1.8 0 3.2-.7 4.7-2.1l4.1 3.4c-2 2.6-5 4.3-9.2 4.3-6.8-.1-11.5-4.5-11.5-11zm14.4-1.9c-.3-2.3-1.6-3.8-3.7-3.8-2 0-3.3 1.5-3.7 3.8h7.4zM142.9 82.6h7.4v4.3c1.2-2.9 3.2-4.8 6.7-4.6v7.8h-.6c-3.9 0-6 2.2-6 7.1v6.6H143V82.6zM158 101.1l2.8-4.5c2.4 1.6 5.1 2.4 7.3 2.4 1.3 0 1.9-.4 1.9-1.1v-.1c0-.8-1.2-1.2-3.4-1.8-4.2-1.1-7.5-2.5-7.5-6.8v-.1c0-4.5 3.6-7 8.5-7 3.1 0 6.3.9 8.7 2.5l-2.5 4.7c-2.2-1.2-4.6-2-6.2-2-1.1 0-1.7.4-1.7 1v.1c0 .8 1.2 1.2 3.4 1.9 4.2 1.2 7.5 2.6 7.5 6.7v.1c0 4.6-3.5 7.1-8.6 7.1-3.8 0-7.3-1-10.2-3.1z"/><g><path class="st0" d="M19.2 132.3v-8.6h-2.5v-6h2.5v-5.3h7.4v5.3h4.9v6h-4.9v7.1c0 1.5.7 2.1 2 2.1 1 0 1.9-.3 2.8-.7v5.8c-1.3.7-3.1 1.2-5.2 1.2-4.3.1-7-1.9-7-6.9zM33.3 128.4c0-6.1 4.9-11.1 11.7-11.1 6.8 0 11.6 5 11.6 11v.1c0 6-4.9 11-11.7 11-6.7 0-11.6-5-11.6-11zm16.2 0c0-2.7-1.9-4.8-4.5-4.8-2.7 0-4.4 2.1-4.4 4.7v.1c0 2.6 1.9 4.8 4.5 4.8 2.6-.1 4.4-2.3 4.4-4.8zM69 136.2l2.8-4.5c2.4 1.6 5.1 2.4 7.3 2.4 1.3 0 1.9-.4 1.9-1.1v-.1c0-.8-1.2-1.2-3.4-1.8-4.2-1.1-7.5-2.5-7.5-6.7v-.1c0-4.5 3.6-7 8.5-7 3.1 0 6.3.9 8.7 2.5l-2.5 4.7c-2.2-1.2-4.6-2-6.2-2-1.1 0-1.7.4-1.7 1v.1c0 .8 1.2 1.2 3.4 1.9 4.2 1.2 7.5 2.6 7.5 6.7v.1c0 4.6-3.5 7.1-8.6 7.1-3.8-.1-7.3-1.1-10.2-3.2zM89.8 128.4c0-6.1 4.9-11.1 11.7-11.1 6.8 0 11.6 5 11.6 11v.1c0 6-4.9 11-11.7 11-6.7 0-11.6-5-11.6-11zm16.1 0c0-2.7-1.9-4.8-4.5-4.8-2.7 0-4.4 2.1-4.4 4.7v.1c0 2.6 1.9 4.8 4.5 4.8 2.7-.1 4.4-2.3 4.4-4.8zM116.4 110.4h7.4v28.5h-7.4v-28.5zM126.4 117.7h7.8l4.1 12.3 4.1-12.3h7.7l-8.4 21.3h-6.8l-8.5-21.3zM150.2 128.4c0-6.2 4.4-11.1 10.7-11.1 7.3 0 10.7 5.3 10.7 11.5v1.5h-14.1c.6 2.3 2.3 3.5 4.6 3.5 1.8 0 3.2-.7 4.7-2.1l4.1 3.4c-2 2.6-5 4.3-9.2 4.3-6.8 0-11.5-4.4-11.5-11zm14.4-1.8c-.3-2.3-1.6-3.8-3.7-3.8-2 0-3.3 1.5-3.7 3.8h7.4zM174.2 131.2h7.7v7.6h-7.7v-7.6z"/></g></svg>