<svg id="Layer_1" xmlns="http://www.w3.org/2000/svg" viewBox="0 0 300 250"><style>.st0{fill:#461211}</style><path class="st0" d="M40.1 123.9l.2-1.6 3.2-.4 3-20.4-13.1 22.4h-1.1l-5.1-22.2-4.8 20.1 3.6.5-.3 1.6h-9l.3-1.6 3.6-.5 5.2-22.1-3.4-.4.3-1.6h7.2l4.5 21.2 12.5-21.2h6.8l-.2 1.6-3.7.5-1.7 11.9-1.3 10.1 3.5.4-.2 1.6h-10zm25.5-1.5c0-.5 0-1.1.3-2.4-3 2.8-5.4 4.4-7.8 4.4-1.4 0-2.7-.7-2.7-2.8 0-1.4.5-3.4.8-5l1.8-8.4-3.9-.2.2-1.2 6.7-2 .5.4-2.5 11c-.4 1.6-.6 2.9-.6 3.7 0 1.1.5 1.7 1.5 1.7 1.6 0 3.3-1.1 6.2-3.4l1.1-5.1c.5-2.5 1-5 1.4-7.5l2.5-.8.5.4-2.6 13.4c-.2 1-.4 1.8-.4 2.3 0 .5.4.9.9.9 1.1 0 2.2-1 3.9-2.8l.9.7c-1.8 2.3-3.9 4.8-6.6 4.8-1.1-.1-2.1-.8-2.1-2.1zm14.6-14.2l-3.9-.2.2-1.1 6.4-2 .5.4-.8 5.2c1.6-2.9 3.8-5.6 5.9-5.6 1.1 0 2 .3 2.6 1.2 0 1.2-.7 2.1-2 2.1-.7 0-1.5-.4-2.3-1-1.9 1.5-3.4 3.7-4.8 6.4l-.5 2.1c-.6 2.7-1.1 5.4-1.6 8.2l-2.5.3-.4-.3 3.2-15.7zm22.6 12.7c0 .5.4.9.9.9 1 0 2.5-1.2 3.9-2.8l.9.7c-1.5 2.3-3.9 4.8-6.6 4.8-1.2 0-2.1-.7-2.1-2 0-.5 0-1.2.3-2.7-2.3 2.8-5.1 4.6-7.2 4.6-1.9 0-3.5-1.4-3.5-4.9 0-6.4 6.5-14.6 11.8-14.6.8 0 1.4.2 2 .6l1.5-7.2-4-.3.2-1.1 6.6-2 .5.3-4.7 23.3c-.4 1.1-.5 1.9-.5 2.4zm-.5-12.5c-.8-.7-1.6-.9-2.4-.9-1.7 0-3.4.9-4.8 2.5-1.8 2-3 4.9-3 8.1 0 2.6 1.1 3.7 2.5 3.7s3.1-1 5.8-4.1l1.9-9.3zm7.7 8.7c0-6.3 4.7-12.3 10.1-12.3 2.5 0 3.9 1.3 3.9 3.6 0 2.5-2.4 6-11.4 8.6.2 3.4 1.7 4.7 4 4.7 2.5 0 4.2-1.5 5.3-2.8l.9.7c-1.6 2.7-4.1 4.8-7 4.8-3.3 0-5.8-2.3-5.8-7.3zm11.5-8.3c0-1.4-.9-2.3-2.2-2.3-2.4 0-6.3 4.1-6.6 9 6.5-1.9 8.8-4.5 8.8-6.7zm8.5-.6l-3.9-.2.2-1.1 6.4-2 .5.4-.8 5.2c1.6-2.9 3.8-5.6 5.9-5.6 1.1 0 2 .3 2.6 1.2 0 1.2-.7 2.1-2 2.1-.7 0-1.5-.4-2.3-1-1.9 1.5-3.4 3.7-4.8 6.4l-.5 2.1c-.6 2.7-1.1 5.4-1.6 8.2l-2.5.3-.4-.3 3.2-15.7zm23.4-10.5h10.3l-.3 1.6-3.3.4-2.3 12.1c-.6 3.4-1.2 6.7-1.8 10.1l3.5.4-.3 1.6H149l.3-1.6 3.4-.4 2.3-12.1c.6-3.4 1.2-6.7 1.8-10.1l-3.6-.4.2-1.6zm11.5 26.5l-.4-.3 3.3-15.7-3.9-.2.2-1.1 6.6-2 .5.4-.8 4c2.5-2.4 5.8-4.4 8.1-4.4 1.6 0 2.5.9 2.5 2.7 0 1.2-.4 2.5-.7 3.8l-1.8 7.2c-.3 1.1-.5 1.9-.5 2.3 0 .5.3.8.8.8 1 0 2.5-1.1 3.9-2.8l.9.7c-1.5 2.3-4.1 4.8-6.7 4.8-1.2 0-2-.7-2-1.6 0-.9.2-1.6.6-3.2l1.7-6.9c.3-1.3.6-2.6.6-3.4 0-1.4-.5-1.8-1.4-1.8-1.4 0-3.6 1.2-6.5 3.5l-1 4.7c-.6 2.7-1.1 5.4-1.6 8.2l-2.4.3zm21-2.2c0-1.5 1.3-2.7 2.8-2.7 1.3 0 2.2 1 2.2 2.2 0 1.5-1.2 2.7-2.7 2.7-1.3.1-2.3-.9-2.3-2.2zm9.7 0c0-1.5 1.3-2.7 2.8-2.7 1.3 0 2.2 1 2.2 2.2 0 1.5-1.2 2.7-2.7 2.7-1.3.1-2.3-.9-2.3-2.2zm9.8 0c0-1.5 1.3-2.7 2.8-2.7 1.3 0 2.2 1 2.2 2.2 0 1.5-1.2 2.7-2.7 2.7-1.3.1-2.3-.9-2.3-2.2z"/></svg>