<svg id="Layer_1" xmlns="http://www.w3.org/2000/svg" viewBox="0 0 300 600"><style>.st0{fill:#490a09}</style><path class="st0" d="M22.8 162.2h21.7c5.3 0 9.1 1.3 11.6 3.8 1.7 1.7 2.7 3.9 2.7 6.8v.1c0 4.9-2.8 7.8-6.5 9.5 5.1 1.7 8.4 4.6 8.4 10.4v.1c0 7.3-5.9 11.7-16.1 11.7H22.8v-42.4zm18.8 16.9c3.6 0 5.6-1.2 5.6-3.7v-.1c0-2.3-1.8-3.6-5.3-3.6h-7.6v7.5h7.3zm1.7 16c3.6 0 5.6-1.4 5.6-3.9v-.1c0-2.3-1.8-3.8-5.8-3.8h-9v7.8h9.2zM64.1 188.4v-.1c0-9.6 6.8-17.1 16.5-17.1 11.3 0 16.5 8.3 16.5 17.9 0 .7 0 1.6-.1 2.4H75.2c.9 3.6 3.5 5.4 7.1 5.4 2.7 0 4.9-1 7.3-3.3l6.4 5.3c-3.2 4-7.7 6.7-14.2 6.7-10.5-.2-17.7-7.1-17.7-17.2zm22.3-2.9c-.4-3.6-2.5-5.9-5.7-5.9-3 0-5.1 2.4-5.7 5.9h11.4zM102 160.4h11.5v15.9c2.1-2.7 5.1-5.2 9.8-5.2 7 0 11.1 4.6 11.1 12.1v21.4H123v-17.7c0-3.6-1.9-5.5-4.6-5.5-2.8 0-4.8 1.9-4.8 5.5v17.7H102v-44.2zM140.4 160.4h12v8.5h-12v-8.5zm.3 11.4h11.5v32.8h-11.5v-32.8zM158.6 171.8h11.5v4.6c2.1-2.7 5.1-5.3 9.8-5.3 7 0 11.1 4.6 11.1 12.1v21.4h-11.5v-17.7c0-3.6-1.9-5.5-4.6-5.5-2.8 0-4.8 1.9-4.8 5.5v17.7h-11.5v-32.8zM195.8 188.4v-.1c0-10.7 6.7-17.1 14.4-17.1 5 0 7.9 2.2 10.1 4.7v-15.4h11.5v44.2h-11.5v-4.4c-2.2 2.7-5.1 5.1-10 5.1-7.8-.1-14.5-6.6-14.5-17zm24.7-.2v-.1c0-4.3-3-7.4-6.7-7.4s-6.7 3-6.7 7.4v.1c0 4.4 3 7.5 6.7 7.5s6.7-3.1 6.7-7.5z"/><g><path class="st0" d="M20.8 243.9v-.1c0-9.6 6.8-17.1 16.5-17.1 11.3 0 16.5 8.3 16.5 17.9 0 .7 0 1.6-.1 2.4H31.8c.9 3.6 3.5 5.4 7.1 5.4 2.7 0 4.9-1 7.3-3.3l6.4 5.3c-3.2 4-7.7 6.7-14.2 6.7-10.4-.2-17.6-7-17.6-17.2zM43 241c-.4-3.6-2.5-5.9-5.7-5.9-3 0-5.1 2.4-5.7 5.9H43zM54.8 227.3h12.1l6.3 19.1 6.3-19.1h11.9l-13.1 33H67.9l-13.1-33zM91.9 243.9v-.1c0-9.6 6.8-17.1 16.5-17.1 11.3 0 16.5 8.3 16.5 17.9 0 .7 0 1.6-.1 2.4H103c.9 3.6 3.5 5.4 7.1 5.4 2.7 0 4.9-1 7.3-3.3l6.4 5.3c-3.2 4-7.7 6.7-14.2 6.7-10.5-.2-17.7-7-17.7-17.2zm22.3-2.9c-.4-3.6-2.5-5.9-5.7-5.9-3 0-5.1 2.4-5.7 5.9h11.4zM129.9 227.3h11.5v6.6c1.9-4.5 4.9-7.4 10.4-7.1v12.1h-1c-6 0-9.4 3.5-9.4 11v10.2h-11.5v-32.8zM154.9 267.1l3.6-8.1c1.8 1.1 3.8 1.8 5 1.8 1.2 0 1.9-.3 2.7-1.3l-12.8-32.2h12.1L172 247l6.2-19.7H190l-12 32c-2.8 7.6-5.9 10.7-12.5 10.7-4.1 0-7.5-1.2-10.6-2.9z"/></g><g><path class="st0" d="M22.1 282.9h11.5v4.4c2.2-2.7 5-5.1 9.9-5.1 7.8 0 14.5 6.5 14.5 17v.1c0 10.7-6.7 17.1-14.5 17.1-5 0-7.9-2.2-10-4.7v13.7H22.1v-42.5zm24.6 16.4v-.1c0-4.3-3-7.4-6.7-7.4s-6.7 3.1-6.7 7.4v.1c0 4.4 3 7.5 6.7 7.5 3.8-.1 6.7-3.1 6.7-7.5zM61.7 299.4v-.1c0-9.6 6.8-17.1 16.5-17.1 11.3 0 16.5 8.3 16.5 17.9 0 .7 0 1.6-.1 2.4H72.8c.9 3.6 3.5 5.4 7.1 5.4 2.7 0 4.9-1 7.3-3.3l6.4 5.3c-3.2 4-7.7 6.7-14.2 6.7-10.4-.2-17.7-7-17.7-17.2zm22.3-2.8c-.4-3.6-2.5-5.9-5.7-5.9-3 0-5.1 2.4-5.7 5.9H84zM99.7 282.9h11.5v6.6c1.9-4.5 4.9-7.4 10.4-7.1v12.1h-1c-6 0-9.4 3.5-9.4 11v10.2H99.7v-32.8zM127.7 292.1h-3.8v-9h3.8v-.7c0-3.8.8-6.5 2.8-8.5 2-2 4.7-2.8 8.5-2.8 3.5 0 5.7.4 7.5.9v8.1c-1.3-.4-2.7-.7-4.3-.7-2.1 0-3.3 1-3.3 3.1v.8h7.5v8.8h-7.3v23.6h-11.4v-23.6zM148.2 299.4v-.1c0-9.6 6.8-17.1 16.5-17.1 11.3 0 16.5 8.3 16.5 17.9 0 .7 0 1.6-.1 2.4h-21.9c.9 3.6 3.5 5.4 7.1 5.4 2.7 0 4.9-1 7.3-3.3l6.4 5.3c-3.1 4-7.7 6.7-14.2 6.7-10.3-.2-17.6-7-17.6-17.2zm22.3-2.8c-.4-3.6-2.5-5.9-5.7-5.9-3 0-5.1 2.4-5.7 5.9h11.4zM184.8 299.4v-.1c0-9.3 7.2-17.1 17.6-17.1 6.7 0 11.2 2.9 14 7.3l-7.8 5.8c-1.6-2.2-3.3-3.5-6.1-3.5-3.7 0-6.4 3.3-6.4 7.3v.1c0 4.2 2.7 7.5 6.5 7.5 2.7 0 4.5-1.3 6.3-3.4l7.7 5.6c-3 4.5-7.4 7.5-14.6 7.5-9.9 0-17.2-7.7-17.2-17zM222.6 305.5v-13.3h-3.9v-9.3h3.9v-8.3h11.5v8.3h7.6v9.3h-7.6v11.1c0 2.3 1 3.3 3.1 3.3 1.5 0 3-.4 4.4-1.1v9c-2.1 1.2-4.8 1.9-8 1.9-6.8-.1-11-3.1-11-10.9z"/></g><g><path class="st0" d="M22.3 335h11.5v44.2H22.3V335zM40.3 335h12v8.5h-12V335zm.2 11.4H52v32.8H40.5v-32.8zM60.5 355.6h-3.8v-9h3.8v-.7c0-3.8.8-6.5 2.8-8.5 2-2 4.7-2.8 8.5-2.8 3.5 0 5.7.4 7.5.9v8.1c-1.3-.4-2.7-.7-4.3-.7-2.1 0-3.3 1-3.3 3.1v.8h7.5v8.8h-7.3v23.6H60.5v-23.6zM81 362.9v-.1c0-9.6 6.8-17.1 16.5-17.1 11.3 0 16.5 8.3 16.5 17.9 0 .7 0 1.6-.1 2.4H92.1c.9 3.6 3.5 5.4 7.1 5.4 2.7 0 4.9-1 7.3-3.3l6.4 5.3c-3.2 4-7.7 6.7-14.2 6.7-10.4-.1-17.7-7-17.7-17.2zm22.3-2.8c-.4-3.6-2.5-5.9-5.7-5.9-3 0-5.1 2.4-5.7 5.9h11.4z"/></g></svg>