<svg id="Layer_1" xmlns="http://www.w3.org/2000/svg" viewBox="0 0 300 50"><style>.st0{fill:#490a09}</style><path class="st0" d="M12.3 21.7H7.5v-3.8h13.9v3.8h-4.7v12h-4.4v-12zM22 17.9h4.9l3.6 10 3.6-10h4.8l-6.4 15.9h-4.1L22 17.9zM46 27.6c0-3.5 2.7-6.4 6.5-6.4 2.5 0 4.2 1.1 5.2 2.7l-2.9 2.2c-.6-.8-1.2-1.3-2.3-1.3-1.4 0-2.4 1.2-2.4 2.7 0 1.6 1 2.8 2.4 2.8 1 0 1.7-.5 2.3-1.3l2.9 2.1C56.6 32.8 55 34 52.3 34c-3.6 0-6.3-2.9-6.3-6.4zM59.3 21.5h4.3V24c.7-1.7 1.8-2.8 3.9-2.7v4.5h-.4c-2.2 0-3.5 1.3-3.5 4.1v3.8h-4.3V21.5zM68.9 17.2h4.5v3.2h-4.5v-3.2zm.1 4.3h4.3v12.2H69V21.5zM76.5 29.9v-5H75v-3.5h1.4v-3.1h4.3v3.1h2.8v3.5h-2.8V29c0 .9.4 1.2 1.2 1.2.6 0 1.1-.2 1.6-.4v3.4c-.8.4-1.8.7-3 .7-2.5 0-4-1.1-4-4zM85.4 17.2h4.5v3.2h-4.5v-3.2zm.1 4.3h4.3v12.2h-4.3V21.5zM91.7 27.6c0-3.5 2.7-6.4 6.5-6.4 2.5 0 4.2 1.1 5.2 2.7l-2.9 2.2c-.6-.8-1.2-1.3-2.3-1.3-1.4 0-2.4 1.2-2.4 2.7 0 1.6 1 2.8 2.4 2.8 1 0 1.7-.5 2.3-1.3l2.9 2.1c-1.1 1.7-2.8 2.8-5.4 2.8-3.6.1-6.3-2.8-6.3-6.3zM104.1 32.1l1.6-2.6c1.4.9 2.9 1.4 4.2 1.4.7 0 1.1-.2 1.1-.7 0-.5-.7-.7-2-1-2.4-.6-4.3-1.4-4.3-3.9 0-2.6 2.1-4 4.9-4 1.8 0 3.6.5 5 1.4l-1.5 2.7c-1.3-.7-2.6-1.1-3.6-1.1-.7 0-1 .2-1 .6 0 .5.7.7 2 1.1 2.4.7 4.3 1.5 4.3 3.9 0 2.7-2 4.1-5 4.1-1.9-.1-4-.7-5.7-1.9zM122.4 27.6c0-3.5 2.7-6.4 6.5-6.4 2.5 0 4.2 1.1 5.2 2.7l-2.9 2.2c-.6-.8-1.2-1.3-2.3-1.3-1.4 0-2.4 1.2-2.4 2.7 0 1.6 1 2.8 2.4 2.8 1 0 1.7-.5 2.3-1.3l2.9 2.1c-1.1 1.7-2.8 2.8-5.4 2.8-3.6.1-6.3-2.8-6.3-6.3zM135.7 17.2h4.3v5.9c.8-1 1.9-1.9 3.7-1.9 2.6 0 4.2 1.7 4.2 4.5v8h-4.3v-6.6c0-1.3-.7-2.1-1.7-2.1s-1.8.7-1.8 2.1v6.6h-4.3V17.2zM149.6 27.6c0-3.6 2.6-6.4 6.2-6.4 4.2 0 6.2 3.1 6.2 6.7v.9h-8.2c.3 1.3 1.3 2 2.6 2 1 0 1.8-.4 2.7-1.2l2.4 2c-1.2 1.5-2.9 2.5-5.3 2.5-3.9-.1-6.6-2.7-6.6-6.5zm8.3-1c-.2-1.4-.9-2.2-2.1-2.2-1.1 0-1.9.9-2.1 2.2h4.2zM163.2 27.6c0-3.6 2.6-6.4 6.2-6.4 4.2 0 6.2 3.1 6.2 6.7v.9h-8.2c.3 1.3 1.3 2 2.6 2 1 0 1.8-.4 2.7-1.2l2.4 2c-1.2 1.5-2.9 2.5-5.3 2.5-3.9-.1-6.6-2.7-6.6-6.5zm8.3-1c-.2-1.4-.9-2.2-2.1-2.2-1.1 0-1.9.9-2.1 2.2h4.2zM177.4 21.5h4.3V24c.7-1.7 1.8-2.8 3.9-2.7v4.5h-.4c-2.2 0-3.5 1.3-3.5 4.1v3.8h-4.3V21.5zM186.3 27.6c0-3.6 2.6-6.4 6.2-6.4 4.2 0 6.2 3.1 6.2 6.7v.9h-8.2c.3 1.3 1.3 2 2.6 2 1 0 1.8-.4 2.7-1.2l2.4 2c-1.2 1.5-2.9 2.5-5.3 2.5-3.9-.1-6.6-2.7-6.6-6.5zm8.3-1c-.2-1.4-.9-2.2-2.1-2.2-1.1 0-1.9.9-2.1 2.2h4.2zM200 27.6c0-4 2.5-6.4 5.4-6.4 1.9 0 2.9.8 3.7 1.8v-5.8h4.3v16.5h-4.3V32c-.8 1-1.9 1.9-3.7 1.9-2.9 0-5.4-2.4-5.4-6.3zm9.2 0c0-1.6-1.1-2.8-2.5-2.8s-2.5 1.1-2.5 2.8c0 1.6 1.1 2.8 2.5 2.8s2.5-1.2 2.5-2.8zM215.5 29.3h4.5v4.4h-4.5v-4.4z"/></svg>