<svg id="Layer_1" xmlns="http://www.w3.org/2000/svg" viewBox="0 0 300 50"><style>.st0{fill:#490a09}</style><path class="st0" d="M15.1 27h2.7l1.5 10h-2.9l-.2-1.8h-3.8L11.2 37h-3l6.9-10zm.9 6.1l-.4-2.8-1.9 2.8H16zM26.6 27.1h7.9l-.6 2.4h-5.2l-.5 1.7h4.7l-.6 2.3h-4.7l-.9 3.5h-2.8l2.7-9.9zM35.1 29.3h2.7l-.4 1.5c.7-1.1 1.6-1.8 2.9-1.7l-.8 2.9h-.2c-1.5 0-2.4.8-2.9 2.6l-.7 2.4H33l2.1-7.7zM43.7 35.1c.6 0 1-.2 1.6-.6l1.2 1.5c-.8.7-1.8 1.1-3.1 1.1-2.3 0-3.6-1.3-3.6-3.4 0-2.3 1.8-4.6 4.6-4.6 2.3 0 3.2 1.5 3.2 3.2 0 .5-.1 1.1-.3 1.6h-5.1c.1.8.6 1.2 1.5 1.2zm1.5-2.6c0-.1.1-.3.1-.4 0-.5-.3-1-1-1s-1.4.5-1.8 1.4h2.7zM49.6 29.3h2.7l-.2.9c.5-.6 1.3-1 2.2-1 1.4 0 2.2.9 2.2 2.3 0 .4-.1.9-.2 1.4L55.2 37h-2.7l1.1-4c.1-.2.1-.5.1-.6 0-.5-.3-.8-.8-.8-.7 0-1.2.5-1.4 1.4l-1.1 4h-2.7l1.9-7.7zM57.2 33.8c0-2.6 2-4.6 4.6-4.6 1.8 0 2.8.9 3.2 2.1l-2.1 1.1c-.3-.6-.6-1-1.3-1-1 0-1.8 1.1-1.8 2.3 0 .8.5 1.3 1.2 1.3.6 0 1-.2 1.4-.7l1.6 1.4c-.8.9-1.7 1.5-3.3 1.5-2 0-3.5-1.3-3.5-3.4zM67.2 26.7h2.7l-.9 3.5c.5-.6 1.3-1 2.2-1 1.4 0 2.2.9 2.2 2.3 0 .4-.1.9-.2 1.4L72 37h-2.7l1.1-4c.1-.2.1-.5.1-.6 0-.5-.3-.8-.8-.8-.7 0-1.2.5-1.4 1.4l-1.1 4h-2.7l2.7-10.3zM79.1 27.1h3l.6 6.2 3.9-6.2h3.1L83 37h-2.6l-1.3-9.9zM89.7 29.3h2.7l-2 7.6h-2.7l2-7.6zm.7-2.6h2.8l-.5 2h-2.8l.5-2zM94.7 26.7h2.7L94.6 37h-2.7l2.8-10.3zM98.9 26.7h2.7L98.9 37h-2.7l2.7-10.3zM100.7 35c0-1.7 1.3-2.7 3.4-2.7.7 0 1.3.1 1.9.3v-.1c0-.1.1-.3.1-.5 0-.5-.4-.8-1.3-.8-.7 0-1.5.2-2.1.4l-.4-1.9c.8-.3 1.9-.5 3-.5 2.3 0 3.4.9 3.4 2.4 0 .4-.1.7-.2 1.1l-1.1 4.2h-2.6l.2-.8c-.6.6-1.3 1-2.2 1-1.2 0-2.1-.8-2.1-2.1zm4.9-.9l.1-.3c-.3-.1-.6-.2-1-.2-.8 0-1.4.4-1.4 1.1 0 .4.3.7.8.7.7.1 1.3-.5 1.5-1.3zM108.4 38.2l1.2-1.7c.9.5 1.9.8 2.7.8.7 0 1.2-.2 1.6-.6.3-.3.5-.7.6-1.2v-.2c-.7.6-1.4.9-2.3.9-1.4 0-2.7-.9-2.7-2.6 0-2.4 1.7-4.5 4-4.5 1.2 0 1.9.6 2.3 1.2l.3-1.1h2.7l-1.6 6.1c-.4 1.4-.7 2.1-1.4 2.7-.8.7-1.8 1.1-3.4 1.1-1.4.2-3-.3-4-.9zm6.9-5.7c0-.7-.5-1.2-1.3-1.2-1 0-1.8.9-1.8 1.9 0 .7.5 1.2 1.2 1.2 1.1 0 1.9-.9 1.9-1.9zM122.8 35.1c.6 0 1-.2 1.6-.6l1.2 1.5c-.8.7-1.8 1.1-3.1 1.1-2.3 0-3.6-1.3-3.6-3.4 0-2.3 1.8-4.6 4.6-4.6 2.3 0 3.2 1.5 3.2 3.2 0 .5-.1 1.1-.3 1.6h-5.1c.2.8.6 1.2 1.5 1.2zm1.5-2.6c0-.1.1-.3.1-.4 0-.5-.3-1-1-1s-1.4.5-1.8 1.4h2.7z"/><g><path class="st0" d="M127.3 38.3c.9-.1 1.4-.6 1.4-1.3h-1.1v-2.8h2.8v2.2c0 2.1-1.1 2.8-2.9 2.9l-.2-1z"/></g><g><path class="st0" d="M135.4 33.2c0-2.2 1.8-4 4.2-4 2.4 0 4.2 1.8 4.2 4s-1.8 4-4.2 4c-2.5 0-4.2-1.8-4.2-4zm5.8 0c0-1-.7-1.8-1.6-1.8-1 0-1.6.8-1.6 1.7 0 .9.7 1.7 1.6 1.7 1 .1 1.6-.7 1.6-1.6zM145 29.3h2.7v1.1c.5-.6 1.2-1.2 2.3-1.2 1.6 0 2.6 1.1 2.6 2.8v5h-2.7v-4.1c0-.8-.4-1.3-1.1-1.3-.6 0-1.1.5-1.1 1.3V37H145v-7.7zM158 27.1h2.9l2.4 3.8 2.4-3.8h2.9V37h-2.7v-5.7l-2.5 3.9h-.1l-2.5-3.8V37H158v-9.9zM170.3 27.1h2.7v3.7h3.5v-3.7h2.7V37h-2.7v-3.8H173V37h-2.7v-9.9zM180.6 35.2l3.5-3.7h-3.4v-2.1h7v1.8l-3.5 3.7h3.5V37h-7.1v-1.8zM192.5 32.1c0-2.9 2.2-5.2 5.2-5.2 2 0 3.3.8 4.2 2.1l-2.1 1.6c-.6-.7-1.2-1.2-2.2-1.2-1.4 0-2.4 1.2-2.4 2.6 0 1.5 1 2.6 2.4 2.6 1 0 1.6-.5 2.2-1.2l2.1 1.5c-.9 1.3-2.2 2.2-4.4 2.2-2.7.1-5-2.1-5-5zM203.1 26.7h2.7v3.7c.5-.6 1.2-1.2 2.3-1.2 1.6 0 2.6 1.1 2.6 2.8v5H208v-4.1c0-.8-.4-1.3-1.1-1.3-.6 0-1.1.5-1.1 1.3V37h-2.7V26.7zM211.7 33.2c0-2.2 1.8-4 4.2-4 2.4 0 4.2 1.8 4.2 4s-1.8 4-4.2 4c-2.4 0-4.2-1.8-4.2-4zm5.8 0c0-1-.7-1.8-1.6-1.8-1 0-1.6.8-1.6 1.7 0 .9.7 1.7 1.6 1.7 1 .1 1.6-.7 1.6-1.6zM221.3 26.7h2.8v2h-2.8v-2zm0 2.6h2.7V37h-2.7v-7.7zM225.2 33.2c0-2.2 1.7-4 4.1-4 1.6 0 2.6.7 3.3 1.7l-1.8 1.4c-.4-.5-.8-.8-1.4-.8-.9 0-1.5.8-1.5 1.7 0 1 .6 1.7 1.5 1.7.6 0 1-.3 1.5-.8l1.8 1.3c-.7 1-1.7 1.8-3.4 1.8-2.4 0-4.1-1.9-4.1-4zM233.1 33.2c0-2.3 1.6-4 3.9-4 2.6 0 3.9 1.9 3.9 4.2v.6h-5.1c.2.8.8 1.3 1.7 1.3.6 0 1.1-.2 1.7-.8l1.5 1.2c-.7.9-1.8 1.6-3.3 1.6-2.6-.1-4.3-1.7-4.3-4.1zm5.2-.7c-.1-.8-.6-1.4-1.3-1.4-.7 0-1.2.6-1.3 1.4h2.6zM241.7 34.2h2.8V37h-2.8v-2.8z"/></g></svg>