<svg id="Layer_1" xmlns="http://www.w3.org/2000/svg" viewBox="0 0 300 50"><style>.st0{fill:#490a09}</style><path class="st0" d="M9.5 17.6c0-2.9 2.2-5.2 5.2-5.2 2 0 3.3.8 4.2 2.1l-2.1 1.6c-.6-.7-1.2-1.2-2.2-1.2-1.4 0-2.4 1.2-2.4 2.6 0 1.5 1 2.6 2.4 2.6 1 0 1.6-.5 2.2-1.2l2.1 1.5c-.9 1.3-2.2 2.2-4.4 2.2-2.7.1-5-2-5-5zM19.7 20.3c0-1.6 1.2-2.4 3-2.4.7 0 1.4.1 1.8.3v-.1c0-.8-.5-1.2-1.5-1.2-.8 0-1.4.2-2.1.4l-.6-1.9c.9-.4 1.8-.6 3.1-.6 1.4 0 2.3.3 2.9.9.6.6.8 1.4.8 2.4v4.4h-2.7v-.8c-.5.6-1.2 1-2.2 1-1.4 0-2.5-.8-2.5-2.4zm4.8-.6v-.4c-.3-.1-.6-.2-1-.2-.8 0-1.2.4-1.2.9s.4.8.9.8c.8.2 1.3-.3 1.3-1.1zM28.9 20.1V17H28v-2.2h.9v-1.9h2.7v1.9h1.8V17h-1.8v2.6c0 .5.2.8.7.8.4 0 .7-.1 1-.3v2.1c-.5.3-1.1.4-1.9.4-1.5.1-2.5-.6-2.5-2.5zM34 18.7c0-2.2 1.7-4 4.1-4 1.6 0 2.6.7 3.3 1.7l-1.8 1.4c-.4-.5-.8-.8-1.4-.8-.9 0-1.5.8-1.5 1.7 0 1 .6 1.7 1.5 1.7.6 0 1-.3 1.5-.8l1.8 1.3c-.7 1-1.7 1.8-3.4 1.8-2.4 0-4.1-1.8-4.1-4zM42.4 12.2h2.7v3.7c.5-.6 1.2-1.2 2.3-1.2 1.6 0 2.6 1.1 2.6 2.8v5h-2.7v-4.1c0-.8-.4-1.3-1.1-1.3-.6 0-1.1.5-1.1 1.3v4.1h-2.7V12.2zM55.7 20.1V17h-.9v-2.2h.9v-1.9h2.7v1.9h1.8V17h-1.8v2.6c0 .5.2.8.7.8.4 0 .7-.1 1-.3v2.1c-.5.3-1.1.4-1.9.4-1.5.1-2.5-.6-2.5-2.5zM61.4 12.2H64v3.7c.5-.6 1.2-1.2 2.3-1.2 1.6 0 2.6 1.1 2.6 2.8v5h-2.7v-4.1c0-.8-.4-1.3-1.1-1.3-.6 0-1.1.5-1.1 1.3v4.1h-2.7V12.2zM70 18.7c0-2.3 1.6-4 3.9-4 2.6 0 3.9 1.9 3.9 4.2v.6h-5.1c.2.8.8 1.3 1.7 1.3.6 0 1.1-.2 1.7-.8l1.5 1.2c-.7.9-1.8 1.6-3.3 1.6-2.6-.1-4.3-1.7-4.3-4.1zm5.2-.6c-.1-.8-.6-1.4-1.3-1.4-.7 0-1.2.6-1.3 1.4h2.6zM82.5 18.7c0-2.5 1.6-4 3.4-4 1.2 0 1.8.5 2.3 1.1v-3.6h2.7v10.3h-2.7v-1c-.5.6-1.2 1.2-2.3 1.2-1.8 0-3.4-1.5-3.4-4zm5.7 0c0-1-.7-1.8-1.6-1.8-.9 0-1.6.7-1.6 1.7s.7 1.7 1.6 1.7c1 .1 1.6-.6 1.6-1.6zM92.3 14.9H95v1.5c.4-1 1.1-1.7 2.4-1.7v2.8h-.2c-1.4 0-2.2.8-2.2 2.6v2.4h-2.7v-7.6zM97.7 20.3c0-1.6 1.2-2.4 3-2.4.7 0 1.4.1 1.8.3v-.1c0-.8-.5-1.2-1.5-1.2-.8 0-1.4.2-2.1.4l-.6-1.9c.9-.4 1.8-.6 3.1-.6 1.4 0 2.3.3 2.9.9.6.6.8 1.4.8 2.4v4.4h-2.7v-.8c-.5.6-1.2 1-2.2 1-1.4 0-2.5-.8-2.5-2.4zm4.8-.6v-.4c-.3-.1-.6-.2-1-.2-.8 0-1.2.4-1.2.9s.4.8.9.8c.8.2 1.3-.3 1.3-1.1zM106.5 14.9h2.7v1c.5-.6 1.2-1.2 2.3-1.2 1 0 1.8.5 2.2 1.2.7-.8 1.4-1.2 2.6-1.2 1.6 0 2.6 1 2.6 2.8v5h-2.7v-4.2c0-.8-.4-1.3-1-1.3s-1.1.4-1.1 1.3v4.2h-2.7v-4.2c0-.8-.4-1.3-1-1.3s-1.1.4-1.1 1.3v4.2h-2.7v-7.6zM119.8 20.3c0-1.6 1.2-2.4 3-2.4.7 0 1.4.1 1.8.3v-.1c0-.8-.5-1.2-1.5-1.2-.8 0-1.4.2-2.1.4l-.6-1.9c.9-.4 1.8-.6 3.1-.6 1.4 0 2.3.3 2.9.9.6.6.8 1.4.8 2.4v4.4h-2.7v-.8c-.5.6-1.2 1-2.2 1-1.3 0-2.5-.8-2.5-2.4zm4.9-.6v-.4c-.3-.1-.6-.2-1-.2-.8 0-1.2.4-1.2.9s.4.8.9.8c.8.2 1.3-.3 1.3-1.1zM128.6 19.8h2.8v2.8h-2.8v-2.8z"/></svg>