<?xml version="1.0" encoding="utf-8"?>
<!-- Generator: Adobe Illustrator 25.4.1, SVG Export Plug-In . SVG Version: 6.00 Build 0)  -->
<svg version="1.1" id="Layer_1" xmlns="http://www.w3.org/2000/svg" xmlns:xlink="http://www.w3.org/1999/xlink" x="0px" y="0px"
	 viewBox="0 0 728 90" style="enable-background:new 0 0 728 90;" xml:space="preserve">
<style type="text/css">
	.st0{fill:#490A09;}
</style>
<path class="st0" d="M517.4,31.1h21.2v6.2h-13.9v4h12.6V47h-12.6v4.2h14.1v6.2h-21.4V31.1z"/>
<path class="st0" d="M541.9,50.4V37.1h7.1v11c0,2.2,1.2,3.4,2.9,3.4c1.7,0,3-1.2,3-3.4v-11h7.1v20.3h-7.1v-2.8
	c-1.3,1.7-3.2,3.2-6.1,3.2C544.5,57.9,541.9,55,541.9,50.4z"/>
<path class="st0" d="M565.9,37.1h7.1v4.1c1.2-2.8,3-4.6,6.4-4.4v7.5h-0.6c-3.7,0-5.8,2.1-5.8,6.8v6.3h-7.1V37.1z"/>
<path class="st0" d="M580.8,47.3L580.8,47.3c0-5.9,4.7-10.7,11.3-10.7c6.5,0,11.2,4.8,11.2,10.6v0.1c0,5.8-4.7,10.6-11.3,10.6
	C585.5,57.9,580.8,53.1,580.8,47.3z M596.4,47.3L596.4,47.3c0-2.6-1.8-4.7-4.3-4.7c-2.6,0-4.2,2.1-4.2,4.5v0.1
	c0,2.5,1.8,4.6,4.3,4.6C594.7,51.8,596.4,49.8,596.4,47.3z"/>
<path class="st0" d="M606.3,37.1h7.1v2.7c1.4-1.7,3.1-3.2,6.2-3.2c4.9,0,9,4,9,10.5v0.1c0,6.6-4.2,10.6-9,10.6
	c-3.1,0-4.9-1.4-6.2-2.9v8.5h-7.1V37.1z M621.6,47.3L621.6,47.3c0-2.7-1.8-4.7-4.2-4.7c-2.3,0-4.1,1.9-4.1,4.6v0.1
	c0,2.7,1.8,4.6,4.1,4.6C619.8,51.9,621.6,50,621.6,47.3z"/>
<path class="st0" d="M631.8,30h7.1v9.9c1.3-1.7,3.2-3.2,6.1-3.2c4.3,0,6.9,2.9,6.9,7.5v13.3h-7.1v-11c0-2.2-1.2-3.4-2.9-3.4
	c-1.7,0-3,1.2-3,3.4v11h-7.1V30z"/>
<path class="st0" d="M655.6,30h7.4v5.3h-7.4V30z M655.8,37.1h7.1v20.3h-7.1V37.1z"/>
<path class="st0" d="M667,30h7.1v27.4H667V30z"/>
<path class="st0" d="M677.3,47.3L677.3,47.3c0-6,4.2-10.7,10.3-10.7c7,0,10.3,5.2,10.3,11.1c0,0.5,0,1,0,1.5h-13.6
	c0.6,2.2,2.2,3.3,4.4,3.3c1.7,0,3-0.6,4.5-2.1l3.9,3.3c-2,2.5-4.8,4.1-8.8,4.1C681.9,57.9,677.3,53.6,677.3,47.3z M691.2,45.6
	c-0.3-2.3-1.6-3.7-3.5-3.7c-1.9,0-3.2,1.5-3.5,3.7H691.2z"/>
<path class="st0" d="M700.5,50.1h7.4v7.3h-7.4V50.1z"/>
</svg>
