<?xml version="1.0" encoding="utf-8"?>
<!-- Generator: Adobe Illustrator 25.4.1, SVG Export Plug-In . SVG Version: 6.00 Build 0)  -->
<svg version="1.1" id="Layer_1" xmlns="http://www.w3.org/2000/svg" xmlns:xlink="http://www.w3.org/1999/xlink" x="0px" y="0px"
	 viewBox="0 0 728 90" style="enable-background:new 0 0 728 90;" xml:space="preserve">
<style type="text/css">
	.st0{fill:#490A09;}
</style>
<g>
	<path class="st0" d="M68.6,30.8h7.7L80.9,46l5.1-15.3h6.3L97.3,46l4.6-15.2h7.6l-8.8,26.5h-6.4L89,42.1l-5.3,15.2h-6.4L68.6,30.8z"
		/>
	<path class="st0" d="M108.6,47L108.6,47c0-6,4.2-10.7,10.3-10.7c7,0,10.3,5.2,10.3,11.1c0,0.5,0,1,0,1.5h-13.6
		c0.6,2.2,2.2,3.3,4.4,3.3c1.7,0,3-0.6,4.5-2.1l3.9,3.3c-2,2.5-4.8,4.1-8.8,4.1C113.1,57.6,108.6,53.3,108.6,47z M122.4,45.3
		c-0.3-2.3-1.6-3.7-3.5-3.7c-1.9,0-3.2,1.5-3.5,3.7H122.4z"/>
	<path class="st0" d="M142.6,29.7h7.1v9.9c1.3-1.7,3.2-3.2,6.1-3.2c4.3,0,6.9,2.9,6.9,7.5v13.3h-7.1v-11c0-2.2-1.2-3.4-2.9-3.4
		c-1.7,0-3,1.2-3,3.4v11h-7.1V29.7z"/>
	<path class="st0" d="M165.4,51.3L165.4,51.3c0-4.3,3.2-6.5,8-6.5c1.9,0,3.7,0.4,4.9,0.8v-0.3c0-2.1-1.3-3.3-4.1-3.3
		c-2.1,0-3.8,0.4-5.6,1.1l-1.5-5c2.3-0.9,4.7-1.6,8.2-1.6c3.6,0,6.1,0.9,7.7,2.5c1.5,1.5,2.2,3.6,2.2,6.5v11.7h-7.1V55
		c-1.4,1.5-3.3,2.6-6,2.6C168.4,57.5,165.4,55.3,165.4,51.3z M178.4,49.7v-0.9c-0.7-0.3-1.7-0.5-2.8-0.5c-2.1,0-3.3,1-3.3,2.5v0.1
		c0,1.4,1.1,2.2,2.5,2.2C176.9,53.1,178.4,51.8,178.4,49.7z"/>
	<path class="st0" d="M186.4,36.8h7.5l3.9,11.9l3.9-11.9h7.4L201,57.2h-6.5L186.4,36.8z"/>
	<path class="st0" d="M209.5,47L209.5,47c0-6,4.2-10.7,10.3-10.7c7,0,10.3,5.2,10.3,11.1c0,0.5,0,1,0,1.5h-13.6
		c0.6,2.2,2.2,3.3,4.4,3.3c1.7,0,3-0.6,4.5-2.1l3.9,3.3c-2,2.5-4.8,4.1-8.8,4.1C214,57.6,209.5,53.3,209.5,47z M223.3,45.3
		c-0.3-2.3-1.6-3.7-3.5-3.7c-1.9,0-3.2,1.5-3.5,3.7H223.3z"/>
	<path class="st0" d="M242.9,61.5l2.2-5c1.1,0.7,2.3,1.1,3.1,1.1c0.7,0,1.2-0.2,1.7-0.8l-8-20h7.5l4.1,12.3l3.8-12.3h7.3l-7.4,19.9
		c-1.8,4.7-3.7,6.6-7.7,6.6C247,63.2,244.8,62.5,242.9,61.5z"/>
	<path class="st0" d="M265,47L265,47c0-5.9,4.7-10.7,11.3-10.7c6.5,0,11.2,4.8,11.2,10.6v0.1c0,5.8-4.7,10.6-11.3,10.6
		C269.7,57.6,265,52.8,265,47z M280.6,47L280.6,47c0-2.6-1.8-4.7-4.3-4.7c-2.6,0-4.2,2.1-4.2,4.5v0.1c0,2.5,1.8,4.6,4.3,4.6
		C278.9,51.5,280.6,49.5,280.6,47z"/>
	<path class="st0" d="M290.4,50.1V36.8h7.1v11c0,2.2,1.2,3.4,2.9,3.4c1.7,0,3-1.2,3-3.4v-11h7.1v20.3h-7.1v-2.8
		c-1.3,1.7-3.2,3.2-6.1,3.2C293,57.5,290.4,54.7,290.4,50.1z"/>
	<path class="st0" d="M314.4,36.8h7.1v4.1c1.2-2.8,3-4.6,6.4-4.4v7.5h-0.6c-3.7,0-5.8,2.1-5.8,6.8v6.3h-7.1V36.8z"/>
	<path class="st0" d="M347.7,37.2h-7.9v-6.4h23.1v6.4H355v19.9h-7.3V37.2z"/>
	<path class="st0" d="M364,30.8h8.2l6,16.7l6-16.7h8l-10.7,26.5h-6.8L364,30.8z"/>
	<path class="st0" d="M389.5,49.8h7.4v7.3h-7.4V49.8z"/>
</g>
</svg>
