<?xml version="1.0" encoding="utf-8"?>
<!-- Generator: Adobe Illustrator 25.4.1, SVG Export Plug-In . SVG Version: 6.00 Build 0)  -->
<svg version="1.1" id="Layer_1" xmlns="http://www.w3.org/2000/svg" xmlns:xlink="http://www.w3.org/1999/xlink" x="0px" y="0px"
	 viewBox="0 0 728 90" style="enable-background:new 0 0 728 90;" xml:space="preserve">
<style type="text/css">
	.st0{fill:#FFFFFF;}
</style>
<g>
	<path class="st0" d="M74.6,31.2h-6.9v-5.6h20.2v5.6H81v17.4h-6.4V31.2z"/>
	<path class="st0" d="M90.4,24.6h6.2v8.6c1.2-1.5,2.8-2.8,5.3-2.8c3.8,0,6.1,2.5,6.1,6.5v11.6h-6.2V39c0-1.9-1-3-2.5-3
		c-1.5,0-2.6,1.1-2.6,3v9.6h-6.2V24.6z"/>
	<path class="st0" d="M110.5,39.8L110.5,39.8c0-5.3,3.7-9.4,9-9.4c6.1,0,9,4.5,9,9.7c0,0.4,0,0.9,0,1.3h-11.9
		c0.5,1.9,1.9,2.9,3.8,2.9c1.5,0,2.7-0.6,3.9-1.8l3.5,2.9c-1.7,2.2-4.2,3.6-7.7,3.6C114.4,49.1,110.5,45.3,110.5,39.8z M122.6,38.3
		c-0.2-2-1.4-3.2-3.1-3.2c-1.6,0-2.8,1.3-3.1,3.2H122.6z"/>
	<path class="st0" d="M139,25.6h6.7l4,13.3l4.4-13.4h5.5l4.4,13.4l4-13.3h6.6l-7.7,23.2h-5.6l-4.6-13.3l-4.6,13.3h-5.6L139,25.6z"/>
	<path class="st0" d="M174.1,39.8L174.1,39.8c0-5.1,4.1-9.4,9.9-9.4c5.7,0,9.8,4.2,9.8,9.2v0.1c0,5.1-4.1,9.3-9.9,9.3
		C178.2,49.1,174.1,44.9,174.1,39.8z M187.6,39.8L187.6,39.8c0-2.2-1.6-4.1-3.8-4.1c-2.3,0-3.7,1.8-3.7,3.9v0.1c0,2.2,1.6,4,3.8,4
		C186.2,43.8,187.6,42,187.6,39.8z"/>
	<path class="st0" d="M196.4,30.8h6.2v3.6c1-2.4,2.7-4,5.6-3.9v6.6h-0.5c-3.3,0-5.1,1.9-5.1,6v5.5h-6.2V30.8z"/>
	<path class="st0" d="M210.6,24.6h6.2v24h-6.2V24.6z"/>
	<path class="st0" d="M219.6,39.8L219.6,39.8c0-5.9,3.6-9.4,7.8-9.4c2.7,0,4.3,1.2,5.5,2.6v-8.4h6.2v24h-6.2v-2.4
		c-1.2,1.5-2.8,2.8-5.4,2.8C223.3,49,219.6,45.5,219.6,39.8z M233,39.8L233,39.8c0-2.4-1.6-4.1-3.6-4.1s-3.6,1.6-3.6,4v0.1
		c0,2.4,1.6,4,3.6,4S233,42.1,233,39.8z"/>
	<path class="st0" d="M241.6,35.1c2.2-0.2,3.4-1.3,3.3-3.1h-2.5v-6.4h6.5v5.2c0,4.9-2.6,6.5-6.7,6.7L241.6,35.1z"/>
	<path class="st0" d="M250.3,46.4l2.3-3.8c2,1.3,4.3,2,6.1,2c1.1,0,1.6-0.3,1.6-1v-0.1c0-0.7-1-1-2.9-1.5c-3.5-0.9-6.3-2.1-6.3-5.7
		v-0.1c0-3.8,3-5.9,7.1-5.9c2.6,0,5.3,0.8,7.3,2.1l-2.1,3.9c-1.8-1-3.8-1.6-5.3-1.6c-1,0-1.4,0.4-1.4,0.9v0.1c0,0.7,1,1,2.9,1.6
		c3.5,1,6.3,2.2,6.3,5.7v0.1c0,3.9-2.9,6-7.3,6C255.7,49,252.8,48.2,250.3,46.4z"/>
	<path class="st0" d="M278,25.6h11.8c2.9,0,4.9,0.7,6.3,2.1c0.9,0.9,1.5,2.1,1.5,3.7v0.1c0,2.7-1.5,4.2-3.6,5.1
		c2.8,0.9,4.6,2.5,4.6,5.6v0.1c0,3.9-3.2,6.3-8.7,6.3H278V25.6z M288.2,34.8c1.9,0,3-0.7,3-2v-0.1c0-1.2-1-2-2.9-2h-4.1v4H288.2z
		 M289.2,43.5c1.9,0,3.1-0.8,3.1-2.1v-0.1c0-1.2-1-2.1-3.1-2.1h-4.9v4.2H289.2z"/>
	<path class="st0" d="M300.5,39.8L300.5,39.8c0-5.3,3.7-9.4,9-9.4c6.1,0,9,4.5,9,9.7c0,0.4,0,0.9,0,1.3h-11.9
		c0.5,1.9,1.9,2.9,3.8,2.9c1.5,0,2.7-0.6,3.9-1.8l3.5,2.9c-1.7,2.2-4.2,3.6-7.7,3.6C304.4,49.1,300.5,45.3,300.5,39.8z M312.6,38.3
		c-0.2-2-1.4-3.2-3.1-3.2c-1.6,0-2.8,1.3-3.1,3.2H312.6z"/>
	<path class="st0" d="M319.7,46.4l2.3-3.8c2,1.3,4.3,2,6.1,2c1.1,0,1.6-0.3,1.6-1v-0.1c0-0.7-1-1-2.9-1.5c-3.5-0.9-6.3-2.1-6.3-5.7
		v-0.1c0-3.8,3-5.9,7.1-5.9c2.6,0,5.3,0.8,7.3,2.1l-2.1,3.9c-1.8-1-3.8-1.6-5.3-1.6c-1,0-1.4,0.4-1.4,0.9v0.1c0,0.7,1,1,2.9,1.6
		c3.5,1,6.3,2.2,6.3,5.7v0.1c0,3.9-2.9,6-7.3,6C325.2,49,322.2,48.2,319.7,46.4z"/>
	<path class="st0" d="M338.8,43.1v-7.2h-2.1v-5h2.1v-4.5h6.2v4.5h4.1v5H345v6c0,1.2,0.6,1.8,1.7,1.8c0.8,0,1.6-0.2,2.4-0.6V48
		c-1.1,0.6-2.6,1-4.3,1C341,49,338.8,47.4,338.8,43.1z"/>
	<path class="st0" d="M367,31.2H360v-5.6h20.2v5.6h-6.9v17.4H367V31.2z"/>
	<path class="st0" d="M381.2,25.6h7.1l5.2,14.6l5.2-14.6h7l-9.3,23.2h-5.9L381.2,25.6z"/>
	<path class="st0" d="M416.9,24.6h6.2v24h-6.2V24.6z"/>
	<path class="st0" d="M426.7,24.6h6.5v4.6h-6.5V24.6z M426.8,30.8h6.2v17.8h-6.2V30.8z"/>
	<path class="st0" d="M435.2,30.8h6.6l3.4,10.4l3.4-10.4h6.5L448,48.8h-5.7L435.2,30.8z"/>
	<path class="st0" d="M455.3,39.8L455.3,39.8c0-5.3,3.7-9.4,9-9.4c6.1,0,9,4.5,9,9.7c0,0.4,0,0.9,0,1.3h-11.9
		c0.5,1.9,1.9,2.9,3.8,2.9c1.5,0,2.7-0.6,3.9-1.8l3.5,2.9c-1.7,2.2-4.2,3.6-7.7,3.6C459.3,49.1,455.3,45.3,455.3,39.8z M467.4,38.3
		c-0.2-2-1.4-3.2-3.1-3.2c-1.6,0-2.8,1.3-3.1,3.2H467.4z"/>
	<path class="st0" d="M474.6,46.4l2.3-3.8c2,1.3,4.3,2,6.1,2c1.1,0,1.6-0.3,1.6-1v-0.1c0-0.7-1-1-2.9-1.5c-3.5-0.9-6.3-2.1-6.3-5.7
		v-0.1c0-3.8,3-5.9,7.1-5.9c2.6,0,5.3,0.8,7.3,2.1l-2.1,3.9c-1.8-1-3.8-1.6-5.3-1.6c-1,0-1.4,0.4-1.4,0.9v0.1c0,0.7,1,1,2.9,1.6
		c3.5,1,6.3,2.2,6.3,5.7v0.1c0,3.9-2.9,6-7.3,6C480,49,477.1,48.2,474.6,46.4z"/>
	<path class="st0" d="M502,24.6h6.2v8.6c1.2-1.5,2.8-2.8,5.3-2.8c3.8,0,6,2.5,6,6.5v11.6h-6.2V39c0-1.9-1-3-2.5-3
		c-1.5,0-2.6,1.1-2.6,3v9.6H502V24.6z"/>
	<path class="st0" d="M522.1,39.8L522.1,39.8c0-5.3,3.7-9.4,9-9.4c6.1,0,9,4.5,9,9.7c0,0.4,0,0.9,0,1.3h-11.9
		c0.5,1.9,1.9,2.9,3.8,2.9c1.5,0,2.7-0.6,3.9-1.8l3.5,2.9c-1.7,2.2-4.2,3.6-7.7,3.6C526,49.1,522.1,45.3,522.1,39.8z M534.2,38.3
		c-0.2-2-1.4-3.2-3.1-3.2c-1.6,0-2.8,1.3-3.1,3.2H534.2z"/>
	<path class="st0" d="M542.7,30.8h6.2v3.6c1-2.4,2.7-4,5.6-3.9v6.6h-0.5c-3.3,0-5.1,1.9-5.1,6v5.5h-6.2V30.8z"/>
	<path class="st0" d="M555.7,39.8L555.7,39.8c0-5.3,3.7-9.4,9-9.4c6.1,0,9,4.5,9,9.7c0,0.4,0,0.9,0,1.3h-11.9
		c0.5,1.9,1.9,2.9,3.8,2.9c1.5,0,2.7-0.6,3.9-1.8l3.5,2.9c-1.7,2.2-4.2,3.6-7.7,3.6C559.7,49.1,555.7,45.3,555.7,39.8z M567.8,38.3
		c-0.2-2-1.4-3.2-3.1-3.2c-1.6,0-2.8,1.3-3.1,3.2H567.8z"/>
	<path class="st0" d="M576,42.2h6.5v6.4H576V42.2z"/>
</g>
</svg>
