<?xml version="1.0" encoding="utf-8"?>
<!-- Generator: Adobe Illustrator 25.4.1, SVG Export Plug-In . SVG Version: 6.00 Build 0)  -->
<svg version="1.1" id="Layer_1" xmlns="http://www.w3.org/2000/svg" xmlns:xlink="http://www.w3.org/1999/xlink" x="0px" y="0px"
	 viewBox="0 0 728 90" style="enable-background:new 0 0 728 90;" xml:space="preserve">
<style type="text/css">
	.st0{fill:#490A09;}
</style>
<path class="st0" d="M270.4,31.1h21.1v6.4h-13.8V42h12.4V48h-12.4v9.4h-7.3V31.1z"/>
<path class="st0" d="M294.4,37.1h7.1v4.1c1.2-2.8,3-4.6,6.4-4.4v7.5h-0.6c-3.7,0-5.8,2.1-5.8,6.8v6.3h-7.1V37.1z"/>
<path class="st0" d="M308.6,51.6L308.6,51.6c0-4.3,3.2-6.5,8-6.5c1.9,0,3.7,0.4,4.9,0.8v-0.3c0-2.1-1.3-3.3-4.1-3.3
	c-2.1,0-3.8,0.4-5.6,1.1l-1.5-5c2.3-0.9,4.7-1.6,8.2-1.6c3.6,0,6.1,0.9,7.7,2.5c1.5,1.5,2.2,3.6,2.2,6.5v11.7h-7.1v-2.1
	c-1.4,1.5-3.3,2.6-6,2.6C311.5,57.9,308.6,55.6,308.6,51.6z M321.5,50v-0.9c-0.7-0.3-1.7-0.5-2.8-0.5c-2.1,0-3.3,1-3.3,2.5v0.1
	c0,1.4,1.1,2.2,2.5,2.2C320,53.4,321.5,52.1,321.5,50z"/>
<path class="st0" d="M332.1,37.1h7.1v2.9c1.3-1.7,3.2-3.3,6.1-3.3c4.3,0,6.9,2.9,6.9,7.5v13.3h-7.1v-11c0-2.2-1.2-3.4-2.9-3.4
	c-1.7,0-3,1.2-3,3.4v11h-7.1V37.1z"/>
<path class="st0" d="M355.1,47.3L355.1,47.3c0-5.8,4.5-10.7,10.9-10.7c4.2,0,7,1.8,8.7,4.5l-4.9,3.6c-1-1.4-2.1-2.1-3.8-2.1
	c-2.3,0-4,2-4,4.5v0.1c0,2.6,1.7,4.6,4.1,4.6c1.7,0,2.8-0.8,3.9-2.1l4.8,3.5c-1.9,2.8-4.6,4.7-9.1,4.7
	C359.6,57.9,355.1,53.1,355.1,47.3z"/>
<path class="st0" d="M376,47.3L376,47.3c0-5.9,4.7-10.7,11.3-10.7c6.5,0,11.2,4.8,11.2,10.6v0.1c0,5.8-4.7,10.6-11.3,10.6
	C380.7,57.9,376,53.1,376,47.3z M391.5,47.3L391.5,47.3c0-2.6-1.8-4.7-4.3-4.7c-2.6,0-4.2,2.1-4.2,4.5v0.1c0,2.5,1.8,4.6,4.3,4.6
	C389.9,51.8,391.5,49.8,391.5,47.3z"/>
<path class="st0" d="M401.5,37.1h7.1v2.7c1.4-1.7,3.1-3.2,6.2-3.2c4.9,0,9,4,9,10.5v0.1c0,6.6-4.2,10.6-9,10.6
	c-3.1,0-4.9-1.4-6.2-2.9v8.5h-7.1V37.1z M416.8,47.3L416.8,47.3c0-2.7-1.8-4.7-4.2-4.7c-2.3,0-4.1,1.9-4.1,4.6v0.1
	c0,2.7,1.8,4.6,4.1,4.6C414.9,51.9,416.8,50,416.8,47.3z"/>
<path class="st0" d="M426.9,30h7.1v9.9c1.3-1.7,3.2-3.2,6.1-3.2c4.3,0,6.9,2.9,6.9,7.5v13.3h-7.1v-11c0-2.2-1.2-3.4-2.9-3.4
	c-1.7,0-3,1.2-3,3.4v11h-7.1V30z"/>
<path class="st0" d="M450.7,30h7.4v5.3h-7.4V30z M450.9,37.1h7.1v20.3h-7.1V37.1z"/>
<path class="st0" d="M462.2,30h7.1v27.4h-7.1V30z"/>
<path class="st0" d="M472.5,47.3L472.5,47.3c0-6,4.2-10.7,10.3-10.7c7,0,10.3,5.2,10.3,11.1c0,0.5,0,1,0,1.5h-13.6
	c0.6,2.2,2.2,3.3,4.4,3.3c1.7,0,3-0.6,4.5-2.1l3.9,3.3c-2,2.5-4.8,4.1-8.8,4.1C477,57.9,472.5,53.6,472.5,47.3z M486.3,45.6
	c-0.3-2.3-1.6-3.7-3.5-3.7c-1.9,0-3.2,1.5-3.5,3.7H486.3z"/>
<path class="st0" d="M495.6,50.1h7.4v7.3h-7.4V50.1z"/>
</svg>
