<?xml version="1.0" encoding="utf-8"?>
<!-- Generator: Adobe Illustrator 25.4.1, SVG Export Plug-In . SVG Version: 6.00 Build 0)  -->
<svg version="1.1" id="Layer_1" xmlns="http://www.w3.org/2000/svg" xmlns:xlink="http://www.w3.org/1999/xlink" x="0px" y="0px"
	 viewBox="0 0 728 90" style="enable-background:new 0 0 728 90;" xml:space="preserve">
<style type="text/css">
	.st0{fill:#490A09;}
</style>
<path class="st0" d="M68.1,31.1h7.3v26.3h-7.3V31.1z"/>
<path class="st0" d="M81.1,51.1v-8.3h-2.4v-5.8h2.4v-5.2h7.1v5.2h4.7v5.8h-4.7v6.9c0,1.4,0.6,2,2,2c0.9,0,1.8-0.3,2.7-0.7v5.6
	c-1.3,0.7-3,1.2-5,1.2C83.6,57.8,81.1,55.9,81.1,51.1z"/>
<path class="st0" d="M95,51.6L95,51.6c0-4.3,3.2-6.5,8-6.5c1.9,0,3.7,0.4,4.9,0.8v-0.3c0-2.1-1.3-3.3-4.1-3.3
	c-2.1,0-3.8,0.4-5.6,1.1l-1.5-5c2.3-0.9,4.7-1.6,8.2-1.6c3.6,0,6.1,0.9,7.7,2.5c1.5,1.5,2.2,3.6,2.2,6.5v11.7h-7.1v-2.1
	c-1.4,1.5-3.3,2.6-6,2.6C98,57.9,95,55.6,95,51.6z M107.9,50v-0.9c-0.7-0.3-1.7-0.5-2.8-0.5c-2.1,0-3.3,1-3.3,2.5v0.1
	c0,1.4,1.1,2.2,2.5,2.2C106.5,53.4,107.9,52.1,107.9,50z"/>
<path class="st0" d="M118.7,30h7.1v27.4h-7.1V30z"/>
<path class="st0" d="M129,47.3L129,47.3c0-5.9,4.7-10.7,11.3-10.7c6.5,0,11.2,4.8,11.2,10.6v0.1c0,5.8-4.7,10.6-11.3,10.6
	C133.7,57.9,129,53.1,129,47.3z M144.5,47.3L144.5,47.3c0-2.6-1.8-4.7-4.3-4.7c-2.6,0-4.2,2.1-4.2,4.5v0.1c0,2.5,1.8,4.6,4.3,4.6
	C142.9,51.8,144.5,49.8,144.5,47.3z"/>
<path class="st0" d="M154.5,37.1h7.1v2.7c1.4-1.7,3.1-3.2,6.2-3.2c4.9,0,9,4,9,10.5v0.1c0,6.6-4.2,10.6-9,10.6
	c-3.1,0-4.9-1.4-6.2-2.9v8.5h-7.1V37.1z M169.8,47.3L169.8,47.3c0-2.7-1.8-4.7-4.2-4.7c-2.3,0-4.1,1.9-4.1,4.6v0.1
	c0,2.7,1.8,4.6,4.1,4.6C168,51.9,169.8,50,169.8,47.3z"/>
<path class="st0" d="M179.9,30h7.1v9.9c1.3-1.7,3.2-3.2,6.1-3.2c4.3,0,6.9,2.9,6.9,7.5v13.3h-7.1v-11c0-2.2-1.2-3.4-2.9-3.4
	c-1.7,0-3,1.2-3,3.4v11h-7.1V30z"/>
<path class="st0" d="M203.8,30h7.4v5.3h-7.4V30z M203.9,37.1h7.1v20.3h-7.1V37.1z"/>
<path class="st0" d="M215.2,30h7.1v27.4h-7.1V30z"/>
<path class="st0" d="M225.5,47.3L225.5,47.3c0-6,4.2-10.7,10.3-10.7c7,0,10.3,5.2,10.3,11.1c0,0.5,0,1,0,1.5h-13.6
	c0.6,2.2,2.2,3.3,4.4,3.3c1.7,0,3-0.6,4.5-2.1l3.9,3.3c-2,2.5-4.8,4.1-8.8,4.1C230,57.9,225.5,53.6,225.5,47.3z M239.3,45.6
	c-0.3-2.3-1.6-3.7-3.5-3.7c-1.9,0-3.2,1.5-3.5,3.7H239.3z"/>
<path class="st0" d="M248.6,50.1h7.4v7.3h-7.4V50.1z"/>
</svg>
