<?xml version="1.0" encoding="utf-8"?>
<!-- Generator: Adobe Illustrator 25.4.1, SVG Export Plug-In . SVG Version: 6.00 Build 0)  -->
<svg version="1.1" id="Layer_1" xmlns="http://www.w3.org/2000/svg" xmlns:xlink="http://www.w3.org/1999/xlink" x="0px" y="0px"
	 viewBox="0 0 728 90" style="enable-background:new 0 0 728 90;" xml:space="preserve">
<style type="text/css">
	.st0{fill:#AB1F2D;}
	.st1{fill:#FFFFFF;}
</style>
<path class="st0" d="M615.5,48.6c-6.3,0-11.5,5.1-11.5,11.5v3.4c0,6.3,5.1,11.5,11.5,11.5h79.6c6.3,0,11.5-5.1,11.5-11.5v-3.4
	c0-6.3-5.1-11.5-11.5-11.5H615.5z"/>
<g>
	<path class="st1" d="M610.9,57.9h2.2l1.9,6.2l2.1-6.2h1.7l2.1,6.2l1.9-6.2h2.1l-3.1,9.2h-1.8l-2.1-6l-2.1,6H614L610.9,57.9z"/>
	<path class="st1" d="M628.2,57.9h1.9l3.9,9.2h-2.1L631,65h-3.9l-0.8,2.1h-2.1L628.2,57.9z M630.3,63.2l-1.2-3l-1.2,3H630.3z"/>
	<path class="st1" d="M636.3,59.8h-2.8v-1.9h7.6v1.9h-2.8v7.3h-2V59.8z"/>
	<path class="st1" d="M641.9,62.5L641.9,62.5c0-2.6,2-4.8,4.8-4.8c1.7,0,2.8,0.6,3.6,1.4l-1.3,1.5c-0.7-0.6-1.4-1-2.3-1
		c-1.5,0-2.7,1.3-2.7,2.9v0c0,1.6,1.1,2.9,2.7,2.9c1,0,1.7-0.4,2.4-1.1l1.3,1.3c-0.9,1-2,1.6-3.8,1.6
		C643.9,67.2,641.9,65.2,641.9,62.5z"/>
	<path class="st1" d="M652,57.9h2v3.6h3.7v-3.6h2v9.2h-2v-3.7H654v3.7h-2V57.9z"/>
	<path class="st1" d="M665.8,57.9h1.9l4.3,5.6v-5.6h2v9.2h-1.7l-4.4-5.8v5.8h-2V57.9z"/>
	<path class="st1" d="M675.8,62.5L675.8,62.5c0-2.6,2.1-4.8,4.9-4.8c2.8,0,4.9,2.1,4.9,4.7v0c0,2.6-2.1,4.7-4.9,4.7
		C677.8,67.2,675.8,65.1,675.8,62.5z M683.4,62.5L683.4,62.5c0-1.6-1.2-2.9-2.8-2.9c-1.6,0-2.7,1.3-2.7,2.9v0c0,1.6,1.2,2.9,2.8,2.9
		C682.3,65.4,683.4,64.1,683.4,62.5z"/>
	<path class="st1" d="M686.1,57.9h2.2l1.9,6.2l2.1-6.2h1.7l2.1,6.2l1.9-6.2h2.1l-3.1,9.2h-1.8l-2.1-6l-2.1,6h-1.8L686.1,57.9z"/>
</g>
</svg>
