<?xml version="1.0" encoding="utf-8"?>
<!-- Generator: Adobe Illustrator 25.4.1, SVG Export Plug-In . SVG Version: 6.00 Build 0)  -->
<svg version="1.1" id="Layer_1" xmlns="http://www.w3.org/2000/svg" xmlns:xlink="http://www.w3.org/1999/xlink" x="0px" y="0px"
	 viewBox="0 0 728 90" style="enable-background:new 0 0 728 90;" xml:space="preserve">
<style type="text/css">
	.st0{clip-path:url(#SVGID_00000031193971708581690210000002447570681185383081_);fill:#AC1F2D;}
	.st1{clip-path:url(#SVGID_00000031193971708581690210000002447570681185383081_);fill:#FFFFFF;}
</style>
<g>
	<defs>
		<rect id="SVGID_1_" x="9" y="9" width="42.3" height="40"/>
	</defs>
	<clipPath id="SVGID_00000124857504796775125900000012383121869953167787_">
		<use xlink:href="#SVGID_1_"  style="overflow:visible;"/>
	</clipPath>
	<path style="clip-path:url(#SVGID_00000124857504796775125900000012383121869953167787_);fill:#AC1F2D;" d="M48.6,29.3
		c0,10.2-8.2,18.4-18.4,18.4c-10.2,0-18.4-8.2-18.4-18.4S20,10.9,30.1,10.9C40.3,10.9,48.6,19.2,48.6,29.3"/>
	<path style="clip-path:url(#SVGID_00000124857504796775125900000012383121869953167787_);fill:#FFFFFF;" d="M37.5,26v2.1h2.4
		L37,32.5h7v-2.2h-3l2.7-4.4H37.5z M23.8,23.3l-2.2,5l-2.2-5h-3.1v9.2h2.6v-4.9l2.2,4.9h1.1l2.2-5v5h2.6v-9.2H23.8z M33.9,23.3v3.2
		h-3.2v-3.2h-2.8v9.2h2.8v-3.6h3.2v3.6h2.8v-9.2H33.9z"/>
	<path style="clip-path:url(#SVGID_00000124857504796775125900000012383121869953167787_);fill:#FFFFFF;" d="M37.3,36.2h2.5v-0.7
		h-1.6v-0.5h1.5v-0.7h-1.5v-0.5h1.6v-0.7h-2.4V36.2z M35.3,36.3c0.7,0,1.1-0.3,1.3-0.7L36,35.2c-0.2,0.2-0.4,0.4-0.7,0.4
		c-0.4,0-0.7-0.4-0.7-0.8v0c0-0.4,0.3-0.8,0.7-0.8c0.3,0,0.5,0.1,0.7,0.4l0.6-0.5c-0.3-0.4-0.7-0.6-1.3-0.6c-0.9,0-1.6,0.7-1.6,1.6
		v0C33.8,35.6,34.5,36.3,35.3,36.3 M32.2,36.2h0.8v-3h-0.8V36.2z M29.9,35.5c-0.5,0-0.8-0.4-0.8-0.8v0c0-0.4,0.3-0.8,0.8-0.8
		c0.5,0,0.8,0.4,0.8,0.8v0C30.7,35.2,30.3,35.5,29.9,35.5 M29.9,36.3c0.9,0,1.6-0.7,1.6-1.6v0c0-0.9-0.7-1.6-1.6-1.6
		s-1.6,0.7-1.6,1.6v0C28.2,35.6,28.9,36.3,29.9,36.3 M24.8,36.2h0.8v-1.2h1.1v1.2h0.8v-3h-0.8v1.1h-1.1v-1.1h-0.8V36.2z M22.8,36.3
		c0.7,0,1.1-0.3,1.3-0.7l-0.6-0.4c-0.2,0.2-0.4,0.4-0.7,0.4c-0.4,0-0.7-0.4-0.7-0.8v0c0-0.4,0.3-0.8,0.7-0.8c0.3,0,0.5,0.1,0.7,0.4
		l0.6-0.5c-0.3-0.4-0.7-0.6-1.3-0.6c-0.9,0-1.6,0.7-1.6,1.6v0C21.3,35.6,22,36.3,22.8,36.3"/>
</g>
</svg>
