<?xml version="1.0" encoding="utf-8"?>
<!-- Generator: Adobe Illustrator 25.4.1, SVG Export Plug-In . SVG Version: 6.00 Build 0)  -->
<svg version="1.1" id="Layer_1" xmlns="http://www.w3.org/2000/svg" xmlns:xlink="http://www.w3.org/1999/xlink" x="0px" y="0px"
	 viewBox="0 0 300 250" style="enable-background:new 0 0 300 250;" xml:space="preserve">
<style type="text/css">
	.st0{fill:#461211;}
</style>
<g>
	<path class="st0" d="M18.4,76.4h8L32.9,87l6.5-10.6h8v27.3h-7.5V88l-7,10.7h-0.2l-6.9-10.6v15.6h-7.4V76.4z"/>
	<path class="st0" d="M51.6,96.4V82.6h7.4V94c0,2.3,1.2,3.6,3,3.6c1.8,0,3.1-1.2,3.1-3.6V82.6h7.4v21.1h-7.4v-2.9
		c-1.4,1.8-3.3,3.4-6.3,3.4C54.3,104.2,51.6,101.2,51.6,96.4z"/>
	<path class="st0" d="M76.5,82.6h7.4v4.3c1.2-2.9,3.2-4.8,6.7-4.6v7.8H90c-3.9,0-6,2.2-6,7.1v6.6h-7.4V82.6z"/>
	<path class="st0" d="M92.1,93.3L92.1,93.3c0-6.9,4.3-11.1,9.3-11.1c3.2,0,5.1,1.4,6.5,3v-9.9h7.4v28.5h-7.4v-2.8
		c-1.4,1.8-3.3,3.3-6.4,3.3C96.4,104.2,92.1,100,92.1,93.3z M108,93.2L108,93.2c0-2.8-1.9-4.8-4.3-4.8c-2.4,0-4.3,2-4.3,4.8v0.1
		c0,2.8,2,4.8,4.3,4.8C106.1,98,108,96,108,93.2z"/>
	<path class="st0" d="M118.4,93.3L118.4,93.3c0-6.2,4.4-11.1,10.7-11.1c7.3,0,10.7,5.3,10.7,11.5c0,0.5,0,1,0,1.5h-14.1
		c0.6,2.3,2.3,3.5,4.6,3.5c1.8,0,3.2-0.7,4.7-2.1l4.1,3.4c-2,2.6-5,4.3-9.2,4.3C123.1,104.2,118.4,99.8,118.4,93.3z M132.8,91.4
		c-0.3-2.3-1.6-3.8-3.7-3.8c-2,0-3.3,1.5-3.7,3.8H132.8z"/>
	<path class="st0" d="M142.9,82.6h7.4v4.3c1.2-2.9,3.2-4.8,6.7-4.6v7.8h-0.6c-3.9,0-6,2.2-6,7.1v6.6h-7.4V82.6z"/>
	<path class="st0" d="M158,101.1l2.8-4.5c2.4,1.6,5.1,2.4,7.3,2.4c1.3,0,1.9-0.4,1.9-1.1v-0.1c0-0.8-1.2-1.2-3.4-1.8
		c-4.2-1.1-7.5-2.5-7.5-6.8v-0.1c0-4.5,3.6-7,8.5-7c3.1,0,6.3,0.9,8.7,2.5l-2.5,4.7c-2.2-1.2-4.6-2-6.2-2c-1.1,0-1.7,0.4-1.7,1v0.1
		c0,0.8,1.2,1.2,3.4,1.9c4.2,1.2,7.5,2.6,7.5,6.7v0.1c0,4.6-3.5,7.1-8.6,7.1C164.4,104.2,160.9,103.2,158,101.1z"/>
</g>
<g>
	<path class="st0" d="M19.2,132.3v-8.6h-2.5v-6h2.5v-5.3h7.4v5.3h4.9v6h-4.9v7.1c0,1.5,0.7,2.1,2,2.1c1,0,1.9-0.3,2.8-0.7v5.8
		c-1.3,0.7-3.1,1.2-5.2,1.2C21.9,139.3,19.2,137.3,19.2,132.3z"/>
	<path class="st0" d="M33.3,128.4L33.3,128.4c0-6.1,4.9-11.1,11.7-11.1c6.8,0,11.6,5,11.6,11v0.1c0,6-4.9,11-11.7,11
		C38.2,139.4,33.3,134.4,33.3,128.4z M49.5,128.4L49.5,128.4c0-2.7-1.9-4.8-4.5-4.8c-2.7,0-4.4,2.1-4.4,4.7v0.1
		c0,2.6,1.9,4.8,4.5,4.8C47.7,133.1,49.5,130.9,49.5,128.4z"/>
	<path class="st0" d="M69,136.2l2.8-4.5c2.4,1.6,5.1,2.4,7.3,2.4c1.3,0,1.9-0.4,1.9-1.1v-0.1c0-0.8-1.2-1.2-3.4-1.8
		c-4.2-1.1-7.5-2.5-7.5-6.7v-0.1c0-4.5,3.6-7,8.5-7c3.1,0,6.3,0.9,8.7,2.5l-2.5,4.7c-2.2-1.2-4.6-2-6.2-2c-1.1,0-1.7,0.4-1.7,1v0.1
		c0,0.8,1.2,1.2,3.4,1.9c4.2,1.2,7.5,2.6,7.5,6.7v0.1c0,4.6-3.5,7.1-8.6,7.1C75.4,139.3,71.9,138.3,69,136.2z"/>
	<path class="st0" d="M89.8,128.4L89.8,128.4c0-6.1,4.9-11.1,11.7-11.1c6.8,0,11.6,5,11.6,11v0.1c0,6-4.9,11-11.7,11
		C94.7,139.4,89.8,134.4,89.8,128.4z M105.9,128.4L105.9,128.4c0-2.7-1.9-4.8-4.5-4.8c-2.7,0-4.4,2.1-4.4,4.7v0.1
		c0,2.6,1.9,4.8,4.5,4.8C104.2,133.1,105.9,130.9,105.9,128.4z"/>
	<path class="st0" d="M116.4,110.4h7.4v28.5h-7.4V110.4z"/>
	<path class="st0" d="M126.4,117.7h7.8l4.1,12.3l4.1-12.3h7.7l-8.4,21.3h-6.8L126.4,117.7z"/>
	<path class="st0" d="M150.2,128.4L150.2,128.4c0-6.2,4.4-11.1,10.7-11.1c7.3,0,10.7,5.3,10.7,11.5c0,0.5,0,1,0,1.5h-14.1
		c0.6,2.3,2.3,3.5,4.6,3.5c1.8,0,3.2-0.7,4.7-2.1l4.1,3.4c-2,2.6-5,4.3-9.2,4.3C154.9,139.4,150.2,135,150.2,128.4z M164.6,126.6
		c-0.3-2.3-1.6-3.8-3.7-3.8c-2,0-3.3,1.5-3.7,3.8H164.6z"/>
	<path class="st0" d="M174.2,131.2h7.7v7.6h-7.7V131.2z"/>
</g>
</svg>
