<?xml version="1.0" encoding="utf-8"?>
<!-- Generator: Adobe Illustrator 25.4.1, SVG Export Plug-In . SVG Version: 6.00 Build 0)  -->
<svg version="1.1" id="Layer_1" xmlns="http://www.w3.org/2000/svg" xmlns:xlink="http://www.w3.org/1999/xlink" x="0px" y="0px"
	 viewBox="0 0 300 250" style="enable-background:new 0 0 300 250;" xml:space="preserve">
<style type="text/css">
	.st0{fill:#461211;}
</style>
<path class="st0" d="M40.1,123.9l0.2-1.6l3.2-0.4l3-20.4l-13.1,22.4h-1.1l-5.1-22.2l-4.8,20.1l3.6,0.5l-0.3,1.6h-9l0.3-1.6l3.6-0.5
	l5.2-22.1l-3.4-0.4l0.3-1.6h7.2l4.5,21.2l12.5-21.2h6.8l-0.2,1.6l-3.7,0.5l-1.7,11.9l-1.3,10.1l3.5,0.4l-0.2,1.6h-7H40.1z
	 M65.6,122.4c0-0.5,0-1.1,0.3-2.4c-3,2.8-5.4,4.4-7.8,4.4c-1.4,0-2.7-0.7-2.7-2.8c0-1.4,0.5-3.4,0.8-5l1.8-8.4l-3.9-0.2l0.2-1.2
	l6.7-2l0.5,0.4l-2.5,11c-0.4,1.6-0.6,2.9-0.6,3.7c0,1.1,0.5,1.7,1.5,1.7c1.6,0,3.3-1.1,6.2-3.4l1.1-5.1c0.5-2.5,1-5,1.4-7.5l2.5-0.8
	l0.5,0.4L69,118.6c-0.2,1-0.4,1.8-0.4,2.3c0,0.5,0.4,0.9,0.9,0.9c1.1,0,2.2-1,3.9-2.8l0.9,0.7c-1.8,2.3-3.9,4.8-6.6,4.8
	C66.6,124.4,65.6,123.7,65.6,122.4z M80.2,108.2l-3.9-0.2l0.2-1.1l6.4-2l0.5,0.4l-0.8,5.2c1.6-2.9,3.8-5.6,5.9-5.6
	c1.1,0,2,0.3,2.6,1.2c0,1.2-0.7,2.1-2,2.1c-0.7,0-1.5-0.4-2.3-1c-1.9,1.5-3.4,3.7-4.8,6.4l-0.5,2.1c-0.6,2.7-1.1,5.4-1.6,8.2
	l-2.5,0.3l-0.4-0.3L80.2,108.2z M102.8,120.9c0,0.5,0.4,0.9,0.9,0.9c1,0,2.5-1.2,3.9-2.8l0.9,0.7c-1.5,2.3-3.9,4.8-6.6,4.8
	c-1.2,0-2.1-0.7-2.1-2c0-0.5,0-1.2,0.3-2.7c-2.3,2.8-5.1,4.6-7.2,4.6c-1.9,0-3.5-1.4-3.5-4.9c0-6.4,6.5-14.6,11.8-14.6
	c0.8,0,1.4,0.2,2,0.6l1.5-7.2l-4-0.3l0.2-1.1l6.6-2l0.5,0.3l-4.7,23.3C102.9,119.6,102.8,120.4,102.8,120.9z M102.3,108.4
	c-0.8-0.7-1.6-0.9-2.4-0.9c-1.7,0-3.4,0.9-4.8,2.5c-1.8,2-3,4.9-3,8.1c0,2.6,1.1,3.7,2.5,3.7c1.4,0,3.1-1,5.8-4.1L102.3,108.4z
	 M110,117.1c0-6.3,4.7-12.3,10.1-12.3c2.5,0,3.9,1.3,3.9,3.6c0,2.5-2.4,6-11.4,8.6c0.2,3.4,1.7,4.7,4,4.7c2.5,0,4.2-1.5,5.3-2.8
	l0.9,0.7c-1.6,2.7-4.1,4.8-7,4.8C112.5,124.4,110,122.1,110,117.1z M121.5,108.8c0-1.4-0.9-2.3-2.2-2.3c-2.4,0-6.3,4.1-6.6,9
	C119.2,113.6,121.5,111,121.5,108.8z M130,108.2l-3.9-0.2l0.2-1.1l6.4-2l0.5,0.4l-0.8,5.2c1.6-2.9,3.8-5.6,5.9-5.6
	c1.1,0,2,0.3,2.6,1.2c0,1.2-0.7,2.1-2,2.1c-0.7,0-1.5-0.4-2.3-1c-1.9,1.5-3.4,3.7-4.8,6.4l-0.5,2.1c-0.6,2.7-1.1,5.4-1.6,8.2
	l-2.5,0.3l-0.4-0.3L130,108.2z M153.4,97.7h10.3l-0.3,1.6l-3.3,0.4l-2.3,12.1c-0.6,3.4-1.2,6.7-1.8,10.1l3.5,0.4l-0.3,1.6H149
	l0.3-1.6l3.4-0.4l2.3-12.1c0.6-3.4,1.2-6.7,1.8-10.1l-3.6-0.4L153.4,97.7z M164.9,124.2l-0.4-0.3l3.3-15.7l-3.9-0.2l0.2-1.1l6.6-2
	l0.5,0.4l-0.8,4c2.5-2.4,5.8-4.4,8.1-4.4c1.6,0,2.5,0.9,2.5,2.7c0,1.2-0.4,2.5-0.7,3.8l-1.8,7.2c-0.3,1.1-0.5,1.9-0.5,2.3
	c0,0.5,0.3,0.8,0.8,0.8c1,0,2.5-1.1,3.9-2.8l0.9,0.7c-1.5,2.3-4.1,4.8-6.7,4.8c-1.2,0-2-0.7-2-1.6c0-0.9,0.2-1.6,0.6-3.2l1.7-6.9
	c0.3-1.3,0.6-2.6,0.6-3.4c0-1.4-0.5-1.8-1.4-1.8c-1.4,0-3.6,1.2-6.5,3.5l-1,4.7c-0.6,2.7-1.1,5.4-1.6,8.2L164.9,124.2z M185.9,122
	c0-1.5,1.3-2.7,2.8-2.7c1.3,0,2.2,1,2.2,2.2c0,1.5-1.2,2.7-2.7,2.7C186.9,124.3,185.9,123.3,185.9,122z M195.6,122
	c0-1.5,1.3-2.7,2.8-2.7c1.3,0,2.2,1,2.2,2.2c0,1.5-1.2,2.7-2.7,2.7C196.6,124.3,195.6,123.3,195.6,122z M205.4,122
	c0-1.5,1.3-2.7,2.8-2.7c1.3,0,2.2,1,2.2,2.2c0,1.5-1.2,2.7-2.7,2.7C206.4,124.3,205.4,123.3,205.4,122z"/>
</svg>
