<?xml version="1.0" encoding="utf-8"?>
<!-- Generator: Adobe Illustrator 25.4.1, SVG Export Plug-In . SVG Version: 6.00 Build 0)  -->
<svg version="1.1" id="Layer_1" xmlns="http://www.w3.org/2000/svg" xmlns:xlink="http://www.w3.org/1999/xlink" x="0px" y="0px"
	 viewBox="0 0 300 250" style="enable-background:new 0 0 300 250;" xml:space="preserve">
<style type="text/css">
	.st0{fill:#461211;}
</style>
<g>
	<path class="st0" d="M18.4,137.3L18.4,137.3c0-7.9,6.3-14.3,14.7-14.3s14.7,6.3,14.7,14.1v0.1c0,7.8-6.3,14.2-14.7,14.2
		S18.4,145.1,18.4,137.3z M40.1,137.3L40.1,137.3c0-4-2.8-7.5-7-7.5c-4.1,0-6.9,3.4-6.9,7.3v0.1c0,3.9,2.8,7.4,7,7.4
		C37.3,144.6,40.1,141.2,40.1,137.3z"/>
	<path class="st0" d="M51.4,129.7h7.4v3c1.4-1.8,3.3-3.4,6.3-3.4c4.5,0,7.2,3,7.2,7.8v13.8h-7.4v-11.4c0-2.3-1.2-3.6-3-3.6
		c-1.8,0-3.1,1.2-3.1,3.6v11.4h-7.4V129.7z"/>
	<path class="st0" d="M76.2,122.4h7.4v28.5h-7.4V122.4z"/>
	<path class="st0" d="M87.3,155.4l2.3-5.2c1.2,0.7,2.4,1.1,3.2,1.1c0.7,0,1.2-0.2,1.7-0.9l-8.3-20.7H94l4.2,12.7l4-12.7h7.6
		l-7.7,20.6c-1.8,4.9-3.8,6.9-8,6.9C91.4,157.2,89.2,156.5,87.3,155.4z"/>
	<path class="st0" d="M122.2,140.4L122.2,140.4c0-6.1,4.9-11.1,11.7-11.1c6.8,0,11.6,5,11.6,11v0.1c0,6-4.9,11-11.7,11
		C127,151.4,122.2,146.4,122.2,140.4z M138.3,140.4L138.3,140.4c0-2.7-1.9-4.8-4.5-4.8c-2.7,0-4.4,2.1-4.4,4.7v0.1
		c0,2.6,1.9,4.8,4.5,4.8C136.6,145.1,138.3,142.9,138.3,140.4z"/>
	<path class="st0" d="M148.6,129.7h7.4v3c1.4-1.8,3.3-3.4,6.3-3.4c4.5,0,7.2,3,7.2,7.8v13.8h-7.4v-11.4c0-2.3-1.2-3.6-3-3.6
		c-1.8,0-3.1,1.2-3.1,3.6v11.4h-7.4V129.7z"/>
</g>
<g>
	<path class="st0" d="M19.4,158.7h8l6.5,10.6l6.5-10.6h8V186h-7.5v-15.7l-7,10.7h-0.2l-6.9-10.6V186h-7.4V158.7z"/>
	<path class="st0" d="M53.2,158.7h7.6v10.2h9.7v-10.2h7.6V186h-7.6v-10.4h-9.7V186h-7.6V158.7z"/>
	<path class="st0" d="M81.7,181.1l9.8-10.3h-9.4v-5.9h19.2v4.9l-9.8,10.3h9.8v5.9H81.7V181.1z"/>
	<path class="st0" d="M114.8,172.4L114.8,172.4c0-8,6.1-14.3,14.4-14.3c5.6,0,9.2,2.3,11.6,5.7l-5.7,4.4c-1.6-2-3.4-3.2-6-3.2
		c-3.8,0-6.5,3.2-6.5,7.2v0.1c0,4.1,2.7,7.3,6.5,7.3c2.8,0,4.5-1.3,6.2-3.3l5.7,4.1c-2.6,3.5-6,6.2-12.1,6.2
		C121,186.6,114.8,180.6,114.8,172.4z"/>
	<path class="st0" d="M143.7,157.5h7.4v10.3c1.4-1.8,3.3-3.4,6.3-3.4c4.5,0,7.2,3,7.2,7.8V186h-7.4v-11.4c0-2.3-1.2-3.6-3-3.6
		c-1.8,0-3.1,1.2-3.1,3.6V186h-7.4V157.5z"/>
	<path class="st0" d="M167.6,175.5L167.6,175.5c0-6.1,4.9-11.1,11.7-11.1c6.7,0,11.6,5,11.6,11v0.1c0,6-4.9,11-11.7,11
		C172.5,186.5,167.6,181.6,167.6,175.5z M183.7,175.5L183.7,175.5c0-2.7-1.9-4.8-4.5-4.8c-2.7,0-4.4,2.1-4.4,4.7v0.1
		c0,2.6,1.9,4.8,4.5,4.8C182,180.2,183.7,178.1,183.7,175.5z"/>
	<path class="st0" d="M194.1,157.5h7.7v5.5h-7.7V157.5z M194.2,164.9h7.4V186h-7.4V164.9z"/>
	<path class="st0" d="M204.9,175.5L204.9,175.5c0-6,4.6-11.1,11.3-11.1c4.3,0,7.2,1.9,9,4.7l-5,3.7c-1-1.4-2.1-2.2-3.9-2.2
		c-2.4,0-4.1,2.1-4.1,4.7v0.1c0,2.7,1.7,4.8,4.2,4.8c1.8,0,2.9-0.8,4.1-2.2l5,3.6c-2,2.9-4.8,4.8-9.4,4.8
		C209.6,186.5,204.9,181.5,204.9,175.5z"/>
	<path class="st0" d="M226.6,175.5L226.6,175.5c0-6.2,4.4-11.1,10.7-11.1c7.3,0,10.7,5.3,10.7,11.5c0,0.5,0,1,0,1.5h-14.1
		c0.6,2.3,2.3,3.5,4.6,3.5c1.8,0,3.2-0.7,4.7-2.1l4.1,3.4c-2,2.6-5,4.3-9.2,4.3C231.3,186.5,226.6,182.1,226.6,175.5z M240.9,173.7
		c-0.3-2.3-1.6-3.8-3.7-3.8c-2,0-3.3,1.5-3.7,3.8H240.9z"/>
	<path class="st0" d="M250.6,178.4h7.7v7.6h-7.7V178.4z"/>
</g>
</svg>
