<?xml version="1.0" encoding="utf-8"?>
<!-- Generator: Adobe Illustrator 25.4.1, SVG Export Plug-In . SVG Version: 6.00 Build 0)  -->
<svg version="1.1" id="Layer_1" xmlns="http://www.w3.org/2000/svg" xmlns:xlink="http://www.w3.org/1999/xlink" x="0px" y="0px"
	 viewBox="0 0 300 250" style="enable-background:new 0 0 300 250;" xml:space="preserve">
<style type="text/css">
	.st0{fill:#461211;}
</style>
<g>
	<path class="st0" d="M18.4,135.3L18.4,135.3c0-7.9,6.3-14.3,14.7-14.3s14.7,6.3,14.7,14.1v0.1c0,7.8-6.3,14.2-14.7,14.2
		S18.4,143.2,18.4,135.3z M40.1,135.3L40.1,135.3c0-4-2.8-7.5-7-7.5c-4.1,0-6.9,3.4-6.9,7.3v0.1c0,3.9,2.8,7.4,7,7.4
		C37.3,142.6,40.1,139.3,40.1,135.3z"/>
	<path class="st0" d="M51.4,127.8h7.4v3c1.4-1.8,3.3-3.4,6.3-3.4c4.5,0,7.2,3,7.2,7.8v13.8h-7.4v-11.4c0-2.3-1.2-3.6-3-3.6
		c-1.8,0-3.1,1.2-3.1,3.6v11.4h-7.4V127.8z"/>
	<path class="st0" d="M76.2,120.4h7.4v28.5h-7.4V120.4z"/>
	<path class="st0" d="M87.3,153.5l2.3-5.2c1.2,0.7,2.4,1.1,3.2,1.1c0.7,0,1.2-0.2,1.7-0.9l-8.3-20.7H94l4.2,12.7l4-12.7h7.6
		l-7.7,20.6c-1.8,4.9-3.8,6.9-8,6.9C91.4,155.3,89.2,154.5,87.3,153.5z"/>
	<path class="st0" d="M122.2,138.5L122.2,138.5c0-6.1,4.9-11.1,11.7-11.1c6.8,0,11.6,5,11.6,11v0.1c0,6-4.9,11-11.7,11
		C127,149.4,122.2,144.5,122.2,138.5z M138.3,138.5L138.3,138.5c0-2.7-1.9-4.8-4.5-4.8c-2.7,0-4.4,2.1-4.4,4.7v0.1
		c0,2.6,1.9,4.8,4.5,4.8C136.6,143.2,138.3,141,138.3,138.5z"/>
	<path class="st0" d="M148.6,127.8h7.4v3c1.4-1.8,3.3-3.4,6.3-3.4c4.5,0,7.2,3,7.2,7.8v13.8h-7.4v-11.4c0-2.3-1.2-3.6-3-3.6
		c-1.8,0-3.1,1.2-3.1,3.6v11.4h-7.4V127.8z"/>
</g>
<g>
	<path class="st0" d="M19.4,156.8h8l6.5,10.6l6.5-10.6h8v27.3h-7.5v-15.7l-7,10.7h-0.2l-6.9-10.6v15.6h-7.4V156.8z"/>
	<path class="st0" d="M53.2,156.8h7.6V167h9.7v-10.2h7.6v27.3h-7.6v-10.4h-9.7v10.4h-7.6V156.8z"/>
	<path class="st0" d="M81.7,179.2l9.8-10.3h-9.4V163h19.2v4.9l-9.8,10.3h9.8v5.9H81.7V179.2z"/>
	<path class="st0" d="M114.8,170.5L114.8,170.5c0-8,6.1-14.3,14.4-14.3c5.6,0,9.2,2.3,11.6,5.7l-5.7,4.4c-1.6-2-3.4-3.2-6-3.2
		c-3.8,0-6.5,3.2-6.5,7.2v0.1c0,4.1,2.7,7.3,6.5,7.3c2.8,0,4.5-1.3,6.2-3.3l5.7,4.1c-2.6,3.5-6,6.2-12.1,6.2
		C121,184.6,114.8,178.6,114.8,170.5z"/>
	<path class="st0" d="M143.7,155.6h7.4v10.3c1.4-1.8,3.3-3.4,6.3-3.4c4.5,0,7.2,3,7.2,7.8v13.8h-7.4v-11.4c0-2.3-1.2-3.6-3-3.6
		c-1.8,0-3.1,1.2-3.1,3.6v11.4h-7.4V155.6z"/>
	<path class="st0" d="M167.6,173.6L167.6,173.6c0-6.1,4.9-11.1,11.7-11.1c6.7,0,11.6,5,11.6,11v0.1c0,6-4.9,11-11.7,11
		C172.5,184.6,167.6,179.6,167.6,173.6z M183.7,173.6L183.7,173.6c0-2.7-1.9-4.8-4.5-4.8c-2.7,0-4.4,2.1-4.4,4.7v0.1
		c0,2.6,1.9,4.8,4.5,4.8C182,178.3,183.7,176.2,183.7,173.6z"/>
	<path class="st0" d="M194.1,155.6h7.7v5.5h-7.7V155.6z M194.2,163h7.4v21.1h-7.4V163z"/>
	<path class="st0" d="M204.9,173.6L204.9,173.6c0-6,4.6-11.1,11.3-11.1c4.3,0,7.2,1.9,9,4.7l-5,3.7c-1-1.4-2.1-2.2-3.9-2.2
		c-2.4,0-4.1,2.1-4.1,4.7v0.1c0,2.7,1.7,4.8,4.2,4.8c1.8,0,2.9-0.8,4.1-2.2l5,3.6c-2,2.9-4.8,4.8-9.4,4.8
		C209.6,184.6,204.9,179.6,204.9,173.6z"/>
	<path class="st0" d="M226.6,173.6L226.6,173.6c0-6.2,4.4-11.1,10.7-11.1c7.3,0,10.7,5.3,10.7,11.5c0,0.5,0,1,0,1.5h-14.1
		c0.6,2.3,2.3,3.5,4.6,3.5c1.8,0,3.2-0.7,4.7-2.1l4.1,3.4c-2,2.6-5,4.3-9.2,4.3C231.3,184.6,226.6,180.2,226.6,173.6z M240.9,171.8
		c-0.3-2.3-1.6-3.8-3.7-3.8c-2,0-3.3,1.5-3.7,3.8H240.9z"/>
	<path class="st0" d="M250.6,176.5h7.7v7.6h-7.7V176.5z"/>
</g>
</svg>
