<?xml version="1.0" encoding="utf-8"?>
<!-- Generator: Adobe Illustrator 25.4.1, SVG Export Plug-In . SVG Version: 6.00 Build 0)  -->
<svg version="1.1" id="Layer_1" xmlns="http://www.w3.org/2000/svg" xmlns:xlink="http://www.w3.org/1999/xlink" x="0px" y="0px"
	 viewBox="0 0 300 250" style="enable-background:new 0 0 300 250;" xml:space="preserve">
<style type="text/css">
	.st0{clip-path:url(#SVGID_00000111165891682727397120000010973256193565088699_);fill:#AC1F2D;}
	.st1{clip-path:url(#SVGID_00000111165891682727397120000010973256193565088699_);fill:#FFFFFF;}
</style>
<g>
	<defs>
		<rect id="SVGID_1_" x="17.3" y="9.9" width="46.8" height="51.6"/>
	</defs>
	<clipPath id="SVGID_00000175308631643643357060000018324483183454225030_">
		<use xlink:href="#SVGID_1_"  style="overflow:visible;"/>
	</clipPath>
	<path style="clip-path:url(#SVGID_00000175308631643643357060000018324483183454225030_);fill:#AC1F2D;" d="M60.9,35.2
		c0,12-9.7,21.7-21.7,21.7c-12,0-21.7-9.7-21.7-21.7c0-12,9.7-21.7,21.7-21.7C51.2,13.5,60.9,23.2,60.9,35.2"/>
	<path style="clip-path:url(#SVGID_00000175308631643643357060000018324483183454225030_);fill:#FFFFFF;" d="M47.8,31.3v2.5h2.8
		l-3.3,5.2h8.2v-2.5H52l3.2-5.1H47.8z M31.7,28.1L29.1,34l-2.6-5.9h-3.7v10.8h3v-5.7l2.6,5.7h1.3l2.6-5.9v5.9h3V28.1H31.7z
		 M43.6,28.1v3.8h-3.8v-3.8h-3.3v10.8h3.3v-4.3h3.8v4.3h3.3V28.1H43.6z"/>
	<path style="clip-path:url(#SVGID_00000175308631643643357060000018324483183454225030_);fill:#FFFFFF;" d="M47.6,43.3h2.9v-0.8
		h-1.9v-0.6h1.7v-0.8h-1.7v-0.5h1.9v-0.8h-2.9V43.3z M45.3,43.4c0.8,0,1.2-0.3,1.6-0.8l-0.7-0.5c-0.2,0.3-0.4,0.4-0.8,0.4
		c-0.5,0-0.8-0.4-0.8-1v0c0-0.5,0.4-0.9,0.8-0.9c0.3,0,0.6,0.2,0.8,0.4l0.7-0.6c-0.3-0.4-0.8-0.7-1.5-0.7c-1.1,0-1.9,0.8-1.9,1.9v0
		C43.5,42.6,44.3,43.4,45.3,43.4 M41.7,43.3h1v-3.6h-1V43.3z M38.9,42.5c-0.5,0-0.9-0.4-0.9-1v0c0-0.5,0.4-1,0.9-1
		c0.5,0,0.9,0.4,0.9,1v0C39.8,42.1,39.5,42.5,38.9,42.5 M38.9,43.4c1.1,0,1.9-0.8,1.9-1.9v0c0-1-0.8-1.8-1.9-1.8
		c-1.1,0-1.9,0.8-1.9,1.9v0C37,42.6,37.8,43.4,38.9,43.4 M32.9,43.3h1V42h1.3v1.4h1v-3.6h-1v1.3h-1.3v-1.3h-1V43.3z M30.6,43.4
		c0.8,0,1.2-0.3,1.6-0.8l-0.7-0.5c-0.2,0.3-0.4,0.4-0.8,0.4c-0.5,0-0.8-0.4-0.8-1v0c0-0.5,0.4-0.9,0.8-0.9c0.3,0,0.6,0.2,0.8,0.4
		l0.7-0.6c-0.3-0.4-0.8-0.7-1.5-0.7c-1.1,0-1.9,0.8-1.9,1.9v0C28.8,42.6,29.6,43.4,30.6,43.4"/>
</g>
</svg>
