<svg id="Layer_1" xmlns="http://www.w3.org/2000/svg" viewBox="0 0 336 280"><style>.st0{fill:#490a09}</style><path class="st0" d="M20.1 148c0-8.8 7-15.8 16.3-15.8s16.2 7 16.2 15.6v.1c0 8.7-7 15.7-16.3 15.7s-16.2-6.9-16.2-15.6zm24.1 0c0-4.4-3.2-8.3-7.8-8.3s-7.6 3.7-7.6 8.1v.1c0 4.4 3.2 8.2 7.7 8.2 4.6 0 7.7-3.7 7.7-8.1zM56.6 139.7h8.2v3.3c1.5-1.9 3.7-3.8 7-3.8 5 0 7.9 3.3 7.9 8.6v15.3h-8.2v-12.7c0-2.5-1.3-3.9-3.3-3.9-2 0-3.5 1.4-3.5 3.9v12.7h-8.2v-23.4zM84.2 131.5h8.2V163h-8.2v-31.5zM96.3 168.1l2.5-5.7c1.3.8 2.7 1.3 3.6 1.3.8 0 1.4-.2 1.9-1l-9.2-22.9h8.6l4.7 14.1 4.4-14.1h8.4l-8.6 22.8c-2 5.4-4.2 7.6-8.9 7.6-2.7-.1-5.2-.9-7.4-2.1zM135 151.5c0-6.7 5.4-12.3 13-12.3 7.5 0 12.9 5.5 12.9 12.1v.1c0 6.7-5.4 12.2-13 12.2-7.5 0-12.9-5.5-12.9-12.1zm17.8 0c0-2.9-2.1-5.4-5-5.4-3 0-4.9 2.4-4.9 5.2v.1c0 2.9 2.1 5.3 5 5.3 3 0 4.9-2.4 4.9-5.2zM164.3 139.7h8.2v3.3c1.5-1.9 3.7-3.8 7-3.8 5 0 7.9 3.3 7.9 8.6v15.3h-8.2v-12.7c0-2.5-1.3-3.9-3.3-3.9-2 0-3.5 1.4-3.5 3.9v12.7h-8.2v-23.4z"/><g><path class="st0" d="M21.2 171.8H30l7.2 11.7 7.2-11.7h8.9V202H45v-17.4l-7.7 11.8h-.2l-7.7-11.8v17.3h-8.2v-30.1zM58.7 171.8h8.4v11.3h10.8v-11.3h8.4V202h-8.4v-11.5H67.1V202h-8.4v-30.2zM90.2 196.7l10.8-11.4H90.6v-6.5h21.3v5.4l-10.8 11.4h10.8v6.5H90.2v-5.4zM126.8 187c0-8.9 6.8-15.8 15.9-15.8 6.2 0 10.2 2.6 12.8 6.3l-6.3 4.9c-1.7-2.2-3.7-3.5-6.6-3.5-4.2 0-7.2 3.6-7.2 8v.1c0 4.5 3 8.1 7.2 8.1 3.2 0 5-1.5 6.8-3.7l6.3 4.5c-2.9 3.9-6.7 6.8-13.4 6.8-8.6 0-15.5-6.6-15.5-15.7zM158.9 170.5h8.2v11.4c1.5-1.9 3.7-3.7 7-3.7 5 0 7.9 3.3 7.9 8.6v15.3h-8.2v-12.7c0-2.5-1.3-3.9-3.3-3.9-2 0-3.5 1.4-3.5 3.9v12.7h-8.2v-31.6zM185.3 190.5c0-6.7 5.4-12.3 13-12.3 7.5 0 12.9 5.5 12.9 12.1v.1c0 6.7-5.4 12.2-13 12.2-7.5 0-12.9-5.5-12.9-12.1zm17.9 0c0-2.9-2.1-5.4-5-5.4-3 0-4.9 2.4-4.9 5.2v.1c0 2.9 2.1 5.3 5 5.3 3 0 4.9-2.4 4.9-5.2zM214.6 170.5h8.6v6h-8.6v-6zm.2 8.2h8.2v23.4h-8.2v-23.4zM226.6 190.5c0-6.7 5.1-12.3 12.5-12.3 4.8 0 8 2.1 10 5.2l-5.6 4.1c-1.1-1.6-2.4-2.5-4.4-2.5-2.6 0-4.6 2.3-4.6 5.2v.1c0 3 1.9 5.3 4.7 5.3 1.9 0 3.2-.9 4.5-2.4l5.5 4c-2.2 3.2-5.3 5.4-10.4 5.4-7 0-12.2-5.5-12.2-12.1zM250.6 190.5c0-6.9 4.9-12.3 11.8-12.3 8.1 0 11.8 5.9 11.8 12.8v1.7h-15.6c.6 2.5 2.5 3.8 5.1 3.8 1.9 0 3.5-.7 5.2-2.4l4.5 3.8c-2.2 2.9-5.5 4.8-10.2 4.8-7.4-.1-12.6-5-12.6-12.2zm15.9-2.1c-.3-2.6-1.8-4.2-4.1-4.2-2.2 0-3.6 1.7-4.1 4.2h8.2zM277.2 193.6h8.6v8.4h-8.6v-8.4z"/></g></svg>