<svg id="Layer_1" xmlns="http://www.w3.org/2000/svg" viewBox="0 0 336 280"><style>.st0{fill:#490a09}</style><path class="st0" d="M18.7 101h8.9l7.2 11.7L42 101h8.9v30.2h-8.3v-17.4l-7.7 11.8h-.2L27 113.8v17.3h-8.2V101zM55.5 123.1v-15.3h8.2v12.7c0 2.5 1.3 3.9 3.3 3.9 1.9 0 3.4-1.4 3.4-3.9v-12.7h8.2v23.4h-8.2V128c-1.5 1.9-3.7 3.7-7 3.7-4.9 0-7.9-3.2-7.9-8.6zM83.1 107.9h8.2v4.7c1.3-3.2 3.5-5.3 7.4-5.1v8.6H98c-4.3 0-6.7 2.5-6.7 7.9v7.3h-8.2v-23.4zM100.3 119.6c0-7.7 4.8-12.3 10.3-12.3 3.5 0 5.6 1.6 7.2 3.4v-11h8.2v31.5h-8.2v-3.1c-1.6 1.9-3.6 3.6-7.1 3.6-5.6 0-10.4-4.6-10.4-12.1zm17.6 0c0-3.2-2.1-5.4-4.8-5.4s-4.8 2.2-4.8 5.3v.1c0 3.1 2.2 5.3 4.8 5.3s4.8-2.2 4.8-5.3zM129.4 119.6c0-6.9 4.9-12.3 11.8-12.3 8.1 0 11.8 5.9 11.8 12.8v1.7h-15.6c.6 2.5 2.5 3.8 5.1 3.8 1.9 0 3.5-.7 5.2-2.4l4.5 3.8c-2.2 2.9-5.5 4.8-10.2 4.8-7.4 0-12.6-4.9-12.6-12.2zm15.9-2c-.3-2.6-1.8-4.2-4.1-4.2-2.2 0-3.6 1.7-4.1 4.2h8.2zM156.5 107.9h8.2v4.7c1.3-3.2 3.5-5.3 7.4-5.1v8.6h-.7c-4.3 0-6.7 2.5-6.7 7.9v7.3h-8.2v-23.4zM173.2 128.3l3.1-5c2.7 1.8 5.6 2.7 8 2.7 1.4 0 2.1-.4 2.1-1.3v-.1c0-.9-1.3-1.3-3.8-2-4.6-1.2-8.3-2.8-8.3-7.5v-.1c0-5 4-7.7 9.4-7.7 3.4 0 7 1 9.6 2.7l-2.8 5.2c-2.4-1.3-5.1-2.2-6.9-2.2-1.3 0-1.9.5-1.9 1.1v.1c0 .9 1.3 1.3 3.8 2.1 4.6 1.3 8.3 2.9 8.3 7.4v.1c0 5.1-3.8 7.8-9.5 7.8-3.9.1-7.8-1-11.1-3.3z"/><g><path class="st0" d="M19.6 163v-9.5h-2.8v-6.6h2.8V141h8.2v5.9h5.4v6.6h-5.4v7.9c0 1.6.7 2.3 2.2 2.3 1.1 0 2.1-.3 3.1-.8v6.4c-1.5.8-3.4 1.3-5.7 1.3-4.8.1-7.8-2.1-7.8-7.6zM35.3 158.6c0-6.7 5.4-12.3 13-12.3 7.5 0 12.9 5.5 12.9 12.1v.1c0 6.7-5.4 12.2-13 12.2-7.5.1-12.9-5.4-12.9-12.1zm17.8 0c0-2.9-2.1-5.4-5-5.4-3 0-4.9 2.4-4.9 5.2v.1c0 2.9 2.1 5.3 5 5.3 3 0 4.9-2.3 4.9-5.2zM74.7 167.3l3.1-5c2.7 1.8 5.6 2.7 8 2.7 1.4 0 2.1-.4 2.1-1.3v-.1c0-.9-1.3-1.3-3.8-2-4.6-1.2-8.3-2.8-8.3-7.5v-.1c0-5 4-7.7 9.4-7.7 3.4 0 7 1 9.6 2.7l-2.8 5.2c-2.4-1.3-5.1-2.2-6.9-2.2-1.3 0-1.9.5-1.9 1.1v.1c0 .9 1.3 1.3 3.8 2.1 4.6 1.3 8.3 2.9 8.3 7.4v.1c0 5.1-3.8 7.8-9.5 7.8-3.9.1-7.8-1-11.1-3.3zM97.8 158.6c0-6.7 5.4-12.3 13-12.3 7.5 0 12.9 5.5 12.9 12.1v.1c0 6.7-5.4 12.2-13 12.2-7.5.1-12.9-5.4-12.9-12.1zm17.8 0c0-2.9-2.1-5.4-5-5.4-3 0-4.9 2.4-4.9 5.2v.1c0 2.9 2.1 5.3 5 5.3 3 0 4.9-2.3 4.9-5.2zM127.2 138.7h8.2v31.5h-8.2v-31.5zM138.2 146.9h8.6l4.5 13.7 4.5-13.7h8.5l-9.3 23.5h-7.5l-9.3-23.5zM164.7 158.6c0-6.9 4.9-12.3 11.8-12.3 8.1 0 11.8 5.9 11.8 12.8v1.7h-15.6c.6 2.5 2.5 3.8 5.1 3.8 1.9 0 3.5-.7 5.2-2.4l4.5 3.8c-2.2 2.9-5.5 4.8-10.2 4.8-7.4 0-12.6-4.9-12.6-12.2zm15.9-2c-.3-2.6-1.8-4.2-4.1-4.2-2.2 0-3.6 1.7-4.1 4.2h8.2zM191.2 161.8h8.6v8.4h-8.6v-8.4z"/></g></svg>