<svg id="Layer_1" xmlns="http://www.w3.org/2000/svg" viewBox="0 0 336 280"><style>.st0{fill:#490a09}</style><path class="st0" d="M26.1 88.8h8.5l4 11.7 10.3-11.7h9.4L50.2 119h-8.4l4.6-17.4-10.8 11.8h-.2L31 101.7 26.4 119H18l8.1-30.2zM57 112.6c0-1.3.3-2.7.6-4.2L61 95.7h8.2L66 107.9c-.2.6-.3 1.4-.3 1.9 0 1.6.9 2.5 2.6 2.5 2.3 0 3.6-1.6 4.3-4.2L76 95.7h8.2L78 119.1h-8.2l.7-2.7c-1.6 1.7-3.9 3.2-6.7 3.2-4.2 0-6.8-2.7-6.8-7zM88.6 95.7h8.2l-1.3 4.7c2.2-3.3 5-5.4 8.8-5.1l-2.3 8.6h-.7c-4.5 0-7.4 2.5-8.9 8.1l-1.9 7h-8.2l6.3-23.3zM102.9 110c0-8.4 5.9-14.8 12.6-14.8 3.5 0 5.7 1.5 7.1 3.7l3-11.4h8.2l-8.4 31.5h-8.2l.7-2.5c-1.9 1.8-4.1 3-6.7 3-4.6.1-8.3-3.5-8.3-9.5zm18.1-3.9c0-2.5-1.7-4.1-4.1-4.1-3.1 0-5.7 3-5.7 6.7 0 2.5 1.6 4.1 4 4.1 3.1 0 5.8-3.1 5.8-6.7zM143.9 113.5c1.7 0 3.2-.6 5-1.9l3.8 4.5c-2.4 2.1-5.5 3.5-9.5 3.5-6.9 0-11.1-4.1-11.1-10.4 0-6.9 5.4-14.1 14-14.1 6.9 0 9.9 4.6 9.9 9.7 0 1.6-.3 3.3-.9 4.8h-15.5c.1 2.4 1.4 3.9 4.3 3.9zm4.5-8.1c.1-.4.2-.8.2-1.3 0-1.6-1-3-3.2-3s-4.4 1.4-5.4 4.2h8.4zM162 95.7h8.2l-1.3 4.7c2.2-3.3 5-5.4 8.8-5.1l-2.3 8.6h-.7c-4.5 0-7.4 2.5-8.9 8.1l-1.9 7h-8.2l6.3-23.3zM195 88.8h8.4l-8.1 30.2h-8.4l8.1-30.2zM206.6 95.7h8.2l-.7 2.7c1.6-1.7 3.9-3.2 6.7-3.2 4.2 0 6.8 2.7 6.8 7 0 1.3-.3 2.7-.7 4.2l-3.4 12.7h-8.2l3.3-12.2c.2-.6.3-1.4.3-1.9 0-1.6-.9-2.5-2.6-2.5-2.3 0-3.6 1.6-4.4 4.2l-3.3 12.4h-8.2l6.2-23.4zM229.9 110.6h8.6l-2.3 8.4h-8.5l2.2-8.4zM242.9 110.6h8.6l-2.3 8.4h-8.5l2.2-8.4zM256 110.6h8.6l-2.3 8.4h-8.5l2.2-8.4z"/></svg>