<svg id="Layer_1" xmlns="http://www.w3.org/2000/svg" xmlns:xlink="http://www.w3.org/1999/xlink" viewBox="0 0 336 280"><style>.st0,.st1{clip-path:url(#SVGID_00000056415301295810649430000017566053071873562005_);fill:#ac1f2d}.st1{fill:#fff}</style><defs><path id="SVGID_1_" d="M17.6 11h50.1v55.2H17.6z"/></defs><clipPath id="SVGID_00000146492555605804250700000011227497805798754993_"><use xlink:href="#SVGID_1_" overflow="visible"/></clipPath><path d="M64.2 38c0 12.8-10.4 23.2-23.2 23.2S17.9 50.8 17.9 38c0-12.8 10.4-23.2 23.2-23.2S64.2 25.2 64.2 38" clip-path="url(#SVGID_00000146492555605804250700000011227497805798754993_)" fill="#ac1f2d"/><path d="M50.3 33.8v2.6h3L49.8 42h8.8v-2.7h-3.8l3.4-5.5h-7.9zm-17.2-3.3l-2.8 6.3-2.8-6.3h-3.9V42h3.2v-6.1l2.8 6.1H31l2.8-6.3V42H37V30.5h-3.9zm12.7 0v4.1h-4.1v-4.1h-3.6V42h3.6v-4.6h4.1V42h3.6V30.5h-3.6zM50.1 46.7h3.1v-.9h-2v-.6H53v-.8h-1.8v-.6h2v-.9h-3.1v3.8zm-2.5.1c.8 0 1.3-.4 1.7-.9l-.8-.6c-.2.3-.5.5-.9.5-.5 0-.9-.4-.9-1s.4-1 .9-1c.4 0 .6.2.8.4l.8-.6c-.3-.5-.8-.8-1.6-.8-1.2 0-2 .9-2 2 0 1.2.9 2 2 2m-3.9-.1h1.1v-3.8h-1.1v3.8zm-3-.9c-.6 0-1-.5-1-1 0-.6.4-1 1-1s1 .5 1 1c0 .6-.4 1-1 1m0 1c1.2 0 2.1-.9 2.1-2s-.9-2-2-2c-1.2 0-2.1.9-2.1 2s.8 2 2 2m-6.4-.1h1.1v-1.4h1.4v1.4h1.1v-3.8h-1.1v1.4h-1.4v-1.4h-1.1v3.8zm-2.4.1c.8 0 1.3-.4 1.7-.9l-.8-.6c-.2.3-.5.5-.9.5-.5 0-.9-.4-.9-1s.4-1 .9-1c.4 0 .6.2.8.4l.8-.6c-.3-.5-.8-.8-1.6-.8-1.2 0-2 .9-2 2 0 1.2.9 2 2 2" clip-path="url(#SVGID_00000146492555605804250700000011227497805798754993_)" fill="#fff"/></svg>