<svg id="Layer_1" xmlns="http://www.w3.org/2000/svg" viewBox="0 0 300 50"><style>.st0{fill:#490a09}</style><path class="st0" d="M9.9 11.5H13l-3 11.1H6.9l3-11.1zM14.2 14h3l-.3.9c.6-.6 1.4-1.1 2.4-1.1 1.2 0 1.9.6 2.2 1.5.8-.9 1.9-1.5 3.1-1.5 1.6 0 2.5 1 2.5 2.5 0 .5-.1 1-.3 1.6l-1.2 4.7h-3l1.2-4.5c.1-.2.1-.5.1-.7 0-.6-.3-.9-.9-.9-.8 0-1.3.6-1.6 1.6l-1.2 4.5h-3l1.2-4.5c.1-.2.1-.5.1-.7 0-.6-.3-.9-.9-.9-.8 0-1.3.6-1.6 1.6l-1.2 4.5h-3l2.4-8.6zM29.5 14h3l-.3.9c.6-.6 1.4-1.1 2.4-1.1 1.2 0 1.9.6 2.2 1.5.8-.9 1.9-1.5 3.1-1.5 1.6 0 2.5 1 2.5 2.5 0 .5-.1 1-.3 1.6L41 22.6h-3l1.2-4.5c.1-.2.1-.5.1-.7 0-.6-.3-.9-.9-.9-.8 0-1.3.6-1.6 1.6l-1.2 4.5h-3l1.2-4.5c.1-.2.1-.5.1-.7 0-.6-.3-.9-.9-.9-.8 0-1.3.6-1.6 1.6l-1.2 4.5h-3l2.3-8.6zM42.8 20.4c0-1.9 1.5-3 3.8-3 .8 0 1.5.1 2.2.3v-.1c0-.1.1-.3.1-.5 0-.6-.4-.9-1.5-.9-.8 0-1.7.2-2.3.4l-.4-2.2c.9-.3 2.1-.5 3.4-.5 2.6 0 3.8 1 3.8 2.7 0 .4-.1.8-.2 1.2l-1.3 4.7h-3l.2-.9c-.7.7-1.5 1.1-2.5 1.1-1.3 0-2.3-.9-2.3-2.3zm5.6-1.1l.1-.3c-.3-.1-.7-.2-1.1-.2-.9 0-1.6.5-1.6 1.2 0 .5.3.8.9.8.7.1 1.4-.6 1.7-1.5zM61.3 14.2H58l.7-2.7h9.7l-.7 2.7h-3.3l-2.2 8.4h-3.1l2.2-8.4zM66 20.4c0-1.9 1.5-3 3.8-3 .8 0 1.5.1 2.2.3v-.1c0-.1.1-.3.1-.5 0-.6-.4-.9-1.5-.9-.8 0-1.7.2-2.3.4l-.4-2.2c.9-.3 2.1-.5 3.4-.5 2.6 0 3.8 1 3.8 2.7 0 .4-.1.8-.2 1.2l-1.3 4.7h-3l.2-.9c-.7.7-1.5 1.1-2.5 1.1-1.3 0-2.3-.9-2.3-2.3zm5.6-1.1l.1-.3c-.3-.1-.7-.2-1.1-.2-.9 0-1.6.5-1.6 1.2 0 .5.3.8.9.8.7.1 1.4-.6 1.7-1.5zM76.2 20.7c0-.3.1-.7.2-1.1l.9-3.2h-1l.6-2.4h1l.6-2.2h3l-.7 2.2h2l-.6 2.4h-2l-.7 2.7c0 .2-.1.4-.1.5 0 .3.2.5.7.5.3 0 .7-.1 1.1-.2l-.7 2.5c-.5.2-1.2.3-1.8.3-1.7 0-2.5-.7-2.5-2zM83 20.7c0-.3.1-.7.2-1.1l.9-3.2h-1l.6-2.4h1l.6-2.2h3l-.7 2.2h2l-.6 2.4h-2l-.7 2.7c0 .2-.1.4-.1.5 0 .3.2.5.7.5.3 0 .7-.1 1.1-.2l-.7 2.5c-.5.2-1.2.3-1.8.3-1.7 0-2.5-.7-2.5-2zM89 20.4c0-1.9 1.5-3 3.8-3 .8 0 1.5.1 2.2.3v-.1c0-.1.1-.3.1-.5 0-.6-.4-.9-1.5-.9-.8 0-1.7.2-2.3.4l-.4-2.2c.9-.3 2.1-.5 3.4-.5 2.6 0 3.8 1 3.8 2.7 0 .4-.1.8-.2 1.2l-1.3 4.7h-3l.2-.9c-.7.7-1.5 1.1-2.5 1.1-1.3 0-2.3-.9-2.3-2.3zm5.5-1.1l.1-.3c-.3-.1-.7-.2-1.1-.2-.9 0-1.6.5-1.6 1.2 0 .5.3.8.9.8.8.1 1.5-.6 1.7-1.5zM100.4 14h3l-.5 1.7c.8-1.2 1.8-2 3.2-1.9l-.9 3.2h-.2c-1.6 0-2.7.9-3.2 3l-.7 2.6h-3l2.3-8.6zM105 20.4c0-1.9 1.5-3 3.8-3 .8 0 1.5.1 2.2.3v-.1c0-.1.1-.3.1-.5 0-.6-.4-.9-1.5-.9-.8 0-1.7.2-2.3.4l-.4-2.2c.9-.3 2.1-.5 3.4-.5 2.6 0 3.8 1 3.8 2.7 0 .4-.1.8-.2 1.2l-1.3 4.7h-3l.2-.9c-.7.7-1.5 1.1-2.5 1.1-1.3 0-2.3-.9-2.3-2.3zm5.5-1.1l.1-.3c-.3-.1-.7-.2-1.1-.2-.9 0-1.6.5-1.6 1.2 0 .5.3.8.9.8.7.1 1.5-.6 1.7-1.5zM116.4 14h3l-.3 1c.6-.6 1.4-1.2 2.5-1.2 1.6 0 2.5 1 2.5 2.6 0 .5-.1 1-.3 1.5l-1.2 4.7h-3l1.2-4.5c.1-.2.1-.5.1-.7 0-.6-.3-.9-.9-.9-.8 0-1.3.6-1.6 1.6l-1.2 4.5h-3l2.2-8.6zM126.4 14h3l-2.3 8.6h-3l2.3-8.6zm.8-3h3.1l-.6 2.2h-3.1l.6-2.2zM129.7 19.5h3.1l-.8 3.1h-3.1l.8-3.1z"/></svg>