<svg id="Layer_1" xmlns="http://www.w3.org/2000/svg" viewBox="0 0 300 50"><style>.st0{fill:#490a09}</style><path class="st0" d="M12.7 19.3H16l5.3 12.5h-3.7l-.9-2.2h-4.8l-.9 2.1H7.4l5.3-12.4zm3 7.6l-1.4-3.5-1.4 3.5h2.8zM30.5 30.6v1.2h-3.4v-13h3.4v4.6c.7-.8 1.5-1.5 2.9-1.5 2.3 0 4.2 1.9 4.2 5s-2 5-4.2 5c-1.4.1-2.2-.6-2.9-1.3zm3.9-3.6c0-1.3-.9-2.2-2-2.2s-1.9.9-1.9 2.2c0 1.3.9 2.2 1.9 2.2 1.1-.1 2-.9 2-2.2zM39.1 22.2h3.4v1.9c.5-1.3 1.4-2.2 3-2.1v3.5h-.3c-1.8 0-2.7 1-2.7 3.2v3h-3.4v-9.5zM46.7 18.8h3.5v2.5h-3.5v-2.5zm.1 3.4h3.4v9.6h-3.4v-9.6zM52.1 18.8h3.4v12.9h-3.4V18.8zM57.4 18.8h3.4v12.9h-3.4V18.8zM62.6 18.8h3.5v2.5h-3.5v-2.5zm.1 3.4H66v9.6h-3.4v-9.6zM67.4 29c0-2 1.5-3 3.7-3 .9 0 1.8.2 2.3.4v-.2c0-1-.6-1.6-1.9-1.6-1 0-1.8.2-2.6.5l-.7-2.4c1.1-.4 2.2-.7 3.9-.7 1.7 0 2.9.4 3.6 1.2.7.7 1 1.7 1 3v5.5h-3.3v-1c-.7.7-1.6 1.2-2.8 1.2-1.8.1-3.2-1-3.2-2.9zm6.1-.7v-.4c-.3-.1-.8-.2-1.3-.2-1 0-1.5.5-1.5 1.2s.5 1 1.2 1c.9-.1 1.6-.7 1.6-1.6zM78.5 22.2h3.4v1.3c.6-.8 1.5-1.6 2.9-1.6 2 0 3.3 1.3 3.3 3.5v6.3h-3.4v-5.2c0-1-.5-1.6-1.3-1.6s-1.4.6-1.4 1.6v5.2h-3.4v-9.5zM90.3 28.8v-3.9h-1.1v-2.7h1.1v-2.4h3.4v2.4h2.2v2.7h-2.2v3.2c0 .7.3 1 .9 1 .4 0 .9-.1 1.3-.3v2.6c-.6.3-1.4.5-2.3.5-2.1 0-3.3-.9-3.3-3.1zM97.4 18.8h3.4v12.9h-3.4V18.8zM102.4 33.8l1-2.4c.5.3 1.1.5 1.5.5.3 0 .6-.1.8-.4l-3.7-9.4h3.5l1.9 5.8 1.8-5.8h3.4l-3.5 9.3c-.8 2.2-1.7 3.1-3.6 3.1-1.2.1-2.2-.2-3.1-.7zM119.2 24.9h-1.1v-2.6h1.1V22c0-1.1.2-1.9.8-2.5.6-.6 1.4-.8 2.5-.8 1 0 1.7.1 2.2.3v2.4c-.4-.1-.8-.2-1.3-.2-.6 0-1 .3-1 .9v.2h2.2v2.6h-2.1v6.9h-3.3v-6.9zM125.7 28.4v-6.3h3.4v5.2c0 1 .5 1.6 1.4 1.6.8 0 1.4-.6 1.4-1.6v-5.2h3.4v9.6h-3.4v-1.3c-.6.8-1.5 1.5-2.9 1.5-2.1.1-3.3-1.3-3.3-3.5zM137 22.2h3.4v1.3c.6-.8 1.5-1.6 2.9-1.6 2 0 3.3 1.3 3.3 3.5v6.3h-3.4v-5.2c0-1-.5-1.6-1.3-1.6s-1.4.6-1.4 1.6v5.2H137v-9.5zM148.2 22.2h3.4v1.3c.6-.8 1.5-1.6 2.9-1.6 2 0 3.3 1.3 3.3 3.5v6.3h-3.4v-5.2c0-1-.5-1.6-1.3-1.6s-1.4.6-1.4 1.6v5.2h-3.4v-9.5zM158.9 33.8l1-2.4c.5.3 1.1.5 1.5.5.3 0 .6-.1.8-.4l-3.7-9.4h3.5l1.9 5.8 1.8-5.8h3.4l-3.5 9.3c-.8 2.2-1.7 3.1-3.6 3.1-1.2.1-2.2-.2-3.1-.7zM175.1 22.2h3.4v1.3c.7-.8 1.5-1.5 2.9-1.5 2.3 0 4.2 1.9 4.2 5s-2 5-4.2 5c-1.5 0-2.3-.7-2.9-1.4v4h-3.4V22.2zm7.2 4.8c0-1.3-.9-2.2-2-2.2s-1.9.9-1.9 2.2c0 1.3.9 2.2 1.9 2.2 1.2-.1 2-.9 2-2.2zM187.1 22.2h3.4v1.9c.5-1.3 1.4-2.2 3-2.1v3.5h-.3c-1.8 0-2.7 1-2.7 3.2v3h-3.4v-9.5zM194.1 27c0-2.8 2.2-5 5.3-5 3.1 0 5.3 2.2 5.3 5 0 2.7-2.2 5-5.3 5-3.1 0-5.3-2.3-5.3-5zm7.3 0c0-1.2-.8-2.2-2-2.2s-2 1-2 2.1c0 1.2.8 2.2 2 2.2s2-1 2-2.1zM205.3 30.5l1.3-2c1.1.7 2.3 1.1 3.3 1.1.6 0 .8-.2.8-.5 0-.4-.5-.5-1.5-.8-1.9-.5-3.4-1.1-3.4-3.1s1.6-3.2 3.8-3.2c1.4 0 2.8.4 3.9 1.1l-1.1 2.1c-1-.5-2.1-.9-2.8-.9-.5 0-.8.2-.8.5 0 .4.5.5 1.6.8 1.9.5 3.4 1.2 3.4 3 0 2.1-1.6 3.2-3.9 3.2-1.6.2-3.2-.3-4.6-1.3zM214.8 27c0-2.8 2-5 4.8-5 3.3 0 4.8 2.4 4.8 5.2v.7H218c.3 1 1 1.6 2.1 1.6.8 0 1.4-.3 2.1-1l1.9 1.5c-.9 1.2-2.2 1.9-4.2 1.9-3 .1-5.1-1.9-5.1-4.9zm6.5-.8c-.1-1.1-.7-1.7-1.7-1.7-.9 0-1.5.7-1.7 1.7h3.4zM225.5 27c0-2.7 2.1-5 5.1-5 2 0 3.3.8 4.1 2.1l-2.3 1.7c-.5-.6-1-1-1.8-1-1.1 0-1.9 1-1.9 2.1 0 1.2.8 2.2 1.9 2.2.8 0 1.3-.4 1.8-1l2.2 1.6c-.9 1.3-2.2 2.2-4.3 2.2-2.7.1-4.8-2.2-4.8-4.9zM235.9 28.4v-6.3h3.4v5.2c0 1 .5 1.6 1.4 1.6.8 0 1.4-.6 1.4-1.6v-5.2h3.4v9.6H242v-1.3c-.6.8-1.5 1.5-2.9 1.5-2 .1-3.2-1.3-3.2-3.5zM247.7 28.8v-3.9h-1.1v-2.7h1.1v-2.4h3.4v2.4h2.2v2.7h-2.2v3.2c0 .7.3 1 .9 1 .4 0 .9-.1 1.3-.3v2.6c-.6.3-1.4.5-2.3.5-2.1 0-3.3-.9-3.3-3.1zM254.1 27c0-2.8 2.2-5 5.3-5 3.1 0 5.3 2.2 5.3 5 0 2.7-2.2 5-5.3 5-3.1 0-5.3-2.3-5.3-5zm7.3 0c0-1.2-.8-2.2-2-2.2s-2 1-2 2.1c0 1.2.8 2.2 2 2.2s2-1 2-2.1zM266.1 22.2h3.4v1.9c.5-1.3 1.4-2.2 3-2.1v3.5h-.3c-1.8 0-2.7 1-2.7 3.2v3h-3.4v-9.5zM272.4 28.3h3.5v3.4h-3.5v-3.4z"/></svg>