<svg id="Layer_1" xmlns="http://www.w3.org/2000/svg" viewBox="0 0 300 600"><style>.st0{fill:#461211}</style><path class="st0" d="M34 234.1H21.2v-10.4h37.5v10.4H45.9v32.4H34v-32.4zM60.5 223.7h13.3l9.7 27.1 9.7-27.1h13l-17.3 43.1h-11l-17.4-43.1zM21.6 310.3v-.1c0-9.3 7.3-17.2 17.7-17.2 6.8 0 11.3 2.9 14.1 7.4l-7.9 5.9c-1.6-2.2-3.4-3.5-6.2-3.5-3.7 0-6.5 3.3-6.5 7.3v.1c0 4.3 2.7 7.5 6.6 7.5 2.7 0 4.5-1.3 6.4-3.4l7.8 5.6c-3.1 4.5-7.5 7.6-14.7 7.6-10 0-17.3-7.8-17.3-17.2zM57.6 293.7h11.6v6.7c1.9-4.5 4.9-7.5 10.4-7.2v12.2h-1c-6 0-9.5 3.5-9.5 11.1v10.3H57.6v-33.1zM83.8 282.1h12.1v8.5H83.8v-8.5zm.2 11.6h11.6v33H84v-33zM104.1 316.4V303h-3.9v-9.3h3.9v-8.4h11.6v8.4h7.7v9.3h-7.7v11.2c0 2.3 1 3.3 3.2 3.3 1.5 0 3-.4 4.4-1.1v9.1c-2.1 1.2-4.8 1.9-8.1 1.9-6.9 0-11.1-3.1-11.1-11zM128.4 282.1h12.1v8.5h-12.1v-8.5zm.3 11.6h11.6v33h-11.6v-33zM145.4 310.3v-.1c0-9.3 7.3-17.2 17.7-17.2 6.8 0 11.3 2.9 14.1 7.4l-7.9 5.9c-1.6-2.2-3.4-3.5-6.2-3.5-3.7 0-6.5 3.3-6.5 7.3v.1c0 4.3 2.7 7.5 6.6 7.5 2.7 0 4.5-1.3 6.4-3.4l7.8 5.6c-3.1 4.5-7.5 7.6-14.7 7.6-10 0-17.3-7.8-17.3-17.2zM179 322.5l4.3-7c3.8 2.5 7.9 3.8 11.4 3.8 2 0 2.9-.6 2.9-1.8v-.1c0-1.3-1.8-1.8-5.3-2.8-6.5-1.7-11.7-3.9-11.7-10.6v-.1c0-7 5.6-10.9 13.3-10.9 4.8 0 9.8 1.4 13.6 3.8l-4 7.3c-3.4-1.9-7.1-3.1-9.8-3.1-1.8 0-2.7.7-2.7 1.6v.1c0 1.3 1.9 1.9 5.4 2.9 6.5 1.8 11.7 4.1 11.7 10.5v.1c0 7.3-5.4 11.1-13.5 11.1-5.5.1-11-1.5-15.6-4.8z"/><g><path class="st0" d="M21.6 370.5v-.1c0-9.3 7.3-17.2 17.7-17.2 6.8 0 11.3 2.9 14.1 7.4l-7.9 5.9c-1.6-2.2-3.4-3.5-6.2-3.5-3.7 0-6.5 3.3-6.5 7.3v.1c0 4.3 2.7 7.5 6.6 7.5 2.7 0 4.5-1.3 6.4-3.4l7.8 5.6c-3.1 4.5-7.5 7.6-14.7 7.6-10 0-17.3-7.8-17.3-17.2zM57.6 342.3h11.6v16.1c2.1-2.7 5.2-5.3 9.9-5.3 7 0 11.2 4.6 11.2 12.2v21.6H78.8V369c0-3.6-1.9-5.6-4.6-5.6-2.8 0-4.9 2-4.9 5.6v17.9H57.6v-44.6zM95 370.5v-.1c0-9.6 6.9-17.3 16.7-17.3 11.4 0 16.7 8.4 16.7 18.1 0 .7 0 1.6-.1 2.4h-22.1c.9 3.6 3.5 5.4 7.1 5.4 2.7 0 4.9-1 7.3-3.4l6.4 5.3c-3.2 4-7.8 6.7-14.4 6.7-10.3.1-17.6-6.8-17.6-17.1zm22.5-2.8c-.4-3.7-2.6-6-5.7-6s-5.1 2.4-5.7 6h11.4zM132 370.5v-.1c0-9.6 6.9-17.3 16.7-17.3 11.4 0 16.7 8.4 16.7 18.1 0 .7 0 1.6-.1 2.4h-22.1c.9 3.6 3.5 5.4 7.1 5.4 2.7 0 4.9-1 7.3-3.4l6.4 5.3c-3.2 4-7.8 6.7-14.4 6.7-10.3.1-17.6-6.8-17.6-17.1zm22.4-2.8c-.4-3.7-2.6-6-5.7-6s-5.1 2.4-5.7 6h11.4zM170.2 353.9h11.6v6.7c1.9-4.5 4.9-7.5 10.4-7.2v12.2h-1c-6 0-9.5 3.5-9.5 11.1V387h-11.6v-33.1zM194.4 370.5v-.1c0-9.6 6.9-17.3 16.7-17.3 11.4 0 16.7 8.4 16.7 18.1 0 .7 0 1.6-.1 2.4h-22.1c.9 3.6 3.5 5.4 7.1 5.4 2.7 0 4.9-1 7.3-3.4l6.4 5.3c-3.2 4-7.8 6.7-14.4 6.7-10.2.1-17.6-6.8-17.6-17.1zm22.5-2.8c-.4-3.7-2.6-6-5.7-6s-5.1 2.4-5.7 6h11.4zM231.5 370.5v-.1c0-10.7 6.7-17.3 14.5-17.3 5 0 7.9 2.3 10.1 4.8v-15.6h11.6v44.6h-11.6v-4.4c-2.3 2.7-5.1 5.1-10.1 5.1-7.7 0-14.5-6.5-14.5-17.1zm24.9-.1v-.1c0-4.3-3-7.4-6.7-7.4s-6.8 3.1-6.8 7.4v.1c0 4.4 3.1 7.5 6.8 7.5 3.7 0 6.7-3.1 6.7-7.5zM273.5 375h12.1v11.9h-12.1V375z"/></g></svg>