<svg id="Layer_1" xmlns="http://www.w3.org/2000/svg" viewBox="0 0 300 600"><style>.st0{fill:#461211}</style><path class="st0" d="M39 241.6h10.1l5.8 37.4H44.1l-.9-6.6H28.9l-4.5 6.6H13.2L39 241.6zm3.3 22.7L41 253.6l-6.9 10.7h8.2zM82.3 241.8H112l-2.4 9H90.2l-1.7 6.3H106l-2.3 8.5H86.2l-3.6 13.3H72.3l10-37.1zM114.1 250.2h10.1l-1.5 5.8c2.8-4.1 6.1-6.6 10.8-6.3l-2.9 10.6h-.8c-5.5 0-9.1 3.1-10.9 9.9l-2.3 8.6h-10.1l7.6-28.6zM146.5 272.1c2.1 0 3.9-.7 6.1-2.3l4.7 5.5c-2.9 2.5-6.7 4.3-11.7 4.3-8.5 0-13.7-5-13.7-12.7 0-8.5 6.6-17.3 17.2-17.3 8.5 0 12.2 5.7 12.2 11.9 0 2-.4 4-1.1 5.9h-19c.1 2.8 1.8 4.7 5.3 4.7zm5.5-9.9c.2-.5.3-1 .3-1.5 0-2-1.3-3.7-3.9-3.7-2.7 0-5.4 1.8-6.6 5.2H152zM168.8 250.2h10.1l-.9 3.3c2-2.1 4.8-3.9 8.2-3.9 5.2 0 8.3 3.3 8.3 8.6 0 1.5-.4 3.3-.8 5.1l-4.1 15.6h-10.1l4-15c.2-.7.3-1.7.3-2.3 0-1.9-1.1-3-3.2-3-2.8 0-4.5 1.9-5.4 5.2l-4.1 15.2H161l7.8-28.8zM197.1 267.1c0-9.7 7.7-17.4 17.2-17.4 6.7 0 10.7 3.4 12.2 7.9l-7.9 4.1c-1-2.2-2.3-3.6-4.9-3.6-3.8 0-6.9 4.2-6.9 8.5 0 2.9 1.9 4.8 4.4 4.8 2.1 0 3.7-.9 5.4-2.7l6.2 5.4c-2.9 3.4-6.5 5.6-12.3 5.6-7.7-.1-13.4-4.9-13.4-12.6zM234.7 240.2h10.1l-3.6 13.3c2-2.1 4.8-3.9 8.2-3.9 5.2 0 8.3 3.3 8.3 8.6 0 1.5-.4 3.3-.8 5.1l-4.1 15.6h-10.1l4-15c.2-.7.3-1.7.3-2.3 0-1.9-1.1-3-3.2-3-2.8 0-4.5 1.9-5.4 5.2l-4.1 15.2h-10.1l10.5-38.8z"/><g><path class="st0" d="M22.9 291h11.2l2.1 23.3L50.8 291h11.6l-25 37.4h-9.6L22.9 291zM62.6 299.5h10.1L65 328.2H54.9l7.7-28.7zm2.5-10h10.5l-2 7.4H63.1l2-7.4zM81.3 289.5h10.1L81 328.2H70.9l10.4-38.7zM97.2 289.5h10.1l-10.4 38.7H86.8l10.4-38.7zM103.8 321c0-6.3 5-10.1 12.6-10.1 2.6 0 5 .4 7.3 1.1l.1-.4c.1-.5.3-1.1.3-1.8 0-1.9-1.4-3.1-4.9-3.1-2.7 0-5.7.6-7.7 1.4l-1.4-7.3c3-1.1 7.2-1.8 11.3-1.8 8.6 0 12.8 3.4 12.8 9.1 0 1.3-.2 2.7-.6 4.1l-4.2 15.8h-9.9l.8-3.1c-2.4 2.3-4.9 3.7-8.3 3.7-4.9.2-8.2-2.9-8.2-7.6zm18.5-3.6l.3-1c-1.1-.4-2.4-.6-3.8-.6-3.2 0-5.3 1.5-5.3 4.1 0 1.6 1.2 2.7 2.9 2.7 2.6-.1 5.1-2.3 5.9-5.2zM132.9 332.8l4.5-6.3c3.2 2 6.9 3 10.2 3 2.7 0 4.5-.7 5.9-2.1 1.1-1.1 1.8-2.5 2.4-4.6l.2-.6c-2.5 2.3-5.2 3.5-8.7 3.5-5.2 0-10.2-3.5-10.2-9.9 0-8.9 6.5-16.8 15.1-16.8 4.3 0 7.1 2.1 8.7 4.7l1.1-4.1h9.9l-6.1 22.8c-1.4 5.1-2.8 7.9-5.1 10.3-2.9 2.8-6.8 4.2-12.8 4.2-5.5-.1-11.4-1.7-15.1-4.1zm25.7-21.4c0-2.7-1.9-4.6-4.8-4.6-3.9 0-6.7 3.4-6.7 7.1 0 2.7 1.9 4.4 4.7 4.4 3.9.1 6.8-3.3 6.8-6.9zM186.9 321.3c2.1 0 3.9-.7 6.1-2.3l4.7 5.5c-2.9 2.5-6.7 4.3-11.7 4.3-8.5 0-13.7-5-13.7-12.7 0-8.5 6.6-17.3 17.2-17.3 8.5 0 12.2 5.7 12.2 11.9 0 2-.4 4-1.1 5.9h-19c.2 2.9 1.9 4.7 5.3 4.7zm5.6-9.8c.2-.5.3-1 .3-1.5 0-2-1.3-3.7-3.9-3.7-2.7 0-5.4 1.8-6.6 5.2h10.2z"/></g><g><path class="st0" d="M18.7 363.2v-.1c0-8.2 6.7-15 15.9-15s15.8 6.7 15.8 14.9v.1c0 8.2-6.7 15-15.9 15s-15.8-6.7-15.8-14.9zm21.9 0v-.1c0-3.5-2.5-6.5-6.1-6.5-3.7 0-6 2.9-6 6.4v.1c0 3.5 2.5 6.5 6.1 6.5 3.6 0 6-2.9 6-6.4zM54.6 348.7h10.1v4c1.9-2.4 4.5-4.7 8.6-4.7 6.1 0 9.8 4 9.8 10.6v18.8H73v-15.5c0-3.1-1.6-4.8-4-4.8s-4.2 1.7-4.2 4.8v15.5H54.6v-28.7z"/></g><g><path class="st0" d="M20.4 389.5h10.9l8.9 14.4 8.9-14.4H60v37.1H49.7v-21.3l-9.5 14.5H40l-9.4-14.4v21.2H20.4v-37.1zM66.5 389.5h10.3v13.9H90v-13.9h10.3v37.1H90v-14.1H76.8v14.1H66.5v-37.1zM105.2 420l13.3-14.1h-12.8v-8h26.1v6.6l-13.3 14.1h13.3v8h-26.6V420z"/></g><g><path class="st0" d="M19.2 461.9v-.1c0-10.8 8.3-19.3 19.6-19.3 7.6 0 12.5 3.2 15.8 7.7l-7.7 6c-2.1-2.7-4.6-4.3-8.1-4.3-5.2 0-8.9 4.4-8.9 9.8v.1c0 5.6 3.7 9.9 8.9 9.9 3.9 0 6.2-1.8 8.4-4.5l7.7 5.5c-3.5 4.8-8.2 8.4-16.4 8.4-10.8 0-19.3-8.1-19.3-19.2zM58.6 441.7h10.1v13.9c1.9-2.4 4.5-4.6 8.6-4.6 6.1 0 9.8 4 9.8 10.6v18.8H76.9v-15.5c0-3.1-1.6-4.8-4-4.8s-4.2 1.7-4.2 4.8v15.5H58.6v-38.7zM91 466.2v-.1c0-8.2 6.7-15 15.9-15s15.8 6.7 15.8 14.9v.1c0 8.2-6.7 15-15.9 15-9.1 0-15.8-6.8-15.8-14.9zm21.9 0v-.1c0-3.5-2.5-6.5-6.1-6.5-3.7 0-6 2.9-6 6.4v.1c0 3.5 2.5 6.5 6.1 6.5 3.7-.1 6-3 6-6.4zM127 441.7h10.5v7.4H127v-7.4zm.2 10h10.1v28.7h-10.1v-28.7zM141.7 466.2v-.1c0-8.1 6.3-15 15.4-15 5.9 0 9.8 2.5 12.3 6.4l-6.8 5.1c-1.4-1.9-2.9-3-5.4-3-3.2 0-5.6 2.9-5.6 6.4v.1c0 3.7 2.3 6.5 5.7 6.5 2.4 0 3.9-1.1 5.5-3l6.7 4.9c-2.7 3.9-6.5 6.6-12.8 6.6-8.6 0-15-6.8-15-14.9zM171.2 466.2v-.1c0-8.4 6-15 14.5-15 9.9 0 14.5 7.3 14.5 15.7 0 .6 0 1.4-.1 2.1h-19.2c.8 3.1 3.1 4.7 6.2 4.7 2.4 0 4.3-.9 6.4-2.9l5.6 4.6c-2.8 3.5-6.7 5.8-12.5 5.8-9.1 0-15.4-6-15.4-14.9zm19.5-2.5c-.4-3.2-2.2-5.2-5-5.2-2.7 0-4.5 2.1-5 5.2h10zM203.8 470h10.5v10.3h-10.5V470z"/></g></svg>