<svg id="Layer_1" xmlns="http://www.w3.org/2000/svg" viewBox="0 0 300 600"><style>.st0{fill:#461211}</style><path class="st0" d="M19.2 138.5v-.1c0-10.8 8.3-19.3 19.6-19.3 7.6 0 12.5 3.2 15.8 7.7l-7.7 6c-2.1-2.7-4.6-4.3-8.1-4.3-5.2 0-8.9 4.4-8.9 9.8v.1c0 5.6 3.7 9.9 8.9 9.9 3.9 0 6.2-1.8 8.4-4.5l7.7 5.5c-3.5 4.8-8.2 8.4-16.4 8.4-10.8 0-19.3-8.1-19.3-19.2zM57.1 148.7v-.1c0-5.9 4.5-9 11.2-9 2.7 0 5.3.5 6.9 1.1v-.5c0-3-1.9-4.7-5.7-4.7-3 0-5.4.6-7.9 1.6l-2.1-7.1c3.2-1.3 6.7-2.2 11.6-2.2 5.1 0 8.6 1.2 10.9 3.5 2.2 2.1 3.1 5.1 3.1 9.1v16.5h-10v-3c-2 2.2-4.7 3.6-8.4 3.6-5.4.1-9.6-3-9.6-8.8zm18.3-2.1v-1.3c-1-.4-2.4-.7-3.9-.7-2.9 0-4.6 1.4-4.6 3.6v.1c0 2 1.5 3.1 3.6 3.1 2.8-.1 4.9-2 4.9-4.8zM91.9 148v-11.7h-3.4v-8.1h3.4V121H102v7.3h6.7v8.1H102v9.7c0 2 .9 2.9 2.8 2.9 1.3 0 2.6-.4 3.8-1v7.9c-1.8 1-4.2 1.6-7 1.6-6.1 0-9.7-2.6-9.7-9.5zM111.1 142.7v-.1c0-8.1 6.3-15 15.4-15 5.9 0 9.8 2.5 12.3 6.4l-6.8 5.1c-1.4-1.9-2.9-3-5.4-3-3.2 0-5.6 2.9-5.6 6.4v.1c0 3.7 2.3 6.5 5.7 6.5 2.4 0 3.9-1.1 5.5-3l6.7 4.9c-2.7 3.9-6.5 6.6-12.8 6.6-8.7 0-15-6.8-15-14.9zM142.4 118.2h10.1v13.9c1.9-2.4 4.5-4.6 8.6-4.6 6.1 0 9.8 4 9.8 10.6v18.8h-10.1v-15.5c0-3.1-1.6-4.8-4-4.8s-4.2 1.7-4.2 4.8v15.5h-10.1v-38.7zM192.5 148v-11.7h-3.4v-8.1h3.4V121h10.1v7.3h6.7v8.1h-6.7v9.7c0 2 .9 2.9 2.8 2.9 1.3 0 2.6-.4 3.8-1v7.9c-1.8 1-4.2 1.6-7 1.6-6.1 0-9.7-2.6-9.7-9.5zM213.6 118.2h10.1v13.9c1.9-2.4 4.5-4.6 8.6-4.6 6.1 0 9.8 4 9.8 10.6v18.8H232v-15.5c0-3.1-1.6-4.8-4-4.8s-4.2 1.7-4.2 4.8v15.5h-10.1v-38.7zM246.1 142.7v-.1c0-8.4 6-15 14.5-15 9.9 0 14.5 7.3 14.5 15.7 0 .6 0 1.4-.1 2.1h-19.2c.8 3.1 3.1 4.7 6.2 4.7 2.4 0 4.3-.9 6.4-2.9l5.6 4.6c-2.8 3.5-6.7 5.8-12.5 5.8-9.1 0-15.4-6-15.4-14.9zm19.5-2.5c-.4-3.2-2.2-5.2-5-5.2-2.7 0-4.5 2.1-5 5.2h10z"/><g><path class="st0" d="M18.8 192v-.1c0-9.3 5.8-15 12.6-15 4.3 0 6.9 2 8.8 4.1v-13.5h10.1v38.7H40.2v-3.8c-2 2.4-4.5 4.5-8.8 4.5-6.7-.1-12.6-5.8-12.6-14.9zm21.6-.1v-.1c0-3.8-2.6-6.5-5.8-6.5s-5.9 2.7-5.9 6.5v.1c0 3.8 2.7 6.5 5.9 6.5s5.8-2.7 5.8-6.5zM55.7 177.5h10.1v5.8c1.6-3.9 4.3-6.5 9.1-6.3v10.6H74c-5.3 0-8.2 3-8.2 9.7v8.9H55.7v-28.7zM75.7 198v-.1c0-5.9 4.5-9 11.2-9 2.7 0 5.3.5 6.9 1.1v-.5c0-3-1.9-4.7-5.7-4.7-3 0-5.4.6-7.9 1.6l-2.1-7.1c3.2-1.3 6.7-2.2 11.6-2.2 5.1 0 8.6 1.2 10.9 3.5 2.2 2.1 3.1 5.1 3.1 9.1v16.5h-10v-3c-2 2.2-4.7 3.6-8.4 3.6-5.4 0-9.6-3.1-9.6-8.8zm18.2-2.2v-1.3c-1-.4-2.4-.7-3.9-.7-2.9 0-4.6 1.4-4.6 3.6v.1c0 2 1.5 3.1 3.6 3.1 2.9-.1 4.9-2 4.9-4.8zM108.9 177.5H119v3.9c1.9-2.4 4.5-4.6 8.5-4.6 3.8 0 6.7 1.7 8.3 4.7 2.5-2.9 5.4-4.7 9.6-4.7 6.1 0 9.8 3.8 9.8 10.5v18.8h-10.1v-15.6c0-3.1-1.5-4.8-3.9-4.8s-4.1 1.6-4.1 4.8v15.6H127v-15.6c0-3.1-1.5-4.8-3.9-4.8s-4.1 1.6-4.1 4.8v15.6h-10.1v-28.6zM159 198v-.1c0-5.9 4.5-9 11.2-9 2.7 0 5.3.5 6.9 1.1v-.5c0-3-1.9-4.7-5.7-4.7-3 0-5.4.6-7.9 1.6l-2.1-7.1c3.2-1.3 6.7-2.2 11.6-2.2 5.1 0 8.6 1.2 10.9 3.5 2.2 2.1 3.1 5.1 3.1 9.1v16.5h-10v-3c-2 2.2-4.7 3.6-8.4 3.6-5.4 0-9.6-3.1-9.6-8.8zm18.2-2.2v-1.3c-1-.4-2.4-.7-3.9-.7-2.9 0-4.6 1.4-4.6 3.6v.1c0 2 1.5 3.1 3.6 3.1 2.9-.1 4.9-2 4.9-4.8z"/></g></svg>