<?xml version="1.0" encoding="utf-8"?>
<!-- Generator: Adobe Illustrator 25.4.1, SVG Export Plug-In . SVG Version: 6.00 Build 0)  -->
<svg version="1.1" id="Layer_1" xmlns="http://www.w3.org/2000/svg" xmlns:xlink="http://www.w3.org/1999/xlink" x="0px" y="0px"
	 viewBox="0 0 300 50" style="enable-background:new 0 0 300 50;" xml:space="preserve">
<style type="text/css">
	.st0{fill:#490A09;}
</style>
<g>
	<path class="st0" d="M9.2,19.7h3.4l2,6.6l2.2-6.7h2.7l2.2,6.7l2-6.6h3.3l-3.8,11.6h-2.8l-2.3-6.6l-2.3,6.6h-2.8L9.2,19.7z"/>
	<path class="st0" d="M26.7,26.8L26.7,26.8c0-2.6,1.9-4.7,4.5-4.7c3.1,0,4.5,2.2,4.5,4.9c0,0.2,0,0.4,0,0.6h-5.9
		c0.2,1,1,1.5,1.9,1.5c0.7,0,1.3-0.3,2-0.9l1.7,1.4c-0.9,1.1-2.1,1.8-3.9,1.8C28.7,31.4,26.7,29.6,26.7,26.8z M32.7,26
		c-0.1-1-0.7-1.6-1.5-1.6c-0.8,0-1.4,0.6-1.5,1.6H32.7z"/>
	<path class="st0" d="M41.5,19.2h3.1v4.3c0.6-0.7,1.4-1.4,2.7-1.4c1.9,0,3,1.2,3,3.3v5.8h-3.1v-4.8c0-1-0.5-1.5-1.2-1.5
		c-0.8,0-1.3,0.5-1.3,1.5v4.8h-3.1V19.2z"/>
	<path class="st0" d="M51.5,28.7L51.5,28.7c0-1.9,1.4-2.8,3.5-2.8c0.8,0,1.6,0.2,2.1,0.3V26c0-0.9-0.6-1.4-1.8-1.4
		c-0.9,0-1.7,0.2-2.4,0.5l-0.6-2.2c1-0.4,2.1-0.7,3.6-0.7c1.6,0,2.7,0.4,3.4,1.1c0.7,0.7,1,1.6,1,2.8v5.1H57v-0.9
		c-0.6,0.7-1.4,1.1-2.6,1.1C52.7,31.4,51.5,30.4,51.5,28.7z M57.1,28v-0.4c-0.3-0.1-0.8-0.2-1.2-0.2c-0.9,0-1.4,0.4-1.4,1.1v0
		c0,0.6,0.5,1,1.1,1C56.5,29.5,57.1,28.9,57.1,28z"/>
	<path class="st0" d="M60.6,22.3h3.3l1.7,5.2l1.7-5.2h3.2L67,31.3h-2.8L60.6,22.3z"/>
	<path class="st0" d="M70.6,26.8L70.6,26.8c0-2.6,1.9-4.7,4.5-4.7c3.1,0,4.5,2.2,4.5,4.9c0,0.2,0,0.4,0,0.6h-5.9
		c0.2,1,1,1.5,1.9,1.5c0.7,0,1.3-0.3,2-0.9l1.7,1.4c-0.9,1.1-2.1,1.8-3.9,1.8C72.6,31.4,70.6,29.6,70.6,26.8z M76.7,26
		c-0.1-1-0.7-1.6-1.5-1.6c-0.8,0-1.4,0.6-1.5,1.6H76.7z"/>
	<path class="st0" d="M85.2,33.1l1-2.2c0.5,0.3,1,0.5,1.4,0.5c0.3,0,0.5-0.1,0.7-0.4l-3.5-8.7H88l1.8,5.3l1.7-5.3h3.2L91.4,31
		c-0.8,2.1-1.6,2.9-3.4,2.9C87,33.9,86,33.6,85.2,33.1z"/>
	<path class="st0" d="M94.8,26.8L94.8,26.8c0-2.6,2.1-4.7,4.9-4.7c2.8,0,4.9,2.1,4.9,4.6v0c0,2.5-2.1,4.6-4.9,4.6
		C96.9,31.4,94.8,29.3,94.8,26.8z M101.6,26.8L101.6,26.8c0-1.1-0.8-2-1.9-2c-1.1,0-1.9,0.9-1.9,2v0c0,1.1,0.8,2,1.9,2
		C100.9,28.8,101.6,27.9,101.6,26.8z"/>
	<path class="st0" d="M105.9,28.1v-5.8h3.1v4.8c0,1,0.5,1.5,1.3,1.5c0.7,0,1.3-0.5,1.3-1.5v-4.8h3.1v8.9h-3.1V30
		c-0.6,0.7-1.4,1.4-2.7,1.4C107,31.4,105.9,30.2,105.9,28.1z"/>
	<path class="st0" d="M116.3,22.3h3.1v1.8c0.5-1.2,1.3-2,2.8-1.9v3.3H122c-1.6,0-2.5,0.9-2.5,3v2.8h-3.1V22.3z"/>
	<path class="st0" d="M130.9,22.5h-3.4v-2.8h10.1v2.8h-3.4v8.7h-3.2V22.5z"/>
	<path class="st0" d="M138,19.7h3.6l2.6,7.3l2.6-7.3h3.5l-4.7,11.6h-2.9L138,19.7z"/>
	<path class="st0" d="M149.1,28h3.2v3.2h-3.2V28z"/>
</g>
</svg>
