<?xml version="1.0" encoding="utf-8"?>
<!-- Generator: Adobe Illustrator 25.4.1, SVG Export Plug-In . SVG Version: 6.00 Build 0)  -->
<svg version="1.1" id="Layer_1" xmlns="http://www.w3.org/2000/svg" xmlns:xlink="http://www.w3.org/1999/xlink" x="0px" y="0px"
	 viewBox="0 0 300 50" style="enable-background:new 0 0 300 50;" xml:space="preserve">
<style type="text/css">
	.st0{fill:#490A09;}
</style>
<path class="st0" d="M7.5,24.3h3.2v11.4H7.5V24.3z"/>
<path class="st0" d="M13.2,33v-3.6h-1v-2.5h1v-2.2h3.1v2.2h2.1v2.5h-2.1v3c0,0.6,0.3,0.9,0.9,0.9c0.4,0,0.8-0.1,1.2-0.3v2.4
	c-0.6,0.3-1.3,0.5-2.2,0.5C14.3,35.9,13.2,35.1,13.2,33z"/>
<path class="st0" d="M19.2,33.2L19.2,33.2c0-1.9,1.4-2.8,3.5-2.8c0.8,0,1.6,0.2,2.1,0.3v-0.1c0-0.9-0.6-1.4-1.8-1.4
	c-0.9,0-1.7,0.2-2.4,0.5L20,27.4c1-0.4,2.1-0.7,3.6-0.7c1.6,0,2.7,0.4,3.4,1.1c0.7,0.7,0.9,1.6,0.9,2.8v5.1h-3.1v-0.9
	c-0.6,0.7-1.4,1.1-2.6,1.1C20.5,35.9,19.2,34.9,19.2,33.2z M24.9,32.5v-0.4c-0.3-0.1-0.8-0.2-1.2-0.2c-0.9,0-1.4,0.4-1.4,1.1v0
	c0,0.6,0.5,1,1.1,1C24.2,34,24.9,33.4,24.9,32.5z"/>
<path class="st0" d="M29.5,23.8h3.1v11.9h-3.1V23.8z"/>
<path class="st0" d="M34,31.3L34,31.3c0-2.6,2.1-4.7,4.9-4.7c2.8,0,4.9,2.1,4.9,4.6v0c0,2.5-2.1,4.6-4.9,4.6
	C36.1,35.9,34,33.8,34,31.3z M40.8,31.3L40.8,31.3c0-1.1-0.8-2-1.9-2c-1.1,0-1.8,0.9-1.8,2v0c0,1.1,0.8,2,1.9,2
	C40.1,33.3,40.8,32.4,40.8,31.3z"/>
<path class="st0" d="M45.1,26.9h3.1V28c0.6-0.7,1.4-1.4,2.7-1.4c2.1,0,3.9,1.8,3.9,4.6v0c0,2.9-1.8,4.6-3.9,4.6
	c-1.3,0-2.1-0.6-2.7-1.3v3.7h-3.1V26.9z M51.8,31.3L51.8,31.3c0-1.2-0.8-2-1.8-2c-1,0-1.8,0.8-1.8,2v0c0,1.2,0.8,2,1.8,2
	C51,33.3,51.8,32.5,51.8,31.3z"/>
<path class="st0" d="M56.2,23.8h3.1v4.3c0.6-0.7,1.4-1.4,2.6-1.4c1.9,0,3,1.2,3,3.3v5.8h-3.1v-4.8c0-1-0.5-1.5-1.2-1.5
	c-0.8,0-1.3,0.5-1.3,1.5v4.8h-3.1V23.8z"/>
<path class="st0" d="M66.5,23.8h3.2v2.3h-3.2V23.8z M66.6,26.9h3.1v8.8h-3.1V26.9z"/>
<path class="st0" d="M71.5,23.8h3.1v11.9h-3.1V23.8z"/>
<path class="st0" d="M76,31.3L76,31.3c0-2.6,1.8-4.7,4.5-4.7c3.1,0,4.5,2.2,4.5,4.8c0,0.2,0,0.4,0,0.6H79c0.2,1,0.9,1.5,1.9,1.5
	c0.7,0,1.3-0.3,2-0.9l1.7,1.4c-0.9,1.1-2.1,1.8-3.8,1.8C77.9,35.9,76,34.1,76,31.3z M82,30.6c-0.1-1-0.7-1.6-1.5-1.6
	c-0.8,0-1.4,0.6-1.5,1.6H82z"/>
<path class="st0" d="M86,32.5h3.2v3.2H86V32.5z"/>
</svg>
