<?xml version="1.0" encoding="utf-8"?>
<!-- Generator: Adobe Illustrator 25.4.1, SVG Export Plug-In . SVG Version: 6.00 Build 0)  -->
<svg version="1.1" id="Layer_1" xmlns="http://www.w3.org/2000/svg" xmlns:xlink="http://www.w3.org/1999/xlink" x="0px" y="0px"
	 viewBox="0 0 300 50" style="enable-background:new 0 0 300 50;" xml:space="preserve">
<style type="text/css">
	.st0{fill:#490A09;}
</style>
<path class="st0" d="M95.5,24.3h9.2V27h-6V29h5.4v2.6h-5.4v4.1h-3.2V24.3z"/>
<path class="st0" d="M105.9,26.9h3.1v1.8c0.5-1.2,1.3-2,2.8-1.9V30h-0.3c-1.6,0-2.5,0.9-2.5,3v2.7h-3.1V26.9z"/>
<path class="st0" d="M112.1,33.2L112.1,33.2c0-1.9,1.4-2.8,3.5-2.8c0.8,0,1.6,0.2,2.1,0.3v-0.1c0-0.9-0.6-1.4-1.8-1.4
	c-0.9,0-1.7,0.2-2.4,0.5l-0.6-2.2c1-0.4,2.1-0.7,3.6-0.7c1.6,0,2.7,0.4,3.4,1.1c0.7,0.7,0.9,1.6,0.9,2.8v5.1h-3.1v-0.9
	c-0.6,0.7-1.4,1.1-2.6,1.1C113.4,35.9,112.1,34.9,112.1,33.2z M117.7,32.5v-0.4c-0.3-0.1-0.8-0.2-1.2-0.2c-0.9,0-1.4,0.4-1.4,1.1v0
	c0,0.6,0.5,1,1.1,1C117.1,34,117.7,33.4,117.7,32.5z"/>
<path class="st0" d="M122.3,26.9h3.1v1.2c0.6-0.7,1.4-1.4,2.6-1.4c1.9,0,3,1.2,3,3.3v5.8H128v-4.8c0-1-0.5-1.5-1.2-1.5
	c-0.8,0-1.3,0.5-1.3,1.5v4.8h-3.1V26.9z"/>
<path class="st0" d="M132.3,31.3L132.3,31.3c0-2.5,1.9-4.6,4.7-4.6c1.8,0,3,0.8,3.8,2l-2.1,1.6c-0.4-0.6-0.9-0.9-1.7-0.9
	c-1,0-1.7,0.9-1.7,2v0c0,1.1,0.7,2,1.8,2c0.7,0,1.2-0.3,1.7-0.9l2.1,1.5c-0.8,1.2-2,2-3.9,2C134.3,35.9,132.3,33.8,132.3,31.3z"/>
<path class="st0" d="M141.4,31.3L141.4,31.3c0-2.6,2.1-4.7,4.9-4.7c2.8,0,4.9,2.1,4.9,4.6v0c0,2.5-2.1,4.6-4.9,4.6
	C143.5,35.9,141.4,33.8,141.4,31.3z M148.2,31.3L148.2,31.3c0-1.1-0.8-2-1.9-2c-1.1,0-1.8,0.9-1.8,2v0c0,1.1,0.8,2,1.9,2
	C147.5,33.3,148.2,32.4,148.2,31.3z"/>
<path class="st0" d="M152.5,26.9h3.1V28c0.6-0.7,1.4-1.4,2.7-1.4c2.1,0,3.9,1.8,3.9,4.6v0c0,2.9-1.8,4.6-3.9,4.6
	c-1.3,0-2.1-0.6-2.7-1.3v3.7h-3.1V26.9z M159.2,31.3L159.2,31.3c0-1.2-0.8-2-1.8-2c-1,0-1.8,0.8-1.8,2v0c0,1.2,0.8,2,1.8,2
	C158.4,33.3,159.2,32.5,159.2,31.3z"/>
<path class="st0" d="M163.6,23.8h3.1v4.3c0.6-0.7,1.4-1.4,2.6-1.4c1.9,0,3,1.2,3,3.3v5.8h-3.1v-4.8c0-1-0.5-1.5-1.2-1.5
	c-0.8,0-1.3,0.5-1.3,1.5v4.8h-3.1V23.8z"/>
<path class="st0" d="M173.9,23.8h3.2v2.3h-3.2V23.8z M174,26.9h3.1v8.8H174V26.9z"/>
<path class="st0" d="M178.9,23.8h3.1v11.9h-3.1V23.8z"/>
<path class="st0" d="M183.4,31.3L183.4,31.3c0-2.6,1.8-4.7,4.5-4.7c3.1,0,4.5,2.2,4.5,4.8c0,0.2,0,0.4,0,0.6h-5.9
	c0.2,1,0.9,1.5,1.9,1.5c0.7,0,1.3-0.3,2-0.9l1.7,1.4c-0.8,1.1-2.1,1.8-3.8,1.8C185.4,35.9,183.4,34.1,183.4,31.3z M189.4,30.6
	c-0.1-1-0.7-1.6-1.5-1.6c-0.8,0-1.4,0.6-1.5,1.6H189.4z"/>
<path class="st0" d="M193.4,32.5h3.2v3.2h-3.2V32.5z"/>
</svg>
