<?xml version="1.0" encoding="utf-8"?>
<!-- Generator: Adobe Illustrator 25.4.1, SVG Export Plug-In . SVG Version: 6.00 Build 0)  -->
<svg version="1.1" id="Layer_1" xmlns="http://www.w3.org/2000/svg" xmlns:xlink="http://www.w3.org/1999/xlink" x="0px" y="0px"
	 viewBox="0 0 300 50" style="enable-background:new 0 0 300 50;" xml:space="preserve">
<style type="text/css">
	.st0{fill:#490A09;}
</style>
<path class="st0" d="M202.9,24.3h9.2V27h-6.1v1.7h5.5v2.5h-5.5V33h6.2v2.7h-9.3V24.3z"/>
<path class="st0" d="M213.6,32.7v-5.8h3.1v4.8c0,1,0.5,1.5,1.3,1.5c0.7,0,1.3-0.5,1.3-1.5v-4.8h3.1v8.8h-3.1v-1.2
	c-0.6,0.7-1.4,1.4-2.7,1.4C214.7,35.9,213.6,34.7,213.6,32.7z"/>
<path class="st0" d="M224,26.9h3.1v1.8c0.5-1.2,1.3-2,2.8-1.9V30h-0.3c-1.6,0-2.5,0.9-2.5,3v2.7H224V26.9z"/>
<path class="st0" d="M230.5,31.3L230.5,31.3c0-2.6,2.1-4.7,4.9-4.7c2.8,0,4.9,2.1,4.9,4.6v0c0,2.5-2.1,4.6-4.9,4.6
	C232.5,35.9,230.5,33.8,230.5,31.3z M237.3,31.3L237.3,31.3c0-1.1-0.8-2-1.9-2c-1.1,0-1.8,0.9-1.8,2v0c0,1.1,0.8,2,1.9,2
	C236.5,33.3,237.3,32.4,237.3,31.3z"/>
<path class="st0" d="M241.6,26.9h3.1V28c0.6-0.7,1.4-1.4,2.7-1.4c2.1,0,3.9,1.8,3.9,4.6v0c0,2.9-1.8,4.6-3.9,4.6
	c-1.3,0-2.1-0.6-2.7-1.3v3.7h-3.1V26.9z M248.2,31.3L248.2,31.3c0-1.2-0.8-2-1.8-2c-1,0-1.8,0.8-1.8,2v0c0,1.2,0.8,2,1.8,2
	C247.4,33.3,248.2,32.5,248.2,31.3z"/>
<path class="st0" d="M252.6,23.8h3.1v4.3c0.6-0.7,1.4-1.4,2.6-1.4c1.9,0,3,1.2,3,3.3v5.8h-3.1v-4.8c0-1-0.5-1.5-1.2-1.5
	c-0.8,0-1.3,0.5-1.3,1.5v4.8h-3.1V23.8z"/>
<path class="st0" d="M263,23.8h3.2v2.3H263V23.8z M263.1,26.9h3.1v8.8h-3.1V26.9z"/>
<path class="st0" d="M268,23.8h3.1v11.9H268V23.8z"/>
<path class="st0" d="M272.5,31.3L272.5,31.3c0-2.6,1.8-4.7,4.5-4.7c3.1,0,4.5,2.2,4.5,4.8c0,0.2,0,0.4,0,0.6h-5.9
	c0.2,1,0.9,1.5,1.9,1.5c0.7,0,1.3-0.3,2-0.9l1.7,1.4c-0.8,1.1-2.1,1.8-3.8,1.8C274.4,35.9,272.5,34.1,272.5,31.3z M278.5,30.6
	c-0.1-1-0.7-1.6-1.5-1.6c-0.8,0-1.4,0.6-1.5,1.6H278.5z"/>
<path class="st0" d="M282.5,32.5h3.2v3.2h-3.2V32.5z"/>
</svg>
