<?xml version="1.0" encoding="utf-8"?>
<!-- Generator: Adobe Illustrator 25.4.1, SVG Export Plug-In . SVG Version: 6.00 Build 0)  -->
<svg version="1.1" id="Layer_1" xmlns="http://www.w3.org/2000/svg" xmlns:xlink="http://www.w3.org/1999/xlink" x="0px" y="0px"
	 viewBox="0 0 300 50" style="enable-background:new 0 0 300 50;" xml:space="preserve">
<style type="text/css">
	.st0{fill:#FFFFFF;}
</style>
<g>
	<path class="st0" d="M10.8,19.1H7.5v-2.7h9.7v2.7h-3.3v8.3h-3.1V19.1z"/>
	<path class="st0" d="M18.3,15.9h3v4.1c0.6-0.7,1.3-1.4,2.5-1.4c1.8,0,2.9,1.2,2.9,3.1v5.6h-3v-4.6c0-0.9-0.5-1.4-1.2-1.4
		c-0.7,0-1.3,0.5-1.3,1.4v4.6h-3V15.9z"/>
	<path class="st0" d="M27.9,23.2L27.9,23.2c0-2.5,1.8-4.5,4.3-4.5c2.9,0,4.3,2.2,4.3,4.7c0,0.2,0,0.4,0,0.6h-5.7
		c0.2,0.9,0.9,1.4,1.8,1.4c0.7,0,1.3-0.3,1.9-0.9l1.7,1.4c-0.8,1-2,1.7-3.7,1.7C29.8,27.6,27.9,25.8,27.9,23.2z M33.7,22.5
		c-0.1-0.9-0.7-1.5-1.5-1.5c-0.8,0-1.3,0.6-1.5,1.5H33.7z"/>
	<path class="st0" d="M41.6,16.4h3.2l1.9,6.4l2.1-6.4h2.6l2.1,6.4l1.9-6.4h3.2L55,27.5h-2.7l-2.2-6.3l-2.2,6.3h-2.7L41.6,16.4z"/>
	<path class="st0" d="M58.3,23.2L58.3,23.2c0-2.5,2-4.5,4.7-4.5c2.7,0,4.7,2,4.7,4.4v0c0,2.4-2,4.5-4.7,4.5
		C60.3,27.6,58.3,25.6,58.3,23.2z M64.8,23.2L64.8,23.2c0-1.1-0.8-2-1.8-2c-1.1,0-1.8,0.9-1.8,1.9v0c0,1,0.8,1.9,1.8,1.9
		C64.1,25.1,64.8,24.2,64.8,23.2z"/>
	<path class="st0" d="M69,18.9h3v1.7c0.5-1.2,1.3-1.9,2.7-1.9v3.1h-0.3c-1.6,0-2.4,0.9-2.4,2.9v2.6h-3V18.9z"/>
	<path class="st0" d="M75.8,15.9h3v11.5h-3V15.9z"/>
	<path class="st0" d="M80.1,23.2L80.1,23.2c0-2.8,1.7-4.5,3.7-4.5c1.3,0,2,0.6,2.6,1.2v-4h3v11.5h-3v-1.1c-0.6,0.7-1.3,1.3-2.6,1.3
		C81.9,27.6,80.1,25.9,80.1,23.2z M86.5,23.2L86.5,23.2c0-1.1-0.8-2-1.7-2c-1,0-1.7,0.8-1.7,1.9v0c0,1.1,0.8,1.9,1.7,1.9
		C85.8,25.1,86.5,24.3,86.5,23.2z"/>
	<path class="st0" d="M90.6,20.9c1.1-0.1,1.6-0.6,1.6-1.5H91v-3.1h3.1v2.5c0,2.3-1.3,3.1-3.2,3.2L90.6,20.9z"/>
	<path class="st0" d="M94.8,26.3l1.1-1.8c1,0.6,2,1,2.9,1c0.5,0,0.8-0.2,0.8-0.5v0c0-0.3-0.5-0.5-1.4-0.7c-1.7-0.4-3-1-3-2.7v0
		c0-1.8,1.4-2.8,3.4-2.8c1.2,0,2.5,0.4,3.5,1l-1,1.9c-0.9-0.5-1.8-0.8-2.5-0.8c-0.5,0-0.7,0.2-0.7,0.4v0c0,0.3,0.5,0.5,1.4,0.8
		c1.7,0.5,3,1.1,3,2.7v0c0,1.9-1.4,2.8-3.5,2.8C97.4,27.6,96,27.2,94.8,26.3z"/>
	<path class="st0" d="M108.1,16.4h5.6c1.4,0,2.4,0.3,3,1c0.4,0.4,0.7,1,0.7,1.8v0c0,1.3-0.7,2-1.7,2.5c1.3,0.4,2.2,1.2,2.2,2.7v0
		c0,1.9-1.5,3-4.2,3h-5.7V16.4z M113,20.8c0.9,0,1.4-0.3,1.4-1v0c0-0.6-0.5-0.9-1.4-0.9h-2v1.9H113z M113.4,25c0.9,0,1.5-0.4,1.5-1
		v0c0-0.6-0.5-1-1.5-1H111v2H113.4z"/>
	<path class="st0" d="M118.8,23.2L118.8,23.2c0-2.5,1.8-4.5,4.3-4.5c2.9,0,4.3,2.2,4.3,4.7c0,0.2,0,0.4,0,0.6h-5.7
		c0.2,0.9,0.9,1.4,1.8,1.4c0.7,0,1.3-0.3,1.9-0.9l1.7,1.4c-0.8,1-2,1.7-3.7,1.7C120.7,27.6,118.8,25.8,118.8,23.2z M124.6,22.5
		c-0.1-0.9-0.7-1.5-1.5-1.5c-0.8,0-1.3,0.6-1.5,1.5H124.6z"/>
	<path class="st0" d="M128,26.3l1.1-1.8c1,0.6,2,1,2.9,1c0.5,0,0.8-0.2,0.8-0.5v0c0-0.3-0.5-0.5-1.4-0.7c-1.7-0.4-3-1-3-2.7v0
		c0-1.8,1.4-2.8,3.4-2.8c1.2,0,2.5,0.4,3.5,1l-1,1.9c-0.9-0.5-1.8-0.8-2.5-0.8c-0.5,0-0.7,0.2-0.7,0.4v0c0,0.3,0.5,0.5,1.4,0.8
		c1.7,0.5,3,1.1,3,2.7v0c0,1.9-1.4,2.8-3.5,2.8C130.6,27.6,129.2,27.2,128,26.3z"/>
	<path class="st0" d="M137.1,24.8v-3.5h-1v-2.4h1v-2.2h3v2.2h2v2.4h-2v2.9c0,0.6,0.3,0.8,0.8,0.8c0.4,0,0.8-0.1,1.1-0.3v2.3
		c-0.5,0.3-1.2,0.5-2.1,0.5C138.2,27.6,137.1,26.8,137.1,24.8z"/>
	<path class="st0" d="M150.6,19.1h-3.3v-2.7h9.7v2.7h-3.3v8.3h-3.1V19.1z"/>
	<path class="st0" d="M157.4,16.4h3.4l2.5,7l2.5-7h3.4l-4.5,11.1h-2.8L157.4,16.4z"/>
	<path class="st0" d="M174.5,15.9h3v11.5h-3V15.9z"/>
	<path class="st0" d="M179.1,15.9h3.1v2.2h-3.1V15.9z M179.2,18.9h3v8.5h-3V18.9z"/>
	<path class="st0" d="M183.2,18.9h3.1l1.6,5l1.6-5h3.1l-3.4,8.6h-2.7L183.2,18.9z"/>
	<path class="st0" d="M192.9,23.2L192.9,23.2c0-2.5,1.8-4.5,4.3-4.5c2.9,0,4.3,2.2,4.3,4.7c0,0.2,0,0.4,0,0.6h-5.7
		c0.2,0.9,0.9,1.4,1.8,1.4c0.7,0,1.3-0.3,1.9-0.9l1.7,1.4c-0.8,1-2,1.7-3.7,1.7C194.7,27.6,192.9,25.8,192.9,23.2z M198.6,22.5
		c-0.1-0.9-0.7-1.5-1.5-1.5c-0.8,0-1.3,0.6-1.5,1.5H198.6z"/>
	<path class="st0" d="M202.1,26.3l1.1-1.8c1,0.6,2,1,2.9,1c0.5,0,0.8-0.2,0.8-0.5v0c0-0.3-0.5-0.5-1.4-0.7c-1.7-0.4-3-1-3-2.7v0
		c0-1.8,1.4-2.8,3.4-2.8c1.2,0,2.5,0.4,3.5,1l-1,1.9c-0.9-0.5-1.8-0.8-2.5-0.8c-0.5,0-0.7,0.2-0.7,0.4v0c0,0.3,0.5,0.5,1.4,0.8
		c1.7,0.5,3,1.1,3,2.7v0c0,1.9-1.4,2.8-3.5,2.8C204.7,27.6,203.3,27.2,202.1,26.3z"/>
	<path class="st0" d="M215.2,15.9h3v4.1c0.6-0.7,1.3-1.4,2.5-1.4c1.8,0,2.9,1.2,2.9,3.1v5.6h-3v-4.6c0-0.9-0.5-1.4-1.2-1.4
		c-0.7,0-1.3,0.5-1.3,1.4v4.6h-3V15.9z"/>
	<path class="st0" d="M224.8,23.2L224.8,23.2c0-2.5,1.8-4.5,4.3-4.5c2.9,0,4.3,2.2,4.3,4.7c0,0.2,0,0.4,0,0.6h-5.7
		c0.2,0.9,0.9,1.4,1.8,1.4c0.7,0,1.3-0.3,1.9-0.9l1.7,1.4c-0.8,1-2,1.7-3.7,1.7C226.7,27.6,224.8,25.8,224.8,23.2z M230.6,22.5
		c-0.1-0.9-0.7-1.5-1.5-1.5c-0.8,0-1.3,0.6-1.5,1.5H230.6z"/>
	<path class="st0" d="M234.6,18.9h3v1.7c0.5-1.2,1.3-1.9,2.7-1.9v3.1h-0.3c-1.6,0-2.4,0.9-2.4,2.9v2.6h-3V18.9z"/>
	<path class="st0" d="M240.9,23.2L240.9,23.2c0-2.5,1.8-4.5,4.3-4.5c2.9,0,4.3,2.2,4.3,4.7c0,0.2,0,0.4,0,0.6h-5.7
		c0.2,0.9,0.9,1.4,1.8,1.4c0.7,0,1.3-0.3,1.9-0.9l1.7,1.4c-0.8,1-2,1.7-3.7,1.7C242.8,27.6,240.9,25.8,240.9,23.2z M246.7,22.5
		c-0.1-0.9-0.7-1.5-1.5-1.5c-0.8,0-1.3,0.6-1.5,1.5H246.7z"/>
	<path class="st0" d="M250.6,24.3h3.1v3.1h-3.1V24.3z"/>
</g>
</svg>
