<?xml version="1.0" encoding="utf-8"?>
<!-- Generator: Adobe Illustrator 25.4.1, SVG Export Plug-In . SVG Version: 6.00 Build 0)  -->
<svg version="1.1" id="Layer_1" xmlns="http://www.w3.org/2000/svg" xmlns:xlink="http://www.w3.org/1999/xlink" x="0px" y="0px"
	 viewBox="0 0 300 50" style="enable-background:new 0 0 300 50;" xml:space="preserve">
<style type="text/css">
	.st0{clip-path:url(#SVGID_00000131333690205392934460000008263668033763243139_);fill:#AC1F2D;}
	.st1{clip-path:url(#SVGID_00000131333690205392934460000008263668033763243139_);fill:#FFFFFF;}
</style>
<g>
	<defs>
		<rect id="SVGID_1_" x="274.8" y="3.8" width="22.7" height="21.5"/>
	</defs>
	<clipPath id="SVGID_00000023981515867711591510000016201308718591431094_">
		<use xlink:href="#SVGID_1_"  style="overflow:visible;"/>
	</clipPath>
	<path style="clip-path:url(#SVGID_00000023981515867711591510000016201308718591431094_);fill:#AC1F2D;" d="M296,14.8
		c0,5.5-4.4,9.9-9.9,9.9c-5.5,0-9.9-4.4-9.9-9.9s4.4-9.9,9.9-9.9C291.6,4.8,296,9.3,296,14.8"/>
	<path style="clip-path:url(#SVGID_00000023981515867711591510000016201308718591431094_);fill:#FFFFFF;" d="M290.1,12.9v1.1h1.3
		l-1.5,2.4h3.7v-1.2H292l1.5-2.3H290.1z M282.7,11.5l-1.2,2.7l-1.2-2.7h-1.7v4.9h1.4v-2.6l1.2,2.6h0.6l1.2-2.7v2.7h1.4v-4.9H282.7z
		 M288.1,11.5v1.7h-1.7v-1.7h-1.5v4.9h1.5v-1.9h1.7v1.9h1.5v-4.9H288.1z"/>
	<path style="clip-path:url(#SVGID_00000023981515867711591510000016201308718591431094_);fill:#FFFFFF;" d="M290,18.5h1.3v-0.4
		h-0.9v-0.3h0.8v-0.4h-0.8v-0.2h0.9v-0.4H290V18.5z M288.9,18.5c0.4,0,0.6-0.2,0.7-0.4l-0.3-0.2c-0.1,0.1-0.2,0.2-0.4,0.2
		c-0.2,0-0.4-0.2-0.4-0.4v0c0-0.2,0.2-0.4,0.4-0.4c0.2,0,0.3,0.1,0.4,0.2l0.3-0.3c-0.1-0.2-0.4-0.3-0.7-0.3c-0.5,0-0.9,0.4-0.9,0.8
		v0C288.1,18.1,288.5,18.5,288.9,18.5 M287.3,18.5h0.5v-1.6h-0.5V18.5z M286,18.1c-0.2,0-0.4-0.2-0.4-0.4v0c0-0.2,0.2-0.4,0.4-0.4
		c0.2,0,0.4,0.2,0.4,0.4v0C286.4,17.9,286.2,18.1,286,18.1 M286,18.5c0.5,0,0.9-0.4,0.9-0.8v0c0-0.5-0.4-0.8-0.9-0.8
		c-0.5,0-0.9,0.4-0.9,0.8v0C285.1,18.1,285.5,18.5,286,18.5 M283.3,18.5h0.5v-0.6h0.6v0.6h0.5v-1.6h-0.5v0.6h-0.6v-0.6h-0.5V18.5z
		 M282.2,18.5c0.4,0,0.6-0.2,0.7-0.4l-0.3-0.2c-0.1,0.1-0.2,0.2-0.4,0.2c-0.2,0-0.4-0.2-0.4-0.4v0c0-0.2,0.2-0.4,0.4-0.4
		c0.2,0,0.3,0.1,0.4,0.2l0.3-0.3c-0.1-0.2-0.4-0.3-0.7-0.3c-0.5,0-0.9,0.4-0.9,0.8v0C281.4,18.1,281.7,18.5,282.2,18.5"/>
</g>
</svg>
