<?xml version="1.0" encoding="utf-8"?>
<!-- Generator: Adobe Illustrator 26.3.1, SVG Export Plug-In . SVG Version: 6.00 Build 0)  -->
<svg version="1.1" id="Layer_1" xmlns="http://www.w3.org/2000/svg" xmlns:xlink="http://www.w3.org/1999/xlink" x="0px" y="0px"
	 viewBox="0 0 336 280" style="enable-background:new 0 0 336 280;" xml:space="preserve">
<style type="text/css">
	.st0{fill:#490A09;}
</style>
<g>
	<path class="st0" d="M18.6,101.4h8.3v11.2h10.6v-11.2h8.3v29.8h-8.3v-11.3H26.9v11.3h-8.3V101.4z"/>
	<path class="st0" d="M49.7,119.8L49.7,119.8c0-6.8,4.8-12.2,11.6-12.2c8,0,11.6,5.8,11.6,12.6c0,0.5,0,1.1,0,1.7H57.5
		c0.6,2.5,2.5,3.8,5,3.8c1.9,0,3.5-0.7,5.1-2.3l4.5,3.7c-2.2,2.8-5.4,4.7-10,4.7C54.8,131.8,49.7,127,49.7,119.8z M65.4,117.8
		c-0.3-2.6-1.8-4.2-4-4.2c-2.1,0-3.6,1.7-4,4.2H65.4z"/>
	<path class="st0" d="M86.5,108.2h7.9l3,11.6l3.5-11.7h6.7l3.6,11.8l3.1-11.7h7.8l-7.1,23.2h-7l-3.8-12l-3.8,12h-6.9L86.5,108.2z"/>
	<path class="st0" d="M122.7,124.6L122.7,124.6c0-4.9,3.6-7.3,9-7.3c2.1,0,4.2,0.4,5.5,0.9v-0.4c0-2.4-1.5-3.8-4.6-3.8
		c-2.4,0-4.3,0.5-6.4,1.3l-1.7-5.7c2.6-1.1,5.4-1.8,9.3-1.8c4.1,0,6.9,1,8.8,2.8c1.7,1.7,2.5,4.1,2.5,7.3v13.3h-8v-2.4
		c-1.6,1.7-3.8,2.9-6.8,2.9C126.1,131.8,122.7,129.2,122.7,124.6z M137.4,122.9v-1.1c-0.8-0.3-2-0.6-3.2-0.6c-2.3,0-3.7,1.2-3.7,2.9
		v0.1c0,1.6,1.2,2.5,2.9,2.5C135.7,126.7,137.4,125.2,137.4,122.9z"/>
	<path class="st0" d="M147.7,128.4l3-4.9c2.6,1.7,5.5,2.6,7.9,2.6c1.4,0,2-0.4,2-1.2v-0.1c0-0.9-1.3-1.3-3.7-2
		c-4.6-1.2-8.2-2.7-8.2-7.4v-0.1c0-4.9,3.9-7.6,9.3-7.6c3.4,0,6.9,1,9.5,2.7l-2.8,5.1c-2.4-1.3-5-2.1-6.8-2.1
		c-1.2,0-1.9,0.5-1.9,1.1v0.1c0,0.9,1.3,1.3,3.8,2c4.6,1.3,8.2,2.9,8.2,7.3v0.1c0,5.1-3.8,7.7-9.4,7.7
		C154.7,131.8,150.9,130.7,147.7,128.4z"/>
	<path class="st0" d="M183.1,100.1h8.1v11.2c1.5-1.9,3.6-3.7,6.9-3.7c4.9,0,7.8,3.2,7.8,8.5v15.1h-8.1v-12.5c0-2.5-1.3-3.9-3.2-3.9
		c-2,0-3.4,1.4-3.4,3.9v12.5h-8.1V100.1z"/>
	<path class="st0" d="M209.2,119.8L209.2,119.8c0-6.8,4.8-12.2,11.6-12.2c8,0,11.6,5.8,11.6,12.6c0,0.5,0,1.1,0,1.7H217
		c0.6,2.5,2.5,3.8,5,3.8c1.9,0,3.5-0.7,5.1-2.3l4.5,3.7c-2.2,2.8-5.4,4.7-10,4.7C214.3,131.8,209.2,127,209.2,119.8z M224.9,117.8
		c-0.3-2.6-1.8-4.2-4-4.2c-2.1,0-3.6,1.7-4,4.2H224.9z"/>
	<path class="st0" d="M236,108.2h8.1v4.6c1.3-3.2,3.5-5.2,7.3-5v8.5h-0.7c-4.2,0-6.6,2.4-6.6,7.8v7.2H236V108.2z"/>
</g>
<g>
	<path class="st0" d="M18.2,141.7h8.1v11.2c1.5-1.9,3.6-3.7,6.9-3.7c4.9,0,7.8,3.2,7.8,8.5v15.1h-8.1v-12.5c0-2.5-1.3-3.9-3.2-3.9
		c-2,0-3.4,1.4-3.4,3.9v12.5h-8.1V141.7z"/>
	<path class="st0" d="M45,164.9v-15.1h8.1v12.5c0,2.5,1.3,3.9,3.3,3.9c1.9,0,3.4-1.4,3.4-3.9v-12.5h8.1v23.1h-8.1v-3.2
		c-1.5,1.9-3.6,3.7-6.9,3.7C48,173.4,45,170.1,45,164.9z"/>
	<path class="st0" d="M70.5,170l3-4.9c2.6,1.7,5.5,2.6,7.9,2.6c1.4,0,2-0.4,2-1.2v-0.1c0-0.9-1.3-1.3-3.7-2
		c-4.6-1.2-8.2-2.7-8.2-7.4V157c0-4.9,3.9-7.6,9.3-7.6c3.4,0,6.9,1,9.5,2.7l-2.8,5.1c-2.4-1.3-5-2.1-6.8-2.1c-1.2,0-1.9,0.5-1.9,1.1
		v0.1c0,0.9,1.3,1.3,3.8,2c4.6,1.3,8.2,2.9,8.2,7.3v0.1c0,5.1-3.8,7.7-9.4,7.7C77.5,173.4,73.7,172.3,70.5,170z"/>
	<path class="st0" d="M102.2,170v2.8h-8.1v-31.1h8.1v11.1c1.6-1.9,3.5-3.6,7-3.6c5.5,0,10.2,4.6,10.2,11.9v0.1
		c0,7.5-4.7,12.1-10.2,12.1C105.8,173.4,103.7,171.8,102.2,170z M111.5,161.3L111.5,161.3c0-3.1-2.1-5.3-4.7-5.3
		c-2.6,0-4.7,2.2-4.7,5.2v0.1c0,3.1,2.1,5.2,4.7,5.2C109.4,166.6,111.5,164.5,111.5,161.3z"/>
	<path class="st0" d="M121.8,166.2L121.8,166.2c0-4.9,3.6-7.3,9-7.3c2.1,0,4.2,0.4,5.5,0.9v-0.4c0-2.4-1.5-3.8-4.6-3.8
		c-2.4,0-4.3,0.5-6.4,1.3l-1.7-5.7c2.6-1.1,5.4-1.8,9.3-1.8c4.1,0,6.9,1,8.8,2.8c1.7,1.7,2.5,4.1,2.5,7.3v13.3h-8v-2.4
		c-1.6,1.7-3.8,2.9-6.8,2.9C125.2,173.4,121.8,170.9,121.8,166.2z M136.5,164.5v-1.1c-0.8-0.3-2-0.6-3.2-0.6c-2.3,0-3.7,1.2-3.7,2.9
		v0.1c0,1.6,1.2,2.5,2.9,2.5C134.8,168.3,136.5,166.8,136.5,164.5z"/>
	<path class="st0" d="M148.5,149.8h8.1v3.2c1.5-1.9,3.6-3.8,6.9-3.8c4.9,0,7.8,3.2,7.8,8.5v15.1h-8.1v-12.5c0-2.5-1.3-3.9-3.2-3.9
		c-2,0-3.4,1.4-3.4,3.9v12.5h-8.1V149.8z"/>
	<path class="st0" d="M174.7,161.4L174.7,161.4c0-7.6,4.7-12.2,10.1-12.2c3.5,0,5.5,1.6,7.1,3.3v-10.9h8.1v31.1h-8.1v-3.1
		c-1.6,1.9-3.6,3.6-7,3.6C179.4,173.4,174.7,168.8,174.7,161.4z M192,161.3L192,161.3c0-3.1-2.1-5.3-4.7-5.3s-4.7,2.1-4.7,5.2v0.1
		c0,3.1,2.1,5.2,4.7,5.2S192,164.4,192,161.3z"/>
	<path class="st0" d="M204,164.5h8.4v8.3H204V164.5z"/>
</g>
</svg>
