<?xml version="1.0" encoding="utf-8"?>
<!-- Generator: Adobe Illustrator 26.3.1, SVG Export Plug-In . SVG Version: 6.00 Build 0)  -->
<svg version="1.1" id="Layer_1" xmlns="http://www.w3.org/2000/svg" xmlns:xlink="http://www.w3.org/1999/xlink" x="0px" y="0px"
	 viewBox="0 0 336 280" style="enable-background:new 0 0 336 280;" xml:space="preserve">
<style type="text/css">
	.st0{fill:#490A09;}
</style>
<g>
	<path class="st0" d="M17.7,104.7c0-9.2,7.5-17.2,18.4-17.2c5.8,0,9.9,2.3,11.9,4.9l-5.3,5.2c-1.7-1.7-4-3-7.1-3
		c-5.8,0-9.8,4.5-9.8,9.8c0,4,2.9,6.1,6.4,6.1c1.6,0,2.8-0.3,3.8-0.8l1.2-3.9h-5.5l1.5-5.8h13.2l-4.1,14.5
		c-2.8,1.6-6.5,2.9-10.8,2.9C24.7,117.4,17.7,113.5,17.7,104.7z"/>
	<path class="st0" d="M54.3,86.8h7.8l-8.1,30h-7.8L54.3,86.8z"/>
	<path class="st0" d="M60.5,107c0-6.7,5.6-12.9,13.1-12.9c6.8,0,10.9,4.5,10.9,10.3c0,6.7-5.6,12.9-13.1,12.9
		C64.6,117.3,60.5,112.9,60.5,107z M77,104.7c0-2.5-1.6-4.1-3.9-4.1c-3.1,0-5.2,3.2-5.2,6.1c0,2.5,1.6,4.1,3.9,4.1
		C75,110.8,77,107.6,77,104.7z"/>
	<path class="st0" d="M90.9,94.6h7.8l-1.2,4.5c2.1-3.2,4.7-5.1,8.3-4.8l-2.2,8.2h-0.7c-4.3,0-7,2.4-8.4,7.7l-1.8,6.7h-7.8L90.9,94.6
		z"/>
	<path class="st0" d="M108.7,94.6h7.8l-6,22.2h-7.8L108.7,94.6z M110.7,86.8h8.1l-1.6,5.8h-8.1L110.7,86.8z"/>
	<path class="st0" d="M115.8,111.2c0-4.9,3.9-7.8,9.8-7.8c2,0,3.9,0.3,5.6,0.9l0.1-0.3c0.1-0.4,0.2-0.8,0.2-1.4
		c0-1.4-1.1-2.4-3.8-2.4c-2.1,0-4.4,0.5-6,1.1l-1.1-5.7c2.3-0.8,5.5-1.4,8.7-1.4c6.7,0,9.9,2.6,9.9,7.1c0,1-0.2,2.1-0.5,3.2
		l-3.3,12.2h-7.7l0.6-2.4c-1.9,1.8-3.8,2.8-6.4,2.8C118.4,117.2,115.8,114.9,115.8,111.2z M130.2,108.4l0.2-0.7
		c-0.9-0.3-1.8-0.5-2.9-0.5c-2.5,0-4.1,1.2-4.1,3.2c0,1.3,0.9,2.1,2.2,2.1C127.7,112.4,129.6,110.7,130.2,108.4z"/>
</g>
<g>
	<path class="st0" d="M142.1,108.8h8.1v8h-8.1V108.8z"/>
</g>
</svg>
