<?xml version="1.0" encoding="utf-8"?>
<!-- Generator: Adobe Illustrator 26.3.1, SVG Export Plug-In . SVG Version: 6.00 Build 0)  -->
<svg version="1.1" id="Layer_1" xmlns="http://www.w3.org/2000/svg" xmlns:xlink="http://www.w3.org/1999/xlink" x="0px" y="0px"
	 viewBox="0 0 336 280" style="enable-background:new 0 0 336 280;" xml:space="preserve">
<style type="text/css">
	.st0{fill:#490A09;}
</style>
<g>
	<path class="st0" d="M25.2,141.9h-8.6v-7h25.2v7h-8.6v21.8h-8V141.9z"/>
	<path class="st0" d="M44.8,133.6h7.8v10.8c1.4-1.8,3.5-3.5,6.7-3.5c4.7,0,7.6,3.1,7.6,8.2v14.5h-7.8v-12c0-2.4-1.3-3.7-3.1-3.7
		c-1.9,0-3.3,1.3-3.3,3.7v12h-7.8V133.6z"/>
	<path class="st0" d="M70,152.6L70,152.6c0-6.6,4.6-11.7,11.2-11.7c7.7,0,11.2,5.6,11.2,12.2c0,0.5,0,1.1,0,1.6H77.5
		c0.6,2.4,2.4,3.7,4.8,3.7c1.8,0,3.3-0.7,4.9-2.3l4.3,3.6c-2.1,2.7-5.2,4.5-9.7,4.5C74.9,164.2,70,159.5,70,152.6z M85.1,150.7
		c-0.3-2.5-1.7-4-3.9-4c-2.1,0-3.5,1.6-3.9,4H85.1z"/>
	<path class="st0" d="M107.1,141.4h7.8v3.1c1.4-1.8,3.5-3.6,6.7-3.6c4.7,0,7.6,3.1,7.6,8.2v14.5h-7.8v-12c0-2.4-1.3-3.7-3.1-3.7
		c-1.9,0-3.3,1.3-3.3,3.7v12h-7.8V141.4z"/>
	<path class="st0" d="M132.3,152.6L132.3,152.6c0-6.6,4.6-11.7,11.2-11.7c7.7,0,11.2,5.6,11.2,12.2c0,0.5,0,1.1,0,1.6h-14.9
		c0.6,2.4,2.4,3.7,4.8,3.7c1.8,0,3.3-0.7,4.9-2.3l4.3,3.6c-2.1,2.7-5.2,4.5-9.7,4.5C137.2,164.2,132.3,159.5,132.3,152.6z
		 M147.4,150.7c-0.3-2.5-1.7-4-3.9-4c-2.1,0-3.5,1.6-3.9,4H147.4z"/>
	<path class="st0" d="M155.4,141.4h7.6l2.9,11.2l3.4-11.3h6.4l3.5,11.3l3-11.3h7.5l-6.9,22.4h-6.7l-3.6-11.5l-3.7,11.5h-6.7
		L155.4,141.4z"/>
</g>
<g>
	<path class="st0" d="M18.2,172.7h23v7h-15v4.9h13.6v6.6H26.1v10.3h-8V172.7z"/>
	<path class="st0" d="M44.3,179.2h7.8v4.5c1.3-3,3.3-5,7-4.8v8.2h-0.7c-4.1,0-6.4,2.3-6.4,7.5v6.9h-7.8V179.2z"/>
	<path class="st0" d="M60.6,190.5L60.6,190.5c0-6.6,4.6-11.7,11.2-11.7c7.7,0,11.2,5.6,11.2,12.2c0,0.5,0,1.1,0,1.6H68.1
		c0.6,2.4,2.4,3.7,4.8,3.7c1.8,0,3.3-0.7,4.9-2.3l4.3,3.6c-2.1,2.7-5.2,4.5-9.7,4.5C65.5,202,60.6,197.4,60.6,190.5z M75.7,188.5
		c-0.3-2.5-1.7-4-3.9-4c-2.1,0-3.5,1.6-3.9,4H75.7z"/>
	<path class="st0" d="M86.4,179.2h7.8v3.1c1.4-1.8,3.5-3.6,6.7-3.6c4.7,0,7.6,3.1,7.6,8.2v14.5h-7.8v-12c0-2.4-1.3-3.7-3.1-3.7
		c-1.9,0-3.3,1.3-3.3,3.7v12h-7.8V179.2z"/>
	<path class="st0" d="M111.5,190.5L111.5,190.5c0-6.4,4.9-11.7,11.9-11.7c4.6,0,7.6,2,9.5,5l-5.3,3.9c-1.1-1.5-2.3-2.3-4.1-2.3
		c-2.5,0-4.4,2.2-4.4,4.9v0.1c0,2.9,1.8,5.1,4.4,5.1c1.8,0,3-0.9,4.3-2.3l5.2,3.8c-2.1,3-5,5.1-9.9,5.1
		C116.4,202,111.5,196.7,111.5,190.5z"/>
	<path class="st0" d="M135.8,171.5h7.8v10.8c1.4-1.8,3.5-3.5,6.7-3.5c4.7,0,7.6,3.1,7.6,8.2v14.5H150v-12c0-2.4-1.3-3.7-3.1-3.7
		c-1.9,0-3.3,1.3-3.3,3.7v12h-7.8V171.5z"/>
	<path class="st0" d="M174.6,194.6v-9h-2.6v-6.3h2.6v-5.6h7.8v5.6h5.2v6.3h-5.2v7.5c0,1.6,0.7,2.2,2.1,2.2c1,0,2-0.3,3-0.7v6.1
		c-1.4,0.8-3.2,1.3-5.4,1.3C177.4,201.9,174.6,199.9,174.6,194.6z"/>
	<path class="st0" d="M190.9,171.5h7.8v10.8c1.4-1.8,3.5-3.5,6.7-3.5c4.7,0,7.6,3.1,7.6,8.2v14.5h-7.8v-12c0-2.4-1.3-3.7-3.1-3.7
		c-1.9,0-3.3,1.3-3.3,3.7v12h-7.8V171.5z"/>
	<path class="st0" d="M217,179.2h7.8v4.5c1.3-3,3.3-5,7-4.8v8.2h-0.7c-4.1,0-6.4,2.3-6.4,7.5v6.9H217V179.2z"/>
	<path class="st0" d="M234.6,171.5h8.1v5.8h-8.1V171.5z M234.7,179.2h7.8v22.2h-7.8V179.2z"/>
	<path class="st0" d="M247,171.5h7.8v30H247V171.5z"/>
	<path class="st0" d="M259.4,171.5h7.8v30h-7.8V171.5z"/>
	<path class="st0" d="M270.6,190.5L270.6,190.5c0-6.6,4.6-11.7,11.2-11.7c7.7,0,11.2,5.6,11.2,12.2c0,0.5,0,1.1,0,1.6h-14.9
		c0.6,2.4,2.4,3.7,4.8,3.7c1.8,0,3.3-0.7,4.9-2.3l4.3,3.6c-2.1,2.7-5.2,4.5-9.7,4.5C275.5,202,270.6,197.4,270.6,190.5z
		 M285.7,188.5c-0.3-2.5-1.7-4-3.9-4c-2.1,0-3.5,1.6-3.9,4H285.7z"/>
	<path class="st0" d="M296.4,179.2h7.8v4.5c1.3-3,3.3-5,7-4.8v8.2h-0.7c-4.1,0-6.4,2.3-6.4,7.5v6.9h-7.8V179.2z"/>
	<path class="st0" d="M311,193.5h8.1v8H311V193.5z"/>
</g>
</svg>
