<?xml version="1.0" encoding="utf-8"?>
<!-- Generator: Adobe Illustrator 26.3.1, SVG Export Plug-In . SVG Version: 6.00 Build 0)  -->
<svg version="1.1" id="Layer_1" xmlns="http://www.w3.org/2000/svg" xmlns:xlink="http://www.w3.org/1999/xlink" x="0px" y="0px"
	 viewBox="0 0 336 280" style="enable-background:new 0 0 336 280;" xml:space="preserve">
<style type="text/css">
	.st0{fill:#AB1F2D;}
	.st1{fill:#FFFFFF;}
</style>
<path class="st0" d="M32.1,233.6c-7.2,0-13,5.8-13,13v3.6c0,7.2,5.8,13,13,13h89c7.2,0,13-5.8,13-13v-3.6c0-7.2-5.8-13-13-13H32.1z"
	/>
<g>
	<path class="st1" d="M26.4,244.1h2.4l2.1,7l2.3-7.1h2l2.3,7.1l2.1-7h2.4l-3.5,10.4h-2l-2.3-6.8l-2.3,6.8h-2L26.4,244.1z"/>
	<path class="st1" d="M46,244h2.1l4.4,10.4h-2.4l-0.9-2.3h-4.4l-0.9,2.3h-2.3L46,244z M48.4,250.1l-1.4-3.4l-1.4,3.4H48.4z"/>
	<path class="st1" d="M55.2,246.2h-3.2v-2.1h8.6v2.1h-3.2v8.3h-2.3V246.2z"/>
	<path class="st1" d="M61.5,249.3L61.5,249.3c0-3,2.2-5.4,5.4-5.4c2,0,3.1,0.7,4.1,1.6l-1.5,1.7c-0.8-0.7-1.6-1.2-2.7-1.2
		c-1.7,0-3,1.5-3,3.2v0c0,1.8,1.2,3.3,3,3.3c1.2,0,1.9-0.5,2.7-1.2l1.5,1.5c-1.1,1.1-2.3,1.9-4.3,1.9
		C63.8,254.7,61.5,252.3,61.5,249.3z"/>
	<path class="st1" d="M72.9,244.1h2.3v4.1h4.2v-4.1h2.3v10.4h-2.3v-4.2h-4.2v4.2h-2.3V244.1z"/>
	<path class="st1" d="M88.6,244.1h2.1l4.9,6.4v-6.4h2.3v10.4h-1.9l-5-6.6v6.6h-2.3V244.1z"/>
	<path class="st1" d="M99.8,249.3L99.8,249.3c0-3,2.3-5.4,5.5-5.4c3.2,0,5.5,2.4,5.5,5.3v0c0,2.9-2.3,5.4-5.5,5.4
		C102.1,254.7,99.8,252.3,99.8,249.3z M108.5,249.3L108.5,249.3c0-1.8-1.3-3.3-3.1-3.3c-1.8,0-3.1,1.5-3.1,3.2v0
		c0,1.8,1.3,3.3,3.1,3.3C107.2,252.6,108.5,251.1,108.5,249.3z"/>
	<path class="st1" d="M111.5,244.1h2.4l2.1,7l2.3-7.1h2l2.3,7.1l2.1-7h2.4l-3.5,10.4h-2l-2.3-6.8l-2.3,6.8h-2L111.5,244.1z"/>
</g>
</svg>
