<?xml version="1.0" encoding="utf-8"?>
<!-- Generator: Adobe Illustrator 25.4.1, SVG Export Plug-In . SVG Version: 6.00 Build 0)  -->
<svg version="1.1" id="Layer_1" xmlns="http://www.w3.org/2000/svg" xmlns:xlink="http://www.w3.org/1999/xlink" x="0px" y="0px"
	 viewBox="0 0 300 600" style="enable-background:new 0 0 300 600;" xml:space="preserve">
<style type="text/css">
	.st0{fill:#461211;}
</style>
<g>
	<path class="st0" d="M34,234.1H21.2v-10.4h37.5v10.4H45.9v32.4H34V234.1z"/>
	<path class="st0" d="M60.5,223.7h13.3l9.7,27.1l9.7-27.1h13l-17.3,43.1h-11L60.5,223.7z"/>
</g>
<g>
	<path class="st0" d="M21.6,310.3v-0.1c0-9.3,7.3-17.2,17.7-17.2c6.8,0,11.3,2.9,14.1,7.4l-7.9,5.9c-1.6-2.2-3.4-3.5-6.2-3.5
		c-3.7,0-6.5,3.3-6.5,7.3v0.1c0,4.3,2.7,7.5,6.6,7.5c2.7,0,4.5-1.3,6.4-3.4l7.8,5.6c-3.1,4.5-7.5,7.6-14.7,7.6
		C28.9,327.5,21.6,319.7,21.6,310.3z"/>
	<path class="st0" d="M57.6,293.7h11.6v6.7c1.9-4.5,4.9-7.5,10.4-7.2v12.2h-1c-6,0-9.5,3.5-9.5,11.1v10.3H57.6V293.7z"/>
	<path class="st0" d="M83.8,282.1h12.1v8.5H83.8V282.1z M84,293.7h11.6v33H84V293.7z"/>
	<path class="st0" d="M104.1,316.4V303h-3.9v-9.3h3.9v-8.4h11.6v8.4h7.7v9.3h-7.7v11.2c0,2.3,1,3.3,3.2,3.3c1.5,0,3-0.4,4.4-1.1v9.1
		c-2.1,1.2-4.8,1.9-8.1,1.9C108.3,327.4,104.1,324.3,104.1,316.4z"/>
	<path class="st0" d="M128.4,282.1h12.1v8.5h-12.1V282.1z M128.7,293.7h11.6v33h-11.6V293.7z"/>
	<path class="st0" d="M145.4,310.3v-0.1c0-9.3,7.3-17.2,17.7-17.2c6.8,0,11.3,2.9,14.1,7.4l-7.9,5.9c-1.6-2.2-3.4-3.5-6.2-3.5
		c-3.7,0-6.5,3.3-6.5,7.3v0.1c0,4.3,2.7,7.5,6.6,7.5c2.7,0,4.5-1.3,6.4-3.4l7.8,5.6c-3.1,4.5-7.5,7.6-14.7,7.6
		C152.7,327.5,145.4,319.7,145.4,310.3z"/>
	<path class="st0" d="M179,322.5l4.3-7c3.8,2.5,7.9,3.8,11.4,3.8c2,0,2.9-0.6,2.9-1.8v-0.1c0-1.3-1.8-1.8-5.3-2.8
		c-6.5-1.7-11.7-3.9-11.7-10.6v-0.1c0-7,5.6-10.9,13.3-10.9c4.8,0,9.8,1.4,13.6,3.8l-4,7.3c-3.4-1.9-7.1-3.1-9.8-3.1
		c-1.8,0-2.7,0.7-2.7,1.6v0.1c0,1.3,1.9,1.9,5.4,2.9c6.5,1.8,11.7,4.1,11.7,10.5v0.1c0,7.3-5.4,11.1-13.5,11.1
		C189.1,327.4,183.6,325.8,179,322.5z"/>
</g>
<g>
	<path class="st0" d="M21.6,370.5v-0.1c0-9.3,7.3-17.2,17.7-17.2c6.8,0,11.3,2.9,14.1,7.4l-7.9,5.9c-1.6-2.2-3.4-3.5-6.2-3.5
		c-3.7,0-6.5,3.3-6.5,7.3v0.1c0,4.3,2.7,7.5,6.6,7.5c2.7,0,4.5-1.3,6.4-3.4l7.8,5.6c-3.1,4.5-7.5,7.6-14.7,7.6
		C28.9,387.7,21.6,379.9,21.6,370.5z"/>
	<path class="st0" d="M57.6,342.3h11.6v16.1c2.1-2.7,5.2-5.3,9.9-5.3c7,0,11.2,4.6,11.2,12.2v21.6H78.8V369c0-3.6-1.9-5.6-4.6-5.6
		c-2.8,0-4.9,2-4.9,5.6v17.9H57.6V342.3z"/>
	<path class="st0" d="M95,370.5v-0.1c0-9.6,6.9-17.3,16.7-17.3c11.4,0,16.7,8.4,16.7,18.1c0,0.7,0,1.6-0.1,2.4h-22.1
		c0.9,3.6,3.5,5.4,7.1,5.4c2.7,0,4.9-1,7.3-3.4l6.4,5.3c-3.2,4-7.8,6.7-14.4,6.7C102.3,387.7,95,380.8,95,370.5z M117.5,367.7
		c-0.4-3.7-2.6-6-5.7-6c-3.1,0-5.1,2.4-5.7,6H117.5z"/>
	<path class="st0" d="M132,370.5v-0.1c0-9.6,6.9-17.3,16.7-17.3c11.4,0,16.7,8.4,16.7,18.1c0,0.7,0,1.6-0.1,2.4h-22.1
		c0.9,3.6,3.5,5.4,7.1,5.4c2.7,0,4.9-1,7.3-3.4l6.4,5.3c-3.2,4-7.8,6.7-14.4,6.7C139.3,387.7,132,380.8,132,370.5z M154.4,367.7
		c-0.4-3.7-2.6-6-5.7-6c-3.1,0-5.1,2.4-5.7,6H154.4z"/>
	<path class="st0" d="M170.2,353.9h11.6v6.7c1.9-4.5,4.9-7.5,10.4-7.2v12.2h-1c-6,0-9.5,3.5-9.5,11.1v10.3h-11.6V353.9z"/>
	<path class="st0" d="M194.4,370.5v-0.1c0-9.6,6.9-17.3,16.7-17.3c11.4,0,16.7,8.4,16.7,18.1c0,0.7,0,1.6-0.1,2.4h-22.1
		c0.9,3.6,3.5,5.4,7.1,5.4c2.7,0,4.9-1,7.3-3.4l6.4,5.3c-3.2,4-7.8,6.7-14.4,6.7C201.8,387.7,194.4,380.8,194.4,370.5z M216.9,367.7
		c-0.4-3.7-2.6-6-5.7-6c-3.1,0-5.1,2.4-5.7,6H216.9z"/>
	<path class="st0" d="M231.5,370.5v-0.1c0-10.7,6.7-17.3,14.5-17.3c5,0,7.9,2.3,10.1,4.8v-15.6h11.6v44.6h-11.6v-4.4
		c-2.3,2.7-5.1,5.1-10.1,5.1C238.3,387.6,231.5,381.1,231.5,370.5z M256.4,370.4v-0.1c0-4.3-3-7.4-6.7-7.4c-3.7,0-6.8,3.1-6.8,7.4
		v0.1c0,4.4,3.1,7.5,6.8,7.5C253.4,377.9,256.4,374.8,256.4,370.4z"/>
	<path class="st0" d="M273.5,375h12.1v11.9h-12.1V375z"/>
</g>
</svg>
