<?xml version="1.0" encoding="utf-8"?>
<!-- Generator: Adobe Illustrator 25.4.1, SVG Export Plug-In . SVG Version: 6.00 Build 0)  -->
<svg version="1.1" id="Layer_1" xmlns="http://www.w3.org/2000/svg" xmlns:xlink="http://www.w3.org/1999/xlink" x="0px" y="0px"
	 viewBox="0 0 300 600" style="enable-background:new 0 0 300 600;" xml:space="preserve">
<style type="text/css">
	.st0{fill:#461211;}
</style>
<g>
	<path class="st0" d="M39,241.6h10.1l5.8,37.4H44.1l-0.9-6.6H28.9l-4.5,6.6H13.2L39,241.6z M42.3,264.3L41,253.6l-6.9,10.7H42.3z"/>
	<path class="st0" d="M82.3,241.8H112l-2.4,9H90.2l-1.7,6.3H106l-2.3,8.5H86.2l-3.6,13.3H72.3L82.3,241.8z"/>
	<path class="st0" d="M114.1,250.2h10.1l-1.5,5.8c2.8-4.1,6.1-6.6,10.8-6.3l-2.9,10.6h-0.8c-5.5,0-9.1,3.1-10.9,9.9l-2.3,8.6h-10.1
		L114.1,250.2z"/>
	<path class="st0" d="M146.5,272.1c2.1,0,3.9-0.7,6.1-2.3l4.7,5.5c-2.9,2.5-6.7,4.3-11.7,4.3c-8.5,0-13.7-5-13.7-12.7
		c0-8.5,6.6-17.3,17.2-17.3c8.5,0,12.2,5.7,12.2,11.9c0,2-0.4,4-1.1,5.9h-19C141.3,270.2,143,272.1,146.5,272.1z M152,262.2
		c0.2-0.5,0.3-1,0.3-1.5c0-2-1.3-3.7-3.9-3.7c-2.7,0-5.4,1.8-6.6,5.2H152z"/>
	<path class="st0" d="M168.8,250.2h10.1l-0.9,3.3c2-2.1,4.8-3.9,8.2-3.9c5.2,0,8.3,3.3,8.3,8.6c0,1.5-0.4,3.3-0.8,5.1l-4.1,15.6
		h-10.1l4-15c0.2-0.7,0.3-1.7,0.3-2.3c0-1.9-1.1-3-3.2-3c-2.8,0-4.5,1.9-5.4,5.2l-4.1,15.2h-10.1L168.8,250.2z"/>
	<path class="st0" d="M197.1,267.1c0-9.7,7.7-17.4,17.2-17.4c6.7,0,10.7,3.4,12.2,7.9l-7.9,4.1c-1-2.2-2.3-3.6-4.9-3.6
		c-3.8,0-6.9,4.2-6.9,8.5c0,2.9,1.9,4.8,4.4,4.8c2.1,0,3.7-0.9,5.4-2.7l6.2,5.4c-2.9,3.4-6.5,5.6-12.3,5.6
		C202.8,279.6,197.1,274.8,197.1,267.1z"/>
	<path class="st0" d="M234.7,240.2h10.1l-3.6,13.3c2-2.1,4.8-3.9,8.2-3.9c5.2,0,8.3,3.3,8.3,8.6c0,1.5-0.4,3.3-0.8,5.1l-4.1,15.6
		h-10.1l4-15c0.2-0.7,0.3-1.7,0.3-2.3c0-1.9-1.1-3-3.2-3c-2.8,0-4.5,1.9-5.4,5.2l-4.1,15.2h-10.1L234.7,240.2z"/>
</g>
<g>
	<path class="st0" d="M22.9,291h11.2l2.1,23.3L50.8,291h11.6l-25,37.4h-9.6L22.9,291z"/>
	<path class="st0" d="M62.6,299.5h10.1L65,328.2H54.9L62.6,299.5z M65.1,289.5h10.5l-2,7.4H63.1L65.1,289.5z"/>
	<path class="st0" d="M81.3,289.5h10.1L81,328.2H70.9L81.3,289.5z"/>
	<path class="st0" d="M97.2,289.5h10.1l-10.4,38.7H86.8L97.2,289.5z"/>
	<path class="st0" d="M103.8,321c0-6.3,5-10.1,12.6-10.1c2.6,0,5,0.4,7.3,1.1l0.1-0.4c0.1-0.5,0.3-1.1,0.3-1.8
		c0-1.9-1.4-3.1-4.9-3.1c-2.7,0-5.7,0.6-7.7,1.4l-1.4-7.3c3-1.1,7.2-1.8,11.3-1.8c8.6,0,12.8,3.4,12.8,9.1c0,1.3-0.2,2.7-0.6,4.1
		l-4.2,15.8h-9.9l0.8-3.1c-2.4,2.3-4.9,3.7-8.3,3.7C107.1,328.8,103.8,325.7,103.8,321z M122.3,317.4l0.3-1
		c-1.1-0.4-2.4-0.6-3.8-0.6c-3.2,0-5.3,1.5-5.3,4.1c0,1.6,1.2,2.7,2.9,2.7C119,322.5,121.5,320.3,122.3,317.4z"/>
	<path class="st0" d="M132.9,332.8l4.5-6.3c3.2,2,6.9,3,10.2,3c2.7,0,4.5-0.7,5.9-2.1c1.1-1.1,1.8-2.5,2.4-4.6l0.2-0.6
		c-2.5,2.3-5.2,3.5-8.7,3.5c-5.2,0-10.2-3.5-10.2-9.9c0-8.9,6.5-16.8,15.1-16.8c4.3,0,7.1,2.1,8.7,4.7l1.1-4.1H172l-6.1,22.8
		c-1.4,5.1-2.8,7.9-5.1,10.3c-2.9,2.8-6.8,4.2-12.8,4.2C142.5,336.8,136.6,335.2,132.9,332.8z M158.6,311.4c0-2.7-1.9-4.6-4.8-4.6
		c-3.9,0-6.7,3.4-6.7,7.1c0,2.7,1.9,4.4,4.7,4.4C155.7,318.4,158.6,315,158.6,311.4z"/>
	<path class="st0" d="M186.9,321.3c2.1,0,3.9-0.7,6.1-2.3l4.7,5.5c-2.9,2.5-6.7,4.3-11.7,4.3c-8.5,0-13.7-5-13.7-12.7
		c0-8.5,6.6-17.3,17.2-17.3c8.5,0,12.2,5.7,12.2,11.9c0,2-0.4,4-1.1,5.9h-19C181.8,319.5,183.5,321.3,186.9,321.3z M192.5,311.5
		c0.2-0.5,0.3-1,0.3-1.5c0-2-1.3-3.7-3.9-3.7c-2.7,0-5.4,1.8-6.6,5.2H192.5z"/>
</g>
<g>
	<path class="st0" d="M18.7,363.2v-0.1c0-8.2,6.7-15,15.9-15c9.2,0,15.8,6.7,15.8,14.9v0.1c0,8.2-6.7,15-15.9,15
		C25.3,378.1,18.7,371.4,18.7,363.2z M40.6,363.2v-0.1c0-3.5-2.5-6.5-6.1-6.5c-3.7,0-6,2.9-6,6.4v0.1c0,3.5,2.5,6.5,6.1,6.5
		C38.2,369.6,40.6,366.7,40.6,363.2z"/>
	<path class="st0" d="M54.6,348.7h10.1v4c1.9-2.4,4.5-4.7,8.6-4.7c6.1,0,9.8,4,9.8,10.6v18.8H73v-15.5c0-3.1-1.6-4.8-4-4.8
		c-2.4,0-4.2,1.7-4.2,4.8v15.5H54.6V348.7z"/>
</g>
<g>
	<path class="st0" d="M20.4,389.5h10.9l8.9,14.4l8.9-14.4h10.9v37.1H49.7v-21.3l-9.5,14.5h-0.2l-9.4-14.4v21.2H20.4V389.5z"/>
	<path class="st0" d="M66.5,389.5h10.3v13.9H90v-13.9h10.3v37.1H90v-14.1H76.8v14.1H66.5V389.5z"/>
	<path class="st0" d="M105.2,420l13.3-14.1h-12.8v-8h26.1v6.6l-13.3,14.1h13.3v8h-26.6V420z"/>
</g>
<g>
	<path class="st0" d="M19.2,461.9v-0.1c0-10.8,8.3-19.3,19.6-19.3c7.6,0,12.5,3.2,15.8,7.7l-7.7,6c-2.1-2.7-4.6-4.3-8.1-4.3
		c-5.2,0-8.9,4.4-8.9,9.8v0.1c0,5.6,3.7,9.9,8.9,9.9c3.9,0,6.2-1.8,8.4-4.5l7.7,5.5c-3.5,4.8-8.2,8.4-16.4,8.4
		C27.7,481.1,19.2,473,19.2,461.9z"/>
	<path class="st0" d="M58.6,441.7h10.1v13.9c1.9-2.4,4.5-4.6,8.6-4.6c6.1,0,9.8,4,9.8,10.6v18.8H76.9v-15.5c0-3.1-1.6-4.8-4-4.8
		c-2.4,0-4.2,1.7-4.2,4.8v15.5H58.6V441.7z"/>
	<path class="st0" d="M91,466.2v-0.1c0-8.2,6.7-15,15.9-15c9.2,0,15.8,6.7,15.8,14.9v0.1c0,8.2-6.7,15-15.9,15
		C97.7,481.1,91,474.3,91,466.2z M112.9,466.2v-0.1c0-3.5-2.5-6.5-6.1-6.5c-3.7,0-6,2.9-6,6.4v0.1c0,3.5,2.5,6.5,6.1,6.5
		C110.6,472.5,112.9,469.6,112.9,466.2z"/>
	<path class="st0" d="M127,441.7h10.5v7.4H127V441.7z M127.2,451.7h10.1v28.7h-10.1V451.7z"/>
	<path class="st0" d="M141.7,466.2v-0.1c0-8.1,6.3-15,15.4-15c5.9,0,9.8,2.5,12.3,6.4l-6.8,5.1c-1.4-1.9-2.9-3-5.4-3
		c-3.2,0-5.6,2.9-5.6,6.4v0.1c0,3.7,2.3,6.5,5.7,6.5c2.4,0,3.9-1.1,5.5-3l6.7,4.9c-2.7,3.9-6.5,6.6-12.8,6.6
		C148.1,481.1,141.7,474.3,141.7,466.2z"/>
	<path class="st0" d="M171.2,466.2v-0.1c0-8.4,6-15,14.5-15c9.9,0,14.5,7.3,14.5,15.7c0,0.6,0,1.4-0.1,2.1h-19.2
		c0.8,3.1,3.1,4.7,6.2,4.7c2.4,0,4.3-0.9,6.4-2.9l5.6,4.6c-2.8,3.5-6.7,5.8-12.5,5.8C177.5,481.1,171.2,475.1,171.2,466.2z
		 M190.7,463.7c-0.4-3.2-2.2-5.2-5-5.2c-2.7,0-4.5,2.1-5,5.2H190.7z"/>
	<path class="st0" d="M203.8,470h10.5v10.3h-10.5V470z"/>
</g>
</svg>
