<?xml version="1.0" encoding="utf-8"?>
<!-- Generator: Adobe Illustrator 25.4.1, SVG Export Plug-In . SVG Version: 6.00 Build 0)  -->
<svg version="1.1" id="Layer_1" xmlns="http://www.w3.org/2000/svg" xmlns:xlink="http://www.w3.org/1999/xlink" x="0px" y="0px"
	 viewBox="0 0 300 600" style="enable-background:new 0 0 300 600;" xml:space="preserve">
<style type="text/css">
	.st0{fill:#461211;}
</style>
<g>
	<path class="st0" d="M19.2,138.5v-0.1c0-10.8,8.3-19.3,19.6-19.3c7.6,0,12.5,3.2,15.8,7.7l-7.7,6c-2.1-2.7-4.6-4.3-8.1-4.3
		c-5.2,0-8.9,4.4-8.9,9.8v0.1c0,5.6,3.7,9.9,8.9,9.9c3.9,0,6.2-1.8,8.4-4.5l7.7,5.5c-3.5,4.8-8.2,8.4-16.4,8.4
		C27.7,157.7,19.2,149.6,19.2,138.5z"/>
	<path class="st0" d="M57.1,148.7v-0.1c0-5.9,4.5-9,11.2-9c2.7,0,5.3,0.5,6.9,1.1v-0.5c0-3-1.9-4.7-5.7-4.7c-3,0-5.4,0.6-7.9,1.6
		l-2.1-7.1c3.2-1.3,6.7-2.2,11.6-2.2c5.1,0,8.6,1.2,10.9,3.5c2.2,2.1,3.1,5.1,3.1,9.1v16.5h-10v-3c-2,2.2-4.7,3.6-8.4,3.6
		C61.3,157.6,57.1,154.5,57.1,148.7z M75.4,146.6v-1.3c-1-0.4-2.4-0.7-3.9-0.7c-2.9,0-4.6,1.4-4.6,3.6v0.1c0,2,1.5,3.1,3.6,3.1
		C73.3,151.3,75.4,149.4,75.4,146.6z"/>
	<path class="st0" d="M91.9,148v-11.7h-3.4v-8.1h3.4V121H102v7.3h6.7v8.1H102v9.7c0,2,0.9,2.9,2.8,2.9c1.3,0,2.6-0.4,3.8-1v7.9
		c-1.8,1-4.2,1.6-7,1.6C95.5,157.5,91.9,154.9,91.9,148z"/>
	<path class="st0" d="M111.1,142.7v-0.1c0-8.1,6.3-15,15.4-15c5.9,0,9.8,2.5,12.3,6.4l-6.8,5.1c-1.4-1.9-2.9-3-5.4-3
		c-3.2,0-5.6,2.9-5.6,6.4v0.1c0,3.7,2.3,6.5,5.7,6.5c2.4,0,3.9-1.1,5.5-3l6.7,4.9c-2.7,3.9-6.5,6.6-12.8,6.6
		C117.4,157.6,111.1,150.8,111.1,142.7z"/>
	<path class="st0" d="M142.4,118.2h10.1v13.9c1.9-2.4,4.5-4.6,8.6-4.6c6.1,0,9.8,4,9.8,10.6v18.8h-10.1v-15.5c0-3.1-1.6-4.8-4-4.8
		c-2.4,0-4.2,1.7-4.2,4.8v15.5h-10.1V118.2z"/>
	<path class="st0" d="M192.5,148v-11.7h-3.4v-8.1h3.4V121h10.1v7.3h6.7v8.1h-6.7v9.7c0,2,0.9,2.9,2.8,2.9c1.3,0,2.6-0.4,3.8-1v7.9
		c-1.8,1-4.2,1.6-7,1.6C196.1,157.5,192.5,154.9,192.5,148z"/>
	<path class="st0" d="M213.6,118.2h10.1v13.9c1.9-2.4,4.5-4.6,8.6-4.6c6.1,0,9.8,4,9.8,10.6v18.8H232v-15.5c0-3.1-1.6-4.8-4-4.8
		c-2.4,0-4.2,1.7-4.2,4.8v15.5h-10.1V118.2z"/>
	<path class="st0" d="M246.1,142.7v-0.1c0-8.4,6-15,14.5-15c9.9,0,14.5,7.3,14.5,15.7c0,0.6,0,1.4-0.1,2.1h-19.2
		c0.8,3.1,3.1,4.7,6.2,4.7c2.4,0,4.3-0.9,6.4-2.9l5.6,4.6c-2.8,3.5-6.7,5.8-12.5,5.8C252.4,157.6,246.1,151.6,246.1,142.7z
		 M265.6,140.2c-0.4-3.2-2.2-5.2-5-5.2c-2.7,0-4.5,2.1-5,5.2H265.6z"/>
</g>
<g>
	<path class="st0" d="M18.8,192v-0.1c0-9.3,5.8-15,12.6-15c4.3,0,6.9,2,8.8,4.1v-13.5h10.1v38.7H40.2v-3.8c-2,2.4-4.5,4.5-8.8,4.5
		C24.7,206.8,18.8,201.1,18.8,192z M40.4,191.9v-0.1c0-3.8-2.6-6.5-5.8-6.5s-5.9,2.7-5.9,6.5v0.1c0,3.8,2.7,6.5,5.9,6.5
		S40.4,195.7,40.4,191.9z"/>
	<path class="st0" d="M55.7,177.5h10.1v5.8c1.6-3.9,4.3-6.5,9.1-6.3v10.6H74c-5.3,0-8.2,3-8.2,9.7v8.9H55.7V177.5z"/>
	<path class="st0" d="M75.7,198v-0.1c0-5.9,4.5-9,11.2-9c2.7,0,5.3,0.5,6.9,1.1v-0.5c0-3-1.9-4.7-5.7-4.7c-3,0-5.4,0.6-7.9,1.6
		l-2.1-7.1c3.2-1.3,6.7-2.2,11.6-2.2c5.1,0,8.6,1.2,10.9,3.5c2.2,2.1,3.1,5.1,3.1,9.1v16.5h-10v-3c-2,2.2-4.7,3.6-8.4,3.6
		C79.9,206.8,75.7,203.7,75.7,198z M93.9,195.8v-1.3c-1-0.4-2.4-0.7-3.9-0.7c-2.9,0-4.6,1.4-4.6,3.6v0.1c0,2,1.5,3.1,3.6,3.1
		C91.9,200.5,93.9,198.6,93.9,195.8z"/>
	<path class="st0" d="M108.9,177.5H119v3.9c1.9-2.4,4.5-4.6,8.5-4.6c3.8,0,6.7,1.7,8.3,4.7c2.5-2.9,5.4-4.7,9.6-4.7
		c6.1,0,9.8,3.8,9.8,10.5v18.8h-10.1v-15.6c0-3.1-1.5-4.8-3.9-4.8c-2.4,0-4.1,1.6-4.1,4.8v15.6H127v-15.6c0-3.1-1.5-4.8-3.9-4.8
		s-4.1,1.6-4.1,4.8v15.6h-10.1V177.5z"/>
	<path class="st0" d="M159,198v-0.1c0-5.9,4.5-9,11.2-9c2.7,0,5.3,0.5,6.9,1.1v-0.5c0-3-1.9-4.7-5.7-4.7c-3,0-5.4,0.6-7.9,1.6
		l-2.1-7.1c3.2-1.3,6.7-2.2,11.6-2.2c5.1,0,8.6,1.2,10.9,3.5c2.2,2.1,3.1,5.1,3.1,9.1v16.5h-10v-3c-2,2.2-4.7,3.6-8.4,3.6
		C163.2,206.8,159,203.7,159,198z M177.2,195.8v-1.3c-1-0.4-2.4-0.7-3.9-0.7c-2.9,0-4.6,1.4-4.6,3.6v0.1c0,2,1.5,3.1,3.6,3.1
		C175.2,200.5,177.2,198.6,177.2,195.8z"/>
</g>
</svg>
