<?xml version="1.0" encoding="utf-8"?>
<!-- Generator: Adobe Illustrator 26.3.1, SVG Export Plug-In . SVG Version: 6.00 Build 0)  -->
<svg version="1.1" id="Layer_1" xmlns="http://www.w3.org/2000/svg" xmlns:xlink="http://www.w3.org/1999/xlink" x="0px" y="0px"
	 viewBox="0 0 160 600" style="enable-background:new 0 0 160 600;" xml:space="preserve">
<style type="text/css">
	.st0{fill:#490A09;}
</style>
<g>
	<path class="st0" d="M12.9,160.9h6v8.1h7.7v-8.1h6v21.7h-6v-8.2h-7.7v8.2h-6V160.9z"/>
	<path class="st0" d="M35.5,174.3L35.5,174.3c0-5,3.5-8.8,8.5-8.8c5.8,0,8.5,4.2,8.5,9.2c0,0.4,0,0.8,0,1.2H41.2
		c0.5,1.8,1.8,2.8,3.6,2.8c1.4,0,2.5-0.5,3.7-1.7l3.3,2.7c-1.6,2-3.9,3.4-7.3,3.4C39.2,183,35.5,179.5,35.5,174.3z M46.9,172.9
		c-0.2-1.9-1.3-3-2.9-3c-1.5,0-2.6,1.2-2.9,3H46.9z"/>
	<path class="st0" d="M62.3,165.9h5.8l2.2,8.4l2.6-8.5h4.9l2.6,8.6l2.3-8.5h5.7l-5.2,16.9H78l-2.7-8.7l-2.8,8.7h-5.1L62.3,165.9z"/>
	<path class="st0" d="M88.6,177.8L88.6,177.8c0-3.5,2.6-5.3,6.6-5.3c1.5,0,3.1,0.3,4,0.7v-0.3c0-1.7-1.1-2.7-3.3-2.7
		c-1.8,0-3.1,0.3-4.6,0.9l-1.2-4.2c1.9-0.8,3.9-1.3,6.8-1.3c3,0,5.1,0.7,6.4,2c1.3,1.2,1.8,3,1.8,5.3v9.6h-5.8v-1.7
		c-1.1,1.3-2.7,2.1-4.9,2.1C91.1,183,88.6,181.2,88.6,177.8z M99.3,176.6v-0.8c-0.6-0.2-1.4-0.4-2.3-0.4c-1.7,0-2.7,0.8-2.7,2.1v0.1
		c0,1.1,0.9,1.8,2.1,1.8C98.1,179.3,99.3,178.2,99.3,176.6z"/>
	<path class="st0" d="M106.8,180.5l2.2-3.6c1.9,1.3,4,1.9,5.8,1.9c1,0,1.5-0.3,1.5-0.9v-0.1c0-0.7-0.9-0.9-2.7-1.4
		c-3.3-0.9-6-2-6-5.4v-0.1c0-3.6,2.9-5.5,6.7-5.5c2.4,0,5,0.7,6.9,2l-2,3.7c-1.7-1-3.6-1.5-5-1.5c-0.9,0-1.4,0.3-1.4,0.8v0.1
		c0,0.7,1,1,2.7,1.5c3.3,0.9,6,2.1,6,5.3v0.1c0,3.7-2.8,5.6-6.9,5.6C111.9,183,109.1,182.2,106.8,180.5z"/>
</g>
<g>
	<path class="st0" d="M12.6,190.6h5.9v8.2c1.1-1.4,2.6-2.7,5-2.7c3.6,0,5.7,2.4,5.7,6.2v11h-5.9v-9.1c0-1.8-1-2.8-2.4-2.8
		c-1.4,0-2.5,1-2.5,2.8v9.1h-5.9V190.6z"/>
	<path class="st0" d="M31.6,204.9L31.6,204.9c0-5,3.5-8.8,8.5-8.8c5.8,0,8.5,4.2,8.5,9.2c0,0.4,0,0.8,0,1.2H37.2
		c0.5,1.8,1.8,2.8,3.6,2.8c1.4,0,2.5-0.5,3.7-1.7l3.3,2.7c-1.6,2-3.9,3.4-7.3,3.4C35.3,213.6,31.6,210.1,31.6,204.9z M43,203.5
		c-0.2-1.9-1.3-3-2.9-3c-1.6,0-2.6,1.2-2.9,3H43z"/>
	<path class="st0" d="M51,196.5h5.9v3.4c1-2.3,2.5-3.8,5.3-3.7v6.2h-0.5c-3.1,0-4.8,1.8-4.8,5.6v5.2H51V196.5z"/>
</g>
<g>
	<path class="st0" d="M12.6,221.2h5.9v8.2c1.1-1.4,2.6-2.7,5-2.7c3.6,0,5.7,2.4,5.7,6.2v11h-5.9v-9.1c0-1.8-1-2.8-2.4-2.8
		c-1.4,0-2.5,1-2.5,2.8v9.1h-5.9V221.2z"/>
	<path class="st0" d="M32.1,238v-11H38v9.1c0,1.8,1,2.8,2.4,2.8c1.4,0,2.4-1,2.4-2.8v-9.1h5.9v16.8h-5.9v-2.3
		c-1.1,1.4-2.6,2.7-5,2.7C34.3,244.2,32.1,241.8,32.1,238z"/>
	<path class="st0" d="M50.6,241.7l2.2-3.6c1.9,1.3,4,1.9,5.8,1.9c1,0,1.5-0.3,1.5-0.9v-0.1c0-0.7-0.9-0.9-2.7-1.4
		c-3.3-0.9-6-2-6-5.4v-0.1c0-3.6,2.9-5.5,6.7-5.5c2.4,0,5,0.7,6.9,2l-2,3.7c-1.7-1-3.6-1.5-5-1.5c-0.9,0-1.4,0.3-1.4,0.8v0.1
		c0,0.7,1,1,2.7,1.5c3.3,0.9,6,2.1,6,5.3v0.1c0,3.7-2.8,5.6-6.9,5.6C55.7,244.2,52.9,243.4,50.6,241.7z"/>
	<path class="st0" d="M73.7,241.8v2h-5.9v-22.6h5.9v8.1c1.1-1.4,2.6-2.6,5.1-2.6c4,0,7.4,3.3,7.4,8.7v0.1c0,5.5-3.4,8.8-7.4,8.8
		C76.3,244.2,74.8,243.1,73.7,241.8z M80.4,235.5L80.4,235.5c0-2.3-1.5-3.8-3.4-3.8c-1.9,0-3.4,1.6-3.4,3.8v0.1
		c0,2.2,1.5,3.8,3.4,3.8C78.9,239.3,80.4,237.7,80.4,235.5z"/>
	<path class="st0" d="M87.9,239L87.9,239c0-3.5,2.6-5.3,6.6-5.3c1.5,0,3.1,0.3,4,0.7v-0.3c0-1.7-1.1-2.7-3.3-2.7
		c-1.8,0-3.1,0.3-4.6,0.9l-1.2-4.2c1.9-0.8,3.9-1.3,6.8-1.3c3,0,5.1,0.7,6.4,2c1.3,1.2,1.8,3,1.8,5.3v9.6h-5.8v-1.7
		c-1.1,1.3-2.7,2.1-4.9,2.1C90.4,244.2,87.9,242.4,87.9,239z M98.6,237.8V237c-0.6-0.2-1.4-0.4-2.3-0.4c-1.7,0-2.7,0.8-2.7,2.1v0.1
		c0,1.1,0.9,1.8,2.1,1.8C97.4,240.5,98.6,239.4,98.6,237.8z"/>
	<path class="st0" d="M107.3,227.1h5.9v2.4c1.1-1.4,2.6-2.7,5-2.7c3.6,0,5.7,2.4,5.7,6.2v11h-5.9v-9.1c0-1.8-1-2.8-2.4-2.8
		c-1.4,0-2.5,1-2.5,2.8v9.1h-5.9V227.1z"/>
	<path class="st0" d="M126.4,235.5L126.4,235.5c0-5.5,3.4-8.8,7.4-8.8c2.5,0,4,1.1,5.1,2.4v-7.9h5.9v22.6h-5.9v-2.2
		c-1.1,1.4-2.6,2.6-5.1,2.6C129.8,244.2,126.4,240.9,126.4,235.5z M139,235.5L139,235.5c0-2.3-1.5-3.8-3.4-3.8s-3.4,1.6-3.4,3.8v0.1
		c0,2.2,1.5,3.8,3.4,3.8S139,237.7,139,235.5z"/>
	<path class="st0" d="M147.7,237.8h6.1v6h-6.1V237.8z"/>
</g>
</svg>
