<?xml version="1.0" encoding="utf-8"?>
<!-- Generator: Adobe Illustrator 26.3.1, SVG Export Plug-In . SVG Version: 6.00 Build 0)  -->
<svg version="1.1" id="Layer_1" xmlns="http://www.w3.org/2000/svg" xmlns:xlink="http://www.w3.org/1999/xlink" x="0px" y="0px"
	 viewBox="0 0 160 600" style="enable-background:new 0 0 160 600;" xml:space="preserve">
<style type="text/css">
	.st0{fill:#490A09;}
</style>
<g>
	<path class="st0" d="M13.9,174.2c0-8,6.6-15.1,16.2-15.1c5,0,8.7,2.1,10.4,4.3l-4.7,4.5c-1.5-1.5-3.5-2.6-6.2-2.6
		c-5.1,0-8.6,3.9-8.6,8.6c0,3.5,2.6,5.4,5.7,5.4c1.4,0,2.5-0.3,3.3-0.7l1-3.4h-4.9l1.3-5.1h11.6l-3.6,12.7c-2.5,1.4-5.7,2.5-9.4,2.5
		C20.1,185.3,13.9,181.9,13.9,174.2z"/>
	<path class="st0" d="M46,158.5h6.8l-7.1,26.3H39L46,158.5z"/>
	<path class="st0" d="M51.5,176.2c0-5.9,4.9-11.3,11.4-11.3c6,0,9.6,3.9,9.6,9c0,5.9-4.9,11.3-11.5,11.3
		C55.1,185.2,51.5,181.3,51.5,176.2z M66,174.2c0-2.2-1.4-3.6-3.4-3.6c-2.7,0-4.5,2.8-4.5,5.4c0,2.2,1.4,3.6,3.4,3.6
		C64.1,179.6,66,176.7,66,174.2z"/>
	<path class="st0" d="M78.1,165.3h6.8l-1,3.9c1.9-2.8,4.1-4.5,7.3-4.2l-1.9,7.2h-0.6c-3.7,0-6.2,2.1-7.4,6.7l-1.6,5.9h-6.8
		L78.1,165.3z"/>
	<path class="st0" d="M93.7,165.3h6.8l-5.2,19.5h-6.8L93.7,165.3z M95.4,158.5h7.1l-1.4,5H94L95.4,158.5z"/>
	<path class="st0" d="M99.9,179.9c0-4.3,3.4-6.9,8.6-6.9c1.8,0,3.4,0.3,4.9,0.8l0.1-0.3c0.1-0.3,0.2-0.7,0.2-1.2
		c0-1.3-1-2.1-3.3-2.1c-1.8,0-3.9,0.4-5.3,1l-1-5c2.1-0.7,4.9-1.2,7.7-1.2c5.8,0,8.7,2.3,8.7,6.2c0,0.9-0.1,1.8-0.4,2.8l-2.9,10.7
		h-6.7l0.5-2.1c-1.7,1.5-3.3,2.5-5.6,2.5C102.2,185.2,99.9,183.1,99.9,179.9z M112.5,177.4l0.2-0.6c-0.8-0.3-1.6-0.4-2.6-0.4
		c-2.2,0-3.6,1-3.6,2.8c0,1.1,0.8,1.8,1.9,1.8C110.3,181,112,179.4,112.5,177.4z"/>
</g>
<g>
	<path class="st0" d="M123,177.8h7.1v7H123V177.8z"/>
</g>
</svg>
