<?xml version="1.0" encoding="utf-8"?>
<!-- Generator: Adobe Illustrator 26.3.1, SVG Export Plug-In . SVG Version: 6.00 Build 0)  -->
<svg version="1.1" id="Layer_1" xmlns="http://www.w3.org/2000/svg" xmlns:xlink="http://www.w3.org/1999/xlink" x="0px" y="0px"
	 viewBox="0 0 160 600" style="enable-background:new 0 0 160 600;" xml:space="preserve">
<style type="text/css">
	.st0{fill:#490A09;}
</style>
<g>
	<path class="st0" d="M20.5,213.7H13v-6.1h22.1v6.1h-7.6v19.1h-7V213.7z"/>
	<path class="st0" d="M37.7,206.5h6.8v9.5c1.3-1.6,3.1-3.1,5.8-3.1c4.1,0,6.6,2.7,6.6,7.2v12.7h-6.8v-10.5c0-2.1-1.1-3.3-2.7-3.3
		c-1.7,0-2.9,1.2-2.9,3.3v10.5h-6.8V206.5z"/>
	<path class="st0" d="M59.8,223.1L59.8,223.1c0-5.8,4.1-10.3,9.8-10.3c6.7,0,9.8,4.9,9.8,10.7c0,0.4,0,0.9,0,1.4h-13
		c0.5,2.1,2.1,3.2,4.2,3.2c1.6,0,2.9-0.6,4.3-2l3.8,3.1c-1.9,2.4-4.6,4-8.5,4C64.1,233.2,59.8,229.2,59.8,223.1z M73,221.4
		c-0.3-2.2-1.5-3.5-3.4-3.5c-1.8,0-3,1.4-3.4,3.5H73z"/>
</g>
<g>
	<path class="st0" d="M14,246.3h6.8v2.7c1.3-1.6,3.1-3.2,5.8-3.2c4.1,0,6.6,2.7,6.6,7.2v12.7h-6.8v-10.5c0-2.1-1.1-3.3-2.7-3.3
		c-1.7,0-2.9,1.2-2.9,3.3v10.5H14V246.3z"/>
	<path class="st0" d="M36,256.1L36,256.1c0-5.8,4.1-10.3,9.8-10.3c6.7,0,9.8,4.9,9.8,10.7c0,0.4,0,0.9,0,1.4h-13
		c0.5,2.1,2.1,3.2,4.2,3.2c1.6,0,2.9-0.6,4.3-2l3.8,3.1c-1.9,2.4-4.6,4-8.5,4C40.3,266.2,36,262.2,36,256.1z M49.3,254.4
		c-0.3-2.2-1.5-3.5-3.4-3.5c-1.8,0-3,1.4-3.4,3.5H49.3z"/>
	<path class="st0" d="M56.3,246.3H63l2.6,9.8l3-9.9h5.7l3,9.9l2.6-9.9h6.6l-6,19.6h-5.9l-3.2-10.1l-3.2,10.1h-5.9L56.3,246.3z"/>
</g>
<g>
	<path class="st0" d="M14.4,275.6h20.2v6.1H21.4v4.3h11.9v5.8H21.4v9h-7V275.6z"/>
	<path class="st0" d="M37.3,281.3h6.8v3.9c1.1-2.7,2.9-4.4,6.2-4.2v7.2h-0.6c-3.6,0-5.6,2.1-5.6,6.6v6h-6.8V281.3z"/>
	<path class="st0" d="M51.6,291.1L51.6,291.1c0-5.8,4.1-10.3,9.8-10.3c6.7,0,9.8,4.9,9.8,10.7c0,0.4,0,0.9,0,1.4h-13
		c0.5,2.1,2.1,3.2,4.2,3.2c1.6,0,2.9-0.6,4.3-2l3.8,3.1c-1.9,2.4-4.6,4-8.5,4C55.9,301.2,51.6,297.2,51.6,291.1z M64.8,289.4
		c-0.3-2.2-1.5-3.5-3.4-3.5c-1.8,0-3,1.4-3.4,3.5H64.8z"/>
	<path class="st0" d="M74.1,281.3H81v2.7c1.3-1.6,3.1-3.2,5.8-3.2c4.1,0,6.6,2.7,6.6,7.2v12.7h-6.8v-10.5c0-2.1-1.1-3.3-2.7-3.3
		c-1.7,0-2.9,1.2-2.9,3.3v10.5h-6.8V281.3z"/>
	<path class="st0" d="M96.2,291.1L96.2,291.1c0-5.6,4.3-10.2,10.4-10.2c4,0,6.7,1.7,8.3,4.4l-4.6,3.5c-0.9-1.3-2-2.1-3.6-2.1
		c-2.2,0-3.8,1.9-3.8,4.3v0.1c0,2.5,1.6,4.4,3.9,4.4c1.6,0,2.7-0.8,3.7-2l4.6,3.3c-1.8,2.7-4.4,4.5-8.7,4.5
		C100.5,301.2,96.2,296.6,96.2,291.1z"/>
	<path class="st0" d="M117.4,274.5h6.8v9.5c1.3-1.6,3.1-3.1,5.8-3.1c4.1,0,6.6,2.7,6.6,7.2v12.7h-6.8v-10.5c0-2.1-1.1-3.3-2.7-3.3
		c-1.7,0-2.9,1.2-2.9,3.3v10.5h-6.8V274.5z"/>
</g>
<g>
	<path class="st0" d="M15.2,329.7v-7.9h-2.3v-5.5h2.3v-4.9H22v4.9h4.5v5.5H22v6.6c0,1.4,0.6,1.9,1.9,1.9c0.9,0,1.8-0.3,2.6-0.6v5.4
		c-1.2,0.7-2.8,1.1-4.8,1.1C17.6,336.2,15.2,334.4,15.2,329.7z"/>
	<path class="st0" d="M29.5,309.5h6.8v9.5c1.3-1.6,3.1-3.1,5.8-3.1c4.1,0,6.6,2.7,6.6,7.2v12.7H42v-10.5c0-2.1-1.1-3.3-2.7-3.3
		c-1.7,0-2.9,1.2-2.9,3.3v10.5h-6.8V309.5z"/>
	<path class="st0" d="M52.3,316.3h6.8v3.9c1.1-2.7,2.9-4.4,6.2-4.2v7.2h-0.6c-3.6,0-5.6,2.1-5.6,6.6v6h-6.8V316.3z"/>
	<path class="st0" d="M67.7,309.5h7.1v5h-7.1V309.5z M67.9,316.3h6.8v19.5h-6.8V316.3z"/>
	<path class="st0" d="M78.7,309.5h6.8v26.3h-6.8V309.5z"/>
	<path class="st0" d="M89.5,309.5h6.8v26.3h-6.8V309.5z"/>
	<path class="st0" d="M99.3,326.1L99.3,326.1c0-5.8,4.1-10.3,9.8-10.3c6.7,0,9.8,4.9,9.8,10.7c0,0.4,0,0.9,0,1.4h-13
		c0.5,2.1,2.1,3.2,4.2,3.2c1.6,0,2.9-0.6,4.3-2l3.8,3.1c-1.9,2.4-4.6,4-8.5,4C103.7,336.2,99.3,332.2,99.3,326.1z M112.6,324.4
		c-0.3-2.2-1.5-3.5-3.4-3.5c-1.8,0-3,1.4-3.4,3.5H112.6z"/>
	<path class="st0" d="M121.9,316.3h6.8v3.9c1.1-2.7,2.9-4.4,6.2-4.2v7.2h-0.6c-3.6,0-5.6,2.1-5.6,6.6v6h-6.8V316.3z"/>
	<path class="st0" d="M134.7,328.7h7.1v7h-7.1V328.7z"/>
</g>
</svg>
