<svg id="Layer_1" xmlns="http://www.w3.org/2000/svg" viewBox="0 0 300 250"><style>.st0{fill:#490a09}</style><path class="st0" d="M18.8 95.3c0-8 6.5-15 16-15 5 0 8.6 2 10.4 4.3l-4.6 4.5c-1.5-1.5-3.5-2.6-6.2-2.6-5 0-8.5 3.9-8.5 8.5 0 3.5 2.5 5.3 5.6 5.3 1.4 0 2.5-.3 3.3-.7l1-3.4H31l1.3-5.1h11.5l-3.6 12.6c-2.5 1.4-5.7 2.5-9.4 2.5-5.9.2-12-3.2-12-10.9zM50.7 79.8h6.8l-7 26.1h-6.8l7-26.1zM56.1 97.3c0-5.8 4.9-11.2 11.4-11.2 5.9 0 9.5 3.9 9.5 9 0 5.9-4.9 11.3-11.4 11.3-5.9-.1-9.5-4-9.5-9.1zm14.3-2c0-2.2-1.4-3.6-3.4-3.6-2.7 0-4.5 2.8-4.5 5.3 0 2.2 1.4 3.6 3.4 3.6 2.7.1 4.5-2.8 4.5-5.3zM82.4 86.5h6.8l-1 3.9c1.9-2.8 4.1-4.4 7.3-4.2l-1.9 7.1H93c-3.7 0-6.1 2.1-7.3 6.7l-1.6 5.8h-6.8l5.1-19.3zM97.9 86.5h6.8l-5.2 19.3h-6.8l5.2-19.3zm1.8-6.7h7.1l-1.4 5h-7.1l1.4-5zM104.2 101c0-4.3 3.4-6.8 8.5-6.8 1.8 0 3.4.3 4.9.8l.1-.2c.1-.3.2-.7.2-1.2 0-1.3-1-2.1-3.3-2.1-1.8 0-3.9.4-5.2 1l-1-4.9c2-.7 4.8-1.2 7.6-1.2 5.8 0 8.6 2.3 8.6 6.1 0 .9-.1 1.8-.4 2.8l-2.9 10.6h-6.7l.5-2.1c-1.6 1.5-3.3 2.5-5.6 2.5-3.1-.1-5.3-2.1-5.3-5.3zm12.5-2.4l.2-.6c-.8-.2-1.6-.4-2.5-.4-2.1 0-3.5 1-3.5 2.8 0 1.1.8 1.8 1.9 1.8 1.6-.1 3.3-1.7 3.9-3.6zM126.6 98.9h7.1l-1.9 7h-7l1.8-7z"/></svg>