<svg id="Layer_1" xmlns="http://www.w3.org/2000/svg" xmlns:xlink="http://www.w3.org/1999/xlink" viewBox="0 0 300 250"><style>.st0,.st1{clip-path:url(#SVGID_00000135689631657364393700000001438652329689149619_);fill:#ac1f2d}.st1{fill:#fff}</style><defs><path id="SVGID_1_" d="M17.8 10.1h47.5v51.1H17.8z"/></defs><clipPath id="SVGID_00000078014442163080539500000003145212988011510173_"><use xlink:href="#SVGID_1_" overflow="visible"/></clipPath><path d="M62 35.8c0 12.1-9.8 22-22 22s-22-9.8-22-22c0-12.1 9.8-22 22-22s22 9.8 22 22" clip-path="url(#SVGID_00000078014442163080539500000003145212988011510173_)" fill="#ac1f2d"/><path d="M48.8 31.8v2.5h2.9l-3.4 5.3h8.3V37H53l3.2-5.2h-7.4zm-16.3-3.2l-2.6 5.9-2.6-5.9h-3.7v10.9h3.1v-5.8l2.6 5.8h1.3l2.6-6v6h3.1V28.6h-3.8zm12 0v3.9h-3.9v-3.9h-3.4v10.9h3.4v-4.3h3.9v4.3h3.4V28.6h-3.4zM48.6 44h2.9v-.9h-1.9v-.6h1.7v-.8h-1.7v-.5h1.9v-.9h-2.9V44zm-2.4.1c.8 0 1.3-.3 1.6-.8l-.8-.5c-.2.3-.4.4-.8.4-.5 0-.9-.4-.9-1 0-.5.4-1 .9-1 .3 0 .6.2.8.4l.8-.6c-.3-.4-.8-.8-1.5-.8-1.1 0-1.9.8-1.9 1.9 0 1.2.8 2 1.8 2m-3.7-.1h1v-3.6h-1V44zm-2.8-.8c-.5 0-.9-.5-.9-1s.4-1 .9-1c.6 0 .9.5.9 1 .1.5-.3 1-.9 1m0 .9c1.1 0 2-.8 2-1.9 0-1-.8-1.9-1.9-1.9-1.1 0-2 .8-2 1.9 0 1 .8 1.9 1.9 1.9m-6-.1h1v-1.4H36V44h1v-3.6h-1v1.4h-1.3v-1.4h-1V44zm-2.4.1c.8 0 1.3-.3 1.6-.8l-.8-.5c-.2.3-.4.4-.8.4-.5 0-.9-.4-.9-1 0-.5.4-1 .9-1 .3 0 .6.2.8.4l.8-.6c-.3-.4-.8-.8-1.5-.8-1.1 0-1.9.8-1.9 1.9 0 1.2.8 2 1.8 2" clip-path="url(#SVGID_00000078014442163080539500000003145212988011510173_)" fill="#fff"/></svg>