<svg id="Layer_1" xmlns="http://www.w3.org/2000/svg" viewBox="0 0 320 50"><style>.st0{fill:#490a09}</style><path class="st0" d="M12.9 16.6h4.6l3.7 6.1 3.7-6.1h4.6v15.7h-4.3v-9l-4 6.1h-.1l-4-6.1v9h-4.3V16.6zM32 28.1v-7.9h4.3v6.6c0 1.3.7 2 1.7 2s1.8-.7 1.8-2v-6.6h4.3v12.1h-4.3v-1.7c-.8 1-1.9 1.9-3.6 1.9-2.6 0-4.2-1.7-4.2-4.4zM46.3 20.1h4.3v2.4c.7-1.7 1.8-2.7 3.8-2.6v4.5H54c-2.2 0-3.5 1.3-3.5 4.1v3.8h-4.3V20.1zM55.3 26.2c0-4 2.5-6.4 5.3-6.4 1.8 0 2.9.8 3.7 1.7v-5.7h4.3v16.4h-4.3v-1.6c-.8 1-1.9 1.9-3.7 1.9-2.8 0-5.3-2.4-5.3-6.3zm9.1 0c0-1.6-1.1-2.8-2.5-2.8s-2.5 1.1-2.5 2.7 1.1 2.8 2.5 2.8c1.4.1 2.5-1.1 2.5-2.7zM70.4 26.2c0-3.6 2.5-6.4 6.1-6.4 4.2 0 6.1 3.1 6.1 6.6v.9h-8.1c.3 1.3 1.3 2 2.6 2 1 0 1.8-.4 2.7-1.2l2.4 2c-1.2 1.5-2.8 2.5-5.3 2.5-3.8 0-6.5-2.6-6.5-6.4zm8.2-1c-.2-1.3-.9-2.2-2.1-2.2-1.1 0-1.9.9-2.1 2.2h4.2zM84.5 20.1h4.3v2.4c.7-1.7 1.8-2.7 3.8-2.6v4.5h-.4c-2.2 0-3.5 1.3-3.5 4.1v3.8h-4.3V20.1zM93.1 30.7l1.6-2.6c1.4.9 2.9 1.4 4.2 1.4.7 0 1.1-.2 1.1-.7 0-.5-.7-.7-2-1-2.4-.6-4.3-1.4-4.3-3.9 0-2.6 2.1-4 4.9-4 1.8 0 3.6.5 5 1.4l-1.5 2.7c-1.3-.7-2.6-1.1-3.6-1.1-.7 0-1 .2-1 .6 0 .5.7.7 2 1.1 2.4.7 4.3 1.5 4.3 3.9 0 2.7-2 4.1-5 4.1-2-.1-4-.7-5.7-1.9zM112.6 28.5v-4.9h-1.4v-3.4h1.4v-3.1h4.3v3.1h2.8v3.4h-2.8v4.1c0 .9.4 1.2 1.2 1.2.6 0 1.1-.2 1.6-.4v3.3c-.8.4-1.8.7-3 .7-2.6 0-4.1-1.1-4.1-4zM120.7 26.2c0-3.5 2.8-6.4 6.7-6.4 3.9 0 6.7 2.8 6.7 6.3s-2.8 6.3-6.7 6.3c-3.9.2-6.7-2.7-6.7-6.2zm9.2 0c0-1.5-1.1-2.8-2.6-2.8s-2.5 1.2-2.5 2.7c0 1.5 1.1 2.7 2.6 2.7 1.6.1 2.5-1.1 2.5-2.6zM141.2 30.7l1.6-2.6c1.4.9 2.9 1.4 4.2 1.4.7 0 1.1-.2 1.1-.7 0-.5-.7-.7-2-1-2.4-.6-4.3-1.4-4.3-3.9 0-2.6 2.1-4 4.9-4 1.8 0 3.6.5 5 1.4l-1.5 2.7c-1.3-.7-2.6-1.1-3.6-1.1-.7 0-1 .2-1 .6 0 .5.7.7 2 1.1 2.4.7 4.3 1.5 4.3 3.9 0 2.7-2 4.1-5 4.1-2-.1-4-.7-5.7-1.9zM153.1 26.2c0-3.5 2.8-6.4 6.7-6.4 3.9 0 6.7 2.8 6.7 6.3s-2.8 6.3-6.7 6.3c-3.9.2-6.7-2.7-6.7-6.2zm9.3 0c0-1.5-1.1-2.8-2.6-2.8s-2.5 1.2-2.5 2.7c0 1.5 1.1 2.7 2.6 2.7 1.5.1 2.5-1.1 2.5-2.6zM168.4 15.9h4.3v16.4h-4.3V15.9zM174.2 20.1h4.5l2.3 7.1 2.3-7.1h4.4l-4.8 12.2H179l-4.8-12.2zM187.9 26.2c0-3.6 2.5-6.4 6.1-6.4 4.2 0 6.1 3.1 6.1 6.6v.9H192c.3 1.3 1.3 2 2.6 2 1 0 1.8-.4 2.7-1.2l2.4 2c-1.2 1.5-2.8 2.5-5.3 2.5-3.8 0-6.5-2.6-6.5-6.4zm8.2-1c-.2-1.3-.9-2.2-2.1-2.2-1.1 0-1.9.9-2.1 2.2h4.2zM201.7 27.9h4.4v4.4h-4.4v-4.4z"/></svg>