<svg id="Layer_1" xmlns="http://www.w3.org/2000/svg" viewBox="0 0 320 50"><style>.st0{fill:#490a09}</style><path class="st0" d="M12.9 35.4c0-4.6 3.6-8.2 8.5-8.2s8.4 3.6 8.4 8.1-3.6 8.2-8.5 8.2c-4.8 0-8.4-3.6-8.4-8.1zm12.5 0c0-2.3-1.6-4.3-4-4.3s-4 1.9-4 4.2c0 2.3 1.6 4.2 4 4.2 2.4.1 4-1.8 4-4.1zM31.9 31.1h4.3v1.7c.8-1 1.9-2 3.6-2 2.6 0 4.1 1.7 4.1 4.5v7.9h-4.3v-6.6c0-1.3-.7-2-1.7-2s-1.8.7-1.8 2v6.6h-4.3V31.1zM46.2 26.8h4.3v16.4h-4.3V26.8zM52.5 45.8l1.3-3c.7.4 1.4.7 1.9.7.4 0 .7-.1 1-.5l-4.8-11.9h4.5l2.4 7.3 2.3-7.3h4.4l-4.4 11.8c-1.1 2.8-2.2 3.9-4.6 3.9-1.6 0-2.9-.4-4-1zM72.6 37.2c0-3.5 2.8-6.4 6.7-6.4 3.9 0 6.7 2.8 6.7 6.3s-2.8 6.3-6.7 6.3c-3.9.1-6.7-2.8-6.7-6.2zm9.3 0c0-1.5-1.1-2.8-2.6-2.8s-2.5 1.2-2.5 2.7c0 1.5 1.1 2.7 2.6 2.7 1.5.1 2.5-1.2 2.5-2.6zM87.8 31.1h4.3v1.7c.8-1 1.9-2 3.6-2 2.6 0 4.1 1.7 4.1 4.5v7.9h-4.3v-6.6c0-1.3-.7-2-1.7-2s-1.8.7-1.8 2v6.6h-4.3V31.1zM108.5 27.5h4.6l3.7 6.1 3.7-6.1h4.6v15.7h-4.3v-9l-4 6.1h-.1l-4-6.1v9h-4.3V27.5zM128 27.5h4.4v5.9h5.6v-5.9h4.4v15.7H138v-6h-5.6v6H128V27.5zM144.4 40.4l5.6-5.9h-5.4v-3.4h11.1v2.8l-5.6 5.9h5.6v3.4h-11.3v-2.8zM163.4 35.4c0-4.6 3.5-8.2 8.3-8.2 3.2 0 5.3 1.3 6.7 3.3L175 33c-.9-1.1-1.9-1.8-3.4-1.8-2.2 0-3.7 1.9-3.7 4.1 0 2.4 1.5 4.2 3.7 4.2 1.6 0 2.6-.8 3.5-1.9l3.3 2.3c-1.5 2-3.5 3.5-7 3.5-4.4.1-8-3.3-8-8zM180 26.8h4.3v5.9c.8-1 1.9-1.9 3.6-1.9 2.6 0 4.1 1.7 4.1 4.5v7.9h-4.3v-6.6c0-1.3-.7-2-1.7-2s-1.8.7-1.8 2v6.6H180V26.8zM193.8 37.2c0-3.5 2.8-6.4 6.7-6.4 3.9 0 6.7 2.8 6.7 6.3s-2.8 6.3-6.7 6.3c-3.9.1-6.7-2.8-6.7-6.2zm9.2 0c0-1.5-1.1-2.8-2.6-2.8s-2.5 1.2-2.5 2.7c0 1.5 1.1 2.7 2.6 2.7 1.5.1 2.5-1.2 2.5-2.6zM209 26.8h4.4V30H209v-3.2zm.1 4.3h4.3v12.1h-4.3V31.1zM215.2 37.2c0-3.5 2.7-6.4 6.5-6.4 2.5 0 4.1 1.1 5.2 2.7l-2.9 2.2c-.6-.8-1.2-1.3-2.3-1.3-1.4 0-2.4 1.2-2.4 2.7 0 1.6 1 2.8 2.4 2.8 1 0 1.7-.5 2.3-1.3l2.8 2.1c-1.1 1.7-2.7 2.8-5.4 2.8-3.5 0-6.2-2.9-6.2-6.3zM227.7 37.2c0-3.6 2.5-6.4 6.1-6.4 4.2 0 6.1 3.1 6.1 6.6v.9h-8.1c.3 1.3 1.3 2 2.6 2 1 0 1.8-.4 2.7-1.2l2.4 2c-1.2 1.5-2.8 2.5-5.3 2.5-3.8-.1-6.5-2.7-6.5-6.4zm8.2-1.1c-.2-1.3-.9-2.2-2.1-2.2-1.1 0-1.9.9-2.1 2.2h4.2zM241.5 38.8h4.4v4.4h-4.4v-4.4z"/></svg>