<svg id="Layer_1" xmlns="http://www.w3.org/2000/svg" viewBox="0 0 320 50"><style>.st0{fill:#490a09}</style><path class="st0" d="M16 7.3h4.4l2.1 6.1 5.3-6.1h4.9L28.5 23h-4.4l2.4-9-5.6 6.1h-.1L18.5 14l-2.4 9h-4.3L16 7.3zM32.1 19.6c0-.7.1-1.4.3-2.2l1.8-6.6h4.3l-1.7 6.3c-.1.3-.2.7-.2 1 0 .8.5 1.3 1.4 1.3 1.2 0 1.9-.8 2.2-2.2l1.7-6.4h4.3L43 23h-4.3l.4-1.4c-.8.9-2 1.7-3.5 1.7-2.2-.1-3.5-1.5-3.5-3.7zM48.5 10.8h4.3l-.7 2.4c1.2-1.7 2.6-2.8 4.6-2.6l-1.2 4.5h-.4c-2.3 0-3.8 1.3-4.6 4.2l-1 3.7h-4.3l3.3-12.2zM56 18.3c0-4.4 3.1-7.7 6.5-7.7 1.8 0 2.9.8 3.7 1.9l1.6-5.9H72L67.6 23h-4.3l.4-1.3c-1 .9-2.1 1.5-3.5 1.5-2.3 0-4.2-1.8-4.2-4.9zm9.3-2c0-1.3-.9-2.2-2.1-2.2-1.6 0-3 1.5-3 3.5 0 1.3.8 2.1 2.1 2.1 1.7 0 3-1.6 3-3.4zM77.2 20.1c.9 0 1.7-.3 2.6-1l2 2.3c-1.2 1.1-2.8 1.8-5 1.8-3.6 0-5.8-2.1-5.8-5.4 0-3.6 2.8-7.3 7.3-7.3 3.6 0 5.2 2.4 5.2 5 0 .8-.2 1.7-.5 2.5h-8c.1 1.3.8 2.1 2.2 2.1zm2.4-4.2c.1-.2.1-.4.1-.7 0-.8-.5-1.5-1.7-1.5-1.1 0-2.3.7-2.8 2.2h4.4zM86.7 10.8H91l-.7 2.4c1.2-1.7 2.6-2.8 4.6-2.6l-1.2 4.5h-.4c-2.3 0-3.8 1.3-4.6 4.2l-1 3.7h-4.3l3.3-12.2zM103.8 7.3h4.4L103.9 23h-4.4l4.3-15.7zM109.8 10.8h4.3l-.4 1.4c.8-.9 2-1.7 3.5-1.7 2.2 0 3.5 1.4 3.5 3.6 0 .7-.2 1.4-.4 2.2l-1.7 6.6h-4.3l1.7-6.3c.1-.3.1-.7.1-1 0-.8-.5-1.3-1.3-1.3-1.2 0-1.9.8-2.3 2.2l-1.7 6.4h-4.3l3.3-12.1zM121.9 18.6h4.4l-1.2 4.4h-4.4l1.2-4.4zM128.7 18.6h4.4l-1.2 4.4h-4.4l1.2-4.4zM135.5 18.6h4.4l-1.2 4.4h-4.4l1.2-4.4z"/></svg>