<svg id="Layer_1" xmlns="http://www.w3.org/2000/svg" viewBox="0 0 320 50"><style>.st0{fill:#ab1f2d}.st1{fill:#fff}</style><path class="st0" d="M270.1 33.3c-3 0-5.5 2.5-5.5 5.5v1.6c0 3 2.5 5.5 5.5 5.5h38c3 0 5.5-2.5 5.5-5.5v-1.6c0-3-2.5-5.5-5.5-5.5h-38z"/><path class="st1" d="M267.9 37.8h1l.9 3 1-3h.8l1 3 .9-3h1l-1.5 4.4h-.8l-1-2.9-1 2.9h-.8l-1.5-4.4zM276.2 37.7h.9l1.9 4.4h-1l-.4-1h-1.8l-.4 1h-1l1.8-4.4zm1 2.6l-.6-1.4-.6 1.4h1.2zM280.1 38.6h-1.3v-.9h3.6v.9H281v3.5h-1v-3.5zM282.7 40c0-1.3.9-2.3 2.3-2.3.8 0 1.3.3 1.7.7l-.6.7c-.3-.3-.7-.5-1.1-.5-.7 0-1.3.6-1.3 1.4 0 .7.5 1.4 1.3 1.4.5 0 .8-.2 1.1-.5l.6.6c-.4.5-.9.8-1.8.8-1.2-.1-2.2-1.1-2.2-2.3zM287.5 37.8h1v1.7h1.8v-1.7h1v4.4h-1v-1.8h-1.8v1.8h-1v-4.4zM294.1 37.8h.9l2 2.7v-2.7h.9v4.4h-.8l-2.1-2.8v2.8h-.9v-4.4zM298.9 40c0-1.3 1-2.3 2.3-2.3 1.3 0 2.3 1 2.3 2.2 0 1.2-1 2.3-2.3 2.3-1.4 0-2.3-1-2.3-2.2zm3.6 0c0-.8-.5-1.4-1.3-1.4s-1.3.6-1.3 1.4c0 .7.5 1.4 1.3 1.4.8-.1 1.3-.7 1.3-1.4zM303.8 37.8h1l.9 3 1-3h.8l1 3 .9-3h1l-1.5 4.4h-.8l-1-2.9-1 2.9h-.8l-1.5-4.4z"/></svg>