<svg id="Layer_1" xmlns="http://www.w3.org/2000/svg" viewBox="0 0 728 90"><style>.st0{fill:#490a09}</style><path class="st0" d="M68.6 30.8h7.7L80.9 46 86 30.7h6.3l5 15.3 4.6-15.2h7.6l-8.8 26.5h-6.4L89 42.1l-5.3 15.2h-6.4l-8.7-26.5zM108.6 47c0-6 4.2-10.7 10.3-10.7 7 0 10.3 5.2 10.3 11.1v1.5h-13.6c.6 2.2 2.2 3.3 4.4 3.3 1.7 0 3-.6 4.5-2.1l3.9 3.3c-2 2.5-4.8 4.1-8.8 4.1-6.5.1-11-4.2-11-10.5zm13.8-1.7c-.3-2.3-1.6-3.7-3.5-3.7s-3.2 1.5-3.5 3.7h7zM142.6 29.7h7.1v9.9c1.3-1.7 3.2-3.2 6.1-3.2 4.3 0 6.9 2.9 6.9 7.5v13.3h-7.1v-11c0-2.2-1.2-3.4-2.9-3.4s-3 1.2-3 3.4v11h-7.1V29.7zM165.4 51.3c0-4.3 3.2-6.5 8-6.5 1.9 0 3.7.4 4.9.8v-.3c0-2.1-1.3-3.3-4.1-3.3-2.1 0-3.8.4-5.6 1.1l-1.5-5c2.3-.9 4.7-1.6 8.2-1.6 3.6 0 6.1.9 7.7 2.5 1.5 1.5 2.2 3.6 2.2 6.5v11.7h-7.1V55c-1.4 1.5-3.3 2.6-6 2.6-3.7-.1-6.7-2.3-6.7-6.3zm13-1.6v-.9c-.7-.3-1.7-.5-2.8-.5-2.1 0-3.3 1-3.3 2.5v.1c0 1.4 1.1 2.2 2.5 2.2 2.1 0 3.6-1.3 3.6-3.4zM186.4 36.8h7.5l3.9 11.9 3.9-11.9h7.4L201 57.2h-6.5l-8.1-20.4zM209.5 47c0-6 4.2-10.7 10.3-10.7 7 0 10.3 5.2 10.3 11.1v1.5h-13.6c.6 2.2 2.2 3.3 4.4 3.3 1.7 0 3-.6 4.5-2.1l3.9 3.3c-2 2.5-4.8 4.1-8.8 4.1-6.5.1-11-4.2-11-10.5zm13.8-1.7c-.3-2.3-1.6-3.7-3.5-3.7s-3.2 1.5-3.5 3.7h7zM242.9 61.5l2.2-5c1.1.7 2.3 1.1 3.1 1.1.7 0 1.2-.2 1.7-.8l-8-20h7.5l4.1 12.3 3.8-12.3h7.3l-7.4 19.9c-1.8 4.7-3.7 6.6-7.7 6.6-2.5-.1-4.7-.8-6.6-1.8zM265 47c0-5.9 4.7-10.7 11.3-10.7 6.5 0 11.2 4.8 11.2 10.6v.1c0 5.8-4.7 10.6-11.3 10.6-6.5 0-11.2-4.8-11.2-10.6zm15.6 0c0-2.6-1.8-4.7-4.3-4.7-2.6 0-4.2 2.1-4.2 4.5v.1c0 2.5 1.8 4.6 4.3 4.6s4.2-2 4.2-4.5zM290.4 50.1V36.8h7.1v11c0 2.2 1.2 3.4 2.9 3.4s3-1.2 3-3.4v-11h7.1v20.3h-7.1v-2.8c-1.3 1.7-3.2 3.2-6.1 3.2-4.3 0-6.9-2.8-6.9-7.4zM314.4 36.8h7.1v4.1c1.2-2.8 3-4.6 6.4-4.4V44h-.6c-3.7 0-5.8 2.1-5.8 6.8v6.3h-7.1V36.8zM347.7 37.2h-7.9v-6.4h23.1v6.4H355v19.9h-7.3V37.2zM364 30.8h8.2l6 16.7 6-16.7h8l-10.7 26.5h-6.8L364 30.8zM389.5 49.8h7.4v7.3h-7.4v-7.3z"/></svg>