<svg id="Layer_1" xmlns="http://www.w3.org/2000/svg" viewBox="0 0 728 90"><style>.st0{fill:#490a09}</style><path class="st0" d="M68.1 31.1h7.3v26.3h-7.3V31.1zM81.1 51.1v-8.3h-2.4V37h2.4v-5.2h7.1V37h4.7v5.8h-4.7v6.9c0 1.4.6 2 2 2 .9 0 1.8-.3 2.7-.7v5.6c-1.3.7-3 1.2-5 1.2-4.3 0-6.8-1.9-6.8-6.7zM95 51.6c0-4.3 3.2-6.5 8-6.5 1.9 0 3.7.4 4.9.8v-.3c0-2.1-1.3-3.3-4.1-3.3-2.1 0-3.8.4-5.6 1.1l-1.5-5c2.3-.9 4.7-1.6 8.2-1.6 3.6 0 6.1.9 7.7 2.5 1.5 1.5 2.2 3.6 2.2 6.5v11.7h-7.1v-2.1c-1.4 1.5-3.3 2.6-6 2.6-3.7-.1-6.7-2.4-6.7-6.4zm12.9-1.6v-.9c-.7-.3-1.7-.5-2.8-.5-2.1 0-3.3 1-3.3 2.5v.1c0 1.4 1.1 2.2 2.5 2.2 2.2 0 3.6-1.3 3.6-3.4zM118.7 30h7.1v27.4h-7.1V30zM129 47.3c0-5.9 4.7-10.7 11.3-10.7 6.5 0 11.2 4.8 11.2 10.6v.1c0 5.8-4.7 10.6-11.3 10.6-6.5 0-11.2-4.8-11.2-10.6zm15.5 0c0-2.6-1.8-4.7-4.3-4.7-2.6 0-4.2 2.1-4.2 4.5v.1c0 2.5 1.8 4.6 4.3 4.6 2.6 0 4.2-2 4.2-4.5zM154.5 37.1h7.1v2.7c1.4-1.7 3.1-3.2 6.2-3.2 4.9 0 9 4 9 10.5v.1c0 6.6-4.2 10.6-9 10.6-3.1 0-4.9-1.4-6.2-2.9v8.5h-7.1V37.1zm15.3 10.2c0-2.7-1.8-4.7-4.2-4.7-2.3 0-4.1 1.9-4.1 4.6v.1c0 2.7 1.8 4.6 4.1 4.6 2.4 0 4.2-1.9 4.2-4.6zM179.9 30h7.1v9.9c1.3-1.7 3.2-3.2 6.1-3.2 4.3 0 6.9 2.9 6.9 7.5v13.3h-7.1v-11c0-2.2-1.2-3.4-2.9-3.4s-3 1.2-3 3.4v11h-7.1V30zM203.8 30h7.4v5.3h-7.4V30zm.1 7.1h7.1v20.3h-7.1V37.1zM215.2 30h7.1v27.4h-7.1V30zM225.5 47.3c0-6 4.2-10.7 10.3-10.7 7 0 10.3 5.2 10.3 11.1v1.5h-13.6c.6 2.2 2.2 3.3 4.4 3.3 1.7 0 3-.6 4.5-2.1l3.9 3.3c-2 2.5-4.8 4.1-8.8 4.1-6.5.1-11-4.2-11-10.5zm13.8-1.7c-.3-2.3-1.6-3.7-3.5-3.7s-3.2 1.5-3.5 3.7h7zM248.6 50.1h7.4v7.3h-7.4v-7.3z"/></svg>