<svg id="Layer_1" xmlns="http://www.w3.org/2000/svg" viewBox="0 0 300 250"><style>.st0{fill:#fff}</style><path class="st0" d="M25.8 84.2h-8.3v-6.7h24.3v6.7h-8.3v21h-7.7v-21zM44.7 76.3h7.5v10.4c1.4-1.8 3.4-3.4 6.4-3.4 4.6 0 7.3 3 7.3 7.9v14h-7.5V93.6c0-2.3-1.2-3.6-3-3.6s-3.2 1.3-3.2 3.6v11.6h-7.5V76.3zM68.9 94.6c0-6.3 4.5-11.3 10.8-11.3 7.4 0 10.8 5.4 10.8 11.7v1.5H76.2c.6 2.3 2.3 3.5 4.6 3.5 1.8 0 3.2-.7 4.8-2.2l4.2 3.4c-2.1 2.6-5 4.4-9.3 4.4-6.8.1-11.6-4.4-11.6-11zm14.6-1.9c-.3-2.4-1.7-3.9-3.7-3.9s-3.3 1.5-3.7 3.9h7.4zM103.3 77.5h8.1l4.8 16 5.3-16.1h6.6l5.3 16.1 4.8-16h8l-9.3 27.9h-6.7l-5.6-16-5.5 16h-6.7l-9.1-27.9zM145.4 94.6c0-6.2 5-11.3 11.9-11.3s11.8 5 11.8 11.1v.1c0 6.1-5 11.2-11.9 11.2-6.8 0-11.8-5-11.8-11.1zm16.4 0c0-2.7-1.9-4.9-4.6-4.9-2.7 0-4.5 2.2-4.5 4.8v.1c0 2.6 1.9 4.8 4.6 4.8 2.7-.1 4.5-2.3 4.5-4.8zM172.3 83.8h7.5v4.3c1.2-2.9 3.2-4.8 6.8-4.7v7.9h-.6c-3.9 0-6.1 2.3-6.1 7.2v6.7h-7.5V83.8zM189.4 76.3h7.5v28.9h-7.5V76.3zM200.3 94.6c0-7 4.4-11.3 9.4-11.3 3.2 0 5.1 1.5 6.6 3.1V76.3h7.5v28.9h-7.5v-2.9c-1.5 1.8-3.3 3.3-6.5 3.3-5.1.1-9.5-4.2-9.5-11zm16.1-.1c0-2.9-1.9-4.9-4.4-4.9-2.4 0-4.4 2-4.4 4.8v.1c0 2.9 2 4.9 4.4 4.9 2.5 0 4.4-2.1 4.4-4.9zM226.8 88.9c2.7-.3 4.1-1.6 4-3.7h-3v-7.7h7.8v6.3c0 5.9-3.2 7.9-8.1 8l-.7-2.9zM237.2 102.5l2.8-4.6c2.5 1.6 5.1 2.5 7.4 2.5 1.3 0 1.9-.4 1.9-1.1v-.1c0-.8-1.2-1.2-3.4-1.8-4.2-1.1-7.6-2.5-7.6-6.9v-.1c0-4.6 3.6-7.1 8.6-7.1 3.1 0 6.4.9 8.8 2.5l-2.6 4.8c-2.2-1.2-4.6-2-6.3-2-1.1 0-1.7.4-1.7 1v.1c0 .8 1.2 1.2 3.5 1.9 4.2 1.2 7.6 2.7 7.6 6.8v.1c0 4.7-3.5 7.2-8.8 7.2-3.7 0-7.2-1.1-10.2-3.2z"/><g><path class="st0" d="M19 117.3h14.2c3.5 0 5.9.9 7.6 2.5 1.1 1.1 1.8 2.6 1.8 4.5v.1c0 3.2-1.8 5.1-4.3 6.2 3.4 1.1 5.5 3 5.5 6.8v.1c0 4.8-3.9 7.6-10.5 7.6H19v-27.8zm12.3 11.1c2.3 0 3.6-.8 3.6-2.4v-.1c0-1.5-1.2-2.4-3.5-2.4h-5v4.9h4.9zm1.1 10.5c2.3 0 3.7-.9 3.7-2.5v-.1c0-1.5-1.2-2.5-3.8-2.5h-5.9v5.1h6zM46 134.4c0-6.3 4.5-11.3 10.8-11.3 7.4 0 10.8 5.4 10.8 11.7v1.5H53.2c.6 2.3 2.3 3.5 4.6 3.5 1.8 0 3.2-.7 4.8-2.2l4.2 3.4c-2.1 2.6-5 4.4-9.3 4.4-6.8.2-11.5-4.3-11.5-11zm14.6-1.8c-.3-2.4-1.7-3.9-3.7-3.9s-3.3 1.5-3.7 3.9h7.4zM69.2 142.4l2.8-4.6c2.5 1.6 5.1 2.5 7.4 2.5 1.3 0 1.9-.4 1.9-1.1v-.2c0-.8-1.2-1.2-3.4-1.8-4.2-1.1-7.6-2.5-7.6-6.9v-.1c0-4.6 3.6-7.1 8.6-7.1 3.1 0 6.4.9 8.8 2.5l-2.6 4.8c-2.2-1.2-4.6-2-6.3-2-1.1 0-1.7.4-1.7 1v.1c0 .8 1.2 1.2 3.5 1.9 4.2 1.2 7.6 2.7 7.6 6.8v.1c0 4.7-3.5 7.2-8.8 7.2-3.7 0-7.2-1-10.2-3.1zM92.1 138.4v-8.7h-2.5v-6.1h2.5v-5.4h7.5v5.4h5v6.1h-5v7.2c0 1.5.7 2.1 2.1 2.1 1 0 1.9-.3 2.9-.7v5.9c-1.3.8-3.1 1.2-5.2 1.2-4.6.1-7.3-1.9-7.3-7zM126 124.1h-8.3v-6.7H142v6.7h-8.3v21H126v-21zM143.2 117.3h8.6l6.3 17.5 6.3-17.5h8.4l-11.2 27.9h-7.1l-11.3-27.9z"/></g><g><path class="st0" d="M18.7 156h7.5v28.9h-7.5V156zM30.4 156h7.8v5.5h-7.8V156zm.2 7.5h7.5v21.4h-7.5v-21.4zM40.7 163.5h7.9l4.1 12.5 4.1-12.5h7.8L56 185.1h-6.9l-8.4-21.6zM64.9 174.3c0-6.3 4.5-11.3 10.8-11.3 7.4 0 10.8 5.4 10.8 11.7v1.5H72.2c.6 2.3 2.3 3.5 4.6 3.5 1.8 0 3.2-.7 4.8-2.2l4.2 3.4c-2.1 2.6-5 4.4-9.3 4.4-6.8.2-11.6-4.3-11.6-11zm14.6-1.8c-.3-2.4-1.7-3.9-3.7-3.9s-3.3 1.5-3.7 3.9h7.4zM88.1 182.2l2.8-4.6c2.5 1.6 5.1 2.5 7.4 2.5 1.3 0 1.9-.4 1.9-1.1v-.1c0-.8-1.2-1.2-3.4-1.8-4.2-1.1-7.6-2.5-7.6-6.9v-.1c0-4.6 3.6-7.1 8.6-7.1 3.1 0 6.4.9 8.8 2.5l-2.6 4.8c-2.2-1.2-4.6-2-6.3-2-1.1 0-1.7.4-1.7 1v.1c0 .8 1.2 1.2 3.5 1.9 4.2 1.2 7.6 2.7 7.6 6.8v.1c0 4.7-3.5 7.2-8.8 7.2-3.7 0-7.2-1-10.2-3.2zM121.1 156h7.5v10.4c1.4-1.8 3.4-3.4 6.4-3.4 4.6 0 7.3 3 7.3 7.9v14h-7.5v-11.6c0-2.3-1.2-3.6-3-3.6s-3.2 1.3-3.2 3.6v11.6h-7.5V156zM145.3 174.3c0-6.3 4.5-11.3 10.8-11.3 7.4 0 10.8 5.4 10.8 11.7v1.5h-14.3c.6 2.3 2.3 3.5 4.6 3.5 1.8 0 3.2-.7 4.8-2.2l4.2 3.4c-2.1 2.6-5 4.4-9.3 4.4-6.9.2-11.6-4.3-11.6-11zm14.6-1.8c-.3-2.4-1.7-3.9-3.7-3.9s-3.3 1.5-3.7 3.9h7.4zM170.1 163.5h7.5v4.3c1.2-2.9 3.2-4.8 6.8-4.7v7.9h-.6c-3.9 0-6.1 2.3-6.1 7.2v6.7h-7.5v-21.4zM185.8 174.3c0-6.3 4.5-11.3 10.8-11.3 7.4 0 10.8 5.4 10.8 11.7v1.5H193c.6 2.3 2.3 3.5 4.6 3.5 1.8 0 3.2-.7 4.8-2.2l4.2 3.4c-2.1 2.6-5 4.4-9.3 4.4-6.8.2-11.5-4.3-11.5-11zm14.6-1.8c-.3-2.4-1.7-3.9-3.7-3.9s-3.3 1.5-3.7 3.9h7.4zM210.1 177.2h7.8v7.7h-7.8v-7.7z"/></g></svg>