<svg id="Layer_1" xmlns="http://www.w3.org/2000/svg" viewBox="0 0 300 250"><style>.st0{fill:#461211}</style><path class="st0" d="M18.2 155.1h22v6.4H25.7v4.1h13.1v6H25.7v4.3h14.7v6.4H18.2v-27.2zM43.6 175.1v-13.8H51v11.4c0 2.3 1.2 3.5 3 3.5s3.1-1.2 3.1-3.5v-11.4h7.4v21.1h-7.4v-2.9c-1.4 1.8-3.3 3.4-6.3 3.4-4.5 0-7.2-3-7.2-7.8zM68.5 161.3h7.4v4.3c1.2-2.9 3.2-4.8 6.7-4.6v7.8H82c-3.9 0-6 2.2-6 7.1v6.6h-7.4v-21.2zM84 171.9c0-6.1 4.9-11.1 11.7-11.1 6.8 0 11.6 5 11.6 11v.1c0 6-4.9 11-11.7 11-6.7 0-11.6-5-11.6-11zm16.1 0c0-2.7-1.9-4.8-4.5-4.8-2.7 0-4.4 2.1-4.4 4.7v.1c0 2.6 1.9 4.8 4.5 4.8 2.7-.1 4.4-2.2 4.4-4.8zM110.5 161.3h7.4v2.8c1.4-1.8 3.2-3.3 6.4-3.3 5 0 9.4 4.2 9.4 10.9v.1c0 6.9-4.3 11-9.3 11-3.2 0-5.1-1.4-6.4-3v8.8h-7.4v-27.3zm15.8 10.6c0-2.8-1.9-4.8-4.3-4.8s-4.3 2-4.3 4.8v.1c0 2.8 1.9 4.8 4.3 4.8 2.4-.1 4.3-2.1 4.3-4.9zM136.8 153.9h7.4v10.3c1.4-1.8 3.3-3.4 6.3-3.4 4.5 0 7.2 3 7.2 7.8v13.8h-7.4V171c0-2.3-1.2-3.6-3-3.6s-3.1 1.2-3.1 3.6v11.4h-7.4v-28.5zM161.6 153.9h7.7v5.5h-7.7v-5.5zm.1 7.4h7.4v21.1h-7.4v-21.1zM173.4 153.9h7.4v28.5h-7.4v-28.5zM184.1 171.9c0-6.2 4.4-11.1 10.7-11.1 7.3 0 10.7 5.3 10.7 11.5v1.5h-14.1c.6 2.3 2.3 3.5 4.6 3.5 1.8 0 3.2-.7 4.7-2.1l4.1 3.4c-2 2.6-5 4.3-9.2 4.3-6.8 0-11.5-4.4-11.5-11zm14.4-1.8c-.3-2.3-1.6-3.8-3.7-3.8-2 0-3.3 1.5-3.7 3.8h7.4zM208.1 174.8h7.7v7.6h-7.7v-7.6z"/></svg>