<svg id="Layer_1" xmlns="http://www.w3.org/2000/svg" viewBox="0 0 728 90"><style>.st0{fill:#fff}</style><path class="st0" d="M74.6 31.2h-6.9v-5.6h20.2v5.6H81v17.4h-6.4V31.2zM90.4 24.6h6.2v8.6c1.2-1.5 2.8-2.8 5.3-2.8 3.8 0 6.1 2.5 6.1 6.5v11.6h-6.2V39c0-1.9-1-3-2.5-3s-2.6 1.1-2.6 3v9.6h-6.2v-24zM110.5 39.8c0-5.3 3.7-9.4 9-9.4 6.1 0 9 4.5 9 9.7v1.3h-11.9c.5 1.9 1.9 2.9 3.8 2.9 1.5 0 2.7-.6 3.9-1.8l3.5 2.9c-1.7 2.2-4.2 3.6-7.7 3.6-5.7.1-9.6-3.7-9.6-9.2zm12.1-1.5c-.2-2-1.4-3.2-3.1-3.2-1.6 0-2.8 1.3-3.1 3.2h6.2zM139 25.6h6.7l4 13.3 4.4-13.4h5.5l4.4 13.4 4-13.3h6.6l-7.7 23.2h-5.6l-4.6-13.3-4.6 13.3h-5.6L139 25.6zM174.1 39.8c0-5.1 4.1-9.4 9.9-9.4 5.7 0 9.8 4.2 9.8 9.2v.1c0 5.1-4.1 9.3-9.9 9.3-5.7.1-9.8-4.1-9.8-9.2zm13.5 0c0-2.2-1.6-4.1-3.8-4.1-2.3 0-3.7 1.8-3.7 3.9v.1c0 2.2 1.6 4 3.8 4 2.3.1 3.7-1.7 3.7-3.9zM196.4 30.8h6.2v3.6c1-2.4 2.7-4 5.6-3.9v6.6h-.5c-3.3 0-5.1 1.9-5.1 6v5.5h-6.2V30.8zM210.6 24.6h6.2v24h-6.2v-24zM219.6 39.8c0-5.9 3.6-9.4 7.8-9.4 2.7 0 4.3 1.2 5.5 2.6v-8.4h6.2v24h-6.2v-2.4c-1.2 1.5-2.8 2.8-5.4 2.8-4.2 0-7.9-3.5-7.9-9.2zm13.4 0c0-2.4-1.6-4.1-3.6-4.1s-3.6 1.6-3.6 4v.1c0 2.4 1.6 4 3.6 4s3.6-1.7 3.6-4zM241.6 35.1c2.2-.2 3.4-1.3 3.3-3.1h-2.5v-6.4h6.5v5.2c0 4.9-2.6 6.5-6.7 6.7l-.6-2.4zM250.3 46.4l2.3-3.8c2 1.3 4.3 2 6.1 2 1.1 0 1.6-.3 1.6-1v-.1c0-.7-1-1-2.9-1.5-3.5-.9-6.3-2.1-6.3-5.7v-.1c0-3.8 3-5.9 7.1-5.9 2.6 0 5.3.8 7.3 2.1l-2.1 3.9c-1.8-1-3.8-1.6-5.3-1.6-1 0-1.4.4-1.4.9v.1c0 .7 1 1 2.9 1.6 3.5 1 6.3 2.2 6.3 5.7v.1c0 3.9-2.9 6-7.3 6-2.9-.1-5.8-.9-8.3-2.7zM278 25.6h11.8c2.9 0 4.9.7 6.3 2.1.9.9 1.5 2.1 1.5 3.7v.1c0 2.7-1.5 4.2-3.6 5.1 2.8.9 4.6 2.5 4.6 5.6v.1c0 3.9-3.2 6.3-8.7 6.3H278v-23zm10.2 9.2c1.9 0 3-.7 3-2v-.1c0-1.2-1-2-2.9-2h-4.1v4h4zm1 8.7c1.9 0 3.1-.8 3.1-2.1v-.1c0-1.2-1-2.1-3.1-2.1h-4.9v4.2h4.9zM300.5 39.8c0-5.3 3.7-9.4 9-9.4 6.1 0 9 4.5 9 9.7v1.3h-11.9c.5 1.9 1.9 2.9 3.8 2.9 1.5 0 2.7-.6 3.9-1.8l3.5 2.9c-1.7 2.2-4.2 3.6-7.7 3.6-5.7.1-9.6-3.7-9.6-9.2zm12.1-1.5c-.2-2-1.4-3.2-3.1-3.2-1.6 0-2.8 1.3-3.1 3.2h6.2zM319.7 46.4l2.3-3.8c2 1.3 4.3 2 6.1 2 1.1 0 1.6-.3 1.6-1v-.1c0-.7-1-1-2.9-1.5-3.5-.9-6.3-2.1-6.3-5.7v-.1c0-3.8 3-5.9 7.1-5.9 2.6 0 5.3.8 7.3 2.1l-2.1 3.9c-1.8-1-3.8-1.6-5.3-1.6-1 0-1.4.4-1.4.9v.1c0 .7 1 1 2.9 1.6 3.5 1 6.3 2.2 6.3 5.7v.1c0 3.9-2.9 6-7.3 6-2.8-.1-5.8-.9-8.3-2.7zM338.8 43.1v-7.2h-2.1v-5h2.1v-4.5h6.2v4.5h4.1v5H345v6c0 1.2.6 1.8 1.7 1.8.8 0 1.6-.2 2.4-.6V48c-1.1.6-2.6 1-4.3 1-3.8 0-6-1.6-6-5.9zM367 31.2h-7v-5.6h20.2v5.6h-6.9v17.4H367V31.2zM381.2 25.6h7.1l5.2 14.6 5.2-14.6h7l-9.3 23.2h-5.9l-9.3-23.2zM416.9 24.6h6.2v24h-6.2v-24zM426.7 24.6h6.5v4.6h-6.5v-4.6zm.1 6.2h6.2v17.8h-6.2V30.8zM435.2 30.8h6.6l3.4 10.4 3.4-10.4h6.5l-7.1 18h-5.7l-7.1-18zM455.3 39.8c0-5.3 3.7-9.4 9-9.4 6.1 0 9 4.5 9 9.7v1.3h-11.9c.5 1.9 1.9 2.9 3.8 2.9 1.5 0 2.7-.6 3.9-1.8l3.5 2.9c-1.7 2.2-4.2 3.6-7.7 3.6-5.6.1-9.6-3.7-9.6-9.2zm12.1-1.5c-.2-2-1.4-3.2-3.1-3.2-1.6 0-2.8 1.3-3.1 3.2h6.2zM474.6 46.4l2.3-3.8c2 1.3 4.3 2 6.1 2 1.1 0 1.6-.3 1.6-1v-.1c0-.7-1-1-2.9-1.5-3.5-.9-6.3-2.1-6.3-5.7v-.1c0-3.8 3-5.9 7.1-5.9 2.6 0 5.3.8 7.3 2.1l-2.1 3.9c-1.8-1-3.8-1.6-5.3-1.6-1 0-1.4.4-1.4.9v.1c0 .7 1 1 2.9 1.6 3.5 1 6.3 2.2 6.3 5.7v.1c0 3.9-2.9 6-7.3 6-2.9-.1-5.8-.9-8.3-2.7zM502 24.6h6.2v8.6c1.2-1.5 2.8-2.8 5.3-2.8 3.8 0 6 2.5 6 6.5v11.6h-6.2V39c0-1.9-1-3-2.5-3s-2.6 1.1-2.6 3v9.6H502v-24zM522.1 39.8c0-5.3 3.7-9.4 9-9.4 6.1 0 9 4.5 9 9.7v1.3h-11.9c.5 1.9 1.9 2.9 3.8 2.9 1.5 0 2.7-.6 3.9-1.8l3.5 2.9c-1.7 2.2-4.2 3.6-7.7 3.6-5.7.1-9.6-3.7-9.6-9.2zm12.1-1.5c-.2-2-1.4-3.2-3.1-3.2-1.6 0-2.8 1.3-3.1 3.2h6.2zM542.7 30.8h6.2v3.6c1-2.4 2.7-4 5.6-3.9v6.6h-.5c-3.3 0-5.1 1.9-5.1 6v5.5h-6.2V30.8zM555.7 39.8c0-5.3 3.7-9.4 9-9.4 6.1 0 9 4.5 9 9.7v1.3h-11.9c.5 1.9 1.9 2.9 3.8 2.9 1.5 0 2.7-.6 3.9-1.8l3.5 2.9c-1.7 2.2-4.2 3.6-7.7 3.6-5.6.1-9.6-3.7-9.6-9.2zm12.1-1.5c-.2-2-1.4-3.2-3.1-3.2-1.6 0-2.8 1.3-3.1 3.2h6.2zM576 42.2h6.5v6.4H576v-6.4z"/></svg>