<svg id="Layer_1" xmlns="http://www.w3.org/2000/svg" viewBox="0 0 970 250"><style>.st0{fill:#490a09}</style><path class="st0" d="M38.6 53h29.7c7.3 0 12.4 1.8 15.8 5.2 2.3 2.3 3.7 5.4 3.7 9.3v.2c0 6.7-3.8 10.7-8.9 12.9 7 2.3 11.5 6.3 11.5 14.1v.2c0 9.9-8.1 16-21.9 16H38.6V53zm25.7 23.1c4.9 0 7.6-1.7 7.6-5v-.2c0-3.1-2.5-5-7.3-5H54.3v10.2h10zM66.7 98c4.9 0 7.7-1.9 7.7-5.3v-.2c0-3.1-2.5-5.2-7.9-5.2H54.3V98h12.4zM95 88.7v-.2c0-13.1 9.3-23.4 22.6-23.4 15.5 0 22.6 11.3 22.6 24.5 0 1 0 2.1-.1 3.2h-29.9c1.2 4.9 4.8 7.4 9.7 7.4 3.7 0 6.7-1.4 9.9-4.5l8.7 7.2c-4.3 5.5-10.5 9.1-19.4 9.1-14.2 0-24.1-9.4-24.1-23.3zm30.4-3.9c-.6-5-3.5-8.1-7.8-8.1-4.1 0-6.9 3.2-7.8 8.1h15.6zM146.9 50.5h15.7v21.7c2.9-3.7 7-7.1 13.4-7.1 9.5 0 15.2 6.3 15.2 16.5v29.3h-15.7V86.7c0-4.9-2.6-7.5-6.3-7.5-3.8 0-6.6 2.6-6.6 7.5v24.2h-15.7V50.5zM199.3 50.5h16.4v11.6h-16.4V50.5zm.3 15.6h15.7v44.7h-15.7V66.1zM224.1 66.1h15.7v6.3c2.9-3.7 7-7.3 13.4-7.3 9.5 0 15.2 6.3 15.2 16.5v29.3h-15.7V86.7c0-4.9-2.6-7.5-6.3-7.5-3.8 0-6.6 2.6-6.6 7.5v24.2h-15.7V66.1zM274.8 88.7v-.2c0-14.6 9.1-23.4 19.7-23.4 6.8 0 10.7 3.1 13.7 6.4v-21H324v60.4h-15.7v-6c-3.1 3.7-6.9 6.9-13.6 6.9-10.7.1-19.9-8.8-19.9-23.1zm33.7-.1v-.2c0-5.9-4.1-10.1-9.1-10.1s-9.2 4.1-9.2 10.1v.2c0 6 4.1 10.2 9.2 10.2s9.1-4.3 9.1-10.2zM353.5 88.7v-.2c0-13.1 9.3-23.4 22.6-23.4 15.5 0 22.6 11.3 22.6 24.5 0 1 0 2.1-.1 3.2h-29.9c1.2 4.9 4.8 7.4 9.7 7.4 3.7 0 6.7-1.4 9.9-4.5l8.7 7.2c-4.3 5.5-10.5 9.1-19.4 9.1-14.2 0-24.1-9.4-24.1-23.3zm30.4-3.9c-.6-5-3.5-8.1-7.8-8.1-4.1 0-6.9 3.2-7.8 8.1h15.6zM399.9 66.1h16.5l8.6 26.1 8.6-26.1H450l-17.9 45.1h-14.3l-17.9-45.1zM450.6 88.7v-.2c0-13.1 9.3-23.4 22.6-23.4 15.5 0 22.6 11.3 22.6 24.5 0 1 0 2.1-.1 3.2h-29.9c1.2 4.9 4.8 7.4 9.7 7.4 3.7 0 6.7-1.4 9.9-4.5l8.7 7.2c-4.3 5.5-10.5 9.1-19.4 9.1-14.2 0-24.1-9.4-24.1-23.3zm30.4-3.9c-.6-5-3.5-8.1-7.8-8.1-4.1 0-6.9 3.2-7.8 8.1H481zM502.4 66.1h15.7v9c2.6-6.1 6.7-10.1 14.1-9.8v16.5h-1.3c-8.2 0-12.8 4.7-12.8 15v13.9h-15.7V66.1zM536.6 120.5l4.9-11c2.5 1.5 5.1 2.4 6.9 2.4 1.6 0 2.6-.4 3.6-1.8l-17.5-43.9H551l8.9 27 8.4-27h16.1L568 109.8c-3.9 10.4-8.1 14.6-17 14.6-5.5 0-10.2-1.6-14.4-3.9z"/><g><path class="st0" d="M37.7 141.9h15.7v6c3.1-3.7 6.9-6.9 13.6-6.9 10.7 0 19.8 8.8 19.8 23.2v.2c0 14.6-9.2 23.4-19.8 23.4-6.8 0-10.7-3.1-13.6-6.4v18.7H37.7v-58.2zm33.7 22.4v-.2c0-5.9-4.1-10.1-9.2-10.1-5 0-9.1 4.2-9.1 10.1v.2c0 6 4.1 10.2 9.1 10.2 5.1 0 9.2-4.1 9.2-10.2zM91.8 164.5v-.2c0-13.1 9.3-23.4 22.6-23.4 15.5 0 22.6 11.3 22.6 24.5 0 1 0 2.2-.1 3.2H107c1.2 4.9 4.8 7.4 9.7 7.4 3.7 0 6.7-1.4 9.9-4.5l8.7 7.2c-4.3 5.5-10.5 9.1-19.4 9.1-14.2-.1-24.1-9.4-24.1-23.3zm30.4-3.9c-.6-5-3.5-8.1-7.8-8.1-4.1 0-6.9 3.2-7.8 8.1h15.6zM143.6 141.9h15.7v9c2.6-6.1 6.7-10.1 14.1-9.8v16.5h-1.3c-8.2 0-12.8 4.7-12.8 15v13.9h-15.7v-44.6zM185.1 154.5h-5.2v-12.3h5.2v-1c0-5.1 1.2-8.9 3.8-11.6 2.7-2.7 6.4-3.9 11.7-3.9 4.8 0 7.8.5 10.3 1.2V138c-1.8-.6-3.6-.9-5.9-.9-2.9 0-4.5 1.3-4.5 4.2v1.1h10.3v12.1h-10v32.2h-15.6v-32.2zM213.2 164.5v-.2c0-13.1 9.3-23.4 22.6-23.4 15.5 0 22.6 11.3 22.6 24.5 0 1 0 2.2-.1 3.2h-29.9c1.2 4.9 4.8 7.4 9.7 7.4 3.7 0 6.7-1.4 9.9-4.5l8.7 7.2c-4.3 5.5-10.5 9.1-19.4 9.1-14.2-.1-24.1-9.4-24.1-23.3zm30.4-3.9c-.6-5-3.5-8.1-7.8-8.1-4.1 0-6.9 3.2-7.8 8.1h15.6zM263.2 164.5v-.2c0-12.7 9.8-23.3 24-23.3 9.2 0 15.3 4 19.1 10l-10.7 7.9c-2.1-3-4.5-4.7-8.4-4.7-5 0-8.8 4.5-8.8 9.9v.2c0 5.8 3.6 10.2 8.9 10.2 3.7 0 6.1-1.7 8.6-4.6l10.5 7.6c-4.1 6.1-10.1 10.3-19.9 10.3-13.4-.1-23.3-10.6-23.3-23.3zM314.8 172.8v-18.2h-5.3v-12.7h5.3v-11.3h15.7v11.3h10.4v12.7h-10.4v15.1c0 3.1 1.4 4.5 4.3 4.5 2.1 0 4.1-.6 6-1.5V185c-2.8 1.6-6.5 2.6-10.9 2.6-9.5 0-15.1-4.2-15.1-14.8z"/></g><g><path class="st0" d="M370.8 126.3h15.7v60.4h-15.7v-60.4zM395.3 126.3h16.4v11.6h-16.4v-11.6zm.4 15.6h15.7v44.7h-15.7v-44.7zM422.9 154.5h-5.2v-12.3h5.2v-1c0-5.1 1.2-8.9 3.8-11.6 2.7-2.7 6.4-3.9 11.7-3.9 4.8 0 7.8.5 10.3 1.2V138c-1.8-.6-3.6-.9-5.9-.9-2.9 0-4.5 1.3-4.5 4.2v1.1h10.3v12.1h-10v32.2H423v-32.2zM451 164.5v-.2c0-13.1 9.3-23.4 22.6-23.4 15.5 0 22.6 11.3 22.6 24.5 0 1 0 2.2-.1 3.2h-29.9c1.2 4.9 4.8 7.4 9.7 7.4 3.7 0 6.7-1.4 9.9-4.5l8.7 7.2c-4.3 5.5-10.5 9.1-19.4 9.1-14.2-.1-24.1-9.4-24.1-23.3zm30.4-3.9c-.6-5-3.5-8.1-7.8-8.1-4.1 0-6.9 3.2-7.8 8.1h15.6z"/></g></svg>