<svg id="Layer_1" xmlns="http://www.w3.org/2000/svg" viewBox="0 0 970 250"><style>.st0{fill:#490a09}</style><path class="st0" d="M40 94.1c0-14.9 12.2-28 30-28 9.4 0 16.2 3.8 19.4 7.9l-8.7 8.4c-2.7-2.7-6.5-4.8-11.6-4.8-9.4 0-15.9 7.3-15.9 15.9 0 6.5 4.7 10 10.5 10 2.6 0 4.6-.5 6.2-1.3l1.9-6.3h-9l2.5-9.5h21.4L80 110.1c-4.6 2.7-10.6 4.7-17.5 4.7-11.2 0-22.5-6.3-22.5-20.7zM99.5 65.1h12.7l-13.1 48.8H86.4l13.1-48.8zM109.6 97.9c0-10.9 9.2-21 21.2-21 11.1 0 17.8 7.3 17.8 16.8 0 11-9.2 21-21.3 21-11 0-17.7-7.3-17.7-16.8zm26.9-3.8c0-4.1-2.5-6.7-6.3-6.7-5 0-8.4 5.3-8.4 10 0 4.1 2.5 6.7 6.3 6.7 5 .1 8.4-5.2 8.4-10zM158.9 77.7h12.7l-1.9 7.3c3.5-5.1 7.7-8.3 13.6-7.9l-3.6 13.4h-1.1c-6.9 0-11.4 3.9-13.7 12.5l-2.9 10.9h-12.7l9.6-36.2zM187.9 77.7h12.7l-9.7 36.1h-12.7l9.7-36.1zm3.2-12.6h13.2l-2.5 9.4h-13.2l2.5-9.4zM199.5 104.8c0-7.9 6.3-12.8 15.9-12.8 3.3 0 6.3.5 9.2 1.4l.1-.5c.1-.6.3-1.3.3-2.2 0-2.3-1.8-3.9-6.2-3.9-3.4 0-7.2.8-9.8 1.8l-1.8-9.2c3.8-1.3 9-2.2 14.2-2.2 10.8 0 16.1 4.3 16.1 11.5 0 1.7-.3 3.4-.7 5.2l-5.3 19.9H219l1-3.9c-3.1 2.9-6.2 4.6-10.4 4.6-5.9.1-10.1-3.7-10.1-9.7zm23.4-4.6l.3-1.2c-1.4-.5-3-.8-4.7-.8-4 0-6.6 1.9-6.6 5.2 0 2.1 1.5 3.3 3.6 3.3 3.3.1 6.4-2.8 7.4-6.5zM241.5 100.8h13.2l-3.5 13H238l3.5-13z"/></svg>