<svg id="Layer_1" xmlns="http://www.w3.org/2000/svg" viewBox="0 0 970 250"><style>.st0{fill:#490a09}</style><path class="st0" d="M53.3 137.4h-14V126h41v11.4h-14v35.4h-13v-35.4zM85.3 124H98v17.6c2.3-3 5.7-5.7 10.8-5.7 7.7 0 12.3 5.1 12.3 13.3v23.6h-12.7v-19.6c0-3.9-2.1-6.1-5.1-6.1-3.1 0-5.3 2.1-5.3 6.1v19.6H85.3V124zM126.1 154.9v-.1c0-10.6 7.5-18.9 18.2-18.9 12.5 0 18.2 9.2 18.2 19.8 0 .8 0 1.7-.1 2.6h-24.2c1 3.9 3.9 5.9 7.8 5.9 3 0 5.4-1.1 8-3.7l7 5.8c-3.5 4.4-8.5 7.3-15.7 7.3-11.2 0-19.2-7.5-19.2-18.7zm24.6-3.2c-.5-4-2.8-6.5-6.3-6.5-3.3 0-5.6 2.6-6.3 6.5h12.6zM186.5 136.6h12.7v5.1c2.3-3 5.7-5.9 10.8-5.9 7.7 0 12.3 5.1 12.3 13.3v23.6h-12.7v-19.6c0-3.9-2.1-6.1-5.1-6.1-3.1 0-5.3 2.1-5.3 6.1v19.6h-12.7v-36.1zM227.4 154.9v-.1c0-10.6 7.5-18.9 18.2-18.9 12.5 0 18.2 9.2 18.2 19.8 0 .8 0 1.7-.1 2.6h-24.2c1 3.9 3.9 5.9 7.8 5.9 3 0 5.4-1.1 8-3.7l7 5.8c-3.5 4.4-8.5 7.3-15.7 7.3-11.2 0-19.2-7.5-19.2-18.7zm24.6-3.2c-.5-4-2.8-6.5-6.3-6.5-3.3 0-5.6 2.6-6.3 6.5H252zM265 136.6h12.4l4.7 18.2 5.5-18.3h10.5l5.6 18.4 4.9-18.3h12.2l-11 36.4h-11l-5.9-18.8-6 18.8H276l-11-36.4zM344.4 126h37.4v11.4h-24.4v7.9h22.1v10.8h-22.1v16.7h-13V126zM386.9 136.6h12.7v7.3c2.1-4.9 5.4-8.2 11.4-7.9v13.4h-1c-6.6 0-10.4 3.8-10.4 12.2v11.2h-12.7v-36.2zM413.4 154.9v-.1c0-10.6 7.5-18.9 18.2-18.9 12.5 0 18.2 9.2 18.2 19.8 0 .8 0 1.7-.1 2.6h-24.2c1 3.9 3.9 5.9 7.8 5.9 3 0 5.4-1.1 8-3.7l7 5.8c-3.5 4.4-8.5 7.3-15.7 7.3-11.2 0-19.2-7.5-19.2-18.7zm24.6-3.2c-.5-4-2.8-6.5-6.3-6.5-3.3 0-5.6 2.6-6.3 6.5H438zM455.3 136.6H468v5.1c2.3-3 5.7-5.9 10.8-5.9 7.7 0 12.3 5.1 12.3 13.3v23.6h-12.7v-19.6c0-3.9-2.1-6.1-5.1-6.1-3.1 0-5.3 2.1-5.3 6.1v19.6h-12.7v-36.1zM496.2 154.9v-.1c0-10.2 7.9-18.8 19.4-18.8 7.4 0 12.4 3.2 15.4 8.1l-8.6 6.4c-1.7-2.4-3.7-3.8-6.7-3.8-4.1 0-7.1 3.6-7.1 8v.1c0 4.7 2.9 8.2 7.2 8.2 3 0 4.9-1.4 6.9-3.7l8.5 6.1c-3.3 4.9-8.2 8.3-16.1 8.3-10.9-.1-18.9-8.6-18.9-18.8zM535.7 124h12.7v17.6c2.3-3 5.7-5.7 10.8-5.7 7.7 0 12.3 5.1 12.3 13.3v23.6h-12.7v-19.6c0-3.9-2.1-6.1-5.1-6.1-3.1 0-5.3 2.1-5.3 6.1v19.6h-12.7V124zM598.7 161.5v-14.7h-4.3v-10.2h4.3v-9.2h12.7v9.2h8.4v10.2h-8.4V159c0 2.5 1.1 3.6 3.5 3.6 1.7 0 3.3-.5 4.8-1.2v10c-2.3 1.3-5.3 2.1-8.8 2.1-7.6 0-12.2-3.3-12.2-12zM625.3 124H638v17.6c2.3-3 5.7-5.7 10.8-5.7 7.7 0 12.3 5.1 12.3 13.3v23.6h-12.7v-19.6c0-3.9-2.1-6.1-5.1-6.1-3.1 0-5.3 2.1-5.3 6.1v19.6h-12.7V124zM667.6 136.6h12.7v7.3c2.1-4.9 5.4-8.2 11.4-7.9v13.4h-1.1c-6.6 0-10.4 3.8-10.4 12.2v11.2h-12.7v-36.2zM696.2 124h13.2v9.4h-13.2V124zm.3 12.6h12.7v36.1h-12.7v-36.1zM716.5 124h12.7v48.8h-12.7V124zM736.6 124h12.7v48.8h-12.7V124zM754.9 154.9v-.1c0-10.6 7.5-18.9 18.2-18.9 12.5 0 18.2 9.2 18.2 19.8 0 .8 0 1.7-.1 2.6H767c1 3.9 3.9 5.9 7.8 5.9 3 0 5.4-1.1 8-3.7l7 5.8c-3.5 4.4-8.5 7.3-15.7 7.3-11.2 0-19.2-7.5-19.2-18.7zm24.6-3.2c-.5-4-2.8-6.5-6.3-6.5-3.3 0-5.6 2.6-6.3 6.5h12.6zM796.8 136.6h12.7v7.3c2.1-4.9 5.4-8.2 11.4-7.9v13.4h-1.1c-6.6 0-10.4 3.8-10.4 12.2v11.2h-12.7v-36.2zM820.5 159.7h13.2v13h-13.2v-13z"/></svg>