<svg id="Layer_1" xmlns="http://www.w3.org/2000/svg" viewBox="0 0 300 250"><style>.st0{fill:#461211}</style><path class="st0" d="M18.3 76.5H26v27.3h-7.6V76.5zM31.8 97.3v-8.6h-2.5v-6h2.5v-5.3h7.4v5.3h4.9v6h-4.9v7.1c0 1.5.7 2.1 2 2.1 1 0 1.9-.3 2.8-.7v5.8c-1.3.7-3.1 1.2-5.2 1.2-4.3 0-7-1.9-7-6.9zM46.3 97.8c0-4.4 3.3-6.7 8.3-6.7 2 0 3.9.4 5.1.8v-.4c0-2.2-1.4-3.4-4.2-3.4-2.2 0-3.9.4-5.8 1.2L48.1 84c2.4-1 4.9-1.6 8.5-1.6 3.8 0 6.4.9 8 2.6 1.6 1.6 2.3 3.7 2.3 6.7v12.1h-7.3v-2.2c-1.4 1.6-3.4 2.7-6.2 2.7-4 0-7.1-2.3-7.1-6.5zm13.4-1.6v-1c-.7-.3-1.8-.5-2.9-.5-2.1 0-3.4 1.1-3.4 2.6v.1c0 1.4 1.1 2.3 2.6 2.3 2.2-.1 3.7-1.4 3.7-3.5zM70.9 75.3h7.4v28.5h-7.4V75.3zM81.6 93.4c0-6.1 4.9-11.1 11.7-11.1 6.8 0 11.6 5 11.6 11v.1c0 6-4.9 11-11.7 11-6.8-.1-11.6-5-11.6-11zm16.1 0c0-2.7-1.9-4.8-4.5-4.8-2.7 0-4.4 2.1-4.4 4.7v.1c0 2.6 1.9 4.8 4.5 4.8 2.7-.2 4.4-2.3 4.4-4.8zM108 82.7h7.4v2.8c1.4-1.8 3.2-3.3 6.4-3.3 5 0 9.4 4.2 9.4 10.9v.1c0 6.9-4.3 11-9.3 11-3.2 0-5.1-1.4-6.4-3v8.8H108V82.7zm15.9 10.6c0-2.8-1.9-4.8-4.3-4.8s-4.3 2-4.3 4.8v.1c0 2.8 1.9 4.8 4.3 4.8 2.4-.1 4.3-2.1 4.3-4.9zM134.4 75.3h7.4v10.3c1.4-1.8 3.3-3.4 6.3-3.4 4.5 0 7.2 3 7.2 7.8v13.8h-7.4V92.4c0-2.3-1.2-3.6-3-3.6s-3.1 1.2-3.1 3.6v11.4h-7.4V75.3zM159.1 75.3h7.7v5.5h-7.7v-5.5zm.2 7.4h7.4v21.1h-7.4V82.7zM171 75.3h7.4v28.5H171V75.3zM181.7 93.4c0-6.2 4.4-11.1 10.7-11.1 7.3 0 10.7 5.3 10.7 11.5v1.5H189c.6 2.3 2.3 3.5 4.6 3.5 1.8 0 3.2-.7 4.7-2.1l4.1 3.4c-2 2.6-5 4.3-9.2 4.3-6.8-.1-11.5-4.5-11.5-11zm14.3-1.9c-.3-2.3-1.6-3.8-3.7-3.8-2 0-3.3 1.5-3.7 3.8h7.4zM205.7 96.2h7.7v7.6h-7.7v-7.6z"/></svg>