<svg id="Layer_1" xmlns="http://www.w3.org/2000/svg" viewBox="0 0 300 250"><style>.st0{fill:#461211}</style><path class="st0" d="M18.2 75.9h7.6v27.3h-7.6V75.9zM31.7 96.6V88h-2.5v-6h2.5v-5.3h7.4V82H44v6h-4.9v7.1c0 1.5.7 2.1 2 2.1 1 0 1.9-.3 2.8-.7v5.8c-1.3.7-3.1 1.2-5.2 1.2-4.4.1-7-1.8-7-6.9zM46.1 97.1c0-4.4 3.3-6.7 8.3-6.7 2 0 3.9.4 5.1.8v-.4c0-2.2-1.4-3.4-4.2-3.4-2.2 0-3.9.4-5.8 1.2L48 83.4c2.4-1 4.9-1.6 8.5-1.6 3.8 0 6.4.9 8 2.6 1.6 1.6 2.3 3.7 2.3 6.7v12.1h-7.3V101c-1.4 1.6-3.4 2.7-6.2 2.7-4.1 0-7.2-2.3-7.2-6.6zm13.5-1.6v-1c-.7-.3-1.8-.5-2.9-.5-2.1 0-3.4 1.1-3.4 2.6v.1c0 1.4 1.1 2.3 2.6 2.3 2.1 0 3.7-1.4 3.7-3.5zM70.7 74.7h7.4v28.5h-7.4V74.7zM81.4 92.7c0-6.1 4.9-11.1 11.7-11.1 6.8 0 11.6 5 11.6 11v.1c0 6-4.9 11-11.7 11-6.7 0-11.6-5-11.6-11zm16.1 0c0-2.7-1.9-4.8-4.5-4.8-2.7 0-4.4 2.1-4.4 4.7v.1c0 2.6 1.9 4.8 4.5 4.8 2.7-.1 4.4-2.2 4.4-4.8zM107.9 82.1h7.4v2.8c1.4-1.8 3.2-3.3 6.4-3.3 5 0 9.4 4.2 9.4 10.9v.1c0 6.9-4.3 11-9.3 11-3.2 0-5.1-1.4-6.4-3v8.8H108V82.1zm15.8 10.6c0-2.8-1.9-4.8-4.3-4.8s-4.3 2-4.3 4.8v.1c0 2.8 1.9 4.8 4.3 4.8 2.4-.1 4.3-2.1 4.3-4.9zM134.2 74.7h7.4V85c1.4-1.8 3.3-3.4 6.3-3.4 4.5 0 7.2 3 7.2 7.8v13.8h-7.4V91.8c0-2.3-1.2-3.6-3-3.6s-3.1 1.2-3.1 3.6v11.4h-7.4V74.7zM159 74.7h7.7v5.5H159v-5.5zm.1 7.4h7.4v21.1h-7.4V82.1zM170.8 74.7h7.4v28.5h-7.4V74.7zM181.5 92.7c0-6.2 4.4-11.1 10.7-11.1 7.3 0 10.7 5.3 10.7 11.5v1.5h-14.1c.6 2.3 2.3 3.5 4.6 3.5 1.8 0 3.2-.7 4.7-2.1l4.1 3.4c-2 2.6-5 4.3-9.2 4.3-6.8 0-11.5-4.4-11.5-11zm14.4-1.8c-.3-2.3-1.6-3.8-3.7-3.8-2 0-3.3 1.5-3.7 3.8h7.4zM205.5 95.6h7.7v7.6h-7.7v-7.6z"/></svg>