<svg id="Layer_1" xmlns="http://www.w3.org/2000/svg" viewBox="0 0 300 250"><style>.st0{fill:#461211}</style><path class="st0" d="M18 115.2h21.8v6.6H25.6v4.6h12.9v6.3H25.6v9.8H18v-27.3zM42.9 121.4h7.4v4.3c1.2-2.9 3.2-4.8 6.7-4.6v7.8h-.6c-3.9 0-6 2.2-6 7.1v6.6H43v-21.2zM57.6 136.4c0-4.4 3.3-6.7 8.3-6.7 2 0 3.9.4 5.1.8v-.4c0-2.2-1.4-3.4-4.2-3.4-2.2 0-3.9.4-5.8 1.2l-1.5-5.2c2.4-1 4.9-1.6 8.5-1.6 3.8 0 6.4.9 8 2.6 1.6 1.6 2.3 3.7 2.3 6.7v12.1H71v-2.2c-1.4 1.6-3.4 2.7-6.2 2.7-4.1-.1-7.2-2.4-7.2-6.6zm13.4-1.6v-1c-.7-.3-1.8-.5-2.9-.5-2.1 0-3.4 1.1-3.4 2.6v.1c0 1.4 1.1 2.3 2.6 2.3 2.2 0 3.7-1.4 3.7-3.5zM82 121.4h7.4v3c1.4-1.8 3.3-3.4 6.3-3.4 4.5 0 7.2 3 7.2 7.8v13.8h-7.4V131c0-2.3-1.2-3.5-3-3.5s-3.1 1.2-3.1 3.5v11.4H82v-21zM105.9 132c0-6 4.6-11.1 11.3-11.1 4.3 0 7.2 1.9 9 4.7l-5 3.7c-1-1.4-2.1-2.2-3.9-2.2-2.4 0-4.1 2.1-4.1 4.7v.1c0 2.7 1.7 4.8 4.2 4.8 1.8 0 2.9-.8 4.1-2.2l5 3.6c-2 2.9-4.8 4.8-9.4 4.8-6.5.1-11.2-4.9-11.2-10.9zM127.6 132c0-6.1 4.9-11.1 11.7-11.1 6.7 0 11.6 5 11.6 11v.1c0 6-4.9 11-11.7 11-6.7 0-11.6-5-11.6-11zm16.1 0c0-2.7-1.9-4.8-4.5-4.8-2.7 0-4.4 2.1-4.4 4.7v.1c0 2.6 1.9 4.8 4.5 4.8 2.7-.1 4.4-2.2 4.4-4.8zM154 121.4h7.4v2.8c1.4-1.8 3.2-3.3 6.4-3.3 5 0 9.4 4.2 9.4 10.9v.1c0 6.9-4.3 11-9.3 11-3.2 0-5.1-1.4-6.4-3v8.8H154v-27.3zm15.9 10.5c0-2.8-1.9-4.8-4.3-4.8s-4.3 2-4.3 4.8v.1c0 2.8 1.9 4.8 4.3 4.8 2.4-.1 4.3-2 4.3-4.9zM180.4 114h7.4v10.3c1.4-1.8 3.3-3.4 6.3-3.4 4.5 0 7.2 3 7.2 7.8v13.8h-7.4V131c0-2.3-1.2-3.5-3-3.5s-3.1 1.2-3.1 3.5v11.4h-7.4V114zM205.1 114h7.7v5.5h-7.7V114zm.2 7.4h7.4v21.1h-7.4v-21.1zM217 114h7.4v28.5H217V114zM227.7 132c0-6.2 4.4-11.1 10.7-11.1 7.3 0 10.7 5.3 10.7 11.5v1.5H235c.6 2.3 2.3 3.5 4.6 3.5 1.8 0 3.2-.7 4.7-2.1l4.1 3.4c-2 2.6-5 4.3-9.2 4.3-6.8 0-11.5-4.4-11.5-11zm14.4-1.8c-.3-2.3-1.6-3.8-3.7-3.8-2 0-3.3 1.5-3.7 3.8h7.4zM251.7 134.9h7.7v7.6h-7.7v-7.6z"/></svg>