<svg id="Layer_1" xmlns="http://www.w3.org/2000/svg" xmlns:xlink="http://www.w3.org/1999/xlink" viewBox="0 0 300 250"><style>.st0{clip-path:url(#SVGID_00000183952522482293308900000003244764374507119018_);fill:#ac202d}.st1{fill:#fff}</style><defs><path id="SVGID_1_" d="M0 0h300v250H0z"/></defs><clipPath id="SVGID_00000071539519886464648160000004710277488241518480_"><use xlink:href="#SVGID_1_" overflow="visible"/></clipPath><path d="M29 207.7c-6.3 0-11.5 5.1-11.5 11.5v3.4c0 6.3 5.1 11.5 11.5 11.5h79.6c6.3 0 11.5-5.1 11.5-11.5v-3.4c0-6.3-5.1-11.5-11.5-11.5H29z" clip-path="url(#SVGID_00000071539519886464648160000004710277488241518480_)" fill="#ac202d"/><g><path class="st1" d="M24.4 217h2.2l1.9 6.2 2.1-6.2h1.7l2.1 6.2 1.9-6.2h2.1l-3.1 9.2h-1.8l-2.1-6-2.1 6h-1.8l-3.1-9.2zM41.7 217h1.9l3.9 9.2h-2.1l-.8-2.1h-3.9l-.8 2.1h-2.1l3.9-9.2zm2.1 5.3l-1.2-3-1.2 3h2.4zM49.8 218.9H47V217h7.6v1.9h-2.8v7.3h-2v-7.3zM55.4 221.6c0-2.6 2-4.8 4.8-4.8 1.7 0 2.8.6 3.6 1.4l-1.3 1.5c-.7-.6-1.4-1-2.3-1-1.5 0-2.7 1.3-2.7 2.9 0 1.6 1.1 2.9 2.7 2.9 1 0 1.7-.4 2.4-1.1l1.3 1.3c-.9 1-2 1.6-3.8 1.6-2.7 0-4.7-2-4.7-4.7zM65.5 217h2v3.6h3.7V217h2v9.2h-2v-3.7h-3.7v3.7h-2V217zM79.3 217h1.9l4.3 5.6V217h2v9.2h-1.7l-4.4-5.8v5.8h-2V217zM89.3 221.6c0-2.6 2.1-4.8 4.9-4.8s4.9 2.1 4.9 4.7-2.1 4.7-4.9 4.7-4.9-2-4.9-4.6zm7.6 0c0-1.6-1.2-2.9-2.8-2.9s-2.7 1.3-2.7 2.9c0 1.6 1.2 2.9 2.8 2.9s2.7-1.3 2.7-2.9zM99.6 217h2.2l1.9 6.2 2.1-6.2h1.7l2.1 6.2 1.9-6.2h2.1l-3.1 9.2h-1.8l-2.1-6-2.1 6h-1.8l-3.1-9.2z"/></g></svg>