<svg id="Layer_1" xmlns="http://www.w3.org/2000/svg" viewBox="0 0 300 250"><style>.st0{fill:#490a09}</style><path class="st0" d="M24.1 127.6h-7.5v-6.1h21.9v6.1H31v18.9h-6.9v-18.9zM41.2 120.5H48v9.4c1.2-1.6 3-3.1 5.8-3.1 4.1 0 6.6 2.7 6.6 7.1v12.6h-6.8V136c0-2.1-1.1-3.3-2.7-3.3S48 133.8 48 136v10.5h-6.8v-26zM63 137c0-5.7 4-10.2 9.8-10.2 6.7 0 9.8 4.9 9.8 10.6v1.4h-13c.5 2.1 2.1 3.2 4.2 3.2 1.6 0 2.9-.6 4.3-2l3.8 3.1c-1.9 2.4-4.5 3.9-8.4 3.9-6.2 0-10.5-4-10.5-10zm13.2-1.7c-.2-2.1-1.5-3.5-3.4-3.5-1.8 0-3 1.4-3.4 3.5h6.8zM95.3 127.2h6.8v2.7c1.2-1.6 3-3.1 5.8-3.1 4.1 0 6.6 2.7 6.6 7.1v12.6h-6.8V136c0-2.1-1.1-3.3-2.7-3.3s-2.9 1.1-2.9 3.3v10.5h-6.8v-19.3zM117.2 137c0-5.7 4-10.2 9.8-10.2 6.7 0 9.8 4.9 9.8 10.6v1.4h-12.9c.5 2.1 2.1 3.2 4.2 3.2 1.6 0 2.9-.6 4.3-2l3.8 3.1c-1.9 2.4-4.5 3.9-8.4 3.9-6.3 0-10.6-4-10.6-10zm13.1-1.7c-.2-2.1-1.5-3.5-3.4-3.5-1.8 0-3 1.4-3.4 3.5h6.8zM137.3 127.2h6.6l2.5 9.7 3-9.8h5.6l3 9.9 2.6-9.8h6.5l-6 19.5h-5.9l-3.1-10-3.2 10h-5.8l-5.8-19.5z"/><g><path class="st0" d="M18 154.5h20v6.1H24.9v4.2h11.8v5.8H24.9v8.9H18v-25zM40.8 160.1h6.8v3.9c1.1-2.6 2.9-4.4 6.1-4.2v7.1h-.6c-3.5 0-5.5 2-5.5 6.5v6h-6.8v-19.3zM54.9 169.9c0-5.7 4-10.2 9.8-10.2 6.7 0 9.8 4.9 9.8 10.6v1.4H61.4c.5 2.1 2.1 3.2 4.2 3.2 1.6 0 2.9-.6 4.3-2l3.8 3.1c-1.9 2.4-4.5 3.9-8.4 3.9-6.1 0-10.4-4-10.4-10zm13.1-1.7c-.2-2.1-1.5-3.5-3.4-3.5-1.8 0-3 1.4-3.4 3.5H68zM77.3 160.1h6.8v2.7c1.2-1.6 3-3.1 5.8-3.1 4.1 0 6.6 2.7 6.6 7.1v12.6h-6.8V169c0-2.1-1.1-3.3-2.7-3.3s-2.9 1.1-2.9 3.3v10.5h-6.8v-19.4zM99.2 169.9c0-5.5 4.3-10.1 10.4-10.1 4 0 6.6 1.7 8.3 4.3l-4.6 3.4c-.9-1.3-2-2-3.6-2-2.2 0-3.8 1.9-3.8 4.3v.1c0 2.5 1.6 4.4 3.9 4.4 1.6 0 2.6-.8 3.7-2l4.5 3.3c-1.8 2.6-4.4 4.4-8.6 4.4-6-.1-10.2-4.6-10.2-10.1zM120.3 153.4h6.8v9.4c1.2-1.6 3-3.1 5.8-3.1 4.1 0 6.6 2.7 6.6 7.1v12.6h-6.8V169c0-2.1-1.1-3.3-2.7-3.3s-2.9 1.1-2.9 3.3v10.5h-6.8v-26.1zM154 173.5v-7.9h-2.3v-5.5h2.3v-4.9h6.8v4.9h4.5v5.5h-4.5v6.5c0 1.4.6 1.9 1.9 1.9.9 0 1.8-.2 2.6-.6v5.3c-1.2.7-2.8 1.1-4.7 1.1-4.2.1-6.6-1.7-6.6-6.3zM168.2 153.4h6.8v9.4c1.3-1.6 3-3.1 5.8-3.1 4.1 0 6.6 2.7 6.6 7.1v12.6h-6.8V169c0-2.1-1.1-3.3-2.7-3.3s-2.9 1.1-2.9 3.3v10.5h-6.8v-26.1zM190.8 160.1h6.8v3.9c1.1-2.6 2.9-4.4 6.1-4.2v7.1h-.6c-3.5 0-5.5 2-5.5 6.5v6h-6.8v-19.3zM206.1 153.4h7.1v5h-7.1v-5zm.2 6.7h6.8v19.3h-6.8v-19.3zM217 153.4h6.8v26.1H217v-26.1zM227.7 153.4h6.8v26.1h-6.8v-26.1zM237.5 169.9c0-5.7 4-10.2 9.8-10.2 6.7 0 9.8 4.9 9.8 10.6v1.4H244c.5 2.1 2.1 3.2 4.2 3.2 1.6 0 2.9-.6 4.3-2l3.8 3.1c-1.9 2.4-4.5 3.9-8.4 3.9-6.1 0-10.4-4-10.4-10zm13.1-1.7c-.3-2.1-1.5-3.5-3.4-3.5-1.8 0-3 1.4-3.4 3.5h6.8zM259.9 160.1h6.8v3.9c1.1-2.6 2.9-4.4 6.1-4.2v7.1h-.6c-3.5 0-5.5 2-5.5 6.5v6h-6.8v-19.3zM272.6 172.5h7.1v7h-7.1v-7z"/></g></svg>