<svg id="Layer_1" xmlns="http://www.w3.org/2000/svg" viewBox="0 0 300 250"><style>.st0{fill:#490a09}</style><path class="st0" d="M17.4 98.8h7.4v10h9.5v-10h7.4v26.6h-7.4v-10.1h-9.5v10.1h-7.4V98.8zM45 115.2c0-6.1 4.3-10.8 10.4-10.8 7.1 0 10.4 5.2 10.4 11.2v1.5H52c.6 2.2 2.2 3.4 4.4 3.4 1.7 0 3.1-.6 4.6-2.1l4 3.3c-2 2.5-4.8 4.2-8.9 4.2-6.5 0-11.1-4.3-11.1-10.7zm14-1.7c-.3-2.3-1.6-3.7-3.6-3.7-1.9 0-3.2 1.5-3.6 3.7H59zM77.9 104.9H85l2.7 10.3 3.2-10.4h6l3.2 10.5 2.8-10.4h7l-6.3 20.7h-6.2l-3.3-10.7-3.4 10.7h-6.2l-6.6-20.7zM110.2 119.5c0-4.3 3.2-6.5 8.1-6.5 1.9 0 3.8.4 4.9.8v-.3c0-2.1-1.3-3.3-4.1-3.3-2.2 0-3.8.4-5.7 1.1l-1.5-5.1c2.3-.9 4.8-1.6 8.3-1.6 3.7 0 6.2.9 7.8 2.5 1.6 1.5 2.2 3.6 2.2 6.5v11.8h-7.1v-2.1c-1.4 1.6-3.3 2.6-6 2.6-3.9 0-6.9-2.3-6.9-6.4zm13-1.5v-1c-.7-.3-1.7-.5-2.8-.5-2.1 0-3.3 1-3.3 2.5v.1c0 1.4 1.1 2.2 2.5 2.2 2.1.1 3.6-1.3 3.6-3.3zM132.4 122.8l2.7-4.4c2.4 1.6 4.9 2.4 7.1 2.4 1.3 0 1.8-.4 1.8-1.1v-.1c0-.8-1.1-1.1-3.3-1.7-4.1-1.1-7.3-2.4-7.3-6.6v-.1c0-4.4 3.5-6.8 8.2-6.8 3 0 6.1.9 8.5 2.4l-2.5 4.6c-2.1-1.2-4.4-1.9-6.1-1.9-1.1 0-1.7.4-1.7 1v.1c0 .8 1.2 1.2 3.3 1.8 4.1 1.1 7.3 2.5 7.3 6.5v.1c0 4.5-3.4 6.9-8.4 6.9-3.4 0-6.8-1-9.6-3.1zM164 97.7h7.2v10c1.3-1.7 3.2-3.3 6.2-3.3 4.4 0 7 2.9 7 7.6v13.5h-7.2v-11.1c0-2.2-1.2-3.5-2.9-3.5s-3 1.2-3 3.5v11.1H164V97.7zM187.3 115.2c0-6.1 4.3-10.8 10.4-10.8 7.1 0 10.4 5.2 10.4 11.2v1.5h-13.8c.6 2.2 2.2 3.4 4.4 3.4 1.7 0 3.1-.6 4.6-2.1l4 3.3c-2 2.5-4.8 4.2-8.9 4.2-6.6 0-11.1-4.3-11.1-10.7zm13.9-1.7c-.3-2.3-1.6-3.7-3.6-3.7-1.9 0-3.2 1.5-3.6 3.7h7.2zM211.1 104.9h7.2v4.1c1.2-2.8 3.1-4.6 6.5-4.5v7.6h-.6c-3.8 0-5.9 2.2-5.9 6.9v6.4h-7.2v-20.5z"/><g><path class="st0" d="M16.9 135.7h7.2v10c1.3-1.7 3.2-3.3 6.2-3.3 4.4 0 7 2.9 7 7.6v13.5h-7.2v-11.1c0-2.2-1.2-3.5-2.9-3.5s-3 1.2-3 3.5v11.1H17v-27.8zM40.9 156.3v-13.5h7.2V154c0 2.2 1.2 3.5 2.9 3.5s3-1.2 3-3.5v-11.1h7.2v20.6H54v-2.8c-1.3 1.7-3.2 3.3-6.2 3.3-4.3-.1-6.9-3-6.9-7.7zM63.6 160.8l2.7-4.4c2.4 1.6 4.9 2.4 7.1 2.4 1.3 0 1.8-.4 1.8-1.1v-.1c0-.8-1.1-1.1-3.3-1.7-4.1-1.1-7.3-2.4-7.3-6.6v-.1c0-4.4 3.5-6.8 8.2-6.8 3 0 6.1.9 8.5 2.4l-2.5 4.6c-2.1-1.2-4.4-1.9-6.1-1.9-1.1 0-1.7.4-1.7 1v.1c0 .8 1.2 1.2 3.3 1.8 4.1 1.1 7.3 2.5 7.3 6.5v.1c0 4.5-3.4 6.9-8.4 6.9-3.4 0-6.8-1-9.6-3.1zM91.9 160.9v2.5h-7.2v-27.7h7.2v9.9c1.4-1.7 3.2-3.2 6.2-3.2 4.9 0 9.1 4.1 9.1 10.6v.1c0 6.7-4.2 10.8-9.1 10.8-3.1 0-4.9-1.4-6.2-3zm8.2-7.7c0-2.8-1.9-4.7-4.2-4.7-2.3 0-4.2 1.9-4.2 4.6v.1c0 2.7 1.9 4.7 4.2 4.7 2.4-.1 4.2-2 4.2-4.7zM109.3 157.5c0-4.3 3.2-6.5 8.1-6.5 1.9 0 3.8.4 4.9.8v-.3c0-2.1-1.3-3.3-4.1-3.3-2.2 0-3.8.4-5.7 1.1l-1.5-5.1c2.3-1 4.8-1.6 8.3-1.6 3.7 0 6.2.9 7.8 2.5 1.6 1.5 2.2 3.6 2.2 6.5v11.8h-7.1v-2.1c-1.4 1.6-3.3 2.6-6 2.6-3.9 0-6.9-2.3-6.9-6.4zm13.1-1.5v-1c-.7-.3-1.7-.5-2.8-.5-2.1 0-3.3 1-3.3 2.5v.1c0 1.4 1.1 2.2 2.5 2.2 2.1.1 3.6-1.3 3.6-3.3zM133.1 142.9h7.2v2.9c1.3-1.7 3.2-3.3 6.2-3.3 4.4 0 7 2.9 7 7.6v13.5h-7.2v-11.1c0-2.2-1.2-3.5-2.9-3.5s-3 1.2-3 3.5v11.1h-7.2v-20.7zM156.4 153.2c0-6.8 4.2-10.8 9-10.8 3.1 0 4.9 1.4 6.3 3v-9.7h7.2v27.7h-7.2v-2.7c-1.4 1.7-3.2 3.2-6.3 3.2-4.7 0-9-4.1-9-10.7zm15.5 0c0-2.8-1.9-4.7-4.2-4.7-2.3 0-4.2 1.9-4.2 4.6v.1c0 2.7 1.9 4.7 4.2 4.7 2.3-.1 4.2-2 4.2-4.7zM182.6 156h7.5v7.4h-7.5V156z"/></g></svg>