<svg id="Layer_1" xmlns="http://www.w3.org/2000/svg" viewBox="0 0 300 250"><style>.st0{fill:#461211}</style><path class="st0" d="M16.5 76.4h8l4.8 15.8 5.3-15.9h6.5l5.3 15.9 4.8-15.8H59l-9.1 27.5h-6.6l-5.5-15.7-5.5 15.7h-6.6l-9.2-27.5zM58.1 93.3c0-6.2 4.4-11.1 10.7-11.1 7.3 0 10.7 5.3 10.7 11.5v1.5H65.2c.6 2.3 2.3 3.5 4.6 3.5 1.8 0 3.2-.7 4.7-2.1l4.1 3.4c-2 2.6-5 4.3-9.2 4.3-6.6-.1-11.3-4.5-11.3-11zm14.3-1.9c-.3-2.3-1.6-3.8-3.7-3.8-2 0-3.3 1.5-3.7 3.8h7.4zM93.4 75.2h7.4v10.3c1.4-1.8 3.3-3.4 6.3-3.4 4.5 0 7.2 3 7.2 7.8v13.8h-7.4V92.3c0-2.3-1.2-3.6-3-3.6s-3.1 1.2-3.1 3.6v11.4h-7.4V75.2zM117 97.7c0-4.4 3.3-6.7 8.3-6.7 2 0 3.9.4 5.1.8v-.4c0-2.2-1.4-3.4-4.2-3.4-2.2 0-3.9.4-5.8 1.2l-1.5-5.2c2.4-1 4.9-1.6 8.5-1.6 3.8 0 6.4.9 8 2.6 1.6 1.6 2.3 3.7 2.3 6.7v12.1h-7.3v-2.2c-1.4 1.6-3.4 2.7-6.2 2.7-4.1-.1-7.2-2.4-7.2-6.6zm13.5-1.6v-1c-.7-.3-1.8-.5-2.9-.5-2.1 0-3.4 1.1-3.4 2.6v.1c0 1.4 1.1 2.3 2.6 2.3 2.1-.1 3.7-1.4 3.7-3.5zM138.8 82.6h7.8l4.1 12.3 4.1-12.3h7.7l-8.4 21.3h-6.7l-8.6-21.3zM162.7 93.3c0-6.2 4.4-11.1 10.7-11.1 7.3 0 10.7 5.3 10.7 11.5v1.5H170c.6 2.3 2.3 3.5 4.6 3.5 1.8 0 3.2-.7 4.7-2.1l4.1 3.4c-2 2.6-5 4.3-9.2 4.3-6.8-.1-11.5-4.5-11.5-11zm14.4-1.9c-.3-2.3-1.6-3.8-3.7-3.8-2 0-3.3 1.5-3.7 3.8h7.4z"/><g><path class="st0" d="M17.4 147.5l2.3-5.2c1.2.7 2.4 1.1 3.2 1.1.7 0 1.2-.2 1.7-.9l-8.3-20.7h7.8l4.2 12.7 4-12.7h7.6l-7.7 20.6c-1.8 4.9-3.8 6.9-8 6.9-2.6.1-4.9-.7-6.8-1.8zM40.4 132.6c0-6.1 4.9-11.1 11.7-11.1 6.8 0 11.6 5 11.6 11v.1c0 6-4.9 11-11.7 11-6.8-.1-11.6-5-11.6-11zm16.1 0c0-2.7-1.9-4.8-4.5-4.8-2.7 0-4.4 2.1-4.4 4.7v.1c0 2.6 1.9 4.8 4.5 4.8 2.7-.2 4.4-2.3 4.4-4.8zM66.7 135.7v-13.8h7.4v11.4c0 2.3 1.2 3.5 3 3.5s3.1-1.2 3.1-3.5v-11.4h7.4V143h-7.4v-2.9c-1.4 1.8-3.3 3.4-6.3 3.4-4.5 0-7.2-3-7.2-7.8zM91.6 121.9H99v4.3c1.2-2.9 3.2-4.8 6.7-4.6v7.8h-.7c-3.9 0-6 2.2-6 7.1v6.6h-7.4v-21.2zM126.2 122.3H118v-6.6h24v6.6h-8.2V143h-7.6v-20.7zM143.1 115.7h8.5l6.2 17.3 6.2-17.3h8.3l-11.1 27.5h-7l-11.1-27.5zM169.5 135.4h7.7v7.6h-7.7v-7.6z"/></g></svg>