<svg id="Layer_1" xmlns="http://www.w3.org/2000/svg" viewBox="0 0 320 50"><style>.st0{fill:#490a09}</style><path class="st0" d="M12.3 19.1h3.4l2 6.6 2.2-6.7h2.7l2.2 6.7 2-6.6h3.3l-3.8 11.6h-2.8l-2.3-6.6-2.3 6.6h-2.8l-3.8-11.6zM29.7 26.2c0-2.6 1.9-4.7 4.5-4.7 3.1 0 4.5 2.2 4.5 4.9v.6h-5.9c.2 1 1 1.5 1.9 1.5.7 0 1.3-.3 2-.9l1.7 1.4c-.9 1.1-2.1 1.8-3.9 1.8-2.8 0-4.8-1.8-4.8-4.6zm6-.8c-.1-1-.7-1.6-1.5-1.6s-1.4.6-1.5 1.6h3zM44.5 18.6h3.1V23c.6-.7 1.4-1.4 2.7-1.4 1.9 0 3 1.2 3 3.3v5.8h-3.1v-4.8c0-1-.5-1.5-1.2-1.5-.8 0-1.3.5-1.3 1.5v4.8h-3.1V18.6zM54.5 28.1c0-1.9 1.4-2.8 3.5-2.8.8 0 1.6.2 2.1.3v-.1c0-.9-.6-1.4-1.8-1.4-.9 0-1.7.2-2.4.5l-.6-2.2c1-.4 2.1-.7 3.6-.7 1.6 0 2.7.4 3.4 1.1.7.7 1 1.6 1 2.8v5.1h-3.1v-.9c-.6.7-1.4 1.1-2.6 1.1-1.8-.1-3.1-1.1-3.1-2.8zm5.6-.7V27c-.3-.1-.8-.2-1.2-.2-.9 0-1.4.4-1.4 1.1 0 .6.5 1 1.1 1 .9 0 1.5-.6 1.5-1.5zM63.6 21.7h3.3l1.7 5.2 1.7-5.2h3.2l-3.5 9h-2.8l-3.6-9zM73.6 26.2c0-2.6 1.9-4.7 4.5-4.7 3.1 0 4.5 2.2 4.5 4.9v.6h-5.9c.2 1 1 1.5 1.9 1.5.7 0 1.3-.3 2-.9l1.7 1.4c-.9 1.1-2.1 1.8-3.9 1.8-2.8 0-4.8-1.8-4.8-4.6zm6.1-.8c-.1-1-.7-1.6-1.5-1.6s-1.4.6-1.5 1.6h3zM88.2 32.5l1-2.2c.5.3 1 .5 1.4.5.3 0 .5-.1.7-.4l-3.5-8.7h3.3l1.8 5.3 1.7-5.3h3.2l-3.2 8.7c-.8 2.1-1.6 2.9-3.4 2.9-1.2 0-2.2-.3-3-.8zM97.9 26.2c0-2.6 2.1-4.7 4.9-4.7 2.8 0 4.9 2.1 4.9 4.6 0 2.5-2.1 4.6-4.9 4.6-2.9.1-4.9-2-4.9-4.5zm6.7 0c0-1.1-.8-2-1.9-2-1.1 0-1.9.9-1.9 2s.8 2 1.9 2c1.2 0 1.9-.9 1.9-2zM108.9 27.5v-5.8h3.1v4.8c0 1 .5 1.5 1.3 1.5.7 0 1.3-.5 1.3-1.5v-4.8h3.1v8.9h-3.1v-1.2c-.6.7-1.4 1.4-2.7 1.4-1.9 0-3-1.2-3-3.3zM119.4 21.7h3.1v1.8c.5-1.2 1.3-2 2.8-1.9v3.3h-.3c-1.6 0-2.5.9-2.5 3v2.8h-3.1v-9zM133.9 21.9h-3.4v-2.8h10.1v2.8h-3.4v8.7H134v-8.7zM141 19.1h3.6l2.6 7.3 2.6-7.3h3.5l-4.7 11.6h-2.9L141 19.1zM152.1 27.4h3.2v3.2h-3.2v-3.2z"/></svg>