<svg id="Layer_1" xmlns="http://www.w3.org/2000/svg" viewBox="0 0 320 50"><style>.st0{fill:#fff}</style><path class="st0" d="M15.8 17.9h-3.4v-2.8h10.1v2.8H19v8.7h-3.2v-8.7zM23.6 14.6h3.1v4.3c.6-.7 1.4-1.4 2.7-1.4 1.9 0 3 1.2 3 3.3v5.8h-3.1v-4.8c0-1-.5-1.5-1.2-1.5-.8 0-1.3.5-1.3 1.5v4.8h-3.1v-12zM33.7 22.2c0-2.6 1.9-4.7 4.5-4.7 3.1 0 4.5 2.2 4.5 4.9v.6h-5.9c.2 1 1 1.5 1.9 1.5.7 0 1.3-.3 2-.9l1.7 1.4c-.9 1.1-2.1 1.8-3.9 1.8-2.9 0-4.8-1.9-4.8-4.6zm6-.8c-.1-1-.7-1.6-1.5-1.6s-1.4.6-1.5 1.6h3zM47.9 15.1h3.4l2 6.6 2.2-6.7h2.7l2.2 6.7 2-6.6h3.3l-3.8 11.6h-2.8L56.8 20l-2.3 6.6h-2.8l-3.8-11.5zM65.3 22.2c0-2.6 2.1-4.7 4.9-4.7 2.8 0 4.9 2.1 4.9 4.6 0 2.5-2.1 4.6-4.9 4.6-2.8.1-4.9-2-4.9-4.5zm6.8 0c0-1.1-.8-2-1.9-2-1.1 0-1.9.9-1.9 2s.8 2 1.9 2c1.2-.1 1.9-1 1.9-2zM76.5 17.7h3.1v1.8c.5-1.2 1.3-2 2.8-1.9v3.3h-.3c-1.6 0-2.5.9-2.5 3v2.8h-3.1v-9zM83.5 14.6h3.1v12h-3.1v-12zM88.1 22.2c0-2.9 1.8-4.7 3.9-4.7 1.3 0 2.1.6 2.7 1.3v-4.2h3.1v12h-3.1v-1.2c-.6.7-1.4 1.4-2.7 1.4-2.1-.1-3.9-1.8-3.9-4.6zm6.6-.1c0-1.2-.8-2-1.8-2s-1.8.8-1.8 2 .8 2 1.8 2 1.8-.8 1.8-2zM99 19.8c1.1-.1 1.7-.7 1.6-1.5h-1.2v-3.2h3.2v2.6c0 2.4-1.3 3.3-3.4 3.3l-.2-1.2zM103.3 25.4l1.2-1.9c1 .7 2.1 1 3 1 .5 0 .8-.2.8-.5s-.5-.5-1.4-.8c-1.8-.5-3.1-1-3.1-2.8 0-1.9 1.5-2.9 3.6-2.9 1.3 0 2.6.4 3.7 1l-1.1 2c-.9-.5-1.9-.8-2.6-.8-.5 0-.7.2-.7.4 0 .3.5.5 1.4.8 1.8.5 3.1 1.1 3.1 2.8 0 2-1.5 3-3.6 3-1.6 0-3-.4-4.3-1.3zM117.1 15.1h5.9c1.4 0 2.5.4 3.1 1 .5.5.7 1.1.7 1.9 0 1.3-.8 2.1-1.8 2.6 1.4.5 2.3 1.2 2.3 2.8 0 2-1.6 3.2-4.3 3.2h-5.9V15.1zm5.1 4.6c1 0 1.5-.3 1.5-1 0-.6-.5-1-1.4-1h-2.1v2h2zm.5 4.3c1 0 1.5-.4 1.5-1s-.5-1-1.6-1h-2.4v2h2.5zM128.3 22.2c0-2.6 1.9-4.7 4.5-4.7 3.1 0 4.5 2.2 4.5 4.9v.6h-5.9c.2 1 1 1.5 1.9 1.5.7 0 1.3-.3 2-.9L137 25c-.9 1.1-2.1 1.8-3.9 1.8-2.8 0-4.8-1.9-4.8-4.6zm6-.8c-.1-1-.7-1.6-1.5-1.6s-1.4.6-1.5 1.6h3zM137.9 25.4l1.2-1.9c1 .7 2.1 1 3 1 .5 0 .8-.2.8-.5s-.5-.5-1.4-.8c-1.8-.5-3.1-1-3.1-2.8 0-1.9 1.5-2.9 3.6-2.9 1.3 0 2.6.4 3.7 1l-1.1 2c-.9-.5-1.9-.8-2.6-.8-.5 0-.7.2-.7.4 0 .3.5.5 1.4.8 1.8.5 3.1 1.1 3.1 2.8 0 2-1.5 3-3.6 3-1.6 0-3.1-.4-4.3-1.3zM147.4 23.8v-3.6h-1v-2.5h1v-2.2h3.1v2.2h2.1v2.5h-2.1v3c0 .6.3.9.9.9.4 0 .8-.1 1.2-.3v2.4c-.6.3-1.3.5-2.2.5-1.9 0-3-.8-3-2.9zM161.4 17.9H158v-2.8h10.1v2.8h-3.4v8.7h-3.2v-8.7zM168.5 15.1h3.6l2.6 7.3 2.6-7.3h3.5l-4.7 11.6h-2.9l-4.7-11.6zM186.3 14.6h3.1v12h-3.1v-12zM191.2 14.6h3.2v2.3h-3.2v-2.3zm0 3.1h3.1v8.9h-3.1v-8.9zM195.4 17.7h3.3l1.7 5.2 1.7-5.2h3.2l-3.5 8.9H199l-3.6-8.9zM205.5 22.2c0-2.6 1.9-4.7 4.5-4.7 3.1 0 4.5 2.2 4.5 4.9v.6h-5.9c.2 1 1 1.5 1.9 1.5.7 0 1.3-.3 2-.9l1.7 1.4c-.9 1.1-2.1 1.8-3.9 1.8-2.9 0-4.8-1.9-4.8-4.6zm6-.8c-.1-1-.7-1.6-1.5-1.6s-1.4.6-1.5 1.6h3zM215.1 25.4l1.2-1.9c1 .7 2.1 1 3 1 .5 0 .8-.2.8-.5s-.5-.5-1.4-.8c-1.8-.5-3.1-1-3.1-2.8 0-1.9 1.5-2.9 3.6-2.9 1.3 0 2.6.4 3.7 1l-1.1 2c-.9-.5-1.9-.8-2.6-.8-.5 0-.7.2-.7.4 0 .3.5.5 1.4.8 1.8.5 3.1 1.1 3.1 2.8 0 2-1.5 3-3.6 3-1.6 0-3.1-.4-4.3-1.3zM228.7 14.6h3.1v4.3c.6-.7 1.4-1.4 2.7-1.4 1.9 0 3 1.2 3 3.3v5.8h-3.1v-4.8c0-1-.5-1.5-1.2-1.5-.8 0-1.3.5-1.3 1.5v4.8h-3.1v-12zM238.7 22.2c0-2.6 1.9-4.7 4.5-4.7 3.1 0 4.5 2.2 4.5 4.9v.6h-5.9c.2 1 1 1.5 1.9 1.5.7 0 1.3-.3 2-.9l1.7 1.4c-.9 1.1-2.1 1.8-3.9 1.8-2.8 0-4.8-1.9-4.8-4.6zm6.1-.8c-.1-1-.7-1.6-1.5-1.6s-1.4.6-1.5 1.6h3zM249 17.7h3.1v1.8c.5-1.2 1.3-2 2.8-1.9v3.3h-.3c-1.6 0-2.5.9-2.5 3v2.8H249v-9zM255.5 22.2c0-2.6 1.9-4.7 4.5-4.7 3.1 0 4.5 2.2 4.5 4.9v.6h-5.9c.2 1 1 1.5 1.9 1.5.7 0 1.3-.3 2-.9l1.7 1.4c-.9 1.1-2.1 1.8-3.9 1.8-2.8 0-4.8-1.9-4.8-4.6zm6-.8c-.1-1-.7-1.6-1.5-1.6s-1.4.6-1.5 1.6h3zM265.6 23.4h3.2v3.2h-3.2v-3.2z"/></svg>