<svg id="Layer_1" xmlns="http://www.w3.org/2000/svg" viewBox="0 0 320 50"><style>.st0{fill:#490a09}</style><path class="st0" d="M208.1 19.5h9.2v2.7h-6.1V24h5.5v2.5h-5.5v1.8h6.2V31h-9.3V19.5zM218.8 27.9v-5.8h3.1v4.8c0 1 .5 1.5 1.3 1.5.7 0 1.3-.5 1.3-1.5v-4.8h3.1V31h-3.1v-1.2c-.6.7-1.4 1.4-2.7 1.4-1.9 0-3-1.2-3-3.3zM229.3 22.1h3.1v1.8c.5-1.2 1.3-2 2.8-1.9v3.3h-.3c-1.6 0-2.5.9-2.5 3V31h-3.1v-8.9zM235.8 26.6c0-2.6 2.1-4.7 4.9-4.7 2.8 0 4.9 2.1 4.9 4.6 0 2.5-2.1 4.6-4.9 4.6-2.9.1-4.9-2-4.9-4.5zm6.7 0c0-1.1-.8-2-1.9-2-1.1 0-1.9.9-1.9 2s.8 2 1.9 2c1.2 0 1.9-.9 1.9-2zM246.9 22.1h3.1v1.2c.6-.7 1.4-1.4 2.7-1.4 2.1 0 3.9 1.8 3.9 4.6 0 2.9-1.8 4.6-3.9 4.6-1.3 0-2.1-.6-2.7-1.3v3.7h-3.1V22.1zm6.7 4.5c0-1.2-.8-2-1.8-2s-1.8.8-1.8 2 .8 2 1.8 2 1.8-.8 1.8-2zM258 19h3.1v4.3c.6-.7 1.4-1.4 2.7-1.4 1.9 0 3 1.2 3 3.3V31h-3.1v-4.8c0-1-.5-1.5-1.2-1.5-.8 0-1.3.5-1.3 1.5V31H258V19zM268.4 19h3.2v2.3h-3.2V19zm0 3.1h3.1V31h-3.1v-8.9zM273.3 19h3.1v12h-3.1V19zM277.8 26.6c0-2.6 1.9-4.7 4.5-4.7 3.1 0 4.5 2.2 4.5 4.9v.6h-5.9c.2 1 1 1.5 1.9 1.5.7 0 1.3-.3 2-.9l1.7 1.4c-.9 1.1-2.1 1.8-3.9 1.8-2.8 0-4.8-1.8-4.8-4.6zm6.1-.8c-.1-1-.7-1.6-1.5-1.6s-1.4.6-1.5 1.6h3zM287.9 27.8h3.2V31h-3.2v-3.2z"/></svg>