<svg id="Layer_1" xmlns="http://www.w3.org/2000/svg" viewBox="0 0 320 50"><style>.st0{fill:#490a09}</style><path class="st0" d="M12.3 19.5h3.2V31h-3.2V19.5zM18 28.3v-3.6h-1v-2.5h1V20h3.1v2.2h2.1v2.5h-2.1v3c0 .6.3.9.9.9.4 0 .8-.1 1.2-.3v2.4c-.6.3-1.3.5-2.2.5-1.9 0-3-.8-3-2.9zM24.1 28.5c0-1.9 1.4-2.8 3.5-2.8.8 0 1.6.2 2.1.3v-.1c0-.9-.6-1.4-1.8-1.4-.9 0-1.7.2-2.4.5l-.6-2.2c1-.4 2.1-.7 3.6-.7 1.6 0 2.7.4 3.4 1.1.7.7 1 1.6 1 2.8v5h-3.1v-.9c-.6.7-1.4 1.1-2.6 1.1-1.8 0-3.1-1-3.1-2.7zm5.6-.7v-.4c-.3-.1-.8-.2-1.2-.2-.9 0-1.4.4-1.4 1.1 0 .6.5 1 1.1 1 .9 0 1.5-.6 1.5-1.5zM34.4 19h3.1v12h-3.1V19zM38.9 26.6c0-2.6 2.1-4.7 4.9-4.7 2.8 0 4.9 2.1 4.9 4.6 0 2.5-2.1 4.6-4.9 4.6-2.9.1-4.9-2-4.9-4.5zm6.8 0c0-1.1-.8-2-1.9-2-1.1 0-1.9.9-1.9 2s.8 2 1.9 2c1.1 0 1.9-.9 1.9-2zM50 22.1h3.1v1.2c.6-.7 1.4-1.4 2.7-1.4 2.1 0 3.9 1.8 3.9 4.6 0 2.9-1.8 4.6-3.9 4.6-1.3 0-2.1-.6-2.7-1.3v3.7H50V22.1zm6.7 4.5c0-1.2-.8-2-1.8-2s-1.8.8-1.8 2 .8 2 1.8 2 1.8-.8 1.8-2zM61.1 19h3.1v4.3c.6-.7 1.4-1.4 2.7-1.4 1.9 0 3 1.2 3 3.3V31h-3.1v-4.8c0-1-.5-1.5-1.2-1.5-.8 0-1.3.5-1.3 1.5V31h-3.1V19zM71.5 19h3.2v2.3h-3.2V19zm0 3.1h3.1V31h-3.1v-8.9zM76.4 19h3.1v12h-3.1V19zM80.9 26.6c0-2.6 1.9-4.7 4.5-4.7 3.1 0 4.5 2.2 4.5 4.9v.6H84c.2 1 1 1.5 1.9 1.5.7 0 1.3-.3 2-.9l1.7 1.4c-.9 1.1-2.1 1.8-3.9 1.8-2.8 0-4.8-1.8-4.8-4.6zm6.1-.8c-.1-1-.7-1.6-1.5-1.6s-1.4.6-1.5 1.6h3zM91 27.8h3.2V31H91v-3.2z"/></svg>