<svg id="Layer_1" xmlns="http://www.w3.org/2000/svg" viewBox="0 0 300 600"><style>.st0{fill:#490a09}</style><path class="st0" d="M27.4 162.4h9L27.7 195h-9l8.7-32.6zM39.9 169.9h8.8l-.7 2.8c1.7-1.8 4.1-3.4 7-3.4 3.4 0 5.6 1.8 6.6 4.4 2.4-2.7 5.4-4.4 9.1-4.4 4.8 0 7.4 2.9 7.4 7.5 0 1.4-.3 3-.7 4.6L73.7 195h-8.8l3.5-13.2c.2-.7.3-1.5.3-2 0-1.7-.8-2.7-2.7-2.7-2.4 0-3.8 1.7-4.6 4.6L57.9 195H49l3.5-13.2c.2-.7.3-1.5.3-2 0-1.7-.9-2.7-2.7-2.7-2.4 0-3.8 1.7-4.6 4.6L42 195h-8.8l6.7-25.1zM85 169.9h8.8l-.7 2.8c1.7-1.8 4.1-3.4 7-3.4 3.4 0 5.6 1.8 6.6 4.4 2.4-2.7 5.4-4.4 9.1-4.4 4.8 0 7.4 2.9 7.4 7.5 0 1.4-.3 3-.7 4.6l-3.7 13.7H110l3.5-13.2c.2-.7.3-1.5.3-2 0-1.7-.8-2.7-2.7-2.7-2.4 0-3.8 1.7-4.6 4.6l-3.6 13.3h-8.8l3.5-13.2c.2-.7.3-1.5.3-2 0-1.7-.9-2.7-2.7-2.7-2.4 0-3.8 1.7-4.6 4.6L87.1 195h-8.8l6.7-25.1zM124.3 188.7c0-5.5 4.4-8.9 11.1-8.9 2.3 0 4.4.4 6.4 1l.1-.3c.1-.4.2-.9.2-1.5 0-1.6-1.3-2.7-4.3-2.7-2.4 0-5 .6-6.8 1.3l-1.3-6.4c2.7-.9 6.3-1.5 9.9-1.5 7.5 0 11.2 3 11.2 8 0 1.2-.2 2.4-.5 3.6l-3.7 13.9h-8.7l.7-2.7c-2.1 2-4.3 3.2-7.3 3.2-4.1-.2-7-2.8-7-7zm16.3-3.2l.2-.8c-1-.3-2.1-.6-3.3-.6-2.8 0-4.6 1.4-4.6 3.6 0 1.4 1 2.3 2.5 2.3 2.3.1 4.5-1.9 5.2-4.5z"/><g><path class="st0" d="M32.7 213.4h-9.8l2.1-7.9h28.5l-2.1 7.9h-9.8L35.1 238H26l6.7-24.6zM46.6 231.7c0-5.5 4.4-8.9 11.1-8.9 2.3 0 4.4.4 6.4 1l.1-.3c.1-.4.2-.9.2-1.5 0-1.6-1.3-2.7-4.3-2.7-2.4 0-5 .6-6.8 1.3l-1.3-6.4c2.7-.9 6.3-1.5 9.9-1.5 7.5 0 11.2 3 11.2 8 0 1.2-.2 2.4-.5 3.6L68.9 238h-8.7l.7-2.7c-2.1 2-4.3 3.2-7.3 3.2-4.2 0-7-2.6-7-6.8zm16.3-3.2l.2-.8c-1-.3-2.1-.6-3.3-.6-2.8 0-4.6 1.4-4.6 3.6 0 1.4 1 2.3 2.5 2.3 2.3.1 4.5-1.9 5.2-4.5zM76.3 232.6c0-1 .2-2.1.5-3.3l2.5-9.3h-3l1.9-7.1h3l1.7-6.4h8.8l-1.7 6.4h5.9L94 220h-5.9l-2.1 7.9c-.1.6-.2 1.2-.2 1.5 0 1 .6 1.6 2 1.6 1 0 2-.2 3.4-.7l-2 7.4c-1.6.6-3.4.9-5.2.9-5.1-.1-7.7-2.3-7.7-6zM96.4 232.6c0-1 .2-2.1.5-3.3l2.5-9.3h-3l1.9-7.1h3l1.7-6.4h8.8l-1.7 6.4h5.9l-1.9 7.1h-5.9l-2.1 7.9c-.1.6-.2 1.2-.2 1.5 0 1 .6 1.6 2 1.6 1 0 2-.2 3.4-.7l-2 7.4c-1.6.6-3.4.9-5.2.9-5.2-.1-7.7-2.3-7.7-6zM114.1 231.7c0-5.5 4.4-8.9 11.1-8.9 2.3 0 4.4.4 6.4 1l.1-.3c.1-.4.2-.9.2-1.5 0-1.6-1.3-2.7-4.3-2.7-2.4 0-5 .6-6.8 1.3l-1.3-6.4c2.7-.9 6.3-1.5 9.9-1.5 7.5 0 11.2 3 11.2 8 0 1.2-.2 2.4-.5 3.6l-3.7 13.9h-8.7l.7-2.7c-2.1 2-4.3 3.2-7.3 3.2-4.1-.2-7-2.8-7-7zm16.3-3.2l.2-.8c-1-.3-2.1-.6-3.3-.6-2.8 0-4.6 1.4-4.6 3.6 0 1.4 1 2.3 2.5 2.3 2.3.1 4.5-1.9 5.2-4.5zM147.6 212.9h8.8L155 218c2.4-3.6 5.4-5.8 9.5-5.5l-2.5 9.3h-.7c-4.8 0-8 2.7-9.5 8.7l-2 7.6H141l6.6-25.2zM161.1 231.7c0-5.5 4.4-8.9 11.1-8.9 2.3 0 4.4.4 6.4 1l.1-.3c.1-.4.2-.9.2-1.5 0-1.6-1.3-2.7-4.3-2.7-2.4 0-5 .6-6.8 1.3l-1.3-6.4c2.7-.9 6.3-1.5 9.9-1.5 7.5 0 11.2 3 11.2 8 0 1.2-.2 2.4-.5 3.6l-3.7 13.9h-8.7l.7-2.7c-2.1 2-4.3 3.2-7.3 3.2-4.1-.2-7-2.8-7-7zm16.3-3.2l.2-.8c-1-.3-2.1-.6-3.3-.6-2.8 0-4.6 1.4-4.6 3.6 0 1.4 1 2.3 2.5 2.3 2.3.1 4.5-1.9 5.2-4.5zM194.6 212.9h8.8l-.8 2.9c1.7-1.8 4.2-3.4 7.2-3.4 4.6 0 7.3 2.9 7.3 7.5 0 1.4-.3 2.9-.7 4.5l-3.6 13.7H204l3.5-13.2c.2-.7.3-1.5.3-2 0-1.7-1-2.7-2.8-2.7-2.5 0-3.9 1.7-4.7 4.6l-3.6 13.3h-8.8l6.7-25.2zM224.1 212.9h8.8l-6.8 25.2h-8.8l6.8-25.2zm2.3-8.8h9.2l-1.8 6.5h-9.2l1.8-6.5zM233.7 229h9.2l-2.5 9.1h-9.2l2.5-9.1z"/></g></svg>