<svg id="Layer_1" xmlns="http://www.w3.org/2000/svg" viewBox="0 0 300 600"><style>.st0{fill:#490a09}</style><path class="st0" d="M33.2 199.6h8.7l13.9 32.8H46l-2.4-5.8H31.1l-2.3 5.8h-9.5l13.9-32.8zm7.9 20l-3.6-9.3-3.7 9.3h7.3zM30.2 272.6v3.1h-8.8v-34h8.8v12.2c1.7-2.1 3.9-3.9 7.6-3.9 6 0 11.2 5 11.2 13v.1c0 8.2-5.2 13.2-11.1 13.2-3.8-.1-6.1-1.8-7.7-3.7zm10.1-9.5c0-3.4-2.3-5.8-5.2-5.8-2.8 0-5.1 2.4-5.1 5.7v.1c0 3.4 2.3 5.7 5.1 5.7 2.9 0 5.2-2.3 5.2-5.7zM52.8 250.5h8.8v5.1c1.4-3.4 3.8-5.7 8-5.5v9.3h-.7c-4.6 0-7.2 2.7-7.2 8.5v7.8h-8.8v-25.2zM72.8 241.7H82v6.5h-9.2v-6.5zm.2 8.8h8.8v25.2H73v-25.2zM86.9 241.7h8.8v34h-8.8v-34zM100.9 241.7h8.8v34h-8.8v-34zM114.7 241.7h9.2v6.5h-9.2v-6.5zm.1 8.8h8.8v25.2h-8.8v-25.2zM127.4 268.5c0-5.3 4-8 9.9-8 2.3 0 4.6.5 6.1 1v-.5c0-2.6-1.6-4.1-5-4.1-2.7 0-4.7.5-6.9 1.4l-1.8-6.2c2.8-1.2 5.9-2 10.2-2 4.5 0 7.6 1.1 9.6 3.1 1.9 1.9 2.7 4.5 2.7 8v14.5h-8.8v-2.6c-1.7 1.9-4.1 3.2-7.4 3.2-5-.1-8.6-2.8-8.6-7.8zm16-2v-1.2c-.9-.4-2.1-.7-3.4-.7-2.6 0-4.1 1.3-4.1 3.1v.1c0 1.7 1.3 2.7 3.1 2.7 2.6.2 4.4-1.4 4.4-4zM156.5 250.5h8.8v3.5c1.6-2.1 4-4.1 7.5-4.1 5.4 0 8.6 3.5 8.6 9.3v16.5h-8.8V262c0-2.7-1.4-4.2-3.5-4.2s-3.7 1.5-3.7 4.2v13.6h-8.8v-25.1zM187.6 267.8v-10.2h-3v-7.1h3v-6.4h8.8v6.4h5.9v7.1h-5.9v8.5c0 1.8.8 2.5 2.4 2.5 1.2 0 2.3-.3 3.4-.8v6.9c-1.6.9-3.7 1.4-6.1 1.4-5.4.1-8.5-2.2-8.5-8.3zM206.3 241.7h8.8v34h-8.8v-34zM219.4 281.1l2.7-6.2c1.4.8 2.9 1.4 3.9 1.4.9 0 1.5-.2 2-1l-9.9-24.7h9.3l5 15.2 4.7-15.2h9.1l-9.2 24.6c-2.2 5.9-4.6 8.2-9.6 8.2-3-.1-5.7-1-8-2.3z"/><g><path class="st0" d="M23 300.8h-3v-6.9h3v-.6c0-2.9.7-5 2.1-6.5 1.5-1.5 3.6-2.2 6.6-2.2 2.7 0 4.4.3 5.8.7v6.2c-1-.3-2-.5-3.3-.5-1.6 0-2.5.7-2.5 2.4v.6h5.8v6.8h-5.6v18.1H23v-18.1zM40 310.2v-16.5h8.8v13.6c0 2.7 1.4 4.2 3.6 4.2 2.1 0 3.7-1.5 3.7-4.2v-13.6h8.8v25.2h-8.8v-3.4c-1.6 2.1-4 4-7.5 4-5.4-.1-8.6-3.6-8.6-9.3zM69.7 293.7h8.8v3.5c1.6-2.1 4-4.1 7.5-4.1 5.4 0 8.6 3.5 8.6 9.3v16.5h-8.8v-13.6c0-2.7-1.4-4.2-3.5-4.2s-3.7 1.5-3.7 4.2v13.6h-8.8v-25.2zM99.2 293.7h8.8v3.5c1.6-2.1 4-4.1 7.5-4.1 5.4 0 8.6 3.5 8.6 9.3v16.5h-8.8v-13.6c0-2.7-1.4-4.2-3.5-4.2s-3.7 1.5-3.7 4.2v13.6h-8.8v-25.2zM127.4 324.3l2.7-6.2c1.4.8 2.9 1.3 3.9 1.3.9 0 1.5-.2 2-1l-9.9-24.7h9.3l5 15.2 4.7-15.2h9.1l-9.2 24.6c-2.2 5.9-4.6 8.2-9.6 8.2-3 0-5.7-.9-8-2.2z"/></g><g><path class="st0" d="M21.4 336.9h8.8v3.4c1.7-2.1 3.9-3.9 7.6-3.9 6 0 11.2 5 11.2 13v.1c0 8.2-5.2 13.2-11.1 13.2-3.8 0-6.1-1.7-7.7-3.6v10.5h-8.8v-32.7zm18.9 12.6c0-3.4-2.3-5.8-5.2-5.8-2.8 0-5.1 2.4-5.1 5.7v.1c0 3.4 2.3 5.7 5.1 5.7 2.9 0 5.2-2.3 5.2-5.7zM52.8 336.9h8.8v5.1c1.4-3.4 3.8-5.7 8-5.5v9.3h-.7c-4.6 0-7.2 2.7-7.2 8.5v7.8h-8.8v-25.2zM71.3 349.6c0-7.3 5.9-13.3 14-13.3s13.9 5.9 13.9 13.1v.1c0 7.2-5.9 13.2-14 13.2s-13.9-5.9-13.9-13.1zm19.2 0c0-3.2-2.2-5.8-5.4-5.8s-5.3 2.6-5.3 5.6v.1c0 3.1 2.2 5.7 5.4 5.7 3.3 0 5.3-2.6 5.3-5.6zM100.9 358.9l3.3-5.4c2.9 1.9 6.1 2.9 8.7 2.9 1.5 0 2.2-.5 2.2-1.4 0-1-1.4-1.4-4.1-2.1-5-1.3-8.9-3-8.9-8.1v-.1c0-5.4 4.3-8.3 10.1-8.3 3.7 0 7.5 1.1 10.4 2.9l-3 5.6c-2.6-1.4-5.4-2.3-7.4-2.3-1.4 0-2 .5-2 1.2v.1c0 1 1.4 1.4 4.1 2.2 5 1.4 8.9 3.1 8.9 8v.1c0 5.5-4.1 8.4-10.3 8.4-4.3 0-8.5-1.2-12-3.7zM125.7 349.6c0-7.4 5.3-13.3 12.7-13.3 8.7 0 12.7 6.4 12.7 13.8v1.8h-16.9c.7 2.7 2.7 4.1 5.4 4.1 2.1 0 3.8-.8 5.6-2.6l4.9 4.1c-2.4 3.1-5.9 5.1-10.9 5.1-7.9.1-13.5-5.2-13.5-13zm17.2-2.2c-.3-2.8-2-4.6-4.4-4.6-2.3 0-3.9 1.8-4.4 4.6h8.8zM153.9 349.6c0-7.2 5.5-13.2 13.5-13.2 5.2 0 8.6 2.2 10.8 5.6l-6 4.5c-1.2-1.7-2.6-2.7-4.7-2.7-2.8 0-4.9 2.5-4.9 5.6v.1c0 3.3 2 5.7 5 5.7 2.1 0 3.4-1 4.8-2.6l5.9 4.3c-2.3 3.4-5.7 5.8-11.2 5.8-7.6 0-13.2-6-13.2-13.1zM181.2 353.4v-16.5h8.8v13.6c0 2.7 1.4 4.2 3.6 4.2 2.1 0 3.7-1.5 3.7-4.2v-13.6h8.8v25.2h-8.8v-3.4c-1.6 2.1-4 4-7.5 4-5.4-.1-8.6-3.6-8.6-9.3zM212.5 354.2V344h-3v-7.1h3v-6.4h8.8v6.4h5.9v7.1h-5.9v8.5c0 1.8.8 2.5 2.4 2.5 1.2 0 2.3-.3 3.4-.8v6.9c-1.6.9-3.7 1.4-6.1 1.4-5.4.1-8.5-2.3-8.5-8.3zM229.3 349.6c0-7.3 5.9-13.3 14-13.3s13.9 5.9 13.9 13.1v.1c0 7.2-5.9 13.2-14 13.2s-13.9-5.9-13.9-13.1zm19.2 0c0-3.2-2.2-5.8-5.4-5.8s-5.3 2.6-5.3 5.6v.1c0 3.1 2.2 5.7 5.4 5.7 3.3 0 5.3-2.6 5.3-5.6zM260.9 336.9h8.8v5.1c1.4-3.4 3.8-5.7 8-5.5v9.3h-.7c-4.6 0-7.2 2.7-7.2 8.5v7.8H261v-25.2zM277.4 353h9.2v9.1h-9.2V353z"/></g></svg>