<svg id="Layer_1" xmlns="http://www.w3.org/2000/svg" viewBox="0 0 300 600"><style>.st0{fill:#490a09}</style><path class="st0" d="M19.4 297l5-6c3.2 2.6 6.8 3.9 10.6 3.9 2.4 0 3.7-.8 3.7-2.2v-.1c0-1.4-1.1-2.1-5.5-3.1-6.9-1.6-12.2-3.5-12.2-10.2v-.1c0-6.1 4.8-10.4 12.6-10.4 5.5 0 9.9 1.5 13.4 4.3l-4.5 6.4c-3-2.1-6.2-3.2-9.1-3.2-2.2 0-3.3.9-3.3 2.1v.1c0 1.5 1.1 2.1 5.6 3.2 7.5 1.6 12.2 4.1 12.2 10.1v.1c0 6.7-5.3 10.6-13.2 10.6-5.8-.1-11.3-1.9-15.3-5.5zM50.7 289.4c0-7.4 5.3-13.3 12.7-13.3 8.7 0 12.7 6.4 12.7 13.8v1.8H59.2c.7 2.7 2.7 4.1 5.4 4.1 2.1 0 3.8-.8 5.6-2.6l4.9 4.1c-2.4 3.1-5.9 5.1-10.9 5.1-7.9.1-13.5-5.2-13.5-13zm17.1-2.2c-.3-2.8-2-4.6-4.4-4.6-2.3 0-3.9 1.8-4.4 4.6h8.8zM78.6 294.7c0-5.3 4-8 9.9-8 2.3 0 4.6.5 6.1 1v-.4c0-2.6-1.6-4.1-5-4.1-2.7 0-4.7.5-6.9 1.4l-1.8-6.2c2.8-1.2 5.9-2 10.2-2 4.5 0 7.6 1.1 9.6 3.1 1.9 1.9 2.7 4.5 2.7 8V302h-8.8v-2.6c-1.7 1.9-4.1 3.2-7.4 3.2-4.9-.2-8.6-2.9-8.6-7.9zm16-1.9v-1.2c-.9-.4-2.1-.7-3.4-.7-2.6 0-4.1 1.3-4.1 3.1v.1c0 1.7 1.3 2.7 3.1 2.7 2.6.1 4.4-1.5 4.4-4zM105.9 298.7l3.3-5.4c2.9 1.9 6.1 2.9 8.7 2.9 1.5 0 2.2-.5 2.2-1.4v-.1c0-1-1.4-1.4-4.1-2.1-5-1.3-8.9-3-8.9-8.1v-.1c0-5.4 4.3-8.3 10.1-8.3 3.7 0 7.5 1.1 10.4 2.9l-3 5.6c-2.6-1.4-5.4-2.3-7.4-2.3-1.4 0-2 .5-2 1.2v.1c0 1 1.4 1.4 4.1 2.2 5 1.4 8.9 3.1 8.9 8v.1c0 5.5-4.1 8.4-10.3 8.4-4.4.1-8.5-1.1-12-3.6zM130.7 289.4c0-7.3 5.9-13.3 14-13.3s13.9 5.9 13.9 13.1v.1c0 7.2-5.9 13.2-14 13.2s-13.9-5.9-13.9-13.1zm19.2 0c0-3.2-2.2-5.8-5.4-5.8s-5.3 2.6-5.3 5.6v.1c0 3.1 2.2 5.7 5.4 5.7 3.3 0 5.3-2.6 5.3-5.6zM162.2 276.7h8.8v3.5c1.6-2.1 4-4.1 7.5-4.1 5.4 0 8.6 3.5 8.6 9.3v16.5h-8.8v-13.6c0-2.7-1.4-4.2-3.5-4.2s-3.7 1.5-3.7 4.2v13.6h-8.8v-25.2zM209.9 277.5l-5.5 1.3-1.7-7 9.5-2.7h6.6v32.8h-8.9v-24.4z"/><g><path class="st0" d="M23 327h-3v-7h3v-.6c0-2.9.7-5 2.1-6.5 1.5-1.5 3.6-2.2 6.6-2.2 2.7 0 4.4.3 5.8.7v6.2c-1-.3-2-.5-3.3-.5-1.6 0-2.5.7-2.5 2.4v.6h5.8v6.8h-5.6V345H23v-18zM40.2 319.9H49v5.1c1.4-3.4 3.8-5.7 8-5.5v9.3h-.7c-4.6 0-7.2 2.7-7.2 8.5v7.8h-8.8v-25.2zM58.6 332.6c0-7.4 5.3-13.3 12.7-13.3 8.7 0 12.7 6.4 12.7 13.8v1.8H67.1c.7 2.7 2.7 4.1 5.4 4.1 2.1 0 3.8-.8 5.6-2.6l4.9 4.1c-2.4 3.1-5.9 5.1-10.9 5.1-7.9.1-13.5-5.2-13.5-13zm17.1-2.2c-.3-2.8-2-4.6-4.4-4.6-2.3 0-3.9 1.8-4.4 4.6h8.8zM86.8 332.6c0-7.4 5.3-13.3 12.7-13.3 8.7 0 12.7 6.4 12.7 13.8v1.8H95.3c.7 2.7 2.7 4.1 5.4 4.1 2.1 0 3.8-.8 5.6-2.6l4.9 4.1c-2.4 3.1-5.9 5.1-10.9 5.1-7.9.1-13.5-5.2-13.5-13zm17.1-2.2c-.3-2.8-2-4.6-4.4-4.6-2.3 0-3.9 1.8-4.4 4.6h8.8zM127.8 332.6c0-7.3 5.9-13.3 14-13.3s13.9 5.9 13.9 13.1v.1c0 7.2-5.9 13.2-14 13.2-8 0-13.9-5.9-13.9-13.1zm19.3 0c0-3.2-2.2-5.8-5.4-5.8s-5.3 2.6-5.3 5.6v.1c0 3.1 2.2 5.7 5.4 5.7s5.3-2.6 5.3-5.6zM159.4 319.9h8.8v3.5c1.6-2.1 4-4.1 7.5-4.1 5.4 0 8.6 3.5 8.6 9.3v16.5h-8.8v-13.6c0-2.7-1.4-4.2-3.5-4.2s-3.7 1.5-3.7 4.2v13.6h-8.8v-25.2z"/></g><g><path class="st0" d="M21.9 355.7h9.5l7.8 12.6 7.8-12.6h9.5v32.6h-9v-18.7l-8.3 12.8H39l-8.3-12.7v18.6h-8.8v-32.6zM62.3 355.7h9v12.2h11.6v-12.2h9v32.6h-9v-12.4H71.3v12.4h-9v-32.6zM96.3 382.5l11.6-12.3H96.7v-7h23v5.8L108 381.3h11.7v7H96.3v-5.8z"/></g><g><path class="st0" d="M20.8 419.2c0-9.6 7.3-17 17.2-17 6.7 0 10.9 2.8 13.8 6.8l-6.8 5.3c-1.9-2.3-4-3.8-7.1-3.8-4.6 0-7.8 3.9-7.8 8.6v.1c0 4.9 3.2 8.7 7.8 8.7 3.4 0 5.4-1.6 7.4-4l6.8 4.8c-3.1 4.2-7.2 7.4-14.4 7.4-9.4 0-16.9-7.1-16.9-16.9zM55.4 401.5h8.8v12.2c1.6-2.1 4-4 7.5-4 5.4 0 8.6 3.5 8.6 9.3v16.5h-8.8v-13.6c0-2.7-1.4-4.2-3.5-4.2s-3.7 1.5-3.7 4.2v13.6h-8.8v-34zM83.8 423c0-7.3 5.9-13.3 14-13.3s13.9 5.9 13.9 13.1v.1c0 7.2-5.9 13.2-14 13.2-8-.1-13.9-6-13.9-13.1zm19.3 0c0-3.2-2.2-5.8-5.4-5.8s-5.3 2.6-5.3 5.6v.1c0 3.1 2.2 5.7 5.4 5.7s5.3-2.6 5.3-5.6zM115.4 401.5h9.2v6.5h-9.2v-6.5zm.2 8.8h8.8v25.2h-8.8v-25.2zM128.3 423c0-7.2 5.5-13.2 13.5-13.2 5.2 0 8.6 2.2 10.8 5.6l-6 4.5c-1.2-1.7-2.6-2.7-4.7-2.7-2.8 0-4.9 2.5-4.9 5.6v.1c0 3.3 2 5.7 5 5.7 2.1 0 3.4-1 4.8-2.6l5.9 4.3c-2.3 3.4-5.7 5.8-11.2 5.8-7.6-.1-13.2-6-13.2-13.1zM154.2 423c0-7.4 5.3-13.3 12.7-13.3 8.7 0 12.7 6.4 12.7 13.8v1.8h-16.9c.7 2.7 2.7 4.1 5.4 4.1 2.1 0 3.8-.8 5.6-2.6l4.9 4.1c-2.4 3.1-5.9 5.1-10.9 5.1-7.9 0-13.5-5.2-13.5-13zm17.1-2.2c-.3-2.8-2-4.6-4.4-4.6-2.3 0-3.9 1.8-4.4 4.6h8.8zM182.8 426.4h9.2v9.1h-9.2v-9.1z"/></g></svg>