<svg id="Layer_1" xmlns="http://www.w3.org/2000/svg" xmlns:xlink="http://www.w3.org/1999/xlink" viewBox="0 0 300 600"><style>.st0,.st1{clip-path:url(#SVGID_00000063619963214537812040000014082025558038793607_);fill:#ac1f2d}.st1{fill:#fff}</style><defs><path id="SVGID_1_" d="M19 14h75.3v83H19z"/></defs><clipPath id="SVGID_00000098188867849677746040000003716757963587193495_"><use xlink:href="#SVGID_1_" overflow="visible"/></clipPath><path d="M89.2 54.7c0 19.3-15.6 34.9-34.9 34.9C35 89.6 19.4 74 19.4 54.7S35 19.8 54.3 19.8c19.2 0 34.9 15.6 34.9 34.9" clip-path="url(#SVGID_00000098188867849677746040000003716757963587193495_)" fill="#ac1f2d"/><path d="M68.2 48.3v4h4.5l-5.3 8.4h13.2v-4.1H75l5.1-8.3H68.2zm-25.9-5l-4.2 9.4-4.2-9.4H28v17.3h4.8v-9.2l4.2 9.2h2.1l4.2-9.5v9.5h4.9V43.3h-5.9zm19.1 0v6.1h-6.1v-6.1h-5.4v17.3h5.4v-6.9h6.1v6.9h5.4V43.3h-5.4zM67.8 67.7h4.7v-1.4h-3.1v-.9h2.8v-1.3h-2.8v-.9h3V62h-4.6v5.7zm-3.7.2c1.3 0 2-.5 2.5-1.3l-1.2-.9c-.3.4-.7.7-1.3.7-.8 0-1.4-.7-1.4-1.5s.6-1.5 1.4-1.5c.5 0 .9.3 1.3.7l1.2-.9c-.5-.7-1.3-1.2-2.4-1.2-1.7 0-3 1.3-3 3 0 1.6 1.3 2.9 2.9 2.9m-5.9-.2h1.6V62h-1.6v5.7zm-4.4-1.3c-.9 0-1.5-.7-1.5-1.5s.6-1.5 1.5-1.5 1.5.7 1.5 1.5-.6 1.5-1.5 1.5m0 1.5c1.8 0 3.1-1.3 3.1-3 0-1.6-1.3-3-3.1-3s-3.1 1.3-3.1 3c0 1.6 1.3 3 3.1 3m-9.6-.2h1.6v-2.2h2v2.2h1.6V62h-1.6v2.1h-2V62h-1.6v5.7zm-3.7.2c1.3 0 2-.5 2.5-1.3l-1.2-.9c-.3.4-.7.7-1.3.7-.8 0-1.4-.7-1.4-1.5s.6-1.5 1.4-1.5c.5 0 .9.3 1.3.7l1.2-.9c-.5-.7-1.3-1.2-2.4-1.2-1.7 0-3 1.3-3 3-.1 1.6 1.2 2.9 2.9 2.9" clip-path="url(#SVGID_00000098188867849677746040000003716757963587193495_)" fill="#fff"/></svg>