<?xml version="1.0" encoding="utf-8"?>
<!-- Generator: Adobe Illustrator 25.4.1, SVG Export Plug-In . SVG Version: 6.00 Build 0)  -->
<svg version="1.1" id="Layer_1" xmlns="http://www.w3.org/2000/svg" xmlns:xlink="http://www.w3.org/1999/xlink" x="0px" y="0px"
	 viewBox="0 0 300 50" style="enable-background:new 0 0 300 50;" xml:space="preserve">
<style type="text/css">
	.st0{fill:#490A09;}
</style>
<g>
	<path class="st0" d="M12.7,19.3H16l5.3,12.5h-3.7l-0.9-2.2h-4.8L11,31.7H7.4L12.7,19.3z M15.7,26.9l-1.4-3.5l-1.4,3.5H15.7z"/>
	<path class="st0" d="M30.5,30.6v1.2h-3.4V18.8h3.4v4.6c0.7-0.8,1.5-1.5,2.9-1.5c2.3,0,4.2,1.9,4.2,5v0c0,3.1-2,5-4.2,5
		C32,32,31.2,31.3,30.5,30.6z M34.4,27L34.4,27c0-1.3-0.9-2.2-2-2.2c-1.1,0-1.9,0.9-1.9,2.2v0c0,1.3,0.9,2.2,1.9,2.2
		C33.5,29.1,34.4,28.3,34.4,27z"/>
	<path class="st0" d="M39.1,22.2h3.4v1.9c0.5-1.3,1.4-2.2,3-2.1v3.5h-0.3c-1.8,0-2.7,1-2.7,3.2v3h-3.4V22.2z"/>
	<path class="st0" d="M46.7,18.8h3.5v2.5h-3.5V18.8z M46.8,22.2h3.4v9.6h-3.4V22.2z"/>
	<path class="st0" d="M52.1,18.8h3.4v12.9h-3.4V18.8z"/>
	<path class="st0" d="M57.4,18.8h3.4v12.9h-3.4V18.8z"/>
	<path class="st0" d="M62.6,18.8h3.5v2.5h-3.5V18.8z M62.7,22.2H66v9.6h-3.4V22.2z"/>
	<path class="st0" d="M67.4,29L67.4,29c0-2,1.5-3,3.7-3c0.9,0,1.8,0.2,2.3,0.4v-0.2c0-1-0.6-1.6-1.9-1.6c-1,0-1.8,0.2-2.6,0.5
		l-0.7-2.4c1.1-0.4,2.2-0.7,3.9-0.7c1.7,0,2.9,0.4,3.6,1.2c0.7,0.7,1,1.7,1,3v5.5h-3.3v-1c-0.7,0.7-1.6,1.2-2.8,1.2
		C68.8,32,67.4,30.9,67.4,29z M73.5,28.3v-0.4c-0.3-0.1-0.8-0.2-1.3-0.2c-1,0-1.5,0.5-1.5,1.2v0c0,0.7,0.5,1,1.2,1
		C72.8,29.8,73.5,29.2,73.5,28.3z"/>
	<path class="st0" d="M78.5,22.2h3.4v1.3c0.6-0.8,1.5-1.6,2.9-1.6c2,0,3.3,1.3,3.3,3.5v6.3h-3.4v-5.2c0-1-0.5-1.6-1.3-1.6
		c-0.8,0-1.4,0.6-1.4,1.6v5.2h-3.4V22.2z"/>
	<path class="st0" d="M90.3,28.8v-3.9h-1.1v-2.7h1.1v-2.4h3.4v2.4h2.2v2.7h-2.2v3.2c0,0.7,0.3,1,0.9,1c0.4,0,0.9-0.1,1.3-0.3v2.6
		c-0.6,0.3-1.4,0.5-2.3,0.5C91.5,31.9,90.3,31,90.3,28.8z"/>
	<path class="st0" d="M97.4,18.8h3.4v12.9h-3.4V18.8z"/>
	<path class="st0" d="M102.4,33.8l1-2.4c0.5,0.3,1.1,0.5,1.5,0.5c0.3,0,0.6-0.1,0.8-0.4l-3.7-9.4h3.5l1.9,5.8l1.8-5.8h3.4l-3.5,9.3
		c-0.8,2.2-1.7,3.1-3.6,3.1C104.3,34.6,103.3,34.3,102.4,33.8z"/>
	<path class="st0" d="M119.2,24.9h-1.1v-2.6h1.1V22c0-1.1,0.2-1.9,0.8-2.5c0.6-0.6,1.4-0.8,2.5-0.8c1,0,1.7,0.1,2.2,0.3v2.4
		c-0.4-0.1-0.8-0.2-1.3-0.2c-0.6,0-1,0.3-1,0.9v0.2h2.2v2.6h-2.1v6.9h-3.3V24.9z"/>
	<path class="st0" d="M125.7,28.4v-6.3h3.4v5.2c0,1,0.5,1.6,1.4,1.6c0.8,0,1.4-0.6,1.4-1.6v-5.2h3.4v9.6h-3.4v-1.3
		c-0.6,0.8-1.5,1.5-2.9,1.5C126.9,32,125.7,30.6,125.7,28.4z"/>
	<path class="st0" d="M137,22.2h3.4v1.3c0.6-0.8,1.5-1.6,2.9-1.6c2,0,3.3,1.3,3.3,3.5v6.3h-3.4v-5.2c0-1-0.5-1.6-1.3-1.6
		c-0.8,0-1.4,0.6-1.4,1.6v5.2H137V22.2z"/>
	<path class="st0" d="M148.2,22.2h3.4v1.3c0.6-0.8,1.5-1.6,2.9-1.6c2,0,3.3,1.3,3.3,3.5v6.3h-3.4v-5.2c0-1-0.5-1.6-1.3-1.6
		c-0.8,0-1.4,0.6-1.4,1.6v5.2h-3.4V22.2z"/>
	<path class="st0" d="M158.9,33.8l1-2.4c0.5,0.3,1.1,0.5,1.5,0.5c0.3,0,0.6-0.1,0.8-0.4l-3.7-9.4h3.5l1.9,5.8l1.8-5.8h3.4l-3.5,9.3
		c-0.8,2.2-1.7,3.1-3.6,3.1C160.8,34.6,159.8,34.3,158.9,33.8z"/>
	<path class="st0" d="M175.1,22.2h3.4v1.3c0.7-0.8,1.5-1.5,2.9-1.5c2.3,0,4.2,1.9,4.2,5v0c0,3.1-2,5-4.2,5c-1.5,0-2.3-0.7-2.9-1.4v4
		h-3.4V22.2z M182.3,27L182.3,27c0-1.3-0.9-2.2-2-2.2c-1.1,0-1.9,0.9-1.9,2.2v0c0,1.3,0.9,2.2,1.9,2.2
		C181.5,29.1,182.3,28.3,182.3,27z"/>
	<path class="st0" d="M187.1,22.2h3.4v1.9c0.5-1.3,1.4-2.2,3-2.1v3.5h-0.3c-1.8,0-2.7,1-2.7,3.2v3h-3.4V22.2z"/>
	<path class="st0" d="M194.1,27L194.1,27c0-2.8,2.2-5,5.3-5c3.1,0,5.3,2.2,5.3,5v0c0,2.7-2.2,5-5.3,5C196.3,32,194.1,29.7,194.1,27z
		 M201.4,27L201.4,27c0-1.2-0.8-2.2-2-2.2c-1.2,0-2,1-2,2.1v0c0,1.2,0.8,2.2,2,2.2C200.6,29.1,201.4,28.1,201.4,27z"/>
	<path class="st0" d="M205.3,30.5l1.3-2c1.1,0.7,2.3,1.1,3.3,1.1c0.6,0,0.8-0.2,0.8-0.5v0c0-0.4-0.5-0.5-1.5-0.8
		c-1.9-0.5-3.4-1.1-3.4-3.1v0c0-2,1.6-3.2,3.8-3.2c1.4,0,2.8,0.4,3.9,1.1l-1.1,2.1c-1-0.5-2.1-0.9-2.8-0.9c-0.5,0-0.8,0.2-0.8,0.5v0
		c0,0.4,0.5,0.5,1.6,0.8c1.9,0.5,3.4,1.2,3.4,3v0c0,2.1-1.6,3.2-3.9,3.2C208.3,32,206.7,31.5,205.3,30.5z"/>
	<path class="st0" d="M214.8,27L214.8,27c0-2.8,2-5,4.8-5c3.3,0,4.8,2.4,4.8,5.2c0,0.2,0,0.5,0,0.7H218c0.3,1,1,1.6,2.1,1.6
		c0.8,0,1.4-0.3,2.1-1l1.9,1.5c-0.9,1.2-2.2,1.9-4.2,1.9C216.9,32,214.8,30,214.8,27z M221.3,26.2c-0.1-1.1-0.7-1.7-1.7-1.7
		c-0.9,0-1.5,0.7-1.7,1.7H221.3z"/>
	<path class="st0" d="M225.5,27L225.5,27c0-2.7,2.1-5,5.1-5c2,0,3.3,0.8,4.1,2.1l-2.3,1.7c-0.5-0.6-1-1-1.8-1c-1.1,0-1.9,1-1.9,2.1
		v0c0,1.2,0.8,2.2,1.9,2.2c0.8,0,1.3-0.4,1.8-1l2.2,1.6c-0.9,1.3-2.2,2.2-4.3,2.2C227.6,32,225.5,29.7,225.5,27z"/>
	<path class="st0" d="M235.9,28.4v-6.3h3.4v5.2c0,1,0.5,1.6,1.4,1.6c0.8,0,1.4-0.6,1.4-1.6v-5.2h3.4v9.6H242v-1.3
		c-0.6,0.8-1.5,1.5-2.9,1.5C237.1,32,235.9,30.6,235.9,28.4z"/>
	<path class="st0" d="M247.7,28.8v-3.9h-1.1v-2.7h1.1v-2.4h3.4v2.4h2.2v2.7h-2.2v3.2c0,0.7,0.3,1,0.9,1c0.4,0,0.9-0.1,1.3-0.3v2.6
		c-0.6,0.3-1.4,0.5-2.3,0.5C248.9,31.9,247.7,31,247.7,28.8z"/>
	<path class="st0" d="M254.1,27L254.1,27c0-2.8,2.2-5,5.3-5c3.1,0,5.3,2.2,5.3,5v0c0,2.7-2.2,5-5.3,5C256.3,32,254.1,29.7,254.1,27z
		 M261.4,27L261.4,27c0-1.2-0.8-2.2-2-2.2c-1.2,0-2,1-2,2.1v0c0,1.2,0.8,2.2,2,2.2C260.6,29.1,261.4,28.1,261.4,27z"/>
	<path class="st0" d="M266.1,22.2h3.4v1.9c0.5-1.3,1.4-2.2,3-2.1v3.5h-0.3c-1.8,0-2.7,1-2.7,3.2v3h-3.4V22.2z"/>
	<path class="st0" d="M272.4,28.3h3.5v3.4h-3.5V28.3z"/>
</g>
</svg>
