<?xml version="1.0" encoding="utf-8"?>
<!-- Generator: Adobe Illustrator 25.4.1, SVG Export Plug-In . SVG Version: 6.00 Build 0)  -->
<svg version="1.1" id="Layer_1" xmlns="http://www.w3.org/2000/svg" xmlns:xlink="http://www.w3.org/1999/xlink" x="0px" y="0px"
	 viewBox="0 0 300 50" style="enable-background:new 0 0 300 50;" xml:space="preserve">
<style type="text/css">
	.st0{fill:#490A09;}
</style>
<g>
	<path class="st0" d="M7.2,36.8l1.7-2c1.1,0.9,2.3,1.3,3.6,1.3c0.8,0,1.3-0.3,1.3-0.8v0c0-0.5-0.4-0.7-1.9-1.1
		c-2.4-0.5-4.2-1.2-4.2-3.5v0c0-2.1,1.6-3.5,4.3-3.5c1.9,0,3.4,0.5,4.6,1.5L15,30.8c-1-0.7-2.1-1.1-3.1-1.1c-0.7,0-1.1,0.3-1.1,0.7
		v0c0,0.5,0.4,0.7,1.9,1.1c2.5,0.6,4.1,1.4,4.1,3.5v0c0,2.3-1.8,3.6-4.5,3.6C10.4,38.6,8.6,38,7.2,36.8z"/>
	<path class="st0" d="M17.8,34.2L17.8,34.2c0-2.5,1.8-4.5,4.3-4.5c3,0,4.3,2.2,4.3,4.7c0,0.2,0,0.4,0,0.6h-5.7
		c0.2,0.9,0.9,1.4,1.9,1.4c0.7,0,1.3-0.3,1.9-0.9l1.7,1.4c-0.8,1-2,1.7-3.7,1.7C19.7,38.6,17.8,36.9,17.8,34.2z M23.6,33.5
		c-0.1-0.9-0.7-1.6-1.5-1.6c-0.8,0-1.3,0.6-1.5,1.6H23.6z"/>
	<path class="st0" d="M27.3,36L27.3,36c0-1.8,1.3-2.7,3.4-2.7c0.8,0,1.6,0.2,2.1,0.3v-0.1c0-0.9-0.6-1.4-1.7-1.4
		c-0.9,0-1.6,0.2-2.4,0.5L28,30.4c1-0.4,2-0.7,3.5-0.7c1.5,0,2.6,0.4,3.3,1c0.6,0.6,0.9,1.5,0.9,2.7v4.9h-3v-0.9
		c-0.6,0.6-1.4,1.1-2.5,1.1C28.6,38.6,27.3,37.7,27.3,36z M32.8,35.3v-0.4c-0.3-0.1-0.7-0.2-1.2-0.2c-0.9,0-1.4,0.4-1.4,1.1v0
		c0,0.6,0.4,0.9,1.1,0.9C32.1,36.7,32.8,36.2,32.8,35.3z"/>
	<path class="st0" d="M36.6,37.4l1.1-1.8c1,0.6,2.1,1,2.9,1c0.5,0,0.8-0.2,0.8-0.5v0c0-0.3-0.5-0.5-1.4-0.7c-1.7-0.4-3-1-3-2.7v0
		c0-1.8,1.5-2.8,3.4-2.8c1.2,0,2.5,0.4,3.5,1l-1,1.9c-0.9-0.5-1.9-0.8-2.5-0.8c-0.5,0-0.7,0.2-0.7,0.4v0c0,0.3,0.5,0.5,1.4,0.8
		c1.7,0.5,3,1.1,3,2.7v0c0,1.9-1.4,2.9-3.5,2.9C39.2,38.6,37.8,38.2,36.6,37.4z"/>
	<path class="st0" d="M45,34.2L45,34.2c0-2.5,2-4.5,4.7-4.5c2.7,0,4.7,2,4.7,4.4v0c0,2.4-2,4.5-4.7,4.5C47,38.6,45,36.6,45,34.2z
		 M51.6,34.2L51.6,34.2c0-1.1-0.8-2-1.8-2c-1.1,0-1.8,0.9-1.8,1.9v0c0,1,0.8,1.9,1.8,1.9C50.9,36.1,51.6,35.2,51.6,34.2z"/>
	<path class="st0" d="M55.7,29.9h3v1.2c0.6-0.7,1.3-1.4,2.6-1.4c1.8,0,2.9,1.2,2.9,3.1v5.6h-3v-4.6c0-0.9-0.5-1.4-1.2-1.4
		c-0.7,0-1.3,0.5-1.3,1.4v4.6h-3V29.9z"/>
	<path class="st0" d="M71.9,30.1l-1.9,0.4l-0.6-2.4l3.2-0.9H75v11.2h-3V30.1z"/>
	<path class="st0" d="M81.8,32.3h-1v-2.4h1v-0.2c0-1,0.2-1.7,0.7-2.2c0.5-0.5,1.2-0.7,2.2-0.7c0.9,0,1.5,0.1,2,0.2v2.1
		C86.3,29,86,29,85.6,29c-0.6,0-0.9,0.3-0.9,0.8V30h2v2.3h-1.9v6.2h-3V32.3z"/>
	<path class="st0" d="M87.6,29.9h3v1.7c0.5-1.2,1.3-1.9,2.7-1.9v3.2h-0.3c-1.6,0-2.5,0.9-2.5,2.9v2.7h-3V29.9z"/>
	<path class="st0" d="M93.9,34.2L93.9,34.2c0-2.5,1.8-4.5,4.3-4.5c3,0,4.3,2.2,4.3,4.7c0,0.2,0,0.4,0,0.6h-5.7
		c0.2,0.9,0.9,1.4,1.9,1.4c0.7,0,1.3-0.3,1.9-0.9l1.7,1.4c-0.8,1-2,1.7-3.7,1.7C95.8,38.6,93.9,36.9,93.9,34.2z M99.7,33.5
		c-0.1-0.9-0.7-1.6-1.5-1.6c-0.8,0-1.3,0.6-1.5,1.6H99.7z"/>
	<path class="st0" d="M103.5,34.2L103.5,34.2c0-2.5,1.8-4.5,4.3-4.5c3,0,4.3,2.2,4.3,4.7c0,0.2,0,0.4,0,0.6h-5.7
		c0.2,0.9,0.9,1.4,1.9,1.4c0.7,0,1.3-0.3,1.9-0.9l1.7,1.4c-0.8,1-2,1.7-3.7,1.7C105.4,38.6,103.5,36.9,103.5,34.2z M109.3,33.5
		c-0.1-0.9-0.7-1.6-1.5-1.6c-0.8,0-1.3,0.6-1.5,1.6H109.3z"/>
	<path class="st0" d="M117.4,34.2L117.4,34.2c0-2.5,2-4.5,4.7-4.5c2.7,0,4.7,2,4.7,4.4v0c0,2.4-2,4.5-4.7,4.5
		C119.4,38.6,117.4,36.6,117.4,34.2z M124,34.2L124,34.2c0-1.1-0.8-2-1.8-2c-1.1,0-1.8,0.9-1.8,1.9v0c0,1,0.8,1.9,1.8,1.9
		C123.3,36.1,124,35.2,124,34.2z"/>
	<path class="st0" d="M128.2,29.9h3v1.2c0.6-0.7,1.3-1.4,2.6-1.4c1.8,0,2.9,1.2,2.9,3.1v5.6h-3v-4.6c0-0.9-0.5-1.4-1.2-1.4
		c-0.7,0-1.3,0.5-1.3,1.4v4.6h-3V29.9z"/>
	<path class="st0" d="M142.8,27.4h3.2l2.6,4.3l2.6-4.3h3.2v11.1h-3.1v-6.4l-2.8,4.3h-0.1l-2.8-4.3v6.3h-3V27.4z"/>
	<path class="st0" d="M156.5,27.4h3.1v4.1h3.9v-4.1h3.1v11.1h-3.1v-4.2h-3.9v4.2h-3.1V27.4z"/>
	<path class="st0" d="M168.1,36.5l4-4.2h-3.8v-2.4h7.8v2l-4,4.2h4v2.4h-7.9V36.5z"/>
	<path class="st0" d="M181.5,32.9L181.5,32.9c0-3.3,2.5-5.8,5.8-5.8c2.3,0,3.7,0.9,4.7,2.3l-2.3,1.8c-0.6-0.8-1.4-1.3-2.4-1.3
		c-1.6,0-2.6,1.3-2.6,2.9v0c0,1.7,1.1,3,2.6,3c1.2,0,1.8-0.5,2.5-1.3l2.3,1.6c-1,1.4-2.5,2.5-4.9,2.5
		C184,38.7,181.5,36.2,181.5,32.9z"/>
	<path class="st0" d="M193.2,26.9h3V31c0.6-0.7,1.3-1.4,2.6-1.4c1.8,0,2.9,1.2,2.9,3.1v5.6h-3v-4.6c0-0.9-0.5-1.4-1.2-1.4
		c-0.7,0-1.3,0.5-1.3,1.4v4.6h-3V26.9z"/>
	<path class="st0" d="M202.9,34.2L202.9,34.2c0-2.5,2-4.5,4.7-4.5c2.7,0,4.7,2,4.7,4.4v0c0,2.4-2,4.5-4.7,4.5
		C204.9,38.6,202.9,36.6,202.9,34.2z M209.4,34.2L209.4,34.2c0-1.1-0.8-2-1.8-2c-1.1,0-1.8,0.9-1.8,1.9v0c0,1,0.8,1.9,1.8,1.9
		C208.7,36.1,209.4,35.2,209.4,34.2z"/>
	<path class="st0" d="M213.6,26.9h3.1v2.2h-3.1V26.9z M213.7,29.9h3v8.6h-3V29.9z"/>
	<path class="st0" d="M218,34.2L218,34.2c0-2.5,1.9-4.5,4.6-4.5c1.8,0,2.9,0.8,3.7,1.9l-2,1.5c-0.4-0.6-0.9-0.9-1.6-0.9
		c-1,0-1.7,0.9-1.7,1.9v0c0,1.1,0.7,1.9,1.7,1.9c0.7,0,1.2-0.3,1.6-0.9l2,1.5c-0.8,1.2-1.9,2-3.8,2C219.9,38.6,218,36.6,218,34.2z"
		/>
	<path class="st0" d="M226.8,34.2L226.8,34.2c0-2.5,1.8-4.5,4.3-4.5c3,0,4.3,2.2,4.3,4.7c0,0.2,0,0.4,0,0.6h-5.7
		c0.2,0.9,0.9,1.4,1.9,1.4c0.7,0,1.3-0.3,1.9-0.9l1.7,1.4c-0.8,1-2,1.7-3.7,1.7C228.7,38.6,226.8,36.9,226.8,34.2z M232.6,33.5
		c-0.1-0.9-0.7-1.6-1.5-1.6c-0.8,0-1.3,0.6-1.5,1.6H232.6z"/>
	<path class="st0" d="M236.5,35.4h3.1v3.1h-3.1V35.4z"/>
</g>
</svg>
