<?xml version="1.0" encoding="utf-8"?>
<!-- Generator: Adobe Illustrator 25.4.1, SVG Export Plug-In . SVG Version: 6.00 Build 0)  -->
<svg version="1.1" id="Layer_1" xmlns="http://www.w3.org/2000/svg" xmlns:xlink="http://www.w3.org/1999/xlink" x="0px" y="0px"
	 viewBox="0 0 300 50" style="enable-background:new 0 0 300 50;" xml:space="preserve">
<style type="text/css">
	.st0{fill:#490A09;}
</style>
<g>
	<path class="st0" d="M9.9,11.5H13l-3,11.1H6.9L9.9,11.5z"/>
	<path class="st0" d="M14.2,14h3l-0.3,0.9c0.6-0.6,1.4-1.1,2.4-1.1c1.2,0,1.9,0.6,2.2,1.5c0.8-0.9,1.9-1.5,3.1-1.5
		c1.6,0,2.5,1,2.5,2.5c0,0.5-0.1,1-0.3,1.6l-1.2,4.7h-3l1.2-4.5c0.1-0.2,0.1-0.5,0.1-0.7c0-0.6-0.3-0.9-0.9-0.9
		c-0.8,0-1.3,0.6-1.6,1.6l-1.2,4.5h-3l1.2-4.5c0.1-0.2,0.1-0.5,0.1-0.7c0-0.6-0.3-0.9-0.9-0.9c-0.8,0-1.3,0.6-1.6,1.6l-1.2,4.5h-3
		L14.2,14z"/>
	<path class="st0" d="M29.5,14h3l-0.3,0.9c0.6-0.6,1.4-1.1,2.4-1.1c1.2,0,1.9,0.6,2.2,1.5c0.8-0.9,1.9-1.5,3.1-1.5
		c1.6,0,2.5,1,2.5,2.5c0,0.5-0.1,1-0.3,1.6L41,22.6h-3l1.2-4.5c0.1-0.2,0.1-0.5,0.1-0.7c0-0.6-0.3-0.9-0.9-0.9
		c-0.8,0-1.3,0.6-1.6,1.6l-1.2,4.5h-3l1.2-4.5c0.1-0.2,0.1-0.5,0.1-0.7c0-0.6-0.3-0.9-0.9-0.9c-0.8,0-1.3,0.6-1.6,1.6l-1.2,4.5h-3
		L29.5,14z"/>
	<path class="st0" d="M42.8,20.4c0-1.9,1.5-3,3.8-3c0.8,0,1.5,0.1,2.2,0.3l0-0.1c0-0.1,0.1-0.3,0.1-0.5c0-0.6-0.4-0.9-1.5-0.9
		c-0.8,0-1.7,0.2-2.3,0.4l-0.4-2.2c0.9-0.3,2.1-0.5,3.4-0.5c2.6,0,3.8,1,3.8,2.7c0,0.4-0.1,0.8-0.2,1.2l-1.3,4.7h-3l0.2-0.9
		c-0.7,0.7-1.5,1.1-2.5,1.1C43.8,22.7,42.8,21.8,42.8,20.4z M48.4,19.3l0.1-0.3c-0.3-0.1-0.7-0.2-1.1-0.2c-0.9,0-1.6,0.5-1.6,1.2
		c0,0.5,0.3,0.8,0.9,0.8C47.4,20.9,48.1,20.2,48.4,19.3z"/>
	<path class="st0" d="M61.3,14.2H58l0.7-2.7h9.7l-0.7,2.7h-3.3l-2.2,8.4h-3.1L61.3,14.2z"/>
	<path class="st0" d="M66,20.4c0-1.9,1.5-3,3.8-3c0.8,0,1.5,0.1,2.2,0.3l0-0.1c0-0.1,0.1-0.3,0.1-0.5c0-0.6-0.4-0.9-1.5-0.9
		c-0.8,0-1.7,0.2-2.3,0.4l-0.4-2.2c0.9-0.3,2.1-0.5,3.4-0.5c2.6,0,3.8,1,3.8,2.7c0,0.4-0.1,0.8-0.2,1.2l-1.3,4.7h-3l0.2-0.9
		c-0.7,0.7-1.5,1.1-2.5,1.1C67,22.7,66,21.8,66,20.4z M71.6,19.3l0.1-0.3c-0.3-0.1-0.7-0.2-1.1-0.2c-0.9,0-1.6,0.5-1.6,1.2
		c0,0.5,0.3,0.8,0.9,0.8C70.6,20.9,71.3,20.2,71.6,19.3z"/>
	<path class="st0" d="M76.2,20.7c0-0.3,0.1-0.7,0.2-1.1l0.9-3.2h-1l0.6-2.4h1l0.6-2.2h3L80.8,14h2l-0.6,2.4h-2l-0.7,2.7
		c0,0.2-0.1,0.4-0.1,0.5c0,0.3,0.2,0.5,0.7,0.5c0.3,0,0.7-0.1,1.1-0.2l-0.7,2.5c-0.5,0.2-1.2,0.3-1.8,0.3C77,22.7,76.2,22,76.2,20.7
		z"/>
	<path class="st0" d="M83,20.7c0-0.3,0.1-0.7,0.2-1.1l0.9-3.2h-1l0.6-2.4h1l0.6-2.2h3L87.6,14h2L89,16.4h-2l-0.7,2.7
		c0,0.2-0.1,0.4-0.1,0.5c0,0.3,0.2,0.5,0.7,0.5c0.3,0,0.7-0.1,1.1-0.2l-0.7,2.5c-0.5,0.2-1.2,0.3-1.8,0.3C83.8,22.7,83,22,83,20.7z"
		/>
	<path class="st0" d="M89,20.4c0-1.9,1.5-3,3.8-3c0.8,0,1.5,0.1,2.2,0.3l0-0.1c0-0.1,0.1-0.3,0.1-0.5c0-0.6-0.4-0.9-1.5-0.9
		c-0.8,0-1.7,0.2-2.3,0.4l-0.4-2.2c0.9-0.3,2.1-0.5,3.4-0.5c2.6,0,3.8,1,3.8,2.7c0,0.4-0.1,0.8-0.2,1.2l-1.3,4.7h-3l0.2-0.9
		c-0.7,0.7-1.5,1.1-2.5,1.1C90,22.7,89,21.8,89,20.4z M94.5,19.3l0.1-0.3c-0.3-0.1-0.7-0.2-1.1-0.2c-0.9,0-1.6,0.5-1.6,1.2
		c0,0.5,0.3,0.8,0.9,0.8C93.6,20.9,94.3,20.2,94.5,19.3z"/>
	<path class="st0" d="M100.4,14h3l-0.5,1.7c0.8-1.2,1.8-2,3.2-1.9l-0.9,3.2H105c-1.6,0-2.7,0.9-3.2,3l-0.7,2.6h-3L100.4,14z"/>
	<path class="st0" d="M105,20.4c0-1.9,1.5-3,3.8-3c0.8,0,1.5,0.1,2.2,0.3l0-0.1c0-0.1,0.1-0.3,0.1-0.5c0-0.6-0.4-0.9-1.5-0.9
		c-0.8,0-1.7,0.2-2.3,0.4l-0.4-2.2c0.9-0.3,2.1-0.5,3.4-0.5c2.6,0,3.8,1,3.8,2.7c0,0.4-0.1,0.8-0.2,1.2l-1.3,4.7h-3l0.2-0.9
		c-0.7,0.7-1.5,1.1-2.5,1.1C106,22.7,105,21.8,105,20.4z M110.5,19.3l0.1-0.3c-0.3-0.1-0.7-0.2-1.1-0.2c-0.9,0-1.6,0.5-1.6,1.2
		c0,0.5,0.3,0.8,0.9,0.8C109.5,20.9,110.3,20.2,110.5,19.3z"/>
	<path class="st0" d="M116.4,14h3l-0.3,1c0.6-0.6,1.4-1.2,2.5-1.2c1.6,0,2.5,1,2.5,2.6c0,0.5-0.1,1-0.3,1.5l-1.2,4.7h-3l1.2-4.5
		c0.1-0.2,0.1-0.5,0.1-0.7c0-0.6-0.3-0.9-0.9-0.9c-0.8,0-1.3,0.6-1.6,1.6l-1.2,4.5h-3L116.4,14z"/>
	<path class="st0" d="M126.4,14h3l-2.3,8.6h-3L126.4,14z M127.2,11h3.1l-0.6,2.2h-3.1L127.2,11z"/>
	<path class="st0" d="M129.7,19.5h3.1l-0.8,3.1h-3.1L129.7,19.5z"/>
</g>
</svg>
