<?xml version="1.0" encoding="utf-8"?>
<!-- Generator: Adobe Illustrator 25.4.1, SVG Export Plug-In . SVG Version: 6.00 Build 0)  -->
<svg version="1.1" id="Layer_1" xmlns="http://www.w3.org/2000/svg" xmlns:xlink="http://www.w3.org/1999/xlink" x="0px" y="0px"
	 viewBox="0 0 300 50" style="enable-background:new 0 0 300 50;" xml:space="preserve">
<style type="text/css">
	.st0{clip-path:url(#SVGID_00000076579221194664578850000008928219444354164622_);fill:#AC1F2D;}
	.st1{clip-path:url(#SVGID_00000076579221194664578850000008928219444354164622_);fill:#FFFFFF;}
</style>
<g>
	<defs>
		<rect id="SVGID_1_" x="273" y="4" width="22.7" height="21.5"/>
	</defs>
	<clipPath id="SVGID_00000085932112037515465750000013027983351486262959_">
		<use xlink:href="#SVGID_1_"  style="overflow:visible;"/>
	</clipPath>
	<path style="clip-path:url(#SVGID_00000085932112037515465750000013027983351486262959_);fill:#AC1F2D;" d="M294.3,14.9
		c0,5.5-4.4,9.9-9.9,9.9c-5.5,0-9.9-4.4-9.9-9.9s4.4-9.9,9.9-9.9C289.9,5,294.3,9.5,294.3,14.9"/>
	<path style="clip-path:url(#SVGID_00000085932112037515465750000013027983351486262959_);fill:#FFFFFF;" d="M288.4,13.1v1.1h1.3
		l-1.5,2.4h3.7v-1.2h-1.6l1.5-2.3H288.4z M281,11.7l-1.2,2.7l-1.2-2.7h-1.7v4.9h1.4V14l1.2,2.6h0.6l1.2-2.7v2.7h1.4v-4.9H281z
		 M286.4,11.7v1.7h-1.7v-1.7h-1.5v4.9h1.5v-1.9h1.7v1.9h1.5v-4.9H286.4z"/>
	<path style="clip-path:url(#SVGID_00000085932112037515465750000013027983351486262959_);fill:#FFFFFF;" d="M288.3,18.6h1.3v-0.4
		h-0.9V18h0.8v-0.4h-0.8v-0.2h0.9V17h-1.3V18.6z M287.2,18.7c0.4,0,0.6-0.2,0.7-0.4l-0.3-0.2c-0.1,0.1-0.2,0.2-0.4,0.2
		c-0.2,0-0.4-0.2-0.4-0.4v0c0-0.2,0.2-0.4,0.4-0.4c0.2,0,0.3,0.1,0.4,0.2l0.3-0.3c-0.1-0.2-0.4-0.3-0.7-0.3c-0.5,0-0.9,0.4-0.9,0.8
		v0C286.4,18.3,286.7,18.7,287.2,18.7 M285.5,18.6h0.5V17h-0.5V18.6z M284.3,18.3c-0.2,0-0.4-0.2-0.4-0.4v0c0-0.2,0.2-0.4,0.4-0.4
		c0.2,0,0.4,0.2,0.4,0.4v0C284.7,18.1,284.5,18.3,284.3,18.3 M284.3,18.7c0.5,0,0.9-0.4,0.9-0.8v0c0-0.5-0.4-0.8-0.9-0.8
		c-0.5,0-0.9,0.4-0.9,0.8v0C283.4,18.3,283.8,18.7,284.3,18.7 M281.5,18.6h0.5V18h0.6v0.6h0.5V17h-0.5v0.6H282V17h-0.5V18.6z
		 M280.5,18.7c0.4,0,0.6-0.2,0.7-0.4l-0.3-0.2c-0.1,0.1-0.2,0.2-0.4,0.2c-0.2,0-0.4-0.2-0.4-0.4v0c0-0.2,0.2-0.4,0.4-0.4
		c0.2,0,0.3,0.1,0.4,0.2l0.3-0.3c-0.1-0.2-0.4-0.3-0.7-0.3c-0.5,0-0.9,0.4-0.9,0.8v0C279.6,18.3,280,18.7,280.5,18.7"/>
</g>
</svg>
