<svg id="Layer_1" xmlns="http://www.w3.org/2000/svg" viewBox="0 0 970 250"><style>.st0{fill:#490a09}</style><path class="st0" d="M69.9 95.2h15l8.6 55.6H77.4l-1.3-9.9H54.8l-6.6 9.9H31.5l38.4-55.6zm4.9 33.9l-2-15.9-10.3 15.9h12.3zM134.2 95.6h44.2l-3.6 13.4H146l-2.5 9.4h26l-3.4 12.7h-26l-5.3 19.7h-15.4l14.8-55.2zM181.5 108.2h15l-2.3 8.6c4.1-6.1 9.1-9.8 16-9.3l-4.3 15.8h-1.3c-8.2 0-13.5 4.6-16.2 14.8l-3.5 12.9h-15l11.6-42.8zM229.7 140.7c3.1 0 5.8-1 9.1-3.4l6.9 8.2c-4.3 3.8-10 6.4-17.4 6.4-12.6 0-20.4-7.4-20.4-18.9 0-12.6 9.9-25.7 25.6-25.7 12.6 0 18.1 8.4 18.1 17.7 0 2.9-.6 6-1.7 8.8h-28.3c.4 4.1 2.9 6.9 8.1 6.9zm8.2-14.7c.2-.7.4-1.5.4-2.3 0-2.9-1.9-5.4-5.8-5.4-4 0-8 2.6-9.8 7.7h15.2zM262.9 108.2h15l-1.3 4.9c2.9-3.1 7.2-5.8 12.2-5.8 7.7 0 12.4 4.9 12.4 12.8 0 2.3-.6 5-1.3 7.7l-6.2 23.2h-15l6-22.3c.3-1.1.5-2.5.5-3.5 0-2.8-1.7-4.5-4.7-4.5-4.2 0-6.6 2.8-8 7.7l-6.1 22.6h-15l11.5-42.8zM305 133.2c0-14.4 11.4-25.9 25.6-25.9 9.9 0 15.9 5.1 18.1 11.7l-11.8 6.1c-1.4-3.3-3.5-5.4-7.3-5.4-5.7 0-10.3 6.2-10.3 12.7 0 4.3 2.8 7.1 6.5 7.1 3.2 0 5.4-1.3 8-3.9l9.2 8c-4.3 5-9.7 8.4-18.2 8.4-11.4-.1-19.8-7.3-19.8-18.8zM360.9 93.3h15l-5.3 19.8c2.9-3.1 7.2-5.8 12.2-5.8 7.7 0 12.4 4.9 12.4 12.8 0 2.3-.6 5-1.3 7.7l-6.2 23.2h-15l6-22.3c.3-1.1.5-2.5.5-3.5 0-2.8-1.7-4.5-4.7-4.5-4.2 0-6.6 2.8-8 7.7l-6.1 22.6h-15l15.5-57.7zM427.5 95.6h16.7l3.1 34.7L469 95.6h17.3l-37.2 55.6h-14.3l-7.3-55.6zM486.5 108.2h15L490 150.9h-15l11.5-42.7zm3.8-14.9h15.6l-3 11h-15.6l3-11zM514.3 93.3h15l-15.5 57.6h-15l15.5-57.6zM538 93.3h15l-15.5 57.6h-15L538 93.3zM547.7 140.1c0-9.4 7.5-15.1 18.8-15.1 3.9 0 7.4.6 10.8 1.7l.2-.6c.2-.7.4-1.6.4-2.6 0-2.8-2.1-4.6-7.3-4.6-4 0-8.5.9-11.5 2.1l-2.1-10.9c4.5-1.6 10.7-2.6 16.8-2.6 12.8 0 19 5 19 13.6 0 2-.3 4-.9 6.2l-6.3 23.5h-14.8l1.2-4.6c-3.6 3.4-7.3 5.4-12.3 5.4-7.1.1-12-4.4-12-11.5zm27.6-5.3l.4-1.4c-1.7-.6-3.5-.9-5.6-.9-4.7 0-7.8 2.3-7.8 6.2 0 2.4 1.7 3.9 4.3 3.9 3.8-.1 7.5-3.5 8.7-7.8zM591 157.8l6.7-9.4c4.8 2.9 10.3 4.4 15.1 4.4 3.9 0 6.7-1 8.8-3.2 1.6-1.6 2.7-3.8 3.5-6.9l.2-.9c-3.8 3.4-7.7 5.2-12.9 5.2-7.7 0-15.2-5.2-15.2-14.8 0-13.3 9.7-25 22.4-25 6.5 0 10.6 3.2 12.9 6.9l1.6-6.1h15l-9.1 33.9c-2.1 7.7-4.1 11.8-7.6 15.3-4.3 4.2-10.2 6.2-19.1 6.2-8 .2-16.8-2.1-22.3-5.6zm38.3-31.9c0-3.9-2.8-6.8-7.1-6.8-5.8 0-9.9 5.1-9.9 10.6 0 4 2.8 6.5 6.9 6.5 5.7.1 10.1-4.9 10.1-10.3zM671.4 140.7c3.1 0 5.8-1 9.1-3.4l6.9 8.2c-4.3 3.8-10 6.4-17.4 6.4-12.6 0-20.4-7.4-20.4-18.9 0-12.6 9.9-25.7 25.6-25.7 12.6 0 18.1 8.4 18.1 17.7 0 2.9-.6 6-1.7 8.8h-28.3c.4 4.1 3 6.9 8.1 6.9zm8.3-14.7c.2-.7.4-1.5.4-2.3 0-2.9-1.9-5.4-5.8-5.4-4 0-8 2.6-9.8 7.7h15.2z"/><g><path class="st0" d="M696.4 158.1c5.3-.6 8-3.2 7.9-7.4h-6.1v-15.4h15.6v12.5c0 11.7-6.4 15.7-16.3 16l-1.1-5.7z"/></g><g><path class="st0" d="M38.3 201.3v-.2c0-12.1 9.9-22.3 23.7-22.3 13.6 0 23.5 10 23.5 22.2v.2c0 12.1-9.9 22.3-23.7 22.3-13.7 0-23.5-10-23.5-22.2zm32.6 0v-.2c0-5.2-3.8-9.6-9.1-9.6-5.4 0-8.9 4.3-8.9 9.5v.2c0 5.2 3.8 9.6 9.1 9.6 5.4 0 8.9-4.3 8.9-9.5zM91.8 179.8h15v6c2.8-3.5 6.7-6.9 12.8-6.9 9.1 0 14.5 6 14.5 15.7v27.9h-15v-23.1c0-4.7-2.4-7.2-6-7.2s-6.3 2.5-6.3 7.2v23.1h-15v-42.7zM164.5 167.3h16.2l13.2 21.4 13.2-21.4h16.2v55.2H208v-31.7l-14.1 21.6h-.3l-14-21.5v31.6h-15v-55.2zM233 167.3h15.3V188h19.6v-20.7h15.3v55.2h-15.3v-21h-19.6v21H233v-55.2zM290.6 212.6l19.7-20.9h-19v-11.9h38.9v9.9l-19.8 20.9h19.8v11.9h-39.6v-9.9zM357.4 195v-.2c0-16.1 12.4-28.7 29.1-28.7 11.3 0 18.5 4.7 23.4 11.5l-11.5 8.9c-3.2-3.9-6.8-6.5-12.1-6.5-7.7 0-13.2 6.5-13.2 14.6v.2c0 8.3 5.4 14.8 13.2 14.8 5.8 0 9.2-2.7 12.5-6.7l11.5 8.2c-5.2 7.2-12.2 12.5-24.5 12.5-15.7 0-28.4-12.1-28.4-28.6zM416 164.9h15v20.7c2.8-3.5 6.7-6.8 12.8-6.8 9.1 0 14.5 6 14.5 15.7v27.9h-15v-23.1c0-4.7-2.4-7.2-6-7.2s-6.3 2.5-6.3 7.2v23.1h-15v-57.5zM464.3 201.3v-.2c0-12.1 9.9-22.3 23.7-22.3 13.6 0 23.5 10 23.5 22.2v.2c0 12.1-9.9 22.3-23.7 22.3-13.7 0-23.5-10-23.5-22.2zm32.5 0v-.2c0-5.2-3.8-9.6-9.1-9.6-5.4 0-8.9 4.3-8.9 9.5v.2c0 5.2 3.8 9.6 9.1 9.6 5.5 0 8.9-4.3 8.9-9.5zM517.7 164.9h15.6v11h-15.6v-11zm.4 14.9h15v42.7h-15v-42.7zM539.7 201.3v-.2c0-12.1 9.4-22.2 22.9-22.2 8.8 0 14.6 3.8 18.2 9.5l-10.2 7.6c-2.1-2.8-4.3-4.5-8-4.5-4.8 0-8.4 4.3-8.4 9.5v.2c0 5.5 3.5 9.7 8.5 9.7 3.5 0 5.8-1.7 8.2-4.4l10 7.3c-3.9 5.8-9.6 9.8-19 9.8-12.8-.1-22.2-10.2-22.2-22.3zM583.4 201.3v-.2c0-12.5 8.9-22.3 21.5-22.3 14.8 0 21.5 10.8 21.5 23.4 0 .9 0 2.1-.1 3.1h-28.6c1.2 4.7 4.6 7 9.2 7 3.5 0 6.4-1.3 9.5-4.3l8.3 6.9c-4.1 5.2-10 8.7-18.5 8.7-13.3-.1-22.8-9-22.8-22.3zm29.1-3.7c-.6-4.7-3.3-7.7-7.4-7.7-3.9 0-6.6 3.1-7.4 7.7h14.8zM632 207.1h15.6v15.4H632v-15.4z"/></g></svg>