<svg id="Layer_1" xmlns="http://www.w3.org/2000/svg" viewBox="0 0 970 250"><style>.st0{fill:#490a09}</style><path class="st0" d="M55.3 72.5H37.9v-14h50.7v14H71.3v43.8h-16V72.5zM91 58.5h18l13.1 36.6 13.1-36.6h17.6l-23.5 58.3h-14.9L91 58.5zM178.6 94.2V94c0-12.6 9.8-23.3 24-23.3 9.2 0 15.3 4 19.1 10l-10.7 8c-2.1-3-4.5-4.7-8.3-4.7-5 0-8.8 4.5-8.8 9.9v.1c0 5.8 3.6 10.2 8.9 10.2 3.7 0 6.1-1.7 8.6-4.6l10.5 7.6c-4.1 6.1-10.1 10.2-19.9 10.2-13.4 0-23.4-10.6-23.4-23.2zM227.5 71.6h15.7v9c2.6-6.1 6.7-10.1 14.1-9.8v16.5H256c-8.2 0-12.8 4.7-12.8 15v13.9h-15.7V71.6zM262.8 56h16.4v11.6h-16.4V56zm.4 15.6h15.7v44.7h-15.7V71.6zM290.4 102.5V84.3h-5.3V71.6h5.3V60.3h15.7v11.3h10.4v12.6h-10.4v15.1c0 3.1 1.4 4.5 4.3 4.5 2.1 0 4-.6 6-1.5v12.3c-2.8 1.6-6.5 2.6-10.9 2.6-9.5.1-15.1-4.1-15.1-14.7zM323.3 56h16.4v11.6h-16.4V56zm.3 15.6h15.7v44.7h-15.7V71.6zM346.2 94.2V94c0-12.6 9.8-23.3 24-23.3 9.2 0 15.3 4 19.1 10l-10.7 7.9c-2.1-3-4.5-4.7-8.3-4.7-5 0-8.8 4.5-8.8 9.9v.2c0 5.8 3.6 10.2 8.9 10.2 3.7 0 6.1-1.7 8.6-4.6l10.5 7.6c-4.1 6.1-10.1 10.2-19.9 10.2-13.5 0-23.4-10.6-23.4-23.2zM391.7 110.7l5.9-9.5c5.1 3.4 10.7 5.1 15.4 5.1 2.7 0 4-.8 4-2.4v-.2c0-1.7-2.5-2.5-7.2-3.8-8.8-2.3-15.9-5.3-15.9-14.3v-.2c0-9.5 7.6-14.8 17.9-14.8 6.5 0 13.3 1.9 18.4 5.2l-5.4 9.9c-4.6-2.6-9.7-4.1-13.2-4.1-2.4 0-3.6.9-3.6 2.1v.3c0 1.7 2.6 2.6 7.3 4 8.8 2.5 15.9 5.5 15.9 14.2v.2c0 9.8-7.4 15-18.3 15-7.6-.1-15-2.2-21.2-6.7z"/><g><path class="st0" d="M38.4 170v-.2c0-12.6 9.8-23.3 24-23.3 9.2 0 15.3 4 19.1 10l-10.7 7.9c-2.1-3-4.5-4.7-8.3-4.7-5 0-8.8 4.5-8.8 9.9v.2c0 5.8 3.6 10.2 8.9 10.2 3.7 0 6.1-1.7 8.6-4.6l10.5 7.6c-4.1 6.1-10.1 10.2-19.9 10.2-13.5 0-23.4-10.6-23.4-23.2zM87.2 131.8h15.7v21.7c2.9-3.7 7-7.1 13.4-7.1 9.5 0 15.2 6.3 15.2 16.4v29.3h-15.7v-24.2c0-4.9-2.6-7.5-6.3-7.5-3.8 0-6.6 2.6-6.6 7.5v24.2H87.2v-60.3zM137.8 170v-.2c0-13.1 9.3-23.4 22.6-23.4 15.5 0 22.6 11.3 22.6 24.5 0 1 0 2.1-.1 3.2H153c1.2 4.9 4.8 7.4 9.7 7.4 3.7 0 6.7-1.4 9.9-4.5l8.7 7.2c-4.3 5.5-10.5 9.1-19.4 9.1-14.2-.1-24.1-9.4-24.1-23.3zm30.4-3.9c-.6-5-3.5-8.1-7.8-8.1-4.1 0-6.9 3.2-7.8 8.1h15.6zM187.8 170v-.2c0-13.1 9.3-23.4 22.6-23.4 15.5 0 22.6 11.3 22.6 24.5 0 1 0 2.1-.1 3.2H203c1.2 4.9 4.8 7.4 9.7 7.4 3.7 0 6.7-1.4 9.9-4.5l8.7 7.2c-4.3 5.5-10.5 9.1-19.4 9.1-14.2-.1-24.1-9.4-24.1-23.3zm30.4-3.9c-.6-5-3.5-8.1-7.8-8.1-4.1 0-6.9 3.2-7.8 8.1h15.6zM239.6 147.4h15.7v9c2.6-6.1 6.7-10.1 14.1-9.8v16.5h-1.3c-8.2 0-12.8 4.7-12.8 15V192h-15.7v-44.6zM272.3 170v-.2c0-13.1 9.3-23.4 22.6-23.4 15.5 0 22.6 11.3 22.6 24.5 0 1 0 2.1-.1 3.2h-29.9c1.2 4.9 4.8 7.4 9.7 7.4 3.7 0 6.7-1.4 9.9-4.5l8.7 7.2c-4.3 5.5-10.5 9.1-19.4 9.1-14.1-.1-24.1-9.4-24.1-23.3zm30.5-3.9c-.6-5-3.5-8.1-7.8-8.1-4.1 0-6.9 3.2-7.8 8.1h15.6zM322.5 170v-.2c0-14.5 9.1-23.4 19.7-23.4 6.8 0 10.7 3.1 13.7 6.4v-21.1h15.7V192h-15.7v-6c-3.1 3.7-6.9 6.9-13.6 6.9-10.6.2-19.8-8.6-19.8-22.9zm33.6-.2v-.2c0-5.9-4-10.1-9.1-10.1s-9.2 4.1-9.2 10.1v.2c0 6 4.1 10.2 9.2 10.2s9.1-4.2 9.1-10.2zM379.4 176h16.4v16.1h-16.4V176z"/></g></svg>