<svg id="Layer_1" xmlns="http://www.w3.org/2000/svg" viewBox="0 0 970 250"><style>.st0{fill:#490a09}</style><path class="st0" d="M39 51.8v-.2c0-16.1 12.4-28.7 29.1-28.7 11.3 0 18.5 4.7 23.4 11.5L80 43.3c-3.2-3.9-6.8-6.5-12.1-6.5-7.7 0-13.2 6.5-13.2 14.6v.2c0 8.3 5.4 14.8 13.2 14.8 5.8 0 9.2-2.7 12.5-6.7l11.5 8.2c-5.2 7.2-12.2 12.5-24.5 12.5C51.7 80.3 39 68.3 39 51.8zM95.5 67v-.2c0-8.8 6.7-13.4 16.7-13.4 3.9 0 7.8.8 10.3 1.7v-.7c0-4.4-2.8-6.9-8.5-6.9-4.5 0-8 .9-11.8 2.4l-3.1-10.6c4.8-2 9.9-3.3 17.3-3.3 7.7 0 12.9 1.8 16.3 5.2 3.2 3.2 4.6 7.6 4.6 13.6v24.5h-14.8v-4.4c-2.9 3.2-6.9 5.4-12.5 5.4-8.3-.1-14.5-4.8-14.5-13.3zm27.1-3.2v-2c-1.5-.6-3.6-1.1-5.8-1.1-4.3 0-6.9 2.1-6.9 5.3v.2c0 2.9 2.2 4.7 5.3 4.7 4.3-.1 7.4-2.9 7.4-7.1zM147.1 66V48.6h-5v-12h5V25.8h15v10.8h9.9v12.1h-9.9v14.4c0 3 1.3 4.3 4.1 4.3 2 0 3.9-.6 5.7-1.4v11.8c-2.7 1.5-6.2 2.4-10.4 2.4-9-.1-14.4-4-14.4-14.2zM175.7 58.1v-.2c0-12.1 9.4-22.2 22.9-22.2 8.8 0 14.6 3.8 18.2 9.5l-10.2 7.6c-2.1-2.8-4.3-4.5-8-4.5-4.8 0-8.4 4.3-8.4 9.5v.2c0 5.5 3.5 9.7 8.5 9.7 3.5 0 5.8-1.7 8.2-4.4l10 7.3c-3.9 5.8-9.6 9.8-19 9.8-12.7-.1-22.2-10.2-22.2-22.3zM222.3 21.6h15v20.7c2.8-3.5 6.7-6.8 12.8-6.8 9.1 0 14.5 6 14.5 15.7v27.9h-15v-23c0-4.7-2.4-7.2-6-7.2s-6.3 2.5-6.3 7.2v23.1h-15V21.6zM296.8 66V48.6h-5v-12h5V25.8h15v10.8h9.9v12.1h-9.9v14.4c0 3 1.3 4.3 4.1 4.3 2 0 3.9-.6 5.7-1.4v11.8c-2.7 1.5-6.2 2.4-10.4 2.4-9-.1-14.4-4-14.4-14.2zM328.2 21.6h15v20.7c2.8-3.5 6.7-6.8 12.8-6.8 9.1 0 14.5 6 14.5 15.7v27.9h-15v-23c0-4.7-2.4-7.2-6-7.2s-6.3 2.5-6.3 7.2v23.1h-15V21.6zM376.5 58.1v-.2c0-12.5 8.9-22.3 21.5-22.3 14.8 0 21.5 10.8 21.5 23.4 0 .9 0 2.1-.1 3.1h-28.6c1.2 4.7 4.6 7 9.2 7 3.5 0 6.4-1.3 9.5-4.3l8.3 6.9c-4.1 5.2-10 8.7-18.5 8.7-13.4-.1-22.8-9.1-22.8-22.3zm29-3.7c-.6-4.7-3.3-7.7-7.4-7.7-3.9 0-6.6 3.1-7.4 7.7h14.8zM446.2 58.1v-.2c0-13.9 8.7-22.3 18.8-22.3 6.5 0 10.3 2.9 13.1 6.2V21.6h15v57.6h-15v-5.7c-2.9 3.5-6.6 6.6-13 6.6-10.2.1-18.9-8.4-18.9-22zm32.1-.2v-.2c0-5.6-3.9-9.6-8.7-9.6-4.8 0-8.8 3.9-8.8 9.6v.2c0 5.7 3.9 9.7 8.8 9.7 4.8 0 8.7-4 8.7-9.7zM501.1 36.6h15v8.6c2.4-5.8 6.4-9.6 13.5-9.3v15.8h-1.3c-7.8 0-12.2 4.5-12.2 14.4v13.3h-15V36.6zM530.8 67v-.2c0-8.8 6.7-13.4 16.7-13.4 3.9 0 7.8.8 10.3 1.7v-.7c0-4.4-2.8-6.9-8.5-6.9-4.5 0-8 .9-11.8 2.4l-3.1-10.6c4.8-2 9.9-3.3 17.3-3.3 7.7 0 12.9 1.8 16.3 5.2 3.2 3.2 4.6 7.6 4.6 13.6v24.5h-14.8v-4.4c-2.9 3.2-6.9 5.4-12.5 5.4-8.2-.1-14.5-4.8-14.5-13.3zm27.2-3.2v-2c-1.5-.6-3.6-1.1-5.8-1.1-4.3 0-6.9 2.1-6.9 5.3v.2c0 2.9 2.2 4.7 5.3 4.7 4.3-.1 7.4-2.9 7.4-7.1zM580.2 36.6h15v5.8c2.8-3.5 6.7-6.8 12.7-6.8 5.7 0 10 2.5 12.3 6.9 3.7-4.3 8-6.9 14.3-6.9 9.1 0 14.6 5.7 14.6 15.6v28h-15V56c0-4.7-2.3-7.1-5.8-7.1-3.6 0-6.2 2.4-6.2 7.1v23.2h-15V56c0-4.7-2.3-7.1-5.8-7.1s-6.1 2.4-6.1 7.1v23.2h-15V36.6zM654.7 67v-.2c0-8.8 6.7-13.4 16.7-13.4 3.9 0 7.8.8 10.3 1.7v-.7c0-4.4-2.8-6.9-8.5-6.9-4.5 0-8 .9-11.8 2.4l-3.1-10.6c4.8-2 9.9-3.3 17.3-3.3 7.7 0 12.9 1.8 16.3 5.2 3.2 3.2 4.6 7.6 4.6 13.6v24.5h-14.8v-4.4c-2.9 3.2-6.9 5.4-12.5 5.4-8.3-.1-14.5-4.8-14.5-13.3zm27.1-3.2v-2c-1.5-.6-3.6-1.1-5.8-1.1-4.3 0-6.9 2.1-6.9 5.3v.2c0 2.9 2.2 4.7 5.3 4.7 4.3-.1 7.4-2.9 7.4-7.1zM703.4 63.9H719v15.4h-15.6V63.9z"/></svg>