<svg id="Layer_1" xmlns="http://www.w3.org/2000/svg" viewBox="0 0 160 600"><style>.st0{fill:#490a09}</style><path class="st0" d="M17.5 210h5.6l-5.4 20.2H12l5.5-20.2zM25.2 214.6h5.5l-.5 1.7c1.1-1.1 2.5-2.1 4.4-2.1 2.1 0 3.5 1.1 4.1 2.7 1.5-1.7 3.4-2.7 5.7-2.7 3 0 4.6 1.8 4.6 4.7 0 .8-.2 1.8-.5 2.8l-2.3 8.5h-5.5l2.2-8.2c.1-.4.2-.9.2-1.3 0-1-.5-1.6-1.7-1.6-1.5 0-2.4 1-2.9 2.8l-2.2 8.3h-5.5L33 222c.1-.4.2-.9.2-1.3 0-1-.5-1.6-1.7-1.6-1.5 0-2.4 1-2.9 2.8l-2.2 8.3H21l4.2-15.6zM53.2 214.6h5.5l-.5 1.7c1.1-1.1 2.5-2.1 4.4-2.1 2.1 0 3.5 1.1 4.1 2.7 1.5-1.7 3.4-2.7 5.7-2.7 3 0 4.6 1.8 4.6 4.7 0 .8-.2 1.8-.5 2.8l-2.3 8.5h-5.5l2.2-8.2c.1-.4.2-.9.2-1.3 0-1-.5-1.6-1.7-1.6-1.5 0-2.4 1-2.9 2.8l-2.2 8.3h-5.5L61 222c.1-.4.2-.9.2-1.3 0-1-.5-1.6-1.7-1.6-1.5 0-2.4 1-2.9 2.8l-2.2 8.3H49l4.2-15.6zM77.6 226.3c0-3.4 2.7-5.5 6.9-5.5 1.4 0 2.7.2 4 .6l.1-.2c.1-.3.1-.6.1-1 0-1-.8-1.7-2.7-1.7-1.5 0-3.1.3-4.2.8l-.8-4c1.6-.6 3.9-1 6.2-1 4.7 0 7 1.8 7 5 0 .7-.1 1.5-.3 2.3l-2.3 8.6H86l.4-1.7c-1.3 1.2-2.7 2-4.5 2-2.5 0-4.3-1.6-4.3-4.2zm10.1-2l.1-.5c-.6-.2-1.3-.3-2.1-.3-1.7 0-2.9.8-2.9 2.3 0 .9.6 1.4 1.6 1.4 1.5 0 2.9-1.3 3.3-2.9z"/><g><path class="st0" d="M20.7 242.9h-6.1L16 238h17.7l-1.3 4.9h-6.1l-4.1 15.3h-5.6l4.1-15.3zM29.3 254.3c0-3.4 2.7-5.5 6.9-5.5 1.4 0 2.7.2 4 .6l.1-.2c.1-.3.1-.6.1-1 0-1-.8-1.7-2.7-1.7-1.5 0-3.1.3-4.2.8l-.8-4c1.6-.6 3.9-1 6.2-1 4.7 0 7 1.8 7 5 0 .7-.1 1.5-.3 2.3l-2.3 8.6h-5.4l.4-1.7c-1.3 1.2-2.7 2-4.5 2-2.7 0-4.5-1.6-4.5-4.2zm10.2-2l.1-.5c-.6-.2-1.3-.3-2.1-.3-1.7 0-2.9.8-2.9 2.3 0 .9.6 1.4 1.6 1.4 1.5 0 2.8-1.3 3.3-2.9zM47.8 254.8c0-.6.1-1.3.3-2.1l1.6-5.8h-1.8l1.2-4.4h1.8l1.1-4h5.5l-1.1 4H60l-1.2 4.4h-3.6l-1.3 4.9c-.1.4-.1.7-.1 1 0 .6.4 1 1.2 1 .6 0 1.3-.1 2.1-.4l-1.2 4.6c-1 .3-2.1.5-3.2.5-3.3 0-4.9-1.3-4.9-3.7zM60.3 254.8c0-.6.1-1.3.3-2.1l1.6-5.8h-1.8l1.2-4.4h1.8l1.1-4H70l-1.1 4h3.6l-1.2 4.4h-3.6l-1.3 4.9c-.1.4-.1.7-.1 1 0 .6.4 1 1.2 1 .6 0 1.3-.1 2.1-.4l-1.2 4.6c-1 .3-2.1.5-3.2.5-3.4 0-4.9-1.3-4.9-3.7zM71.3 254.3c0-3.4 2.7-5.5 6.9-5.5 1.4 0 2.7.2 4 .6l.1-.2c.1-.3.1-.6.1-1 0-1-.8-1.7-2.7-1.7-1.5 0-3.1.3-4.2.8l-.8-4c1.6-.6 3.9-1 6.2-1 4.7 0 7 1.8 7 5 0 .7-.1 1.5-.3 2.3l-2.3 8.6h-5.4l.4-1.7c-1.3 1.2-2.7 2-4.5 2-2.7 0-4.5-1.6-4.5-4.2zm10.1-2l.1-.5c-.6-.2-1.3-.3-2.1-.3-1.7 0-2.9.8-2.9 2.3 0 .9.6 1.4 1.6 1.4 1.5 0 2.8-1.3 3.3-2.9zM92.1 242.6h5.5l-.8 3.1c1.5-2.2 3.3-3.6 5.9-3.4l-1.6 5.8h-.5c-3 0-4.9 1.7-5.9 5.4l-1.3 4.7h-5.5l4.2-15.6zM100.5 254.3c0-3.4 2.7-5.5 6.9-5.5 1.4 0 2.7.2 4 .6l.1-.2c.1-.3.1-.6.1-1 0-1-.8-1.7-2.7-1.7-1.5 0-3.1.3-4.2.8l-.8-4c1.6-.6 3.9-1 6.2-1 4.7 0 7 1.8 7 5 0 .7-.1 1.5-.3 2.3l-2.3 8.6h-5.4l.4-1.7c-1.3 1.2-2.7 2-4.5 2-2.7 0-4.5-1.6-4.5-4.2zm10.1-2l.1-.5c-.6-.2-1.3-.3-2.1-.3-1.7 0-2.9.8-2.9 2.3 0 .9.6 1.4 1.6 1.4 1.5 0 2.8-1.3 3.3-2.9zM121.3 242.6h5.5l-.5 1.8c1.1-1.1 2.6-2.1 4.5-2.1 2.8 0 4.5 1.8 4.5 4.7 0 .8-.2 1.8-.5 2.8l-2.3 8.5H127l2.2-8.2c.1-.4.2-.9.2-1.3 0-1-.6-1.6-1.7-1.6-1.5 0-2.4 1-2.9 2.8l-2.2 8.3h-5.5l4.2-15.7zM139.6 242.6h5.5l-4.2 15.6h-5.5l4.2-15.6zm1.4-5.5h5.7l-1.1 4h-5.7l1.1-4z"/></g><g><path class="st0" d="M145.7 252.6h5.7v5.6h-5.7v-5.6z"/></g></svg>