<svg id="Layer_1" xmlns="http://www.w3.org/2000/svg" viewBox="0 0 160 600"><style>.st0{fill:#490a09}</style><path class="st0" d="M17.9 234h4.6l7.3 17.4h-5.1l-1.3-3.1h-6.6l-1.2 3.1h-5l7.3-17.4zm4.2 10.5l-1.9-4.9-1.9 4.9h3.8zM16.4 272.6v1.6h-4.7v-18h4.7v6.4c.9-1.1 2-2.1 4-2.1 3.2 0 5.9 2.6 5.9 6.9 0 4.3-2.7 7-5.9 7-2 .1-3.1-.8-4-1.8zm5.3-5.1c0-1.8-1.2-3.1-2.7-3.1-1.5 0-2.7 1.3-2.7 3 0 1.8 1.2 3 2.7 3 1.5.2 2.7-1.1 2.7-2.9zM28.4 260.9H33v2.7c.8-1.8 2-3 4.2-2.9v4.9h-.4c-2.4 0-3.8 1.4-3.8 4.5v4.1h-4.7v-13.3zM38.9 256.2h4.9v3.4h-4.9v-3.4zm.1 4.7h4.7v13.3H39v-13.3zM46.4 256.2h4.7v18h-4.7v-18zM53.8 256.2h4.7v18h-4.7v-18zM61 256.2h4.9v3.4H61v-3.4zm.1 4.7h4.7v13.3h-4.7v-13.3zM67.8 270.4c0-2.8 2.1-4.2 5.2-4.2 1.2 0 2.4.2 3.2.5v-.2c0-1.4-.9-2.2-2.7-2.2-1.4 0-2.5.3-3.7.7l-1-3.3c1.5-.6 3.1-1 5.4-1 2.4 0 4 .6 5.1 1.6 1 1 1.4 2.4 1.4 4.2v7.7h-4.6v-1.4c-.9 1-2.2 1.7-3.9 1.7-2.5 0-4.4-1.5-4.4-4.1zm8.4-1v-.6c-.5-.2-1.1-.3-1.8-.3-1.4 0-2.1.7-2.1 1.6 0 .9.7 1.5 1.6 1.5 1.4 0 2.3-.9 2.3-2.2zM83.2 260.9h4.7v1.9c.9-1.1 2.1-2.2 4-2.2 2.8 0 4.5 1.9 4.5 4.9v8.7h-4.7V267c0-1.5-.8-2.2-1.9-2.2-1.1 0-2 .8-2 2.2v7.2h-4.7v-13.3zM99.6 270.1v-5.4H98v-3.8h1.6v-3.4h4.7v3.4h3.1v3.8h-3.1v4.5c0 .9.4 1.3 1.3 1.3.6 0 1.2-.2 1.8-.4v3.7c-.8.5-1.9.8-3.2.8-2.9-.1-4.6-1.4-4.6-4.5zM109.5 256.2h4.7v18h-4.7v-18zM116.4 277l1.5-3.3c.7.4 1.5.7 2 .7s.8-.1 1.1-.5l-5.2-13.1h4.9l2.7 8 2.5-8h4.8l-4.9 13c-1.2 3.1-2.4 4.3-5.1 4.3-1.6.1-3-.4-4.3-1.1z"/><g><path class="st0" d="M12.6 287.5H11v-3.7h1.6v-.3c0-1.5.3-2.7 1.1-3.4.8-.8 1.9-1.2 3.5-1.2 1.4 0 2.3.1 3.1.4v3.3c-.5-.2-1.1-.3-1.7-.3-.9 0-1.3.4-1.3 1.3v.3h3.1v3.6h-3v9.6h-4.7v-9.6zM21.6 292.4v-8.7h4.7v7.2c0 1.5.8 2.2 1.9 2.2 1.1 0 1.9-.8 1.9-2.2v-7.2h4.7V297h-4.7v-1.8c-.9 1.1-2.1 2.1-4 2.1-2.8 0-4.5-1.8-4.5-4.9zM37.3 283.7H42v1.9c.9-1.1 2.1-2.2 4-2.2 2.8 0 4.5 1.9 4.5 4.9v8.7h-4.7v-7.2c0-1.5-.8-2.2-1.9-2.2-1.1 0-2 .8-2 2.2v7.2h-4.7v-13.3zM52.9 283.7h4.7v1.9c.9-1.1 2.1-2.2 4-2.2 2.8 0 4.5 1.9 4.5 4.9v8.7h-4.7v-7.2c0-1.5-.8-2.2-1.9-2.2-1.1 0-2 .8-2 2.2v7.2h-4.7v-13.3zM67.8 299.9l1.5-3.3c.7.4 1.5.7 2 .7s.8-.1 1.1-.5l-5.2-13.1h4.9l2.7 8 2.5-8H82l-4.9 13c-1.2 3.1-2.4 4.3-5.1 4.3-1.6 0-3-.4-4.2-1.1z"/></g><g><path class="st0" d="M11.7 306.6h4.7v1.8c.9-1.1 2-2.1 4-2.1 3.2 0 5.9 2.6 5.9 6.9 0 4.3-2.7 7-5.9 7-2 0-3.2-.9-4.1-1.9v5.6h-4.7v-17.3zm10 6.6c0-1.8-1.2-3.1-2.7-3.1-1.5 0-2.7 1.3-2.7 3 0 1.8 1.2 3 2.7 3 1.5.2 2.7-1.1 2.7-2.9zM28.4 306.6H33v2.7c.8-1.8 2-3 4.2-2.9v4.9h-.4c-2.4 0-3.8 1.4-3.8 4.5v4.1h-4.7v-13.3zM38.1 313.3c0-3.8 3.1-7 7.4-7 4.3 0 7.3 3.1 7.3 6.9 0 3.8-3.1 7-7.4 7-4.2 0-7.3-3.1-7.3-6.9zm10.2 0c0-1.7-1.2-3.1-2.8-3.1-1.7 0-2.8 1.4-2.8 3s1.2 3 2.8 3c1.7 0 2.8-1.3 2.8-2.9zM53.8 318.2l1.7-2.8c1.5 1 3.2 1.5 4.6 1.5.8 0 1.2-.2 1.2-.7 0-.5-.7-.7-2.1-1.1-2.6-.7-4.7-1.6-4.7-4.3 0-2.8 2.3-4.4 5.3-4.4 1.9 0 4 .6 5.5 1.6l-1.6 3c-1.4-.8-2.9-1.2-3.9-1.2-.7 0-1.1.3-1.1.6 0 .5.8.8 2.2 1.2 2.6.7 4.7 1.6 4.7 4.2 0 2.9-2.2 4.5-5.4 4.5-2.4-.1-4.6-.8-6.4-2.1zM66.9 313.3c0-3.9 2.8-7 6.7-7 4.6 0 6.7 3.4 6.7 7.3v1h-8.9c.4 1.5 1.4 2.2 2.9 2.2 1.1 0 2-.4 3-1.4l2.6 2.1c-1.3 1.6-3.1 2.7-5.8 2.7-4.2 0-7.2-2.8-7.2-6.9zm9.1-1.2c-.2-1.5-1-2.4-2.3-2.4-1.2 0-2.1 1-2.3 2.4H76zM81.8 313.3c0-3.8 2.9-7 7.1-7 2.7 0 4.6 1.2 5.7 3l-3.2 2.4c-.6-.9-1.4-1.4-2.5-1.4-1.5 0-2.6 1.3-2.6 3s1.1 3 2.7 3c1.1 0 1.8-.5 2.6-1.4l3.1 2.3c-1.2 1.8-3 3.1-5.9 3.1-4-.1-7-3.3-7-7zM96.2 315.3v-8.7h4.7v7.2c0 1.5.8 2.2 1.9 2.2 1.1 0 1.9-.8 1.9-2.2v-7.2h4.7v13.3h-4.7v-1.8c-.9 1.1-2.1 2.1-4 2.1-2.8 0-4.5-1.9-4.5-4.9zM112.8 315.7v-5.4h-1.6v-3.8h1.6v-3.4h4.7v3.4h3.1v3.8h-3.1v4.5c0 .9.4 1.3 1.3 1.3.6 0 1.2-.2 1.8-.4v3.7c-.8.5-1.9.8-3.2.8-3-.1-4.6-1.3-4.6-4.5zM121.7 313.3c0-3.8 3.1-7 7.4-7 4.3 0 7.3 3.1 7.3 6.9 0 3.8-3.1 7-7.4 7-4.2 0-7.3-3.1-7.3-6.9zm10.1 0c0-1.7-1.2-3.1-2.8-3.1-1.7 0-2.8 1.4-2.8 3s1.2 3 2.8 3c1.8 0 2.8-1.3 2.8-2.9zM138.4 306.6h4.7v2.7c.8-1.8 2-3 4.2-2.9v4.9h-.4c-2.4 0-3.8 1.4-3.8 4.5v4.1h-4.7v-13.3zM147.1 315.1h4.9v4.8h-4.9v-4.8z"/></g></svg>