<svg id="Layer_1" xmlns="http://www.w3.org/2000/svg" viewBox="0 0 160 600"><style>.st0{fill:#490a09}</style><path class="st0" d="M12.5 296.4l3.1-3.7c2 1.6 4.2 2.4 6.6 2.4 1.5 0 2.3-.5 2.3-1.4v-.1c0-.8-.7-1.3-3.4-1.9-4.3-1-7.6-2.2-7.6-6.4v-.1c0-3.8 3-6.5 7.8-6.5 3.4 0 6.1.9 8.3 2.7l-2.8 4c-1.8-1.3-3.9-2-5.7-2-1.4 0-2 .6-2 1.3v.1c0 .9.7 1.3 3.5 2 4.7 1 7.5 2.5 7.5 6.3v.1c0 4.1-3.3 6.6-8.2 6.6-3.5-.1-6.9-1.2-9.4-3.4zM31.9 291.6c0-4.6 3.3-8.2 7.9-8.2 5.4 0 7.9 4 7.9 8.5v1.1H37.2c.4 1.7 1.7 2.6 3.4 2.6 1.3 0 2.3-.5 3.5-1.6l3 2.5c-1.5 1.9-3.7 3.2-6.8 3.2-4.9 0-8.4-3.2-8.4-8.1zm10.6-1.3c-.2-1.7-1.2-2.8-2.7-2.8-1.4 0-2.4 1.1-2.7 2.8h5.4zM49.3 294.9c0-3.3 2.5-5 6.1-5 1.4 0 2.9.3 3.8.6v-.3c0-1.6-1-2.5-3.1-2.5-1.6 0-2.9.3-4.3.9l-1.1-3.9c1.8-.7 3.6-1.2 6.3-1.2 2.8 0 4.7.7 6 1.9 1.2 1.2 1.7 2.8 1.7 5v9h-5.4v-1.6c-1.1 1.2-2.5 2-4.6 2-3.2-.1-5.4-1.8-5.4-4.9zm9.9-1.2v-.7c-.5-.2-1.3-.4-2.1-.4-1.6 0-2.5.8-2.5 1.9v.1c0 1.1.8 1.7 1.9 1.7 1.6 0 2.7-1 2.7-2.6zM66.2 297.4l2.1-3.3c1.8 1.2 3.8 1.8 5.4 1.8 1 0 1.4-.3 1.4-.8v-.1c0-.6-.9-.9-2.5-1.3-3.1-.8-5.5-1.8-5.5-5v-.1c0-3.3 2.7-5.2 6.3-5.2 2.3 0 4.7.7 6.4 1.8l-1.9 3.5c-1.6-.9-3.4-1.4-4.6-1.4-.8 0-1.3.3-1.3.8v.1c0 .6.9.9 2.5 1.4 3.1.9 5.5 1.9 5.5 5v.1c0 3.4-2.6 5.2-6.4 5.2-2.7-.2-5.3-.9-7.4-2.5zM81.6 291.6c0-4.5 3.6-8.2 8.7-8.2 5 0 8.6 3.7 8.6 8.1v.1c0 4.4-3.6 8.2-8.7 8.2-5-.1-8.6-3.7-8.6-8.2zm11.9 0c0-2-1.4-3.6-3.3-3.6-2 0-3.3 1.6-3.3 3.5v.1c0 1.9 1.4 3.5 3.3 3.5 2 0 3.3-1.6 3.3-3.5zM101.1 283.7h5.5v2.2c1-1.3 2.5-2.5 4.7-2.5 3.3 0 5.3 2.2 5.3 5.7v10.2h-5.5v-8.5c0-1.7-.9-2.6-2.2-2.6-1.3 0-2.3.9-2.3 2.6v8.5h-5.5v-15.6z"/><g><path class="st0" d="M17 312.2l-3.4.8-1.1-4.3 5.9-1.7h4.1v20.4H17v-15.2zM34.9 316.1h-1.8v-4.3h1.8v-.3c0-1.8.4-3.1 1.3-4 1-1 2.2-1.4 4.1-1.4 1.7 0 2.7.2 3.6.4v3.9c-.6-.2-1.3-.3-2.1-.3-1 0-1.6.5-1.6 1.5v.4h3.6v4.2h-3.5v11.2h-5.5v-11.3zM45.6 311.7h5.5v3.1c.9-2.1 2.3-3.5 4.9-3.4v5.8h-.5c-2.9 0-4.5 1.6-4.5 5.3v4.9h-5.5v-15.7zM57.1 319.6c0-4.6 3.3-8.2 7.9-8.2 5.4 0 7.9 4 7.9 8.5v1.1H62.3c.4 1.7 1.7 2.6 3.4 2.6 1.3 0 2.3-.5 3.5-1.6l3 2.5c-1.5 1.9-3.7 3.2-6.8 3.2-4.9 0-8.3-3.2-8.3-8.1zm10.6-1.3c-.2-1.7-1.2-2.8-2.7-2.8-1.4 0-2.4 1.1-2.7 2.8h5.4zM74.5 319.6c0-4.6 3.3-8.2 7.9-8.2 5.4 0 7.9 4 7.9 8.5v1.1H79.8c.4 1.7 1.7 2.6 3.4 2.6 1.3 0 2.3-.5 3.5-1.6l3 2.5c-1.5 1.9-3.7 3.2-6.8 3.2-4.9 0-8.4-3.2-8.4-8.1zm10.7-1.3c-.2-1.7-1.2-2.8-2.7-2.8-1.4 0-2.4 1.1-2.7 2.8h5.4z"/></g><g><path class="st0" d="M13.1 347.6c0-4.5 3.6-8.2 8.7-8.2 5 0 8.6 3.7 8.6 8.1v.1c0 4.4-3.6 8.2-8.7 8.2-5-.1-8.6-3.7-8.6-8.2zm11.9 0c0-2-1.4-3.6-3.3-3.6-2 0-3.3 1.6-3.3 3.5v.1c0 1.9 1.4 3.5 3.3 3.5 2 0 3.3-1.6 3.3-3.5zM32.7 339.7h5.5v2.2c1-1.3 2.5-2.5 4.7-2.5 3.3 0 5.3 2.2 5.3 5.7v10.2h-5.5v-8.5c0-1.7-.9-2.6-2.2-2.6-1.3 0-2.3.9-2.3 2.6v8.5h-5.5v-15.6zM59.3 335.1h5.9l4.8 7.8 4.8-7.8h5.9v20.2h-5.6v-11.6l-5.2 7.9h-.1l-5.1-7.9v11.6h-5.5v-20.2zM84.4 335.1H90v7.6h7.2v-7.6h5.6v20.2h-5.6v-7.7H90v7.7h-5.6v-20.2zM105.5 351.7l7.2-7.7h-7v-4.4H120v3.6l-7.2 7.7h7.2v4.4h-14.5v-3.6z"/></g><g><path class="st0" d="M13.3 373.3c0-6 4.5-10.6 10.7-10.6 4.1 0 6.8 1.7 8.6 4.2l-4.2 3.3c-1.2-1.4-2.5-2.4-4.4-2.4-2.8 0-4.8 2.4-4.8 5.3v.1c0 3 2 5.4 4.8 5.4 2.1 0 3.4-1 4.6-2.5l4.2 3c-1.9 2.6-4.5 4.6-9 4.6-5.8 0-10.5-4.4-10.5-10.4zM34.8 362.3h5.5v7.6c1-1.3 2.5-2.5 4.7-2.5 3.3 0 5.3 2.2 5.3 5.7v10.2h-5.5v-8.5c0-1.7-.9-2.6-2.2-2.6-1.3 0-2.3.9-2.3 2.6v8.5h-5.5v-21zM52.5 375.6c0-4.5 3.6-8.2 8.7-8.2 5 0 8.6 3.7 8.6 8.1v.1c0 4.4-3.6 8.2-8.7 8.2-5-.1-8.6-3.8-8.6-8.2zm11.9 0c0-2-1.4-3.6-3.3-3.6-2 0-3.3 1.6-3.3 3.5v.1c0 1.9 1.4 3.5 3.3 3.5 2 0 3.3-1.6 3.3-3.5zM72.1 362.3h5.7v4h-5.7v-4zm.1 5.4h5.5v15.6h-5.5v-15.6zM80.1 375.6c0-4.5 3.4-8.2 8.4-8.2 3.2 0 5.3 1.4 6.7 3.5l-3.7 2.8c-.8-1-1.6-1.6-2.9-1.6-1.8 0-3.1 1.6-3.1 3.5v.1c0 2 1.3 3.6 3.1 3.6 1.3 0 2.1-.6 3-1.6l3.7 2.7c-1.4 2.1-3.5 3.6-7 3.6-4.7-.3-8.2-4-8.2-8.4zM96.1 375.6c0-4.6 3.3-8.2 7.9-8.2 5.4 0 7.9 4 7.9 8.5v1.1h-10.5c.4 1.7 1.7 2.6 3.4 2.6 1.3 0 2.3-.5 3.5-1.6l3 2.5c-1.5 1.9-3.7 3.2-6.8 3.2-4.9 0-8.4-3.2-8.4-8.1zm10.7-1.4c-.2-1.7-1.2-2.8-2.7-2.8-1.4 0-2.4 1.1-2.7 2.8h5.4zM113.9 377.7h5.7v5.6h-5.7v-5.6z"/></g></svg>