<svg id="Layer_1" xmlns="http://www.w3.org/2000/svg" viewBox="0 0 160 600"><style>.st0{fill:#ab1f2d}.st1{fill:#fff}</style><path class="st0" d="M26.7 533.1c-7.5 0-13.7 6.1-13.7 13.7v4c0 7.5 6.1 13.7 13.7 13.7h94.8c7.5 0 13.7-6.1 13.7-13.7v-4c0-7.5-6.1-13.7-13.7-13.7H26.7z"/><path class="st1" d="M23.9 543.9h2.4l2.1 7 2.3-7h2l2.3 7 2.1-7h2.4L36 554.3h-2l-2.3-6.8-2.3 6.8h-2l-3.5-10.4zM43.5 543.8h2.1l4.4 10.4h-2.4l-.9-2.3h-4.4l-.9 2.3H39l4.5-10.4zm2.4 6.1l-1.4-3.4-1.4 3.4h2.8zM52.7 546h-3.1v-2.1h8.6v2.1H55v8.2h-2.3V546zM59 549.1c0-3 2.2-5.4 5.4-5.4 2 0 3.1.7 4.1 1.6L67 547c-.8-.7-1.6-1.2-2.6-1.2-1.7 0-3 1.4-3 3.2 0 1.8 1.2 3.3 3 3.3 1.2 0 1.9-.5 2.7-1.2l1.4 1.5c-1.1 1.1-2.2 1.8-4.2 1.8-3.1 0-5.3-2.4-5.3-5.3zM70.3 543.9h2.3v4.1h4.2v-4.1h2.3v10.3h-2.3V550h-4.2v4.2h-2.3v-10.3zM86 543.9h2.1l4.8 6.4v-6.4h2.2v10.3h-1.9l-5-6.6v6.6H86v-10.3zM97.2 549.1c0-3 2.3-5.4 5.5-5.4s5.5 2.4 5.5 5.3-2.3 5.4-5.5 5.4-5.5-2.4-5.5-5.3zm8.6 0c0-1.8-1.3-3.3-3.1-3.3s-3.1 1.4-3.1 3.2c0 1.8 1.3 3.3 3.1 3.3 1.9 0 3.1-1.5 3.1-3.2zM108.9 543.9h2.4l2.1 7 2.3-7h2l2.3 7 2.1-7h2.4l-3.5 10.4h-2l-2.3-6.8-2.3 6.8h-2l-3.5-10.4z"/></svg>