<?xml version="1.0" encoding="utf-8"?>
<!-- Generator: Adobe Illustrator 25.4.1, SVG Export Plug-In . SVG Version: 6.00 Build 0)  -->
<svg version="1.1" id="Layer_1" xmlns="http://www.w3.org/2000/svg" xmlns:xlink="http://www.w3.org/1999/xlink" x="0px" y="0px"
	 viewBox="0 0 336 280" style="enable-background:new 0 0 336 280;" xml:space="preserve">
<style type="text/css">
	.st0{fill:#490A09;}
</style>
<g>
	<path class="st0" d="M18.6,169.5h25.9v7.6h-17v4.9h15.4v7H27.4v5.1h17.3v7.6H18.6V169.5z"/>
	<path class="st0" d="M48.5,193.1v-16.3h8.7v13.5c0,2.7,1.4,4.2,3.5,4.2c2.1,0,3.6-1.5,3.6-4.2v-13.5h8.7v24.8h-8.7v-3.4
		c-1.6,2.1-3.9,3.9-7.4,3.9C51.7,202.2,48.5,198.7,48.5,193.1z"/>
	<path class="st0" d="M77.8,176.8h8.7v5c1.4-3.4,3.7-5.6,7.9-5.4v9.2h-0.7c-4.5,0-7.1,2.6-7.1,8.4v7.7h-8.7V176.8z"/>
	<path class="st0" d="M96,189.3L96,189.3c0-7.2,5.8-13.1,13.8-13.1c7.9,0,13.7,5.8,13.7,12.9v0.1c0,7.1-5.8,13-13.8,13
		C101.8,202.2,96,196.4,96,189.3z M115,189.3L115,189.3c0-3.1-2.2-5.7-5.3-5.7c-3.2,0-5.2,2.5-5.2,5.5v0.1c0,3,2.2,5.6,5.3,5.6
		C113,194.9,115,192.3,115,189.3z"/>
	<path class="st0" d="M127.2,176.8h8.7v3.3c1.7-2.1,3.8-3.9,7.5-3.9c5.9,0,11,4.9,11,12.9v0.1c0,8.1-5.1,13-11,13
		c-3.8,0-6-1.7-7.6-3.6V209h-8.7V176.8z M145.9,189.2L145.9,189.2c0-3.4-2.3-5.7-5.1-5.7c-2.8,0-5.1,2.3-5.1,5.6v0.1
		c0,3.3,2.3,5.6,5.1,5.6C143.6,194.9,145.9,192.6,145.9,189.2z"/>
	<path class="st0" d="M158.2,168.1h8.7v12.1c1.6-2.1,3.9-4,7.4-4c5.3,0,8.5,3.5,8.5,9.1v16.3h-8.7v-13.5c0-2.7-1.4-4.2-3.5-4.2
		c-2.1,0-3.7,1.5-3.7,4.2v13.5h-8.7V168.1z"/>
	<path class="st0" d="M187.3,168.1h9.1v6.4h-9.1V168.1z M187.5,176.8h8.7v24.8h-8.7V176.8z"/>
	<path class="st0" d="M201.3,168.1h8.7v33.5h-8.7V168.1z"/>
	<path class="st0" d="M213.9,189.3L213.9,189.3c0-7.3,5.2-13.1,12.5-13.1c8.6,0,12.5,6.3,12.5,13.6c0,0.6,0,1.2,0,1.8h-16.6
		c0.7,2.7,2.7,4.1,5.4,4.1c2.1,0,3.7-0.8,5.5-2.5l4.8,4c-2.4,3-5.8,5.1-10.8,5.1C219.4,202.2,213.9,197.1,213.9,189.3z M230.8,187.2
		c-0.3-2.8-1.9-4.5-4.3-4.5c-2.3,0-3.9,1.8-4.3,4.5H230.8z"/>
	<path class="st0" d="M242.1,192.7h9.1v9h-9.1V192.7z"/>
</g>
</svg>
