<?xml version="1.0" encoding="utf-8"?>
<!-- Generator: Adobe Illustrator 25.4.1, SVG Export Plug-In . SVG Version: 6.00 Build 0)  -->
<svg version="1.1" id="Layer_1" xmlns="http://www.w3.org/2000/svg" xmlns:xlink="http://www.w3.org/1999/xlink" x="0px" y="0px"
	 viewBox="0 0 336 280" style="enable-background:new 0 0 336 280;" xml:space="preserve">
<style type="text/css">
	.st0{fill:#490A09;}
</style>
<g>
	<path class="st0" d="M18.7,77h9v32.2h-9V77z"/>
	<path class="st0" d="M34.6,101.4V91.3h-2.9v-7h2.9V78h8.7v6.3h5.8v7h-5.8v8.4c0,1.7,0.8,2.5,2.4,2.5c1.1,0,2.3-0.3,3.3-0.8v6.8
		c-1.6,0.9-3.6,1.4-6.1,1.4C37.7,109.7,34.6,107.4,34.6,101.4z"/>
	<path class="st0" d="M51.6,102L51.6,102c0-5.2,3.9-7.9,9.7-7.9c2.3,0,4.5,0.5,6,1v-0.4c0-2.6-1.6-4-5-4c-2.6,0-4.6,0.5-6.8,1.4
		l-1.8-6.2c2.8-1.1,5.8-1.9,10.1-1.9c4.5,0,7.5,1.1,9.5,3c1.9,1.8,2.7,4.4,2.7,7.9v14.3h-8.6v-2.6c-1.7,1.9-4,3.1-7.3,3.1
		C55.2,109.7,51.6,107,51.6,102z M67.4,100.2V99c-0.9-0.4-2.1-0.6-3.4-0.6c-2.5,0-4,1.2-4,3.1v0.1c0,1.7,1.3,2.7,3.1,2.7
		C65.6,104.2,67.4,102.6,67.4,100.2z"/>
	<path class="st0" d="M80.6,75.6h8.7v33.5h-8.7V75.6z"/>
	<path class="st0" d="M93.1,96.8L93.1,96.8c0-7.2,5.8-13.1,13.8-13.1c7.9,0,13.7,5.8,13.7,12.9v0.1c0,7.1-5.8,13-13.8,13
		C98.9,109.8,93.1,103.9,93.1,96.8z M112.1,96.8L112.1,96.8c0-3.1-2.2-5.7-5.3-5.7c-3.2,0-5.2,2.5-5.2,5.5v0.1c0,3,2.2,5.6,5.3,5.6
		C110.1,102.4,112.1,99.8,112.1,96.8z"/>
	<path class="st0" d="M124.3,84.3h8.7v3.3c1.7-2.1,3.8-3.9,7.5-3.9c5.9,0,11,4.9,11,12.9v0.1c0,8.1-5.1,13-11,13
		c-3.8,0-6-1.7-7.6-3.6v10.4h-8.7V84.3z M143,96.8L143,96.8c0-3.4-2.3-5.7-5.1-5.7c-2.8,0-5.1,2.3-5.1,5.6v0.1
		c0,3.3,2.3,5.6,5.1,5.6C140.7,102.4,143,100.1,143,96.8z"/>
	<path class="st0" d="M155.3,75.6h8.7v12.1c1.6-2.1,3.9-4,7.4-4c5.3,0,8.5,3.5,8.5,9.1v16.3h-8.7V95.7c0-2.7-1.4-4.2-3.5-4.2
		c-2.1,0-3.7,1.5-3.7,4.2v13.5h-8.7V75.6z"/>
	<path class="st0" d="M184.4,75.6h9.1v6.4h-9.1V75.6z M184.6,84.3h8.7v24.8h-8.7V84.3z"/>
	<path class="st0" d="M198.4,75.6h8.7v33.5h-8.7V75.6z"/>
	<path class="st0" d="M211,96.8L211,96.8c0-7.3,5.2-13.1,12.5-13.1c8.6,0,12.5,6.3,12.5,13.6c0,0.6,0,1.2,0,1.8h-16.6
		c0.7,2.7,2.7,4.1,5.4,4.1c2.1,0,3.7-0.8,5.5-2.5l4.8,4c-2.4,3-5.8,5.1-10.8,5.1C216.5,109.8,211,104.6,211,96.8z M227.9,94.7
		c-0.3-2.8-1.9-4.5-4.3-4.5c-2.3,0-3.9,1.8-4.3,4.5H227.9z"/>
	<path class="st0" d="M239.2,100.2h9.1v9h-9.1V100.2z"/>
</g>
</svg>
