<?xml version="1.0" encoding="utf-8"?>
<!-- Generator: Adobe Illustrator 25.4.1, SVG Export Plug-In . SVG Version: 6.00 Build 0)  -->
<svg version="1.1" id="Layer_1" xmlns="http://www.w3.org/2000/svg" xmlns:xlink="http://www.w3.org/1999/xlink" x="0px" y="0px"
	 viewBox="0 0 336 280" style="enable-background:new 0 0 336 280;" xml:space="preserve">
<style type="text/css">
	.st0{fill:#490A09;}
</style>
<g>
	<path class="st0" d="M19.2,108.3h9.4l5.6,18.6l6.2-18.7h7.7l6.2,18.7l5.6-18.6h9.2l-10.7,32.4h-7.8l-6.5-18.5l-6.4,18.5h-7.8
		L19.2,108.3z"/>
	<path class="st0" d="M68.1,128.2L68.1,128.2c0-7.3,5.2-13.1,12.5-13.1c8.6,0,12.5,6.3,12.5,13.6c0,0.6,0,1.2,0,1.8H76.5
		c0.7,2.7,2.7,4.1,5.4,4.1c2.1,0,3.7-0.8,5.5-2.5l4.8,4c-2.4,3-5.8,5.1-10.8,5.1C73.6,141.1,68.1,135.9,68.1,128.2z M85,126
		c-0.3-2.8-1.9-4.5-4.3-4.5c-2.3,0-3.9,1.8-4.3,4.5H85z"/>
	<path class="st0" d="M109.6,107h8.7V119c1.6-2.1,3.9-4,7.4-4c5.3,0,8.5,3.5,8.5,9.1v16.3h-8.7V127c0-2.7-1.4-4.2-3.5-4.2
		c-2.1,0-3.7,1.5-3.7,4.2v13.5h-8.7V107z"/>
	<path class="st0" d="M137.5,133.4L137.5,133.4c0-5.2,3.9-7.9,9.7-7.9c2.3,0,4.5,0.5,6,1V126c0-2.6-1.6-4-5-4
		c-2.6,0-4.6,0.5-6.8,1.4l-1.8-6.2c2.8-1.1,5.8-1.9,10.1-1.9c4.5,0,7.5,1.1,9.5,3c1.9,1.8,2.7,4.4,2.7,7.9v14.3h-8.6v-2.6
		c-1.7,1.9-4,3.1-7.3,3.1C141.1,141,137.5,138.3,137.5,133.4z M153.3,131.5v-1.1c-0.9-0.4-2.1-0.6-3.4-0.6c-2.5,0-4,1.2-4,3.1v0.1
		c0,1.7,1.3,2.7,3.1,2.7C151.5,135.6,153.3,134,153.3,131.5z"/>
	<path class="st0" d="M163.1,115.6h9.2l4.8,14.5l4.8-14.5h9l-9.9,25H173L163.1,115.6z"/>
	<path class="st0" d="M191.2,128.2L191.2,128.2c0-7.3,5.2-13.1,12.5-13.1c8.6,0,12.5,6.3,12.5,13.6c0,0.6,0,1.2,0,1.8h-16.6
		c0.7,2.7,2.7,4.1,5.4,4.1c2.1,0,3.7-0.8,5.5-2.5l4.8,4c-2.4,3-5.8,5.1-10.8,5.1C196.7,141.1,191.2,135.9,191.2,128.2z M208.1,126
		c-0.3-2.8-1.9-4.5-4.3-4.5c-2.3,0-3.9,1.8-4.3,4.5H208.1z"/>
</g>
<g>
	<path class="st0" d="M20.2,183.8l2.7-6.1c1.4,0.8,2.8,1.3,3.8,1.3c0.9,0,1.5-0.2,2-1L19,153.6h9.1l5,15l4.7-15h9l-9.1,24.3
		c-2.2,5.8-4.5,8.1-9.5,8.1C25.1,186,22.5,185.1,20.2,183.8z"/>
	<path class="st0" d="M47.2,166.2L47.2,166.2c0-7.2,5.8-13.1,13.8-13.1c7.9,0,13.7,5.8,13.7,12.9v0.1c0,7.1-5.8,13-13.8,13
		C53,179.1,47.2,173.2,47.2,166.2z M66.2,166.2L66.2,166.2c0-3.1-2.2-5.7-5.3-5.7c-3.2,0-5.2,2.5-5.2,5.5v0.1c0,3,2.2,5.6,5.3,5.6
		C64.2,171.7,66.2,169.2,66.2,166.2z"/>
	<path class="st0" d="M78.2,169.9v-16.3h8.7v13.5c0,2.7,1.4,4.2,3.5,4.2c2.1,0,3.6-1.5,3.6-4.2v-13.5h8.7v24.8h-8.7v-3.4
		c-1.6,2.1-3.9,3.9-7.4,3.9C81.4,179,78.2,175.5,78.2,169.9z"/>
	<path class="st0" d="M107.5,153.6h8.7v5c1.4-3.4,3.7-5.6,7.9-5.4v9.2h-0.7c-4.5,0-7.1,2.6-7.1,8.4v7.7h-8.7V153.6z"/>
	<path class="st0" d="M148.2,154.1h-9.6v-7.8h28.2v7.8h-9.6v24.3h-8.9V154.1z"/>
	<path class="st0" d="M168.1,146.3h10l7.3,20.3l7.3-20.3h9.8l-13,32.4h-8.3L168.1,146.3z"/>
	<path class="st0" d="M199.2,169.5h9.1v9h-9.1V169.5z"/>
</g>
</svg>
