<?xml version="1.0" encoding="utf-8"?>
<!-- Generator: Adobe Illustrator 25.4.1, SVG Export Plug-In . SVG Version: 6.00 Build 0)  -->
<svg version="1.1" id="Layer_1" xmlns="http://www.w3.org/2000/svg" xmlns:xlink="http://www.w3.org/1999/xlink" x="0px" y="0px"
	 viewBox="0 0 336 280" style="enable-background:new 0 0 336 280;" xml:space="preserve">
<style type="text/css">
	.st0{fill:#FFFFFF;}
</style>
<g>
	<path class="st0" d="M28.7,94.1h-9.6v-7.8h28.2v7.8h-9.6v24.3h-8.9V94.1z"/>
	<path class="st0" d="M50.7,85h8.7V97c1.6-2.1,3.9-4,7.4-4c5.3,0,8.5,3.5,8.5,9.1v16.3h-8.7V105c0-2.7-1.4-4.2-3.5-4.2
		c-2.1,0-3.7,1.5-3.7,4.2v13.5h-8.7V85z"/>
	<path class="st0" d="M78.8,106.2L78.8,106.2c0-7.3,5.2-13.1,12.5-13.1c8.6,0,12.5,6.3,12.5,13.6c0,0.6,0,1.2,0,1.8H87.2
		c0.7,2.7,2.7,4.1,5.4,4.1c2.1,0,3.7-0.8,5.5-2.5l4.8,4c-2.4,3-5.8,5.1-10.8,5.1C84.3,119.1,78.8,113.9,78.8,106.2z M95.7,104
		c-0.3-2.8-1.9-4.5-4.3-4.5c-2.3,0-3.9,1.8-4.3,4.5H95.7z"/>
	<path class="st0" d="M118.7,86.3h9.4l5.6,18.6l6.2-18.7h7.7l6.2,18.7l5.6-18.6h9.2l-10.7,32.4h-7.8l-6.5-18.5l-6.4,18.5h-7.8
		L118.7,86.3z"/>
	<path class="st0" d="M167.6,106.2L167.6,106.2c0-7.2,5.8-13.1,13.8-13.1c7.9,0,13.7,5.8,13.7,12.9v0.1c0,7.1-5.8,13-13.8,13
		C173.3,119.1,167.6,113.2,167.6,106.2z M186.5,106.2L186.5,106.2c0-3.1-2.2-5.7-5.3-5.7c-3.2,0-5.2,2.5-5.2,5.5v0.1
		c0,3,2.2,5.6,5.3,5.6C184.5,111.7,186.5,109.2,186.5,106.2z"/>
	<path class="st0" d="M198.7,93.6h8.7v5c1.4-3.4,3.7-5.6,7.9-5.4v9.2h-0.7c-4.5,0-7.1,2.6-7.1,8.4v7.7h-8.7V93.6z"/>
	<path class="st0" d="M218.5,85h8.7v33.5h-8.7V85z"/>
	<path class="st0" d="M231.2,106.2L231.2,106.2c0-8.2,5.1-13.1,10.9-13.1c3.8,0,6,1.7,7.6,3.6V85h8.7v33.5h-8.7v-3.3
		c-1.7,2.1-3.9,3.9-7.6,3.9C236.3,119,231.2,114.1,231.2,106.2z M249.9,106.1L249.9,106.1c0-3.4-2.3-5.7-5.1-5.7s-5.1,2.3-5.1,5.6
		v0.1c0,3.3,2.3,5.6,5.1,5.6S249.9,109.4,249.9,106.1z"/>
	<path class="st0" d="M261.9,99.6c3.1-0.3,4.7-1.8,4.6-4.3H263v-9h9v7.3c0,6.8-3.7,9.1-9.4,9.3L261.9,99.6z"/>
	<path class="st0" d="M274,115.4l3.3-5.3c2.8,1.9,6,2.8,8.5,2.8c1.5,0,2.2-0.5,2.2-1.3v-0.1c0-1-1.4-1.4-4-2.1
		c-4.9-1.3-8.8-2.9-8.8-7.9v-0.1c0-5.3,4.2-8.2,10-8.2c3.6,0,7.4,1.1,10.2,2.9l-3,5.5c-2.6-1.4-5.4-2.3-7.3-2.3c-1.3,0-2,0.5-2,1.2
		v0.1c0,1,1.4,1.4,4,2.2c4.9,1.4,8.8,3.1,8.8,7.9v0.1c0,5.5-4.1,8.3-10.2,8.3C281.6,119,277.5,117.8,274,115.4z"/>
</g>
<g>
	<path class="st0" d="M20.9,129.3h16.5c4,0,6.9,1,8.8,2.9c1.3,1.3,2.1,3,2.1,5.2v0.1c0,3.7-2.1,5.9-5,7.2c3.9,1.3,6.4,3.5,6.4,7.9
		v0.1c0,5.5-4.5,8.9-12.2,8.9H20.9V129.3z M35.2,142.1c2.7,0,4.2-0.9,4.2-2.8v-0.1c0-1.7-1.4-2.8-4-2.8h-5.8v5.6H35.2z M36.5,154.3
		c2.7,0,4.3-1.1,4.3-2.9v-0.1c0-1.7-1.4-2.9-4.4-2.9h-6.8v5.9H36.5z"/>
	<path class="st0" d="M52.2,149.2L52.2,149.2c0-7.3,5.2-13.1,12.5-13.1c8.6,0,12.5,6.3,12.5,13.6c0,0.6,0,1.2,0,1.8H60.6
		c0.7,2.7,2.7,4.1,5.4,4.1c2.1,0,3.7-0.8,5.5-2.5l4.8,4c-2.4,3-5.8,5.1-10.8,5.1C57.7,162.1,52.2,156.9,52.2,149.2z M69.1,147
		c-0.3-2.8-1.9-4.5-4.3-4.5c-2.3,0-3.9,1.8-4.3,4.5H69.1z"/>
	<path class="st0" d="M79.1,158.3l3.3-5.3c2.8,1.9,6,2.8,8.5,2.8c1.5,0,2.2-0.5,2.2-1.3v-0.1c0-1-1.4-1.4-4-2.1
		c-4.9-1.3-8.8-2.9-8.8-7.9v-0.1c0-5.3,4.2-8.2,10-8.2c3.6,0,7.4,1.1,10.2,2.9l-3,5.5c-2.6-1.4-5.4-2.3-7.3-2.3c-1.3,0-2,0.5-2,1.2
		v0.1c0,1,1.4,1.4,4,2.2c4.9,1.4,8.8,3.1,8.8,7.9v0.1c0,5.5-4.1,8.3-10.1,8.3C86.7,162,82.6,160.8,79.1,158.3z"/>
	<path class="st0" d="M105.7,153.8v-10.1h-2.9v-7h2.9v-6.3h8.7v6.3h5.8v7h-5.8v8.4c0,1.7,0.8,2.5,2.4,2.5c1.1,0,2.3-0.3,3.3-0.8v6.8
		c-1.6,0.9-3.6,1.4-6.1,1.4C108.8,162,105.7,159.7,105.7,153.8z"/>
	<path class="st0" d="M145.1,137.1h-9.6v-7.8h28.2v7.8H154v24.3h-8.9V137.1z"/>
	<path class="st0" d="M165,129.3h10l7.3,20.3l7.3-20.3h9.8l-13,32.4H178L165,129.3z"/>
</g>
<g>
	<path class="st0" d="M20.6,171h8.7v33.5h-8.7V171z"/>
	<path class="st0" d="M34.2,171h9.1v6.4h-9.1V171z M34.3,179.6h8.7v24.8h-8.7V179.6z"/>
	<path class="st0" d="M46.1,179.6h9.2l4.8,14.5l4.8-14.5h9l-9.9,25H56L46.1,179.6z"/>
	<path class="st0" d="M74.2,192.2L74.2,192.2c0-7.3,5.2-13.1,12.5-13.1c8.6,0,12.5,6.3,12.5,13.6c0,0.6,0,1.2,0,1.8H82.6
		c0.7,2.7,2.7,4.1,5.4,4.1c2.1,0,3.7-0.8,5.5-2.5l4.8,4c-2.4,3-5.8,5.1-10.8,5.1C79.7,205.1,74.2,199.9,74.2,192.2z M91.1,190
		c-0.3-2.8-1.9-4.5-4.3-4.5c-2.3,0-3.9,1.8-4.3,4.5H91.1z"/>
	<path class="st0" d="M101.1,201.4l3.3-5.3c2.8,1.9,6,2.8,8.5,2.8c1.5,0,2.2-0.5,2.2-1.3v-0.1c0-1-1.4-1.4-4-2.1
		c-4.9-1.3-8.8-2.9-8.8-7.9v-0.1c0-5.3,4.2-8.2,10-8.2c3.6,0,7.4,1.1,10.2,2.9l-3,5.5c-2.6-1.4-5.4-2.3-7.3-2.3c-1.3,0-2,0.5-2,1.2
		v0.1c0,1,1.4,1.4,4,2.2c4.9,1.4,8.8,3.1,8.8,7.9v0.1c0,5.5-4.1,8.3-10.1,8.3C108.7,205,104.5,203.8,101.1,201.4z"/>
	<path class="st0" d="M139.3,171h8.7V183c1.6-2.1,3.9-3.9,7.4-3.9c5.3,0,8.5,3.5,8.5,9.1v16.3h-8.7V191c0-2.7-1.4-4.2-3.5-4.2
		c-2.1,0-3.7,1.5-3.7,4.2v13.5h-8.7V171z"/>
	<path class="st0" d="M167.4,192.2L167.4,192.2c0-7.3,5.2-13.1,12.5-13.1c8.6,0,12.5,6.3,12.5,13.6c0,0.6,0,1.2,0,1.8h-16.6
		c0.7,2.7,2.7,4.1,5.4,4.1c2.1,0,3.7-0.8,5.5-2.5l4.8,4c-2.4,3-5.8,5.1-10.8,5.1C172.9,205.1,167.4,199.9,167.4,192.2z M184.3,190
		c-0.3-2.8-1.9-4.5-4.3-4.5c-2.3,0-3.9,1.8-4.3,4.5H184.3z"/>
	<path class="st0" d="M196.2,179.6h8.7v5c1.4-3.4,3.7-5.6,7.9-5.4v9.2H212c-4.5,0-7.1,2.6-7.1,8.4v7.7h-8.7V179.6z"/>
	<path class="st0" d="M214.4,192.2L214.4,192.2c0-7.3,5.2-13.1,12.5-13.1c8.6,0,12.5,6.3,12.5,13.6c0,0.6,0,1.2,0,1.8h-16.6
		c0.7,2.7,2.7,4.1,5.4,4.1c2.1,0,3.7-0.8,5.5-2.5l4.8,4c-2.4,3-5.8,5.1-10.8,5.1C219.9,205.1,214.4,199.9,214.4,192.2z M231.3,190
		c-0.3-2.8-1.9-4.5-4.3-4.5c-2.3,0-3.9,1.8-4.3,4.5H231.3z"/>
	<path class="st0" d="M242.6,195.5h9.1v9h-9.1V195.5z"/>
</g>
</svg>
