<?xml version="1.0" encoding="utf-8"?>
<!-- Generator: Adobe Illustrator 25.4.1, SVG Export Plug-In . SVG Version: 6.00 Build 0)  -->
<svg version="1.1" id="Layer_1" xmlns="http://www.w3.org/2000/svg" xmlns:xlink="http://www.w3.org/1999/xlink" x="0px" y="0px"
	 viewBox="0 0 336 280" style="enable-background:new 0 0 336 280;" xml:space="preserve">
<style type="text/css">
	.st0{fill:#490A09;}
</style>
<g>
	<path class="st0" d="M18.6,123.3h25.7v7.8H27.5v5.5h15.2v7.4H27.5v11.5h-8.9V123.3z"/>
	<path class="st0" d="M47.8,130.6h8.7v5c1.4-3.4,3.7-5.6,7.9-5.4v9.2h-0.7c-4.5,0-7.1,2.6-7.1,8.4v7.7h-8.7V130.6z"/>
	<path class="st0" d="M65.1,148.3L65.1,148.3c0-5.2,3.9-7.9,9.7-7.9c2.3,0,4.5,0.5,6,1v-0.4c0-2.6-1.6-4-5-4c-2.6,0-4.6,0.5-6.8,1.4
		l-1.8-6.2c2.8-1.1,5.8-1.9,10.1-1.9c4.5,0,7.5,1.1,9.5,3c1.9,1.8,2.7,4.4,2.7,7.9v14.3h-8.6v-2.6c-1.7,1.9-4,3.1-7.3,3.1
		C68.7,156,65.1,153.2,65.1,148.3z M80.9,146.4v-1.1c-0.9-0.4-2.1-0.6-3.4-0.6c-2.5,0-4,1.2-4,3.1v0.1c0,1.7,1.3,2.7,3.1,2.7
		C79.1,150.5,80.9,148.9,80.9,146.4z"/>
	<path class="st0" d="M93.9,130.6h8.7v3.5c1.6-2.1,3.9-4,7.4-4c5.3,0,8.5,3.5,8.5,9.1v16.3h-8.7v-13.5c0-2.7-1.4-4.2-3.5-4.2
		c-2.1,0-3.7,1.5-3.7,4.2v13.5h-8.7V130.6z"/>
	<path class="st0" d="M122,143.1L122,143.1c0-7.1,5.5-13,13.3-13c5.1,0,8.5,2.2,10.6,5.6L140,140c-1.2-1.7-2.5-2.6-4.6-2.6
		c-2.8,0-4.9,2.5-4.9,5.5v0.1c0,3.2,2,5.6,5,5.6c2.1,0,3.4-1,4.8-2.6l5.8,4.2c-2.3,3.4-5.6,5.7-11.1,5.7
		C127.5,156,122,150.1,122,143.1z"/>
	<path class="st0" d="M147.5,143.1L147.5,143.1c0-7.2,5.8-13.1,13.8-13.1c7.9,0,13.7,5.8,13.7,12.9v0.1c0,7.1-5.8,13-13.8,13
		C153.2,156,147.5,150.2,147.5,143.1z M166.4,143.1L166.4,143.1c0-3.1-2.2-5.7-5.3-5.7c-3.2,0-5.2,2.5-5.2,5.5v0.1
		c0,3,2.2,5.6,5.3,5.6C164.4,148.6,166.4,146.1,166.4,143.1z"/>
	<path class="st0" d="M178.6,130.6h8.7v3.3c1.7-2.1,3.8-3.9,7.5-3.9c5.9,0,11,4.9,11,12.9v0.1c0,8.1-5.1,13-11,13
		c-3.8,0-6-1.7-7.6-3.6v10.4h-8.7V130.6z M197.3,143L197.3,143c0-3.4-2.2-5.7-5.1-5.7c-2.8,0-5.1,2.3-5.1,5.6v0.1
		c0,3.3,2.3,5.6,5.1,5.6C195,148.7,197.3,146.4,197.3,143z"/>
	<path class="st0" d="M209.6,121.9h8.7V134c1.6-2.1,3.9-4,7.4-4c5.3,0,8.5,3.5,8.5,9.1v16.3h-8.7v-13.5c0-2.7-1.4-4.2-3.5-4.2
		c-2.1,0-3.7,1.5-3.7,4.2v13.5h-8.7V121.9z"/>
	<path class="st0" d="M238.8,121.9h9.1v6.4h-9.1V121.9z M238.9,130.6h8.7v24.8h-8.7V130.6z"/>
	<path class="st0" d="M252.7,121.9h8.7v33.5h-8.7V121.9z"/>
	<path class="st0" d="M265.3,143.1L265.3,143.1c0-7.3,5.2-13.1,12.5-13.1c8.6,0,12.5,6.3,12.5,13.6c0,0.6,0,1.2,0,1.8h-16.6
		c0.7,2.7,2.7,4.1,5.4,4.1c2.1,0,3.7-0.8,5.5-2.5l4.8,4c-2.4,3-5.8,5.1-10.8,5.1C270.8,156,265.3,150.8,265.3,143.1z M282.2,140.9
		c-0.3-2.8-1.9-4.5-4.3-4.5c-2.3,0-3.9,1.8-4.3,4.5H282.2z"/>
	<path class="st0" d="M293.5,146.4h9.1v9h-9.1V146.4z"/>
</g>
</svg>
