<?xml version="1.0" encoding="utf-8"?>
<!-- Generator: Adobe Illustrator 25.4.1, SVG Export Plug-In . SVG Version: 6.00 Build 0)  -->
<svg version="1.1" id="Layer_1" xmlns="http://www.w3.org/2000/svg" xmlns:xlink="http://www.w3.org/1999/xlink" x="0px" y="0px"
	 viewBox="0 0 336 280" style="enable-background:new 0 0 336 280;" xml:space="preserve">
<style type="text/css">
	.st0{clip-path:url(#SVGID_00000119807787253194927910000001738198432275932351_);fill:#AC1F2D;}
	.st1{clip-path:url(#SVGID_00000119807787253194927910000001738198432275932351_);fill:#FFFFFF;}
</style>
<g>
	<defs>
		<rect id="SVGID_1_" x="17.9" y="10.6" width="50.1" height="55.2"/>
	</defs>
	<clipPath id="SVGID_00000019645666465922759800000007743966157738431934_">
		<use xlink:href="#SVGID_1_"  style="overflow:visible;"/>
	</clipPath>
	<path style="clip-path:url(#SVGID_00000019645666465922759800000007743966157738431934_);fill:#AC1F2D;" d="M64.5,37.7
		c0,12.8-10.4,23.2-23.2,23.2S18.2,50.5,18.2,37.7c0-12.8,10.4-23.2,23.2-23.2S64.5,24.9,64.5,37.7"/>
	<path style="clip-path:url(#SVGID_00000019645666465922759800000007743966157738431934_);fill:#FFFFFF;" d="M50.6,33.4v2.6h3
		L50,41.6h8.8v-2.7h-3.8l3.4-5.5H50.6z M33.3,30.1l-2.8,6.3l-2.8-6.3h-3.9v11.5h3.2v-6.1l2.8,6.1h1.4l2.8-6.3v6.3h3.2V30.1H33.3z
		 M46.1,30.1v4.1H42v-4.1h-3.6v11.5H42v-4.6h4.1v4.6h3.6V30.1H46.1z"/>
	<path style="clip-path:url(#SVGID_00000019645666465922759800000007743966157738431934_);fill:#FFFFFF;" d="M50.3,46.4h3.1v-0.9h-2
		v-0.6h1.8V44h-1.8v-0.6h2v-0.9h-3.1V46.4z M47.9,46.4c0.8,0,1.3-0.4,1.7-0.9L48.8,45c-0.2,0.3-0.5,0.5-0.9,0.5
		c-0.5,0-0.9-0.4-0.9-1v0c0-0.6,0.4-1,0.9-1c0.4,0,0.6,0.2,0.8,0.4l0.8-0.6c-0.3-0.5-0.8-0.8-1.6-0.8c-1.2,0-2,0.9-2,2v0
		C45.9,45.6,46.8,46.4,47.9,46.4 M44,46.4H45v-3.8H44V46.4z M41,45.5c-0.6,0-1-0.5-1-1v0c0-0.6,0.4-1,1-1c0.6,0,1,0.5,1,1v0
		C42,45,41.6,45.5,41,45.5 M41,46.4c1.2,0,2.1-0.9,2.1-2v0c0-1.1-0.9-2-2-2c-1.2,0-2.1,0.9-2.1,2v0C39,45.6,39.8,46.4,41,46.4
		 M34.6,46.4h1.1v-1.4H37v1.4h1.1v-3.8H37V44h-1.4v-1.4h-1.1V46.4z M32.2,46.4c0.8,0,1.3-0.4,1.7-0.9L33,45
		c-0.2,0.3-0.5,0.5-0.9,0.5c-0.5,0-0.9-0.4-0.9-1v0c0-0.6,0.4-1,0.9-1c0.4,0,0.6,0.2,0.8,0.4l0.8-0.6c-0.3-0.5-0.8-0.8-1.6-0.8
		c-1.2,0-2,0.9-2,2v0C30.2,45.6,31.1,46.4,32.2,46.4"/>
</g>
</svg>
