<?xml version="1.0" encoding="utf-8"?>
<!-- Generator: Adobe Illustrator 25.4.1, SVG Export Plug-In . SVG Version: 6.00 Build 0)  -->
<svg version="1.1" id="Layer_1" xmlns="http://www.w3.org/2000/svg" xmlns:xlink="http://www.w3.org/1999/xlink" x="0px" y="0px"
	 viewBox="0 0 300 250" style="enable-background:new 0 0 300 250;" xml:space="preserve">
<style type="text/css">
	.st0{fill:#461211;}
</style>
<g>
	<path class="st0" d="M16.9,146.4l3.5-4.2c2.3,1.8,4.8,2.7,7.4,2.7c1.7,0,2.6-0.6,2.6-1.6v-0.1c0-0.9-0.8-1.5-3.8-2.2
		c-4.9-1.1-8.6-2.5-8.6-7.2v-0.1c0-4.2,3.4-7.3,8.8-7.3c3.9,0,6.9,1,9.4,3l-3.2,4.5c-2.1-1.5-4.4-2.3-6.4-2.3
		c-1.5,0-2.3,0.7-2.3,1.5v0.1c0,1,0.8,1.5,3.9,2.2c5.3,1.1,8.5,2.8,8.5,7.1v0.1c0,4.7-3.7,7.4-9.2,7.4
		C23.6,150.2,19.7,149,16.9,146.4z"/>
	<path class="st0" d="M38.9,141.1L38.9,141.1c0-5.2,3.7-9.3,8.9-9.3c6.1,0,8.9,4.5,8.9,9.7c0,0.4,0,0.8,0,1.3H44.8
		c0.5,1.9,1.9,2.9,3.8,2.9c1.5,0,2.6-0.6,3.9-1.8l3.4,2.8c-1.7,2.2-4.1,3.6-7.7,3.6C42.8,150.3,38.9,146.6,38.9,141.1z M50.9,139.6
		c-0.2-2-1.4-3.2-3.1-3.2c-1.6,0-2.7,1.3-3.1,3.2H50.9z"/>
	<path class="st0" d="M58.4,144.8L58.4,144.8c0-3.7,2.8-5.6,6.9-5.6c1.6,0,3.2,0.3,4.2,0.7v-0.3c0-1.8-1.1-2.9-3.5-2.9
		c-1.9,0-3.3,0.4-4.9,1l-1.3-4.4c2-0.8,4.1-1.4,7.1-1.4c3.2,0,5.3,0.8,6.7,2.2c1.3,1.3,1.9,3.1,1.9,5.6v10.1h-6.1V148
		c-1.2,1.3-2.9,2.2-5.2,2.2C61,150.2,58.4,148.3,58.4,144.8z M69.7,143.4v-0.8c-0.6-0.3-1.5-0.5-2.4-0.5c-1.8,0-2.8,0.9-2.8,2.2v0.1
		c0,1.2,0.9,1.9,2.2,1.9C68.4,146.3,69.7,145.2,69.7,143.4z"/>
	<path class="st0" d="M77.5,147.6l2.3-3.8c2,1.3,4.2,2,6.1,2c1.1,0,1.6-0.3,1.6-0.9v-0.1c0-0.7-1-1-2.8-1.5
		c-3.5-0.9-6.3-2.1-6.3-5.6v-0.1c0-3.8,3-5.8,7.1-5.8c2.6,0,5.3,0.8,7.3,2.1l-2.1,3.9c-1.8-1-3.8-1.6-5.2-1.6
		c-0.9,0-1.4,0.4-1.4,0.8v0.1c0,0.7,1,1,2.9,1.6c3.5,1,6.3,2.2,6.3,5.6v0.1c0,3.9-2.9,5.9-7.2,5.9C82.9,150.2,80,149.4,77.5,147.6z"
		/>
	<path class="st0" d="M94.9,141.1L94.9,141.1c0-5.1,4.1-9.3,9.8-9.3c5.6,0,9.7,4.1,9.7,9.2v0.1c0,5-4.1,9.2-9.8,9.2
		C99,150.3,94.9,146.1,94.9,141.1z M108.4,141.1L108.4,141.1c0-2.2-1.6-4-3.8-4c-2.3,0-3.7,1.8-3.7,3.9v0.1c0,2.2,1.6,4,3.8,4
		C106.9,145,108.4,143.2,108.4,141.1z"/>
	<path class="st0" d="M117,132.2h6.2v2.5c1.1-1.5,2.8-2.9,5.3-2.9c3.8,0,6,2.5,6,6.5v11.5h-6.2v-9.6c0-1.9-1-3-2.5-3
		c-1.5,0-2.6,1-2.6,3v9.6H117V132.2z"/>
	<path class="st0" d="M150.4,132.7l-3.8,0.9l-1.2-4.9l6.7-1.9h4.6v23h-6.2V132.7z"/>
	<path class="st0" d="M170.7,137.1h-2.1v-4.9h2.1v-0.4c0-2,0.5-3.5,1.5-4.6c1.1-1.1,2.5-1.5,4.6-1.5c1.9,0,3.1,0.2,4,0.5v4.4
		c-0.7-0.2-1.4-0.4-2.3-0.4c-1.1,0-1.8,0.5-1.8,1.7v0.4h4v4.8h-3.9v12.7h-6.2V137.1z"/>
	<path class="st0" d="M182.7,132.2h6.2v3.6c1-2.4,2.6-4,5.6-3.8v6.5H194c-3.2,0-5.1,1.9-5.1,5.9v5.5h-6.2V132.2z"/>
	<path class="st0" d="M195.7,141.1L195.7,141.1c0-5.2,3.7-9.3,8.9-9.3c6.1,0,8.9,4.5,8.9,9.7c0,0.4,0,0.8,0,1.3h-11.8
		c0.5,1.9,1.9,2.9,3.8,2.9c1.5,0,2.6-0.6,3.9-1.8l3.4,2.8c-1.7,2.2-4.1,3.6-7.7,3.6C199.6,150.3,195.7,146.6,195.7,141.1z
		 M207.7,139.6c-0.2-2-1.4-3.2-3.1-3.2c-1.6,0-2.7,1.3-3.1,3.2H207.7z"/>
	<path class="st0" d="M215.4,141.1L215.4,141.1c0-5.2,3.7-9.3,8.9-9.3c6.1,0,8.9,4.5,8.9,9.7c0,0.4,0,0.8,0,1.3h-11.8
		c0.5,1.9,1.9,2.9,3.8,2.9c1.5,0,2.6-0.6,3.9-1.8l3.4,2.8c-1.7,2.2-4.1,3.6-7.7,3.6C219.3,150.3,215.4,146.6,215.4,141.1z
		 M227.4,139.6c-0.2-2-1.4-3.2-3.1-3.2c-1.6,0-2.7,1.3-3.1,3.2H227.4z"/>
	<path class="st0" d="M244.2,141.1L244.2,141.1c0-5.1,4.1-9.3,9.8-9.3c5.6,0,9.7,4.1,9.7,9.2v0.1c0,5-4.1,9.2-9.8,9.2
		C248.3,150.3,244.2,146.1,244.2,141.1z M257.7,141.1L257.7,141.1c0-2.2-1.6-4-3.8-4c-2.3,0-3.7,1.8-3.7,3.9v0.1c0,2.2,1.6,4,3.8,4
		C256.2,145,257.7,143.2,257.7,141.1z"/>
	<path class="st0" d="M266.3,132.2h6.2v2.5c1.1-1.5,2.8-2.9,5.3-2.9c3.8,0,6,2.5,6,6.5v11.5h-6.2v-9.6c0-1.9-1-3-2.5-3
		c-1.5,0-2.6,1-2.6,3v9.6h-6.2V132.2z"/>
</g>
<g>
	<path class="st0" d="M18.7,160.3h6.7l5.4,8.8l5.4-8.8h6.7v22.8h-6.3V170l-5.8,8.9h-0.1l-5.8-8.9v13h-6.2V160.3z"/>
	<path class="st0" d="M47,160.3h6.3v8.5h8.1v-8.5h6.3v22.8h-6.3v-8.7h-8.1v8.7H47V160.3z"/>
	<path class="st0" d="M70.8,179.1l8.2-8.6h-7.9v-4.9h16.1v4.1l-8.2,8.6h8.2v4.9H70.8V179.1z"/>
	<path class="st0" d="M98.4,171.8L98.4,171.8c0-6.7,5.1-11.9,12-11.9c4.7,0,7.7,2,9.7,4.8l-4.8,3.7c-1.3-1.6-2.8-2.7-5-2.7
		c-3.2,0-5.4,2.7-5.4,6v0.1c0,3.4,2.3,6.1,5.4,6.1c2.4,0,3.8-1.1,5.2-2.8l4.8,3.4c-2.2,3-5.1,5.2-10.1,5.2
		C103.7,183.6,98.4,178.6,98.4,171.8z"/>
	<path class="st0" d="M122.7,159.3h6.2v8.6c1.1-1.5,2.8-2.8,5.3-2.8c3.8,0,6,2.5,6,6.5v11.5H134v-9.6c0-1.9-1-3-2.5-3
		c-1.5,0-2.6,1-2.6,3v9.6h-6.2V159.3z"/>
	<path class="st0" d="M142.6,174.4L142.6,174.4c0-5.1,4.1-9.3,9.8-9.3c5.6,0,9.7,4.1,9.7,9.2v0.1c0,5-4.1,9.2-9.8,9.2
		C146.7,183.6,142.6,179.4,142.6,174.4z M156.1,174.4L156.1,174.4c0-2.2-1.6-4-3.8-4c-2.3,0-3.7,1.8-3.7,3.9v0.1c0,2.2,1.6,4,3.8,4
		C154.7,178.3,156.1,176.5,156.1,174.4z"/>
	<path class="st0" d="M164.8,159.3h6.5v4.6h-6.5V159.3z M164.9,165.5h6.2v17.6h-6.2V165.5z"/>
	<path class="st0" d="M173.8,174.4L173.8,174.4c0-5.1,3.9-9.3,9.5-9.3c3.6,0,6,1.6,7.5,3.9l-4.2,3.1c-0.8-1.2-1.8-1.9-3.3-1.9
		c-2,0-3.5,1.8-3.5,3.9v0.1c0,2.3,1.4,4,3.5,4c1.5,0,2.4-0.7,3.4-1.8l4.1,3c-1.6,2.4-4,4-7.9,4C177.8,183.6,173.8,179.4,173.8,174.4
		z"/>
	<path class="st0" d="M191.9,174.4L191.9,174.4c0-5.2,3.7-9.3,8.9-9.3c6.1,0,8.9,4.5,8.9,9.7c0,0.4,0,0.8,0,1.3h-11.8
		c0.5,1.9,1.9,2.9,3.8,2.9c1.5,0,2.6-0.6,3.9-1.8l3.4,2.8c-1.7,2.2-4.1,3.6-7.7,3.6C195.9,183.6,191.9,179.9,191.9,174.4z
		 M204,172.9c-0.2-2-1.4-3.2-3.1-3.2c-1.6,0-2.7,1.3-3.1,3.2H204z"/>
	<path class="st0" d="M212,176.8h6.5v6.4H212V176.8z"/>
</g>
</svg>
