<?xml version="1.0" encoding="utf-8"?>
<!-- Generator: Adobe Illustrator 25.4.1, SVG Export Plug-In . SVG Version: 6.00 Build 0)  -->
<svg version="1.1" id="Layer_1" xmlns="http://www.w3.org/2000/svg" xmlns:xlink="http://www.w3.org/1999/xlink" x="0px" y="0px"
	 viewBox="0 0 300 250" style="enable-background:new 0 0 300 250;" xml:space="preserve">
<style type="text/css">
	.st0{fill:#461211;}
</style>
<g>
	<path class="st0" d="M30,88.3h7.7l12.2,28.9h-8.5l-2.1-5.1H28.2l-2.1,5.1h-8.4L30,88.3z M37,105.9l-3.2-8.2l-3.2,8.2H37z"/>
	<path class="st0" d="M71.4,114.5v2.7h-7.8V87.3h7.8V98c1.5-1.8,3.4-3.4,6.7-3.4c5.3,0,9.8,4.4,9.8,11.5v0.1
		c0,7.2-4.6,11.6-9.8,11.6C74.8,117.7,72.8,116.2,71.4,114.5z M80.3,106.1L80.3,106.1c0-3-2-5.1-4.6-5.1c-2.5,0-4.5,2.1-4.5,5v0.1
		c0,3,2,5,4.5,5C78.3,111.2,80.3,109.1,80.3,106.1z"/>
	<path class="st0" d="M91.3,95h7.8v4.5c1.3-3,3.3-5,7-4.8v8.2h-0.7c-4.1,0-6.4,2.3-6.4,7.5v6.9h-7.8V95z"/>
	<path class="st0" d="M108.9,87.3h8.1V93h-8.1V87.3z M109,95h7.8v22.2H109V95z"/>
	<path class="st0" d="M121.3,87.3h7.8v29.9h-7.8V87.3z"/>
	<path class="st0" d="M133.6,87.3h7.8v29.9h-7.8V87.3z"/>
	<path class="st0" d="M145.8,87.3h8.1V93h-8.1V87.3z M145.9,95h7.8v22.2h-7.8V95z"/>
	<path class="st0" d="M157,110.9L157,110.9c0-4.7,3.5-7.1,8.7-7.1c2.1,0,4.1,0.4,5.3,0.9v-0.4c0-2.3-1.4-3.6-4.4-3.6
		c-2.3,0-4.1,0.5-6.1,1.2l-1.6-5.5c2.5-1,5.2-1.7,9-1.7c4,0,6.7,0.9,8.4,2.7c1.7,1.6,2.4,3.9,2.4,7.1v12.8H171v-2.3
		c-1.5,1.7-3.6,2.8-6.5,2.8C160.2,117.7,157,115.3,157,110.9z M171.1,109.2v-1c-0.8-0.3-1.9-0.6-3-0.6c-2.3,0-3.6,1.1-3.6,2.7v0.1
		c0,1.5,1.1,2.4,2.7,2.4C169.5,112.8,171.1,111.4,171.1,109.2z"/>
	<path class="st0" d="M182.6,95h7.8v3.1c1.4-1.8,3.5-3.6,6.6-3.6c4.7,0,7.5,3.1,7.5,8.2v14.5h-7.8v-12c0-2.4-1.3-3.7-3.1-3.7
		c-1.9,0-3.3,1.3-3.3,3.7v12h-7.8V95z"/>
	<path class="st0" d="M210,110.3v-9h-2.6V95h2.6v-5.6h7.8V95h5.2v6.3h-5.2v7.5c0,1.6,0.7,2.2,2.1,2.2c1,0,2-0.3,3-0.7v6.1
		c-1.4,0.8-3.2,1.3-5.4,1.3C212.8,117.7,210,115.6,210,110.3z"/>
	<path class="st0" d="M226.5,87.3h7.8v29.9h-7.8V87.3z"/>
	<path class="st0" d="M238,122l2.4-5.5c1.2,0.7,2.5,1.2,3.4,1.2c0.8,0,1.3-0.2,1.8-0.9L237,95h8.2l4.4,13.4l4.2-13.4h8l-8.1,21.7
		c-1.9,5.2-4,7.2-8.4,7.2C242.4,123.9,240.1,123.1,238,122z"/>
</g>
<g>
	<path class="st0" d="M21,137.2h-2.6v-6.1H21v-0.5c0-2.5,0.6-4.4,1.9-5.7c1.4-1.4,3.2-1.9,5.8-1.9c2.4,0,3.9,0.2,5.1,0.6v5.5
		c-0.9-0.3-1.8-0.5-2.9-0.5c-1.4,0-2.2,0.7-2.2,2.1v0.5h5.1v6h-5v16H21V137.2z"/>
	<path class="st0" d="M36,145.5V131h7.8v12c0,2.4,1.3,3.7,3.2,3.7c1.8,0,3.2-1.3,3.2-3.7v-12H58v22.2h-7.8v-3
		c-1.4,1.8-3.5,3.5-6.6,3.5C38.9,153.6,36,150.5,36,145.5z"/>
	<path class="st0" d="M62.2,131H70v3.1c1.4-1.8,3.5-3.6,6.6-3.6c4.7,0,7.5,3.1,7.5,8.2v14.5h-7.8v-12c0-2.4-1.3-3.7-3.1-3.7
		c-1.9,0-3.3,1.3-3.3,3.7v12h-7.8V131z"/>
	<path class="st0" d="M88.2,131H96v3.1c1.4-1.8,3.5-3.6,6.6-3.6c4.7,0,7.5,3.1,7.5,8.2v14.5h-7.8v-12c0-2.4-1.3-3.7-3.1-3.7
		c-1.9,0-3.3,1.3-3.3,3.7v12h-7.8V131z"/>
	<path class="st0" d="M113.1,157.9l2.4-5.5c1.2,0.7,2.5,1.2,3.4,1.2c0.8,0,1.3-0.2,1.8-0.9L112,131h8.2l4.4,13.4l4.2-13.4h8
		l-8.1,21.7c-1.9,5.2-4,7.2-8.4,7.2C117.4,159.8,115.1,159.1,113.1,157.9z"/>
</g>
<g>
	<path class="st0" d="M19.4,166.9h7.8v3c1.5-1.8,3.4-3.4,6.7-3.4c5.3,0,9.8,4.4,9.8,11.5v0.1c0,7.2-4.6,11.6-9.8,11.6
		c-3.4,0-5.3-1.5-6.8-3.2v9.3h-7.8V166.9z M36.1,178L36.1,178c0-3-2-5.1-4.6-5.1c-2.5,0-4.5,2.1-4.5,5v0.1c0,3,2,5,4.5,5
		C34.1,183,36.1,181,36.1,178z"/>
	<path class="st0" d="M47.1,166.9h7.8v4.5c1.3-3,3.3-5,7-4.8v8.2h-0.7c-4.1,0-6.4,2.3-6.4,7.5v6.9h-7.8V166.9z"/>
	<path class="st0" d="M63.4,178.1L63.4,178.1c0-6.4,5.2-11.7,12.3-11.7c7.1,0,12.2,5.2,12.2,11.5v0.1c0,6.3-5.2,11.6-12.3,11.6
		C68.5,189.6,63.4,184.4,63.4,178.1z M80.3,178.1L80.3,178.1c0-2.8-2-5.1-4.7-5.1c-2.8,0-4.6,2.3-4.6,4.9v0.1c0,2.7,2,5,4.7,5
		C78.5,183,80.3,180.7,80.3,178.1z"/>
	<path class="st0" d="M89.4,186.3l2.9-4.7c2.5,1.7,5.3,2.5,7.6,2.5c1.4,0,2-0.4,2-1.2v-0.1c0-0.9-1.2-1.2-3.6-1.9
		c-4.4-1.1-7.9-2.6-7.9-7.1v-0.1c0-4.7,3.8-7.3,8.9-7.3c3.2,0,6.6,0.9,9.1,2.6l-2.7,4.9c-2.3-1.3-4.8-2.1-6.6-2.1
		c-1.2,0-1.8,0.5-1.8,1.1v0.1c0,0.9,1.3,1.3,3.6,2c4.4,1.2,7.9,2.7,7.9,7.1v0.1c0,4.9-3.7,7.4-9.1,7.4
		C96.2,189.6,92.5,188.5,89.4,186.3z"/>
	<path class="st0" d="M111.3,178.1L111.3,178.1c0-6.6,4.6-11.7,11.2-11.7c7.7,0,11.2,5.6,11.2,12.1c0,0.5,0,1.1,0,1.6h-14.8
		c0.6,2.4,2.4,3.7,4.8,3.7c1.8,0,3.3-0.7,4.9-2.3l4.3,3.6c-2.1,2.7-5.2,4.5-9.6,4.5C116.2,189.6,111.3,185,111.3,178.1z
		 M126.4,176.2c-0.3-2.5-1.7-4-3.9-4c-2.1,0-3.4,1.6-3.9,4H126.4z"/>
	<path class="st0" d="M136.1,178.1L136.1,178.1c0-6.4,4.9-11.6,11.9-11.6c4.6,0,7.6,2,9.5,5l-5.3,3.9c-1.1-1.5-2.3-2.3-4.1-2.3
		c-2.5,0-4.3,2.2-4.3,4.9v0.1c0,2.9,1.8,5,4.4,5c1.8,0,3-0.9,4.3-2.3l5.2,3.8c-2.1,3-5,5.1-9.9,5.1
		C141,189.6,136.1,184.4,136.1,178.1z"/>
	<path class="st0" d="M160.2,181.4v-14.5h7.8v12c0,2.4,1.3,3.7,3.2,3.7c1.8,0,3.2-1.3,3.2-3.7v-12h7.8v22.2h-7.8v-3
		c-1.4,1.8-3.5,3.5-6.6,3.5C163,189.6,160.2,186.4,160.2,181.4z"/>
	<path class="st0" d="M187.7,182.2v-9h-2.6v-6.3h2.6v-5.6h7.8v5.6h5.2v6.3h-5.2v7.5c0,1.6,0.7,2.2,2.1,2.2c1,0,2-0.3,3-0.7v6.1
		c-1.4,0.8-3.2,1.3-5.4,1.3C190.5,189.5,187.7,187.5,187.7,182.2z"/>
	<path class="st0" d="M202.5,178.1L202.5,178.1c0-6.4,5.2-11.7,12.3-11.7c7.1,0,12.2,5.2,12.2,11.5v0.1c0,6.3-5.2,11.6-12.3,11.6
		C207.7,189.6,202.5,184.4,202.5,178.1z M219.5,178.1L219.5,178.1c0-2.8-2-5.1-4.7-5.1c-2.8,0-4.6,2.3-4.6,4.9v0.1c0,2.7,2,5,4.7,5
		C217.7,183,219.5,180.7,219.5,178.1z"/>
	<path class="st0" d="M230.3,166.9h7.8v4.5c1.3-3,3.3-5,7-4.8v8.2h-0.7c-4.1,0-6.4,2.3-6.4,7.5v6.9h-7.8V166.9z"/>
	<path class="st0" d="M244.9,181.1h8.1v8h-8.1V181.1z"/>
</g>
</svg>
