<?xml version="1.0" encoding="utf-8"?>
<!-- Generator: Adobe Illustrator 25.4.1, SVG Export Plug-In . SVG Version: 6.00 Build 0)  -->
<svg version="1.1" id="Layer_1" xmlns="http://www.w3.org/2000/svg" xmlns:xlink="http://www.w3.org/1999/xlink" x="0px" y="0px"
	 viewBox="0 0 300 250" style="enable-background:new 0 0 300 250;" xml:space="preserve">
<style type="text/css">
	.st0{fill:#461211;}
</style>
<path class="st0" d="M18.1,84.6h8.6l-0.3,1.3l-2.8,0.3l-1.9,10.1c-0.5,2.8-1,5.6-1.5,8.4l3,0.4l-0.3,1.3h-8.6l0.3-1.3l2.8-0.3
	l1.9-10.1c0.5-2.8,1-5.6,1.5-8.4l-3-0.4L18.1,84.6z M36.3,106.7l-0.3-0.3l2.3-10.7c0.1-0.5,0.2-1.1,0.2-1.6c0-1.1-0.4-1.4-1.1-1.4
	c-1.2,0-3,1-5.4,2.9l-0.9,4c-0.5,2.3-0.9,4.5-1.3,6.9l-2.1,0.3l-0.3-0.3l2.8-13.1l-3.3-0.2l0.1-0.9l5.5-1.7l0.4,0.3l-0.7,3.4
	c2.1-2,4.8-3.7,6.8-3.7c1.3,0,2.1,0.8,2.1,2.3c0,0.4-0.1,0.9-0.2,1.4c2.1-2,4.5-3.6,6.5-3.6c1.3,0,2.1,0.8,2.1,2.3
	c0,1-0.3,2.1-0.6,3.2l-1.5,6c-0.2,0.9-0.4,1.6-0.4,1.9c0,0.5,0.3,0.7,0.7,0.7c0.9,0,1.9-0.8,3.2-2.4l0.8,0.6c-1.4,2-3.3,4-5.6,4
	c-1,0-1.6-0.6-1.6-1.4c0-0.8,0.2-1.3,0.5-2.6l1.4-5.8c0.3-1.1,0.5-2.2,0.5-2.8c0-1.2-0.4-1.5-1.1-1.5c-1.1,0-2.8,1-5.1,2.9l-0.9,4
	c-0.5,2.3-0.9,4.5-1.3,6.9L36.3,106.7z M63,106.7l-0.3-0.3L65,95.8c0.1-0.5,0.2-1.1,0.2-1.6c0-1.1-0.4-1.4-1.1-1.4
	c-1.2,0-3,1-5.4,2.9l-0.9,4c-0.5,2.3-0.9,4.5-1.3,6.9l-2.1,0.3l-0.3-0.3l2.8-13.1l-3.3-0.2l0.1-0.9l5.5-1.7l0.4,0.3l-0.7,3.4
	c2.1-2,4.8-3.7,6.8-3.7c1.3,0,2.1,0.8,2.1,2.3c0,0.4-0.1,0.9-0.2,1.4c2.1-2,4.5-3.6,6.5-3.6c1.3,0,2.1,0.8,2.1,2.3
	c0,1-0.3,2.1-0.6,3.2l-1.5,6c-0.2,0.9-0.4,1.6-0.4,1.9c0,0.5,0.3,0.7,0.7,0.7c0.9,0,1.9-0.8,3.2-2.4l0.8,0.6c-1.4,2-3.3,4-5.6,4
	c-1,0-1.6-0.6-1.6-1.4c0-0.8,0.2-1.3,0.5-2.6l1.4-5.8c0.3-1.1,0.5-2.2,0.5-2.8c0-1.2-0.4-1.5-1.1-1.5c-1.1,0-2.8,1-5.1,2.9l-0.9,4
	c-0.5,2.3-0.9,4.5-1.3,6.9L63,106.7z M88.3,105c0-0.7,0-1.2,0.2-1.8c-1.9,2.2-4,3.7-5.7,3.7c-1.6,0-3.1-1.1-3.1-3.8
	c0-5.7,5.9-12.5,10-12.5c0.7,0,1.3,0.3,1.9,0.9l1.5-1.2l0.6,0.3L91,102c-0.2,0.8-0.3,1.5-0.3,1.9c0,0.5,0.4,0.7,0.8,0.7
	c0.8,0,2.1-1,3.2-2.4l0.8,0.6c-1.3,1.9-3.3,4-5.5,4C89.1,106.8,88.3,106.3,88.3,105z M90.5,93.3c-0.6-0.4-1.3-0.6-2-0.6
	c-1,0-2.4,0.7-3.6,1.9c-1.6,1.6-2.8,4.2-2.8,7.1c0,2,0.8,2.9,2,2.9c1.2,0,2.6-0.8,4.8-3.2L90.5,93.3z M106.5,106.4l0.3-1.3l3.1-0.3
	l1.9-10.1c0.5-2.8,1-5.7,1.5-8.5h-4.9l-1.5,4.2h-1.6l1.2-5.8h17l-0.9,5.8h-1.6v-4.2h-4.7l-1.9,10.1c-0.5,2.8-1,5.6-1.5,8.4l3.3,0.4
	l-0.3,1.3h-6.2H106.5z M129.7,105c0-0.7,0-1.2,0.2-1.8c-1.9,2.2-4,3.7-5.7,3.7c-1.6,0-3.1-1.1-3.1-3.8c0-5.7,5.9-12.5,10-12.5
	c0.7,0,1.3,0.3,1.9,0.9l1.5-1.2l0.6,0.3l-2.6,11.5c-0.2,0.8-0.3,1.5-0.3,1.9c0,0.5,0.4,0.7,0.8,0.7c0.8,0,2.1-1,3.2-2.4l0.8,0.6
	c-1.3,1.9-3.3,4-5.5,4C130.4,106.8,129.7,106.3,129.7,105z M131.9,93.3c-0.6-0.4-1.3-0.6-2-0.6c-1,0-2.4,0.7-3.6,1.9
	c-1.6,1.6-2.8,4.2-2.8,7.1c0,2,0.8,2.9,2,2.9c1.2,0,2.6-0.8,4.8-3.2L131.9,93.3z M141.8,92.6h-3.4l0.2-1.3l3.6-0.3l1.5-4.4h1.6
	l-0.9,4.4h4.1l-0.2,1.8l-4.2-0.1l-2,9.4c-0.2,0.9-0.3,1.6-0.3,1.9c0,0.5,0.4,0.8,0.8,0.8c0.9,0,1.9-0.8,3.2-2.4l0.8,0.6
	c-1.4,2-3.3,4-5.5,4c-0.9,0-1.8-0.6-1.8-1.7c0-0.5,0-1,0.3-2.3L141.8,92.6z M157.2,105c0-0.7,0-1.2,0.2-1.8c-1.9,2.2-4,3.7-5.7,3.7
	c-1.6,0-3.1-1.1-3.1-3.8c0-5.7,5.9-12.5,10-12.5c0.7,0,1.3,0.3,1.9,0.9l1.5-1.2l0.6,0.3l-2.6,11.5c-0.2,0.8-0.3,1.5-0.3,1.9
	c0,0.5,0.4,0.7,0.8,0.7c0.8,0,2.1-1,3.2-2.4l0.8,0.6c-1.3,1.9-3.3,4-5.5,4C158,106.8,157.2,106.3,157.2,105z M159.5,93.3
	c-0.6-0.4-1.3-0.6-2-0.6c-1,0-2.4,0.7-3.6,1.9c-1.6,1.6-2.8,4.2-2.8,7.1c0,2,0.8,2.9,2,2.9c1.2,0,2.6-0.8,4.8-3.2L159.5,93.3z
	 M169.4,93.3l-3.3-0.2l0.1-0.9l5.4-1.7l0.4,0.3l-0.7,4.3c1.4-2.4,3.2-4.7,4.9-4.7c0.9,0,1.7,0.3,2.2,1c0,1-0.6,1.8-1.7,1.8
	c-0.6,0-1.3-0.3-1.9-0.9c-1.6,1.3-2.8,3.1-4,5.4l-0.4,1.8c-0.5,2.3-0.9,4.5-1.3,6.9l-2.1,0.3l-0.3-0.3L169.4,93.3z M185.6,105
	c0-0.7,0-1.2,0.2-1.8c-1.9,2.2-4,3.7-5.7,3.7c-1.6,0-3.1-1.1-3.1-3.8c0-5.7,5.9-12.5,10-12.5c0.7,0,1.3,0.3,1.9,0.9l1.5-1.2l0.6,0.3
	l-2.6,11.5c-0.2,0.8-0.3,1.5-0.3,1.9c0,0.5,0.4,0.7,0.8,0.7c0.8,0,2.1-1,3.2-2.4l0.8,0.6c-1.3,1.9-3.3,4-5.5,4
	C186.4,106.8,185.6,106.3,185.6,105z M187.8,93.3c-0.6-0.4-1.3-0.6-2-0.6c-1,0-2.4,0.7-3.6,1.9c-1.6,1.6-2.8,4.2-2.8,7.1
	c0,2,0.8,2.9,2,2.9c1.2,0,2.6-0.8,4.8-3.2L187.8,93.3z M195.3,106.7l-0.3-0.3l2.8-13.1l-3.3-0.2l0.1-0.9l5.5-1.7l0.4,0.3l-0.7,3.4
	c2.1-2,4.8-3.7,6.8-3.7c1.4,0,2.1,0.8,2.1,2.3c0,1-0.3,2.1-0.6,3.2l-1.5,6c-0.2,0.9-0.4,1.6-0.4,1.9c0,0.5,0.3,0.7,0.7,0.7
	c0.8,0,2.1-0.9,3.2-2.4l0.8,0.6c-1.3,1.9-3.4,4-5.6,4c-1,0-1.6-0.6-1.6-1.4c0-0.8,0.2-1.3,0.5-2.6l1.4-5.8c0.3-1.1,0.5-2.2,0.5-2.8
	c0-1.2-0.4-1.5-1.1-1.5c-1.2,0-3,1-5.5,2.9l-0.9,4c-0.5,2.3-0.9,4.5-1.3,6.9L195.3,106.7z M213.6,106.7l-0.3-0.3l2.8-13.1l-3.3-0.2
	l0.1-0.9l5.5-1.7l0.4,0.3l-0.7,3.4c2.1-2,4.8-3.7,6.8-3.7c1.4,0,2.1,0.8,2.1,2.3c0,1-0.3,2.1-0.6,3.2l-1.5,6
	c-0.2,0.9-0.4,1.6-0.4,1.9c0,0.5,0.3,0.7,0.7,0.7c0.8,0,2.1-0.9,3.2-2.4l0.8,0.6c-1.3,1.9-3.4,4-5.6,4c-1,0-1.6-0.6-1.6-1.4
	c0-0.8,0.2-1.3,0.5-2.6l1.4-5.8c0.3-1.1,0.5-2.2,0.5-2.8c0-1.2-0.4-1.5-1.1-1.5c-1.2,0-3,1-5.5,2.9l-0.9,4c-0.5,2.3-0.9,4.5-1.3,6.9
	L213.6,106.7z M232.4,102.8l2-9.5l-3.3-0.2l0.1-0.9l5.5-1.7l0.4,0.3l-2.3,11.2c-0.2,0.8-0.3,1.5-0.3,1.9c0,0.5,0.4,0.7,0.7,0.7
	c0.8,0,1.8-0.8,3.2-2.4l0.8,0.6c-1.5,2-3.1,4-5.4,4c-0.9,0-1.7-0.6-1.7-1.7C232.1,104.7,232.1,104.2,232.4,102.8z M235.1,84.2
	c0-1.1,0.9-2,1.9-2c1,0,1.8,0.7,1.8,1.9c0,1-0.9,2-1.9,2C235.8,86.1,235.1,85.3,235.1,84.2z"/>
<g>
	<path class="st0" d="M240.5,100.1h6.5v6.4h-6.5V100.1z"/>
</g>
</svg>
