<?xml version="1.0" encoding="utf-8"?>
<!-- Generator: Adobe Illustrator 25.4.1, SVG Export Plug-In . SVG Version: 6.00 Build 0)  -->
<svg version="1.1" id="Layer_1" xmlns="http://www.w3.org/2000/svg" xmlns:xlink="http://www.w3.org/1999/xlink" x="0px" y="0px"
	 viewBox="0 0 300 250" style="enable-background:new 0 0 300 250;" xml:space="preserve">
<style type="text/css">
	.st0{fill:#461211;}
</style>
<g>
	<path class="st0" d="M16.9,139.6l3.5-4.2c2.3,1.8,4.8,2.7,7.4,2.7c1.7,0,2.6-0.6,2.6-1.6v-0.1c0-0.9-0.8-1.5-3.8-2.2
		c-4.9-1.1-8.6-2.5-8.6-7.2v-0.1c0-4.2,3.4-7.3,8.8-7.3c3.9,0,6.9,1,9.4,3l-3.2,4.5c-2.1-1.5-4.4-2.3-6.4-2.3
		c-1.5,0-2.3,0.7-2.3,1.5v0.1c0,1,0.8,1.5,3.9,2.2c5.3,1.1,8.5,2.8,8.5,7.1v0.1c0,4.7-3.7,7.4-9.2,7.4
		C23.6,143.4,19.7,142.1,16.9,139.6z"/>
	<path class="st0" d="M38.9,134.3L38.9,134.3c0-5.2,3.7-9.3,8.9-9.3c6.1,0,8.9,4.5,8.9,9.7c0,0.4,0,0.8,0,1.3H44.8
		c0.5,1.9,1.9,2.9,3.8,2.9c1.5,0,2.6-0.6,3.9-1.8l3.4,2.8c-1.7,2.2-4.1,3.6-7.7,3.6C42.8,143.4,38.9,139.8,38.9,134.3z M50.9,132.7
		c-0.2-2-1.4-3.2-3.1-3.2c-1.6,0-2.7,1.3-3.1,3.2H50.9z"/>
	<path class="st0" d="M58.4,138L58.4,138c0-3.7,2.8-5.6,6.9-5.6c1.6,0,3.2,0.3,4.2,0.7v-0.3c0-1.8-1.1-2.9-3.5-2.9
		c-1.9,0-3.3,0.4-4.9,1l-1.3-4.4c2-0.8,4.1-1.4,7.1-1.4c3.2,0,5.3,0.8,6.7,2.2c1.3,1.3,1.9,3.1,1.9,5.6V143h-6.1v-1.8
		c-1.2,1.3-2.9,2.2-5.2,2.2C61,143.4,58.4,141.5,58.4,138z M69.7,136.6v-0.8c-0.6-0.3-1.5-0.5-2.4-0.5c-1.8,0-2.8,0.9-2.8,2.2v0.1
		c0,1.2,0.9,1.9,2.2,1.9C68.4,139.5,69.7,138.4,69.7,136.6z"/>
	<path class="st0" d="M77.5,140.8l2.3-3.8c2,1.3,4.2,2,6.1,2c1.1,0,1.6-0.3,1.6-0.9v-0.1c0-0.7-1-1-2.8-1.5
		c-3.5-0.9-6.3-2.1-6.3-5.6v-0.1c0-3.8,3-5.8,7.1-5.8c2.6,0,5.3,0.8,7.3,2.1l-2.1,3.9c-1.8-1-3.8-1.6-5.2-1.6
		c-0.9,0-1.4,0.4-1.4,0.8v0.1c0,0.7,1,1,2.9,1.6c3.5,1,6.3,2.2,6.3,5.6v0.1c0,3.9-2.9,5.9-7.2,5.9C82.9,143.4,80,142.6,77.5,140.8z"
		/>
	<path class="st0" d="M94.9,134.3L94.9,134.3c0-5.1,4.1-9.3,9.8-9.3c5.6,0,9.7,4.1,9.7,9.2v0.1c0,5-4.1,9.2-9.8,9.2
		C99,143.4,94.9,139.3,94.9,134.3z M108.4,134.3L108.4,134.3c0-2.2-1.6-4-3.8-4c-2.3,0-3.7,1.8-3.7,3.9v0.1c0,2.2,1.6,4,3.8,4
		C106.9,138.2,108.4,136.4,108.4,134.3z"/>
	<path class="st0" d="M117,125.4h6.2v2.5c1.1-1.5,2.8-2.9,5.3-2.9c3.8,0,6,2.5,6,6.5V143h-6.2v-9.6c0-1.9-1-3-2.5-3
		c-1.5,0-2.6,1-2.6,3v9.6H117V125.4z"/>
	<path class="st0" d="M150.4,125.9l-3.8,0.9l-1.2-4.9l6.7-1.9h4.6v23h-6.2V125.9z"/>
	<path class="st0" d="M170.7,130.3h-2.1v-4.9h2.1v-0.4c0-2,0.5-3.5,1.5-4.6c1.1-1.1,2.5-1.5,4.6-1.5c1.9,0,3.1,0.2,4,0.5v4.4
		c-0.7-0.2-1.4-0.4-2.3-0.4c-1.1,0-1.8,0.5-1.8,1.7v0.4h4v4.8h-3.9V143h-6.2V130.3z"/>
	<path class="st0" d="M182.7,125.4h6.2v3.6c1-2.4,2.6-4,5.6-3.8v6.5H194c-3.2,0-5.1,1.9-5.1,5.9v5.5h-6.2V125.4z"/>
	<path class="st0" d="M195.7,134.3L195.7,134.3c0-5.2,3.7-9.3,8.9-9.3c6.1,0,8.9,4.5,8.9,9.7c0,0.4,0,0.8,0,1.3h-11.8
		c0.5,1.9,1.9,2.9,3.8,2.9c1.5,0,2.6-0.6,3.9-1.8l3.4,2.8c-1.7,2.2-4.1,3.6-7.7,3.6C199.6,143.4,195.7,139.8,195.7,134.3z
		 M207.7,132.7c-0.2-2-1.4-3.2-3.1-3.2c-1.6,0-2.7,1.3-3.1,3.2H207.7z"/>
	<path class="st0" d="M215.4,134.3L215.4,134.3c0-5.2,3.7-9.3,8.9-9.3c6.1,0,8.9,4.5,8.9,9.7c0,0.4,0,0.8,0,1.3h-11.8
		c0.5,1.9,1.9,2.9,3.8,2.9c1.5,0,2.6-0.6,3.9-1.8l3.4,2.8c-1.7,2.2-4.1,3.6-7.7,3.6C219.3,143.4,215.4,139.8,215.4,134.3z
		 M227.4,132.7c-0.2-2-1.4-3.2-3.1-3.2c-1.6,0-2.7,1.3-3.1,3.2H227.4z"/>
	<path class="st0" d="M244.2,134.3L244.2,134.3c0-5.1,4.1-9.3,9.8-9.3c5.6,0,9.7,4.1,9.7,9.2v0.1c0,5-4.1,9.2-9.8,9.2
		C248.3,143.4,244.2,139.3,244.2,134.3z M257.7,134.3L257.7,134.3c0-2.2-1.6-4-3.8-4c-2.3,0-3.7,1.8-3.7,3.9v0.1c0,2.2,1.6,4,3.8,4
		C256.2,138.2,257.7,136.4,257.7,134.3z"/>
	<path class="st0" d="M266.3,125.4h6.2v2.5c1.1-1.5,2.8-2.9,5.3-2.9c3.8,0,6,2.5,6,6.5V143h-6.2v-9.6c0-1.9-1-3-2.5-3
		c-1.5,0-2.6,1-2.6,3v9.6h-6.2V125.4z"/>
</g>
<g>
	<path class="st0" d="M18.7,153.5h6.7l5.4,8.8l5.4-8.8h6.7v22.8h-6.3v-13.1l-5.8,8.9h-0.1l-5.8-8.9v13h-6.2V153.5z"/>
	<path class="st0" d="M47,153.5h6.3v8.5h8.1v-8.5h6.3v22.8h-6.3v-8.7h-8.1v8.7H47V153.5z"/>
	<path class="st0" d="M70.8,172.3l8.2-8.6h-7.9v-4.9h16.1v4.1l-8.2,8.6h8.2v4.9H70.8V172.3z"/>
	<path class="st0" d="M98.4,165L98.4,165c0-6.7,5.1-11.9,12-11.9c4.7,0,7.7,2,9.7,4.8l-4.8,3.7c-1.3-1.6-2.8-2.7-5-2.7
		c-3.2,0-5.4,2.7-5.4,6v0.1c0,3.4,2.3,6.1,5.4,6.1c2.4,0,3.8-1.1,5.2-2.8l4.8,3.4c-2.2,3-5.1,5.2-10.1,5.2
		C103.7,176.8,98.4,171.8,98.4,165z"/>
	<path class="st0" d="M122.7,152.5h6.2v8.6c1.1-1.5,2.8-2.8,5.3-2.8c3.8,0,6,2.5,6,6.5v11.5H134v-9.6c0-1.9-1-3-2.5-3
		c-1.5,0-2.6,1-2.6,3v9.6h-6.2V152.5z"/>
	<path class="st0" d="M142.6,167.6L142.6,167.6c0-5.1,4.1-9.3,9.8-9.3c5.6,0,9.7,4.1,9.7,9.2v0.1c0,5-4.1,9.2-9.8,9.2
		C146.7,176.8,142.6,172.6,142.6,167.6z M156.1,167.6L156.1,167.6c0-2.2-1.6-4-3.8-4c-2.3,0-3.7,1.8-3.7,3.9v0.1c0,2.2,1.6,4,3.8,4
		C154.7,171.5,156.1,169.7,156.1,167.6z"/>
	<path class="st0" d="M164.8,152.5h6.5v4.6h-6.5V152.5z M164.9,158.7h6.2v17.6h-6.2V158.7z"/>
	<path class="st0" d="M173.8,167.6L173.8,167.6c0-5.1,3.9-9.3,9.5-9.3c3.6,0,6,1.6,7.5,3.9l-4.2,3.1c-0.8-1.2-1.8-1.9-3.3-1.9
		c-2,0-3.5,1.8-3.5,3.9v0.1c0,2.3,1.4,4,3.5,4c1.5,0,2.4-0.7,3.4-1.8l4.1,3c-1.6,2.4-4,4-7.9,4C177.8,176.8,173.8,172.6,173.8,167.6
		z"/>
	<path class="st0" d="M191.9,167.6L191.9,167.6c0-5.2,3.7-9.3,8.9-9.3c6.1,0,8.9,4.5,8.9,9.7c0,0.4,0,0.8,0,1.3h-11.8
		c0.5,1.9,1.9,2.9,3.8,2.9c1.5,0,2.6-0.6,3.9-1.8l3.4,2.8c-1.7,2.2-4.1,3.6-7.7,3.6C195.9,176.8,191.9,173.1,191.9,167.6z
		 M204,166.1c-0.2-2-1.4-3.2-3.1-3.2c-1.6,0-2.7,1.3-3.1,3.2H204z"/>
	<path class="st0" d="M212,170h6.5v6.4H212V170z"/>
</g>
</svg>
