<?xml version="1.0" encoding="utf-8"?>
<!-- Generator: Adobe Illustrator 25.4.1, SVG Export Plug-In . SVG Version: 6.00 Build 0)  -->
<svg version="1.1" id="Layer_1" xmlns="http://www.w3.org/2000/svg" xmlns:xlink="http://www.w3.org/1999/xlink" x="0px" y="0px"
	 viewBox="0 0 300 250" style="enable-background:new 0 0 300 250;" xml:space="preserve">
<style type="text/css">
	.st0{fill:#461211;}
</style>
<g>
	<path class="st0" d="M22.5,76.8h6.3l-6.1,22.8h-6.3L22.5,76.8z"/>
	<path class="st0" d="M31.3,82h6.2l-0.5,2c1.2-1.2,2.8-2.3,4.9-2.3c2.4,0,3.9,1.2,4.6,3.1c1.7-1.9,3.8-3.1,6.4-3.1
		c3.4,0,5.2,2,5.2,5.3c0,0.9-0.2,2.1-0.5,3.2L55,99.6h-6.2l2.4-9.2c0.1-0.5,0.2-1,0.2-1.4c0-1.2-0.6-1.9-1.9-1.9
		c-1.7,0-2.7,1.2-3.2,3.2l-2.5,9.3h-6.2l2.5-9.2c0.1-0.5,0.2-1,0.2-1.4c0-1.2-0.6-1.9-1.9-1.9c-1.7,0-2.7,1.2-3.2,3.2l-2.5,9.3h-6.2
		L31.3,82z"/>
	<path class="st0" d="M62.9,82h6.2l-0.5,2c1.2-1.2,2.8-2.3,4.9-2.3c2.4,0,3.9,1.2,4.6,3.1c1.7-1.9,3.8-3.1,6.4-3.1
		c3.4,0,5.2,2,5.2,5.3c0,0.9-0.2,2.1-0.5,3.2l-2.6,9.6h-6.2l2.4-9.2c0.1-0.5,0.2-1,0.2-1.4c0-1.2-0.6-1.9-1.9-1.9
		c-1.7,0-2.7,1.2-3.2,3.2l-2.5,9.3h-6.2l2.5-9.2c0.1-0.5,0.2-1,0.2-1.4c0-1.2-0.6-1.9-1.9-1.9c-1.7,0-2.7,1.2-3.2,3.2l-2.5,9.3h-6.2
		L62.9,82z"/>
	<path class="st0" d="M90.4,95.2c0-3.9,3.1-6.2,7.8-6.2c1.6,0,3.1,0.3,4.5,0.7l0.1-0.2c0.1-0.3,0.2-0.7,0.2-1.1c0-1.1-0.9-1.9-3-1.9
		c-1.7,0-3.5,0.4-4.8,0.9l-0.9-4.5c1.9-0.7,4.4-1.1,6.9-1.1c5.3,0,7.9,2.1,7.9,5.6c0,0.8-0.1,1.7-0.4,2.5l-2.6,9.7H100l0.5-1.9
		c-1.5,1.4-3,2.3-5.1,2.3C92.5,100,90.4,98.1,90.4,95.2z M101.9,92.9l0.2-0.6c-0.7-0.2-1.5-0.4-2.3-0.4c-2,0-3.2,0.9-3.2,2.5
		c0,1,0.7,1.6,1.8,1.6C99.8,96.1,101.4,94.7,101.9,92.9z"/>
	<path class="st0" d="M128.5,82.3h-6.9l1.5-5.5h20l-1.5,5.5h-6.9l-4.6,17.3h-6.4L128.5,82.3z"/>
	<path class="st0" d="M138.2,95.2c0-3.9,3.1-6.2,7.8-6.2c1.6,0,3.1,0.3,4.5,0.7l0.1-0.2c0.1-0.3,0.2-0.7,0.2-1.1
		c0-1.1-0.9-1.9-3-1.9c-1.7,0-3.5,0.4-4.8,0.9l-0.9-4.5c1.9-0.7,4.4-1.1,6.9-1.1c5.3,0,7.9,2.1,7.9,5.6c0,0.8-0.1,1.7-0.4,2.5
		l-2.6,9.7h-6.1l0.5-1.9c-1.5,1.4-3,2.3-5.1,2.3C140.3,100,138.2,98.1,138.2,95.2z M149.7,92.9l0.2-0.6c-0.7-0.2-1.5-0.4-2.3-0.4
		c-2,0-3.2,0.9-3.2,2.5c0,1,0.7,1.6,1.8,1.6C147.6,96.1,149.2,94.7,149.7,92.9z"/>
	<path class="st0" d="M159.1,95.8c0-0.7,0.1-1.5,0.3-2.3l1.8-6.5h-2.1l1.3-5h2.1l1.2-4.5h6.2l-1.2,4.5h4.1l-1.3,5h-4.1l-1.5,5.5
		c-0.1,0.4-0.2,0.8-0.2,1.1c0,0.7,0.4,1.1,1.4,1.1c0.7,0,1.4-0.2,2.3-0.5l-1.4,5.2c-1.1,0.4-2.4,0.6-3.7,0.6
		C160.9,100,159.1,98.4,159.1,95.8z"/>
	<path class="st0" d="M171.6,95.2c0-3.9,3.1-6.2,7.8-6.2c1.6,0,3.1,0.3,4.5,0.7l0.1-0.2c0.1-0.3,0.2-0.7,0.2-1.1
		c0-1.1-0.9-1.9-3-1.9c-1.7,0-3.5,0.4-4.8,0.9l-0.9-4.5c1.9-0.7,4.4-1.1,6.9-1.1c5.3,0,7.9,2.1,7.9,5.6c0,0.8-0.1,1.7-0.4,2.5
		l-2.6,9.7h-6.1l0.5-1.9c-1.5,1.4-3,2.3-5.1,2.3C173.6,100,171.6,98.1,171.6,95.2z M183,92.9l0.2-0.6c-0.7-0.2-1.5-0.4-2.3-0.4
		c-2,0-3.2,0.9-3.2,2.5c0,1,0.7,1.6,1.8,1.6C180.9,96.1,182.5,94.7,183,92.9z"/>
	<path class="st0" d="M195,82h6.2l-0.9,3.6c1.7-2.5,3.8-4,6.6-3.8l-1.8,6.5h-0.5c-3.4,0-5.6,1.9-6.7,6.1l-1.4,5.3h-6.2L195,82z"/>
	<path class="st0" d="M204.5,95.2c0-3.9,3.1-6.2,7.8-6.2c1.6,0,3.1,0.3,4.5,0.7l0.1-0.2c0.1-0.3,0.2-0.7,0.2-1.1
		c0-1.1-0.9-1.9-3-1.9c-1.7,0-3.5,0.4-4.8,0.9l-0.9-4.5c1.9-0.7,4.4-1.1,6.9-1.1c5.3,0,7.9,2.1,7.9,5.6c0,0.8-0.1,1.7-0.4,2.5
		l-2.6,9.7h-6.1l0.5-1.9c-1.5,1.4-3,2.3-5.1,2.3C206.6,100,204.5,98.1,204.5,95.2z M216,92.9l0.2-0.6c-0.7-0.2-1.5-0.4-2.3-0.4
		c-2,0-3.2,0.9-3.2,2.5c0,1,0.7,1.6,1.8,1.6C213.9,96.1,215.5,94.7,216,92.9z"/>
	<path class="st0" d="M228,82h6.2l-0.6,2c1.2-1.3,3-2.4,5.1-2.4c3.2,0,5.1,2,5.1,5.3c0,0.9-0.2,2.1-0.5,3.2l-2.5,9.6h-6.2l2.5-9.2
		c0.1-0.5,0.2-1,0.2-1.4c0-1.2-0.7-1.9-2-1.9c-1.7,0-2.7,1.2-3.3,3.2l-2.5,9.3h-6.2L228,82z"/>
	<path class="st0" d="M248.6,82h6.2l-0.6,2c1.2-1.3,3-2.4,5.1-2.4c3.2,0,5.1,2,5.1,5.3c0,0.9-0.2,2.1-0.5,3.2l-2.5,9.6h-6.2l2.5-9.2
		c0.1-0.5,0.2-1,0.2-1.4c0-1.2-0.7-1.9-2-1.9c-1.7,0-2.7,1.2-3.3,3.2l-2.5,9.3h-6.2L248.6,82z"/>
	<path class="st0" d="M269.3,82h6.2l-4.7,17.6h-6.2L269.3,82z M270.8,75.8h6.5l-1.2,4.6h-6.5L270.8,75.8z"/>
</g>
<g>
	<path class="st0" d="M276.2,93.2h6.5v6.4h-6.5V93.2z"/>
</g>
</svg>
