<?xml version="1.0" encoding="utf-8"?>
<!-- Generator: Adobe Illustrator 25.4.1, SVG Export Plug-In . SVG Version: 6.00 Build 0)  -->
<svg version="1.1" id="Layer_1" xmlns="http://www.w3.org/2000/svg" xmlns:xlink="http://www.w3.org/1999/xlink" x="0px" y="0px"
	 viewBox="0 0 300 250" style="enable-background:new 0 0 300 250;" xml:space="preserve">
<style type="text/css">
	.st0{fill:#AC202D;}
	.st1{fill:#FFFFFF;}
</style>
<path class="st0" d="M29.1,207.7c-6.3,0-11.5,5.1-11.5,11.5v3.4c0,6.3,5.1,11.5,11.5,11.5h79.6c6.3,0,11.5-5.1,11.5-11.5v-3.4
	c0-6.3-5.1-11.5-11.5-11.5H29.1z"/>
<g>
	<path class="st1" d="M24.5,217h2.2l1.9,6.2l2.1-6.2h1.7l2.1,6.2l1.9-6.2h2.1l-3.1,9.2h-1.8l-2.1-6l-2.1,6h-1.8L24.5,217z"/>
	<path class="st1" d="M41.8,217h1.9l3.9,9.2h-2.1l-0.8-2.1h-3.9l-0.8,2.1h-2.1L41.8,217z M43.9,222.3l-1.2-3l-1.2,3H43.9z"/>
	<path class="st1" d="M50,218.9h-2.8V217h7.6v1.9H52v7.3h-2V218.9z"/>
	<path class="st1" d="M55.5,221.6L55.5,221.6c0-2.6,2-4.8,4.8-4.8c1.7,0,2.8,0.6,3.6,1.4l-1.3,1.5c-0.7-0.6-1.4-1-2.3-1
		c-1.5,0-2.7,1.3-2.7,2.9v0c0,1.6,1.1,2.9,2.7,2.9c1,0,1.7-0.4,2.4-1.1l1.3,1.3c-0.9,1-2,1.6-3.8,1.6
		C57.5,226.3,55.5,224.3,55.5,221.6z"/>
	<path class="st1" d="M65.6,217h2v3.6h3.7V217h2v9.2h-2v-3.7h-3.7v3.7h-2V217z"/>
	<path class="st1" d="M79.5,217h1.9l4.3,5.6V217h2v9.2h-1.7l-4.4-5.8v5.8h-2V217z"/>
	<path class="st1" d="M89.4,221.6L89.4,221.6c0-2.6,2.1-4.8,4.9-4.8s4.9,2.1,4.9,4.7v0c0,2.6-2.1,4.7-4.9,4.7
		C91.4,226.3,89.4,224.2,89.4,221.6z M97,221.6L97,221.6c0-1.6-1.2-2.9-2.8-2.9s-2.7,1.3-2.7,2.9v0c0,1.6,1.2,2.9,2.8,2.9
		S97,223.2,97,221.6z"/>
	<path class="st1" d="M99.7,217h2.2l1.9,6.2l2.1-6.2h1.7l2.1,6.2l1.9-6.2h2.1l-3.1,9.2h-1.8l-2.1-6l-2.1,6h-1.8L99.7,217z"/>
</g>
</svg>
