<svg id="Layer_1" xmlns="http://www.w3.org/2000/svg" viewBox="0 0 320 50"><style>.st0{fill:#490a09}</style><path class="st0" d="M17.3 21.2h-4.7v-3.8h13.9v3.8h-4.7v12h-4.4v-12zM27 17.4h4.9l3.6 10 3.6-10h4.8l-6.4 15.9h-4.1L27 17.4zM51 27.1c0-3.5 2.7-6.4 6.5-6.4 2.5 0 4.2 1.1 5.2 2.7l-2.9 2.2c-.6-.8-1.2-1.3-2.3-1.3-1.4 0-2.4 1.2-2.4 2.7 0 1.6 1 2.8 2.4 2.8 1 0 1.7-.5 2.3-1.3l2.9 2.1c-1.1 1.7-2.8 2.8-5.4 2.8-3.6.1-6.3-2.8-6.3-6.3zM64.3 21h4.3v2.5c.7-1.7 1.8-2.8 3.9-2.7v4.5h-.4c-2.2 0-3.5 1.3-3.5 4.1v3.8h-4.3V21zM73.9 16.7h4.5v3.2h-4.5v-3.2zM74 21h4.3v12.2H74V21zM81.5 29.4v-5H80V21h1.4v-3.1h4.3V21h2.8v3.5h-2.8v4.1c0 .9.4 1.2 1.2 1.2.6 0 1.1-.2 1.6-.4v3.4c-.8.4-1.8.7-3 .7-2.5-.1-4-1.2-4-4.1zM90.4 16.7h4.5v3.2h-4.5v-3.2zm.1 4.3h4.3v12.2h-4.3V21zM96.7 27.1c0-3.5 2.7-6.4 6.5-6.4 2.5 0 4.2 1.1 5.2 2.7l-2.9 2.2c-.6-.8-1.2-1.3-2.3-1.3-1.4 0-2.4 1.2-2.4 2.7 0 1.6 1 2.8 2.4 2.8 1 0 1.7-.5 2.3-1.3l2.9 2.1c-1.1 1.7-2.8 2.8-5.4 2.8-3.6.1-6.3-2.8-6.3-6.3zM109.1 31.6l1.6-2.6c1.4.9 2.9 1.4 4.2 1.4.7 0 1.1-.2 1.1-.7 0-.5-.7-.7-2-1-2.4-.6-4.3-1.4-4.3-3.9 0-2.6 2.1-4 4.9-4 1.8 0 3.6.5 5 1.4l-1.5 2.7c-1.3-.7-2.6-1.1-3.6-1.1-.7 0-1 .2-1 .6 0 .5.7.7 2 1.1 2.4.7 4.3 1.5 4.3 3.9 0 2.7-2 4.1-5 4.1-1.9-.1-4-.7-5.7-1.9zM127.4 27.1c0-3.5 2.7-6.4 6.5-6.4 2.5 0 4.2 1.1 5.2 2.7l-2.9 2.2c-.6-.8-1.2-1.3-2.3-1.3-1.4 0-2.4 1.2-2.4 2.7 0 1.6 1 2.8 2.4 2.8 1 0 1.7-.5 2.3-1.3l2.9 2.1c-1.1 1.7-2.8 2.8-5.4 2.8-3.6.1-6.3-2.8-6.3-6.3zM140.7 16.7h4.3v5.9c.8-1 1.9-1.9 3.7-1.9 2.6 0 4.2 1.7 4.2 4.5v8h-4.3v-6.6c0-1.3-.7-2.1-1.7-2.1s-1.8.7-1.8 2.1v6.6h-4.3V16.7zM154.6 27.1c0-3.6 2.6-6.4 6.2-6.4 4.2 0 6.2 3.1 6.2 6.7v.9h-8.2c.3 1.3 1.3 2 2.6 2 1 0 1.8-.4 2.7-1.2l2.4 2c-1.2 1.5-2.9 2.5-5.3 2.5-3.9-.1-6.6-2.7-6.6-6.5zm8.3-1c-.2-1.4-.9-2.2-2.1-2.2-1.1 0-1.9.9-2.1 2.2h4.2zM168.2 27.1c0-3.6 2.6-6.4 6.2-6.4 4.2 0 6.2 3.1 6.2 6.7v.9h-8.2c.3 1.3 1.3 2 2.6 2 1 0 1.8-.4 2.7-1.2l2.4 2c-1.2 1.5-2.9 2.5-5.3 2.5-3.9-.1-6.6-2.7-6.6-6.5zm8.3-1c-.2-1.4-.9-2.2-2.1-2.2-1.1 0-1.9.9-2.1 2.2h4.2zM182.4 21h4.3v2.5c.7-1.7 1.8-2.8 3.9-2.7v4.5h-.4c-2.2 0-3.5 1.3-3.5 4.1v3.8h-4.3V21zM191.3 27.1c0-3.6 2.6-6.4 6.2-6.4 4.2 0 6.2 3.1 6.2 6.7v.9h-8.2c.3 1.3 1.3 2 2.6 2 1 0 1.8-.4 2.7-1.2l2.4 2c-1.2 1.5-2.9 2.5-5.3 2.5-3.9-.1-6.6-2.7-6.6-6.5zm8.3-1c-.2-1.4-.9-2.2-2.1-2.2-1.1 0-1.9.9-2.1 2.2h4.2zM205 27.1c0-4 2.5-6.4 5.4-6.4 1.9 0 2.9.8 3.7 1.8v-5.8h4.3v16.5h-4.3v-1.6c-.8 1-1.9 1.9-3.7 1.9-2.9-.1-5.4-2.5-5.4-6.4zm9.2 0c0-1.6-1.1-2.8-2.5-2.8s-2.5 1.1-2.5 2.8c0 1.6 1.1 2.8 2.5 2.8s2.5-1.2 2.5-2.8zM220.5 28.8h4.5v4.4h-4.5v-4.4z"/></svg>