<svg id="Layer_1" xmlns="http://www.w3.org/2000/svg" viewBox="0 0 320 50"><style>.st0{fill:#490a09}</style><path class="st0" d="M12.8 17.8c0-3.1 2.3-5.4 5.5-5.4 2.1 0 3.5.9 4.4 2.2l-2.2 1.7c-.5-.8-1.2-1.3-2.2-1.3-1.5 0-2.5 1.2-2.5 2.8 0 1.6 1 2.8 2.5 2.8 1.1 0 1.7-.5 2.4-1.3l2.2 1.5c-1 1.4-2.3 2.4-4.6 2.4-3.1 0-5.5-2.3-5.5-5.4zM23.5 20.7c0-1.7 1.3-2.6 3.2-2.6.7 0 1.5.1 1.9.3v-.1c0-.8-.5-1.3-1.6-1.3-.8 0-1.5.2-2.2.4l-.6-2c.9-.4 1.9-.6 3.3-.6s2.4.3 3.1 1c.6.6.9 1.4.9 2.6V23h-2.8v-.8c-.6.6-1.3 1-2.4 1-1.6 0-2.8-.9-2.8-2.5zm5.1-.6v-.4c-.3-.1-.7-.2-1.1-.2-.8 0-1.3.4-1.3 1s.4.9 1 .9c.8 0 1.4-.5 1.4-1.3zM33.2 20.5v-3.3h-1v-2.3h1v-2H36v2h1.9v2.3H36v2.7c0 .6.3.8.8.8.4 0 .7-.1 1.1-.3v2.2c-.5.3-1.2.5-2 .5-1.7.1-2.7-.7-2.7-2.6zM38.6 19c0-2.3 1.8-4.2 4.3-4.2 1.7 0 2.8.7 3.4 1.8L44.4 18c-.4-.5-.8-.8-1.5-.8-.9 0-1.6.8-1.6 1.8s.7 1.8 1.6 1.8c.7 0 1.1-.3 1.5-.8l1.9 1.4c-.7 1.1-1.8 1.8-3.6 1.8-2.3 0-4.1-1.9-4.1-4.2zM47.4 12.1h2.8V16c.5-.7 1.3-1.3 2.4-1.3 1.7 0 2.7 1.1 2.7 3V23h-2.8v-4.4c0-.9-.5-1.4-1.1-1.4-.7 0-1.2.5-1.2 1.4V23h-2.8V12.1zM61.5 20.5v-3.3h-1v-2.3h1v-2h2.8v2h1.9v2.3h-1.9v2.7c0 .6.3.8.8.8.4 0 .7-.1 1.1-.3v2.2c-.5.3-1.2.5-2 .5-1.7.1-2.7-.7-2.7-2.6zM67.4 12.1h2.8V16c.5-.7 1.3-1.3 2.4-1.3 1.7 0 2.7 1.1 2.7 3V23h-2.8v-4.4c0-.9-.5-1.4-1.1-1.4-.7 0-1.2.5-1.2 1.4V23h-2.8V12.1zM76.5 19c0-2.4 1.7-4.2 4.1-4.2 2.8 0 4.1 2 4.1 4.4v.6h-5.4c.2.9.9 1.3 1.7 1.3.7 0 1.2-.3 1.8-.8l1.6 1.3c-.8 1-1.9 1.6-3.5 1.6-2.6 0-4.4-1.7-4.4-4.2zm5.5-.7c-.1-.9-.6-1.5-1.4-1.5-.7 0-1.2.6-1.4 1.5H82zM89.6 19c0-2.6 1.6-4.2 3.5-4.2 1.2 0 1.9.6 2.5 1.2v-3.8h2.8V23h-2.8v-1.1c-.6.7-1.2 1.2-2.5 1.2-1.8.1-3.5-1.5-3.5-4.1zm6.1 0c0-1.1-.7-1.8-1.6-1.8-.9 0-1.7.7-1.7 1.8s.7 1.8 1.7 1.8c.9 0 1.6-.7 1.6-1.8zM100 14.9h2.8v1.6c.5-1.1 1.2-1.8 2.5-1.8v3h-.2c-1.5 0-2.3.8-2.3 2.7V23H100v-8.1zM105.6 20.7c0-1.7 1.3-2.6 3.2-2.6.7 0 1.5.1 1.9.3v-.1c0-.8-.5-1.3-1.6-1.3-.8 0-1.5.2-2.2.4l-.6-2c.9-.4 1.9-.6 3.3-.6s2.4.3 3.1 1c.6.6.9 1.4.9 2.6V23h-2.8v-.8c-.6.6-1.3 1-2.4 1-1.6 0-2.8-.9-2.8-2.5zm5.1-.6v-.4c-.3-.1-.7-.2-1.1-.2-.8 0-1.3.4-1.3 1s.4.9 1 .9c.8 0 1.4-.5 1.4-1.3zM114.9 14.9h2.8V16c.5-.7 1.3-1.3 2.4-1.3 1.1 0 1.9.5 2.3 1.3.7-.8 1.5-1.3 2.7-1.3 1.7 0 2.8 1.1 2.8 2.9V23h-2.8v-4.4c0-.9-.4-1.3-1.1-1.3s-1.2.5-1.2 1.3V23H120v-4.4c0-.9-.4-1.3-1.1-1.3s-1.1.5-1.1 1.3V23H115v-8.1zM129 20.7c0-1.7 1.3-2.6 3.2-2.6.7 0 1.5.1 1.9.3v-.1c0-.8-.5-1.3-1.6-1.3-.8 0-1.5.2-2.2.4l-.6-2c.9-.4 1.9-.6 3.3-.6s2.4.3 3.1 1c.6.6.9 1.4.9 2.6V23h-3v-.8c-.6.6-1.3 1-2.4 1-1.5 0-2.6-.9-2.6-2.5zm5.1-.6v-.4c-.3-.1-.7-.2-1.1-.2-.8 0-1.3.4-1.3 1s.4.9 1 .9c.8 0 1.4-.5 1.4-1.3zM138.1 20.1h2.9V23h-2.9v-2.9z"/></svg>