<svg id="Layer_1" xmlns="http://www.w3.org/2000/svg" viewBox="0 0 320 50"><style>.st0{fill:#490a09}</style><path class="st0" d="M18.7 27.7h2.8l1.6 10.5h-3l-.3-1.9h-4l-1.2 1.9h-3.1l7.2-10.5zm.9 6.4l-.4-3-1.9 3h2.3zM30.8 27.8h8.3l-.7 2.5H33l-.5 1.8h4.9l-.6 2.4h-4.9l-1 3.7H28l2.8-10.4zM39.7 30.2h2.8l-.4 1.6c.8-1.1 1.7-1.8 3-1.8l-.8 3h-.2c-1.5 0-2.5.9-3 2.8l-.7 2.4h-2.8l2.1-8zM48.8 36.3c.6 0 1.1-.2 1.7-.6l1.3 1.5c-.8.7-1.9 1.2-3.3 1.2-2.4 0-3.8-1.4-3.8-3.6 0-2.4 1.9-4.9 4.8-4.9 2.4 0 3.4 1.6 3.4 3.3 0 .6-.1 1.1-.3 1.7h-5.3c0 .9.5 1.4 1.5 1.4zm1.6-2.8c0-.1.1-.3.1-.4 0-.5-.4-1-1.1-1-.8 0-1.5.5-1.8 1.5h2.8zM55.1 30.2h2.8l-.3.9c.6-.6 1.4-1.1 2.3-1.1 1.5 0 2.3.9 2.3 2.4 0 .4-.1.9-.2 1.4l-1.2 4.4H58l1.1-4.2c.1-.2.1-.5.1-.7 0-.5-.3-.8-.9-.8-.8 0-1.2.5-1.5 1.5l-1.1 4.3h-2.8l2.2-8.1zM63 34.9c0-2.7 2.2-4.9 4.8-4.9 1.9 0 3 1 3.4 2.2L69 33.3c-.3-.6-.7-1-1.4-1-1.1 0-1.9 1.2-1.9 2.4 0 .8.5 1.3 1.2 1.3.6 0 1-.3 1.5-.7l1.7 1.5c-.8 1-1.8 1.6-3.4 1.6-2.1 0-3.7-1.3-3.7-3.5zM73.5 27.4h2.8l-1 3.7c.6-.6 1.4-1.1 2.3-1.1 1.5 0 2.3.9 2.3 2.4 0 .4-.1.9-.2 1.4l-1.2 4.4h-2.8l1.1-4.2c.1-.2.1-.5.1-.7 0-.5-.3-.8-.9-.8-.8 0-1.2.5-1.5 1.5l-1.1 4.3h-2.8l2.9-10.9zM86.1 27.8h3.2l.6 6.5 4.1-6.5h3.3l-7 10.5h-2.7l-1.5-10.5zM97.2 30.2h2.8l-2.2 8H95l2.2-8zm.7-2.8h2.9l-.6 2.1h-2.9l.6-2.1zM102.5 27.4h2.8l-2.9 10.9h-2.8l2.9-10.9zM106.9 27.4h2.8l-2.9 10.9H104l2.9-10.9zM108.8 36.2c0-1.8 1.4-2.8 3.5-2.8.7 0 1.4.1 2 .3v-.1c0-.1.1-.3.1-.5 0-.5-.4-.9-1.4-.9-.8 0-1.6.2-2.2.4l-.4-2.1c.8-.3 2-.5 3.2-.5 2.4 0 3.6 1 3.6 2.6 0 .4-.1.8-.2 1.2l-1.2 4.4H113l.2-.9c-.7.6-1.4 1-2.3 1-1.2.1-2.1-.8-2.1-2.1zm5.2-1l.1-.3c-.3-.1-.7-.2-1.1-.2-.9 0-1.5.4-1.5 1.2 0 .5.3.7.8.7.8 0 1.5-.6 1.7-1.4zM116.9 39.5l1.3-1.8c.9.5 1.9.8 2.9.8.7 0 1.3-.2 1.7-.6.3-.3.5-.7.7-1.3v-.2c-.7.6-1.5 1-2.4 1-1.5 0-2.9-1-2.9-2.8 0-2.5 1.8-4.7 4.2-4.7 1.2 0 2 .6 2.4 1.3l.3-1.1h2.8l-1.7 6.4c-.4 1.4-.8 2.2-1.4 2.9-.8.8-1.9 1.2-3.6 1.2-1.6 0-3.2-.4-4.3-1.1zm7.3-6c0-.7-.5-1.3-1.3-1.3-1.1 0-1.9 1-1.9 2 0 .8.5 1.2 1.3 1.2 1 .1 1.9-.9 1.9-1.9zM132.1 36.3c.6 0 1.1-.2 1.7-.6l1.3 1.5c-.8.7-1.9 1.2-3.3 1.2-2.4 0-3.8-1.4-3.8-3.6 0-2.4 1.9-4.9 4.8-4.9 2.4 0 3.4 1.6 3.4 3.3 0 .6-.1 1.1-.3 1.7h-5.3c.1.9.5 1.4 1.5 1.4zm1.6-2.8c0-.1.1-.3.1-.4 0-.5-.4-1-1.1-1-.8 0-1.5.5-1.8 1.5h2.8z"/><g><path class="st0" d="M136.8 39.6c1-.1 1.5-.6 1.5-1.4h-1.1v-2.9h2.9v2.4c0 2.2-1.2 3-3.1 3l-.2-1.1z"/></g><g><path class="st0" d="M145.3 34.2c0-2.3 1.9-4.2 4.5-4.2s4.4 1.9 4.4 4.2c0 2.3-1.9 4.2-4.5 4.2-2.5 0-4.4-1.9-4.4-4.2zm6.1 0c0-1-.7-1.8-1.7-1.8s-1.7.8-1.7 1.8.7 1.8 1.7 1.8c1.1 0 1.7-.8 1.7-1.8zM155.4 30.2h2.8v1.1c.5-.7 1.3-1.3 2.4-1.3 1.7 0 2.7 1.1 2.7 3v5.3h-2.8v-4.4c0-.9-.5-1.4-1.1-1.4-.7 0-1.2.5-1.2 1.4v4.4h-2.8v-8.1zM169.1 27.8h3l2.5 4 2.5-4h3v10.4h-2.9v-6l-2.7 4.1h-.1l-2.6-4v6H169V27.8zM182 27.8h2.9v3.9h3.7v-3.9h2.9v10.4h-2.9v-4h-3.7v4H182V27.8zM192.9 36.4l3.7-3.9H193v-2.2h7.3V32l-3.7 3.9h3.7v2.2h-7.5v-1.7zM205.5 33c0-3.1 2.3-5.4 5.5-5.4 2.1 0 3.5.9 4.4 2.2l-2.2 1.7c-.6-.7-1.3-1.2-2.3-1.2-1.5 0-2.5 1.2-2.5 2.8 0 1.6 1 2.8 2.5 2.8 1.1 0 1.7-.5 2.4-1.3l2.2 1.5c-1 1.4-2.3 2.4-4.6 2.4-3-.1-5.4-2.4-5.4-5.5zM216.5 27.4h2.8v3.9c.5-.7 1.3-1.3 2.4-1.3 1.7 0 2.7 1.1 2.7 3v5.3h-2.8v-4.4c0-.9-.5-1.4-1.1-1.4-.7 0-1.2.5-1.2 1.4v4.4h-2.8V27.4zM225.6 34.2c0-2.3 1.9-4.2 4.5-4.2s4.4 1.9 4.4 4.2c0 2.3-1.9 4.2-4.5 4.2-2.5 0-4.4-1.9-4.4-4.2zm6.2 0c0-1-.7-1.8-1.7-1.8s-1.7.8-1.7 1.8.7 1.8 1.7 1.8 1.7-.8 1.7-1.8zM235.7 27.4h2.9v2.1h-2.9v-2.1zm.1 2.8h2.8v8h-2.8v-8zM239.9 34.2c0-2.3 1.8-4.2 4.3-4.2 1.7 0 2.8.7 3.4 1.8l-1.9 1.4c-.4-.5-.8-.8-1.5-.8-.9 0-1.6.8-1.6 1.8s.7 1.8 1.6 1.8c.7 0 1.1-.3 1.5-.8l1.9 1.4c-.7 1.1-1.8 1.8-3.6 1.8-2.4 0-4.1-1.9-4.1-4.2zM248.1 34.2c0-2.4 1.7-4.2 4.1-4.2 2.8 0 4.1 2 4.1 4.4v.6h-5.4c.2.9.9 1.3 1.7 1.3.7 0 1.2-.3 1.8-.8l1.6 1.3c-.8 1-1.9 1.6-3.5 1.6-2.6 0-4.4-1.7-4.4-4.2zm5.5-.7c-.1-.9-.6-1.5-1.4-1.5-.7 0-1.2.6-1.4 1.5h2.8zM257.3 35.3h2.9v2.9h-2.9v-2.9z"/></g></svg>