<svg id="Layer_1" xmlns="http://www.w3.org/2000/svg" xmlns:xlink="http://www.w3.org/1999/xlink" viewBox="0 0 320 50"><style>.st0,.st1{clip-path:url(#SVGID_00000069359008529276442710000001702644168588082099_);fill:#ac1f2d}.st1{fill:#fff}</style><defs><path id="SVGID_1_" d="M291.1 3H315v22.7h-23.9z"/></defs><clipPath id="SVGID_00000180326478029908337420000009095004190727450800_"><use xlink:href="#SVGID_1_" overflow="visible"/></clipPath><path d="M313.5 14.5c0 5.8-4.7 10.4-10.4 10.4-5.8 0-10.4-4.7-10.4-10.4S297.3 4.1 303 4.1c5.8 0 10.5 4.7 10.5 10.4" clip-path="url(#SVGID_00000180326478029908337420000009095004190727450800_)" fill="#ac1f2d"/><path d="M307.2 12.6v1.2h1.4l-1.6 2.5h3.9v-1.2h-1.7l1.5-2.5h-3.5zm-7.8-1.5l-1.3 2.8-1.2-2.8h-1.8v5.2h1.4v-2.8l1.3 2.8h.6l1.2-2.9v2.9h1.5v-5.2h-1.7zm5.8 0V13h-1.8v-1.8h-1.6v5.2h1.6v-2.1h1.8v2.1h1.6v-5.2h-1.6zM307.1 18.4h1.4V18h-.9v-.3h.8v-.4h-.8V17h.9v-.4h-1.4v1.8zm-1.1.1c.4 0 .6-.2.8-.4l-.4-.3c-.1.1-.2.2-.4.2s-.4-.2-.4-.5c0-.2.2-.5.4-.5s.3.1.4.2l.4-.3c-.2-.2-.4-.4-.7-.4-.5 0-.9.4-.9.9-.1.7.3 1.1.8 1.1m-1.8-.1h.5v-1.7h-.5v1.7zm-1.3-.4c-.3 0-.4-.2-.4-.5 0-.2.2-.5.4-.5.3 0 .4.2.4.5s-.2.5-.4.5m0 .5c.5 0 .9-.4.9-.9s-.4-.9-.9-.9-.9.4-.9.9.4.9.9.9m-2.9-.1h.5v-.7h.6v.7h.5v-1.7h-.5v.6h-.6v-.6h-.5v1.7zm-1.1.1c.4 0 .6-.2.8-.4l-.4-.3c-.1.1-.2.2-.4.2s-.4-.2-.4-.5c0-.2.2-.5.4-.5s.3.1.4.2l.4-.3c-.2-.2-.4-.4-.7-.4-.5 0-.9.4-.9.9-.1.7.3 1.1.8 1.1" clip-path="url(#SVGID_00000180326478029908337420000009095004190727450800_)" fill="#fff"/></svg>