<svg id="Layer_1" xmlns="http://www.w3.org/2000/svg" viewBox="0 0 300 250"><style>.st0{fill:#461211}</style><path class="st0" d="M29.1 148l2.7-.3-.8-6h-6.8l-3.1 5.9 2.7.4-.2 1.2h-6.9l.2-1.2 2.6-.4 10.7-19.2H32l2.7 19.2 2.8.3-.2 1.2h-8.2V148zm-4.1-7.7h5.8l-1.2-8.8-4.6 8.8zm33.1-.9h-4.9l-.1.3c-.5 2.7-1 5.3-1.4 8l3 .4-.2 1.2h-8.3l.2-1.2 2.7-.3 1.8-9.6c.5-2.7 1-5.3 1.4-8l-2.8-.4.2-1.2h14.7l-.9 5.5H62v-4h-7l-1.5 7.9h4.8l1-3h1.3l-1.4 7.7H58l.1-3.3zm9-2.6l-3.1-.2.1-.9 5.1-1.6.4.3-.7 4.1c1.3-2.3 3-4.4 4.7-4.4.9 0 1.6.2 2 .9 0 1-.6 1.7-1.6 1.7-.5 0-1.2-.3-1.8-.8-1.5 1.2-2.7 2.9-3.8 5.1l-.4 1.7c-.5 2.2-.8 4.3-1.2 6.5l-2 .2-.3-.2 2.6-12.4zm8.2 7.1c0-5 3.8-9.7 8.1-9.7 2 0 3.1 1 3.1 2.9 0 2-1.9 4.8-9 6.8.1 2.7 1.3 3.7 3.2 3.7 2 0 3.3-1.2 4.2-2.3l.7.6c-1.3 2.1-3.3 3.8-5.6 3.8-2.7 0-4.7-1.8-4.7-5.8zm9.2-6.6c0-1.1-.7-1.8-1.7-1.8-1.9 0-5 3.3-5.3 7.1 5.1-1.5 7-3.6 7-5.3zm4.4 12.2l-.3-.2 2.6-12.4-3.1-.2.1-.9 5.2-1.6.4.3-.6 3.2c2-1.9 4.6-3.5 6.5-3.5 1.3 0 2 .7 2 2.1 0 1-.3 2-.5 3l-1.4 5.7c-.2.9-.4 1.5-.4 1.8 0 .4.2.7.6.7.8 0 2-.9 3.1-2.3l.7.6c-1.2 1.8-3.2 3.8-5.3 3.8-1 0-1.6-.5-1.6-1.3 0-.7.2-1.2.5-2.5l1.3-5.5c.2-1.1.5-2.1.5-2.7 0-1.1-.4-1.5-1.1-1.5-1.1 0-2.9.9-5.2 2.8l-.8 3.8c-.5 2.2-.8 4.3-1.2 6.5l-2 .3zm16.4-5.6c0-5.2 4.1-9.7 7.9-9.7 1.9 0 3 .9 3.3 2.3-.1.7-.7 1.1-1.3 1.1-.7 0-1.3-.5-1.8-1.1l-.9-1c-2.7.9-5 4.4-5 8.2 0 2.7 1.4 4 3.4 4 1.7 0 2.9-1.2 3.8-2.3l.7.6c-1.2 2.2-3.5 3.8-5.6 3.8-2.5-.1-4.5-2.1-4.5-5.9zm20.4 4.5c0-.7.2-1.2.5-2.5l1.3-5.5c.2-1.1.5-2.1.5-2.7 0-1.1-.4-1.5-1.1-1.5-1.1 0-2.8.9-5.1 2.7l-.8 3.8c-.4 2.2-.8 4.3-1.2 6.5l-2 .2-.3-.2 3-14.8c.4-1.8.7-3.7 1-5.5l-3-.2.1-.9 5.3-1.6.3.2-2.3 11.1c2-1.9 4.5-3.4 6.4-3.4 1.3 0 2 .7 2 2.1 0 1-.3 2-.5 3l-1.4 5.7c-.2.9-.4 1.5-.4 1.8 0 .4.2.7.6.7.8 0 2-.9 3.1-2.3l.7.6c-1.2 1.8-3.2 3.8-5.3 3.8-.8.2-1.4-.4-1.4-1.1zm29.2-19.9h6.9l-.2 1.2-2.7.4-10.4 19.5h-1.3l-3.1-19.5-2.4-.3.2-1.2h8.2l-.2 1.2-3 .4 2.2 15.4 8.2-15.4-2.6-.4.2-1.3zm6.7 17.4l1.9-9-3.1-.2.1-.9 5.2-1.6.4.3-2.2 10.6c-.2.8-.3 1.4-.3 1.8 0 .4.3.7.7.7.7 0 1.7-.8 3-2.3l.7.6c-1.4 1.9-3 3.8-5.2 3.8-.8 0-1.6-.5-1.6-1.6.1-.4.1-1 .4-2.2zm2.5-17.8c0-1 .9-1.9 1.8-1.9 1 0 1.7.7 1.7 1.8 0 1-.9 1.9-1.8 1.9-1 0-1.7-.7-1.7-1.8zm6.1 19.8c0-.4.1-1 .3-2l2.3-11.4c.4-1.8.7-3.7 1-5.5l-2.9-.2.1-.9 5.3-1.6.3.2-3.7 18.5c-.2.8-.3 1.5-.3 1.8 0 .5.4.7.8.7.7 0 1.7-.8 2.9-2.3l.7.6c-1.3 1.8-2.9 3.8-5.1 3.8-.9.1-1.7-.5-1.7-1.7zm8.6 0c0-.4.1-1 .3-2l2.3-11.4c.4-1.8.7-3.7 1-5.5l-2.9-.2.1-.9 5.3-1.6.3.2-3.7 18.5c-.2.8-.3 1.5-.3 1.8 0 .5.4.7.8.7.7 0 1.7-.8 2.9-2.3l.7.6c-1.3 1.8-2.9 3.8-5.1 3.8-.9.1-1.7-.5-1.7-1.7zm16 0c0-.6 0-1.1.1-1.7-1.8 2.1-3.8 3.5-5.4 3.5-1.5 0-2.9-1.1-2.9-3.6 0-5.4 5.6-11.9 9.5-11.9.7 0 1.3.3 1.8.9l1.4-1.2.6.3-2.5 10.9c-.2.8-.3 1.4-.3 1.8 0 .4.3.7.7.7.8 0 2-.9 3.1-2.3l.7.6c-1.2 1.8-3.2 3.8-5.2 3.8-.9 0-1.6-.6-1.6-1.8zm2.1-11.1c-.6-.3-1.3-.6-1.9-.6-1 0-2.3.7-3.4 1.8-1.5 1.6-2.7 4-2.7 6.7 0 1.9.7 2.8 1.9 2.8 1.1 0 2.4-.8 4.5-3.1l1.6-7.6zm12.8-2.6c2 0 3.4 1.1 3.8 2.9.6-2.4 1.7-3.2 2.9-3.2.4 0 .7.1.9.2.2.2.3.4.3.6 0 1.2-1.1 1.6-3 2.2-.2.5-.3 1.1-.5 1.8-.9 4-3.2 5.8-5.6 5.8-.9 0-1.7-.2-2.4-.5-.7.8-.8 1.2-.8 1.7s.4 1.2 1.6 1.4l3 .4c3.3.4 4.6 1.6 4.6 3.3 0 3.3-3.8 5.9-8.9 5.9-2.9 0-5-1.1-5-3.3 0-1.9 1.8-3.7 3.9-4.7-1.1-.5-1.4-1.4-1.4-2.1 0-1.1.9-2.1 2.3-3.1-1-.7-1.5-1.9-1.5-3.3 0-3.3 2.6-6 5.8-6zm-6.8 18.2c0 1.8 1.5 2.9 4 2.9 3.3 0 5.5-1.3 5.5-3.3 0-1.1-.7-2.2-4-2.5l-2.4-.3-.5-.1c-1.8 1.1-2.6 2-2.6 3.3zm9-14.1c0-2-1.1-3.2-2.4-3.2-2.2.1-3.3 2.1-3.3 5 0 2.2.8 3.4 2.4 3.3 2 0 3.3-1.8 3.3-5.1zm5.6 5.6c0-5 3.8-9.7 8.1-9.7 2 0 3.1 1 3.1 2.9 0 2-1.9 4.8-9 6.8.1 2.7 1.3 3.7 3.2 3.7 2 0 3.3-1.2 4.2-2.3l.7.6c-1.3 2.1-3.3 3.8-5.6 3.8-2.7 0-4.7-1.8-4.7-5.8zm9.1-6.6c0-1.1-.7-1.8-1.7-1.8-1.9 0-5 3.3-5.3 7.1 5.2-1.5 7-3.6 7-5.3zM229 152.1c2.1-.2 3.2-1.2 3.1-2.9h-2.4v-6h6.1v4.9c0 4.6-2.5 6.2-6.4 6.3l-.4-2.3zM17.8 172.7c0-4.8 3.9-8.8 9.3-8.8s9.2 3.9 9.2 8.7v.1c0 4.8-3.9 8.8-9.3 8.8-5.3-.1-9.2-4.1-9.2-8.8zm12.8 0c0-2.1-1.5-3.8-3.6-3.8s-3.5 1.7-3.5 3.7v.1c0 2 1.5 3.8 3.6 3.8 2.2-.1 3.5-1.8 3.5-3.8zM38.9 164.2h5.9v2.4c1.1-1.4 2.6-2.7 5-2.7 3.6 0 5.7 2.4 5.7 6.2v11h-5.9V172c0-1.8-1-2.8-2.4-2.8s-2.5 1-2.5 2.8v9.1h-5.9v-16.9zM67.4 159.3h6.4l5.2 8.4 5.2-8.4h6.4V181h-6v-12.5L79 177h-.1l-5.5-8.4V181h-5.9v-21.7zM94.4 159.3h6v8.1h7.7v-8.1h6V181h-6v-8.2h-7.7v8.2h-6v-21.7zM117 177.1l7.8-8.2h-7.5v-4.7h15.3v3.9l-7.8 8.2h7.8v4.7H117v-3.9zM143.2 170.2c0-6.4 4.9-11.3 11.4-11.3 4.4 0 7.3 1.9 9.2 4.5l-4.5 3.5c-1.2-1.6-2.7-2.5-4.7-2.5-3 0-5.2 2.6-5.2 5.7v.1c0 3.3 2.1 5.8 5.2 5.8 2.3 0 3.6-1.1 4.9-2.6l4.5 3.2c-2 2.8-4.8 4.9-9.6 4.9-6.2-.1-11.2-4.8-11.2-11.3zM166.3 158.3h5.9v8.2c1.1-1.4 2.6-2.7 5-2.7 3.6 0 5.7 2.4 5.7 6.2v11H177v-9.1c0-1.8-1-2.8-2.4-2.8s-2.5 1-2.5 2.8v9.1h-5.9v-22.7zM185.3 172.7c0-4.8 3.9-8.8 9.3-8.8s9.2 3.9 9.2 8.7v.1c0 4.8-3.9 8.8-9.3 8.8-5.4-.1-9.2-4.1-9.2-8.8zm12.8 0c0-2.1-1.5-3.8-3.6-3.8s-3.5 1.7-3.5 3.7v.1c0 2 1.5 3.8 3.6 3.8 2.1-.1 3.5-1.8 3.5-3.8zM206.3 158.3h6.1v4.3h-6.1v-4.3zm.1 5.9h5.9V181h-5.9v-16.8zM214.9 172.7c0-4.8 3.7-8.8 9-8.8 3.4 0 5.7 1.5 7.2 3.8l-4 3c-.8-1.1-1.7-1.8-3.1-1.8-1.9 0-3.3 1.7-3.3 3.7v.1c0 2.2 1.4 3.8 3.3 3.8 1.4 0 2.3-.7 3.2-1.7l3.9 2.9c-1.6 2.3-3.8 3.8-7.5 3.8-5-.1-8.7-4.1-8.7-8.8zM232.1 172.7c0-5 3.5-8.8 8.5-8.8 5.8 0 8.5 4.2 8.5 9.2v1.2h-11.2c.5 1.8 1.8 2.8 3.6 2.8 1.4 0 2.5-.5 3.7-1.7l3.3 2.7c-1.6 2-3.9 3.4-7.3 3.4-5.4-.1-9.1-3.6-9.1-8.8zm11.4-1.5c-.2-1.9-1.3-3-2.9-3-1.5 0-2.6 1.2-2.9 3h5.8zM251.2 174.9h6.1v6h-6.1v-6z"/></svg>