<svg id="Layer_1" xmlns="http://www.w3.org/2000/svg" viewBox="0 0 300 250"><style>.st0{fill:#461211}</style><path class="st0" d="M18.1 97.4C18.1 91 23 86 29.6 86c4.4 0 7.3 1.9 9.2 4.5L34.2 94c-1.2-1.5-2.7-2.5-4.7-2.5-3 0-5.2 2.6-5.2 5.7v.1c0 3.3 2.1 5.8 5.2 5.8 2.3 0 3.6-1.1 4.9-2.6l4.5 3.2c-2 2.8-4.8 4.9-9.6 4.9-6.2 0-11.2-4.8-11.2-11.2zM40.3 103.3c0-3.5 2.6-5.3 6.6-5.3 1.6 0 3.1.3 4 .7v-.3c0-1.7-1.1-2.7-3.3-2.7-1.8 0-3.1.3-4.6.9l-1.2-4.2c1.9-.8 3.9-1.3 6.8-1.3 3 0 5.1.7 6.4 2 1.3 1.2 1.8 3 1.8 5.3v9.6H51v-1.7c-1.1 1.3-2.7 2.1-4.9 2.1-3.3.1-5.8-1.7-5.8-5.1zm10.7-1.2v-.8c-.6-.2-1.4-.4-2.3-.4-1.7 0-2.7.8-2.7 2.1v.1c0 1.1.9 1.8 2.1 1.8 1.7-.1 2.9-1.2 2.9-2.8zM60.6 102.9v-6.8h-2v-4.7h2v-4.2h5.9v4.2h3.9v4.7h-3.9v5.7c0 1.2.5 1.7 1.6 1.7.8 0 1.5-.2 2.2-.6v4.6c-1.1.6-2.4 1-4.1 1-3.5 0-5.6-1.6-5.6-5.6zM71.8 99.8c0-4.8 3.7-8.8 9-8.8 3.4 0 5.7 1.5 7.2 3.8l-4 3c-.8-1.1-1.7-1.8-3.1-1.8-1.9 0-3.3 1.7-3.3 3.7v.1c0 2.2 1.4 3.8 3.3 3.8 1.4 0 2.3-.7 3.2-1.7l3.9 2.9c-1.5 2.3-3.8 3.8-7.5 3.8-4.9 0-8.7-4-8.7-8.8zM90.2 85.5h5.9v8.2c1.1-1.4 2.6-2.7 5-2.7 3.6 0 5.7 2.4 5.7 6.2v11h-5.9v-9.1c0-1.8-1-2.8-2.4-2.8s-2.5 1-2.5 2.8v9.1h-5.9V85.5zM119.4 102.9v-6.8h-2v-4.7h2v-4.2h5.9v4.2h3.9v4.7h-3.9v5.7c0 1.2.5 1.7 1.6 1.7.8 0 1.5-.2 2.2-.6v4.6c-1.1.6-2.4 1-4.1 1-3.5 0-5.6-1.6-5.6-5.6zM131.8 85.5h5.9v8.2c1.1-1.4 2.6-2.7 5-2.7 3.6 0 5.7 2.4 5.7 6.2v11h-5.9v-9.1c0-1.8-1-2.8-2.4-2.8s-2.5 1-2.5 2.8v9.1h-5.9V85.5zM150.8 99.8c0-5 3.5-8.8 8.5-8.8 5.8 0 8.5 4.2 8.5 9.2v1.2h-11.2c.5 1.8 1.8 2.8 3.6 2.8 1.4 0 2.5-.5 3.7-1.7l3.3 2.7c-1.6 2-3.9 3.4-7.3 3.4-5.4 0-9.1-3.5-9.1-8.8zm11.4-1.4c-.2-1.9-1.3-3-2.9-3-1.5 0-2.6 1.2-2.9 3h5.8zM178.2 99.8c0-5.5 3.4-8.8 7.4-8.8 2.5 0 4 1.1 5.1 2.4v-7.9h5.9v22.6h-5.9v-2.2c-1.1 1.4-2.6 2.6-5.1 2.6-4 0-7.4-3.3-7.4-8.7zm12.6 0c0-2.3-1.5-3.8-3.4-3.8s-3.4 1.6-3.4 3.8v.1c0 2.2 1.5 3.8 3.4 3.8s3.4-1.7 3.4-3.9zM199.7 91.4h5.9v3.4c1-2.3 2.5-3.8 5.3-3.7v6.2h-.5c-3.1 0-4.8 1.8-4.8 5.6v5.2h-5.9V91.4zM211.4 103.3c0-3.5 2.6-5.3 6.6-5.3 1.6 0 3.1.3 4 .7v-.3c0-1.7-1.1-2.7-3.3-2.7-1.8 0-3.1.3-4.6.9l-1.2-4.2c1.9-.8 3.9-1.3 6.8-1.3 3 0 5.1.7 6.4 2 1.3 1.2 1.8 3 1.8 5.3v9.6H222v-1.7c-1.1 1.3-2.7 2.1-4.9 2.1-3.2.1-5.7-1.7-5.7-5.1zm10.7-1.2v-.8c-.6-.2-1.4-.4-2.3-.4-1.7 0-2.7.8-2.7 2.1v.1c0 1.1.9 1.8 2.1 1.8 1.7-.1 2.9-1.2 2.9-2.8zM230.8 91.4h5.9v2.3c1.1-1.4 2.6-2.7 5-2.7 2.2 0 3.9 1 4.8 2.7 1.5-1.7 3.2-2.7 5.6-2.7 3.6 0 5.7 2.2 5.7 6.1v11H252V99c0-1.8-.9-2.8-2.3-2.8s-2.4 1-2.4 2.8v9.1h-5.9V99c0-1.8-.9-2.8-2.3-2.8s-2.4 1-2.4 2.8v9.1h-5.9V91.4zM260.1 103.3c0-3.5 2.6-5.3 6.6-5.3 1.6 0 3.1.3 4 .7v-.3c0-1.7-1.1-2.7-3.3-2.7-1.8 0-3.1.3-4.6.9l-1.2-4.2c1.9-.8 3.9-1.3 6.8-1.3 3 0 5.1.7 6.4 2 1.3 1.2 1.8 3 1.8 5.3v9.6h-5.8v-1.7c-1.1 1.3-2.7 2.1-4.9 2.1-3.4.1-5.8-1.7-5.8-5.1zm10.7-1.2v-.8c-.6-.2-1.4-.4-2.3-.4-1.7 0-2.7.8-2.7 2.1v.1c0 1.1.9 1.8 2.1 1.8 1.7-.1 2.9-1.2 2.9-2.8zM279.3 102.1h6.1v6h-6.1v-6z"/></svg>