<svg id="Layer_1" xmlns="http://www.w3.org/2000/svg" xmlns:xlink="http://www.w3.org/1999/xlink" viewBox="0 0 300 250"><style>.st0,.st1{clip-path:url(#SVGID_00000065036094002476154310000002306200576589555613_);fill:#ac1f2d}.st1{fill:#fff}</style><defs><path id="SVGID_1_" d="M16.7 10.2H64v52.2H16.7z"/></defs><clipPath id="SVGID_00000088131529764317600610000007833961251206012298_"><use xlink:href="#SVGID_1_" overflow="visible"/></clipPath><path d="M60.7 35.8c0 12.1-9.8 21.9-21.9 21.9-12.1 0-21.9-9.8-21.9-21.9 0-12.1 9.8-21.9 21.9-21.9 12.1 0 21.9 9.8 21.9 21.9" clip-path="url(#SVGID_00000088131529764317600610000007833961251206012298_)" fill="#ac1f2d"/><path d="M47.6 31.8v2.5h2.9l-3.4 5.2h8.3V37h-3.5l3.2-5.2h-7.5zm-16.3-3.2l-2.6 5.9-2.7-5.9h-3.7v10.9h3v-5.8l2.6 5.8h1.3l2.6-6v6H35V28.6h-3.7zm12 0v3.8h-3.8v-3.8h-3.4v10.9h3.4v-4.3h3.8v4.3h3.4V28.6h-3.4zM47.3 44h2.9v-.8h-1.9v-.6H50v-.8h-1.7v-.5h1.9v-.8h-2.9V44zm-2.3.1c.8 0 1.3-.3 1.6-.8l-.8-.5c-.2.3-.4.4-.8.4-.5 0-.9-.4-.9-1 0-.5.4-1 .9-1 .3 0 .6.2.8.4l.8-.6c-.3-.4-.8-.8-1.5-.8-1.1 0-1.9.8-1.9 1.9 0 1.2.8 2 1.8 2m-3.7-.1h1v-3.6h-1V44zm-2.8-.8c-.5 0-.9-.5-.9-1s.4-1 .9-1c.6 0 .9.5.9 1s-.3 1-.9 1m0 .9c1.1 0 1.9-.8 1.9-1.9 0-1-.8-1.9-1.9-1.9s-1.9.8-1.9 1.9c0 1 .8 1.9 1.9 1.9m-6-.1h1v-1.4h1.3V44h1v-3.6h-1v1.3h-1.3v-1.3h-1V44zm-2.4.1c.8 0 1.3-.3 1.6-.8l-.7-.6c-.2.3-.4.4-.8.4-.5 0-.9-.4-.9-1 0-.5.4-1 .9-1 .3 0 .6.2.8.4l.8-.6c-.3-.4-.8-.8-1.5-.8-1.1 0-1.9.8-1.9 1.9-.1 1.3.7 2.1 1.7 2.1" clip-path="url(#SVGID_00000088131529764317600610000007833961251206012298_)" fill="#fff"/></svg>