<?xml version="1.0" encoding="utf-8"?>
<!-- Generator: Adobe Illustrator 25.4.1, SVG Export Plug-In . SVG Version: 6.00 Build 0)  -->
<svg version="1.1" id="Layer_1" xmlns="http://www.w3.org/2000/svg" xmlns:xlink="http://www.w3.org/1999/xlink" x="0px" y="0px"
	 viewBox="0 0 300 250" style="enable-background:new 0 0 300 250;" xml:space="preserve">
<style type="text/css">
	.st0{fill:#461211;}
</style>
<g>
	<path class="st0" d="M18.2,75.9h7.6v27.3h-7.6V75.9z"/>
	<path class="st0" d="M31.7,96.6V88h-2.5v-6h2.5v-5.3h7.4v5.3H44v6h-4.9v7.1c0,1.5,0.7,2.1,2,2.1c1,0,1.9-0.3,2.8-0.7v5.8
		c-1.3,0.7-3.1,1.2-5.2,1.2C34.3,103.6,31.7,101.7,31.7,96.6z"/>
	<path class="st0" d="M46.1,97.1L46.1,97.1c0-4.4,3.3-6.7,8.3-6.7c2,0,3.9,0.4,5.1,0.8v-0.4c0-2.2-1.4-3.4-4.2-3.4
		c-2.2,0-3.9,0.4-5.8,1.2l-1.5-5.2c2.4-1,4.9-1.6,8.5-1.6c3.8,0,6.4,0.9,8,2.6c1.6,1.6,2.3,3.7,2.3,6.7v12.1h-7.3V101
		c-1.4,1.6-3.4,2.7-6.2,2.7C49.2,103.7,46.1,101.4,46.1,97.1z M59.6,95.5v-1c-0.7-0.3-1.8-0.5-2.9-0.5c-2.1,0-3.4,1.1-3.4,2.6v0.1
		c0,1.4,1.1,2.3,2.6,2.3C58,99,59.6,97.6,59.6,95.5z"/>
	<path class="st0" d="M70.7,74.7h7.4v28.5h-7.4V74.7z"/>
	<path class="st0" d="M81.4,92.7L81.4,92.7c0-6.1,4.9-11.1,11.7-11.1c6.8,0,11.6,5,11.6,11v0.1c0,6-4.9,11-11.7,11
		C86.3,103.7,81.4,98.7,81.4,92.7z M97.5,92.7L97.5,92.7c0-2.7-1.9-4.8-4.5-4.8c-2.7,0-4.4,2.1-4.4,4.7v0.1c0,2.6,1.9,4.8,4.5,4.8
		C95.8,97.4,97.5,95.3,97.5,92.7z"/>
	<path class="st0" d="M107.9,82.1h7.4v2.8c1.4-1.8,3.2-3.3,6.4-3.3c5,0,9.4,4.2,9.4,10.9v0.1c0,6.9-4.3,11-9.3,11
		c-3.2,0-5.1-1.4-6.4-3v8.8h-7.4V82.1z M123.7,92.7L123.7,92.7c0-2.8-1.9-4.8-4.3-4.8c-2.4,0-4.3,2-4.3,4.8v0.1
		c0,2.8,1.9,4.8,4.3,4.8C121.8,97.5,123.7,95.5,123.7,92.7z"/>
	<path class="st0" d="M134.2,74.7h7.4V85c1.4-1.8,3.3-3.4,6.3-3.4c4.5,0,7.2,3,7.2,7.8v13.8h-7.4V91.8c0-2.3-1.2-3.6-3-3.6
		c-1.8,0-3.1,1.2-3.1,3.6v11.4h-7.4V74.7z"/>
	<path class="st0" d="M159,74.7h7.7v5.5H159V74.7z M159.1,82.1h7.4v21.1h-7.4V82.1z"/>
	<path class="st0" d="M170.8,74.7h7.4v28.5h-7.4V74.7z"/>
	<path class="st0" d="M181.5,92.7L181.5,92.7c0-6.2,4.4-11.1,10.7-11.1c7.3,0,10.7,5.3,10.7,11.5c0,0.5,0,1,0,1.5h-14.1
		c0.6,2.3,2.3,3.5,4.6,3.5c1.8,0,3.2-0.7,4.7-2.1l4.1,3.4c-2,2.6-5,4.3-9.2,4.3C186.2,103.7,181.5,99.3,181.5,92.7z M195.9,90.9
		c-0.3-2.3-1.6-3.8-3.7-3.8c-2,0-3.3,1.5-3.7,3.8H195.9z"/>
	<path class="st0" d="M205.5,95.6h7.7v7.6h-7.7V95.6z"/>
</g>
</svg>
