<?xml version="1.0" encoding="utf-8"?>
<!-- Generator: Adobe Illustrator 25.4.1, SVG Export Plug-In . SVG Version: 6.00 Build 0)  -->
<svg version="1.1" id="Layer_1" xmlns="http://www.w3.org/2000/svg" xmlns:xlink="http://www.w3.org/1999/xlink" x="0px" y="0px"
	 viewBox="0 0 300 250" style="enable-background:new 0 0 300 250;" xml:space="preserve">
<style type="text/css">
	.st0{fill:#461211;}
</style>
<g>
	<path class="st0" d="M18.2,115.8H40v6.6H25.8v4.6h12.9v6.3H25.8v9.8h-7.6V115.8z"/>
	<path class="st0" d="M43,122h7.4v4.3c1.2-2.9,3.2-4.8,6.7-4.6v7.8h-0.6c-3.9,0-6,2.2-6,7.1v6.6H43V122z"/>
	<path class="st0" d="M57.8,137.1L57.8,137.1c0-4.4,3.3-6.7,8.3-6.7c2,0,3.9,0.4,5.1,0.8v-0.4c0-2.2-1.4-3.4-4.2-3.4
		c-2.2,0-3.9,0.4-5.8,1.2l-1.5-5.2c2.4-1,4.9-1.6,8.5-1.6c3.8,0,6.4,0.9,8,2.6c1.6,1.6,2.3,3.7,2.3,6.7v12.1h-7.3v-2.2
		c-1.4,1.6-3.4,2.7-6.2,2.7C60.8,143.6,57.8,141.3,57.8,137.1z M71.2,135.5v-1c-0.7-0.3-1.8-0.5-2.9-0.5c-2.1,0-3.4,1.1-3.4,2.6v0.1
		c0,1.4,1.1,2.3,2.6,2.3C69.7,138.9,71.2,137.6,71.2,135.5z"/>
	<path class="st0" d="M82.2,122h7.4v3c1.4-1.8,3.3-3.4,6.3-3.4c4.5,0,7.2,3,7.2,7.8v13.8h-7.4v-11.4c0-2.3-1.2-3.5-3-3.5
		c-1.8,0-3.1,1.2-3.1,3.5v11.4h-7.4V122z"/>
	<path class="st0" d="M106.1,132.6L106.1,132.6c0-6,4.6-11.1,11.3-11.1c4.3,0,7.2,1.9,9,4.7l-5,3.7c-1-1.4-2.1-2.2-3.9-2.2
		c-2.4,0-4.1,2.1-4.1,4.7v0.1c0,2.7,1.7,4.8,4.2,4.8c1.8,0,2.9-0.8,4.1-2.2l5,3.6c-2,2.9-4.8,4.8-9.4,4.8
		C110.7,143.6,106.1,138.6,106.1,132.6z"/>
	<path class="st0" d="M127.7,132.6L127.7,132.6c0-6.1,4.9-11.1,11.7-11.1c6.7,0,11.6,5,11.6,11v0.1c0,6-4.9,11-11.7,11
		C132.6,143.6,127.7,138.7,127.7,132.6z M143.8,132.6L143.8,132.6c0-2.7-1.9-4.8-4.5-4.8c-2.7,0-4.4,2.1-4.4,4.7v0.1
		c0,2.6,1.9,4.8,4.5,4.8C142.1,137.3,143.8,135.2,143.8,132.6z"/>
	<path class="st0" d="M154.2,122h7.4v2.8c1.4-1.8,3.2-3.3,6.4-3.3c5,0,9.4,4.2,9.4,10.9v0.1c0,6.9-4.3,11-9.3,11
		c-3.2,0-5.1-1.4-6.4-3v8.8h-7.4V122z M170,132.6L170,132.6c0-2.8-1.9-4.8-4.3-4.8c-2.4,0-4.3,2-4.3,4.8v0.1c0,2.8,1.9,4.8,4.3,4.8
		C168.1,137.4,170,135.4,170,132.6z"/>
	<path class="st0" d="M180.5,114.6h7.4v10.3c1.4-1.8,3.3-3.4,6.3-3.4c4.5,0,7.2,3,7.2,7.8v13.8H194v-11.4c0-2.3-1.2-3.5-3-3.5
		c-1.8,0-3.1,1.2-3.1,3.5v11.4h-7.4V114.6z"/>
	<path class="st0" d="M205.3,114.6h7.7v5.5h-7.7V114.6z M205.4,122h7.4v21.1h-7.4V122z"/>
	<path class="st0" d="M217.1,114.6h7.4v28.5h-7.4V114.6z"/>
	<path class="st0" d="M227.8,132.6L227.8,132.6c0-6.2,4.4-11.1,10.7-11.1c7.3,0,10.7,5.3,10.7,11.5c0,0.5,0,1,0,1.5H235
		c0.6,2.3,2.3,3.5,4.6,3.5c1.8,0,3.2-0.7,4.7-2.1l4.1,3.4c-2,2.6-5,4.3-9.2,4.3C232.5,143.6,227.8,139.2,227.8,132.6z M242.2,130.8
		c-0.3-2.3-1.6-3.8-3.7-3.8c-2,0-3.3,1.5-3.7,3.8H242.2z"/>
	<path class="st0" d="M251.8,135.5h7.7v7.6h-7.7V135.5z"/>
</g>
</svg>
