<?xml version="1.0" encoding="utf-8"?>
<!-- Generator: Adobe Illustrator 25.4.1, SVG Export Plug-In . SVG Version: 6.00 Build 0)  -->
<svg version="1.1" id="Layer_1" xmlns="http://www.w3.org/2000/svg" xmlns:xlink="http://www.w3.org/1999/xlink" x="0px" y="0px"
	 viewBox="0 0 300 250" style="enable-background:new 0 0 300 250;" xml:space="preserve">
<style type="text/css">
	.st0{fill:#461211;}
</style>
<g>
	<path class="st0" d="M18,115.2h21.8v6.6H25.6v4.6h12.9v6.3H25.6v9.8H18V115.2z"/>
	<path class="st0" d="M42.9,121.4h7.4v4.3c1.2-2.9,3.2-4.8,6.7-4.6v7.8h-0.6c-3.9,0-6,2.2-6,7.1v6.6h-7.4V121.4z"/>
	<path class="st0" d="M57.6,136.4L57.6,136.4c0-4.4,3.3-6.7,8.3-6.7c2,0,3.9,0.4,5.1,0.8v-0.4c0-2.2-1.4-3.4-4.2-3.4
		c-2.2,0-3.9,0.4-5.8,1.2l-1.5-5.2c2.4-1,4.9-1.6,8.5-1.6c3.8,0,6.4,0.9,8,2.6c1.6,1.6,2.3,3.7,2.3,6.7v12.1h-7.3v-2.2
		c-1.4,1.6-3.4,2.7-6.2,2.7C60.7,142.9,57.6,140.6,57.6,136.4z M71,134.8v-1c-0.7-0.3-1.8-0.5-2.9-0.5c-2.1,0-3.4,1.1-3.4,2.6v0.1
		c0,1.4,1.1,2.3,2.6,2.3C69.5,138.3,71,136.9,71,134.8z"/>
	<path class="st0" d="M82,121.4h7.4v3c1.4-1.8,3.3-3.4,6.3-3.4c4.5,0,7.2,3,7.2,7.8v13.8h-7.4V131c0-2.3-1.2-3.5-3-3.5
		c-1.8,0-3.1,1.2-3.1,3.5v11.4H82V121.4z"/>
	<path class="st0" d="M105.9,132L105.9,132c0-6,4.6-11.1,11.3-11.1c4.3,0,7.2,1.9,9,4.7l-5,3.7c-1-1.4-2.1-2.2-3.9-2.2
		c-2.4,0-4.1,2.1-4.1,4.7v0.1c0,2.7,1.7,4.8,4.2,4.8c1.8,0,2.9-0.8,4.1-2.2l5,3.6c-2,2.9-4.8,4.8-9.4,4.8
		C110.6,143,105.9,138,105.9,132z"/>
	<path class="st0" d="M127.6,132L127.6,132c0-6.1,4.9-11.1,11.7-11.1c6.7,0,11.6,5,11.6,11v0.1c0,6-4.9,11-11.7,11
		C132.5,143,127.6,138,127.6,132z M143.7,132L143.7,132c0-2.7-1.9-4.8-4.5-4.8c-2.7,0-4.4,2.1-4.4,4.7v0.1c0,2.6,1.9,4.8,4.5,4.8
		C142,136.7,143.7,134.6,143.7,132z"/>
	<path class="st0" d="M154,121.4h7.4v2.8c1.4-1.8,3.2-3.3,6.4-3.3c5,0,9.4,4.2,9.4,10.9v0.1c0,6.9-4.3,11-9.3,11
		c-3.2,0-5.1-1.4-6.4-3v8.8H154V121.4z M169.9,131.9L169.9,131.9c0-2.8-1.9-4.8-4.3-4.8c-2.4,0-4.3,2-4.3,4.8v0.1
		c0,2.8,1.9,4.8,4.3,4.8C168,136.7,169.9,134.8,169.9,131.9z"/>
	<path class="st0" d="M180.4,114h7.4v10.3c1.4-1.8,3.3-3.4,6.3-3.4c4.5,0,7.2,3,7.2,7.8v13.8h-7.4V131c0-2.3-1.2-3.5-3-3.5
		c-1.8,0-3.1,1.2-3.1,3.5v11.4h-7.4V114z"/>
	<path class="st0" d="M205.1,114h7.7v5.5h-7.7V114z M205.3,121.4h7.4v21.1h-7.4V121.4z"/>
	<path class="st0" d="M217,114h7.4v28.5H217V114z"/>
	<path class="st0" d="M227.7,132L227.7,132c0-6.2,4.4-11.1,10.7-11.1c7.3,0,10.7,5.3,10.7,11.5c0,0.5,0,1,0,1.5h-14.1
		c0.6,2.3,2.3,3.5,4.6,3.5c1.8,0,3.2-0.7,4.7-2.1l4.1,3.4c-2,2.6-5,4.3-9.2,4.3C232.4,143,227.7,138.6,227.7,132z M242.1,130.2
		c-0.3-2.3-1.6-3.8-3.7-3.8c-2,0-3.3,1.5-3.7,3.8H242.1z"/>
	<path class="st0" d="M251.7,134.9h7.7v7.6h-7.7V134.9z"/>
</g>
</svg>
