<?xml version="1.0" encoding="utf-8"?>
<!-- Generator: Adobe Illustrator 25.4.1, SVG Export Plug-In . SVG Version: 6.00 Build 0)  -->
<svg version="1.1" id="Layer_1" xmlns="http://www.w3.org/2000/svg" xmlns:xlink="http://www.w3.org/1999/xlink" x="0px" y="0px"
	 viewBox="0 0 300 250" style="enable-background:new 0 0 300 250;" xml:space="preserve">
<style type="text/css">
	.st0{fill:#461211;}
</style>
<g>
	<path class="st0" d="M16.5,76.4h8l4.8,15.8l5.3-15.9h6.5l5.3,15.9l4.8-15.8h7.8l-9.1,27.5h-6.6l-5.5-15.7l-5.5,15.7h-6.6L16.5,76.4
		z"/>
	<path class="st0" d="M58.1,93.3L58.1,93.3c0-6.2,4.4-11.1,10.7-11.1c7.3,0,10.7,5.3,10.7,11.5c0,0.5,0,1,0,1.5H65.2
		c0.6,2.3,2.3,3.5,4.6,3.5c1.8,0,3.2-0.7,4.7-2.1l4.1,3.4c-2,2.6-5,4.3-9.2,4.3C62.8,104.2,58.1,99.8,58.1,93.3z M72.4,91.4
		c-0.3-2.3-1.6-3.8-3.7-3.8c-2,0-3.3,1.5-3.7,3.8H72.4z"/>
	<path class="st0" d="M93.4,75.2h7.4v10.3c1.4-1.8,3.3-3.4,6.3-3.4c4.5,0,7.2,3,7.2,7.8v13.8h-7.4V92.3c0-2.3-1.2-3.6-3-3.6
		c-1.8,0-3.1,1.2-3.1,3.6v11.4h-7.4V75.2z"/>
	<path class="st0" d="M117,97.7L117,97.7c0-4.4,3.3-6.7,8.3-6.7c2,0,3.9,0.4,5.1,0.8v-0.4c0-2.2-1.4-3.4-4.2-3.4
		c-2.2,0-3.9,0.4-5.8,1.2l-1.5-5.2c2.4-1,4.9-1.6,8.5-1.6c3.8,0,6.4,0.9,8,2.6c1.6,1.6,2.3,3.7,2.3,6.7v12.1h-7.3v-2.2
		c-1.4,1.6-3.4,2.7-6.2,2.7C120.1,104.2,117,101.9,117,97.7z M130.5,96.1v-1c-0.7-0.3-1.8-0.5-2.9-0.5c-2.1,0-3.4,1.1-3.4,2.6v0.1
		c0,1.4,1.1,2.3,2.6,2.3C128.9,99.5,130.5,98.2,130.5,96.1z"/>
	<path class="st0" d="M138.8,82.6h7.8l4.1,12.3l4.1-12.3h7.7l-8.4,21.3h-6.7L138.8,82.6z"/>
	<path class="st0" d="M162.7,93.3L162.7,93.3c0-6.2,4.4-11.1,10.7-11.1c7.3,0,10.7,5.3,10.7,11.5c0,0.5,0,1,0,1.5h-14.1
		c0.6,2.3,2.3,3.5,4.6,3.5c1.8,0,3.2-0.7,4.7-2.1l4.1,3.4c-2,2.6-5,4.3-9.2,4.3C167.4,104.2,162.7,99.8,162.7,93.3z M177.1,91.4
		c-0.3-2.3-1.6-3.8-3.7-3.8c-2,0-3.3,1.5-3.7,3.8H177.1z"/>
</g>
<g>
	<path class="st0" d="M17.4,147.5l2.3-5.2c1.2,0.7,2.4,1.1,3.2,1.1c0.7,0,1.2-0.2,1.7-0.9l-8.3-20.7h7.8l4.2,12.7l4-12.7h7.6
		l-7.7,20.6c-1.8,4.9-3.8,6.9-8,6.9C21.6,149.4,19.3,148.6,17.4,147.5z"/>
	<path class="st0" d="M40.4,132.6L40.4,132.6c0-6.1,4.9-11.1,11.7-11.1c6.8,0,11.6,5,11.6,11v0.1c0,6-4.9,11-11.7,11
		C45.2,143.5,40.4,138.6,40.4,132.6z M56.5,132.6L56.5,132.6c0-2.7-1.9-4.8-4.5-4.8c-2.7,0-4.4,2.1-4.4,4.7v0.1
		c0,2.6,1.9,4.8,4.5,4.8C54.8,137.2,56.5,135.1,56.5,132.6z"/>
	<path class="st0" d="M66.7,135.7v-13.8h7.4v11.4c0,2.3,1.2,3.5,3,3.5c1.8,0,3.1-1.2,3.1-3.5v-11.4h7.4V143h-7.4v-2.9
		c-1.4,1.8-3.3,3.4-6.3,3.4C69.4,143.5,66.7,140.5,66.7,135.7z"/>
	<path class="st0" d="M91.6,121.9H99v4.3c1.2-2.9,3.2-4.8,6.7-4.6v7.8H105c-3.9,0-6,2.2-6,7.1v6.6h-7.4V121.9z"/>
	<path class="st0" d="M126.2,122.3H118v-6.6h24v6.6h-8.2V143h-7.6V122.3z"/>
	<path class="st0" d="M143.1,115.7h8.5l6.2,17.3l6.2-17.3h8.3l-11.1,27.5h-7L143.1,115.7z"/>
	<path class="st0" d="M169.5,135.4h7.7v7.6h-7.7V135.4z"/>
</g>
</svg>
