<?xml version="1.0" encoding="utf-8"?>
<!-- Generator: Adobe Illustrator 25.4.1, SVG Export Plug-In . SVG Version: 6.00 Build 0)  -->
<svg version="1.1" id="Layer_1" xmlns="http://www.w3.org/2000/svg" xmlns:xlink="http://www.w3.org/1999/xlink" x="0px" y="0px"
	 viewBox="0 0 300 250" style="enable-background:new 0 0 300 250;" xml:space="preserve">
<style type="text/css">
	.st0{fill:#461211;}
</style>
<g>
	<path class="st0" d="M18.3,76.5H26v27.3h-7.6V76.5z"/>
	<path class="st0" d="M31.8,97.3v-8.6h-2.5v-6h2.5v-5.3h7.4v5.3h4.9v6h-4.9v7.1c0,1.5,0.7,2.1,2,2.1c1,0,1.9-0.3,2.8-0.7v5.8
		c-1.3,0.7-3.1,1.2-5.2,1.2C34.5,104.2,31.8,102.3,31.8,97.3z"/>
	<path class="st0" d="M46.3,97.8L46.3,97.8c0-4.4,3.3-6.7,8.3-6.7c2,0,3.9,0.4,5.1,0.8v-0.4c0-2.2-1.4-3.4-4.2-3.4
		c-2.2,0-3.9,0.4-5.8,1.2L48.1,84c2.4-1,4.9-1.6,8.5-1.6c3.8,0,6.4,0.9,8,2.6c1.6,1.6,2.3,3.7,2.3,6.7v12.1h-7.3v-2.2
		c-1.4,1.6-3.4,2.7-6.2,2.7C49.4,104.3,46.3,102,46.3,97.8z M59.7,96.2v-1c-0.7-0.3-1.8-0.5-2.9-0.5c-2.1,0-3.4,1.1-3.4,2.6v0.1
		c0,1.4,1.1,2.3,2.6,2.3C58.2,99.6,59.7,98.3,59.7,96.2z"/>
	<path class="st0" d="M70.9,75.3h7.4v28.5h-7.4V75.3z"/>
	<path class="st0" d="M81.6,93.4L81.6,93.4c0-6.1,4.9-11.1,11.7-11.1c6.8,0,11.6,5,11.6,11v0.1c0,6-4.9,11-11.7,11
		C86.4,104.3,81.6,99.4,81.6,93.4z M97.7,93.4L97.7,93.4c0-2.7-1.9-4.8-4.5-4.8c-2.7,0-4.4,2.1-4.4,4.7v0.1c0,2.6,1.9,4.8,4.5,4.8
		C96,98,97.7,95.9,97.7,93.4z"/>
	<path class="st0" d="M108,82.7h7.4v2.8c1.4-1.8,3.2-3.3,6.4-3.3c5,0,9.4,4.2,9.4,10.9v0.1c0,6.9-4.3,11-9.3,11
		c-3.2,0-5.1-1.4-6.4-3v8.8H108V82.7z M123.9,93.3L123.9,93.3c0-2.8-1.9-4.8-4.3-4.8c-2.4,0-4.3,2-4.3,4.8v0.1
		c0,2.8,1.9,4.8,4.3,4.8C122,98.1,123.9,96.1,123.9,93.3z"/>
	<path class="st0" d="M134.4,75.3h7.4v10.3c1.4-1.8,3.3-3.4,6.3-3.4c4.5,0,7.2,3,7.2,7.8v13.8h-7.4V92.4c0-2.3-1.2-3.6-3-3.6
		c-1.8,0-3.1,1.2-3.1,3.6v11.4h-7.4V75.3z"/>
	<path class="st0" d="M159.1,75.3h7.7v5.5h-7.7V75.3z M159.3,82.7h7.4v21.1h-7.4V82.7z"/>
	<path class="st0" d="M171,75.3h7.4v28.5H171V75.3z"/>
	<path class="st0" d="M181.7,93.4L181.7,93.4c0-6.2,4.4-11.1,10.7-11.1c7.3,0,10.7,5.3,10.7,11.5c0,0.5,0,1,0,1.5h-14.1
		c0.6,2.3,2.3,3.5,4.6,3.5c1.8,0,3.2-0.7,4.7-2.1l4.1,3.4c-2,2.6-5,4.3-9.2,4.3C186.4,104.3,181.7,99.9,181.7,93.4z M196,91.5
		c-0.3-2.3-1.6-3.8-3.7-3.8c-2,0-3.3,1.5-3.7,3.8H196z"/>
	<path class="st0" d="M205.7,96.2h7.7v7.6h-7.7V96.2z"/>
</g>
</svg>
