<?xml version="1.0" encoding="utf-8"?>
<!-- Generator: Adobe Illustrator 25.4.1, SVG Export Plug-In . SVG Version: 6.00 Build 0)  -->
<svg version="1.1" id="Layer_1" xmlns="http://www.w3.org/2000/svg" xmlns:xlink="http://www.w3.org/1999/xlink" x="0px" y="0px"
	 viewBox="0 0 300 250" style="enable-background:new 0 0 300 250;" xml:space="preserve">
<style type="text/css">
	.st0{fill:#461211;}
</style>
<g>
	<path class="st0" d="M18,154.5h22v6.4H25.5v4.1h13.1v6H25.5v4.3h14.7v6.4H18V154.5z"/>
	<path class="st0" d="M43.5,174.5v-13.8h7.4v11.4c0,2.3,1.2,3.5,3,3.5c1.8,0,3.1-1.2,3.1-3.5v-11.4h7.4v21.1H57v-2.9
		c-1.4,1.8-3.3,3.4-6.3,3.4C46.2,182.2,43.5,179.3,43.5,174.5z"/>
	<path class="st0" d="M68.4,160.7h7.4v4.3c1.2-2.9,3.2-4.8,6.7-4.6v7.8h-0.6c-3.9,0-6,2.2-6,7.1v6.6h-7.4V160.7z"/>
	<path class="st0" d="M83.9,171.3L83.9,171.3c0-6.1,4.9-11.1,11.7-11.1c6.8,0,11.6,5,11.6,11v0.1c0,6-4.9,11-11.7,11
		C88.8,182.3,83.9,177.3,83.9,171.3z M100,171.3L100,171.3c0-2.7-1.9-4.8-4.5-4.8c-2.7,0-4.4,2.1-4.4,4.7v0.1c0,2.6,1.9,4.8,4.5,4.8
		C98.3,176,100,173.8,100,171.3z"/>
	<path class="st0" d="M110.3,160.7h7.4v2.8c1.4-1.8,3.2-3.3,6.4-3.3c5,0,9.4,4.2,9.4,10.9v0.1c0,6.9-4.3,11-9.3,11
		c-3.2,0-5.1-1.4-6.4-3v8.8h-7.4V160.7z M126.2,171.2L126.2,171.2c0-2.8-1.9-4.8-4.3-4.8c-2.4,0-4.3,2-4.3,4.8v0.1
		c0,2.8,1.9,4.8,4.3,4.8C124.3,176,126.2,174.1,126.2,171.2z"/>
	<path class="st0" d="M136.7,153.3h7.4v10.3c1.4-1.8,3.3-3.4,6.3-3.4c4.5,0,7.2,3,7.2,7.8v13.8h-7.4v-11.4c0-2.3-1.2-3.6-3-3.6
		c-1.8,0-3.1,1.2-3.1,3.6v11.4h-7.4V153.3z"/>
	<path class="st0" d="M161.4,153.3h7.7v5.5h-7.7V153.3z M161.6,160.7h7.4v21.1h-7.4V160.7z"/>
	<path class="st0" d="M173.3,153.3h7.4v28.5h-7.4V153.3z"/>
	<path class="st0" d="M184,171.3L184,171.3c0-6.2,4.4-11.1,10.7-11.1c7.3,0,10.7,5.3,10.7,11.5c0,0.5,0,1,0,1.5h-14.1
		c0.6,2.3,2.3,3.5,4.6,3.5c1.8,0,3.2-0.7,4.7-2.1l4.1,3.4c-2,2.6-5,4.3-9.2,4.3C188.7,182.3,184,177.9,184,171.3z M198.4,169.5
		c-0.3-2.3-1.6-3.8-3.7-3.8c-2,0-3.3,1.5-3.7,3.8H198.4z"/>
	<path class="st0" d="M208,174.2h7.7v7.6H208V174.2z"/>
</g>
</svg>
