<?xml version="1.0" encoding="utf-8"?>
<!-- Generator: Adobe Illustrator 25.4.1, SVG Export Plug-In . SVG Version: 6.00 Build 0)  -->
<svg version="1.1" id="Layer_1" xmlns="http://www.w3.org/2000/svg" xmlns:xlink="http://www.w3.org/1999/xlink" x="0px" y="0px"
	 viewBox="0 0 300 250" style="enable-background:new 0 0 300 250;" xml:space="preserve">
<style type="text/css">
	.st0{clip-path:url(#SVGID_00000127741896252549795870000017340366931415389570_);fill:#AC1F2D;}
	.st1{clip-path:url(#SVGID_00000127741896252549795870000017340366931415389570_);fill:#FFFFFF;}
</style>
<g>
	<defs>
		<rect id="SVGID_1_" x="17" y="9.4" width="46.8" height="51.6"/>
	</defs>
	<clipPath id="SVGID_00000054949196467333067470000016264207386068669610_">
		<use xlink:href="#SVGID_1_"  style="overflow:visible;"/>
	</clipPath>
	<path style="clip-path:url(#SVGID_00000054949196467333067470000016264207386068669610_);fill:#AC1F2D;" d="M60.6,34.7
		c0,12-9.7,21.7-21.7,21.7c-12,0-21.7-9.7-21.7-21.7c0-12,9.7-21.7,21.7-21.7C50.9,13,60.6,22.7,60.6,34.7"/>
	<path style="clip-path:url(#SVGID_00000054949196467333067470000016264207386068669610_);fill:#FFFFFF;" d="M47.5,30.7v2.5h2.8
		L47,38.4h8.2v-2.5h-3.5l3.2-5.1H47.5z M31.4,27.6l-2.6,5.9l-2.6-5.9h-3.7v10.8h3v-5.7l2.6,5.7h1.3l2.6-5.9v5.9h3V27.6H31.4z
		 M43.3,27.6v3.8h-3.8v-3.8h-3.3v10.8h3.3v-4.3h3.8v4.3h3.3V27.6H43.3z"/>
	<path style="clip-path:url(#SVGID_00000054949196467333067470000016264207386068669610_);fill:#FFFFFF;" d="M47.3,42.8h2.9V42h-1.9
		v-0.6H50v-0.8h-1.7v-0.5h1.9v-0.8h-2.9V42.8z M45,42.9c0.8,0,1.2-0.3,1.6-0.8l-0.7-0.5C45.6,41.8,45.4,42,45,42
		c-0.5,0-0.8-0.4-0.8-1v0c0-0.5,0.4-0.9,0.8-0.9c0.3,0,0.6,0.2,0.8,0.4l0.7-0.6c-0.3-0.4-0.8-0.7-1.5-0.7c-1.1,0-1.9,0.8-1.9,1.9v0
		C43.2,42.1,44,42.9,45,42.9 M41.4,42.8h1v-3.6h-1V42.8z M38.6,42c-0.5,0-0.9-0.4-0.9-1v0c0-0.5,0.4-1,0.9-1c0.5,0,0.9,0.4,0.9,1v0
		C39.5,41.5,39.1,42,38.6,42 M38.6,42.9c1.1,0,1.9-0.8,1.9-1.9v0c0-1-0.8-1.8-1.9-1.8c-1.1,0-1.9,0.8-1.9,1.9v0
		C36.7,42.1,37.5,42.9,38.6,42.9 M32.6,42.8h1v-1.4h1.3v1.4h1v-3.6h-1v1.3h-1.3v-1.3h-1V42.8z M30.3,42.9c0.8,0,1.2-0.3,1.6-0.8
		l-0.7-0.5c-0.2,0.3-0.4,0.4-0.8,0.4c-0.5,0-0.8-0.4-0.8-1v0c0-0.5,0.4-0.9,0.8-0.9c0.3,0,0.6,0.2,0.8,0.4l0.7-0.6
		c-0.3-0.4-0.8-0.7-1.5-0.7c-1.1,0-1.9,0.8-1.9,1.9v0C28.5,42.1,29.3,42.9,30.3,42.9"/>
</g>
</svg>
