<?xml version="1.0" encoding="utf-8"?>
<!-- Generator: Adobe Illustrator 25.4.1, SVG Export Plug-In . SVG Version: 6.00 Build 0)  -->
<svg version="1.1" id="Layer_1" xmlns="http://www.w3.org/2000/svg" xmlns:xlink="http://www.w3.org/1999/xlink" x="0px" y="0px"
	 viewBox="0 0 300 600" style="enable-background:new 0 0 300 600;" xml:space="preserve">
<style type="text/css">
	.st0{clip-path:url(#SVGID_00000038400849707612006400000015579879930384089770_);fill:#AC1F2D;}
	.st1{clip-path:url(#SVGID_00000038400849707612006400000015579879930384089770_);fill:#FFFFFF;}
</style>
<g>
	<defs>
		<rect id="SVGID_1_" x="19" y="14" width="75.3" height="83"/>
	</defs>
	<clipPath id="SVGID_00000151522693282217420860000000201205902183528065_">
		<use xlink:href="#SVGID_1_"  style="overflow:visible;"/>
	</clipPath>
	<path style="clip-path:url(#SVGID_00000151522693282217420860000000201205902183528065_);fill:#AC1F2D;" d="M89.2,54.7
		c0,19.3-15.6,34.9-34.9,34.9c-19.3,0-34.9-15.6-34.9-34.9S35,19.8,54.3,19.8C73.5,19.8,89.2,35.4,89.2,54.7"/>
	<path style="clip-path:url(#SVGID_00000151522693282217420860000000201205902183528065_);fill:#FFFFFF;" d="M68.2,48.3v4h4.5
		l-5.3,8.4h13.2v-4.1h-5.6l5.1-8.3H68.2z M42.3,43.3l-4.2,9.4l-4.2-9.4H28v17.3h4.8v-9.2l4.2,9.2h2.1l4.2-9.5v9.5h4.9V43.3H42.3z
		 M61.4,43.3v6.1h-6.1v-6.1h-5.4v17.3h5.4v-6.9h6.1v6.9h5.4V43.3H61.4z"/>
	<path style="clip-path:url(#SVGID_00000151522693282217420860000000201205902183528065_);fill:#FFFFFF;" d="M67.8,67.7h4.7v-1.4
		h-3.1v-0.9h2.8v-1.3h-2.8v-0.9h3V62h-4.6V67.7z M64.1,67.9c1.3,0,2-0.5,2.5-1.3l-1.2-0.9c-0.3,0.4-0.7,0.7-1.3,0.7
		c-0.8,0-1.4-0.7-1.4-1.5v0c0-0.8,0.6-1.5,1.4-1.5c0.5,0,0.9,0.3,1.3,0.7l1.2-0.9c-0.5-0.7-1.3-1.2-2.4-1.2c-1.7,0-3,1.3-3,3v0
		C61.2,66.6,62.5,67.9,64.1,67.9 M58.2,67.7h1.6V62h-1.6V67.7z M53.8,66.4c-0.9,0-1.5-0.7-1.5-1.5v0c0-0.8,0.6-1.5,1.5-1.5
		c0.9,0,1.5,0.7,1.5,1.5v0C55.3,65.7,54.7,66.4,53.8,66.4 M53.8,67.9c1.8,0,3.1-1.3,3.1-3v0c0-1.6-1.3-3-3.1-3c-1.8,0-3.1,1.3-3.1,3
		v0C50.7,66.5,52,67.9,53.8,67.9 M44.2,67.7h1.6v-2.2h2v2.2h1.6V62h-1.6v2.1h-2V62h-1.6V67.7z M40.5,67.9c1.3,0,2-0.5,2.5-1.3
		l-1.2-0.9c-0.3,0.4-0.7,0.7-1.3,0.7c-0.8,0-1.4-0.7-1.4-1.5v0c0-0.8,0.6-1.5,1.4-1.5c0.5,0,0.9,0.3,1.3,0.7l1.2-0.9
		c-0.5-0.7-1.3-1.2-2.4-1.2c-1.7,0-3,1.3-3,3v0C37.5,66.6,38.8,67.9,40.5,67.9"/>
</g>
</svg>
