<?xml version="1.0" encoding="utf-8"?>
<!-- Generator: Adobe Illustrator 26.3.1, SVG Export Plug-In . SVG Version: 6.00 Build 0)  -->
<svg version="1.1" id="Layer_1" xmlns="http://www.w3.org/2000/svg" xmlns:xlink="http://www.w3.org/1999/xlink" x="0px" y="0px"
	 viewBox="0 0 300 250" style="enable-background:new 0 0 300 250;" xml:space="preserve">
<style type="text/css">
	.st0{fill:#490A09;}
</style>
<g>
	<path class="st0" d="M17.6,95.3c0-8,6.5-15,16-15c5,0,8.6,2,10.4,4.3l-4.6,4.5c-1.5-1.5-3.5-2.6-6.2-2.6c-5,0-8.5,3.9-8.5,8.5
		c0,3.5,2.5,5.3,5.6,5.3c1.4,0,2.5-0.3,3.3-0.7l1-3.4h-4.8l1.3-5.1h11.5L39,103.9c-2.5,1.4-5.7,2.5-9.4,2.5
		C23.6,106.4,17.6,103,17.6,95.3z"/>
	<path class="st0" d="M49.4,79.8h6.8l-7,26.1h-6.8L49.4,79.8z"/>
	<path class="st0" d="M54.8,97.3c0-5.8,4.9-11.2,11.4-11.2c5.9,0,9.5,3.9,9.5,9c0,5.9-4.9,11.3-11.4,11.3
		C58.4,106.3,54.8,102.4,54.8,97.3z M69.2,95.3c0-2.2-1.4-3.6-3.4-3.6c-2.7,0-4.5,2.8-4.5,5.3c0,2.2,1.4,3.6,3.4,3.6
		C67.4,100.7,69.2,97.8,69.2,95.3z"/>
	<path class="st0" d="M81.2,86.5H88l-1,3.9c1.9-2.8,4.1-4.4,7.3-4.2l-1.9,7.1h-0.6c-3.7,0-6.1,2.1-7.3,6.7l-1.6,5.8H76L81.2,86.5z"
		/>
	<path class="st0" d="M96.7,86.5h6.8l-5.2,19.3h-6.8L96.7,86.5z M98.4,79.8h7.1l-1.4,5h-7.1L98.4,79.8z"/>
	<path class="st0" d="M102.9,101c0-4.3,3.4-6.8,8.5-6.8c1.8,0,3.4,0.3,4.9,0.8l0.1-0.2c0.1-0.3,0.2-0.7,0.2-1.2c0-1.3-1-2.1-3.3-2.1
		c-1.8,0-3.9,0.4-5.2,1l-1-4.9c2-0.7,4.8-1.2,7.6-1.2c5.8,0,8.6,2.3,8.6,6.1c0,0.9-0.1,1.8-0.4,2.8l-2.9,10.6h-6.7l0.5-2.1
		c-1.6,1.5-3.3,2.5-5.6,2.5C105.1,106.2,102.9,104.2,102.9,101z M115.4,98.6l0.2-0.6c-0.8-0.2-1.6-0.4-2.5-0.4c-2.1,0-3.5,1-3.5,2.8
		c0,1.1,0.8,1.8,1.9,1.8C113.2,102.1,114.9,100.5,115.4,98.6z"/>
</g>
<g>
	<path class="st0" d="M125.7,98.9h7.1v7h-7.1V98.9z"/>
</g>
</svg>
