<?xml version="1.0" encoding="utf-8"?>
<!-- Generator: Adobe Illustrator 26.3.1, SVG Export Plug-In . SVG Version: 6.00 Build 0)  -->
<svg version="1.1" id="Layer_1" xmlns="http://www.w3.org/2000/svg" xmlns:xlink="http://www.w3.org/1999/xlink" x="0px" y="0px"
	 viewBox="0 0 300 250" style="enable-background:new 0 0 300 250;" xml:space="preserve">
<style type="text/css">
	.st0{fill:#490A09;}
</style>
<g>
	<path class="st0" d="M17.4,98.8h7.4v10h9.5v-10h7.4v26.6h-7.4v-10.1h-9.5v10.1h-7.4V98.8z"/>
	<path class="st0" d="M45,115.2L45,115.2c0-6.1,4.3-10.8,10.4-10.8c7.1,0,10.4,5.2,10.4,11.2c0,0.5,0,1,0,1.5H52
		c0.6,2.2,2.2,3.4,4.4,3.4c1.7,0,3.1-0.6,4.6-2.1l4,3.3c-2,2.5-4.8,4.2-8.9,4.2C49.6,125.9,45,121.6,45,115.2z M59,113.5
		c-0.3-2.3-1.6-3.7-3.6-3.7c-1.9,0-3.2,1.5-3.6,3.7H59z"/>
	<path class="st0" d="M77.9,104.9H85l2.7,10.3l3.2-10.4h6l3.2,10.5l2.8-10.4h7l-6.3,20.7h-6.2l-3.3-10.7l-3.4,10.7h-6.2L77.9,104.9z
		"/>
	<path class="st0" d="M110.2,119.5L110.2,119.5c0-4.3,3.2-6.5,8.1-6.5c1.9,0,3.8,0.4,4.9,0.8v-0.3c0-2.1-1.3-3.3-4.1-3.3
		c-2.2,0-3.8,0.4-5.7,1.1l-1.5-5.1c2.3-0.9,4.8-1.6,8.3-1.6c3.7,0,6.2,0.9,7.8,2.5c1.6,1.5,2.2,3.6,2.2,6.5v11.8h-7.1v-2.1
		c-1.4,1.6-3.3,2.6-6,2.6C113.2,125.9,110.2,123.6,110.2,119.5z M123.2,118v-1c-0.7-0.3-1.7-0.5-2.8-0.5c-2.1,0-3.3,1-3.3,2.5v0.1
		c0,1.4,1.1,2.2,2.5,2.2C121.7,121.4,123.2,120,123.2,118z"/>
	<path class="st0" d="M132.4,122.8l2.7-4.4c2.4,1.6,4.9,2.4,7.1,2.4c1.3,0,1.8-0.4,1.8-1.1v-0.1c0-0.8-1.1-1.1-3.3-1.7
		c-4.1-1.1-7.3-2.4-7.3-6.6v-0.1c0-4.4,3.5-6.8,8.2-6.8c3,0,6.1,0.9,8.5,2.4l-2.5,4.6c-2.1-1.2-4.4-1.9-6.1-1.9
		c-1.1,0-1.7,0.4-1.7,1v0.1c0,0.8,1.2,1.2,3.3,1.8c4.1,1.1,7.3,2.5,7.3,6.5v0.1c0,4.5-3.4,6.9-8.4,6.9
		C138.6,125.9,135.2,124.9,132.4,122.8z"/>
	<path class="st0" d="M164,97.7h7.2v10c1.3-1.7,3.2-3.3,6.2-3.3c4.4,0,7,2.9,7,7.6v13.5h-7.2v-11.1c0-2.2-1.2-3.5-2.9-3.5
		c-1.7,0-3,1.2-3,3.5v11.1H164V97.7z"/>
	<path class="st0" d="M187.3,115.2L187.3,115.2c0-6.1,4.3-10.8,10.4-10.8c7.1,0,10.4,5.2,10.4,11.2c0,0.5,0,1,0,1.5h-13.8
		c0.6,2.2,2.2,3.4,4.4,3.4c1.7,0,3.1-0.6,4.6-2.1l4,3.3c-2,2.5-4.8,4.2-8.9,4.2C191.8,125.9,187.3,121.6,187.3,115.2z M201.2,113.5
		c-0.3-2.3-1.6-3.7-3.6-3.7c-1.9,0-3.2,1.5-3.6,3.7H201.2z"/>
	<path class="st0" d="M211.1,104.9h7.2v4.1c1.2-2.8,3.1-4.6,6.5-4.5v7.6h-0.6c-3.8,0-5.9,2.2-5.9,6.9v6.4h-7.2V104.9z"/>
</g>
<g>
	<path class="st0" d="M16.9,135.7h7.2v10c1.3-1.7,3.2-3.3,6.2-3.3c4.4,0,7,2.9,7,7.6v13.5h-7.2v-11.1c0-2.2-1.2-3.5-2.9-3.5
		c-1.7,0-3,1.2-3,3.5v11.1h-7.2V135.7z"/>
	<path class="st0" d="M40.9,156.3v-13.5h7.2V154c0,2.2,1.2,3.5,2.9,3.5c1.7,0,3-1.2,3-3.5v-11.1h7.2v20.6H54v-2.8
		c-1.3,1.7-3.2,3.3-6.2,3.3C43.5,163.9,40.9,161,40.9,156.3z"/>
	<path class="st0" d="M63.6,160.8l2.7-4.4c2.4,1.6,4.9,2.4,7.1,2.4c1.3,0,1.8-0.4,1.8-1.1v-0.1c0-0.8-1.1-1.1-3.3-1.7
		c-4.1-1.1-7.3-2.4-7.3-6.6v-0.1c0-4.4,3.5-6.8,8.2-6.8c3,0,6.1,0.9,8.5,2.4l-2.5,4.6c-2.1-1.2-4.4-1.9-6.1-1.9
		c-1.1,0-1.7,0.4-1.7,1v0.1c0,0.8,1.2,1.2,3.3,1.8c4.1,1.1,7.3,2.5,7.3,6.5v0.1c0,4.5-3.4,6.9-8.4,6.9
		C69.8,163.9,66.4,162.9,63.6,160.8z"/>
	<path class="st0" d="M91.9,160.9v2.5h-7.2v-27.7h7.2v9.9c1.4-1.7,3.2-3.2,6.2-3.2c4.9,0,9.1,4.1,9.1,10.6v0.1
		c0,6.7-4.2,10.8-9.1,10.8C95,163.9,93.2,162.5,91.9,160.9z M100.1,153.2L100.1,153.2c0-2.8-1.9-4.7-4.2-4.7c-2.3,0-4.2,1.9-4.2,4.6
		v0.1c0,2.7,1.9,4.7,4.2,4.7C98.3,157.8,100.1,155.9,100.1,153.2z"/>
	<path class="st0" d="M109.3,157.5L109.3,157.5c0-4.3,3.2-6.5,8.1-6.5c1.9,0,3.8,0.4,4.9,0.8v-0.3c0-2.1-1.3-3.3-4.1-3.3
		c-2.2,0-3.8,0.4-5.7,1.1l-1.5-5.1c2.3-1,4.8-1.6,8.3-1.6c3.7,0,6.2,0.9,7.8,2.5c1.6,1.5,2.2,3.6,2.2,6.5v11.8h-7.1v-2.1
		c-1.4,1.6-3.3,2.6-6,2.6C112.3,163.9,109.3,161.6,109.3,157.5z M122.4,156V155c-0.7-0.3-1.7-0.5-2.8-0.5c-2.1,0-3.3,1-3.3,2.5v0.1
		c0,1.4,1.1,2.2,2.5,2.2C120.9,159.4,122.4,158,122.4,156z"/>
	<path class="st0" d="M133.1,142.9h7.2v2.9c1.3-1.7,3.2-3.3,6.2-3.3c4.4,0,7,2.9,7,7.6v13.5h-7.2v-11.1c0-2.2-1.2-3.5-2.9-3.5
		c-1.7,0-3,1.2-3,3.5v11.1h-7.2V142.9z"/>
	<path class="st0" d="M156.4,153.2L156.4,153.2c0-6.8,4.2-10.8,9-10.8c3.1,0,4.9,1.4,6.3,3v-9.7h7.2v27.7h-7.2v-2.7
		c-1.4,1.7-3.2,3.2-6.3,3.2C160.7,163.9,156.4,159.8,156.4,153.2z M171.9,153.2L171.9,153.2c0-2.8-1.9-4.7-4.2-4.7
		c-2.3,0-4.2,1.9-4.2,4.6v0.1c0,2.7,1.9,4.7,4.2,4.7C170,157.8,171.9,155.9,171.9,153.2z"/>
	<path class="st0" d="M182.6,156h7.5v7.4h-7.5V156z"/>
</g>
</svg>
