<?xml version="1.0" encoding="utf-8"?>
<!-- Generator: Adobe Illustrator 26.3.1, SVG Export Plug-In . SVG Version: 6.00 Build 0)  -->
<svg version="1.1" id="Layer_1" xmlns="http://www.w3.org/2000/svg" xmlns:xlink="http://www.w3.org/1999/xlink" x="0px" y="0px"
	 viewBox="0 0 300 250" style="enable-background:new 0 0 300 250;" xml:space="preserve">
<style type="text/css">
	.st0{fill:#490A09;}
</style>
<g>
	<path class="st0" d="M24.1,127.6h-7.5v-6.1h21.9v6.1H31v18.9h-6.9V127.6z"/>
	<path class="st0" d="M41.2,120.5H48v9.4c1.2-1.6,3-3.1,5.8-3.1c4.1,0,6.6,2.7,6.6,7.1v12.6h-6.8v-10.5c0-2.1-1.1-3.3-2.7-3.3
		c-1.6,0-2.9,1.1-2.9,3.3v10.5h-6.8V120.5z"/>
	<path class="st0" d="M63,137L63,137c0-5.7,4-10.2,9.8-10.2c6.7,0,9.8,4.9,9.8,10.6c0,0.4,0,0.9,0,1.4H69.6c0.5,2.1,2.1,3.2,4.2,3.2
		c1.6,0,2.9-0.6,4.3-2l3.8,3.1c-1.9,2.4-4.5,3.9-8.4,3.9C67.3,147,63,143,63,137z M76.2,135.3c-0.2-2.1-1.5-3.5-3.4-3.5
		c-1.8,0-3,1.4-3.4,3.5H76.2z"/>
	<path class="st0" d="M95.3,127.2h6.8v2.7c1.2-1.6,3-3.1,5.8-3.1c4.1,0,6.6,2.7,6.6,7.1v12.6h-6.8v-10.5c0-2.1-1.1-3.3-2.7-3.3
		c-1.6,0-2.9,1.1-2.9,3.3v10.5h-6.8V127.2z"/>
	<path class="st0" d="M117.2,137L117.2,137c0-5.7,4-10.2,9.8-10.2c6.7,0,9.8,4.9,9.8,10.6c0,0.4,0,0.9,0,1.4h-12.9
		c0.5,2.1,2.1,3.2,4.2,3.2c1.6,0,2.9-0.6,4.3-2l3.8,3.1c-1.9,2.4-4.5,3.9-8.4,3.9C121.5,147,117.2,143,117.2,137z M130.3,135.3
		c-0.2-2.1-1.5-3.5-3.4-3.5c-1.8,0-3,1.4-3.4,3.5H130.3z"/>
	<path class="st0" d="M137.3,127.2h6.6l2.5,9.7l3-9.8h5.6l3,9.9l2.6-9.8h6.5l-6,19.5h-5.9l-3.1-10l-3.2,10h-5.8L137.3,127.2z"/>
</g>
<g>
	<path class="st0" d="M18,154.5h20v6.1H24.9v4.2h11.8v5.8H24.9v8.9H18V154.5z"/>
	<path class="st0" d="M40.8,160.1h6.8v3.9c1.1-2.6,2.9-4.4,6.1-4.2v7.1h-0.6c-3.5,0-5.5,2-5.5,6.5v6h-6.8V160.1z"/>
	<path class="st0" d="M54.9,169.9L54.9,169.9c0-5.7,4-10.2,9.8-10.2c6.7,0,9.8,4.9,9.8,10.6c0,0.4,0,0.9,0,1.4H61.4
		c0.5,2.1,2.1,3.2,4.2,3.2c1.6,0,2.9-0.6,4.3-2l3.8,3.1c-1.9,2.4-4.5,3.9-8.4,3.9C59.2,179.9,54.9,175.9,54.9,169.9z M68,168.2
		c-0.2-2.1-1.5-3.5-3.4-3.5c-1.8,0-3,1.4-3.4,3.5H68z"/>
	<path class="st0" d="M77.3,160.1h6.8v2.7c1.2-1.6,3-3.1,5.8-3.1c4.1,0,6.6,2.7,6.6,7.1v12.6h-6.8V169c0-2.1-1.1-3.3-2.7-3.3
		c-1.6,0-2.9,1.1-2.9,3.3v10.5h-6.8V160.1z"/>
	<path class="st0" d="M99.2,169.9L99.2,169.9c0-5.5,4.3-10.1,10.4-10.1c4,0,6.6,1.7,8.3,4.3l-4.6,3.4c-0.9-1.3-2-2-3.6-2
		c-2.2,0-3.8,1.9-3.8,4.3v0.1c0,2.5,1.6,4.4,3.9,4.4c1.6,0,2.6-0.8,3.7-2l4.5,3.3c-1.8,2.6-4.4,4.4-8.6,4.4
		C103.4,179.9,99.2,175.4,99.2,169.9z"/>
	<path class="st0" d="M120.3,153.4h6.8v9.4c1.2-1.6,3-3.1,5.8-3.1c4.1,0,6.6,2.7,6.6,7.1v12.6h-6.8V169c0-2.1-1.1-3.3-2.7-3.3
		c-1.6,0-2.9,1.1-2.9,3.3v10.5h-6.8V153.4z"/>
	<path class="st0" d="M154,173.5v-7.9h-2.3v-5.5h2.3v-4.9h6.8v4.9h4.5v5.5h-4.5v6.5c0,1.4,0.6,1.9,1.9,1.9c0.9,0,1.8-0.2,2.6-0.6
		v5.3c-1.2,0.7-2.8,1.1-4.7,1.1C156.4,179.9,154,178.1,154,173.5z"/>
	<path class="st0" d="M168.2,153.4h6.8v9.4c1.3-1.6,3-3.1,5.8-3.1c4.1,0,6.6,2.7,6.6,7.1v12.6h-6.8V169c0-2.1-1.1-3.3-2.7-3.3
		c-1.6,0-2.9,1.1-2.9,3.3v10.5h-6.8V153.4z"/>
	<path class="st0" d="M190.8,160.1h6.8v3.9c1.1-2.6,2.9-4.4,6.1-4.2v7.1h-0.6c-3.5,0-5.5,2-5.5,6.5v6h-6.8V160.1z"/>
	<path class="st0" d="M206.1,153.4h7.1v5h-7.1V153.4z M206.3,160.1h6.8v19.3h-6.8V160.1z"/>
	<path class="st0" d="M217,153.4h6.8v26.1H217V153.4z"/>
	<path class="st0" d="M227.7,153.4h6.8v26.1h-6.8V153.4z"/>
	<path class="st0" d="M237.5,169.9L237.5,169.9c0-5.7,4-10.2,9.8-10.2c6.7,0,9.8,4.9,9.8,10.6c0,0.4,0,0.9,0,1.4H244
		c0.5,2.1,2.1,3.2,4.2,3.2c1.6,0,2.9-0.6,4.3-2l3.8,3.1c-1.9,2.4-4.5,3.9-8.4,3.9C241.8,179.9,237.5,175.9,237.5,169.9z
		 M250.6,168.2c-0.3-2.1-1.5-3.5-3.4-3.5c-1.8,0-3,1.4-3.4,3.5H250.6z"/>
	<path class="st0" d="M259.9,160.1h6.8v3.9c1.1-2.6,2.9-4.4,6.1-4.2v7.1h-0.6c-3.5,0-5.5,2-5.5,6.5v6h-6.8V160.1z"/>
	<path class="st0" d="M272.6,172.5h7.1v7h-7.1V172.5z"/>
</g>
</svg>
