<?xml version="1.0" encoding="utf-8"?>
<!-- Generator: Adobe Illustrator 26.3.1, SVG Export Plug-In . SVG Version: 6.00 Build 0)  -->
<svg version="1.1" id="Layer_1" xmlns="http://www.w3.org/2000/svg" xmlns:xlink="http://www.w3.org/1999/xlink" x="0px" y="0px"
	 viewBox="0 0 300 250" style="enable-background:new 0 0 300 250;" xml:space="preserve">
<style type="text/css">
	.st0{clip-path:url(#SVGID_00000042694500375204401420000000974881300782864002_);fill:#AC1F2D;}
	.st1{clip-path:url(#SVGID_00000042694500375204401420000000974881300782864002_);fill:#FFFFFF;}
</style>
<g>
	<defs>
		<rect id="SVGID_1_" x="17.6" y="10" width="47.5" height="51.1"/>
	</defs>
	<clipPath id="SVGID_00000168837013008743058760000006459230392922548116_">
		<use xlink:href="#SVGID_1_"  style="overflow:visible;"/>
	</clipPath>
	<path style="clip-path:url(#SVGID_00000168837013008743058760000006459230392922548116_);fill:#AC1F2D;" d="M61.8,35.6
		c0,12.1-9.8,22-22,22s-22-9.8-22-22c0-12.1,9.8-22,22-22S61.8,23.5,61.8,35.6"/>
	<path style="clip-path:url(#SVGID_00000168837013008743058760000006459230392922548116_);fill:#FFFFFF;" d="M48.6,31.6v2.5h2.9
		l-3.4,5.3h8.3v-2.6h-3.6l3.2-5.2H48.6z M32.2,28.4l-2.6,5.9L27,28.4h-3.7v10.9h3.1v-5.8l2.6,5.8h1.3l2.6-6v6H36V28.4H32.2z
		 M44.3,28.4v3.9h-3.9v-3.9h-3.4v10.9h3.4V35h3.9v4.3h3.4V28.4H44.3z"/>
	<path style="clip-path:url(#SVGID_00000168837013008743058760000006459230392922548116_);fill:#FFFFFF;" d="M48.4,43.8h2.9V43h-1.9
		v-0.6h1.7v-0.8h-1.7v-0.5h1.9v-0.9h-2.9V43.8z M46,43.9c0.8,0,1.3-0.3,1.6-0.8l-0.8-0.5c-0.2,0.3-0.4,0.4-0.8,0.4
		c-0.5,0-0.9-0.4-0.9-1v0c0-0.5,0.4-1,0.9-1c0.3,0,0.6,0.2,0.8,0.4l0.8-0.6c-0.3-0.4-0.8-0.8-1.5-0.8c-1.1,0-1.9,0.8-1.9,1.9v0
		C44.2,43.1,45,43.9,46,43.9 M42.3,43.8h1v-3.6h-1V43.8z M39.5,43c-0.5,0-0.9-0.5-0.9-1v0c0-0.5,0.4-1,0.9-1c0.6,0,0.9,0.5,0.9,1v0
		C40.4,42.6,40.1,43,39.5,43 M39.5,43.9c1.1,0,2-0.8,2-1.9v0c0-1-0.8-1.9-1.9-1.9c-1.1,0-2,0.8-2,1.9v0
		C37.6,43.1,38.4,43.9,39.5,43.9 M33.4,43.8h1v-1.4h1.3v1.4h1v-3.6h-1v1.4h-1.3v-1.4h-1V43.8z M31.1,43.9c0.8,0,1.3-0.3,1.6-0.8
		L32,42.6c-0.2,0.3-0.4,0.4-0.8,0.4c-0.5,0-0.9-0.4-0.9-1v0c0-0.5,0.4-1,0.9-1c0.3,0,0.6,0.2,0.8,0.4l0.8-0.6
		c-0.3-0.4-0.8-0.8-1.5-0.8c-1.1,0-1.9,0.8-1.9,1.9v0C29.2,43.1,30.1,43.9,31.1,43.9"/>
</g>
</svg>
