<svg id="Layer_1" xmlns="http://www.w3.org/2000/svg" viewBox="0 0 728 90"><style>.st0{fill:#490a09}</style><path class="st0" d="M80.7 30.2h7.7l12.2 28.9h-8.5L90 54H78.9l-2.1 5.1h-8.4l12.3-28.9zm7 17.6l-3.2-8.2-3.2 8.2h6.4zM122.1 56.4v2.7h-7.8V29.2h7.8v10.7c1.5-1.8 3.4-3.4 6.7-3.4 5.3 0 9.8 4.4 9.8 11.5 0 7.2-4.6 11.6-9.8 11.6-3.3 0-5.3-1.5-6.7-3.2zM131 48c0-3-2-5.1-4.6-5.1-2.5 0-4.5 2.1-4.5 5v.1c0 3 2 5 4.5 5 2.6.1 4.6-2 4.6-5zM142 36.9h7.8v4.5c1.3-3 3.3-5 7-4.8v8.2h-.7c-4.1 0-6.4 2.3-6.4 7.5v6.9H142V36.9zM159.6 29.2h8.1v5.7h-8.1v-5.7zm.2 7.7h7.8v22.2h-7.8V36.9zM172.1 29.2h7.8v29.9h-7.8V29.2zM184.4 29.2h7.8v29.9h-7.8V29.2zM196.5 29.2h8.1v5.7h-8.1v-5.7zm.2 7.7h7.8v22.2h-7.8V36.9zM207.7 52.8c0-4.7 3.5-7.1 8.7-7.1 2.1 0 4.1.4 5.3.9v-.4c0-2.3-1.4-3.6-4.4-3.6-2.3 0-4.1.5-6.1 1.2l-1.6-5.5c2.5-1 5.2-1.7 9-1.7 4 0 6.7.9 8.4 2.7 1.7 1.6 2.4 3.9 2.4 7.1v12.8h-7.7v-2.3c-1.5 1.7-3.6 2.8-6.5 2.8-4.3-.1-7.5-2.5-7.5-6.9zm14.1-1.7v-1c-.8-.3-1.9-.6-3-.6-2.3 0-3.6 1.1-3.6 2.7v.1c0 1.5 1.1 2.4 2.7 2.4 2.3 0 3.9-1.4 3.9-3.6zM233.4 36.9h7.8V40c1.4-1.8 3.5-3.6 6.6-3.6 4.7 0 7.5 3.1 7.5 8.2v14.5h-7.8v-12c0-2.4-1.3-3.7-3.1-3.7-1.9 0-3.3 1.3-3.3 3.7v12h-7.8V36.9zM260.7 52.2v-9h-2.6v-6.3h2.6v-5.6h7.8v5.6h5.2v6.3h-5.2v7.5c0 1.6.7 2.2 2.1 2.2 1 0 2-.3 3-.7v6.1c-1.4.8-3.2 1.3-5.4 1.3-4.7 0-7.5-2.1-7.5-7.4zM277.2 29.2h7.8v29.9h-7.8V29.2zM288.8 63.9l2.4-5.5c1.2.7 2.5 1.2 3.4 1.2.8 0 1.3-.2 1.8-.9l-8.7-21.8h8.2l4.4 13.4 4.2-13.4h8l-8.1 21.7c-1.9 5.2-4 7.2-8.4 7.2-2.8 0-5.2-.8-7.2-1.9zM327.8 43.2h-2.6v-6.1h2.6v-.5c0-2.5.6-4.4 1.9-5.7 1.4-1.4 3.2-1.9 5.8-1.9 2.4 0 3.9.2 5.1.6V35c-.9-.3-1.8-.5-2.9-.5-1.4 0-2.2.7-2.2 2.1v.5h5.1v6h-5v16h-7.8V43.2zM342.8 51.5V36.9h7.8v12c0 2.4 1.3 3.7 3.2 3.7 1.8 0 3.2-1.3 3.2-3.7v-12h7.8v22.2H357v-3c-1.4 1.8-3.5 3.5-6.6 3.5-4.8 0-7.6-3.1-7.6-8.1zM368.9 36.9h7.8V40c1.4-1.8 3.5-3.6 6.6-3.6 4.7 0 7.5 3.1 7.5 8.2v14.5H383v-12c0-2.4-1.3-3.7-3.1-3.7-1.9 0-3.3 1.3-3.3 3.7v12h-7.8V36.9zM394.9 36.9h7.8V40c1.4-1.8 3.5-3.6 6.6-3.6 4.7 0 7.5 3.1 7.5 8.2v14.5H409v-12c0-2.4-1.3-3.7-3.1-3.7-1.9 0-3.3 1.3-3.3 3.7v12h-7.8V36.9zM419.8 63.9l2.4-5.5c1.2.7 2.5 1.2 3.4 1.2.8 0 1.3-.2 1.8-.9l-8.7-21.8h8.2l4.4 13.4 4.2-13.4h8l-8.1 21.7c-1.9 5.2-4 7.2-8.4 7.2-2.8 0-5.2-.8-7.2-1.9zM457.4 36.9h7.8v3c1.5-1.8 3.4-3.4 6.7-3.4 5.3 0 9.8 4.4 9.8 11.5 0 7.2-4.6 11.6-9.8 11.6-3.4 0-5.3-1.5-6.8-3.2v9.3h-7.8V36.9zM474.1 48c0-3-2-5.1-4.6-5.1-2.5 0-4.5 2.1-4.5 5v.1c0 3 2 5 4.5 5 2.6.1 4.6-2 4.6-5zM485.1 36.9h7.8v4.5c1.3-3 3.3-5 7-4.8v8.2h-.7c-4.1 0-6.4 2.3-6.4 7.5v6.9H485V36.9zM501.4 48.1c0-6.4 5.2-11.7 12.3-11.7 7.1 0 12.2 5.2 12.2 11.5v.1c0 6.3-5.2 11.6-12.3 11.6-7.1.1-12.2-5.2-12.2-11.5zm16.9 0c0-2.8-2-5.1-4.7-5.1-2.8 0-4.6 2.3-4.6 4.9v.1c0 2.7 2 5 4.7 5 2.8.1 4.6-2.2 4.6-4.9zM527.5 56.3l2.9-4.7c2.5 1.7 5.3 2.5 7.6 2.5 1.4 0 2-.4 2-1.2v-.1c0-.9-1.2-1.2-3.6-1.9-4.4-1.1-7.9-2.6-7.9-7.1v-.1c0-4.7 3.8-7.3 8.9-7.3 3.2 0 6.6.9 9.1 2.6l-2.7 4.9c-2.3-1.3-4.8-2.1-6.6-2.1-1.2 0-1.8.5-1.8 1.1v.1c0 .9 1.3 1.3 3.6 2 4.4 1.2 7.9 2.7 7.9 7.1v.1c0 4.9-3.7 7.4-9.1 7.4-3.6 0-7.2-1.1-10.3-3.3zM549.3 48.1c0-6.6 4.6-11.7 11.2-11.7 7.7 0 11.2 5.6 11.2 12.1v1.6h-14.8c.6 2.4 2.4 3.7 4.8 3.7 1.8 0 3.3-.7 4.9-2.3l4.3 3.6c-2.1 2.7-5.2 4.5-9.6 4.5-7 .1-12-4.6-12-11.5zm15.1-1.9c-.3-2.5-1.7-4-3.9-4-2.1 0-3.4 1.6-3.9 4h7.8zM574.1 48.1c0-6.4 4.9-11.6 11.9-11.6 4.6 0 7.6 2 9.5 5l-5.3 3.9c-1.1-1.5-2.3-2.3-4.1-2.3-2.5 0-4.3 2.2-4.3 4.9 0 2.9 1.8 5 4.4 5 1.8 0 3-.9 4.3-2.3l5.2 3.8c-2.1 3-5 5.1-9.9 5.1-6.7.1-11.7-5.2-11.7-11.5zM598.2 51.5V36.9h7.8v12c0 2.4 1.3 3.7 3.2 3.7 1.8 0 3.2-1.3 3.2-3.7v-12h7.8v22.2h-7.8v-3c-1.4 1.8-3.5 3.5-6.6 3.5-4.8 0-7.6-3.1-7.6-8.1zM625.7 52.2v-9h-2.6v-6.3h2.6v-5.6h7.8v5.6h5.2v6.3h-5.2v7.5c0 1.6.7 2.2 2.1 2.2 1 0 2-.3 3-.7v6.1c-1.4.8-3.2 1.3-5.4 1.3-4.7 0-7.5-2.1-7.5-7.4zM640.6 48.1c0-6.4 5.2-11.7 12.3-11.7 7.1 0 12.2 5.2 12.2 11.5v.1c0 6.3-5.2 11.6-12.3 11.6-7.1.1-12.2-5.2-12.2-11.5zm16.9 0c0-2.8-2-5.1-4.7-5.1-2.8 0-4.6 2.3-4.6 4.9v.1c0 2.7 2 5 4.7 5 2.8.1 4.6-2.2 4.6-4.9zM668.4 36.9h7.8v4.5c1.3-3 3.3-5 7-4.8v8.2h-.7c-4.1 0-6.4 2.3-6.4 7.5v6.9h-7.8V36.9zM683 51.1h8.1v8H683v-8z"/></svg>