<svg id="Layer_1" xmlns="http://www.w3.org/2000/svg" viewBox="0 0 728 90"><style>.st0{fill:#490a09}</style><path class="st0" d="M68.3 71.6l3.8-4.5C74.5 69 77.2 70 80 70c1.8 0 2.8-.6 2.8-1.7v-.1c0-1-.8-1.6-4.1-2.3-5.2-1.2-9.2-2.7-9.2-7.7v-.1c0-4.5 3.6-7.8 9.5-7.8 4.2 0 7.4 1.1 10.1 3.3l-3.4 4.8C83.4 56.8 81 56 78.8 56c-1.6 0-2.5.7-2.5 1.6v.1c0 1.1.8 1.6 4.2 2.4 5.6 1.2 9.1 3 9.1 7.6v.1c0 5-4 8-9.9 8-4.2-.1-8.4-1.5-11.4-4.2zM91.8 65.9c0-5.6 4-10 9.6-10 6.5 0 9.6 4.8 9.6 10.4v1.4H98.2c.5 2.1 2 3.1 4.1 3.1 1.6 0 2.8-.6 4.2-1.9l3.7 3c-1.8 2.3-4.4 3.9-8.2 3.9-6-.1-10.2-4-10.2-9.9zm12.9-1.7c-.2-2.1-1.5-3.4-3.3-3.4-1.8 0-2.9 1.4-3.3 3.4h6.6zM112.8 69.8c0-4 3-6 7.4-6 1.8 0 3.5.4 4.6.7v-.3c0-2-1.2-3.1-3.8-3.1-2 0-3.5.4-5.2 1l-1.4-4.7c2.1-.9 4.4-1.5 7.7-1.5 3.4 0 5.7.8 7.2 2.3 1.4 1.4 2 3.4 2 6v10.9h-6.6v-2c-1.3 1.4-3.1 2.4-5.6 2.4-3.5.2-6.3-1.9-6.3-5.7zm12.1-1.4v-.9c-.7-.3-1.6-.5-2.6-.5-1.9 0-3 .9-3 2.3v.1c0 1.3 1 2.1 2.3 2.1 1.9 0 3.3-1.2 3.3-3.1zM133.3 72.9l2.5-4c2.2 1.4 4.6 2.2 6.5 2.2 1.2 0 1.7-.4 1.7-1V70c0-.7-1.1-1.1-3-1.6-3.7-1-6.7-2.2-6.7-6.1v-.1c0-4 3.2-6.3 7.6-6.3 2.8 0 5.6.8 7.8 2.2l-2.3 4.2c-2-1.1-4.1-1.8-5.6-1.8-1 0-1.5.4-1.5.9v.1c0 .7 1.1 1.1 3.1 1.7 3.7 1 6.7 2.3 6.7 6v.1c0 4.2-3.1 6.3-7.7 6.3-3.3.1-6.5-.8-9.1-2.7zM152 65.9c0-5.5 4.4-10 10.5-10s10.4 4.4 10.4 9.8v.1c0 5.4-4.4 9.9-10.5 9.9S152 71.3 152 65.9zm14.4 0c0-2.4-1.7-4.3-4-4.3-2.4 0-4 1.9-4 4.2v.1c0 2.3 1.7 4.3 4 4.3 2.5-.1 4-2 4-4.3zM175.7 56.3h6.7V59c1.2-1.6 3-3.1 5.7-3.1 4 0 6.4 2.7 6.4 7v12.4h-6.7V65c0-2.1-1.1-3.2-2.7-3.2s-2.8 1.1-2.8 3.2v10.3h-6.7v-19zM211.5 56.9l-4.1.9-1.3-5.3 7.2-2h4.9v24.7h-6.7V56.9zM233.2 61.7H231v-5.2h2.2V56c0-2.2.5-3.8 1.6-4.9 1.2-1.2 2.7-1.6 4.9-1.6 2 0 3.3.2 4.3.5v4.7c-.8-.2-1.5-.4-2.5-.4-1.2 0-1.9.6-1.9 1.8v.5h4.3v5.1h-4.2v13.6h-6.6V61.7zM246.2 56.3h6.7v3.8c1.1-2.6 2.8-4.3 6-4.1v7h-.6c-3.5 0-5.4 2-5.4 6.4v5.9h-6.7v-19zM260 65.9c0-5.6 4-10 9.6-10 6.5 0 9.6 4.8 9.6 10.4v1.4h-12.7c.5 2.1 2 3.1 4.1 3.1 1.6 0 2.8-.6 4.2-1.9l3.7 3c-1.8 2.3-4.4 3.9-8.2 3.9-6.1-.1-10.3-4-10.3-9.9zm12.9-1.7c-.2-2.1-1.5-3.4-3.3-3.4-1.8 0-2.9 1.4-3.3 3.4h6.6zM281.2 65.9c0-5.6 4-10 9.6-10 6.5 0 9.6 4.8 9.6 10.4v1.4h-12.7c.5 2.1 2 3.1 4.1 3.1 1.6 0 2.8-.6 4.2-1.9l3.7 3c-1.8 2.3-4.4 3.9-8.2 3.9-6.1-.1-10.3-4-10.3-9.9zm12.9-1.7c-.2-2.1-1.5-3.4-3.3-3.4-1.8 0-2.9 1.4-3.3 3.4h6.6zM312.1 65.9c0-5.5 4.4-10 10.5-10s10.4 4.4 10.4 9.8v.1c0 5.4-4.4 9.9-10.5 9.9-6 0-10.4-4.4-10.4-9.8zm14.4 0c0-2.4-1.7-4.3-4-4.3-2.4 0-4 1.9-4 4.2v.1c0 2.3 1.7 4.3 4 4.3 2.5-.1 4-2 4-4.3zM335.8 56.3h6.7V59c1.2-1.6 3-3.1 5.7-3.1 4 0 6.4 2.7 6.4 7v12.4h-6.7V65c0-2.1-1.1-3.2-2.7-3.2s-2.8 1.1-2.8 3.2v10.3h-6.7v-19zM368.1 50.8h7.2l5.8 9.5 5.8-9.5h7.2v24.5h-6.8V61.2l-6.3 9.6-6.2-9.5v14h-6.7V50.8zM398.5 50.8h6.8V60h8.7v-9.2h6.8v24.5H414V66h-8.7v9.3h-6.8V50.8zM424.1 70.9l8.8-9.3h-8.4v-5.3h17.3v4.4L433 70h8.8v5.3h-17.6v-4.4zM453.7 63.1c0-7.2 5.5-12.8 12.9-12.8 5 0 8.2 2.1 10.4 5.1l-5.1 4c-1.4-1.8-3-2.9-5.4-2.9-3.4 0-5.8 2.9-5.8 6.5 0 3.7 2.4 6.5 5.8 6.5 2.6 0 4.1-1.2 5.5-3l5.1 3.6c-2.3 3.2-5.4 5.5-10.9 5.5-6.9.2-12.5-5.2-12.5-12.5zM479.7 49.7h6.7v9.2c1.2-1.6 3-3 5.7-3 4 0 6.4 2.7 6.4 7v12.4h-6.7V65c0-2.1-1.1-3.2-2.7-3.2s-2.8 1.1-2.8 3.2v10.3h-6.7V49.7zM501.1 65.9c0-5.5 4.4-10 10.5-10s10.4 4.4 10.4 9.8v.1c0 5.4-4.4 9.9-10.5 9.9-6 0-10.4-4.4-10.4-9.8zm14.4 0c0-2.4-1.7-4.3-4-4.3-2.4 0-4 1.9-4 4.2v.1c0 2.3 1.7 4.3 4 4.3 2.5-.1 4-2 4-4.3zM524.8 49.7h6.9v4.9h-6.9v-4.9zm.2 6.6h6.7v18.9H525V56.3zM534.5 65.9c0-5.4 4.2-9.9 10.2-9.9 3.9 0 6.5 1.7 8.1 4.2l-4.5 3.4c-.9-1.3-1.9-2-3.5-2-2.1 0-3.7 1.9-3.7 4.2v.1c0 2.5 1.5 4.3 3.8 4.3 1.6 0 2.6-.7 3.6-2l4.4 3.2c-1.8 2.6-4.3 4.3-8.4 4.3-5.8 0-10-4.5-10-9.8zM554 65.9c0-5.6 4-10 9.6-10 6.5 0 9.6 4.8 9.6 10.4v1.4h-12.7c.5 2.1 2 3.1 4.1 3.1 1.6 0 2.8-.6 4.2-1.9l3.7 3c-1.8 2.3-4.4 3.9-8.2 3.9-6.1-.1-10.3-4-10.3-9.9zm12.8-1.7c-.2-2.1-1.5-3.4-3.3-3.4-1.8 0-2.9 1.4-3.3 3.4h6.6zM575.5 68.4h6.9v6.8h-6.9v-6.8z"/></svg>