<?xml version="1.0" encoding="utf-8"?>
<!-- Generator: Adobe Illustrator 26.3.1, SVG Export Plug-In . SVG Version: 6.00 Build 0)  -->
<svg version="1.1" id="Layer_1" xmlns="http://www.w3.org/2000/svg" xmlns:xlink="http://www.w3.org/1999/xlink" x="0px" y="0px"
	 viewBox="0 0 300 600" style="enable-background:new 0 0 300 600;" xml:space="preserve">
<style type="text/css">
	.st0{fill:#490A09;}
</style>
<g>
	<path class="st0" d="M20.7,162.2h11.3v15.3h14.6v-15.3H58v41H46.6v-15.6H32.1v15.6H20.7V162.2z"/>
	<path class="st0" d="M63.3,187.5v-0.1c0-9.2,6.6-16.6,16-16.6c10.9,0,16,8,16,17.3c0,0.7,0,1.5-0.1,2.3H74c0.9,3.5,3.4,5.2,6.8,5.2
		c2.6,0,4.7-1,7-3.2l6.1,5.1c-3,3.9-7.4,6.4-13.7,6.4C70.3,203.9,63.3,197.3,63.3,187.5z M84.8,184.7c-0.4-3.5-2.5-5.7-5.5-5.7
		c-2.9,0-4.9,2.3-5.5,5.7H84.8z"/>
	<path class="st0" d="M113.9,171.5h10.9l4.2,15.9l4.9-16h9.2l4.9,16.1l4.3-16h10.7l-9.8,31.9h-9.6l-5.1-16.4l-5.3,16.4h-9.5
		L113.9,171.5z"/>
	<path class="st0" d="M163.6,194.1V194c0-6.6,5-9.9,12.4-9.9c2.9,0,5.8,0.6,7.6,1.2v-0.5c0-3.3-2-5.1-6.3-5.1
		c-3.3,0-5.9,0.6-8.7,1.8l-2.3-7.8c3.6-1.5,7.4-2.5,12.8-2.5c5.7,0,9.5,1.3,12.1,3.9c2.4,2.3,3.4,5.6,3.4,10.1v18.2h-11v-3.3
		c-2.2,2.4-5.1,4-9.3,4C168.2,203.9,163.6,200.4,163.6,194.1z M183.7,191.7v-1.5c-1.1-0.5-2.7-0.8-4.3-0.8c-3.2,0-5.1,1.6-5.1,3.9
		v0.1c0,2.2,1.6,3.5,3.9,3.5C181.4,196.9,183.7,194.8,183.7,191.7z"/>
	<path class="st0" d="M197.8,199.2l4.2-6.7c3.6,2.4,7.6,3.6,10.9,3.6c1.9,0,2.8-0.6,2.8-1.7v-0.1c0-1.2-1.8-1.8-5.1-2.7
		c-6.3-1.6-11.2-3.7-11.2-10.1v-0.1c0-6.7,5.4-10.5,12.7-10.5c4.6,0,9.4,1.3,13,3.7l-3.8,7c-3.3-1.8-6.8-2.9-9.4-2.9
		c-1.7,0-2.6,0.6-2.6,1.5v0.1c0,1.2,1.8,1.8,5.1,2.8c6.3,1.8,11.2,3.9,11.2,10.1v0.1c0,7-5.2,10.6-12.9,10.6
		C207.5,203.9,202.2,202.3,197.8,199.2z"/>
</g>
<g>
	<path class="st0" d="M20.1,216h11.1v15.4c2-2.6,5-5,9.5-5c6.7,0,10.8,4.4,10.8,11.6v20.7H40.3v-17.1c0-3.5-1.8-5.3-4.4-5.3
		c-2.7,0-4.7,1.9-4.7,5.3v17.1H20.1V216z"/>
	<path class="st0" d="M55.9,243v-0.1c0-9.2,6.6-16.6,16-16.6c10.9,0,16,8,16,17.3c0,0.7,0,1.5-0.1,2.3H66.6c0.9,3.5,3.4,5.2,6.8,5.2
		c2.6,0,4.7-1,7-3.2l6.1,5.1c-3,3.9-7.4,6.4-13.7,6.4C62.9,259.4,55.9,252.8,55.9,243z M77.4,240.2c-0.4-3.5-2.5-5.7-5.5-5.7
		c-2.9,0-4.9,2.3-5.5,5.7H77.4z"/>
	<path class="st0" d="M92.6,227h11.1v6.4c1.8-4.3,4.7-7.1,10-6.9v11.7h-0.9c-5.8,0-9.1,3.3-9.1,10.6v9.8H92.6V227z"/>
</g>
<g>
	<path class="st0" d="M20.1,271.5h11.1v15.4c2-2.6,5-5,9.5-5c6.7,0,10.8,4.4,10.8,11.6v20.7H40.3V297c0-3.5-1.8-5.3-4.4-5.3
		c-2.7,0-4.7,1.9-4.7,5.3v17.1H20.1V271.5z"/>
	<path class="st0" d="M56.9,303.2v-20.7h11.1v17.1c0,3.5,1.8,5.3,4.5,5.3c2.6,0,4.6-1.9,4.6-5.3v-17.1h11.1v31.6H77.2v-4.3
		c-2,2.6-5,5-9.5,5C61,314.9,56.9,310.4,56.9,303.2z"/>
	<path class="st0" d="M91.9,310.2l4.2-6.7c3.6,2.4,7.6,3.6,10.9,3.6c1.9,0,2.8-0.6,2.8-1.7v-0.1c0-1.2-1.8-1.8-5.1-2.7
		c-6.3-1.6-11.2-3.7-11.2-10.1v-0.1c0-6.7,5.4-10.5,12.7-10.5c4.6,0,9.4,1.3,13,3.7l-3.8,7c-3.3-1.8-6.8-2.9-9.4-2.9
		c-1.7,0-2.6,0.6-2.6,1.5v0.1c0,1.2,1.8,1.8,5.1,2.8c6.3,1.8,11.2,3.9,11.2,10.1v0.1c0,7-5.2,10.6-12.9,10.6
		C101.5,314.9,96.3,313.4,91.9,310.2z"/>
	<path class="st0" d="M135.4,310.3v3.9h-11.1v-42.7h11.1v15.3c2.2-2.6,4.9-4.9,9.6-4.9c7.5,0,14,6.3,14,16.4v0.1
		c0,10.3-6.5,16.6-14,16.6C140.3,314.9,137.5,312.7,135.4,310.3z M148.1,298.4v-0.1c0-4.2-2.9-7.1-6.5-7.1c-3.6,0-6.4,3-6.4,7.1v0.1
		c0,4.2,2.9,7.2,6.4,7.2C145.3,305.6,148.1,302.7,148.1,298.4z"/>
	<path class="st0" d="M162.3,305.1V305c0-6.6,5-9.9,12.4-9.9c2.9,0,5.8,0.6,7.6,1.2v-0.5c0-3.3-2-5.1-6.3-5.1
		c-3.3,0-5.9,0.6-8.7,1.8l-2.3-7.8c3.6-1.5,7.4-2.5,12.8-2.5c5.7,0,9.5,1.3,12.1,3.9c2.4,2.3,3.4,5.6,3.4,10.1v18.2h-11v-3.3
		c-2.2,2.4-5.1,4-9.3,4C166.9,314.9,162.3,311.4,162.3,305.1z M182.4,302.7v-1.5c-1.1-0.5-2.7-0.8-4.3-0.8c-3.2,0-5.1,1.6-5.1,3.9
		v0.1c0,2.2,1.6,3.5,3.9,3.5C180.1,307.9,182.4,305.9,182.4,302.7z"/>
	<path class="st0" d="M198.9,282.5H210v4.4c2-2.6,5-5.1,9.5-5.1c6.7,0,10.8,4.4,10.8,11.6v20.7h-11.1V297c0-3.5-1.8-5.3-4.4-5.3
		c-2.7,0-4.7,1.9-4.7,5.3v17.1h-11.1V282.5z"/>
	<path class="st0" d="M234.8,298.5v-0.1c0-10.3,6.4-16.6,13.9-16.6c4.8,0,7.6,2.2,9.7,4.6v-14.9h11.1v42.7h-11.1V310
		c-2.2,2.6-4.9,4.9-9.7,4.9C241.3,314.9,234.8,308.6,234.8,298.5z M258.6,298.4v-0.1c0-4.2-2.9-7.1-6.4-7.1c-3.6,0-6.5,2.9-6.5,7.1
		v0.1c0,4.2,2.9,7.2,6.5,7.2C255.8,305.6,258.6,302.6,258.6,298.4z"/>
	<path class="st0" d="M275.1,302.8h11.6v11.4h-11.6V302.8z"/>
</g>
</svg>
