<svg id="Layer_1" xmlns="http://www.w3.org/2000/svg" xmlns:xlink="http://www.w3.org/1999/xlink" viewBox="0 0 728 90"><style>.st0,.st1{clip-path:url(#SVGID_00000051380113623749255530000004073170918043371449_);fill:#ac1f2d}.st1{fill:#fff}</style><defs><path id="SVGID_1_" d="M8.5 8.6h42.3v40H8.5z"/></defs><clipPath id="SVGID_00000124160633641261874330000009850902077604082083_"><use xlink:href="#SVGID_1_" overflow="visible"/></clipPath><path d="M48 29c0 10.2-8.2 18.4-18.4 18.4S11.2 39.2 11.2 29s8.2-18.4 18.4-18.4C39.8 10.5 48 18.8 48 29" clip-path="url(#SVGID_00000124160633641261874330000009850902077604082083_)" fill="#ac1f2d"/><path d="M36.9 25.6v2.1h2.4l-2.8 4.4h7V30h-3l2.7-4.4h-6.3zM23.3 23l-2.2 5-2.2-5h-3.1v9.2h2.6v-4.9l2.2 4.9h1.1l2.2-5v5h2.6V23h-3.2zm10.1 0v3.2h-3.2V23h-2.8v9.2h2.8v-3.6h3.2v3.6h2.8V23h-2.8zM36.8 35.9h2.5v-.7h-1.6v-.5h1.5V34h-1.5v-.5h1.6v-.7h-2.4v3.1zm-2 0c.7 0 1.1-.3 1.3-.7l-.6-.5c-.2.2-.4.4-.7.4-.4 0-.7-.4-.7-.8s.3-.8.7-.8c.3 0 .5.1.7.4l.6-.5c-.3-.4-.7-.6-1.3-.6-.9 0-1.6.7-1.6 1.6.1.9.7 1.5 1.6 1.5m-3.1 0h.8v-3h-.8v3zm-2.3-.7c-.5 0-.8-.4-.8-.8s.3-.8.8-.8.8.4.8.8c-.1.4-.4.8-.8.8m0 .7c.9 0 1.6-.7 1.6-1.6 0-.9-.7-1.6-1.6-1.6s-1.6.7-1.6 1.6c-.1.9.6 1.6 1.6 1.6m-5.1 0h.8v-1.2h1.1v1.2h.8v-3h-.8V34h-1.1v-1.1h-.8v3zm-2 0c.7 0 1.1-.3 1.3-.7l-.6-.4c-.2.2-.4.4-.7.4-.4 0-.7-.4-.7-.8s.3-.8.7-.8c.3 0 .5.1.7.4l.6-.5c-.3-.4-.7-.6-1.3-.6-.9 0-1.6.7-1.6 1.6.1.8.8 1.4 1.6 1.4" clip-path="url(#SVGID_00000124160633641261874330000009850902077604082083_)" fill="#fff"/></svg>