<?xml version="1.0" encoding="utf-8"?>
<!-- Generator: Adobe Illustrator 25.4.1, SVG Export Plug-In . SVG Version: 6.00 Build 0)  -->
<svg version="1.1" id="Layer_1" xmlns="http://www.w3.org/2000/svg" xmlns:xlink="http://www.w3.org/1999/xlink" x="0px" y="0px"
	 viewBox="0 0 160 600" style="enable-background:new 0 0 160 600;" xml:space="preserve">
<style type="text/css">
	.st0{fill:#490A09;}
</style>
<g>
	<path class="st0" d="M17.5,210h5.6l-5.4,20.2H12L17.5,210z"/>
	<path class="st0" d="M25.2,214.6h5.5l-0.5,1.7c1.1-1.1,2.5-2.1,4.4-2.1c2.1,0,3.5,1.1,4.1,2.7c1.5-1.7,3.4-2.7,5.7-2.7
		c3,0,4.6,1.8,4.6,4.7c0,0.8-0.2,1.8-0.5,2.8l-2.3,8.5h-5.5l2.2-8.2c0.1-0.4,0.2-0.9,0.2-1.3c0-1-0.5-1.6-1.7-1.6
		c-1.5,0-2.4,1-2.9,2.8l-2.2,8.3h-5.5l2.2-8.2c0.1-0.4,0.2-0.9,0.2-1.3c0-1-0.5-1.6-1.7-1.6c-1.5,0-2.4,1-2.9,2.8l-2.2,8.3H21
		L25.2,214.6z"/>
	<path class="st0" d="M53.2,214.6h5.5l-0.5,1.7c1.1-1.1,2.5-2.1,4.4-2.1c2.1,0,3.5,1.1,4.1,2.7c1.5-1.7,3.4-2.7,5.7-2.7
		c3,0,4.6,1.8,4.6,4.7c0,0.8-0.2,1.8-0.5,2.8l-2.3,8.5h-5.5l2.2-8.2c0.1-0.4,0.2-0.9,0.2-1.3c0-1-0.5-1.6-1.7-1.6
		c-1.5,0-2.4,1-2.9,2.8l-2.2,8.3h-5.5l2.2-8.2c0.1-0.4,0.2-0.9,0.2-1.3c0-1-0.5-1.6-1.7-1.6c-1.5,0-2.4,1-2.9,2.8l-2.2,8.3H49
		L53.2,214.6z"/>
	<path class="st0" d="M77.6,226.3c0-3.4,2.7-5.5,6.9-5.5c1.4,0,2.7,0.2,4,0.6l0.1-0.2c0.1-0.3,0.1-0.6,0.1-1c0-1-0.8-1.7-2.7-1.7
		c-1.5,0-3.1,0.3-4.2,0.8l-0.8-4c1.6-0.6,3.9-1,6.2-1c4.7,0,7,1.8,7,5c0,0.7-0.1,1.5-0.3,2.3l-2.3,8.6H86l0.4-1.7
		c-1.3,1.2-2.7,2-4.5,2C79.4,230.5,77.6,228.9,77.6,226.3z M87.7,224.3l0.1-0.5c-0.6-0.2-1.3-0.3-2.1-0.3c-1.7,0-2.9,0.8-2.9,2.3
		c0,0.9,0.6,1.4,1.6,1.4C85.9,227.2,87.3,225.9,87.7,224.3z"/>
</g>
<g>
	<path class="st0" d="M20.7,242.9h-6.1L16,238h17.7l-1.3,4.9h-6.1l-4.1,15.3h-5.6L20.7,242.9z"/>
	<path class="st0" d="M29.3,254.3c0-3.4,2.7-5.5,6.9-5.5c1.4,0,2.7,0.2,4,0.6l0.1-0.2c0.1-0.3,0.1-0.6,0.1-1c0-1-0.8-1.7-2.7-1.7
		c-1.5,0-3.1,0.3-4.2,0.8l-0.8-4c1.6-0.6,3.9-1,6.2-1c4.7,0,7,1.8,7,5c0,0.7-0.1,1.5-0.3,2.3l-2.3,8.6h-5.4l0.4-1.7
		c-1.3,1.2-2.7,2-4.5,2C31.1,258.5,29.3,256.9,29.3,254.3z M39.5,252.3l0.1-0.5c-0.6-0.2-1.3-0.3-2.1-0.3c-1.7,0-2.9,0.8-2.9,2.3
		c0,0.9,0.6,1.4,1.6,1.4C37.7,255.2,39,253.9,39.5,252.3z"/>
	<path class="st0" d="M47.8,254.8c0-0.6,0.1-1.3,0.3-2.1l1.6-5.8h-1.8l1.2-4.4h1.8l1.1-4h5.5l-1.1,4H60l-1.2,4.4h-3.6l-1.3,4.9
		c-0.1,0.4-0.1,0.7-0.1,1c0,0.6,0.4,1,1.2,1c0.6,0,1.3-0.1,2.1-0.4l-1.2,4.6c-1,0.3-2.1,0.5-3.2,0.5
		C49.4,258.5,47.8,257.2,47.8,254.8z"/>
	<path class="st0" d="M60.3,254.8c0-0.6,0.1-1.3,0.3-2.1l1.6-5.8h-1.8l1.2-4.4h1.8l1.1-4h5.5l-1.1,4h3.6l-1.2,4.4h-3.6l-1.3,4.9
		c-0.1,0.4-0.1,0.7-0.1,1c0,0.6,0.4,1,1.2,1c0.6,0,1.3-0.1,2.1-0.4l-1.2,4.6c-1,0.3-2.1,0.5-3.2,0.5
		C61.8,258.5,60.3,257.2,60.3,254.8z"/>
	<path class="st0" d="M71.3,254.3c0-3.4,2.7-5.5,6.9-5.5c1.4,0,2.7,0.2,4,0.6l0.1-0.2c0.1-0.3,0.1-0.6,0.1-1c0-1-0.8-1.7-2.7-1.7
		c-1.5,0-3.1,0.3-4.2,0.8l-0.8-4c1.6-0.6,3.9-1,6.2-1c4.7,0,7,1.8,7,5c0,0.7-0.1,1.5-0.3,2.3l-2.3,8.6h-5.4l0.4-1.7
		c-1.3,1.2-2.7,2-4.5,2C73.1,258.5,71.3,256.9,71.3,254.3z M81.4,252.3l0.1-0.5c-0.6-0.2-1.3-0.3-2.1-0.3c-1.7,0-2.9,0.8-2.9,2.3
		c0,0.9,0.6,1.4,1.6,1.4C79.6,255.2,80.9,253.9,81.4,252.3z"/>
	<path class="st0" d="M92.1,242.6h5.5l-0.8,3.1c1.5-2.2,3.3-3.6,5.9-3.4l-1.6,5.8h-0.5c-3,0-4.9,1.7-5.9,5.4l-1.3,4.7h-5.5
		L92.1,242.6z"/>
	<path class="st0" d="M100.5,254.3c0-3.4,2.7-5.5,6.9-5.5c1.4,0,2.7,0.2,4,0.6l0.1-0.2c0.1-0.3,0.1-0.6,0.1-1c0-1-0.8-1.7-2.7-1.7
		c-1.5,0-3.1,0.3-4.2,0.8l-0.8-4c1.6-0.6,3.9-1,6.2-1c4.7,0,7,1.8,7,5c0,0.7-0.1,1.5-0.3,2.3l-2.3,8.6h-5.4l0.4-1.7
		c-1.3,1.2-2.7,2-4.5,2C102.3,258.5,100.5,256.9,100.5,254.3z M110.6,252.3l0.1-0.5c-0.6-0.2-1.3-0.3-2.1-0.3
		c-1.7,0-2.9,0.8-2.9,2.3c0,0.9,0.6,1.4,1.6,1.4C108.8,255.2,110.1,253.9,110.6,252.3z"/>
	<path class="st0" d="M121.3,242.6h5.5l-0.5,1.8c1.1-1.1,2.6-2.1,4.5-2.1c2.8,0,4.5,1.8,4.5,4.7c0,0.8-0.2,1.8-0.5,2.8l-2.3,8.5
		h-5.5l2.2-8.2c0.1-0.4,0.2-0.9,0.2-1.3c0-1-0.6-1.6-1.7-1.6c-1.5,0-2.4,1-2.9,2.8l-2.2,8.3h-5.5L121.3,242.6z"/>
	<path class="st0" d="M139.6,242.6h5.5l-4.2,15.6h-5.5L139.6,242.6z M141,237.1h5.7l-1.1,4h-5.7L141,237.1z"/>
</g>
<g>
	<path class="st0" d="M145.7,252.6h5.7v5.6h-5.7V252.6z"/>
</g>
</svg>
