<?xml version="1.0" encoding="utf-8"?>
<!-- Generator: Adobe Illustrator 25.4.1, SVG Export Plug-In . SVG Version: 6.00 Build 0)  -->
<svg version="1.1" id="Layer_1" xmlns="http://www.w3.org/2000/svg" xmlns:xlink="http://www.w3.org/1999/xlink" x="0px" y="0px"
	 viewBox="0 0 160 600" style="enable-background:new 0 0 160 600;" xml:space="preserve">
<style type="text/css">
	.st0{fill:#490A09;}
</style>
<g>
	<path class="st0" d="M17.9,234h4.6l7.3,17.4h-5.1l-1.3-3.1h-6.6l-1.2,3.1h-5L17.9,234z M22.1,244.5l-1.9-4.9l-1.9,4.9H22.1z"/>
</g>
<g>
	<path class="st0" d="M16.4,272.6v1.6h-4.7v-18h4.7v6.4c0.9-1.1,2-2.1,4-2.1c3.2,0,5.9,2.6,5.9,6.9v0c0,4.3-2.7,7-5.9,7
		C18.4,274.5,17.3,273.6,16.4,272.6z M21.7,267.5L21.7,267.5c0-1.8-1.2-3.1-2.7-3.1c-1.5,0-2.7,1.3-2.7,3v0c0,1.8,1.2,3,2.7,3
		C20.5,270.6,21.7,269.3,21.7,267.5z"/>
	<path class="st0" d="M28.4,260.9H33v2.7c0.8-1.8,2-3,4.2-2.9v4.9h-0.4c-2.4,0-3.8,1.4-3.8,4.5v4.1h-4.7V260.9z"/>
	<path class="st0" d="M38.9,256.2h4.9v3.4h-4.9V256.2z M39,260.9h4.7v13.3H39V260.9z"/>
	<path class="st0" d="M46.4,256.2h4.7v18h-4.7V256.2z"/>
	<path class="st0" d="M53.8,256.2h4.7v18h-4.7V256.2z"/>
	<path class="st0" d="M61,256.2h4.9v3.4H61V256.2z M61.1,260.9h4.7v13.3h-4.7V260.9z"/>
	<path class="st0" d="M67.8,270.4L67.8,270.4c0-2.8,2.1-4.2,5.2-4.2c1.2,0,2.4,0.2,3.2,0.5v-0.2c0-1.4-0.9-2.2-2.7-2.2
		c-1.4,0-2.5,0.3-3.7,0.7l-1-3.3c1.5-0.6,3.1-1,5.4-1c2.4,0,4,0.6,5.1,1.6c1,1,1.4,2.4,1.4,4.2v7.7h-4.6v-1.4
		c-0.9,1-2.2,1.7-3.9,1.7C69.7,274.5,67.8,273,67.8,270.4z M76.2,269.4v-0.6c-0.5-0.2-1.1-0.3-1.8-0.3c-1.4,0-2.1,0.7-2.1,1.6v0
		c0,0.9,0.7,1.5,1.6,1.5C75.3,271.6,76.2,270.7,76.2,269.4z"/>
	<path class="st0" d="M83.2,260.9h4.7v1.9c0.9-1.1,2.1-2.2,4-2.2c2.8,0,4.5,1.9,4.5,4.9v8.7h-4.7V267c0-1.5-0.8-2.2-1.9-2.2
		c-1.1,0-2,0.8-2,2.2v7.2h-4.7V260.9z"/>
	<path class="st0" d="M99.6,270.1v-5.4H98v-3.8h1.6v-3.4h4.7v3.4h3.1v3.8h-3.1v4.5c0,0.9,0.4,1.3,1.3,1.3c0.6,0,1.2-0.2,1.8-0.4v3.7
		c-0.8,0.5-1.9,0.8-3.2,0.8C101.3,274.5,99.6,273.2,99.6,270.1z"/>
	<path class="st0" d="M109.5,256.2h4.7v18h-4.7V256.2z"/>
	<path class="st0" d="M116.4,277l1.5-3.3c0.7,0.4,1.5,0.7,2,0.7c0.5,0,0.8-0.1,1.1-0.5l-5.2-13.1h4.9l2.7,8l2.5-8h4.8l-4.9,13
		c-1.2,3.1-2.4,4.3-5.1,4.3C119.1,278.2,117.7,277.7,116.4,277z"/>
</g>
<g>
	<path class="st0" d="M12.6,287.5H11v-3.7h1.6v-0.3c0-1.5,0.3-2.7,1.1-3.4c0.8-0.8,1.9-1.2,3.5-1.2c1.4,0,2.3,0.1,3.1,0.4v3.3
		c-0.5-0.2-1.1-0.3-1.7-0.3c-0.9,0-1.3,0.4-1.3,1.3v0.3h3.1v3.6h-3v9.6h-4.7V287.5z"/>
	<path class="st0" d="M21.6,292.4v-8.7h4.7v7.2c0,1.5,0.8,2.2,1.9,2.2c1.1,0,1.9-0.8,1.9-2.2v-7.2h4.7V297h-4.7v-1.8
		c-0.9,1.1-2.1,2.1-4,2.1C23.3,297.3,21.6,295.5,21.6,292.4z"/>
	<path class="st0" d="M37.3,283.7h4.7v1.9c0.9-1.1,2.1-2.2,4-2.2c2.8,0,4.5,1.9,4.5,4.9v8.7h-4.7v-7.2c0-1.5-0.8-2.2-1.9-2.2
		c-1.1,0-2,0.8-2,2.2v7.2h-4.7V283.7z"/>
	<path class="st0" d="M52.9,283.7h4.7v1.9c0.9-1.1,2.1-2.2,4-2.2c2.8,0,4.5,1.9,4.5,4.9v8.7h-4.7v-7.2c0-1.5-0.8-2.2-1.9-2.2
		c-1.1,0-2,0.8-2,2.2v7.2h-4.7V283.7z"/>
	<path class="st0" d="M67.8,299.9l1.5-3.3c0.7,0.4,1.5,0.7,2,0.7c0.5,0,0.8-0.1,1.1-0.5l-5.2-13.1h4.9l2.7,8l2.5-8H82l-4.9,13
		c-1.2,3.1-2.4,4.3-5.1,4.3C70.4,301,69,300.6,67.8,299.9z"/>
</g>
<g>
	<path class="st0" d="M11.7,306.6h4.7v1.8c0.9-1.1,2-2.1,4-2.1c3.2,0,5.9,2.6,5.9,6.9v0c0,4.3-2.7,7-5.9,7c-2,0-3.2-0.9-4.1-1.9v5.6
		h-4.7V306.6z M21.7,313.2L21.7,313.2c0-1.8-1.2-3.1-2.7-3.1c-1.5,0-2.7,1.3-2.7,3v0c0,1.8,1.2,3,2.7,3
		C20.5,316.3,21.7,315,21.7,313.2z"/>
	<path class="st0" d="M28.4,306.6H33v2.7c0.8-1.8,2-3,4.2-2.9v4.9h-0.4c-2.4,0-3.8,1.4-3.8,4.5v4.1h-4.7V306.6z"/>
	<path class="st0" d="M38.1,313.3L38.1,313.3c0-3.8,3.1-7,7.4-7c4.3,0,7.3,3.1,7.3,6.9v0c0,3.8-3.1,7-7.4,7
		C41.2,320.2,38.1,317.1,38.1,313.3z M48.3,313.3L48.3,313.3c0-1.7-1.2-3.1-2.8-3.1c-1.7,0-2.8,1.4-2.8,3v0c0,1.6,1.2,3,2.8,3
		C47.2,316.2,48.3,314.9,48.3,313.3z"/>
	<path class="st0" d="M53.8,318.2l1.7-2.8c1.5,1,3.2,1.5,4.6,1.5c0.8,0,1.2-0.2,1.2-0.7v0c0-0.5-0.7-0.7-2.1-1.1
		c-2.6-0.7-4.7-1.6-4.7-4.3v0c0-2.8,2.3-4.4,5.3-4.4c1.9,0,4,0.6,5.5,1.6l-1.6,3c-1.4-0.8-2.9-1.2-3.9-1.2c-0.7,0-1.1,0.3-1.1,0.6v0
		c0,0.5,0.8,0.8,2.2,1.2c2.6,0.7,4.7,1.6,4.7,4.2v0c0,2.9-2.2,4.5-5.4,4.5C57.8,320.2,55.6,319.5,53.8,318.2z"/>
	<path class="st0" d="M66.9,313.3L66.9,313.3c0-3.9,2.8-7,6.7-7c4.6,0,6.7,3.4,6.7,7.3c0,0.3,0,0.6,0,1h-8.9
		c0.4,1.5,1.4,2.2,2.9,2.2c1.1,0,2-0.4,3-1.4l2.6,2.1c-1.3,1.6-3.1,2.7-5.8,2.7C69.9,320.2,66.9,317.4,66.9,313.3z M76,312.1
		c-0.2-1.5-1-2.4-2.3-2.4c-1.2,0-2.1,1-2.3,2.4H76z"/>
	<path class="st0" d="M81.8,313.3L81.8,313.3c0-3.8,2.9-7,7.1-7c2.7,0,4.6,1.2,5.7,3l-3.2,2.4c-0.6-0.9-1.4-1.4-2.5-1.4
		c-1.5,0-2.6,1.3-2.6,3v0c0,1.7,1.1,3,2.7,3c1.1,0,1.8-0.5,2.6-1.4l3.1,2.3c-1.2,1.8-3,3.1-5.9,3.1C84.8,320.2,81.8,317,81.8,313.3z
		"/>
	<path class="st0" d="M96.2,315.3v-8.7h4.7v7.2c0,1.5,0.8,2.2,1.9,2.2c1.1,0,1.9-0.8,1.9-2.2v-7.2h4.7v13.3h-4.7v-1.8
		c-0.9,1.1-2.1,2.1-4,2.1C97.9,320.2,96.2,318.3,96.2,315.3z"/>
	<path class="st0" d="M112.8,315.7v-5.4h-1.6v-3.8h1.6v-3.4h4.7v3.4h3.1v3.8h-3.1v4.5c0,0.9,0.4,1.3,1.3,1.3c0.6,0,1.2-0.2,1.8-0.4
		v3.7c-0.8,0.5-1.9,0.8-3.2,0.8C114.4,320.1,112.8,318.9,112.8,315.7z"/>
	<path class="st0" d="M121.7,313.3L121.7,313.3c0-3.8,3.1-7,7.4-7c4.3,0,7.3,3.1,7.3,6.9v0c0,3.8-3.1,7-7.4,7
		C124.8,320.2,121.7,317.1,121.7,313.3z M131.8,313.3L131.8,313.3c0-1.7-1.2-3.1-2.8-3.1c-1.7,0-2.8,1.4-2.8,3v0c0,1.6,1.2,3,2.8,3
		C130.8,316.2,131.8,314.9,131.8,313.3z"/>
	<path class="st0" d="M138.4,306.6h4.7v2.7c0.8-1.8,2-3,4.2-2.9v4.9h-0.4c-2.4,0-3.8,1.4-3.8,4.5v4.1h-4.7V306.6z"/>
	<path class="st0" d="M147.1,315.1h4.9v4.8h-4.9V315.1z"/>
</g>
</svg>
