<?xml version="1.0" encoding="utf-8"?>
<!-- Generator: Adobe Illustrator 25.4.1, SVG Export Plug-In . SVG Version: 6.00 Build 0)  -->
<svg version="1.1" id="Layer_1" xmlns="http://www.w3.org/2000/svg" xmlns:xlink="http://www.w3.org/1999/xlink" x="0px" y="0px"
	 viewBox="0 0 160 600" style="enable-background:new 0 0 160 600;" xml:space="preserve">
<style type="text/css">
	.st0{fill:#490A09;}
</style>
<g>
	<path class="st0" d="M12.5,296.4l3.1-3.7c2,1.6,4.2,2.4,6.6,2.4c1.5,0,2.3-0.5,2.3-1.4v-0.1c0-0.8-0.7-1.3-3.4-1.9
		c-4.3-1-7.6-2.2-7.6-6.4v-0.1c0-3.8,3-6.5,7.8-6.5c3.4,0,6.1,0.9,8.3,2.7l-2.8,4c-1.8-1.3-3.9-2-5.7-2c-1.4,0-2,0.6-2,1.3v0.1
		c0,0.9,0.7,1.3,3.5,2c4.7,1,7.5,2.5,7.5,6.3v0.1c0,4.1-3.3,6.6-8.2,6.6C18.4,299.7,15,298.6,12.5,296.4z"/>
	<path class="st0" d="M31.9,291.6L31.9,291.6c0-4.6,3.3-8.2,7.9-8.2c5.4,0,7.9,4,7.9,8.5c0,0.3,0,0.8,0,1.1H37.2
		c0.4,1.7,1.7,2.6,3.4,2.6c1.3,0,2.3-0.5,3.5-1.6l3,2.5c-1.5,1.9-3.7,3.2-6.8,3.2C35.4,299.7,31.9,296.5,31.9,291.6z M42.5,290.3
		c-0.2-1.7-1.2-2.8-2.7-2.8c-1.4,0-2.4,1.1-2.7,2.8H42.5z"/>
	<path class="st0" d="M49.3,294.9L49.3,294.9c0-3.3,2.5-5,6.1-5c1.4,0,2.9,0.3,3.8,0.6v-0.3c0-1.6-1-2.5-3.1-2.5
		c-1.6,0-2.9,0.3-4.3,0.9l-1.1-3.9c1.8-0.7,3.6-1.2,6.3-1.2c2.8,0,4.7,0.7,6,1.9c1.2,1.2,1.7,2.8,1.7,5v9h-5.4v-1.6
		c-1.1,1.2-2.5,2-4.6,2C51.5,299.7,49.3,298,49.3,294.9z M59.2,293.7V293c-0.5-0.2-1.3-0.4-2.1-0.4c-1.6,0-2.5,0.8-2.5,1.9v0.1
		c0,1.1,0.8,1.7,1.9,1.7C58.1,296.3,59.2,295.3,59.2,293.7z"/>
	<path class="st0" d="M66.2,297.4l2.1-3.3c1.8,1.2,3.8,1.8,5.4,1.8c1,0,1.4-0.3,1.4-0.8V295c0-0.6-0.9-0.9-2.5-1.3
		c-3.1-0.8-5.5-1.8-5.5-5v-0.1c0-3.3,2.7-5.2,6.3-5.2c2.3,0,4.7,0.7,6.4,1.8l-1.9,3.5c-1.6-0.9-3.4-1.4-4.6-1.4
		c-0.8,0-1.3,0.3-1.3,0.8v0.1c0,0.6,0.9,0.9,2.5,1.4c3.1,0.9,5.5,1.9,5.5,5v0.1c0,3.4-2.6,5.2-6.4,5.2
		C70.9,299.7,68.3,299,66.2,297.4z"/>
	<path class="st0" d="M81.6,291.6L81.6,291.6c0-4.5,3.6-8.2,8.7-8.2c5,0,8.6,3.7,8.6,8.1v0.1c0,4.4-3.6,8.2-8.7,8.2
		C85.2,299.7,81.6,296.1,81.6,291.6z M93.5,291.6L93.5,291.6c0-2-1.4-3.6-3.3-3.6c-2,0-3.3,1.6-3.3,3.5v0.1c0,1.9,1.4,3.5,3.3,3.5
		C92.2,295.1,93.5,293.5,93.5,291.6z"/>
	<path class="st0" d="M101.1,283.7h5.5v2.2c1-1.3,2.5-2.5,4.7-2.5c3.3,0,5.3,2.2,5.3,5.7v10.2h-5.5v-8.5c0-1.7-0.9-2.6-2.2-2.6
		c-1.3,0-2.3,0.9-2.3,2.6v8.5h-5.5V283.7z"/>
</g>
<g>
	<path class="st0" d="M17,312.2l-3.4,0.8l-1.1-4.3l5.9-1.7h4.1v20.4H17V312.2z"/>
	<path class="st0" d="M34.9,316.1h-1.8v-4.3h1.8v-0.3c0-1.8,0.4-3.1,1.3-4c1-1,2.2-1.4,4.1-1.4c1.7,0,2.7,0.2,3.6,0.4v3.9
		c-0.6-0.2-1.3-0.3-2.1-0.3c-1,0-1.6,0.5-1.6,1.5v0.4h3.6v4.2h-3.5v11.2h-5.5V316.1z"/>
	<path class="st0" d="M45.6,311.7h5.5v3.1c0.9-2.1,2.3-3.5,4.9-3.4v5.8h-0.5c-2.9,0-4.5,1.6-4.5,5.3v4.9h-5.5V311.7z"/>
	<path class="st0" d="M57.1,319.6L57.1,319.6c0-4.6,3.3-8.2,7.9-8.2c5.4,0,7.9,4,7.9,8.5c0,0.3,0,0.8,0,1.1H62.3
		c0.4,1.7,1.7,2.6,3.4,2.6c1.3,0,2.3-0.5,3.5-1.6l3,2.5c-1.5,1.9-3.7,3.2-6.8,3.2C60.5,327.7,57.1,324.5,57.1,319.6z M67.7,318.3
		c-0.2-1.7-1.2-2.8-2.7-2.8c-1.4,0-2.4,1.1-2.7,2.8H67.7z"/>
	<path class="st0" d="M74.5,319.6L74.5,319.6c0-4.6,3.3-8.2,7.9-8.2c5.4,0,7.9,4,7.9,8.5c0,0.3,0,0.8,0,1.1H79.8
		c0.4,1.7,1.7,2.6,3.4,2.6c1.3,0,2.3-0.5,3.5-1.6l3,2.5c-1.5,1.9-3.7,3.2-6.8,3.2C78,327.7,74.5,324.5,74.5,319.6z M85.2,318.3
		c-0.2-1.7-1.2-2.8-2.7-2.8c-1.4,0-2.4,1.1-2.7,2.8H85.2z"/>
</g>
<g>
	<path class="st0" d="M13.1,347.6L13.1,347.6c0-4.5,3.6-8.2,8.7-8.2c5,0,8.6,3.7,8.6,8.1v0.1c0,4.4-3.6,8.2-8.7,8.2
		C16.7,355.7,13.1,352.1,13.1,347.6z M25,347.6L25,347.6c0-2-1.4-3.6-3.3-3.6c-2,0-3.3,1.6-3.3,3.5v0.1c0,1.9,1.4,3.5,3.3,3.5
		C23.7,351.1,25,349.5,25,347.6z"/>
	<path class="st0" d="M32.7,339.7h5.5v2.2c1-1.3,2.5-2.5,4.7-2.5c3.3,0,5.3,2.2,5.3,5.7v10.2h-5.5v-8.5c0-1.7-0.9-2.6-2.2-2.6
		c-1.3,0-2.3,0.9-2.3,2.6v8.5h-5.5V339.7z"/>
	<path class="st0" d="M59.3,335.1h5.9l4.8,7.8l4.8-7.8h5.9v20.2h-5.6v-11.6l-5.2,7.9h-0.1l-5.1-7.9v11.6h-5.5V335.1z"/>
	<path class="st0" d="M84.4,335.1H90v7.6h7.2v-7.6h5.6v20.2h-5.6v-7.7H90v7.7h-5.6V335.1z"/>
	<path class="st0" d="M105.5,351.7l7.2-7.7h-7v-4.4H120v3.6l-7.2,7.7h7.2v4.4h-14.5V351.7z"/>
</g>
<g>
	<path class="st0" d="M13.3,373.3L13.3,373.3c0-6,4.5-10.6,10.7-10.6c4.1,0,6.8,1.7,8.6,4.2l-4.2,3.3c-1.2-1.4-2.5-2.4-4.4-2.4
		c-2.8,0-4.8,2.4-4.8,5.3v0.1c0,3,2,5.4,4.8,5.4c2.1,0,3.4-1,4.6-2.5l4.2,3c-1.9,2.6-4.5,4.6-9,4.6C18,383.7,13.3,379.3,13.3,373.3z
		"/>
	<path class="st0" d="M34.8,362.3h5.5v7.6c1-1.3,2.5-2.5,4.7-2.5c3.3,0,5.3,2.2,5.3,5.7v10.2h-5.5v-8.5c0-1.7-0.9-2.6-2.2-2.6
		c-1.3,0-2.3,0.9-2.3,2.6v8.5h-5.5V362.3z"/>
	<path class="st0" d="M52.5,375.6L52.5,375.6c0-4.5,3.6-8.2,8.7-8.2c5,0,8.6,3.7,8.6,8.1v0.1c0,4.4-3.6,8.2-8.7,8.2
		C56.1,383.7,52.5,380,52.5,375.6z M64.4,375.6L64.4,375.6c0-2-1.4-3.6-3.3-3.6c-2,0-3.3,1.6-3.3,3.5v0.1c0,1.9,1.4,3.5,3.3,3.5
		C63.1,379.1,64.4,377.5,64.4,375.6z"/>
	<path class="st0" d="M72.1,362.3h5.7v4h-5.7V362.3z M72.2,367.7h5.5v15.6h-5.5V367.7z"/>
	<path class="st0" d="M80.1,375.6L80.1,375.6c0-4.5,3.4-8.2,8.4-8.2c3.2,0,5.3,1.4,6.7,3.5l-3.7,2.8c-0.8-1-1.6-1.6-2.9-1.6
		c-1.8,0-3.1,1.6-3.1,3.5v0.1c0,2,1.3,3.6,3.1,3.6c1.3,0,2.1-0.6,3-1.6l3.7,2.7c-1.4,2.1-3.5,3.6-7,3.6
		C83.6,383.7,80.1,380,80.1,375.6z"/>
	<path class="st0" d="M96.1,375.6L96.1,375.6c0-4.6,3.3-8.2,7.9-8.2c5.4,0,7.9,4,7.9,8.5c0,0.3,0,0.8,0,1.1h-10.5
		c0.4,1.7,1.7,2.6,3.4,2.6c1.3,0,2.3-0.5,3.5-1.6l3,2.5c-1.5,1.9-3.7,3.2-6.8,3.2C99.6,383.7,96.1,380.5,96.1,375.6z M106.8,374.2
		c-0.2-1.7-1.2-2.8-2.7-2.8c-1.4,0-2.4,1.1-2.7,2.8H106.8z"/>
	<path class="st0" d="M113.9,377.7h5.7v5.6h-5.7V377.7z"/>
</g>
</svg>
