<?xml version="1.0" encoding="utf-8"?>
<!-- Generator: Adobe Illustrator 25.4.1, SVG Export Plug-In . SVG Version: 6.00 Build 0)  -->
<svg version="1.1" id="Layer_1" xmlns="http://www.w3.org/2000/svg" xmlns:xlink="http://www.w3.org/1999/xlink" x="0px" y="0px"
	 viewBox="0 0 160 600" style="enable-background:new 0 0 160 600;" xml:space="preserve">
<style type="text/css">
	.st0{fill:#490A09;}
</style>
<g>
	<path class="st0" d="M19.7,242.5H13v-5.4h19.6v5.4h-6.7v17h-6.2V242.5z"/>
	<path class="st0" d="M33.6,237.1h6.9l5.1,14.2l5.1-14.2h6.8l-9.1,22.6h-5.8L33.6,237.1z"/>
</g>
<g>
	<path class="st0" d="M13.2,281.9L13.2,281.9c0-5,3.8-9.1,9.3-9.1c3.6,0,5.9,1.5,7.4,3.9l-4.1,3.1c-0.8-1.2-1.8-1.8-3.2-1.8
		c-2,0-3.4,1.7-3.4,3.8v0.1c0,2.2,1.4,3.9,3.5,3.9c1.4,0,2.4-0.7,3.3-1.8l4.1,2.9c-1.6,2.4-3.9,4-7.7,4
		C17,290.9,13.2,286.8,13.2,281.9z"/>
	<path class="st0" d="M32.1,273.2h6.1v3.5c1-2.4,2.6-3.9,5.5-3.8v6.4h-0.5c-3.2,0-5,1.8-5,5.8v5.4h-6.1V273.2z"/>
	<path class="st0" d="M45.8,267.1h6.3v4.5h-6.3V267.1z M45.9,273.2H52v17.3h-6.1V273.2z"/>
	<path class="st0" d="M56.5,285.1v-7h-2v-4.9h2v-4.4h6.1v4.4h4v4.9h-4v5.9c0,1.2,0.5,1.7,1.7,1.7c0.8,0,1.6-0.2,2.3-0.6v4.8
		c-1.1,0.6-2.5,1-4.2,1C58.6,290.8,56.5,289.2,56.5,285.1z"/>
	<path class="st0" d="M69.2,267.1h6.3v4.5h-6.3V267.1z M69.3,273.2h6.1v17.3h-6.1V273.2z"/>
	<path class="st0" d="M78.1,281.9L78.1,281.9c0-5,3.8-9.1,9.3-9.1c3.6,0,5.9,1.5,7.4,3.9l-4.1,3.1c-0.8-1.2-1.8-1.8-3.2-1.8
		c-2,0-3.4,1.7-3.4,3.8v0.1c0,2.2,1.4,3.9,3.5,3.9c1.4,0,2.4-0.7,3.3-1.8l4.1,2.9c-1.6,2.4-3.9,4-7.7,4
		C81.9,290.9,78.1,286.8,78.1,281.9z"/>
	<path class="st0" d="M95.7,288.3l2.3-3.7c2,1.3,4.2,2,6,2c1.1,0,1.5-0.3,1.5-0.9v-0.1c0-0.7-1-1-2.8-1.5c-3.4-0.9-6.1-2-6.1-5.5
		v-0.1c0-3.7,2.9-5.7,6.9-5.7c2.5,0,5.2,0.7,7.1,2l-2.1,3.8c-1.8-1-3.7-1.6-5.1-1.6c-0.9,0-1.4,0.4-1.4,0.8v0.1c0,0.7,1,1,2.8,1.5
		c3.4,1,6.1,2.1,6.1,5.5v0.1c0,3.8-2.8,5.8-7.1,5.8C101,290.9,98.1,290,95.7,288.3z"/>
</g>
<g>
	<path class="st0" d="M13.2,312.9L13.2,312.9c0-5,3.8-9.1,9.3-9.1c3.6,0,5.9,1.5,7.4,3.9l-4.1,3.1c-0.8-1.2-1.8-1.8-3.2-1.8
		c-2,0-3.4,1.7-3.4,3.8v0.1c0,2.2,1.4,3.9,3.5,3.9c1.4,0,2.4-0.7,3.3-1.8l4.1,2.9c-1.6,2.4-3.9,4-7.7,4
		C17,321.9,13.2,317.8,13.2,312.9z"/>
	<path class="st0" d="M32.1,298.1h6.1v8.4c1.1-1.4,2.7-2.8,5.2-2.8c3.7,0,5.9,2.4,5.9,6.4v11.3h-6.1v-9.4c0-1.9-1-2.9-2.4-2.9
		c-1.5,0-2.6,1-2.6,2.9v9.4h-6.1V298.1z"/>
	<path class="st0" d="M51.7,312.9L51.7,312.9c0-5.1,3.6-9.1,8.7-9.1c6,0,8.7,4.4,8.7,9.5c0,0.4,0,0.8,0,1.2H57.5
		c0.5,1.9,1.9,2.8,3.7,2.8c1.4,0,2.6-0.5,3.8-1.8l3.4,2.8c-1.7,2.1-4.1,3.5-7.5,3.5C55.5,321.9,51.7,318.3,51.7,312.9z M63.5,311.4
		c-0.2-1.9-1.3-3.1-3-3.1c-1.6,0-2.7,1.2-3,3.1H63.5z"/>
	<path class="st0" d="M71,312.9L71,312.9c0-5.1,3.6-9.1,8.7-9.1c6,0,8.7,4.4,8.7,9.5c0,0.4,0,0.8,0,1.2H76.9
		c0.5,1.9,1.9,2.8,3.7,2.8c1.4,0,2.6-0.5,3.8-1.8l3.4,2.8c-1.7,2.1-4.1,3.5-7.5,3.5C74.9,321.9,71,318.3,71,312.9z M82.8,311.4
		c-0.2-1.9-1.3-3.1-3-3.1c-1.6,0-2.7,1.2-3,3.1H82.8z"/>
	<path class="st0" d="M91.1,304.2h6.1v3.5c1-2.4,2.6-3.9,5.5-3.8v6.4h-0.5c-3.2,0-5,1.8-5,5.8v5.4h-6.1V304.2z"/>
	<path class="st0" d="M103.8,312.9L103.8,312.9c0-5.1,3.6-9.1,8.7-9.1c6,0,8.7,4.4,8.7,9.5c0,0.4,0,0.8,0,1.2h-11.6
		c0.5,1.9,1.9,2.8,3.7,2.8c1.4,0,2.6-0.5,3.8-1.8l3.4,2.8c-1.7,2.1-4.1,3.5-7.5,3.5C107.6,321.9,103.8,318.3,103.8,312.9z
		 M115.6,311.4c-0.2-1.9-1.3-3.1-3-3.1c-1.6,0-2.7,1.2-3,3.1H115.6z"/>
	<path class="st0" d="M123.2,312.9L123.2,312.9c0-5.7,3.5-9.1,7.6-9.1c2.6,0,4.2,1.2,5.3,2.5v-8.2h6.1v23.4h-6.1v-2.3
		c-1.2,1.4-2.7,2.7-5.3,2.7C126.8,321.9,123.2,318.4,123.2,312.9z M136.2,312.8L136.2,312.8c0-2.3-1.6-4-3.5-4s-3.6,1.6-3.6,3.9v0.1
		c0,2.3,1.6,3.9,3.6,3.9S136.2,315.1,136.2,312.8z"/>
	<path class="st0" d="M145.2,315.2h6.3v6.2h-6.3V315.2z"/>
</g>
</svg>
