<?xml version="1.0" encoding="utf-8"?>
<!-- Generator: Adobe Illustrator 25.4.1, SVG Export Plug-In . SVG Version: 6.00 Build 0)  -->
<svg version="1.1" id="Layer_1" xmlns="http://www.w3.org/2000/svg" xmlns:xlink="http://www.w3.org/1999/xlink" x="0px" y="0px"
	 viewBox="0 0 160 600" style="enable-background:new 0 0 160 600;" xml:space="preserve">
<style type="text/css">
	.st0{fill:#490A09;}
</style>
<g>
	<path class="st0" d="M13.2,170.3L13.2,170.3c0-6.6,5-11.7,11.8-11.7c4.6,0,7.5,1.9,9.5,4.7l-4.7,3.6c-1.3-1.6-2.8-2.6-4.9-2.6
		c-3.1,0-5.3,2.7-5.3,5.9v0.1c0,3.4,2.2,6,5.3,6c2.3,0,3.7-1.1,5.1-2.7l4.7,3.3c-2.1,2.9-5,5.1-9.9,5.1
		C18.4,181.9,13.2,177,13.2,170.3z"/>
	<path class="st0" d="M36.1,176.5L36.1,176.5c0-3.6,2.7-5.5,6.8-5.5c1.6,0,3.2,0.3,4.2,0.7v-0.3c0-1.8-1.1-2.8-3.5-2.8
		c-1.8,0-3.2,0.4-4.8,1l-1.2-4.3c2-0.8,4-1.3,7-1.3c3.1,0,5.2,0.7,6.6,2.1c1.3,1.3,1.9,3.1,1.9,5.5v10h-6v-1.8
		c-1.2,1.3-2.8,2.2-5.1,2.2C38.7,181.8,36.1,180,36.1,176.5z M47.1,175.2v-0.8c-0.6-0.3-1.5-0.4-2.4-0.4c-1.8,0-2.8,0.9-2.8,2.1v0.1
		c0,1.2,0.9,1.9,2.1,1.9C45.9,178,47.1,176.9,47.1,175.2z"/>
	<path class="st0" d="M57.1,176.1v-7h-2v-4.9h2v-4.4h6.1v4.4h4v4.9h-4v5.9c0,1.2,0.5,1.7,1.7,1.7c0.8,0,1.6-0.2,2.3-0.6v4.8
		c-1.1,0.6-2.5,1-4.2,1C59.3,181.8,57.1,180.2,57.1,176.1z"/>
	<path class="st0" d="M68.7,172.9L68.7,172.9c0-5,3.8-9.1,9.3-9.1c3.6,0,5.9,1.5,7.4,3.9l-4.1,3.1c-0.8-1.2-1.8-1.8-3.2-1.8
		c-2,0-3.4,1.7-3.4,3.8v0.1c0,2.2,1.4,3.9,3.5,3.9c1.4,0,2.4-0.7,3.3-1.8l4.1,2.9c-1.6,2.4-3.9,4-7.7,4
		C72.5,181.9,68.7,177.8,68.7,172.9z"/>
	<path class="st0" d="M87.6,158.1h6.1v8.4c1.1-1.4,2.7-2.8,5.2-2.8c3.7,0,5.9,2.4,5.9,6.4v11.3h-6.1v-9.4c0-1.9-1-2.9-2.4-2.9
		c-1.5,0-2.6,1-2.6,2.9v9.4h-6.1V158.1z"/>
</g>
<g>
	<path class="st0" d="M14.7,207.1v-7h-2v-4.9h2v-4.4h6.1v4.4h4v4.9h-4v5.9c0,1.2,0.5,1.7,1.7,1.7c0.8,0,1.6-0.2,2.3-0.6v4.8
		c-1.1,0.6-2.5,1-4.2,1C16.9,212.8,14.7,211.2,14.7,207.1z"/>
	<path class="st0" d="M27.4,189.1h6.1v8.4c1.1-1.4,2.7-2.8,5.2-2.8c3.7,0,5.9,2.4,5.9,6.4v11.3h-6.1v-9.4c0-1.9-1-2.9-2.4-2.9
		c-1.5,0-2.6,1-2.6,2.9v9.4h-6.1V189.1z"/>
	<path class="st0" d="M47,203.9L47,203.9c0-5.1,3.6-9.1,8.7-9.1c6,0,8.7,4.4,8.7,9.5c0,0.4,0,0.8,0,1.2H52.9
		c0.5,1.9,1.9,2.8,3.7,2.8c1.4,0,2.6-0.5,3.8-1.8l3.4,2.8c-1.7,2.1-4.1,3.5-7.5,3.5C50.8,212.9,47,209.3,47,203.9z M58.8,202.4
		c-0.2-1.9-1.3-3.1-3-3.1c-1.6,0-2.7,1.2-3,3.1H58.8z"/>
</g>
<g>
	<path class="st0" d="M13,234.9L13,234.9c0-5.7,3.5-9.1,7.6-9.1c2.6,0,4.2,1.2,5.3,2.5v-8.2H32v23.4h-6.1v-2.3
		c-1.2,1.4-2.7,2.7-5.3,2.7C16.5,243.9,13,240.4,13,234.9z M26,234.8L26,234.8c0-2.3-1.6-4-3.5-4c-2,0-3.6,1.6-3.6,3.9v0.1
		c0,2.3,1.6,3.9,3.6,3.9C24.4,238.8,26,237.1,26,234.8z"/>
	<path class="st0" d="M35.3,226.2h6.1v3.5c1-2.4,2.6-3.9,5.5-3.8v6.4h-0.5c-3.2,0-5,1.8-5,5.8v5.4h-6.1V226.2z"/>
	<path class="st0" d="M47.3,238.5L47.3,238.5c0-3.6,2.7-5.5,6.8-5.5c1.6,0,3.2,0.3,4.2,0.7v-0.3c0-1.8-1.1-2.8-3.5-2.8
		c-1.8,0-3.2,0.4-4.8,1l-1.2-4.3c2-0.8,4-1.3,7-1.3c3.1,0,5.2,0.7,6.6,2.1c1.3,1.3,1.9,3.1,1.9,5.5v10h-6v-1.8
		c-1.2,1.3-2.8,2.2-5.1,2.2C49.9,243.9,47.3,242,47.3,238.5z M58.3,237.2v-0.8c-0.6-0.3-1.5-0.4-2.4-0.4c-1.8,0-2.8,0.9-2.8,2.1v0.1
		c0,1.2,0.9,1.9,2.1,1.9C57.1,240.1,58.3,238.9,58.3,237.2z"/>
	<path class="st0" d="M67.4,226.2h6.1v2.4c1.1-1.4,2.7-2.8,5.2-2.8c2.3,0,4.1,1,5,2.8c1.5-1.7,3.3-2.8,5.8-2.8
		c3.7,0,5.9,2.3,5.9,6.3v11.4h-6.1v-9.4c0-1.9-0.9-2.9-2.4-2.9c-1.4,0-2.5,1-2.5,2.9v9.4h-6.1v-9.4c0-1.9-0.9-2.9-2.4-2.9
		s-2.5,1-2.5,2.9v9.4h-6.1V226.2z"/>
	<path class="st0" d="M97.6,238.5L97.6,238.5c0-3.6,2.7-5.5,6.8-5.5c1.6,0,3.2,0.3,4.2,0.7v-0.3c0-1.8-1.1-2.8-3.5-2.8
		c-1.8,0-3.2,0.4-4.8,1l-1.2-4.3c2-0.8,4-1.3,7-1.3c3.1,0,5.2,0.7,6.6,2.1c1.3,1.3,1.9,3.1,1.9,5.5v10h-6v-1.8
		c-1.2,1.3-2.8,2.2-5.1,2.2C100.1,243.9,97.6,242,97.6,238.5z M108.6,237.2v-0.8c-0.6-0.3-1.5-0.4-2.4-0.4c-1.8,0-2.8,0.9-2.8,2.1
		v0.1c0,1.2,0.9,1.9,2.1,1.9C107.3,240.1,108.6,238.9,108.6,237.2z"/>
	<path class="st0" d="M117.3,237.2h6.3v6.2h-6.3V237.2z"/>
</g>
</svg>
