<?xml version="1.0" encoding="utf-8"?>
<!-- Generator: Adobe Illustrator 25.4.1, SVG Export Plug-In . SVG Version: 6.00 Build 0)  -->
<svg version="1.1" id="Layer_1" xmlns="http://www.w3.org/2000/svg" xmlns:xlink="http://www.w3.org/1999/xlink" x="0px" y="0px"
	 viewBox="0 0 160 600" style="enable-background:new 0 0 160 600;" xml:space="preserve">
<style type="text/css">
	.st0{fill:#490A09;}
</style>
<g>
	<path class="st0" d="M25.2,264.9h6.1l3.5,22.6h-6.5l-0.5-4h-8.6l-2.7,4H9.6L25.2,264.9z M27.2,278.6l-0.8-6.4l-4.2,6.4H27.2z"/>
</g>
<g>
	<path class="st0" d="M17.6,296.1h17.9l-1.5,5.4H22.4l-1,3.8h10.6l-1.4,5.2H20l-2.1,8h-6.2L17.6,296.1z"/>
	<path class="st0" d="M36.8,301.2h6.1l-0.9,3.5c1.7-2.5,3.7-4,6.5-3.8l-1.7,6.4h-0.5c-3.3,0-5.5,1.9-6.6,6l-1.4,5.2h-6.1L36.8,301.2
		z"/>
	<path class="st0" d="M56.4,314.4c1.2,0,2.4-0.4,3.7-1.4l2.8,3.3c-1.8,1.5-4.1,2.6-7.1,2.6c-5.1,0-8.3-3-8.3-7.7
		c0-5.1,4-10.4,10.4-10.4c5.1,0,7.4,3.4,7.4,7.2c0,1.2-0.3,2.4-0.7,3.6H53.1C53.2,313.2,54.3,314.4,56.4,314.4z M59.7,308.4
		c0.1-0.3,0.2-0.6,0.2-0.9c0-1.2-0.8-2.2-2.4-2.2c-1.6,0-3.2,1.1-4,3.1H59.7z"/>
	<path class="st0" d="M69.8,301.2h6.1l-0.5,2c1.2-1.2,2.9-2.4,5-2.4c3.1,0,5,2,5,5.2c0,0.9-0.2,2-0.5,3.1l-2.5,9.4h-6.1l2.4-9.1
		c0.1-0.4,0.2-1,0.2-1.4c0-1.2-0.7-1.8-1.9-1.8c-1.7,0-2.7,1.2-3.2,3.1l-2.5,9.2h-6.1L69.8,301.2z"/>
	<path class="st0" d="M86.9,311.3c0-5.8,4.6-10.5,10.4-10.5c4,0,6.4,2.1,7.4,4.7l-4.8,2.5c-0.6-1.3-1.4-2.2-3-2.2
		c-2.3,0-4.2,2.5-4.2,5.2c0,1.8,1.2,2.9,2.7,2.9c1.3,0,2.2-0.5,3.3-1.6l3.7,3.2c-1.8,2-3.9,3.4-7.4,3.4
		C90.3,318.9,86.9,316,86.9,311.3z"/>
	<path class="st0" d="M109.6,295.1h6.1l-2.1,8c1.2-1.2,2.9-2.4,5-2.4c3.1,0,5,2,5,5.2c0,0.9-0.2,2-0.5,3.1l-2.5,9.4h-6.1l2.4-9.1
		c0.1-0.4,0.2-1,0.2-1.4c0-1.2-0.7-1.8-1.9-1.8c-1.7,0-2.7,1.2-3.2,3.1l-2.5,9.2h-6.1L109.6,295.1z"/>
</g>
<g>
	<path class="st0" d="M15.5,327.1h6.8l1.2,14.1l8.8-14.1h7l-15.1,22.6h-5.8L15.5,327.1z"/>
	<path class="st0" d="M39.5,332.2h6.1l-4.6,17.3h-6.1L39.5,332.2z M41,326.1h6.3l-1.2,4.5h-6.3L41,326.1z"/>
	<path class="st0" d="M50.7,326.1h6.1l-6.3,23.4h-6.1L50.7,326.1z"/>
	<path class="st0" d="M60.4,326.1h6.1l-6.3,23.4h-6.1L60.4,326.1z"/>
	<path class="st0" d="M64.3,345.1c0-3.8,3-6.1,7.6-6.1c1.6,0,3,0.3,4.4,0.7l0.1-0.2c0.1-0.3,0.2-0.6,0.2-1.1c0-1.1-0.9-1.9-3-1.9
		c-1.6,0-3.5,0.4-4.7,0.9L68,333c1.8-0.6,4.3-1.1,6.8-1.1c5.2,0,7.7,2,7.7,5.5c0,0.8-0.1,1.6-0.4,2.5l-2.6,9.5h-6l0.5-1.9
		c-1.5,1.4-3,2.2-5,2.2C66.3,349.8,64.3,348,64.3,345.1z M75.5,343l0.2-0.6c-0.7-0.2-1.4-0.4-2.3-0.4c-1.9,0-3.2,0.9-3.2,2.5
		c0,1,0.7,1.6,1.7,1.6C73.5,346.1,75,344.7,75.5,343z"/>
	<path class="st0" d="M81.9,352.3l2.7-3.8c2,1.2,4.2,1.8,6.1,1.8c1.6,0,2.7-0.4,3.6-1.3c0.6-0.6,1.1-1.5,1.4-2.8l0.1-0.4
		c-1.5,1.4-3.1,2.1-5.2,2.1c-3.1,0-6.2-2.1-6.2-6c0-5.4,3.9-10.1,9.1-10.1c2.6,0,4.3,1.3,5.2,2.8l0.6-2.5h6.1l-3.7,13.8
		c-0.8,3.1-1.7,4.8-3.1,6.2c-1.7,1.7-4.1,2.5-7.7,2.5C87.6,354.7,84.1,353.7,81.9,352.3z M97.4,339.4c0-1.6-1.1-2.8-2.9-2.8
		c-2.3,0-4,2.1-4,4.3c0,1.6,1.1,2.7,2.8,2.7C95.6,343.6,97.4,341.6,97.4,339.4z"/>
	<path class="st0" d="M114.5,345.4c1.2,0,2.4-0.4,3.7-1.4l2.8,3.3c-1.8,1.5-4.1,2.6-7.1,2.6c-5.1,0-8.3-3-8.3-7.7
		c0-5.1,4-10.4,10.4-10.4c5.1,0,7.4,3.4,7.4,7.2c0,1.2-0.3,2.4-0.7,3.6h-11.5C111.4,344.2,112.4,345.4,114.5,345.4z M117.8,339.4
		c0.1-0.3,0.2-0.6,0.2-0.9c0-1.2-0.8-2.2-2.4-2.2c-1.6,0-3.2,1.1-4,3.1H117.8z"/>
</g>
<g>
	<path class="st0" d="M12.9,371.9L12.9,371.9c0-5,4-9.1,9.6-9.1c5.5,0,9.5,4.1,9.5,9v0.1c0,4.9-4,9.1-9.6,9.1
		C16.9,380.9,12.9,376.9,12.9,371.9z M26.1,371.9L26.1,371.9c0-2.2-1.5-4-3.7-4c-2.2,0-3.6,1.8-3.6,3.8v0.1c0,2.1,1.5,3.9,3.7,3.9
		C24.7,375.8,26.1,374,26.1,371.9z"/>
	<path class="st0" d="M34.6,363.2h6.1v2.4c1.1-1.4,2.7-2.8,5.2-2.8c3.7,0,5.9,2.4,5.9,6.4v11.3h-6.1v-9.4c0-1.9-1-2.9-2.4-2.9
		c-1.5,0-2.6,1-2.6,2.9v9.4h-6.1V363.2z"/>
</g>
<g>
	<path class="st0" d="M14,389.1h6.6l5.3,8.7l5.3-8.7h6.6v22.4h-6.2v-12.9l-5.7,8.8h-0.1l-5.7-8.7v12.8H14V389.1z"/>
	<path class="st0" d="M41.8,389.1H48v8.4h8v-8.4h6.2v22.4h-6.2V403h-8v8.5h-6.2V389.1z"/>
	<path class="st0" d="M65.2,407.5l8-8.5h-7.7v-4.8h15.8v4l-8,8.5h8v4.8H65.2V407.5z"/>
</g>
<g>
	<path class="st0" d="M13.2,431.4L13.2,431.4c0-6.6,5-11.7,11.8-11.7c4.6,0,7.5,1.9,9.5,4.7l-4.7,3.6c-1.3-1.6-2.8-2.6-4.9-2.6
		c-3.1,0-5.3,2.7-5.3,5.9v0.1c0,3.4,2.2,6,5.3,6c2.3,0,3.7-1.1,5.1-2.7l4.7,3.3c-2.1,2.9-5,5.1-9.9,5.1
		C18.4,443,13.2,438.1,13.2,431.4z"/>
	<path class="st0" d="M37,419.2h6.1v8.4c1.1-1.4,2.7-2.8,5.2-2.8c3.7,0,5.9,2.4,5.9,6.4v11.3h-6.1v-9.4c0-1.9-1-2.9-2.4-2.9
		c-1.5,0-2.6,1-2.6,2.9v9.4H37V419.2z"/>
	<path class="st0" d="M56.6,433.9L56.6,433.9c0-5,4-9.1,9.6-9.1c5.5,0,9.5,4.1,9.5,9v0.1c0,4.9-4,9.1-9.6,9.1
		C60.6,442.9,56.6,438.9,56.6,433.9z M69.8,433.9L69.8,433.9c0-2.2-1.5-4-3.7-4c-2.2,0-3.6,1.8-3.6,3.8v0.1c0,2.1,1.5,3.9,3.7,3.9
		C68.4,437.8,69.8,436,69.8,433.9z"/>
	<path class="st0" d="M78.3,419.2h6.3v4.5h-6.3V419.2z M78.4,425.2h6.1v17.3h-6.1V425.2z"/>
	<path class="st0" d="M87.2,433.9L87.2,433.9c0-5,3.8-9.1,9.3-9.1c3.6,0,5.9,1.5,7.4,3.9l-4.1,3.1c-0.8-1.2-1.8-1.8-3.2-1.8
		c-2,0-3.4,1.7-3.4,3.8v0.1c0,2.2,1.4,3.9,3.5,3.9c1.4,0,2.4-0.7,3.3-1.8l4.1,2.9c-1.6,2.4-3.9,4-7.7,4
		C91,442.9,87.2,438.8,87.2,433.9z"/>
	<path class="st0" d="M104.9,433.9L104.9,433.9c0-5.1,3.6-9.1,8.7-9.1c6,0,8.7,4.4,8.7,9.5c0,0.4,0,0.8,0,1.2h-11.6
		c0.5,1.9,1.9,2.8,3.7,2.8c1.4,0,2.6-0.5,3.8-1.8l3.4,2.8c-1.7,2.1-4.1,3.5-7.5,3.5C108.8,442.9,104.9,439.3,104.9,433.9z
		 M116.7,432.4c-0.2-1.9-1.3-3.1-3-3.1c-1.6,0-2.7,1.2-3,3.1H116.7z"/>
	<path class="st0" d="M124.6,436.3h6.3v6.2h-6.3V436.3z"/>
</g>
</svg>
