<?xml version="1.0" encoding="utf-8"?>
<!-- Generator: Adobe Illustrator 25.4.1, SVG Export Plug-In . SVG Version: 6.00 Build 0)  -->
<svg version="1.1" id="Layer_1" xmlns="http://www.w3.org/2000/svg" xmlns:xlink="http://www.w3.org/1999/xlink" x="0px" y="0px"
	 viewBox="0 0 160 600" style="enable-background:new 0 0 160 600;" xml:space="preserve">
<style type="text/css">
	.st0{fill:#AB1F2D;}
	.st1{fill:#FFFFFF;}
</style>
<path class="st0" d="M26.7,533.1c-7.5,0-13.7,6.1-13.7,13.7v4c0,7.5,6.1,13.7,13.7,13.7h94.8c7.5,0,13.7-6.1,13.7-13.7v-4
	c0-7.5-6.1-13.7-13.7-13.7H26.7z"/>
<g>
	<path class="st1" d="M23.9,543.9h2.4l2.1,7l2.3-7h2l2.3,7l2.1-7h2.4L36,554.3h-2l-2.3-6.8l-2.3,6.8h-2L23.9,543.9z"/>
	<path class="st1" d="M43.5,543.8h2.1l4.4,10.4h-2.4l-0.9-2.3h-4.4l-0.9,2.3H39L43.5,543.8z M45.9,549.9l-1.4-3.4l-1.4,3.4H45.9z"/>
	<path class="st1" d="M52.7,546h-3.1v-2.1h8.6v2.1H55v8.2h-2.3V546z"/>
	<path class="st1" d="M59,549.1L59,549.1c0-3,2.2-5.4,5.4-5.4c2,0,3.1,0.7,4.1,1.6L67,547c-0.8-0.7-1.6-1.2-2.6-1.2
		c-1.7,0-3,1.4-3,3.2v0c0,1.8,1.2,3.3,3,3.3c1.2,0,1.9-0.5,2.7-1.2l1.4,1.5c-1.1,1.1-2.2,1.8-4.2,1.8C61.2,554.4,59,552,59,549.1z"
		/>
	<path class="st1" d="M70.3,543.9h2.3v4.1h4.2v-4.1h2.3v10.3h-2.3v-4.2h-4.2v4.2h-2.3V543.9z"/>
	<path class="st1" d="M86,543.9h2.1l4.8,6.4v-6.4h2.2v10.3h-1.9l-5-6.6v6.6H86V543.9z"/>
	<path class="st1" d="M97.2,549.1L97.2,549.1c0-3,2.3-5.4,5.5-5.4s5.5,2.4,5.5,5.3v0c0,2.9-2.3,5.4-5.5,5.4
		C99.5,554.4,97.2,552,97.2,549.1z M105.8,549.1L105.8,549.1c0-1.8-1.3-3.3-3.1-3.3c-1.8,0-3.1,1.4-3.1,3.2v0c0,1.8,1.3,3.3,3.1,3.3
		C104.6,552.3,105.8,550.8,105.8,549.1z"/>
	<path class="st1" d="M108.9,543.9h2.4l2.1,7l2.3-7h2l2.3,7l2.1-7h2.4l-3.5,10.4h-2l-2.3-6.8l-2.3,6.8h-2L108.9,543.9z"/>
</g>
</svg>
